<?xml version="1.0" encoding="utf-8"?>
<!-- Generator: Adobe Illustrator 22.0.1, SVG Export Plug-In . SVG Version: 6.00 Build 0)  -->
<svg version="1.1" id="Livello_1" xmlns="http://www.w3.org/2000/svg" xmlns:xlink="http://www.w3.org/1999/xlink" x="0px" y="0px"
	 viewBox="0 0 150.2 124.2" style="enable-background:new 0 0 150.2 124.2;" xml:space="preserve">
<style type="text/css">
	.st0{fill:#020203;stroke:#020203;stroke-width:7.865816e-03;}
</style>
<path d="M147.3,14.1c-1.4-0.9-3-1.3-4.6-1.4c-6.3-0.6-12.5,0.2-18.5,1.9c-10.9,3.1-20.5,8.9-29.6,15.6c-6.5,4.7-11.9,10.5-15.4,17.9
	c-0.2-0.4-0.4-0.9-0.7-1.2C78,46,78,45.5,78.8,44.7c1.8-1.7,2.1-4.4,0.8-6.5c-0.5-0.7-0.5-1.3-0.2-2.1C80.8,32,82.5,28,84.4,24
	c3.3-6.7,7.4-12.8,13.2-17.7c3.3-2.8,6.8-4.8,11.2-5.2c3.5-0.3,6,1.6,7,5.1c0.9,3.3,0.3,5-3.1,6.9c-1.5,0.8-3,0.2-4.4-0.5
	c-1-0.6-1-1.7-1-2.8c0.4,0.2,0.7,0.3,1,0.4c1.3,0.5,2.7,0,3.3-1.2c0.6-1.2,0.3-2.6-0.7-3.5c-1.1-0.8-2.5-0.7-3.5,0.2
	c-1.6,1.5-2.1,4.3-1.2,6.4c0.7,1.7,2.5,2.5,4.9,2.4c0.5,0,1.1-0.1,1.6-0.2c2.7-0.6,5.4-3.9,5-6.6c-0.3-2.3-1.3-4.4-2.8-6.1
	c-0.8-0.9-1.7-1.5-2.9-1.6c-3-0.2-6-0.2-8.8,1c-3.9,1.7-7.3,4.1-10,7.4c-6.7,8.1-12.6,16.6-15.3,27c-0.2,0.6-0.3,0.8-1,0.5
	c-1.3-0.5-2.6-0.5-3.9,0c-0.8,0.3-0.9,0-1-0.6c-0.4-1.5-0.8-2.9-1.4-4.4c-2.2-6.2-5.8-11.7-9.6-17C58.3,10,55.1,6.2,50.9,3.3
	c-3.8-2.5-7.8-3.6-12.3-3.2c-0.7,0.1-1.4,0.3-2,0.6c-3.2,1.8-4.8,7.2-3.2,10.4c1.5,3.1,5.5,4.5,8.7,3.1c0.7-0.3,1.4-0.8,1.7-1.6
	c1-2.2,1-4.8-1-6.8c-1-1-2.4-1.1-3.5-0.3c-1.1,0.8-1.4,2.3-0.8,3.4c0.6,1.2,2,1.7,3.3,1.2c0.3-0.1,0.6-0.5,1-0.3
	c0,1.6-0.2,2.2-0.9,2.7c-2.7,1.9-7.3,0-7.9-3.2c-0.8-4.5,3.1-8.7,7.6-8.2c3,0.4,5.9,1.3,8.4,3.1c2.8,2.1,5.4,4.4,7.7,7
	C64,18.8,67.8,27.7,71,36.8c0.1,0.4,0,0.8-0.2,1.1c-1.7,2.7-1.3,5.1,1,7.2c0.4,0.3,0.5,0.6,0.2,1c-0.4,0.6-0.7,1.2-1,1.9
	c-2.2-4.6-5-8.5-8.5-12c-8.3-8.1-18.1-14-28.6-18.7c-7.6-3.4-15.5-5.1-23.9-4.9c-2.3,0.1-4.6,0.3-6.7,1.4c-2.9,1.6-4,4.5-2.6,7.5
	c3.1,6.9,6.1,13.8,8.1,21.1c0.6,2.3,1.1,4.7,2.3,6.9c2.2,4,4.3,7.9,7.7,11c0.8,0.7,0.9,1.3,0.3,2.3c-2.4,4.5-3.6,9.3-2.1,14.4
	c1.7,5.6,4.8,10.3,10.9,12.1c1.6,0.5,3.2,0.6,4.9,0.7c0.1,0.5-0.2,0.8-0.3,1.2c-1.1,3-2.5,6-2.8,9.2c-0.5,6.4,0.6,12.7,3.5,18.5
	c0.5,1,1.2,1.9,2,2.7c2.6,2.6,4.9,3.1,8.3,1.7c1-0.4,2-1,3-1.6c2.6-1.6,5.1-3.3,7.3-5.4C64.9,106.1,70.8,93.1,72.3,78
	c0.1-0.7-0.1-1.4,0.3-2.1c0.5,0.3,0.4,0.8,0.4,1.1c0.6,4.7,1.3,9.3,1.6,14c0,0.4-0.1,1,0.5,1c0.6,0,0.5-0.6,0.5-1
	c0.3-3.5,0.7-7,1.2-10.5c0.2-1.6,0.3-3.2,0.7-4.7c0.5,0.2,0.4,0.6,0.4,0.9c0.1,6.6,1.9,12.8,4.3,18.9c4.4,10.9,11.4,19.7,21.4,25.9
	c1.4,0.9,2.9,1.6,4.4,2.2c1.8,0.6,3.5,0.4,5.1-0.6c1.7-1.1,3-2.6,4-4.3c1.3-2.4,2-5,2.6-7.6c1.4-6.2,1.4-12.4-1.3-18.3
	c-0.4-0.9-0.7-1.9-1.1-2.9c1.4-0.2,2.6-0.3,3.9-0.5c7.8-1.2,12.4-10.1,12.5-15.6c0.1-4.1-0.9-7.9-2.8-11.4c-0.4-0.7-0.3-1.2,0.2-1.7
	c0.8-0.8,1.6-1.6,2.3-2.4c3.4-4.5,6.3-9.2,7.7-14.8c1.9-7.7,5.1-15,8.4-22.2C150.9,18.6,150,15.8,147.3,14.1z"/>
</svg>
