<?xml version="1.0" encoding="utf-8"?>
<!-- Generator: Adobe Illustrator 19.0.0, SVG Export Plug-In . SVG Version: 6.00 Build 0)  -->
<svg version="1.1" id="Layer_1" xmlns="http://www.w3.org/2000/svg" xmlns:xlink="http://www.w3.org/1999/xlink" x="0px" y="0px"
	 viewBox="0 0 847.6 723.6" style="enable-background:new 0 0 847.6 723.6;" xml:space="preserve">
<g>
	<path d="M0,488.3c0-19.6,2.9-35.7,7.5-51.5C13,418,21,400.1,30.3,382.8c15-27.7,33.2-53.2,53.1-77.4c3.9-4.8,8.2-9.2,12.3-13.8
		c9.2-10.3,18.4-20.6,27.7-30.9c7.4-8.3,14.9-16.5,22.3-24.8c5.1-5.7,10.2-11.5,15.4-17.2c0.9-1,1.2-2.1,1.3-3.5
		c0.2-13.8,2-27.4,5.7-40.8c2.9-10.4,7-20.3,13.2-29.2c0.6-0.9,0.9-1.9,1.1-2.9c3.6-16.8,9.5-32.9,17.2-48.3
		c7.4-14.7,16.4-28.4,27.3-40.7c13.9-15.6,30.1-28.1,48.9-37.3c10.7-5.3,22-8.7,33.7-10.8c10.2-1.9,20.5-3.4,30.9-4.2
		c8.8-0.7,17.7-1.2,26.6-1c22.7,0.6,45.1,3.7,66.6,11.3c20.1,7.1,38.2,17.5,53.9,31.9c4.7,4.3,8.9,8.9,13.2,13.6
		c3.9,4.3,7.9,8.4,11.6,12.8c9.5,11.3,18.2,23.3,26.4,35.7c13.9,21,26.1,42.9,37.1,65.5c11.4,23.5,21.5,47.5,30.5,72
		c4.7,12.9,9.2,25.9,13.3,39c0.4,1.2,0.9,2.4,1.5,3.5c16.6,27.6,33.9,54.6,53.1,80.5c8.7,11.8,17.9,23.2,28.1,33.7
		c4.3,4.4,8.8,8.6,13.9,12.1c0.7,0.5,1.5,0.9,2.2,1.5c2.2,1.5,4.2,2,6.8,0.6c3.8-1.9,8-2.5,12.4-2.1c6.5,0.7,11.3,4.1,14.9,9.4
		c2.7,4.1,4.5,8.7,5.5,13.5c1.6,7.8,4,15.3,6.1,23c2.1,7.7,4.4,15.4,6.4,23.1c0.5,1.9,1.5,2.7,3.3,3.3c10.4,3.2,20.7,6.6,31.1,9.9
		c2.7,0.9,5.5,1.8,8.1,2.9c8.3,3.5,16.6,7.2,25.3,9.7c2.4,0.7,4.6,1.8,6.7,3.3c0.9,0.6,1.8,1.4,2.3,2.4c1.2,2.2-0.1,4.6-2.6,4.5
		c-3.6-0.1-7.2-0.3-10.8-0.6c-6.6-0.6-13.2-1.2-19.8-2.2c-3.6-0.6-7.3-1.1-10.8-2.2c-3.7-1.2-7.5-1.7-11.3-2.1
		c-6.4-0.6-12.9-1.1-19.3-1.7c-1.9-0.2-2,0-1.8,1.9c1.3,12.2-2.7,22.7-10.9,31.6c-6.8,7.4-15.4,12.1-24.7,15.7
		c-3.4,1.3-6.8,2.4-10.3,3.3c-2.2,0.6-2.4,0.8-2.2,2.9c0.5,5.7,1.1,11.5,1.7,17.2c0.6,5.9,1.1,11.8,1.6,17.7
		c0.6,6,1.1,11.9,1.7,17.9c2.1,22.4,7.9,44,14.3,65.5c1.8,5.9,4,11.6,6.9,17.1c1,1.8,2.1,3.3,3.7,4.6c5.1,4.3,10.1,8.7,15.1,12.9
		c1.5,1.3,2,2.8,1.9,4.7c-0.1,1.8-1,2.6-2.8,2.6c-1.1,0-2.1-0.3-3-0.8c-5.8-2.8-11.1-6.4-15.1-11.6c-5.7-7.4-9.9-15.7-13.5-24.3
		c-6.3-15.1-10.5-30.9-13.9-46.9c-2.6-12.5-4.7-25.1-6.3-37.8c-0.2-1.3-0.5-2.5-0.9-3.7c-3.8-9.4-7.6-18.8-11.4-28.3
		c-0.7-1.7-1.7-2.6-3.5-3.1c-27-7.2-52.1-18.5-75.1-34.4c-14.3-9.8-27-21.3-37.8-34.8c-0.4-0.6-0.9-1.1-1.5-1.6
		c-16.8-16-31.6-33.7-45.3-52.4c-13.2-17.9-25.1-36.7-35.6-56.3c-14-26-25.7-52.9-34.6-81.1c-1.8-5.7-4.1-11.1-6.7-16.4
		c-8.4-16.7-15.9-33.9-21.7-51.7c-3.5-10.9-6.3-22-6.9-33.5c-0.1-1.6-0.3-1.8-2.2-2.2c-5.2-1-10.2-2.7-15-4.9
		c-7.3-3.3-13.8-7.8-19-14c-1.1-1.3-2.1-1.4-3.5-0.9c-5.4,1.9-11,3.3-16.8,4c-4.1,0.5-8.3,0.8-12.4-0.1c-2.6-0.6-5.1-1.5-7-3.5
		c-0.9-0.9-1.9-1-3.1-1c-5,0-10.1,0-15.1,0c-1.5,0-2.5,0.5-3.4,1.8c-5,6.9-10,13.7-15.1,20.5c-0.3,0.5-0.6,1-1,1.3
		c-2,1.4-2,3.4-1.8,5.4c0.3,3.6,0.6,7.2,1,10.7c0.1,1.2,0.7,2.3,1.3,3.3c3,5,5,10.4,5.6,16.2c0.7,7.9-1.7,14.8-6.7,20.9
		c-1.7,2.1-3.7,4.1-5.9,5.7c-1.5,1.1-1.7,2.2-1.2,3.9c2.1,7.5,4.2,15.1,6.2,22.7c1.2,4.4,3.1,8.6,4.7,12.8
		c9.8,25.8,18.2,52.1,25.5,78.7c5.4,19.6,10,39.4,13.8,59.3c2.4,12.8,5.8,25.4,8.7,38.1c4.4,18.8,9,37.6,13.4,56.5
		c3,13.2,5.1,26.5,6.4,40c0.6,6.8,1.1,13.6,0.9,20.4c-0.3,9.4-0.8,18.7-4.1,27.6c-3.1,8.4-6.7,16.6-12.3,23.8
		c-1.4,1.7-2.9,3.2-4.9,4.1c-2.2,1-4.2,0.7-6-0.9c-1.3-1.2-1.5-1.7-0.4-3.3c2.2-3.3,4.2-6.8,6.1-10.3c6.2-11.8,10.6-24.2,11.9-37.5
		c0.8-8,0.2-15.9-1.4-23.9c-4.3-20.4-8.3-40.8-12.4-61.1c-3.8-19-7.5-38-11.6-56.9c-2.2-10.3-5.2-20.4-8.1-30.6
		c-6-21.6-12.4-43-19.6-64.2c-5.6-16.4-11.5-32.7-18.7-48.6c-3.8-8.4-7.9-16.6-13.2-24.2c-1.2-1.8-2.6-3.5-4-5.1
		c-1.3-1.4-1.3-1.4-3-0.4c-5.4,2.9-10.9,5.7-16.7,7.9c-6.6,2.6-13.3,4.7-20.3,5.7c-5.7,0.9-11.3,1-16.9-0.7
		c-6.8-2-11.6-6.3-14.2-12.9c-1.1-2.8-2.6-5.3-4.2-7.8c-6.3-10.5-12.6-21-18.9-31.5c-1-1.6-2.1-2.9-3.7-4c-4.7-3.3-9.4-6.7-14.1-10
		c-1.7-1.2-1.7-1.2-3.3,0.1c-5.6,4.7-11.1,9.4-16.7,14.1c-7.8,6.6-15.6,13.2-23.4,19.9c-8.2,7-15.8,14.7-23.4,22.4
		c-23.7,24.3-45.4,50.2-63.8,78.8c-10.8,16.7-20.2,34.1-27.3,52.8c-4.8,12.7-8.6,25.7-10.2,39.1c-0.7,5.6-2.2,11-2.9,16.5
		c-1.7,14.5-1,28.7,4.5,42.5c5.9,14.6,16.1,25.1,29.9,32.4c1.4,0.7,2.9,1,4.4,1.2c3.7,0.7,7.3,1.7,10.7,3.4c1.7,0.8,3.2,1.8,4.5,3.2
		c1,1.2,1.8,2.5,1.9,4.1c0.2,2-0.4,2.7-2.4,2.4c-1.9-0.2-3.8-0.5-5.7-0.9c-18.1-3.9-33.2-12.8-44-28.2c-5.1-7.3-8.3-15.5-10.5-24.1
		C1.2,505.7-0.1,495.6,0,488.3z"/>
</g>
</svg>
