<svg version="1.1" xmlns="http://www.w3.org/2000/svg" xmlns:xlink="http://www.w3.org/1999/xlink" width="1000" height="1000" viewBox="0,0,1000,1000"><defs><clipPath id="clip-1"><rect x="0" y="0" width="864" height="864"></rect></clipPath></defs><g fill="none" fill-rule="nonzero" stroke="none" stroke-width="1" stroke-linecap="butt" stroke-linejoin="miter" stroke-miterlimit="10" stroke-dasharray="" stroke-dashoffset="0" font-family="none" font-weight="none" font-size="none" text-anchor="none" style="mix-blend-mode: normal"><g clip-path="url(#clip-1)" id="Layer_1" stroke="#ff0000"><g><path d="M801.22,122.186c-63.465,-2.701 -129.632,25.657 -184.994,55.363c-63.11,32.129 -111.592,96.43 -155.394,153.141c-1.209,-6.377 -2.66,-12.165 -4.4,-17.157c7.911,-28.417 19.836,-56.008 35.928,-80.112c6.315,-9.46 12.068,-19.272 18.829,-28.431c6.74,-9.132 14.082,-17.8 21.094,-26.72c3.429,-4.36 11.308,-11.541 12.107,-17.378c0.929,-6.807 -6.936,-9.148 -11.51,-6.933c-7.507,3.636 -13.6,12.215 -18.816,18.424c-7.448,8.866 -14.234,18.179 -20.44,27.955c-19.559,30.819 -35.021,64.509 -44.021,99.924c-3.846,-4.748 -8.525,-6.934 -14.23,-5.682c-3.828,0.839 -6.819,2.961 -9.209,5.901c-8.993,-35.494 -24.477,-69.261 -44.076,-100.144c-6.205,-9.775 -12.991,-19.088 -20.44,-27.955c-5.218,-6.208 -11.311,-14.788 -18.817,-18.424c-4.574,-2.216 -12.439,0.125 -11.508,6.933c0.797,5.838 8.678,13.019 12.105,17.378c7.012,8.92 14.354,17.588 21.094,26.72c6.761,9.159 12.514,18.971 18.83,28.431c16.361,24.508 28.417,52.619 36.324,81.538c-1.242,4.975 -2.015,10.366 -2.572,15.646c-43.784,-56.69 -92.25,-120.943 -155.327,-153.056c-55.364,-29.707 -121.531,-58.064 -184.997,-55.363c-112.08,4.051 13.502,125.582 31.057,166.092c12.154,27.007 14.854,48.612 12.154,78.321c-1.352,20.254 -8.103,52.662 4.05,71.567c21.604,35.109 71.566,0 99.925,-8.103c13.503,-4.049 59.415,-12.152 32.408,9.453c-13.505,10.805 -37.811,12.154 -54.014,17.555c-64.817,20.256 -99.926,93.174 -76.969,159.342c9.452,22.955 20.254,39.158 20.254,66.168c0,20.254 -9.452,40.508 -8.102,59.412c32.408,-6.75 63.467,-41.859 95.875,-37.809c16.205,2.699 29.708,14.854 45.913,16.203c20.255,2.701 40.508,-13.504 54.013,-28.357c44.562,-44.559 52.664,-112.078 67.519,-170.143c2.52,-8.568 6.358,-18.33 11.021,-28.117c0.53,26.01 1.56,57.195 6.5,79.354c7.222,32.393 32.972,36.461 41.456,2.922c6.653,-26.309 5.704,-55.693 5.588,-83.693c4.97,10.258 9.072,20.553 11.714,29.535c14.854,58.064 22.956,125.584 67.518,170.143c13.504,14.854 33.759,31.059 54.014,28.357c16.204,-1.35 29.708,-13.504 45.912,-16.203c32.407,-4.051 63.466,31.059 95.874,37.809c1.352,-18.904 -8.101,-39.158 -8.101,-59.412c0,-27.01 10.802,-43.213 20.254,-66.168c22.955,-66.168 -12.153,-139.086 -76.97,-159.342c-16.205,-5.4 -40.511,-6.75 -54.014,-17.555c-27.008,-21.605 18.904,-13.501 32.409,-9.453c28.354,8.103 78.32,43.212 99.924,8.103c12.153,-18.906 5.401,-51.313 4.051,-71.567c-2.701,-29.709 0,-51.314 12.153,-78.321c17.55,-40.51 143.135,-162.041 31.054,-166.092z"></path></g></g><path d="M295.13061,289.0742c0,-0.55228 0.44772,-1 1,-1c0.55228,0 1,0.44772 1,1c0,0.55228 -0.44772,1 -1,1c-0.55228,0 -1,-0.44772 -1,-1z" stroke="none"></path><path d="M513.18432,182.06831c0,-0.55228 0.44772,-1 1,-1c0.55228,0 1,0.44772 1,1c0,0.55228 -0.44772,1 -1,1c-0.55228,0 -1,-0.44772 -1,-1z" stroke="none"></path><path d="M271.71479,331.21761c0,-0.55228 0.44772,-1 1,-1c0.55228,0 1,0.44772 1,1c0,0.55228 -0.44772,1 -1,1c-0.55228,0 -1,-0.44772 -1,-1z" stroke="none"></path><path d="M149.15836,526.41759c0,-0.55228 0.44772,-1 1,-1c0.55228,0 1,0.44772 1,1c0,0.55228 -0.44772,1 -1,1c-0.55228,0 -1,-0.44772 -1,-1z" stroke="none"></path><path d="M704.45468,657.96464c0,-0.55228 0.44772,-1 1,-1c0.55228,0 1,0.44772 1,1c0,0.55228 -0.44772,1 -1,1c-0.55228,0 -1,-0.44772 -1,-1z" stroke="none"></path><path d="M302.94923,626.13925c0,-0.55228 0.44772,-1 1,-1c0.55228,0 1,0.44772 1,1c0,0.55228 -0.44772,1 -1,1c-0.55228,0 -1,-0.44772 -1,-1z" stroke="none"></path><path d="M640.21272,224.76237c0,-0.55228 0.44772,-1 1,-1c0.55228,0 1,0.44772 1,1c0,0.55228 -0.44772,1 -1,1c-0.55228,0 -1,-0.44772 -1,-1z" stroke="none"></path><path d="M287.83706,670.54331c0,-0.55228 0.44772,-1 1,-1c0.55228,0 1,0.44772 1,1c0,0.55228 -0.44772,1 -1,1c-0.55228,0 -1,-0.44772 -1,-1z" stroke="none"></path><path d="M642.088,610.27461c0,-0.55228 0.44772,-1 1,-1c0.55228,0 1,0.44772 1,1c0,0.55228 -0.44772,1 -1,1c-0.55228,0 -1,-0.44772 -1,-1z" stroke="none"></path><path d="M403.13663,450.35413c0,-0.55228 0.44772,-1 1,-1c0.55228,0 1,0.44772 1,1c0,0.55228 -0.44772,1 -1,1c-0.55228,0 -1,-0.44772 -1,-1z" stroke="none"></path><path d="M611.76397,488.63158c0,-0.55228 0.44772,-1 1,-1c0.55228,0 1,0.44772 1,1c0,0.55228 -0.44772,1 -1,1c-0.55228,0 -1,-0.44772 -1,-1z" stroke="none"></path><path d="M530.04532,345.07896c0,-0.55228 0.44772,-1 1,-1c0.55228,0 1,0.44772 1,1c0,0.55228 -0.44772,1 -1,1c-0.55228,0 -1,-0.44772 -1,-1z" stroke="none"></path><path d="M141.78466,268.11485c0,-0.55228 0.44772,-1 1,-1c0.55228,0 1,0.44772 1,1c0,0.55228 -0.44772,1 -1,1c-0.55228,0 -1,-0.44772 -1,-1z" stroke="none"></path><path d="M548.10562,406.04961c0,-0.55228 0.44772,-1 1,-1c0.55228,0 1,0.44772 1,1c0,0.55228 -0.44772,1 -1,1c-0.55228,0 -1,-0.44772 -1,-1z" stroke="none"></path><path d="M561.65039,424.65011c0,-0.55228 0.44772,-1 1,-1c0.55228,0 1,0.44772 1,1c0,0.55228 -0.44772,1 -1,1c-0.55228,0 -1,-0.44772 -1,-1z" stroke="none"></path><path d="M159.8281,670.8841c0,-0.55228 0.44772,-1 1,-1c0.55228,0 1,0.44772 1,1c0,0.55228 -0.44772,1 -1,1c-0.55228,0 -1,-0.44772 -1,-1z" stroke="none"></path><path d="M677.36919,609.0163c0,-0.55228 0.44772,-1 1,-1c0.55228,0 1,0.44772 1,1c0,0.55228 -0.44772,1 -1,1c-0.55228,0 -1,-0.44772 -1,-1z" stroke="none"></path><path d="M136.01165,237.61537c0,-0.55228 0.44772,-1 1,-1c0.55228,0 1,0.44772 1,1c0,0.55228 -0.44772,1 -1,1c-0.55228,0 -1,-0.44772 -1,-1z" stroke="none"></path><path d="M317.38206,486.01705c0,-0.55228 0.44772,-1 1,-1c0.55228,0 1,0.44772 1,1c0,0.55228 -0.44772,1 -1,1c-0.55228,0 -1,-0.44772 -1,-1z" stroke="none"></path><path d="M626.84079,309.90081c0,-0.55228 0.44772,-1 1,-1c0.55228,0 1,0.44772 1,1c0,0.55228 -0.44772,1 -1,1c-0.55228,0 -1,-0.44772 -1,-1z" stroke="none"></path><path d="M642.82868,301.18537c0,-0.55228 0.44772,-1 1,-1c0.55228,0 1,0.44772 1,1c0,0.55228 -0.44772,1 -1,1c-0.55228,0 -1,-0.44772 -1,-1z" stroke="none"></path><path d="M653.79111,698.94134c0,-0.55228 0.44772,-1 1,-1c0.55228,0 1,0.44772 1,1c0,0.55228 -0.44772,1 -1,1c-0.55228,0 -1,-0.44772 -1,-1z" stroke="none"></path><path d="M152.56008,703.74024c0,-0.55228 0.44772,-1 1,-1c0.55228,0 1,0.44772 1,1c0,0.55228 -0.44772,1 -1,1c-0.55228,0 -1,-0.44772 -1,-1z" stroke="none"></path><path d="M156.58515,374.98301c0,-0.55228 0.44772,-1 1,-1c0.55228,0 1,0.44772 1,1c0,0.55228 -0.44772,1 -1,1c-0.55228,0 -1,-0.44772 -1,-1z" stroke="none"></path><path d="M381.57401,366.5228c0,-0.55228 0.44772,-1 1,-1c0.55228,0 1,0.44772 1,1c0,0.55228 -0.44772,1 -1,1c-0.55228,0 -1,-0.44772 -1,-1z" stroke="none"></path><path d="M533.19598,395.10422c0,-0.55228 0.44772,-1 1,-1c0.55228,0 1,0.44772 1,1c0,0.55228 -0.44772,1 -1,1c-0.55228,0 -1,-0.44772 -1,-1z" stroke="none"></path><path d="M363.29156,563.38133c0,-0.55228 0.44772,-1 1,-1c0.55228,0 1,0.44772 1,1c0,0.55228 -0.44772,1 -1,1c-0.55228,0 -1,-0.44772 -1,-1z" stroke="none"></path><path d="M631.47389,477.70397c0,-0.55228 0.44772,-1 1,-1c0.55228,0 1,0.44772 1,1c0,0.55228 -0.44772,1 -1,1c-0.55228,0 -1,-0.44772 -1,-1z" stroke="none"></path><path d="M696.45516,689.08837c0,-0.55228 0.44772,-1 1,-1c0.55228,0 1,0.44772 1,1c0,0.55228 -0.44772,1 -1,1c-0.55228,0 -1,-0.44772 -1,-1z" stroke="none"></path><path d="M311.41868,273.06414c0,-0.55228 0.44772,-1 1,-1c0.55228,0 1,0.44772 1,1c0,0.55228 -0.44772,1 -1,1c-0.55228,0 -1,-0.44772 -1,-1z" stroke="none"></path><path d="M169.59192,329.49766c0,-0.55228 0.44772,-1 1,-1c0.55228,0 1,0.44772 1,1c0,0.55228 -0.44772,1 -1,1c-0.55228,0 -1,-0.44772 -1,-1z" stroke="none"></path><path d="M715.6535,346.6028c0,-0.55228 0.44772,-1 1,-1c0.55228,0 1,0.44772 1,1c0,0.55228 -0.44772,1 -1,1c-0.55228,0 -1,-0.44772 -1,-1z" stroke="none"></path><path d="M767.49592,272.01924c0,-0.55228 0.44772,-1 1,-1c0.55228,0 1,0.44772 1,1c0,0.55228 -0.44772,1 -1,1c-0.55228,0 -1,-0.44772 -1,-1z" stroke="none"></path><path d="M145.33033,402.52849c0,-0.55228 0.44772,-1 1,-1c0.55228,0 1,0.44772 1,1c0,0.55228 -0.44772,1 -1,1c-0.55228,0 -1,-0.44772 -1,-1z" stroke="none"></path><path d="M281.29937,457.67697c0,-0.55228 0.44772,-1 1,-1c0.55228,0 1,0.44772 1,1c0,0.55228 -0.44772,1 -1,1c-0.55228,0 -1,-0.44772 -1,-1z" stroke="none"></path><path d="M442.01506,584.28517c0,-0.55228 0.44772,-1 1,-1c0.55228,0 1,0.44772 1,1c0,0.55228 -0.44772,1 -1,1c-0.55228,0 -1,-0.44772 -1,-1z" stroke="none"></path><path d="M644.33151,487.40153c0,-0.55228 0.44772,-1 1,-1c0.55228,0 1,0.44772 1,1c0,0.55228 -0.44772,1 -1,1c-0.55228,0 -1,-0.44772 -1,-1z" stroke="none"></path><path d="M431.80417,427.7128c0,-0.55228 0.44772,-1 1,-1c0.55228,0 1,0.44772 1,1c0,0.55228 -0.44772,1 -1,1c-0.55228,0 -1,-0.44772 -1,-1z" stroke="none"></path><path d="M259.30616,219.59046c0,-0.55228 0.44772,-1 1,-1c0.55228,0 1,0.44772 1,1c0,0.55228 -0.44772,1 -1,1c-0.55228,0 -1,-0.44772 -1,-1z" stroke="none"></path><path d="M212.7206,704.94753c0,-0.55228 0.44772,-1 1,-1c0.55228,0 1,0.44772 1,1c0,0.55228 -0.44772,1 -1,1c-0.55228,0 -1,-0.44772 -1,-1z" stroke="none"></path><path d="M531.86,183.64l-0.01,0.01l-2.87,3.56l-2.86,3.56l-2.87,3.56l-2.84,3.57l-2.8,3.57l-2.75,3.61l-2.67,3.64l-2.58,3.69l-2.51,3.74l-2.46,3.78l-2.47,3.85l-2.46,3.85l-2.47,3.84l-0.02,0.03l-2.52,3.82l-2.49,3.81l-2.39,3.83l-2.29,3.83l-2.28,3.96l-2.17,3.95l-2.11,4l-2.04,4.03l-1.97,4.07l-1.91,4.09l-1.84,4.14l-1.77,4.16l-1.7,4.18l-1.64,4.22l-1.56,4.2l-1.53,4.3l-1.45,4.29l-1.38,4.31l-1.32,4.29h0.01l-1.08,3.7l0.65,3.52l1.2,4.28l0.03,0.11l0.75,3.14l1.32,-1.72l2.8,-3.62l2.79,-3.61l2.8,-3.62l2.8,-3.61l0.01,-0.01l2.81,-3.6l2.82,-3.6l0.01,-0.01l2.82,-3.59l2.84,-3.59l0.01,-0.01l2.85,-3.57v-0.01l2.86,-3.57l0.01,-0.01l2.87,-3.55l0.01,-0.01l2.89,-3.54l0.01,-0.01l2.9,-3.53l0.01,-0.01l2.92,-3.52l0.01,-0.01l2.94,-3.5l0.01,-0.01l2.96,-3.49l0.01,-0.01l2.98,-3.46l0.01,-0.02l3,-3.44l0.02,-0.02l3.02,-3.43l0.01,-0.01l3.05,-3.41l0.02,-0.01l3.07,-3.38l0.02,-0.02l3.1,-3.36l0.02,-0.02l3.12,-3.33l0.02,-0.02l3.16,-3.3l0.02,-0.02l3.19,-3.28l0.02,-0.02l3.22,-3.24l0.02,-0.02l3.25,-3.21l0.02,-0.03l3.28,-3.17l0.03,-0.03l3.32,-3.14l0.02,-0.02l3.36,-3.1l0.03,-0.03l3.39,-3.06l0.03,-0.02l3.43,-3.02l0.03,-0.03l3.46,-2.97l0.04,-0.03l3.5,-2.93l0.04,-0.02l3.55,-2.88l0.03,-0.03l3.59,-2.82l0.04,-0.03l3.64,-2.77l0.03,-0.03l3.68,-2.71l0.04,-0.03l3.72,-2.65l0.05,-0.03l3.76,-2.59l0.05,-0.03l3.81,-2.52l0.04,-0.03l3.86,-2.45l0.05,-0.03l3.9,-2.38l0.05,-0.03l3.95,-2.3l0.05,-0.03l4,-2.22l0.05,-0.03l4.04,-2.13l8.08,-4.28h0.02l4.05,-2.12l0.01,-0.01l4.07,-2.09h0.01l4.08,-2.07l4.12,-2.06l4.1,-2.02l0.02,-0.01l4.11,-1.98l0.02,-0.01l4.13,-1.96l0.02,-0.01l4.14,-1.93l0.02,-0.01l4.16,-1.9l0.02,-0.01l4.17,-1.86l0.03,-0.01l4.18,-1.84l0.03,-0.01l4.2,-1.79l0.02,-0.01l4.22,-1.76l0.03,-0.01l4.23,-1.72l0.03,-0.01l4.24,-1.69l0.03,-0.01l4.27,-1.64l0.03,-0.01l4.28,-1.59l0.03,-0.01l4.3,-1.55l0.03,-0.02l4.31,-1.5l0.04,-0.01l4.33,-1.46l0.03,-0.01l4.35,-1.4l0.03,-0.01l4.37,-1.35l0.04,-0.01l4.38,-1.3l0.04,-0.01l4.39,-1.24l0.04,-0.01l4.42,-1.18l0.04,-0.01l4.43,-1.12l0.04,-0.01l4.45,-1.05l0.04,-0.01l4.46,-0.99l0.05,-0.01l4.48,-0.92l0.04,-0.01l4.49,-0.84l0.05,-0.01l4.51,-0.77l0.05,-0.01l4.52,-0.69l0.05,-0.01l4.53,-0.61l0.05,-0.01l4.54,-0.53h0.06l4.55,-0.45h0.06l4.55,-0.35l0.06,-0.01l4.57,-0.26h0.06l4.57,-0.16l0.06,-0.01l4.57,-0.06h0.07l4.57,0.04h0.06l4.57,0.14h0.07l4.56,0.24l0.11,0.01l4.55,0.4l0.12,0.01l4.54,0.59l0.14,0.03l4.5,0.82l0.18,0.03l4.44,1.1l0.21,0.06l4.34,1.43l0.27,0.1l4.19,1.83l0.31,0.16l3.94,2.32l0.21,0.13l0.16,0.12l3.54,2.87l0.19,0.17l0.2,0.21l2.98,3.45l0.15,0.19l0.19,0.29l2.25,3.97l0.11,0.22l0.12,0.31l1.45,4.33l0.07,0.23l0.05,0.27l0.68,4.51l0.03,0.25l0.01,0.18l0.03,4.56l-0.01,0.34l-0.48,4.55l-0.04,0.26l-0.89,4.48l-0.05,0.21l-1.2,4.41l-0.05,0.17l-1.45,4.33l-0.05,0.13l-1.66,4.26l-0.04,0.11l-1.83,4.19l-0.04,0.09l-1.96,4.13l-0.04,0.07l-2.07,4.07l-0.04,0.07l-2.17,4.02l-0.03,0.05l-2.26,3.97l-0.02,0.05l-2.33,3.93l-0.03,0.04l-2.39,3.9l-0.02,0.03l-2.44,3.87l-0.02,0.03l-2.49,3.83l-0.02,0.02l-2.53,3.81l-0.02,0.02l-2.56,3.78l-0.02,0.02l-2.59,3.77l-0.01,0.01l-2.62,3.75l-0.01,0.01l-2.65,3.73l-0.01,0.01l-2.66,3.71v0.01l-2.68,3.71l-2.68,3.7l-0.01,0.01l-2.69,3.69l-2.69,3.7l-5.36,7.4l-2.65,3.7l-2.62,3.71l-2.59,3.74l-2.54,3.75l-2.46,3.79l-2.35,3.83l-2.11,3.73l-2.01,4.1l-1.75,4l-0.01,0.02l-0.02,0.05l-1.7,4.16l-1.58,4.2l-1.46,4.24l-1.29,4.18l-1.21,4.41l-1.02,4.34l-0.86,4.38l-0.7,4.4l-0.55,4.43l-0.39,4.45l-0.24,4.37l-0.12,4.57l0.02,4.41l0.13,4.5l0.23,4.51l0.32,4.53l0.37,4.53l0.4,4.51l0.46,4.54l0.48,4.54v0.01l0.46,4.55v0.03l0.42,4.55v0.05l0.35,4.55v0.07l0.25,4.56l0.01,0.08l0.13,4.57v0.1l-0.02,4.56l-0.01,0.13l-0.2,4.56l-0.02,0.15l-0.43,4.55l-0.02,0.18l-0.72,4.51l-0.04,0.22l-1.05,4.45l-0.07,0.26l-1.45,4.34l-0.12,0.3l-1.91,4.15l-0.16,0.31l-2.39,3.9l-0.19,0.27l-2.81,3.61l-0.16,0.18l-0.11,0.13l-3.28,3.18l-0.18,0.16l-0.17,0.13l-3.73,2.64l-0.21,0.14l-0.2,0.11l-4.1,2.01l-0.23,0.1l-0.21,0.07l-4.36,1.35l-0.24,0.06l-0.16,0.03l-4.51,0.74l-0.35,0.03l-4.57,0.2h-0.29l-4.56,-0.25l-0.24,-0.02l-4.52,-0.6l-0.19,-0.03l-4.48,-0.9l-0.16,-0.03l-4.43,-1.13l-0.12,-0.03l-4.37,-1.31l-0.1,-0.03l-4.33,-1.45l-0.08,-0.03l-4.29,-1.57l-0.06,-0.03l-4.26,-1.66l-0.04,-0.02l-4.23,-1.73l-0.03,-0.01l-4.21,-1.78l-0.02,-0.01l-4.2,-1.8l-4.19,-1.81l-4.2,-1.78l-4.19,-1.73l-4.11,-1.59l-4.18,-1.46l-4.25,-1.26l-4.34,-1.08v0.01l-4.38,-0.93l-4.41,-0.8l-4.41,-0.66l-4.39,-0.5l-4.39,-0.28l-4.24,0.07l-3.2,0.6l-0.8,0.94l0.88,1.87l2.65,2.8l3.31,2.82l3.42,2.35l3.83,2.04647l4,1.70353l4.22,1.48l4.14,1.23l4.35,1.13l4.41,1.04l4.47,0.98l4.45,0.96h0.02l4.46,1l0.05,0.01l4.45,1.07l0.09,0.03l4.41,1.22l0.11,0.03l4.35,1.4l0.1,0.03l4.3,1.54l0.11,0.04l4.24,1.71l0.11,0.05l4.16,1.87l0.11,0.05l4.09,2.04l0.11,0.05l4,2.2l0.11,0.06l3.91,2.35l0.1,0.06l3.83,2.51l0.09,0.07l3.72,2.65l0.1,0.07l3.61,2.8l0.09,0.07l3.5,2.94l0.09,0.07l3.39,3.07l0.08,0.08l3.26,3.2l0.08,0.08l3.15,3.32l0.07,0.08l3.02,3.44l0.07,0.09l2.88,3.54l0.07,0.09l2.75,3.65l0.06,0.09l2.61,3.75l0.06,0.1l2.47,3.84l0.06,0.1l2.32,3.93l0.06,0.09l2.18,4.02l0.05,0.1l2.03,4.09l0.05,0.1l1.88,4.16l0.05,0.1l1.73,4.23l0.04,0.1l1.57,4.29l0.04,0.1l1.42,4.34l0.03,0.11l1.27,4.39l0.03,0.1l1.11,4.44l0.02,0.1l0.95,4.47l0.02,0.11l0.79,4.5l0.01,0.1l0.63,4.53l0.01,0.11l0.46,4.54l0.01,0.11l0.3,4.56v0.11l0.14,4.57v0.11l-0.03,4.56l-0.01,0.11l-0.19,4.57l-0.01,0.11l-0.36,4.55l-0.01,0.11l-0.52,4.54l-0.02,0.11l-0.68,4.51l-0.02,0.11l-0.85,4.49l-0.02,0.11l-1.02,4.45l-0.02,0.11l-1.17,4.41l-0.03,0.11l-1.33,4.37l-0.05,0.16l-1.57,4.29l-0.06,0.15l-1.81,4.2l-0.01,0.03l-1.86,4.18l-0.01,0.02l-1.88,4.16l-1.88,4.17l-1.85,4.15l-1.77,4.17l-1.63,4.09l-1.52,4.19l-1.39,4.35l-1.13,4.14l-0.96,4.31l-0.75,4.51l-0.51,4.39l-0.28,4.41l-0.08,4.25l0.17,4.39l0.45,4.55l0.62,4.29l0.81,4.49h-0.01l0.9,4.37l0.97,4.47l0.98,4.46l0.01,0.02l0.94,4.47l0.01,0.06l0.86,4.49l0.02,0.09l0.71,4.51l0.02,0.14l0.51,4.54l0.01,0.18l0.24,4.56v0.23l-0.11,4.57l-0.01,0.24l-0.04,0.24l-0.05,0.24l-0.08,0.23l-0.09,0.23l-0.11,0.22l-0.13,0.21l-0.15,0.19l-0.16,0.19l-0.17,0.17l-0.19,0.15l-0.2,0.14l-0.22,0.13l-0.22,0.1l-0.23,0.09l-0.23,0.07l-0.24,0.05l-0.24,0.02l-0.25,0.01l-0.24,-0.01l-0.32,-0.04l-4.25,-0.83l-0.33,-0.09l-4.35,-1.37l-0.16,-0.06l-4.28,-1.62l-0.13,-0.05l-4.19,-1.82l-0.1,-0.05l-4.12,-1.97l-0.08,-0.04l-4.06,-2.1l-0.06,-0.03l-4.01,-2.19l-0.05,-0.02l-3.97,-2.26l-0.03,-0.01l-3.95,-2.3h-0.01l-3.94,-2.32l-3.95,-2.31l-3.94,-2.27l-3.9,-2.19l-4.03,-2.16l-3.92,-1.98l-4.15,-1.93l-4.1,-1.7l-4.05,-1.44l-4.26,-1.23l-4.12,-0.87l-4.36,-0.53l-4.25,-0.12l-4.2,0.36l-4.09,0.94l-4.21,1.38l-3.98,1.59l-4.07,1.82v0.01l-4.13,1.96l-4.13,1.95l-0.06,0.03l-4.18,1.87l-0.12,0.05l-4.25,1.67l-0.2,0.07l-4.36,1.38l-0.27,0.07l-4.46,0.96l-0.29,0.05l-4.54,0.52l-0.3,0.02l-4.57,0.07l-0.24,-0.01l-0.13,-0.01l-4.54,-0.51l-0.33,-0.05l-4.46,-1.01l-0.28,-0.08l-4.34,-1.45l-0.23,-0.09l-4.2,-1.81l-0.2,-0.1l-4.05,-2.11l-0.17,-0.09l-3.9,-2.37l-0.14,-0.09l-3.77,-2.59l-0.12,-0.08l-3.64,-2.77l-0.1,-0.08l-3.52,-2.92l-0.09,-0.08l-3.39,-3.06l-0.08,-0.07l-3.28,-3.18l-0.07,-0.07l-3.18,-3.29l-0.01,-0.01l-3.16,-3.31l-0.02,-0.02l-3.12,-3.33l-0.06,-0.07l-3.02,-3.44l-0.06,-0.07l-2.91,-3.53l-0.05,-0.07l-2.8,-3.61l-0.06,-0.07l-2.69,-3.69l-0.05,-0.07l-2.58,-3.77l-0.05,-0.07l-2.47,-3.84l-0.04,-0.07l-2.38,-3.91l-0.04,-0.06l-2.27,-3.97l-0.03,-0.06l-2.18,-4.02l-0.03,-0.07l-2.08,-4.07l-0.03,-0.06l-1.98,-4.11l-0.03,-0.06l-1.9,-4.16l-0.02,-0.05l-1.82,-4.2l-0.02,-0.05l-1.73,-4.23l-0.02,-0.05l-1.66,-4.26l-0.02,-0.04l-1.59,-4.29l-0.01,-0.04l-1.52,-4.31l-0.02,-0.04l-1.46,-4.33l-0.01,-0.04l-1.4,-4.35l-0.01,-0.04l-1.34,-4.37l-0.01,-0.03l-1.3,-4.38l-0.01,-0.03l-1.25,-4.4v-0.02l-1.21,-4.41l-0.01,-0.03l-1.17,-4.41v-0.03l-1.14,-4.42l-0.01,-0.02l-1.1,-4.43l-0.01,-0.02l-1.08,-4.44l-0.01,-0.01l-1.06,-4.45v-0.01l-1.05,-4.45l-1.03,-4.45v-0.01l-1.03,-4.46l-1.02,-4.45l-1.02,-4.46l-1.02,-4.45l-1.03,-4.45l-1.05,-4.44h0.01l-1.07,-4.43l-1.08,-4.42l-1.07,-4.27l-1.34,-4.37l-1.42,-4.15h-0.01l-1.59,-4.28l-1.49,-3.72l0.02,3.85v0.02l0.01,4.57v0.01l-0.02,4.57v0.02l-0.05,4.57v0.03l-0.1,4.57v0.03l-0.14,4.57v0.03l-0.2,4.57v0.04l-0.26,4.56l-0.01,0.05l-0.33,4.56l-0.01,0.06l-0.42,4.55v0.06l-0.52,4.54l-0.01,0.07l-0.61,4.52l-0.01,0.08l-0.73,4.51l-0.01,0.08l-0.85,4.49l-0.02,0.09l-0.99,4.46l-0.02,0.11l-1.16,4.42l-0.06,0.2l-1.46,4.33l-0.1,0.26l-1.85,4.17l-0.16,0.32l-2.32,3.93l-0.14,0.2l-0.13,0.17l-2.89,3.53l-0.17,0.18l-0.17,0.17l-0.11,0.09l-3.56,2.85l-0.2,0.14l-0.21,0.13l-0.32,0.15l-4.2,1.75l-0.23,0.08l-0.24,0.07l-0.24,0.04l-0.29,0.03l-4.54,0.23h-0.24l-0.25,-0.02l-0.24,-0.03l-0.28,-0.07l-4.36,-1.31l-0.23,-0.08l-0.23,-0.1l-0.31,-0.18l-3.82,-2.48l-0.2,-0.14l-0.19,-0.16l-0.11,-0.11l-3.21,-3.24l-0.17,-0.18l-0.15,-0.2l-2.64,-3.72l-0.13,-0.2l-0.07,-0.12l-2.15,-4.03l-0.13,-0.28l-1.73,-4.23l-0.08,-0.24l-1.36,-4.37l-0.06,-0.2l-1.04,-4.45l-0.02,-0.11l-0.88,-4.49l-0.01,-0.08l-0.76,-4.5l-0.01,-0.07l-0.65,-4.52l-0.01,-0.05l-0.58,-4.54v-0.05l-0.5,-4.54l-0.01,-0.04l-0.44,-4.55v-0.03l-0.38,-4.56l-0.01,-0.03l-0.33,-4.56v-0.03l-0.3,-4.56v-0.02l-0.25,-4.56v-0.02l-0.23,-4.57v-0.02l-0.19,-4.56v-0.02l-0.17,-4.57v-0.01l-0.14,-4.57v-0.01l-0.02,-0.64l-1.61,4.11l-1.54,4.22l-1.39,4.14l-1.28,4.39l-1.07,4.3l-1.08,4.44l-1.06,4.44l-1.04,4.43l-1.03,4.46l-1.02,4.44l-1.02,4.45l-1.02,4.46l-2.06,8.9v0.02l-1.05,4.45l-0.01,0.01l-1.06,4.44l-0.01,0.02l-1.09,4.43v0.02l-1.11,4.43l-0.01,0.02l-1.14,4.43l-0.01,0.02l-1.18,4.41l-0.01,0.03l-1.21,4.4l-0.01,0.03l-1.26,4.4l-0.01,0.03l-1.31,4.38l-0.01,0.03l-1.35,4.36l-0.01,0.04l-1.42,4.35l-0.01,0.03l-1.47,4.33l-0.02,0.04l-1.53,4.31l-0.02,0.04l-1.6,4.28l-0.02,0.05l-1.68,4.25l-0.02,0.05l-1.75,4.22l-0.02,0.05l-1.84,4.19l-0.02,0.05l-1.92,4.15l-0.03,0.06l-2,4.11l-0.04,0.06l-2.1,4.06l-0.03,0.06l-2.19,4.01l-0.04,0.06l-2.3,3.95l-0.04,0.07l-2.39,3.89l-0.05,0.07l-2.5,3.82l-0.05,0.07l-2.6,3.76l-0.05,0.07l-2.72,3.67l-0.05,0.07l-2.83,3.6l-0.06,0.07l-2.93,3.5l-0.06,0.07l-3.04,3.41l-0.07,0.07l-3.14,3.32l-3.14,3.31l-0.04,0.04l-3.2,3.26l-0.07,0.07l-3.31,3.15l-0.08,0.08l-3.43,3.03l-0.09,0.07l-3.54,2.89l-0.11,0.08l-3.66,2.73l-0.13,0.09l-3.8,2.53l-0.15,0.09l-3.94,2.32l-0.17,0.09l-4.08,2.05l-0.21,0.09l-4.23,1.73l-0.25,0.09l-4.36,1.35l-0.3,0.08l-4.48,0.9l-0.34,0.05l-4.55,0.38l-0.25,0.01l-0.14,-0.01l-4.56,-0.2l-0.26,-0.03l-4.53,-0.6l-0.3,-0.06l-4.44,-1.07l-0.26,-0.07l-4.33,-1.46l-0.18,-0.06l-4.23,-1.73l-0.11,-0.05l-4.15,-1.89l-0.05,-0.02l-4.13,-1.97l-4.12,-1.94l-3.98,-1.75l-4.15,-1.6l-4.14,-1.26l-4.16,-0.82l-4.07,-0.23l-4.37,0.21l-4.28,0.63l-4.12,0.94l-4.17,1.27l-4.15,1.53l-4.2,1.8l-3.94,1.87l-4.07,2.08l-3.95,2.15v-0.01l-3.91,2.21v0.01l-3.95,2.29l-3.93,2.31l-3.94,2.31l-0.02,0.01l-3.95,2.28l-0.03,0.02l-3.99,2.24l-0.04,0.03l-4.03,2.17l-0.06,0.03l-4.07,2.07l-0.09,0.04l-4.14,1.94l-0.1,0.05l-4.22,1.78l-0.13,0.05l-4.29,1.57l-0.17,0.06l-4.38,1.31l-0.23,0.06l-0.25,0.04l-0.24,0.02h-0.24l-0.25,-0.02l-0.12,-0.01l-3.28,-0.53l-0.24,-0.05l-0.23,-0.06l-0.23,-0.09l-0.22,-0.11l-0.21,-0.12l-0.2,-0.14l-0.19,-0.15l-0.18,-0.18l-0.16,-0.18l-0.15,-0.2l-0.24,-0.42l-0.09,-0.23l-0.07,-0.23l-0.06,-0.24l-0.04,-0.24l-0.01,-0.31l-0.02,-4.56v-0.22l0.31,-4.56l0.02,-0.17l0.56,-4.53l0.02,-0.13l0.75,-4.5l0.02,-0.09l0.88,-4.48l0.01,-0.05l0.96,-4.47v-0.02l0.99,-4.44h-0.01l0.97,-4.47l0.88,-4.44l0.76,-4.43l0.59,-4.41l0.37,-4.32l0.11,-4.48l-0.13,-4.41l-0.33,-4.26l-0.58,-4.53l-0.78,-4.34l-1.01,-4.31l-1.21,-4.26l-1.4,-4.21l-1.55,-4.18l-1.69,-4.15l-1.76,-4.1h-0.01l-1.86,-4.18l-1.88,-4.14l-1.88,-4.17l-0.01,-0.03l-1.85,-4.18l-0.01,-0.03l-1.79,-4.21l-0.08,-0.2l-1.48,-4.32l-0.04,-0.13l-1.29,-4.38l-0.03,-0.11l-1.13,-4.42l-0.03,-0.11l-0.97,-4.46l-0.02,-0.11l-0.81,-4.49l-0.02,-0.11l-0.65,-4.52l-0.01,-0.11l-0.49,-4.55l-0.01,-0.1l-0.32,-4.56l-0.01,-0.11l-0.15,-4.57l-0.01,-0.1l0.01,-4.57v-0.11l0.18,-4.57v-0.11l0.34,-4.55l0.01,-0.11l0.5,-4.54l0.01,-0.11l0.66,-4.52l0.02,-0.11l0.83,-4.49l0.02,-0.11l0.98,-4.46l0.03,-0.11l1.14,-4.42l0.03,-0.1l1.31,-4.38l0.03,-0.11l1.46,-4.33l0.03,-0.1l1.62,-4.27l0.04,-0.1l1.77,-4.22l0.04,-0.1l1.92,-4.14l0.05,-0.1l2.06,-4.08l0.05,-0.09l2.22,-4l0.05,-0.1l2.36,-3.91l0.06,-0.09l2.51,-3.83l0.06,-0.09l2.64,-3.73l0.07,-0.09l2.77,-3.62l0.07,-0.09l2.92,-3.52l0.07,-0.09l3.04,-3.41l0.08,-0.08l3.17,-3.29l0.08,-0.08l3.3,-3.17l0.08,-0.08l3.42,-3.04l0.08,-0.07l3.53,-2.91l0.09,-0.07l3.64,-2.76l0.1,-0.07l3.74,-2.62l0.1,-0.07l3.84,-2.47l0.1,-0.06l3.94,-2.32l0.11,-0.06l4.02,-2.15l0.11,-0.06l4.11,-2l0.11,-0.05l4.18,-1.83l0.11,-0.05l4.26,-1.66l0.11,-0.05l4.31,-1.5l0.09,-0.02l4.36,-1.37l0.12,-0.03l4.42,-1.18l0.08,-0.03l4.45,-1.04l0.05,-0.01l4.46,-0.99h0.01l4.45,-0.96l4.41,-0.98l4.4,-1.05l4.29,-1.14l4.35,-1.35l4.03,-1.48l3.96,-1.77l3.7,-2.08l3.46,-2.53l3.18,-2.82l2.39,-2.74l0.41,-1.53l-1.3,-0.89l-3.56,-0.46l-4.31,0.03l-4.44,0.34l-4.4,0.54l-4.32,0.68l-4.4,0.82v0.01l-4.36,0.95l-4.37,1.12l-4.16,1.28l-4.21,1.51l-4.25,1.68l-4.14,1.72l-4.21,1.8l-4.19,1.8l-4.2,1.8l-0.02,0.01l-4.21,1.77l-0.04,0.01l-4.23,1.72l-0.05,0.02l-4.26,1.65l-0.07,0.02l-4.3,1.55l-0.08,0.02l-4.34,1.43l-0.1,0.03l-4.39,1.27l-0.13,0.03l-4.44,1.08l-0.16,0.03l-4.49,0.83l-0.2,0.03l-4.54,0.53l-0.25,0.02l-4.57,0.15l-0.3,-0.01l-4.56,-0.31l-0.24,-0.03l-0.12,-0.02l-4.49,-0.87l-0.24,-0.06l-0.17,-0.06l-4.31,-1.5l-0.23,-0.09l-0.2,-0.1l-4.03,-2.16l-0.21,-0.12l-0.19,-0.14l-3.62,-2.78l-0.19,-0.15l-0.15,-0.15l-3.17,-3.29l-0.16,-0.18l-0.09,-0.13l-2.7,-3.68l-0.18,-0.27l-2.29,-3.96l-0.16,-0.32l-1.79,-4.2l-0.11,-0.29l-1.35,-4.37l-0.06,-0.25l-0.97,-4.47l-0.03,-0.21l-0.65,-4.52l-0.01,-0.18l-0.38,-4.55l-0.01,-0.14l-0.16,-4.57v-0.12l0.01,-4.56l0.01,-0.1l0.16,-4.57v-0.07l0.28,-4.56v-0.06l0.37,-4.56v-0.04l0.43,-4.55v-0.02l0.47,-4.55l0.48,-4.54l0.45,-4.5h-0.01l0.39,-4.55l0.37,-4.5h-0.01l0.31,-4.56l0.21,-4.44h-0.01l0.11,-4.57l-0.02,-4.49h0.01l-0.15,-4.48l-0.28,-4.47l-0.43,-4.45l-0.59,-4.42l-0.74,-4.4l-0.91,-4.37l-1.06,-4.33l-1.21,-4.3l-1.32,-4.17h-0.01l-1.51,-4.31l-1.62,-4.18l-1.72,-4.15l-1.75,-3.97l-2.01,-3.93l-2.29,-3.95l-2.37,-3.79l-2.47,-3.76l-2.54,-3.74l-2.59,-3.72l-2.63,-3.71l-2.66,-3.7l-2.67,-3.69l-2.69,-3.7l-2.69,-3.69l-2.69,-3.7l-2.68,-3.7l-2.67,-3.7l-0.01,-0.02l-2.66,-3.72l-0.01,-0.01l-2.63,-3.73l-0.02,-0.02l-2.61,-3.74l-0.01,-0.02l-2.59,-3.77l-0.02,-0.02l-2.55,-3.78l-0.02,-0.03l-2.52,-3.81l-0.02,-0.03l-2.48,-3.83l-0.02,-0.04l-2.43,-3.87l-0.02,-0.03l-2.38,-3.9l-0.03,-0.05l-2.31,-3.94l-0.03,-0.05l-2.23,-3.98l-0.04,-0.06l-2.15,-4.03l-0.03,-0.07l-2.05,-4.08l-0.04,-0.08l-1.93,-4.14l-0.04,-0.09l-1.79,-4.21l-0.05,-0.11l-1.61,-4.28l-0.05,-0.14l-1.4,-4.35l-0.05,-0.17l-1.13,-4.43l-0.05,-0.22l-0.8,-4.5l-0.04,-0.28l-0.37,-4.55v-0.36l0.17,-4.56l0.02,-0.25l0.03,-0.2l0.86,-4.48l0.05,-0.24l0.09,-0.28l1.64,-4.26l0.09,-0.22l0.17,-0.3l2.43,-3.86l0.14,-0.2l0.22,-0.26l3.13,-3.32l0.17,-0.17l0.21,-0.17l3.66,-2.74l0.2,-0.14l0.15,-0.09l4.01,-2.19l0.31,-0.15l4.22,-1.73l0.26,-0.09l4.36,-1.34l0.21,-0.06l4.46,-1.02l0.17,-0.04l4.5,-0.76l0.15,-0.02l4.53,-0.54l0.12,-0.02l4.56,-0.36h0.1l4.56,-0.21l0.07,-0.01l4.56,-0.11h0.07l4.57,-0.02h0.07l4.57,0.09h0.06l4.57,0.19h0.06l4.56,0.29h0.06l4.56,0.37l0.05,0.01l4.55,0.46l0.06,0.01l4.53,0.55h0.06l4.52,0.63l0.06,0.01l4.51,0.71l0.05,0.01l4.5,0.79l0.05,0.01l4.49,0.86l0.05,0.01l4.47,0.93l0.04,0.01l4.46,1.01l0.05,0.01l4.44,1.07l0.04,0.01l4.43,1.13l0.04,0.01l4.41,1.19l0.04,0.02l4.39,1.25l0.04,0.01l4.38,1.31l0.03,0.01l4.37,1.36l0.03,0.01l4.35,1.42l0.03,0.01l4.33,1.47l0.03,0.01l4.31,1.52l0.03,0.01l4.3,1.56l0.02,0.01l4.28,1.6l0.03,0.02l4.26,1.64l0.03,0.02l4.25,1.69l0.02,0.01l4.23,1.73l0.03,0.01l4.21,1.77l0.02,0.01l4.2,1.8l0.03,0.01l4.18,1.84l0.02,0.01l4.17,1.87l0.02,0.01l4.15,1.91l0.02,0.01l4.14,1.94h0.02l4.13,1.97l0.02,0.01l4.11,2h0.02l4.09,2.03h0.02l4.09,2.05l0.01,0.01l4.08,2.07l0.01,0.01l4.06,2.1l0.02,0.01l4.05,2.11l0.01,0.01l4.04,2.14l4.03,2.12l0.02,0.01l4.03,2.16l0.06,0.03l3.98,2.24l0.05,0.03l3.94,2.32l0.05,0.03l3.89,2.39l0.05,0.03l3.85,2.47l0.04,0.03l3.8,2.54l0.05,0.03l3.75,2.6l0.04,0.03l3.72,2.66l0.03,0.03l3.67,2.73l0.04,0.03l3.63,2.78l0.03,0.03l3.58,2.84l0.04,0.02l3.54,2.89l0.03,0.03l3.5,2.94l0.03,0.02l3.46,2.99l0.03,0.03l3.42,3.02l0.03,0.03l3.38,3.07l0.03,0.03l3.35,3.11l0.02,0.02l3.31,3.15l0.02,0.02l3.28,3.19l0.02,0.02l3.25,3.22l0.02,0.02l3.21,3.25l0.02,0.02l3.18,3.28l0.02,0.02l3.15,3.31l0.02,0.02l3.12,3.34l0.02,0.02l3.09,3.36l0.02,0.02l3.06,3.39l0.02,0.01l3.04,3.41l0.01,0.02l3.02,3.43l0.02,0.01l2.99,3.45l0.02,0.02l2.97,3.47l0.01,0.01l2.95,3.49l0.02,0.01l2.93,3.5l0.01,0.02l2.92,3.51l0.01,0.01l2.9,3.54v0.01l2.89,3.54l0.01,0.01l2.87,3.56v0.01l2.86,3.56v0.01l2.85,3.58l2.83,3.59l0.01,0.01l2.83,3.59l2.81,3.6l0.01,0.01l2.81,3.61l5.6,7.22v0.01l2.8,3.62l2.79,3.61l0.15,0.19l0.59,-3.62l0.02,-0.14l0.82,-3.84l-0.82,-3.67l-1.26,-4.27l-1.35,-4.32l-1.41,-4.31l-1.47,-4.28l-1.52,-4.21l-1.61,-4.27l-1.65,-4.17l-1.74,-4.22l-1.8,-4.15l-1.86,-4.12l-1.93,-4.09l-2,-4.05h0.01l-2.05,-3.98l-2.12,-3.98h-0.01l-2.23,-3.99l-2.27,-3.9l-2.35,-3.86l-2.41,-3.81l-2.49,-3.77l-0.01,-0.01l-2.5,-3.83l-0.01,-0.02l-2.47,-3.84l-2.46,-3.85l-2.47,-3.85l-2.47,-3.75l-2.53,-3.73l-2.65,-3.72l-2.69,-3.61l-2.76,-3.58l-2.81,-3.57l-2.84,-3.55l-5.73,-7.11l-2.86,-3.57l-2.86,-3.56l-2.93,-3.31l-0.04,-0.03l-2.97,-3.47l-0.14,-0.18l-2.71,-3.68l-0.13,-0.2l-0.14,-0.25l-2.01,-4.09l-0.1,-0.23l-0.08,-0.23l-0.06,-0.24l-0.04,-0.24l-0.03,-0.31l-0.11,-4.5l0.01,-0.25l0.02,-0.24l0.04,-0.24l0.07,-0.24l0.08,-0.23l0.1,-0.22l0.12,-0.22l0.14,-0.2l0.1,-0.14l2.84,-3.45l0.16,-0.18l0.18,-0.17l0.19,-0.16l0.2,-0.13l0.21,-0.13l0.22,-0.1l0.34,-0.12l4.36,-1.22l0.23,-0.06l0.25,-0.04l0.24,-0.01h0.24l0.25,0.02l0.24,0.04l4.41,0.96l0.24,0.06l0.23,0.08l0.22,0.1l0.28,0.16l3.85,2.43l0.21,0.14l0.15,0.12l3.46,2.97l0.21,0.2l3.17,3.28l0.12,0.13l2.98,3.46l0.05,0.06l2.89,3.52l2.91,3.52l0.01,0.02l2.89,3.54l0.03,0.04l2.83,3.59l0.03,0.04l2.77,3.64l0.03,0.05l2.7,3.68l0.03,0.05l2.63,3.73l0.03,0.05l2.56,3.78l0.03,0.04l2.51,3.82l0.02,0.04l2.44,3.87l0.02,0.03l2.4,3.89l0.02,0.03l2.35,3.92l0.01,0.03l2.31,3.94l0.02,0.03l2.25,3.98l0.02,0.03l2.21,4l0.02,0.03l2.16,4.03l0.01,0.03l2.12,4.05l0.01,0.04l2.06,4.08l0.02,0.03l2.01,4.11l0.01,0.03l1.96,4.13l0.02,0.04l1.9,4.15l0.02,0.04l1.84,4.18l0.02,0.03l1.79,4.21l0.02,0.03l1.73,4.23l0.02,0.04l1.68,4.25l0.01,0.04l1.62,4.27l0.02,0.04l1.56,4.29l0.01,0.04l1.5,4.32l0.02,0.04l1.43,4.34l0.02,0.04l1.37,4.36l0.02,0.04l1.31,4.38l0.01,0.04l1.25,4.4l0.01,0.04l0.33,1.25l2.43,-1.66l0.21,-0.13l0.21,-0.12l0.23,-0.09l0.15,-0.05l4.34,-1.36l0.24,-0.07l0.24,-0.04l0.24,-0.03h0.21l4.55,0.05l0.24,0.01l0.24,0.03l0.24,0.05l0.35,0.12l4.22,1.67l0.23,0.1l0.21,0.12l0.21,0.13l0.17,0.14l1.01,0.84l0.67,-2.47l0.02,-0.05l1.27,-4.39l0.01,-0.04l1.33,-4.37l0.01,-0.04l1.4,-4.35l0.01,-0.05l1.46,-4.33l0.02,-0.04l1.52,-4.31l0.01,-0.04l1.58,-4.28l0.02,-0.04l1.64,-4.27l0.01,-0.04l1.7,-4.24l0.02,-0.04l1.75,-4.21l0.02,-0.04l1.81,-4.2l0.02,-0.03l1.86,-4.17l0.02,-0.04l1.92,-4.15l0.02,-0.03l1.97,-4.12l0.02,-0.04l2.02,-4.09l0.02,-0.04l2.08,-4.07l0.02,-0.03l2.12,-4.04l0.02,-0.04l2.18,-4.01l0.02,-0.04l2.22,-3.99l0.02,-0.03l2.27,-3.96l0.02,-0.03l2.32,-3.94l0.02,-0.03l2.36,-3.91l0.02,-0.03l2.41,-3.88l0.02,-0.03l2.46,-3.86l0.03,-0.04l2.53,-3.81l0.02,-0.04l2.59,-3.77l0.03,-0.04l2.66,-3.72l0.03,-0.04l2.72,-3.67l0.03,-0.05l2.78,-3.62l0.04,-0.04l2.85,-3.58l0.03,-0.04l2.91,-3.52l2.89,-3.52l0.01,-0.02l2.91,-3.52l0.07,-0.08l3.04,-3.41l0.14,-0.15l3.26,-3.2l0.25,-0.21l3.59,-2.83l0.2,-0.14l0.26,-0.15l4.03,-2.12l0.22,-0.11l0.23,-0.08l0.23,-0.07l0.24,-0.05l0.35,-0.03l4.52,-0.19l0.25,-0.01l0.24,0.02l0.24,0.04l0.24,0.06l0.23,0.08l0.25,0.11l4.05,1.98l0.21,0.12l0.21,0.13l0.19,0.15l0.18,0.17l0.17,0.18l0.15,0.19l0.14,0.21l0.15,0.29l1.87,4.04l0.1,0.23l0.07,0.23l0.06,0.24l0.03,0.24l0.02,0.25v0.24l-0.03,0.25l-0.03,0.21l-0.95,4.43l-0.06,0.23l-0.08,0.23l-0.1,0.23l-0.11,0.21l-2.33,3.92l-0.13,0.21l-0.09,0.12l-2.83,3.59l-0.11,0.12l-3.01,3.43l-2.97,3.44z" stroke="none"></path><path d="M807.3,197.8l-2.49,3.83l-2.31,3.48l-2.47,3.65l-2.52,3.65l-2.56,3.65l-2.59,3.65l-2.66,3.72l-2.6,3.6l-2.68,3.7l-2.67,3.67l-2.69,3.7l-0.01,0.01l-2.69,3.69l-0.03,0.04l-2.67,3.71l-0.05,0.07l-2.66,3.71l-0.08,0.1l-2.64,3.74l-0.1,0.14l-2.6,3.76l-0.14,0.21l-2.56,3.78l-0.19,0.3l-2.49,3.83l-0.27,0.42l-2.39,3.89l-0.38,0.64l-2.25,3.97l-0.3,0.56l-0.25,0.48l-2.01,4.11l-0.37,0.79l-1.82,4.19l-0.19,0.44l-1.73,4.23l-0.2,0.5l-1.61,4.28l-0.2,0.55l-1.49,4.32l-0.2,0.6l-1.35,4.37l-0.18,0.64l-1.21,4.41l-0.17,0.68l-1.05,4.45l-0.15,0.71l-0.88,4.48l-0.13,0.72l-0.72,4.51l-0.11,0.71l-0.56,4.53l-0.07,0.69l-0.4,4.55l-0.05,0.66l-0.25,4.56l-0.03,0.61l-0.11,4.57l-0.01,0.56l0.02,4.57l0.01,0.51l0.13,4.57l0.02,0.45l0.23,4.56l0.03,0.4l0.32,4.56l0.02,0.19l0.36,4.55l0.02,0.16l0.4,4.55l0.02,0.26l0.47,4.55v0.06l0.47,4.47l0.45,4.35l0.41,4.55l0.32,4.26l0.23,4.14l0.1,3.65l-0.02,3.87l-0.17,3.65l-0.34,3.55l-0.49,3.08l-0.65,2.81025l-0.81,2.41975l-1,2.17l-1.14,1.87l-1.27,1.63l-1.21,1.17l-1.1,0.78l-1.3,0.64l-1.5,0.46l-1.94,0.32l-2.48,0.11l-2.72,-0.15l-3.2,-0.42l-3.18,-0.63l-3.61,-0.91l-3.56,-1.06l-3.92,-1.32l-3.98,-1.46l-3.89,-1.52l-3.73,-1.52v-0.01l-4.21,-1.78l-4.09,-1.75l-4.17,-1.8l-0.09,-0.04l-4.21,-1.79l-0.21,-0.09l-4.23,-1.74l-0.39,-0.15l-4.26,-1.65l-0.63,-0.24l-4.32,-1.5l-0.6,-0.2l-0.32,-0.1l-4.38,-1.3l-0.88,-0.23l-4.44,-1.1l-0.65,-0.15l-4.47,-0.94l-0.57,-0.11l-4.5,-0.82l-0.6,-0.1l-4.52,-0.67l-0.72,-0.1l-4.55,-0.51l-0.62,-0.06l-0.37,-0.03l-4.56,-0.28l-0.63,-0.03l-0.63,-0.01h-0.32l-4.57,0.08l-0.63,0.02l-0.63,0.04l-0.63,0.06l-0.63,0.08l-0.84,0.14l-4.48,0.84l-0.62,0.13l-0.61,0.15l-0.61,0.16l-0.61,0.19l-0.59,0.2l-0.6,0.22l-0.58,0.24l-0.58,0.26l-0.57,0.28l-0.56,0.3l-0.54,0.31l-0.54,0.33l-0.53,0.35l-0.52,0.36l-0.51,0.38l-0.49,0.4l-0.48,0.41l-0.47,0.42l-0.45,0.45l-0.44,0.45l-0.59,0.65l-2.75,3.22l-0.41,0.49l-0.39,0.5l-0.37,0.51l-0.36,0.52l-0.66,1.08l-0.3,0.56l-0.29,0.56l-0.27,0.57l-0.25,0.58l-0.23,0.59l-0.21,0.6l-0.2,0.6l-0.18,0.61l-0.15,0.61l-0.14,0.62l-0.12,0.62l-0.09,0.62l-0.08,0.63l-0.06,0.63l-0.04,0.63l-0.02,0.63l0.01,0.63l0.02,0.64l0.04,0.63l0.06,0.63l0.08,0.62l0.1,0.63l0.13,0.62l0.14,0.62l0.16,0.61l0.18,0.6l0.2,0.6l0.21,0.6l0.24,0.59l0.36,0.81l1.93,4.07l0.28,0.57l0.3,0.55l0.32,0.55l0.33,0.54l0.35,0.53l0.37,0.51l0.38,0.51l0.4,0.49l0.41,0.48l0.41,0.45l3.14,3.31l0.44,0.45l0.46,0.44l0.66,0.59l3.48,2.96l0.49,0.4l0.5,0.39l0.66,0.47l3.77,2.59l0.52,0.34l0.54,0.34l0.55,0.31l0.3,0.17l4.04,2.14l0.56,0.29l0.57,0.27l0.42,0.19l4.2,1.79l0.59,0.24l0.63,0.23l4.31,1.51l0.6,0.2l0.32,0.1l4.38,1.31l0.68,0.18l4.42,1.15l0.46,0.12l4.45,1.04l0.27,0.06l4.46,0.98l0.08,0.02l4.34,0.93v0.01l4.11,0.91l4.16,1l3.65,1.01l3.64,1.17l3.7,1.33l3.32,1.33l3.56,1.6l3.47,1.73l3.3,1.81l3.17,1.91l3.03,1.98l3.21,2.28l2.91,2.26l2.83,2.36l2.91,2.63l2.73,2.66603l2.69,2.84397l2.53,2.87l2.4,2.97l2.29,3.04213l2.24,3.22787l2,3.1l2,3.4l1.77,3.26l1.68,3.37659l1.6,3.51341l1.54,3.78l1.27,3.42l1.17,3.57l1.09,3.78l0.96,3.80252l0.78,3.68748l0.69,3.93l0.54,3.91l0.37,3.71l0.25,3.69l0.12,3.92l-0.03,3.98l-0.16,3.65974l-0.3,3.85026l-0.44,3.83l-0.58,3.9l-0.7,3.65l-0.93,4.12l-0.89,3.36l-1.11,3.67l-1.18,3.2l-1.59,3.71l-1.76,3.95l-1.82,4.04l-1.89,4.16l-0.06,0.14l-1.85,4.17l-0.12,0.28l-1.79,4.21l-0.18,0.43l-1.69,4.24l-0.22,0.59l-1.56,4.29l-0.25,0.73l-1.39,4.35l-0.25,0.85l-1.2,4.41l-0.16,0.61l-0.07,0.33l-0.99,4.46l-0.12,0.62l-0.07,0.37l-0.76,4.51l-0.09,0.62l-0.05,0.39l-0.53,4.54l-0.06,0.63l-0.03,0.36l-0.3,4.56l-0.03,0.63l-0.01,0.33l-0.08,4.57v0.63l0.02,0.53l0.18,4.56l0.04,0.64l0.04,0.51l0.45,4.54l0.11,0.91l0.65,4.52l0.11,0.68l0.81,4.5l0.09,0.46l0.85,4.19l-2.38,-1.39l-3.86,-2.26l-0.02,-0.01l-3.94,-2.31l-0.11,-0.07l-3.96,-2.28l-0.21,-0.12l-3.99,-2.24l-0.32,-0.18l-4.03,-2.16l-0.45,-0.23l-4.08,-2.06l-0.59,-0.29l-4.14,-1.92l-0.76,-0.33l-4.22,-1.75l-0.59,-0.24l-0.36,-0.13l-4.3,-1.53l-0.6,-0.21l-0.58,-0.17l-4.39,-1.27l-0.61,-0.16l-0.81,-0.19l-4.47,-0.94l-0.62,-0.12l-0.63,-0.1l-0.43,-0.06l-4.54,-0.56l-0.63,-0.07l-0.63,-0.04l-0.66,-0.03l-4.57,-0.12l-0.63,-0.01l-0.63,0.02l-0.92,0.05l-4.55,0.39l-0.63,0.06l-0.63,0.08l-0.62,0.1l-0.62,0.13l-0.32,0.07l-4.45,1.02l-0.61,0.15l-0.61,0.17l-0.47,0.15l-4.35,1.41l-0.6,0.21l-0.63,0.24l-4.24,1.69l-0.79,0.33l-4.17,1.87l-0.38,0.18l-4.11,1.95l-3.73,1.77l-3.74,1.68l-3.24,1.27l-2.84,0.89l-2.49,0.54l-2.61,0.3l-2.29,0.03l-2.17,-0.24l-2.39,-0.54l-2.6,-0.87l-2.77,-1.19l-2.84,-1.49l-2.77,-1.67l-3,-2.06l-2.86,-2.17l-2.96,-2.47l-2.7,-2.43l-2.98,-2.88l-2.81,-2.92l-3.07,-3.22l-2.73,-2.91622l-2.5,-2.83378l-2.72,-3.3l-2.26,-2.92l-2.48,-3.4l-2.39,-3.49l-2.14,-3.34l-2.1,-3.46l-1.89,-3.31l-2.07,-3.83l-1.72,-3.38l-1.93,-3.99l-1.55,-3.4l-1.7,-3.93l-1.57,-3.82l-1.56,-3.99l-1.57,-4.24l-1.41,-4.01l-1.28,-3.8l-1.4,-4.35l-1.27,-4.13l-1.23,-4.17l-1.19,-4.19l-1.16,-4.23l-1.09,-4.11l-1.11,-4.3h0.01l-1.11,-4.43l-1.06,-4.33l-1.04,-4.36l-1.02,-4.32h0.01l-1.04,-4.45l-1.01,-4.41l-1.02,-4.44l-1.02,-4.45v-0.02l-1.02,-4.46l-0.01,-0.03l-1.04,-4.46l-0.01,-0.05l-1.05,-4.45l-0.01,-0.08l-1.07,-4.44l-0.02,-0.1l-1.09,-4.44l-1.14,-4.56l-0.17,-0.61l-0.11,-0.37l-1.34,-4.37l-0.2,-0.63l-1.49,-4.32l-0.17,-0.5l-1.6,-4.28l-0.17,-0.44l-1.7,-4.24l-0.16,-0.4l-1.79,-4.2l-0.16,-0.37l-1.87,-4.17l-0.16,-0.35l-1.95,-4.13l-0.28,-0.57l-0.3,-0.56l-0.31,-0.54l-0.33,-0.54l-0.35,-0.53l-0.37,-0.52l-0.38,-0.5l-0.39,-0.49l-0.42,-0.48l-0.42,-0.47l-0.44,-0.45l-0.46,-0.44l-0.47,-0.43l-0.48,-0.4l-0.5,-0.4l-0.5,-0.38l-0.52,-0.36l-0.53,-0.34l-0.54,-0.33l-0.56,-0.31l-0.56,-0.29l-0.57,-0.28l-0.57,-0.25l-0.59,-0.24l-0.59,-0.22l-0.6,-0.2l-0.61,-0.19l-0.61,-0.16l-0.61,-0.14l-0.63,-0.13l-0.62,-0.1l-0.63,-0.08l-0.62,-0.07l-0.64,-0.04l-0.63,-0.03h-0.63l-0.63,0.01l-0.63,0.04l-0.63,0.05l-0.63,0.08l-0.63,0.1l-0.62,0.11l-0.62,0.13l-0.61,0.16l-0.61,0.17l-0.6,0.19l-0.6,0.22l-0.59,0.23l-0.58,0.24l-0.57,0.27l-0.57,0.29l-0.55,0.3l-0.55,0.32l-0.53,0.34l-0.53,0.35l-0.51,0.37l-0.5,0.39l-0.49,0.4l-0.47,0.41l-0.47,0.44l-0.44,0.44l-0.44,0.46l-0.42,0.48l-0.4,0.48l-0.39,0.5l-0.37,0.51l-0.36,0.53l-0.34,0.53l-0.32,0.55l-0.3,0.55l-0.29,0.56l-0.27,0.58l-0.25,0.58l-0.23,0.58l-0.22,0.6l-0.19,0.6l-0.18,0.61l-0.15,0.61l-0.14,0.62l-0.12,0.62l-0.09,0.63l-0.08,0.62l-0.06,0.63l-0.04,0.63l-0.02,0.64l-0.05,4.25v0.38l0.06,9.09l0.02,4.5l0.01,4.46l-0.02,4.43l-0.05,4.39l-0.09,4.36l-0.13,4.32l-0.2,4.57l-0.25,4.27h0.01l-0.29,3.87l-0.38,4.15l-0.46,4.09l-0.54,4.03l-0.68,4.23l-0.72,3.83l-0.85,3.84l-0.87,3.37l-0.49,1.45l-0.26,-0.62l-0.88,-2.83l-0.81,-3.42l-0.79,-4.1l-0.67,-4.03l-0.59,-4.09l-0.5,-3.9l-0.49,-4.49l-0.41,-4.28l-0.36,-4.31h-0.01l-0.31,-4.35l-0.28,-4.37l-0.25,-4.4l-0.21,-4.42h-0.01l-0.18,-4.43l-0.16,-4.46l-0.14,-4.47l-0.13,-4.49l-0.11,-4.5l-0.09,-4.51l-0.03,-0.63l-0.04,-0.64l-0.06,-0.62l-0.09,-0.63l-0.1,-0.63l-0.12,-0.62l-0.15,-0.61l-0.16,-0.61l-0.18,-0.61l-0.2,-0.6l-0.22,-0.59l-0.24,-0.59l-0.25,-0.58l-0.28,-0.57l-0.29,-0.56l-0.31,-0.55l-0.33,-0.54l-0.34,-0.53l-0.36,-0.52l-0.38,-0.51l-0.39,-0.49l-0.41,-0.49l-0.42,-0.47l-0.44,-0.45l-0.45,-0.45l-0.47,-0.42l-0.48,-0.42l-0.49,-0.39l-0.5,-0.39l-0.52,-0.36l-0.52,-0.35l-0.54,-0.33l-0.55,-0.32l-0.56,-0.3l-0.57,-0.28l-0.57,-0.26l-0.59,-0.24l-0.59,-0.23l-0.6,-0.2l-0.6,-0.19l-0.61,-0.17l-0.61,-0.14l-0.62,-0.13l-0.63,-0.11l-0.62,-0.09l-0.63,-0.07l-0.63,-0.05l-0.63,-0.03l-0.64,-0.01l-0.63,0.01l-0.63,0.03l-0.63,0.05l-0.63,0.07l-0.62,0.09l-0.63,0.11l-0.62,0.13l-0.61,0.15l-0.61,0.17l-0.6,0.18l-0.6,0.21l-0.59,0.22l-0.59,0.25l-0.57,0.26l-0.57,0.28l-0.56,0.3l-0.55,0.31l-1.06,0.68l-0.52,0.37l-0.5,0.38l-0.49,0.4l-0.48,0.41l-0.47,0.43l-0.45,0.44l-0.44,0.46l-0.42,0.47l-0.41,0.48l-0.39,0.5l-0.38,0.51l-0.36,0.52l-0.34,0.53l-0.33,0.54l-0.31,0.55l-0.21,0.41l-1.79,3.51l-0.28,0.57l-0.2,0.43l-1.85,4.18l-0.16,0.38l-1.77,4.21l-0.16,0.41l-1.68,4.25l-0.17,0.45l-1.57,4.29l-0.17,0.51l-1.46,4.33l-0.24,0.79l-1.28,4.38l-0.19,0.73l-1.11,4.44l-0.03,0.11l-1.08,4.44l-0.02,0.1l-1.06,4.44l-0.02,0.08l-1.04,4.45l-0.02,0.05l-1.03,4.45v0.04l-1.03,4.45v0.01l-1.02,4.46l-1.02,4.45h0.01l-2.04,8.78l-1.03,4.37l-1.07,4.44h0.01l-1.04,4.23h-0.01l-1.08,4.3l-1.1,4.28l-1.13,4.24h-0.01l-1.16,4.22l-1.2,4.19l-1.24,4.16l-1.36,4.36l-1.33,4.11l-1.29,3.78l-1.42,4.01h-0.01l-1.48,3.96l-1.54,3.92l-1.6,3.86l-1.67,3.82l-1.73,3.76l-2.01,4.1l-1.67,3.24l-2.19,3.99l-2.04,3.49l-2.12,3.43l-2.24,3.42l-2.16,3.11l-2.31,3.10932l-2.46,3.13068l-2.61,3.12l-2.52,2.83l-2.97,3.13l-0.02,0.02l-3.14,3.31l-2.85,2.90192l-2.53,2.40808l-2.87,2.55l-3.03,2.46l-2.8,2.09l-2.94,1.96l-2.91,1.71l-2.82,1.42l-2.63,1.08l-2.61,0.8l-2.35,0.48l-2.14,0.17l-2.4,-0.11l-2.6,-0.35l-2.61,-0.63l-2.84,-0.96l-3.22,-1.31l-3.57,-1.62l-4.13,-1.96l-0.07,-0.04l-4.14,-1.95l-0.47,-0.21l-4.18,-1.84l-0.59,-0.25l-0.3,-0.12l-4.27,-1.63l-0.59,-0.22l-0.75,-0.24l-4.37,-1.33l-0.61,-0.18l-0.61,-0.15l-0.69,-0.15l-4.48,-0.9l-0.62,-0.11l-0.63,-0.09l-0.63,-0.08l-0.94,-0.07l-4.56,-0.25l-0.63,-0.03h-0.64l-0.8,0.02l-4.57,0.23l-0.63,0.04l-0.63,0.06l-0.61,0.08l-4.52,0.65l-0.62,0.1l-0.63,0.12l-0.37,0.08l-4.45,1.03l-0.62,0.15l-0.75,0.21l-4.37,1.33l-0.6,0.2l-0.51,0.18l-4.29,1.59l-0.59,0.23l-0.31,0.13l-4.2,1.8l-0.72,0.32l-4.13,1.96l-0.55,0.27l-4.07,2.09l-0.41,0.22l-4.02,2.18l-0.3,0.16l-3.98,2.25l-0.18,0.11l-3.96,2.29l-0.09,0.06l-7.77,4.55l-1.49,0.86l0.12,-0.54l0.06,-0.3l0.9,-4.48l0.09,-0.51l0.78,-4.51l0.11,-0.73l0.61,-4.53l0.07,-0.63l0.04,-0.33l0.38,-4.55l0.05,-0.63l0.02,-0.57l0.12,-4.57v-1.08l-0.14,-4.57l-0.02,-0.63l-0.03,-0.33l-0.35,-4.56l-0.06,-0.63l-0.04,-0.37l-0.58,-4.53l-0.09,-0.63l-0.07,-0.38l-0.81,-4.5l-0.12,-0.62l-0.08,-0.36l-1.04,-4.45l-0.15,-0.62l-0.09,-0.3l-1.24,-4.4l-0.25,-0.82l-1.44,-4.34l-0.24,-0.69l-1.59,-4.29l-0.22,-0.54l-1.71,-4.24l-0.17,-0.39l-1.81,-4.2l-0.11,-0.25l-1.86,-4.17l-0.05,-0.1l-1.88,-4.16l-1.87,-4.13l-1.78,-4.03l-1.39,-3.3l-1.12,-3.25l-1.06,-3.58l-0.97,-3.83l-0.81,-3.7l-0.65,-3.63l-0.57,-3.93l-0.42,-3.95l-0.26,-3.67l-0.14,-4.05l0.01,-3.63l0.15,-3.96301l0.29,-3.89699l0.4,-3.67l0.58,-3.94l0.71,-3.84l0.76,-3.45l1,-3.9l1.12,-3.75l1.19,-3.53l1.41,-3.74l1.56,-3.69l1.36,-2.96l1.9,-3.77l1.92,-3.44l1.92,-3.19l2.14,-3.27l2.27,-3.19l2.1,-2.74l2.57,-3.11l2.42,-2.72l2.76,-2.85l2.83,-2.74l2.66,-2.36l2.9,-2.39l3.23,-2.46l3.03,-2.12l3.17,-2.03l3.39,-1.99l3.17,-1.7l3.45,-1.67l3.28,-1.44l3.73,-1.47l3.43,-1.19l3.71,-1.16l3.94,-1.05l3.75,-0.89l4.46,-0.98v-0.01l4.39,-0.94l0.12,-0.03l4.46,-0.99l0.32,-0.07l4.44,-1.07l0.51,-0.12l4.42,-1.18l0.73,-0.22l4.36,-1.34l0.99,-0.33l4.29,-1.58l0.59,-0.22l0.7,-0.3l4.17,-1.87l0.57,-0.27l0.57,-0.28l0.5,-0.27l3.98,-2.25l0.55,-0.31l0.53,-0.34l0.53,-0.35l0.37,-0.27l3.69,-2.69l0.5,-0.38l0.49,-0.4l0.46,-0.39l3.43,-3.03l0.46,-0.42l0.46,-0.44l0.44,-0.46l0.47,-0.53l3,-3.44l0.41,-0.48l0.39,-0.5l0.38,-0.51l0.36,-0.52l0.34,-0.53l0.33,-0.54l0.31,-0.55l0.29,-0.56l0.27,-0.57l0.26,-0.58l0.23,-0.59l0.22,-0.59l0.2,-0.6l0.25,-0.85l1.14,-4.26l0.15,-0.61l0.13,-0.62l0.12,-0.62l0.09,-0.63l0.08,-0.62l0.05,-0.63l0.04,-0.63l0.01,-0.64v-0.63l-0.03,-0.63l-0.04,-0.63l-0.07,-0.63l-0.08,-0.63l-0.1,-0.62l-0.13,-0.62l-0.14,-0.62l-0.17,-0.61l-0.18,-0.6l-0.2,-0.6l-0.22,-0.6l-0.24,-0.58l-0.26,-0.58l-0.27,-0.57l-0.29,-0.56l-0.31,-0.55l-0.33,-0.54l-0.35,-0.53l-0.36,-0.52l-0.38,-0.51l-0.39,-0.49l-0.41,-0.49l-0.42,-0.46l-0.44,-0.46l-0.46,-0.44l-0.46,-0.43l-0.48,-0.41l-0.49,-0.4l-0.51,-0.38l-0.5,-0.35l-3.63,-2.48l-0.53,-0.35l-0.53,-0.33l-0.55,-0.32l-0.56,-0.29l-0.57,-0.28l-0.58,-0.26l-0.58,-0.25l-0.59,-0.22l-0.6,-0.21l-0.6,-0.18l-0.61,-0.17l-0.62,-0.15l-0.62,-0.13l-0.62,-0.1l-0.54,-0.08l-4.52,-0.59l-0.63,-0.07l-0.63,-0.06l-0.64,-0.03l-0.81,-0.01l-4.57,0.03l-0.63,0.01l-0.76,0.05l-4.56,0.34l-0.91,0.09l-4.54,0.56l-0.68,0.09l-4.52,0.71l-0.58,0.11l-4.49,0.84l-0.58,0.12l-4.46,0.97l-0.71,0.17l-4.42,1.14l-0.61,0.17l-0.3,0.09l-4.37,1.34l-0.88,0.29l-4.3,1.55l-0.57,0.21l-4.25,1.68l-0.34,0.14l-4.22,1.75l-0.18,0.08l-4.2,1.8l-0.06,0.02l-4.16,1.79l-4.06,1.74l-4.22,1.77l-3.69,1.5l-3.94,1.53l-3.81,1.37l-3.84,1.26l-3.71,1.07l-3.51,0.85l-3.18,0.58l-3.09,0.36l-2.71,0.09l-2.28,-0.16l-1.89,-0.37l-1.46,-0.51l-1.2,-0.65l-1.13,-0.86l-1.19,-1.24l-1.27,-1.72l-1.15,-1.99l-0.9,-2.09l-0.79,-2.55l-0.64,-2.99l-0.45,-3.24l-0.3,-3.58l-0.12,-3.52l0.01,-3.87l0.13,-3.8l0.25,-4.17l0.34,-4.28l0.41,-4.38l0.46,-4.5l0.48,-4.55l0.01,-0.1l0.45,-4.55l0.03,-0.31l0.39,-4.56v-0.04l0.37,-4.56l0.02,-0.29l0.31,-4.56l0.02,-0.41l0.21,-4.56l0.02,-0.47l0.1,-4.57l0.01,-0.52l-0.02,-4.57l-0.01,-0.57l-0.14,-4.57l-0.03,-0.62l-0.29,-4.56l-0.05,-0.67l-0.44,-4.55l-0.08,-0.69l-0.6,-4.53l-0.1,-0.71l-0.77,-4.51l-0.13,-0.71l-0.92,-4.48l-0.16,-0.7l-1.08,-4.44l-0.18,-0.67l-1.24,-4.4l-0.19,-0.64l-1.38,-4.35l-0.2,-0.59l-1.52,-4.31l-0.2,-0.55l-1.64,-4.26l-0.2,-0.49l-1.75,-4.22l-0.19,-0.43l-1.85,-4.17l-0.26,-0.58l-0.21,-0.42l-2.08,-4.07l-0.3,-0.56l-0.2,-0.36l-2.29,-3.95l-0.35,-0.58l-2.42,-3.87l-0.24,-0.39l-2.51,-3.82l-0.18,-0.27l-2.57,-3.77l-0.13,-0.2l-2.61,-3.75l-0.1,-0.13l-2.64,-3.73l-0.07,-0.09l-2.67,-3.71l-0.04,-0.07l-2.68,-3.7l-0.03,-0.03l-2.68,-3.7l-0.01,-0.01l-2.69,-3.69l-2.68,-3.69l-2.66,-3.67l-2.64,-3.66l-2.61,-3.66l-2.58,-3.65h-0.01l-2.54,-3.65l-2.51,-3.65l-2.47,-3.65l-2.29,-3.47l-2.48,-3.84l-2.3,-3.65l-2.11,-3.47l-2.15,-3.67l-2.16,-3.85l-1.93,-3.62l-1.6,-3.19l-1.78,-3.80782l-1.54,-3.64181l-1.27,-3.37037l-1.03,-3.19232l-0.82,-3.21768l-0.48,-2.75l-0.19,-2.4l0.07,-1.89l0.23,-1.23l0.3,-0.76l0.35,-0.56l0.61,-0.65l1.14,-0.85l1.78,-0.97l2.32,-0.95l2.77,-0.86l3.21,-0.74l3.44,-0.58l3.71,-0.45l3.83,-0.31l3.81,-0.17l4.21,-0.11l4.11,-0.02l4.14,0.08l4.23,0.17l4.25,0.26l4.31,0.36l3.9,0.4l4.41,0.53l3.89,0.54l4.1,0.65l4.31,0.76l4.05,0.77l4.47,0.93l4.16,0.94l4.05,0.98l3.98,1.01l4.41,1.2v-0.01l4.14,1.19l3.89,1.16l4.36,1.37l3.9,1.27l4.11,1.39l4.11,1.44l4.1,1.49l4.09,1.54l4.08,1.57l4.07,1.62l4.07,1.67l4.05,1.69v0.01l4.2,1.8l3.88,1.7v0.01l4.03,1.81l4.02,1.84l4.01,1.88l4.12,1.96l3.87,1.88l3.98,1.96v0.01l3.98,1.99l3.97,2.02l4.06,2.1v-0.01l3.95,2.07l3.95,2.09l0.06,0.04l3.91,2.05l4.02,2.16l3.41,1.92l3.81,2.24l3.36,2.07l3.73,2.39l3.5,2.34l3.46,2.41l3.44,2.47l3.15,2.34l3.39,2.6l3.58,2.84l0.01,-0.01l3.09,2.53l3.3,2.77l3.26,2.81l3.24,2.87l3.38,3.07l3.01,2.8l3.31,3.15l2.97,2.88l3.1,3.08l3.09,3.11l-0.01,0.01l3.18,3.28l2.91,3.05l3.12,3.34l2.88,3.13l2.97,3.28l3.04,3.41l2.84,3.22l2.92,3.35l-0.01,0.01l2.9,3.38l2.89,3.39l-0.01,0.01l2.87,3.42l2.86,3.45l2.84,3.46l2.89,3.55l2.81,3.49l2.77,3.46l2.81,3.53l2.8,3.54l5.58,7.12l2.79,3.58l2.8,3.61l2.79,3.6l2.77,3.59l2.8,3.62l2.79,3.62l0.39,0.49l0.41,0.48l0.43,0.47l0.44,0.46l0.45,0.44l0.47,0.42l0.48,0.41l0.49,0.4l0.51,0.38l0.51,0.36l0.53,0.35l0.54,0.33l0.55,0.32l0.56,0.29l0.57,0.28l0.57,0.26l0.59,0.24l0.59,0.22l0.51,0.18l1.96,0.64l0.6,0.19l0.61,0.17l0.62,0.15l0.62,0.13l0.62,0.11l0.63,0.09l0.62,0.07l0.63,0.05l0.64,0.03l0.63,0.01l0.63,-0.01l0.63,-0.03l0.63,-0.05l0.63,-0.07l0.63,-0.09l0.62,-0.11l0.62,-0.13l0.61,-0.14l0.61,-0.17l0.61,-0.19l0.6,-0.2l0.59,-0.23l0.58,-0.24l0.58,-0.26l0.57,-0.28l0.55,-0.3l0.55,-0.31l0.54,-0.34l0.53,-0.35l0.51,-0.36l0.51,-0.38l0.49,-0.4l0.48,-0.41l0.47,-0.43l0.45,-0.44l0.44,-0.46l0.42,-0.47l0.41,-0.48l0.39,-0.5l0.38,-0.5l0.36,-0.52l0.34,-0.53l0.33,-0.54l0.31,-0.56l0.29,-0.56l0.28,-0.57l0.25,-0.57l0.24,-0.59l0.22,-0.59l0.2,-0.6l0.18,-0.61l0.17,-0.61l0.14,-0.62l0.12,-0.62l0.11,-0.62l0.05,-0.41l0.59,-4.54l0.54,-3.25l0.17,-0.84l0.98,3.48l0.91,3.83l0.84,4.08l0.14,0.61l0.16,0.62l0.18,0.6l0.19,0.6l0.22,0.6l0.23,0.59l0.25,0.58l0.27,0.57l0.29,0.56l0.3,0.56l0.33,0.54l0.34,0.53l0.35,0.53l0.38,0.51l0.38,0.5l0.41,0.48l0.42,0.47l0.43,0.46l0.45,0.45l0.46,0.43l0.48,0.42l0.49,0.4l0.5,0.38l0.51,0.37l0.53,0.36l0.53,0.33l0.55,0.32l0.56,0.3l0.56,0.29l0.57,0.26l0.59,0.25l0.59,0.23l0.59,0.21l0.6,0.19l0.61,0.18l0.62,0.15l0.61,0.13l0.63,0.12l0.62,0.09l0.63,0.08l0.63,0.05l0.63,0.04l0.63,0.01l0.64,-0.01l0.63,-0.02l0.63,-0.05l0.63,-0.06l0.62,-0.09l0.63,-0.1l0.62,-0.13l0.61,-0.14l0.62,-0.16l0.6,-0.19l0.6,-0.2l0.59,-0.22l0.59,-0.24l0.58,-0.26l0.56,-0.27l0.57,-0.3l0.55,-0.31l0.54,-0.32l0.53,-0.35l0.51,-0.36l0.51,-0.38l0.5,-0.39l0.48,-0.41l0.47,-0.43l0.45,-0.44l0.46,-0.47l2.59,-2.75l0.42,-0.47l0.42,-0.48l0.42,-0.53l5.57,-7.22l2.79,-3.6l5.56,-7.18l2.79,-3.57l2.78,-3.56l2.83,-3.59h-0.01l2.77,-3.49l2.81,-3.52l2.81,-3.51l2.82,-3.49l2.83,-3.47l2.84,-3.45l2.85,-3.44l2.87,-3.41l2.88,-3.39l2.9,-3.37l2.91,-3.35l2.93,-3.32l2.95,-3.29l3.07,-3.38l3,-3.24v-0.00438l3.01,-3.20562l3.04,-3.18l3.06,-3.14l-0.01,-0.01l2.95,-2.96l3.1,-3.06l3.13,-3.03l3.15,-2.98l3.18,-2.94l3.2,-2.9l3.24,-2.85l3.47,-2.97l3.3,-2.75l3.33,-2.7l3.36,-2.64l3.4,-2.59l3.42,-2.52l3.18,-2.26l3.47,-2.39l3.51,-2.32l3.85,-2.45l3.59,-2.18l3.41,-1.99l3.71,-2.06l3.81,-2.02l4.04,-2.13l3.94,-2.08l3.95,-2.07v0.01l3.96,-2.05v0.01l3.96,-2.01l3.98,-1.99l4.1,-2.01v-0.01l3.87,-1.86l3.99,-1.9l4.15,-1.93l3.87,-1.77l4.03,-1.8l4.03,-1.77l4.2,-1.79v-0.01l3.89,-1.62l4.06,-1.65l4.25,-1.68l4.08,-1.57l4.09,-1.52l4.1,-1.48l4.11,-1.43l4.12,-1.38l4.13,-1.33l4.13,-1.28l3.89,-1.16v0.01l4.4,-1.24l4.04,-1.08l4.19,-1.06l4.25,-1l4.17,-0.92l4.06,-0.84l4.07,-0.76l4.4,-0.75l4.01,-0.62l3.97,-0.53l4.38,-0.51l4.33,-0.42l4.17,-0.32l4.15,-0.23l3.95,-0.14l4.19,-0.06l3.81,0.03l4.47,0.14l3.89,0.2l3.73,0.33l3.75,0.49l3.19,0.58l3.23,0.79l2.71,0.89l2.23,0.98l1.57,0.92l1.06,0.86l0.48,0.56l0.35,0.61l0.27,0.8056l0.22,1.4344l0.01,1.99l-0.26,2.51023l-0.56,2.85977l-0.89,3.27l-1.15,3.43l-1.28,3.29l-1.63,3.72l-1.5,3.16l-1.96,3.85l-1.86,3.45l-2.24,3.94354l-2,3.37646l-2.39,3.9z" stroke="none"></path><path d="M432.80417,427.7128l-28.66754,22.64133l61.37652,55.53422l-32.70899,-78.17555" stroke="none"></path><path d="M452.25,487.14l-40.37,-36.52l18.85,-14.9z" stroke="none"></path><path d="M452.25,487.14l-4.4169,-3.99567l0.2969,-0.54433l0.32,-0.55l0.34,-0.53l0.36,-0.53l0.33366,-0.45991z" stroke="#ff0000"></path><path d="M404.13663,450.35413l9.07135,80.278l52.30518,-24.74378l-61.37652,-55.53422" stroke="none"></path><path d="M456.61,504.57l-39.22,18.55l-6.79,-60.18z" stroke="none"></path><path d="M456.61,504.57l-11.08297,5.24194l-0.01703,-3.83194l-0.06,-9.09v-0.38l0.02372,-2.01614zM417.39,523.12l-5.5308,-49.01967l0.0208,-0.00033l0.64,0.01l0.63,0.03l0.63,0.05l0.63,0.07l0.62,0.09l0.63,0.11l0.62,0.13l0.61,0.14l0.61,0.17l0.6,0.19l0.6,0.2l0.59,0.23l0.59,0.24l0.57,0.26l0.57,0.28l0.56,0.3l0.55,0.32l0.54,0.33l0.52,0.35l0.52,0.36l0.5,0.39l0.49,0.39l0.48,0.42l0.47,0.42l0.45,0.45l0.44,0.45l0.42,0.47l0.41,0.49l0.39,0.49l0.38,0.51l0.36,0.52l0.34,0.53l0.33,0.54l0.31,0.55l0.29,0.56l0.28,0.57l0.25,0.58l0.24,0.59l0.22,0.59l0.2,0.6l0.18,0.61l0.16,0.61l0.15,0.61l0.12,0.62l0.1,0.63l0.09,0.63l0.06,0.62l0.04,0.64l0.03,0.63l0.09,4.51l0.11,4.5l0.13,4.49l0.14,4.47l0.1552,4.32619z" stroke="#ff0000"></path><path d="M318.38206,486.01705l76.80752,59.47525l18.0184,-14.86016l-94.82592,-44.61509" stroke="none"></path><path d="M403.93,531.8l-8.84,7.29l-37.7,-29.19z" stroke="none"></path><path d="M403.93,531.8l-8.84,7.29l-16.02331,-12.40638l0.90331,-3.71362l0.03,-0.11l0.51908,-2.07631z" stroke="#ff0000"></path><path d="M443.01506,584.28517l44.67974,-17.57037l-22.18164,-60.82645l-22.49809,78.39682" stroke="none"></path><path d="M481.33,563.84l-30.72,12.08l15.47,-53.89z" stroke="none"></path><path d="M466.08,522.03l-15.47,53.89l30.72,-12.08z" stroke="#ff0000"></path><path d="M443.01506,584.28517l22.49809,-78.39682l-52.30518,24.74378l29.80708,53.65304" stroke="none"></path><path d="M441.54,571.32l-21.37,-38.45l37.49,-17.73z" stroke="none"></path><path d="M441.54,571.32l-0.7964,-1.43292l0.1464,-0.56708l0.85,-3.84l0.72,-3.83l0.68,-4.23l0.54,-4.03l0.46,-4.09l0.38,-4.15l0.29,-3.87h-0.01l0.25,-4.27l0.2,-4.57l0.13,-4.32l0.09,-4.36l0.03269,-2.87049l12.15731,-5.74951zM420.17,532.87l12.85459,-6.07927l0.14541,2.55927l0.28,4.37l0.31,4.35h0.01l0.36,4.31l0.41,4.28l0.49,4.49l0.5,3.9l0.59,4.09l0.57596,3.46435z" stroke="#ff0000"></path><path d="M395.18958,545.49229l47.82549,38.79288l-29.80708,-53.65304l-18.0184,14.86016" stroke="none"></path><path d="M426.09,564.12l-23,-18.66l8.67,-7.15z" stroke="none"></path><path d="M411.76,538.31l-8.67,7.15l23,18.66z" stroke="#ff0000"></path><path d="M549.10562,406.04961l-14.90964,-10.94539l-68.68282,110.78413l83.59246,-99.83874" stroke="none"></path><path d="M541.85,406.92l-35.06,41.88l28.81,-46.47z" stroke="none"></path><path d="" stroke="#ff0000"></path><path d="M465.51315,505.88835l68.68282,-110.78413l-101.39181,32.60858l32.70899,78.17555" stroke="none"></path><path d="M466.38,494.99l-26.86,-64.19l83.27,-26.78z" stroke="none"></path><path d="M466.38,494.99l-8.73399,-20.87249l0.28399,-0.11751l0.59,-0.23l0.6,-0.22l0.6,-0.19l0.61,-0.17l0.61,-0.16l0.62,-0.13l0.62,-0.11l0.63,-0.1l0.63,-0.08l0.63,-0.05l0.63,-0.04l0.63,-0.01h0.63l0.63,0.03l0.64,0.04l0.62,0.07l0.63,0.08l0.62,0.1l0.63,0.13l0.61,0.14l0.61,0.16l0.61,0.19l0.6,0.2l0.59,0.22l0.59,0.24l0.57,0.25l0.57,0.28l0.56,0.29l0.56,0.31l0.54,0.33l0.53,0.34l0.52,0.36l0.5,0.38l0.0418,0.03344z" stroke="#ff0000"></path><path d="M418.57558,311.0321l-36.00158,55.4907l50.23016,61.19l-14.22858,-116.6807" stroke="none"></path><path d="M425.76,411.25l-37,-45.08l26.52,-40.87z" stroke="none"></path><path d="M415.28,325.3l2.88094,23.62757l-0.26094,0.01243l-0.63,0.01l-0.63,-0.01l-0.64,-0.03l-0.63,-0.05l-0.62,-0.07l-0.63,-0.09l-0.62,-0.11l-0.62,-0.13l-0.62,-0.15l-0.61,-0.17l-0.6,-0.19l-1.96,-0.64l-0.51,-0.18l-0.59,-0.22l-0.59,-0.24l-0.57,-0.26l-0.57,-0.28l-0.56,-0.29l-0.55,-0.32l-0.54,-0.33l-0.53,-0.35l-0.51,-0.36l-0.49589,-0.36949z" stroke="#ff0000"></path><path d="M432.80417,427.7128l-50.23016,-61.19l21.56262,83.83133l28.66754,-22.64133" stroke="none"></path><path d="M425.71,426.95l-18.64,14.72l-14.02,-54.5z" stroke="none"></path><path d="" stroke="#ff0000"></path><path d="M318.38206,486.01705l45.9095,77.36428l30.89802,-17.88903l-76.80752,-59.47525" stroke="none"></path><path d="M386.25,544.89l-20.18,11.69l-29.99,-50.54z" stroke="none"></path><path d="M386.25,544.89l-13.19443,7.64336l0.59443,-2.59336l1.02,-4.46v-0.01l1.03,-4.45v-0.04l0.83607,-3.61215z" stroke="#ff0000"></path><path d="M318.38206,486.01705l94.82592,44.61509l-9.07135,-80.278l-85.75457,35.66291" stroke="none"></path><path d="M407.24,522.3l-76.52,-36l69.2,-28.78z" stroke="none"></path><path d="M407.24,522.3l-23.92272,-11.25481l0.96272,-2.85519l0.17,-0.51l1.57,-4.29l0.17,-0.45l1.68,-4.25l0.16,-0.41l1.77,-4.21l0.16,-0.38l1.85,-4.18l0.2,-0.43l0.28,-0.57l1.79,-3.51l0.21,-0.41l0.31,-0.55l0.33,-0.54l0.34,-0.53l0.36,-0.52l0.38,-0.51l0.39,-0.5l0.41,-0.48l0.42,-0.47l0.44,-0.46l0.45,-0.44l0.47,-0.43l0.48,-0.41l0.49,-0.4l0.5,-0.38l0.52,-0.37l1.06,-0.68l0.44389,-0.25019z" stroke="#ff0000"></path><path d="M395.18958,545.49229l-30.89802,17.88903l78.7235,20.90385l-47.82549,-38.79288" stroke="none"></path><path d="M421.73,573.46l-44.47,-11.81l17.45,-10.1z" stroke="none"></path><path d="M394.71,551.55l-17.45,10.1l44.47,11.81z" stroke="#ff0000"></path><path d="M562.65039,424.65011l-13.54477,-18.60049l-83.59246,99.83874l97.13724,-81.23824" stroke="none"></path><path d="M555.86,423.81l-50.37,42.12l43.34,-51.76z" stroke="none"></path><path d="" stroke="#ff0000"></path><path d="M370.58217,633.40898l80.05537,-38.95163l-7.62248,-10.17218l-72.43289,49.1238" stroke="none"></path><path d="M443,592.61l-11.88,5.78l10.75,-7.29z" stroke="none"></path><path d="M441.87,591.1l-10.75,7.29l11.88,-5.78z" stroke="#ff0000"></path><path d="M443.01506,584.28517l7.62248,10.17218l37.05726,-27.74254l-44.67974,17.57037" stroke="none"></path><path d="M451.64,587.46l-0.69,-0.92l4.04,-1.59z" stroke="none"></path><path d="M454.99,584.95l-4.04,1.59l0.69,0.92z" stroke="#ff0000"></path><path d="M382.57401,366.5228l-64.19195,119.49425l85.75457,-35.66291l-21.56262,-83.83133" stroke="none"></path><path d="M398.21,447.41l-68.77,28.59l51.48,-95.83z" stroke="none"></path><path d="" stroke="#ff0000"></path><path d="M612.76397,488.63158l-50.11358,-63.98147l-97.13724,81.23824l147.25082,-17.25678" stroke="none"></path><path d="M603.34,484.71l-121.76,14.26l80.32,-67.17z" stroke="none"></path><path d="M481.58,498.97l6.41295,-5.36302l1.52705,3.58302l0.16,0.4l0.1652,0.41202z" stroke="#ff0000"></path><path d="M549.10562,406.04961l-18.06029,-60.97065l3.15065,50.02526l14.90964,10.94539" stroke="none"></path><path d="M540.09,393.23l-1.05,-0.77l-0.22,-3.52z" stroke="none"></path><path d="" stroke="#ff0000"></path><path d="M534.19598,395.10422l-3.15065,-50.02526l-98.24116,82.63384l101.39181,-32.60858" stroke="none"></path><path d="M528.97,391.53l-73.47,23.63l71.18,-59.88z" stroke="none"></path><path d="" stroke="#ff0000"></path><path d="M627.84079,309.90081l-96.79546,35.17815l18.06029,60.97065l78.73517,-96.1488" stroke="none"></path><path d="M551.22,395.58l-14.04,-47.41l75.25,-27.35z" stroke="none"></path><path d="" stroke="#ff0000"></path><path d="M531.04532,345.07896l-112.46974,-34.04686l14.22858,116.6807l98.24116,-82.63384" stroke="none"></path><path d="M520.77,347.19l-84.12,70.76l-12.18,-99.91z" stroke="none"></path><path d="M424.47,318.04l57.87047,17.51738l-3.18047,4.12262l-0.42,0.53l-0.42,0.48l-0.42,0.47l-2.59,2.75l-0.46,0.47l-0.45,0.44l-0.47,0.43l-0.48,0.41l-0.5,0.39l-0.51,0.38l-0.51,0.36l-0.53,0.35l-0.54,0.32l-0.55,0.31l-0.57,0.3l-0.56,0.27l-0.58,0.26l-0.59,0.24l-0.59,0.22l-0.6,0.2l-0.6,0.19l-0.62,0.16l-0.61,0.14l-0.62,0.13l-0.63,0.1l-0.62,0.09l-0.63,0.06l-0.63,0.05l-0.63,0.02l-0.64,0.01l-0.63,-0.01l-0.63,-0.04l-0.63,-0.05l-0.63,-0.08l-0.62,-0.09l-0.63,-0.12l-0.61,-0.13l-0.62,-0.15l-0.61,-0.18l-0.6,-0.19l-0.59,-0.21l-0.59,-0.23l-0.59,-0.25l-0.57,-0.26l-0.56,-0.29l-0.56,-0.3l-0.55,-0.32l-0.53,-0.33l-0.53,-0.36l-0.51,-0.37l-0.5,-0.38l-0.49,-0.4l-0.48,-0.42l-0.46,-0.43l-0.45,-0.45l-0.43,-0.46l-0.42,-0.47l-0.41,-0.48l-0.38,-0.5l-0.38,-0.51l-0.35,-0.53l-0.34,-0.53l-0.33,-0.54l-0.3,-0.56l-0.29,-0.56l-0.27,-0.57l-0.25,-0.58l-0.23,-0.59l-0.22,-0.6l-0.19,-0.6l-0.18,-0.6l-0.16,-0.62l-0.14,-0.61l-0.84,-4.08l-0.91,-3.83l-0.98,-3.48l-0.17,0.84l-0.54,3.25l-0.59,4.54l-0.05,0.41l-0.11,0.62l-0.12,0.62l-0.14,0.62l-0.17,0.61l-0.18,0.61l-0.2,0.6l-0.22,0.59l-0.24,0.59l-0.25,0.57l-0.28,0.57l-0.29,0.56l-0.31,0.56l-0.33,0.54l-0.34,0.53l-0.36,0.52l-0.38,0.5l-0.39,0.5l-0.41,0.48l-0.42,0.47l-0.44,0.46l-0.45,0.44l-0.47,0.43l-0.48,0.41l-0.49,0.4l-0.51,0.38l-0.51,0.36l-0.53,0.35l-0.18183,0.11449z" stroke="#ff0000"></path><path d="M227.66197,450.95719l54.6374,6.71978l-61.80048,-26.53148l7.16308,19.8117" stroke="none"></path><path d="M248.08,448.43l-16.77,-2.07l-2.19,-6.08z" stroke="none"></path><path d="M229.12,440.28l2.19,6.08l16.77,2.07z" stroke="#ff0000"></path><path d="M382.57401,366.5228l-100.27463,91.15417l36.08269,28.34008l64.19195,-119.49425" stroke="none"></path><path d="M316.8,478.41l-26.76,-21.01l74.35,-67.59z" stroke="none"></path><path d="" stroke="#ff0000"></path><path d="M303.94923,626.13925l66.63295,7.26973l-6.29061,-70.02765l-60.34233,62.75792" stroke="none"></path><path d="M365.05,627.78l-50.45,-5.51l45.69,-47.51z" stroke="none"></path><path d="M365.05,627.78l-13.18853,-1.44041l0.24853,-0.59959l1.54,-3.92l1.48,-3.96h0.01l1.42,-4.01l1.29,-3.78l1.33,-4.11l1.36,-4.36l1.24,-4.16l0.41581,-1.45186z" stroke="#ff0000"></path><path d="M643.088,610.27461l-30.32403,-121.64304l-125.06917,78.08323l155.3932,43.5598" stroke="none"></path><path d="M636.16,603.14l-136.21,-38.18l109.62,-68.45z" stroke="none"></path><path d="M499.95,564.96l6.87419,-4.29245l0.35581,1.52245h-0.01l1.02,4.32l0.1942,0.81413z" stroke="#ff0000"></path><path d="M487.6948,566.71481l125.06917,-78.08323l-147.25082,17.25678l22.18164,60.82645" stroke="none"></path><path d="M490.28,559.21l-17.91,-49.1l118.84,-13.92z" stroke="none"></path><path d="M490.28,559.21l-17.91,-49.1l21.15092,-2.47746l1.28908,3.73746l0.2,0.63l1.34,4.37l0.11,0.37l0.17,0.61l1.14,4.56l1.09,4.44l0.02,0.1l1.07,4.44l0.01,0.08l1.05,4.45l0.01,0.05l1.04,4.46l0.01,0.03l1.02,4.46v0.02l1.02,4.45l0.33846,1.47331z" stroke="#ff0000"></path><path d="M562.65039,424.65011l65.1904,-114.7493l-78.73517,96.1488l13.54477,18.60049" stroke="none"></path><path d="M562.13,415.44l-6.71,-9.21l38.99,-47.61z" stroke="none"></path><path d="" stroke="#ff0000"></path><path d="M463.70769,290.7843l-35.53278,7.5587l-9.59932,12.68909l45.13211,-20.2478" stroke="none"></path><path d="M418.57558,311.0321l-45.77495,-36.48193l9.77337,91.97263l36.00158,-55.4907" stroke="none"></path><path d="M411.91,312.11l-25.85,39.85l-7.03,-66.05z" stroke="none"></path><path d="M411.91,312.11l-15.6826,24.17607l-2.3174,-2.99607l-2.77,-3.59l-2.79,-3.6l-2.8,-3.61l-2.79,-3.58l-0.25187,-0.32138l-3.47813,-32.67862z" stroke="#ff0000"></path><path d="M303.94923,626.13925l60.34233,-62.75792l-45.9095,-77.36428l-14.43283,140.1222" stroke="none"></path><path d="M358.05,562.66l-47.64,49.55l11.4,-110.62z" stroke="none"></path><path d="" stroke="#ff0000"></path><path d="M364.29156,563.38133l6.29061,70.02765l72.43289,-49.1238l-78.7235,-20.90385" stroke="none"></path><path d="M431.13,586.31l-56.33,38.2l-4.89,-54.47z" stroke="none"></path><path d="M369.91,570.04l4.89,54.47l56.33,-38.2z" stroke="#ff0000"></path><path d="M531.04532,345.07896l-67.33763,-54.29466l-45.13211,20.2478l112.46974,34.04686" stroke="none"></path><path d="M507.92,332.85l-75.11,-22.73l30.15,-13.52z" stroke="none"></path><path d="M432.81,310.12l30.15,-13.52l30.50118,24.59225l-0.38118,0.48775l-4.19016,5.41104z" stroke="#ff0000"></path><path d="M531.04532,345.07896l-39.60229,-53.64485l-27.73535,-0.64981l67.33763,54.29466" stroke="none"></path><path d="M488.88,296.37l15.1,20.46l-25.68,-20.71z" stroke="none"></path><path d="M488.88,296.37l11.65372,15.7904l-0.91098,1.15562l-21.32274,-17.19603z" stroke="#ff0000"></path><path d="M612.76397,488.63158l16.85672,-44.23386l-66.97029,-19.74761l50.11358,63.98147" stroke="none"></path><path d="M623.03,447.66l-11.79,30.92l-35.02,-44.71z" stroke="none"></path><path d="M623.03,447.66l-5.03548,13.20586l-1.80452,-0.95586l-0.3,-0.17l-0.55,-0.31l-0.54,-0.34l-0.52,-0.34l-3.77,-2.59l-0.66,-0.47l-0.5,-0.39l-0.49,-0.4l-3.48,-2.96l-0.66,-0.59l-0.46,-0.44l-0.44,-0.45l-3.14,-3.31l-0.41,-0.45l-0.41,-0.48l-0.4,-0.49l-0.38,-0.51l-0.37,-0.51l-0.35,-0.53l-0.33,-0.54l-0.32,-0.55l-0.3,-0.55l-0.28,-0.57l-1.06934,-2.25504z" stroke="#ff0000"></path><path d="M507.15136,210.68647l-34.37499,26.89705l18.66666,53.85059l15.70832,-80.74764" stroke="none"></path><path d="M490.08,272.25l-11.41,-32.93l21.01,-16.45z" stroke="none"></path><path d="M499.68,222.87l-21.01,16.45l11.41,32.93z" stroke="#ff0000"></path><path d="M645.33151,487.40153l-12.85762,-9.69756l-19.70992,10.9276l32.56754,-1.23005" stroke="none"></path><path d="M612.76397,488.63158l19.70992,-10.9276l-2.85321,-33.30625l-16.85672,44.23386" stroke="none"></path><path d="M627.21,474.9l-4.9,2.72l4.19,-11z" stroke="none"></path><path d="" stroke="#ff0000"></path><path d="M370.58217,633.40898l145.94948,19.76955l-65.89411,-58.72117l-80.05537,38.95163" stroke="none"></path><path d="M500.99,646.02l-113.34,-15.35l62.16,-30.25z" stroke="none"></path><path d="M449.81,600.42l-62.16,30.25l113.34,15.35z" stroke="#ff0000"></path><path d="M450.63754,594.45735l65.89411,58.72117l-28.83686,-86.46372l-37.05726,27.74254" stroke="none"></path><path d="M505.86,636.97l-47.33,-42.18l26.61,-19.92z" stroke="none"></path><path d="M485.14,574.87l-26.61,19.92l47.33,42.18z" stroke="#ff0000"></path><path d="M643.088,610.27461l2.24352,-122.87308l-32.56754,1.23005l30.32403,121.64304" stroke="none"></path><path d="M638.78,572.32l-19.67,-78.92l21.12,-0.8z" stroke="none"></path><path d="" stroke="#ff0000"></path><path d="M632.47389,477.70397l45.21418,-38.4016l-48.06738,5.09535l2.85321,33.30625" stroke="none"></path><path d="M636.63,467.61l-1.61,-18.76l27.08,-2.87z" stroke="none"></path><path d="M662.1,445.98l-27.08,2.87l1.61,18.76z" stroke="#ff0000"></path><path d="M472.77638,237.58353l-44.60147,60.75948l35.53278,-7.5587l9.06869,-53.20078" stroke="none"></path><path d="M459.35,286.6l-19.37,4.12l24.32,-33.13z" stroke="none"></path><path d="M464.3,257.59l-24.32,33.13l19.37,-4.12z" stroke="#ff0000"></path><path d="M380.15504,228.54366l-7.3544,46.0065l20.26331,-55.83054l-12.90891,9.82404" stroke="none"></path><path d="M428.17491,298.34301l-55.37427,-23.79284l45.77495,36.48193l9.59932,-12.68909" stroke="none"></path><path d="M420.34,300.42l-2.65,3.51l-12.66,-10.09z" stroke="none"></path><path d="M405.03,293.84l12.66,10.09l2.65,-3.51z" stroke="#ff0000"></path><path d="M150.15836,526.41759l153.79086,99.72166l14.43283,-140.1222l-168.22369,40.40054" stroke="none"></path><path d="M299.82,617.5l-137.16,-88.94l150.03,-36.03z" stroke="none"></path><path d="" stroke="#ff0000"></path><path d="M370.58217,633.40898l-52.88721,73.28631l198.83669,-53.51677l-145.94948,-19.76955" stroke="none"></path><path d="M491.27,654.8l-161.29,43.41l42.9,-59.45z" stroke="none"></path><path d="M372.88,638.76l-42.9,59.45l161.29,-43.41z" stroke="#ff0000"></path><path d="M272.71479,331.21761l9.58458,126.45936l100.27463,-91.15417l-109.85922,-35.30519" stroke="none"></path><path d="M372.81,368.64l-86.29,78.45l-8.26,-108.84z" stroke="none"></path><path d="" stroke="#ff0000"></path><path d="M282.29937,457.67697l-54.6374,-6.71978l90.72009,35.05986l-36.08269,-28.34008" stroke="none"></path><path d="M280.3,462.47l8.7,6.83l-21.87,-8.45z" stroke="none"></path><path d="" stroke="#ff0000"></path><path d="M296.13061,289.0742l-23.41582,42.1434l109.85922,35.30519l-86.44339,-77.4486" stroke="none"></path><path d="M361.75,354.58l-81.7,-26.25l17.41,-31.35z" stroke="none"></path><path d="" stroke="#ff0000"></path><path d="M272.71479,331.21761l-52.2159,99.92788l61.80048,26.53148l-9.58458,-126.45936" stroke="none"></path><path d="M276.69,449.82l-49.26,-21.14l41.62,-79.65z" stroke="none"></path><path d="M227.43,428.68l11.60751,-22.21379l0.61249,-0.09621l0.68,-0.09l4.54,-0.56l0.91,-0.09l4.56,-0.34l0.76,-0.05l0.63,-0.01l4.57,-0.03l0.81,0.01l0.64,0.03l0.63,0.06l0.63,0.07l4.52,0.59l0.54,0.08l0.62,0.1l0.62,0.13l0.62,0.15l0.61,0.17l0.6,0.18l0.6,0.21l0.59,0.22l0.58,0.25l0.58,0.26l0.57,0.28l0.56,0.29l0.55,0.32l0.53,0.33l0.53,0.35l1.46277,0.99936l2.85345,37.6439l-1.02623,1.17674l-0.13996,0.15783z" stroke="#ff0000"></path><path d="M372.80064,274.55017l-76.67003,14.52404l86.44339,77.4486l-9.77337,-91.97263" stroke="none"></path><path d="M376.23,354.12l-69.22,-62.02l61.39,-11.63z" stroke="none"></path><path d="M368.4,280.47l2.48747,23.39745l-2.08747,-2.60745l-2.81,-3.49l-2.89,-3.55l-2.84,-3.46l-2.86,-3.45l-2.87,-3.42l0.01,-0.01l-0.57565,-0.67524z" stroke="#ff0000"></path><path d="M552.56018,223.5831l-61.11715,67.85101l39.60229,53.64485l21.51486,-121.49586" stroke="none"></path><path d="M528.15,332.74l-30.26,-41l46.71,-51.84z" stroke="none"></path><path d="M497.89,291.74l46.71,-51.84l-4.40218,24.84487l-1.55782,1.71513l-2.95,3.29l-2.93,3.32l-2.91,3.35l-2.9,3.37l-2.88,3.39l-2.87,3.41l-2.85,3.44l-2.84,3.45l-2.83,3.47l-2.82,3.49l-2.81,3.51l-0.07712,0.09661z" stroke="#ff0000"></path><path d="M491.44304,291.43411l-18.66666,-53.85059l-9.06869,53.20078l27.73535,0.64981" stroke="none"></path><path d="M484.36,286.27l-14.75,-0.34l4.82,-28.3z" stroke="none"></path><path d="M474.43,257.63l-4.82,28.3l14.75,0.34z" stroke="#ff0000"></path><path d="M372.80064,274.55017l-60.38196,-1.48603l-16.28807,16.01007l76.67003,-14.52404" stroke="none"></path><path d="M325.67,278.39l-14.29,2.71l3.03,-2.99z" stroke="none"></path><path d="" stroke="#ff0000"></path><path d="M380.15504,228.54366l-67.73636,44.52047l60.38196,1.48603l7.3544,-46.0065" stroke="none"></path><path d="M368.55,269.44l-40.03,-0.98l44.91,-29.52z" stroke="none"></path><path d="M368.55,269.44l-27.11349,-0.66378l-1.47651,-1.65622l-2.97,-3.28l-0.54323,-0.59038l36.98323,-24.30962z" stroke="#ff0000"></path><path d="M645.33151,487.40153l32.35656,-48.09916l-45.21418,38.4016l12.85762,9.69756" stroke="none"></path><path d="M644.13,480.23l-3.66,-2.76l12.87,-10.93z" stroke="none"></path><path d="M653.34,466.54l-3.26073,4.84684l-1.94353,-0.42705z" stroke="#ff0000"></path><path d="M629.62069,444.39772l-1.7799,-134.49691l-65.1904,114.7493l66.97029,19.74761" stroke="none"></path><path d="M624.53,437.68l-54.41,-16.04l52.96,-93.24z" stroke="none"></path><path d="M624.53,437.68l-31.24096,-9.2098l0.00096,-0.0302l0.04,-0.63l0.06,-0.63l0.08,-0.63l0.09,-0.62l0.12,-0.62l0.14,-0.62l0.15,-0.61l0.18,-0.61l0.2,-0.6l0.21,-0.6l0.23,-0.59l0.25,-0.58l0.27,-0.57l0.29,-0.56l0.3,-0.56l0.66,-1.08l0.36,-0.52l0.37,-0.51l0.39,-0.5l0.41,-0.49l2.75,-3.22l0.59,-0.65l0.44,-0.45l0.45,-0.45l0.47,-0.42l0.48,-0.41l0.49,-0.4l0.51,-0.38l0.52,-0.36l0.53,-0.35l0.54,-0.33l0.54,-0.31l0.56,-0.3l0.57,-0.28l0.58,-0.26l0.58,-0.24l0.6,-0.22l0.59,-0.2l0.61,-0.19l0.61,-0.16l0.61,-0.15l0.62,-0.13l4.48,-0.84l0.84,-0.14l0.63,-0.08l0.63,-0.06l0.63,-0.04l0.63,-0.02l3.92905,-0.06878z" stroke="#ff0000"></path><path d="M677.68807,439.30237l-49.84728,-129.40156l1.7799,134.49691l48.06738,-5.09535" stroke="none"></path><path d="M670.68,435.02l-36.13,3.83l-1.34,-101.09z" stroke="none"></path><path d="M670.68,435.02l-36.13,3.83l-0.43741,-32.99863l2.30741,0.25863l0.72,0.1l4.52,0.67l0.6,0.1l4.5,0.82l0.57,0.11l4.47,0.94l0.65,0.15l4.44,1.1l0.88,0.23l3.83674,1.13876z" stroke="#ff0000"></path><path d="M516.53165,653.17852l126.55635,-42.90391l-155.3932,-43.5598l28.83686,86.46372" stroke="none"></path><path d="M626.18,610.73l-106.5,36.1l-24.26,-72.76z" stroke="none"></path><path d="M519.68,646.83l-24.26,-72.76l15.68899,4.39858l0.29101,1.16142h-0.01l1.11,4.3l1.09,4.11l1.16,4.23l1.19,4.19l1.23,4.17l1.27,4.13l1.4,4.35l1.28,3.8l1.41,4.01l1.57,4.24l1.56,3.99l1.57,3.82l1.7,3.93l1.55,3.4l1.93,3.99l0.96565,1.89762z" stroke="#ff0000"></path><path d="M645.33151,487.40153l68.52142,-9.91031l-36.16486,-38.18884l-32.35656,48.09916" stroke="none"></path><path d="M703.58,473.92l-47.81,6.92l22.58,-33.57z" stroke="none"></path><path d="M703.58,473.92l-28.48216,4.1225l-3.56784,-1.2825l-3.64,-1.17l-3.65,-1.01l-3.66653,-0.88138l17.77653,-26.42862z" stroke="#ff0000"></path><path d="M393.06395,218.71963l-20.26331,55.83054l55.37427,23.79284l-35.11096,-79.62338" stroke="none"></path><path d="M418.47,288.73l-39.36,-16.91l14.4,-39.69z" stroke="none"></path><path d="M393.51,232.13l-14.4,39.69l39.36,16.91z" stroke="#ff0000"></path><path d="M232.77069,704.10727l56.06637,-33.56397l-128.00896,0.34079l71.94259,33.22317" stroke="none"></path><path d="M232.47,698.46l-49.02,-22.64l87.22,-0.23z" stroke="none"></path><path d="M232.47,698.46l-24.83004,-11.46781l1.19004,-0.36219l0.75,-0.21l0.62,-0.15l4.45,-1.03l0.37,-0.08l0.63,-0.12l0.62,-0.1l4.52,-0.65l0.61,-0.08l0.63,-0.06l0.63,-0.04l4.57,-0.23l0.8,-0.02h0.64l0.63,0.03l4.56,0.25l0.94,0.07l0.63,0.08l0.63,0.09l0.62,0.11l4.48,0.9l0.69,0.15l0.61,0.15l0.61,0.18l4.37,1.33l0.75,0.24l0.59,0.22l1.05602,0.40312z" stroke="#ff0000"></path><path d="M303.94923,626.13925l-15.11217,44.40406l81.74512,-37.13433l-66.63295,-7.26973" stroke="none"></path><path d="M351.91,636.4l-54.62,24.81l10.1,-29.67z" stroke="none"></path><path d="M351.91,636.4l-5.68315,2.58145l0.88315,-1.80145l0.57128,-1.24163z" stroke="#ff0000"></path><path d="M150.15836,526.41759l168.22369,-40.40054l-90.72009,-35.05986l-77.50361,75.4604" stroke="none"></path><path d="M301.63,484.9l-134.95,32.41l62.17,-60.53z" stroke="none"></path><path d="M228.85,456.78l21.64952,8.36472l-2.72952,1.00528l-0.99,0.33l-4.36,1.34l-0.73,0.22l-4.42,1.18l-0.51,0.12l-4.44,1.07l-0.32,0.07l-4.46,0.99l-0.12,0.03l-4.39,0.94v0.01l-4.46,0.98l-3.75,0.89l-3.94,1.05l-1.65524,0.51754z" stroke="#ff0000"></path><path d="M472.77638,237.58353l-79.71243,-18.8639l35.11096,79.62338l44.60147,-60.75948" stroke="none"></path><path d="M464.28,240.71l-35.02,47.7l-27.56,-62.5z" stroke="none"></path><path d="M401.7,225.91l27.56,62.5l35.02,-47.7z" stroke="#ff0000"></path><path d="M380.15504,228.54366l-71.04408,-19.36644l3.30772,63.88691l67.73636,-44.52047" stroke="none"></path><path d="M368.15,230.46l-51.19,33.64l-2.5,-48.28z" stroke="none"></path><path d="M368.15,230.46l-38.62015,25.3796l-1.44985,-1.5196l-3.18,-3.28l0.01,-0.01l-3.09,-3.11l-3.1,-3.08l-2.90308,-2.81511l-1.35692,-26.20489z" stroke="#ff0000"></path><path d="M716.6535,346.6028l-72.82482,-45.41743l-15.98789,8.71545l88.81272,36.70199" stroke="none"></path><path d="M662.92,318.99l-23.49,-9.71l4.23,-2.3z" stroke="none"></path><path d="" stroke="#ff0000"></path><path d="M552.56018,223.5831l-45.40882,-12.89662l-15.70832,80.74764l61.11715,-67.85101" stroke="none"></path><path d="M543.48,226.2l-43.69,48.5l11.23,-57.72z" stroke="none"></path><path d="M511.02,216.98l-11.23,57.72l43.69,-48.5z" stroke="#ff0000"></path><path d="M552.56018,223.5831l-21.51486,121.49586l96.79546,-35.17815l-75.2806,-86.31771" stroke="none"></path><path d="M619.27,307.69l-81.79,29.73l18.18,-102.68z" stroke="none"></path><path d="M555.66,234.74l6.43336,7.37799l-2.23336,2.16201l-3.1,3.06l-2.95,2.96l0.01,0.01l-1.12028,1.14957z" stroke="#ff0000"></path><path d="M472.77638,237.58353l41.40794,-55.51522l-121.12037,36.65132l79.71243,18.8639" stroke="none"></path><path d="M470.73,231.96l-58.44,-13.83l88.81,-26.88z" stroke="none"></path><path d="M501.1,191.25l-88.81,26.88l58.44,13.83z" stroke="#ff0000"></path><path d="M288.83706,670.54331l28.85791,36.15198l52.88721,-73.28631l-81.74512,37.13433" stroke="none"></path><path d="M317.49,698.43l-20.74,-25.98l58.76,-26.7z" stroke="none"></path><path d="M317.49,698.43l-8.42372,-10.55199l2.20372,-1.95801l2.53,-2.40808l2.85,-2.90192l3.14,-3.31l0.02,-0.02l2.97,-3.13l2.52,-2.83l2.61,-3.12l2.46,-3.13068l2.31,-3.10932l2.16,-3.11l2.24,-3.42l1.12208,-1.81544l17.30792,-7.86456z" stroke="#ff0000"></path><path d="M641.21272,224.76237l-88.65253,-1.17927l75.2806,86.31771l13.37193,-85.13844" stroke="none"></path><path d="M635.38,229.68l-10.82,68.85l-60.88,-69.8z" stroke="none"></path><path d="M563.68,228.73l12.87381,0.17057l-0.79381,0.67943l-3.24,2.85l-3.1349,2.841z" stroke="#ff0000"></path><path d="M678.36919,609.0163l35.48374,-131.52509l-68.52142,9.91031l33.03768,121.61477" stroke="none"></path><path d="M678.35,589.89l-26.71,-98.35l55.41,-8.01z" stroke="none"></path><path d="M707.05,483.53l-3.15836,11.70462l-2.69164,-2.24462l-2.91,-2.26l-3.21,-2.28l-3.03,-1.98l-1.03284,-0.62231z" stroke="#ff0000"></path><path d="M677.68807,439.30237l38.96543,-92.69958l-88.81272,-36.70199l49.84728,129.40156" stroke="none"></path><path d="M710.09,349.3l-32.2,76.62l-41.19,-106.95z" stroke="none"></path><path d="M677.89,425.92l-3.79962,-9.86573l2.80962,1.15573l0.21,0.09l3.73519,1.58812z" stroke="#ff0000"></path><path d="M643.088,610.27461l35.2812,-1.25831l-33.03768,-121.61477l-2.24352,122.87308" stroke="none"></path><path d="M671.89,604.25l-23.7,0.84l1.5,-82.57z" stroke="none"></path><path d="" stroke="#ff0000"></path><path d="M705.45468,657.96464l-27.08549,-48.94834l-35.2812,1.25831l62.36668,47.69003" stroke="none"></path><path d="M689.5,639.47l-32.29,-24.7l18.26,-0.65z" stroke="none"></path><path d="" stroke="#ff0000"></path><path d="M317.69497,706.69529l261.32889,10.97943l-62.49221,-64.49619l-198.83669,53.51677" stroke="none"></path><path d="M566.71,712.15l-216.3,-9.08l164.58,-44.3z" stroke="none"></path><path d="M514.99,658.77l-164.58,44.3l216.3,9.08z" stroke="#ff0000"></path><path d="M516.53165,653.17852l62.49221,64.49619l64.06414,-107.40011l-126.55635,42.90391" stroke="none"></path><path d="M578.07,709.51l-52.45,-54.14l106.22,-36z" stroke="none"></path><path d="M578.07,709.51l-52.45,-54.14l12.63797,-4.28325l1.93203,3.18325l2.14,3.34l2.39,3.49l2.48,3.4l2.26,2.92l2.72,3.3l2.5,2.83378l2.73,2.91622l3.07,3.22l2.81,2.92l2.98,2.88l2.7,2.43l2.96,2.47l2.86,2.17l3,2.06l2.77,1.67l2.84,1.49l1.32706,0.57011z" stroke="#ff0000"></path><path d="M334.37557,154.38152l45.77947,74.16214l12.90891,-9.82404l-58.68838,-64.33811" stroke="none"></path><path d="M385.69,218.05l-4.18,3.18l-14.8,-23.98z" stroke="none"></path><path d="M366.71,197.25l14.8,23.98l4.18,-3.18z" stroke="#ff0000"></path><path d="M334.37557,154.38152l-25.26461,54.79571l71.04408,19.36644l-45.77947,-74.16214" stroke="none"></path><path d="M369.24,220.39l-53.11,-14.49l18.89,-40.96z" stroke="none"></path><path d="M335.02,164.94l-18.89,40.96l53.11,14.49z" stroke="#ff0000"></path><path d="M312.41868,273.06414l-52.11253,-53.47368l35.82446,69.48374l16.28807,-16.01007" stroke="none"></path><path d="M305.37,272.99l-7.91,7.77l-17.38,-33.72z" stroke="none"></path><path d="" stroke="#ff0000"></path><path d="M170.59192,329.49766l49.90697,101.64783l52.2159,-99.92788l-102.12287,-1.71995" stroke="none"></path><path d="M264.53,336.08l-43.89,84l-41.95,-85.44z" stroke="none"></path><path d="M220.64,420.08l-4.22431,-8.60369l2.56431,-0.78631l0.3,-0.09l0.61,-0.17l4.42,-1.14l0.71,-0.17l1.51924,-0.33042z" stroke="#ff0000"></path><path d="M133.97403,448.62809l93.68794,2.3291l-7.16308,-19.8117l-86.52486,17.4826" stroke="none"></path><path d="M220.47,445.78l-41.97,-1.05l38.77,-7.83z" stroke="none"></path><path d="M217.27,436.9l-38.77,7.83l41.97,1.05z" stroke="#ff0000"></path><path d="M157.58515,374.98301l62.91374,56.16248l-49.90697,-101.64783l-13.00677,45.48535" stroke="none"></path><path d="M204.72,410.36l-41.47,-37.02l8.58,-29.98z" stroke="none"></path><path d="" stroke="#ff0000"></path><path d="M133.97403,448.62809l14.56511,44.0012l79.12283,-41.67209l-93.68794,-2.3291" stroke="none"></path><path d="M208.34,455.48l-56.91,29.98l-10.48,-31.65z" stroke="none"></path><path d="M140.95,453.81l10.48,31.65l56.91,-29.98z" stroke="#ff0000"></path><path d="M552.56018,223.5831l-38.37586,-41.51479l-7.03296,28.61816l45.40882,12.89662" stroke="none"></path><path d="M536.81,213.91l-23.65,-6.71l3.66,-14.91z" stroke="none"></path><path d="M516.82,192.29l-3.66,14.91l23.65,6.71z" stroke="#ff0000"></path><path d="M507.15136,210.68647l7.03296,-28.61816l-41.40794,55.51522l34.37499,-26.89705" stroke="none"></path><path d="M502.71,207.81l-3.59,2.82l4.33,-5.81z" stroke="none"></path><path d="M503.45,204.82l-4.33,5.81l3.59,-2.82z" stroke="#ff0000"></path><path d="M523.11988,161.66218l-8.93556,20.40613l38.37586,41.51479l-29.4403,-61.92091" stroke="none"></path><path d="M533.94,196.07l-13.86,-15l3.22,-7.37z" stroke="none"></path><path d="M523.3,173.7l-3.22,7.37l13.86,15z" stroke="#ff0000"></path><path d="M148.53914,492.62928l1.61922,33.7883l77.50361,-75.4604l-79.12283,41.67209" stroke="none"></path><path d="M154.62,515.1l-0.94,-19.53l45.72,-24.08z" stroke="none"></path><path d="M154.62,515.1l-0.94,-19.53l45.72,-24.08l-20.12041,19.59471l-1.98959,1.51529l-2.9,2.39l-2.66,2.36l-2.83,2.74l-2.76,2.85l-2.42,2.72l-2.44561,2.95948z" stroke="#ff0000"></path><path d="M288.83706,670.54331l-56.06637,33.56397l84.92428,2.58802l-28.85791,-36.15198" stroke="none"></path><path d="M307.05,701.37l-57.06,-1.74l37.67,-22.55z" stroke="none"></path><path d="M307.05,701.37l-57.06,-1.74l11.19142,-6.6994l1.54858,0.7294l0.07,0.04l4.13,1.96l3.57,1.62l3.22,1.31l2.84,0.96l2.61,0.63l2.6,0.35l2.4,0.11l2.14,-0.17l2.35,-0.48l2.61,-0.8l2.63,-1.08l2.82,-1.42l2.91,-1.71l1.51356,-1.00904z" stroke="#ff0000"></path><path d="M170.59192,329.49766l102.12287,1.71995l-12.40863,-111.62715l-89.71424,109.9072" stroke="none"></path><path d="M267.12,326.12l-86.13,-1.45l75.67,-92.7z" stroke="none"></path><path d="" stroke="#ff0000"></path><path d="M757.21893,431.72789l-40.56543,-85.12509l-38.96543,92.69958l79.53086,-7.57449" stroke="none"></path><path d="M749.63,427.43l-64.09,6.1l31.4,-74.71z" stroke="none"></path><path d="M749.63,427.43l-13.43986,1.27919l0.27986,-0.35919l1.14,-1.87l1,-2.17l0.81,-2.41975l0.65,-2.81025l0.49,-3.08l0.34,-3.55l0.14182,-3.04493zM685.54,433.53l4.49526,-10.69557l3.84474,1.62557v0.01l3.73,1.52l3.89,1.52l3.98,1.46l3.92,1.32l2.46617,0.73431z" stroke="#ff0000"></path><path d="M643.82868,301.18537l-2.61596,-76.423l-13.37193,85.13844l15.98789,-8.71545" stroke="none"></path><path d="M638.72,298.28l-4.37,2.38l3.66,-23.29z" stroke="none"></path><path d="" stroke="#ff0000"></path><path d="M157.58515,374.98301l-11.25482,27.54548l74.16856,28.617l-62.91374,-56.16248" stroke="none"></path><path d="M196.7,416.6l-43.81,-16.9l6.65,-16.28z" stroke="none"></path><path d="" stroke="#ff0000"></path><path d="M260.30616,219.59046l12.40863,111.62715l23.41582,-42.1434l-35.82446,-69.48374" stroke="none"></path><path d="M290.46,288.99l-14.51,26.11l-7.68,-69.15z" stroke="none"></path><path d="" stroke="#ff0000"></path><path d="M157.58515,374.98301l-37.26747,-12.28672l26.01265,39.83221l11.25482,-27.54548" stroke="none"></path><path d="M150.93,378.05l-5.62,13.76l-13,-19.9z" stroke="none"></path><path d="M132.31,371.91l7.10424,2.34265l-0.40424,4.08735l-0.01,0.1l-0.33705,3.19491z" stroke="#ff0000"></path><path d="M146.33033,402.52849l-12.3563,46.09959l86.52486,-17.4826l-74.16856,-28.617" stroke="none"></path><path d="M202.7,429.64l-61.81,12.49l8.83,-32.94z" stroke="none"></path><path d="M202.7,429.64l-61.81,12.49l2.97926,-11.11402l0.99074,0.75402l1.2,0.65l1.46,0.51l1.89,0.37l2.28,0.16l2.71,-0.09l3.09,-0.36l3.18,-0.58l3.51,-0.85l3.71,-1.07l3.84,-1.26l3.81,-1.37l3.94,-1.53l3.69,-1.5l3.41245,-1.43129z" stroke="#ff0000"></path><path d="M148.53914,492.62928l-30.17507,84.1708l31.79429,-50.3825l-1.61922,-33.7883" stroke="none"></path><path d="M145.08,525.09l-6.64,10.52l6.31,-17.57z" stroke="none"></path><path d="M144.75,518.04l-6.31,17.57l6.64,-10.52z" stroke="#ff0000"></path><path d="M309.11096,209.17723l-48.8048,10.41323l52.11253,53.47368l-3.30772,-63.88691" stroke="none"></path><path d="M306.74,260.07l-36.53,-37.48l34.21,-7.3z" stroke="none"></path><path d="M304.42,215.29l0.88001,16.98565l-2.49001,-2.20565l-3.26,-2.81l-3.3,-2.77l-3.09,-2.53l-0.01,0.01l-3.58,-2.84l-0.68464,-0.5251z" stroke="#ff0000"></path><path d="M579.02386,717.67472l75.76725,-18.73338l-11.70311,-88.66673l-64.06414,107.40011" stroke="none"></path><path d="M649.24,695.16l-59.78,14.78l50.55,-84.75z" stroke="none"></path><path d="M649.24,695.16l-59.78,14.78l5.57231,-9.3423l0.58769,-0.0077l2.61,-0.3l2.49,-0.54l2.84,-0.89l3.24,-1.27l3.74,-1.68l3.73,-1.77l4.11,-1.95l0.38,-0.18l4.17,-1.87l0.79,-0.33l4.24,-1.69l0.63,-0.24l0.6,-0.21l4.35,-1.41l0.47,-0.15l0.61,-0.17l0.61,-0.15l4.45,-1.02l0.32,-0.07l0.62,-0.13l0.62,-0.1l0.63,-0.08l0.63,-0.06l4.55,-0.39l0.70488,-0.03831z" stroke="#ff0000"></path><path d="M758.13,555.10396l-0.91107,-123.37607l-43.366,45.76333l44.27706,77.61274" stroke="none"></path><path d="M752.99,536.01l-32.95,-57.78l32.27,-34.05z" stroke="none"></path><path d="M752.31,444.18l-32.27,34.05l32.95,57.78z" stroke="#ff0000"></path><path d="M213.7206,704.94753l19.05009,-0.84026l-71.94259,-33.22317l52.8925,34.06343" stroke="none"></path><path d="M149.40891,738.35417l590.93924,-5.70087l-161.32428,-14.97858l-429.61495,20.67945" stroke="none"></path><path d="M642.56,728.59l-233.04,2.25l169.42,-8.15z" stroke="none"></path><path d="M578.94,722.69l-169.42,8.15l233.04,-2.25z" stroke="#ff0000"></path><path d="M768.49592,272.01924l-127.2832,-47.25687l2.61596,76.423l124.66724,-29.16613" stroke="none"></path><path d="M751.2,270.93l-102.58,24l-2.15,-62.88z" stroke="none"></path><path d="" stroke="#ff0000"></path><path d="M713.85293,477.49122l43.366,-45.76333l-79.53086,7.57449l36.16486,38.18884" stroke="none"></path><path d="M713.85,470.22l-25.48,-26.91l56.04,-5.34z" stroke="none"></path><path d="M744.41,437.97l-56.04,5.34l25.48,26.91z" stroke="#ff0000"></path><path d="M758.13,555.10396l-44.27706,-77.61274l-35.48374,131.52509l79.7608,-53.91234" stroke="none"></path><path d="M751.49,553.55l-64.79,43.8l28.82,-106.85z" stroke="none"></path><path d="M751.49,553.55l-12.58954,8.51091l-0.53046,-3.84091l-0.69,-3.93l-0.78,-3.68748l-0.96,-3.80252l-1.09,-3.78l-1.17,-3.57l-1.27,-3.42l-1.54,-3.78l-1.6,-3.51341l-1.68,-3.37659l-1.77,-3.26l-2,-3.4l-2,-3.1l-2.24,-3.22787l-2.29,-3.04213l-2.4,-2.97l-2.53,-2.87l-0.26745,-0.28276l3.42745,-12.70724z" stroke="#ff0000"></path><path d="M627.3466,171.68217l-104.22672,-10.01999l29.4403,61.92091l74.78641,-51.90092" stroke="none"></path><path d="M613.29,175.35l-58.74,40.77l-23.12,-48.64z" stroke="none"></path><path d="M531.43,167.48l23.12,48.64l58.74,-40.77z" stroke="#ff0000"></path><path d="M514.18432,182.06831l8.93556,-20.40613l-130.05593,57.05744l121.12037,-36.65132" stroke="none"></path><path d="M510.52,177.95l-38.95,11.79l41.83,-18.35z" stroke="none"></path><path d="M513.4,171.39l-41.83,18.35l38.95,-11.79z" stroke="#ff0000"></path><path d="M309.11096,209.17723l-77.93385,-47.23771l29.12905,57.65095l48.8048,-10.41323" stroke="none"></path><path d="M295.74,206.92l-32.71,6.98l-19.52,-38.64z" stroke="none"></path><path d="M295.74,206.92l-17.63776,3.76373l-1.97224,-1.37373l-3.5,-2.34l-3.73,-2.39l-3.36,-2.07l-3.81,-2.24l-3.41,-1.92l-4.02,-2.16l-0.29473,-0.15453l-10.49527,-20.77547z" stroke="#ff0000"></path><path d="M654.79111,698.94134l50.66357,-40.9767l-62.36668,-47.69003l11.70311,88.66673" stroke="none"></path><path d="M697.37,658.08l-38.79,31.36l-8.95,-67.87z" stroke="none"></path><path d="M658.58,689.44l-0.66318,-5.02903l2.34318,0.28903l0.43,0.06l0.63,0.1l0.62,0.12l1.7115,0.35991z" stroke="#ff0000"></path><path d="M579.02386,717.67472l87.65783,-10.91988l-11.89058,-7.8135l-75.76725,18.73338" stroke="none"></path><path d="M654.79111,698.94134l42.66404,-9.85297l7.99953,-31.12373l-50.66357,40.9767" stroke="none"></path><path d="M693.36,684.9l-18.56,4.29l22.05,-17.83z" stroke="none"></path><path d="M674.8,689.19l0.66287,-0.536l0.65216,0.23205z" stroke="#ff0000"></path><path d="M740.84924,643.16101l17.28075,-88.05705l-79.7608,53.91234l62.48005,34.14471" stroke="none"></path><path d="M737.26,635.49l-49.29,-26.93l62.91,-42.52z" stroke="none"></path><path d="M737.26,635.49l-12.04369,-6.58017l0.99369,-2.23983l0.06,-0.14l1.89,-4.16l1.82,-4.04l1.76,-3.95l1.59,-3.71l1.18,-3.2l1.11,-3.67l0.89,-3.36l0.93,-4.12l0.7,-3.65l0.58,-3.9l0.44,-3.83l0.3,-3.85026l0.16,-3.65974l0.02863,-3.79888l11.23137,-7.59112z" stroke="#ff0000"></path><path d="M160.8281,670.8841l128.00896,-0.34079l15.11217,-44.40406l-143.12113,44.74485" stroke="none"></path><path d="M285.25,665.55l-91.37,0.24l102.17,-31.94z" stroke="none"></path><path d="" stroke="#ff0000"></path><path d="M232.77069,704.10727l-83.36178,34.24689l168.28606,-31.65888l-84.92428,-2.58802" stroke="none"></path><path d="M271.55,710.29l-75.02,14.11l37.16,-15.27z" stroke="none"></path><path d="M233.69,709.13l-37.16,15.27l75.02,-14.11z" stroke="#ff0000"></path><path d="M523.11988,161.66218l-188.74431,-7.28066l58.68838,64.33811l130.05593,-57.05744" stroke="none"></path><path d="M501.19,165.82l-106.85,46.88l-48.21,-52.86z" stroke="none"></path><path d="M346.13,159.84l48.21,52.86l106.85,-46.88z" stroke="#ff0000"></path><path d="M666.68169,706.75484l30.77347,-17.66647l-42.66404,9.85297l11.89058,7.8135" stroke="none"></path><path d="M705.45468,657.96464l35.39456,-14.80363l-62.48005,-34.14471l27.08549,48.94834" stroke="none"></path><path d="M729.33,642.56l-21.67,9.06l-16.59,-29.96z" stroke="none"></path><path d="M729.33,642.56l-11.31736,4.73167l0.53736,-1.68167l0.25,-0.73l1.56,-4.29l0.22,-0.59l0.72658,-1.82289z" stroke="#ff0000"></path><path d="M170.59192,329.49766l-50.27424,33.19862l37.26747,12.28672l13.00677,-45.48535" stroke="none"></path><path d="M154.21,368.6l-22.52,-7.42l30.37,-20.06z" stroke="none"></path><path d="M131.69,361.18l9.08884,-6.00336l-0.17884,3.88336l-0.02,0.41l-0.30847,4.53748z" stroke="#ff0000"></path><path d="M146.33033,402.52849l-26.01265,-39.83221l13.65635,85.9318l12.3563,-46.09959" stroke="none"></path><path d="M140.92,403.39l-5.7,21.25l-6.29,-39.6z" stroke="none"></path><path d="M135.22,424.64l-6.29,-39.6l8.28582,12.68096l-0.15582,2.59904l-0.13,3.8l-0.01,3.87l0.12,3.52l0.3,3.58l0.15067,1.0848z" stroke="#ff0000"></path><path d="M100.5092,275.17985l19.80848,87.51643l50.27424,-33.19862l-70.08272,-54.31781" stroke="none"></path><path d="M162.01,329.18l-38.42,25.36l-15.13,-66.87z" stroke="none"></path><path d="M123.59,354.54l-15.13,-66.87l27.97506,21.68524l0.76494,3.14476l0.16,0.7l0.92,4.48l0.13,0.71l0.77,4.51l0.1,0.71l0.6,4.53l0.08,0.69l0.44,4.55l0.05,0.67l0.29,4.56l0.03,0.62l0.11921,3.89126z" stroke="#ff0000"></path><path d="M768.49592,272.01924l-11.31823,68.92045l32.68806,-83.67571l-21.36983,14.75526" stroke="none"></path><path d="M769.81,294.85l3.28,-19.93l6.17,-4.26z" stroke="none"></path><path d="M779.26,270.66l-6.17,4.26l-3.28,19.93z" stroke="#ff0000"></path><path d="M757.21893,431.72789l-0.04124,-90.7882l-40.52418,5.66311l40.56543,85.12509" stroke="none"></path><path d="M752.21,409.6l-28.11,-58.99l28.08,-3.93z" stroke="none"></path><path d="M752.21,409.6l-12.74934,-26.75502l-0.35066,-3.33498v-0.06l-0.47,-4.55l-0.02,-0.26l-0.4,-4.55l-0.02,-0.16l-0.36,-4.55l-0.02,-0.19l-0.32,-4.56l-0.03,-0.4l-0.23,-4.56l-0.02,-0.45l-0.13,-4.57l-0.01,-0.51l-0.00589,-1.34582l15.10589,-2.11418z" stroke="#ff0000"></path><path d="M716.6535,346.6028l51.84241,-74.58356l-124.66724,29.16613l72.82482,45.41743" stroke="none"></path><path d="M715.27,339.84l-58.59,-36.53l100.28,-23.46z" stroke="none"></path><path d="M756.96,279.85l-11.54825,16.6174l0.76825,-2.2274l0.2,-0.55l1.61,-4.28l0.2,-0.5l1.73,-4.23l0.19,-0.44l1.34774,-3.10278z" stroke="#ff0000"></path><path d="M133.97403,448.62809l-15.60996,128.172l30.17507,-84.1708l-14.56511,-44.0012" stroke="none"></path><path d="M143.25,492.56l-14.52,40.51l7.51,-61.68z" stroke="none"></path><path d="M136.24,471.39l-7.51,61.68l14.52,-40.51z" stroke="#ff0000"></path><path d="M150.15836,526.41759l10.66973,144.46652l143.12113,-44.74485l-153.79086,-99.72166" stroke="none"></path><path d="M292.31,624.54l-126.96,39.69l-9.47,-128.15z" stroke="none"></path><path d="" stroke="#ff0000"></path><path d="M120.31768,362.69628l-1.95361,214.1038l15.60996,-128.172l-13.65635,-85.9318" stroke="none"></path><path d="M128.93,448.7l-4.75,39.01l0.59,-65.15z" stroke="none"></path><path d="M124.77,422.56l-0.59,65.15l4.75,-39.01z" stroke="#ff0000"></path><path d="M697.45516,689.08837l43.39409,-45.92736l-35.39456,14.80363l-7.99953,31.12373" stroke="none"></path><path d="M707.12,671.57l2.56,-9.95l11.33,-4.74z" stroke="none"></path><path d="M721.01,656.88l-7.19527,7.60968l0.48527,-2.87968l0.07,-0.37l0.12,-0.62l0.24771,-1.11593z" stroke="#ff0000"></path><path d="M118.36407,576.80009l42.46402,94.08401l-10.66973,-144.46652l-31.79429,50.3825" stroke="none"></path><path d="M153.76,643.06l-29.73,-65.87l22.26,-35.26z" stroke="none"></path><path d="M153.76,643.06l-29.73,-65.87l17.24833,-27.32147l-0.01833,0.07147l-0.76,3.45l-0.71,3.84l-0.58,3.94l-0.4,3.67l-0.29,3.89699l-0.15,3.96301l-0.01,3.63l0.14,4.05l0.26,3.67l0.42,3.95l0.57,3.93l0.65,3.63l0.81,3.7l0.97,3.83l1.06,3.58l1.12,3.25l1.39,3.3l1.78,4.03l1.87,4.13l1.88,4.16l0.05,0.1l1.37017,3.07183z" stroke="#ff0000"></path><path d="M641.21272,224.76237l-13.86612,-53.08019l-74.78641,51.90092l88.65253,1.17927" stroke="none"></path><path d="M634.72,219.67l-66.48,-0.88l56.08,-38.92z" stroke="none"></path><path d="M568.24,218.79l56.08,-38.92l3.67507,14.06421l-3.42507,1.80579l-3.81,2.02l-3.71,2.06l-3.41,1.99l-3.59,2.18l-3.85,2.45l-3.51,2.32l-3.47,2.39l-3.18,2.26l-3.42,2.52l-3.4,2.59l-0.68554,0.53864z" stroke="#ff0000"></path><path d="M711.32109,135.8836l-83.9745,35.79857l13.86612,53.08019l70.10838,-88.87876" stroke="none"></path><path d="M643.51,213.78l-10.24,-39.19l62.01,-26.44z" stroke="none"></path><path d="M633.27,174.59l62.01,-26.44l-16.87466,21.39239l-1.96534,0.83761l-4.03,1.77l-4.03,1.8l-3.87,1.77l-4.15,1.93l-3.99,1.9l-3.87,1.86v0.01l-4.1,2.01l-3.98,1.99l-3.96,2.01v-0.01l-3.38039,1.74995z" stroke="#ff0000"></path><path d="M118.36407,576.80009l25.40392,87.07253l17.0601,7.01149l-42.46402,-94.08401" stroke="none"></path><path d="M151.1,661.48l-3.2,-1.31l-4.77,-16.35z" stroke="none"></path><path d="M143.13,643.82l4.77,16.35l3.2,1.31z" stroke="#ff0000"></path><path d="M160.8281,670.8841l-7.26802,32.85614l60.16052,1.20729l-52.8925,-34.06343" stroke="none"></path><path d="M196.17,699.6l-36.41,-0.74l4.4,-19.88z" stroke="none"></path><path d="M196.17,699.6l-16.36752,-0.33265l0.25752,-0.13735l4.02,-2.18l0.41,-0.22l4.02004,-2.06434zM159.76,698.86l4.4,-19.88l1.4326,0.92285l0.0474,1.54715v1.08l-0.12,4.57l-0.02,0.57l-0.05,0.63l-0.38,4.55l-0.04,0.33l-0.07,0.63l-0.61,4.53l-0.09213,0.61142z" stroke="#ff0000"></path><path d="M137.01165,237.61537l5.77301,30.49948l117.5215,-48.52439l-123.29451,18.02491" stroke="none"></path><path d="M146.56,261.15l-3.67,-19.34l78.19,-11.43z" stroke="none"></path><path d="" stroke="#ff0000"></path><path d="M260.30616,219.59046l-117.5215,48.52439l27.80726,61.38282l89.71424,-109.9072" stroke="none"></path><path d="M171.82,320.09l-22.34,-49.33l94.43,-38.99z" stroke="none"></path><path d="" stroke="#ff0000"></path><path d="M149.40891,738.35417l4.15117,-34.61393l-9.79208,-39.86763l5.64091,74.48156" stroke="none"></path><path d="M143.768,663.87261l9.79208,39.86763l7.26802,-32.85614l-17.0601,-7.01149" stroke="none"></path><path d="M155.04,673.91l-1.73,7.84l-2.34,-9.51z" stroke="none"></path><path d="M150.97,672.24l2.34,9.51l1.73,-7.84z" stroke="#ff0000"></path><path d="M149.40891,738.35417l429.61495,-20.67945l-261.32889,-10.97943l-168.28606,31.65888" stroke="none"></path><path d="M467.98,718.01l-246.46,11.87l96.55,-18.17z" stroke="none"></path><path d="M318.07,711.71l-96.55,18.17l246.46,-11.87z" stroke="#ff0000"></path><path d="M334.37557,154.38152l-103.19846,7.55799l77.93385,47.23771l25.26461,-54.79571" stroke="none"></path><path d="M306.91,202l-59.74,-36.22l79.11,-5.79z" stroke="none"></path><path d="M326.28,159.99l-79.11,5.79l59.74,36.22z" stroke="#ff0000"></path><path d="M789.86574,257.26397l-32.68806,83.67571l0.04124,90.7882l32.64681,-174.46391" stroke="none"></path><path d="M762.2,377.93l-0.02,-36.07l12.99,-33.24z" stroke="none"></path><path d="M775.17,308.62l-12.99,33.24l0.02,36.07z" stroke="#ff0000"></path><path d="M757.17769,340.93968l11.31823,-68.92045l-51.84241,74.58356l40.52418,-5.66311" stroke="none"></path><path d="M752.84,336.5l-25.55,3.57l32.69,-47.03z" stroke="none"></path><path d="M752.84,336.5l-15.56668,2.17507l0.18668,-3.40507l0.05,-0.66l0.4,-4.55l0.07,-0.69l0.56,-4.53l0.11,-0.71l0.08357,-0.52348l21.24643,-30.56652z" stroke="#ff0000"></path><path d="M231.1771,161.93951l-94.16545,75.67586l123.29451,-18.02491l-29.12905,-57.65095" stroke="none"></path><path d="M252.71,215.65l-98.26,14.36l75.05,-60.3z" stroke="none"></path><path d="M229.5,169.71l9.26905,18.3464l-0.39905,-0.2064l-3.97,-2.02l-3.98,-1.99v-0.01l-3.98,-1.96l-3.87,-1.88l-3.68357,-1.75238z" stroke="#ff0000"></path><path d="M142.78466,268.11485l-42.27545,7.065l70.08272,54.31781l-27.80726,-61.38282" stroke="none"></path><path d="M157.72,313.21l-45.12,-34.98l27.22,-4.55z" stroke="none"></path><path d="M112.6,278.23l11.64313,-1.94623l0.86687,1.69623l0.21,0.42l0.26,0.58l1.85,4.17l0.19,0.43l1.75,4.22l0.2,0.49l1.64,4.26l0.05454,0.14998z" stroke="#ff0000"></path><path d="M137.01165,237.61537l-36.50245,37.56448l42.27545,-7.065l-5.77301,-30.49948" stroke="none"></path><path d="M136.92,264.02l-22.21,3.72l19.18,-19.73z" stroke="none"></path><path d="M114.71,267.74l2.87829,-2.96083l1.40306,2.24374z" stroke="#ff0000"></path><path d="M120.31768,362.69628l-71.7762,-162.67115l69.82259,376.77495l1.95361,-214.1038" stroke="none"></path><path d="M115.31,363.74l-1.48,161.18l-52.56,-283.67z" stroke="none"></path><path d="M61.27,241.25l52.56,283.67l1.48,-161.18z" stroke="#ff0000"></path><path d="M666.68169,706.75484l73.66646,25.89846l-42.89299,-43.56493l-30.77347,17.66647" stroke="none"></path><path d="M721.64,720.78l-43.01,-15.12l17.96,-10.32z" stroke="none"></path><path d="M721.64,720.78l-43.01,-15.12l15.2199,-8.74551l3.0701,1.64551l0.32,0.18l3.99,2.24l0.21,0.12l1.89738,1.09243z" stroke="#ff0000"></path><path d="M697.45516,689.08837l42.89299,43.56493l0.5011,-89.49229l-43.39409,45.92736" stroke="none"></path><path d="M735.42,720.52l-31.02,-31.51l31.38,-33.21z" stroke="none"></path><path d="M735.42,720.52l-21.73516,-22.07849l-0.48484,-3.37151l-0.11,-0.91l-0.45,-4.54l-0.04,-0.51l-0.04,-0.64l-0.18,-4.56l-0.02,-0.53v-0.63l0.0386,-2.20506l23.3814,-24.74494z" stroke="#ff0000"></path><path d="M740.84924,643.16101l-0.5011,89.49229l17.78185,-177.54934l-17.28075,88.05705" stroke="none"></path><path d="M579.02386,717.67472l161.32428,14.97858l-73.66646,-25.89846l-87.65783,10.91988" stroke="none"></path><path d="M700.44,723.92l-75.14,-6.97l40.84,-5.09z" stroke="none"></path><path d="M666.14,711.86l-40.84,5.09l75.14,6.97z" stroke="#ff0000"></path><path d="M149.40891,738.35417l83.36178,-34.24689l-19.05009,0.84026l-64.31169,33.40664" stroke="none"></path><path d="M118.36407,576.80009l31.04483,161.55408l-5.64091,-74.48156l-25.40392,-87.07253" stroke="none"></path><path d="M153.56008,703.74024l-4.15117,34.61393l64.31169,-33.40664l-60.16052,-1.20729" stroke="none"></path><path d="M194.01,709.56l-38.51,20l2.48,-20.73z" stroke="none"></path><path d="M194.01,709.56l-38.51,20l2.48,-20.73l4.41899,0.08953l-0.10899,0.49047l0.82464,-0.47597z" stroke="#ff0000"></path><path d="M839.7018,180.82049l-49.83605,76.44348l-32.64681,174.46391l82.48287,-250.90739" stroke="none"></path><path d="M775.98,358.66l18.62,-99.51l28.42,-43.58z" stroke="none"></path><path d="M823.02,215.57l-28.42,43.58l-18.62,99.51z" stroke="#ff0000"></path><path d="M768.49592,272.01924l-57.17482,-136.13563l-70.10838,88.87876l127.2832,47.25687" stroke="none"></path><path d="M759.42,263.31l-110.03,-40.84l60.61,-76.83z" stroke="none"></path><path d="M710,145.64l4.32311,10.29341l-0.98311,0.31659l-4.12,1.38l-4.11,1.43l-4.1,1.48l-3.91101,1.45348z" stroke="#ff0000"></path><path d="M839.7018,180.82049l-82.48287,250.90739l0.91107,123.37607l81.5718,-374.28347" stroke="none"></path><path d="M762.8,510.18l-0.57,-77.67l51.94,-158.03z" stroke="none"></path><path d="M814.17,274.48l-51.94,158.03l0.57,77.67z" stroke="#ff0000"></path><path d="M789.86574,257.26397l-78.54465,-121.38037l57.17482,136.13563l21.36983,-14.75526" stroke="none"></path><path d="M783.03,255.9l-12.31,8.5l-32.93,-78.41z" stroke="none"></path><path d="M783.03,255.9l-12.31,8.5l-3.87628,-9.22985l1.28628,-1.86015l0.1,-0.14l2.64,-3.74l0.08,-0.1l2.66,-3.71l0.05,-0.07l1.4071,-1.95518z" stroke="#ff0000"></path><path d="M627.3466,171.68217l83.9745,-35.79857l-188.20121,25.77858l104.22672,10.01999" stroke="none"></path><path d="M626.55,166.59l-60.24,-5.79l108.76,-14.9z" stroke="none"></path><path d="M675.07,145.9l-108.76,14.9l60.24,5.79z" stroke="#ff0000"></path><path d="M523.11988,161.66218l188.20121,-25.77858l-376.94553,18.49792l188.74431,7.28066" stroke="none"></path><path d="M522.86,156.65l-74.29,-2.86l148.36,-7.28z" stroke="none"></path><path d="M596.93,146.51l-148.36,7.28l74.29,2.86z" stroke="#ff0000"></path><path d="M231.1771,161.93951l-85.44912,-31.98613l-8.71633,107.66198l94.16545,-75.67586" stroke="none"></path><path d="M221.2,163.54l-78.26,62.9l7.24,-89.48z" stroke="none"></path><path d="M221.2,163.54l-12.46077,10.01511l-2.34923,-1.05511v-0.01l-3.88,-1.7l-4.2,-1.8v-0.01l-4.05,-1.69l-4.07,-1.67l-4.07,-1.62l-4.08,-1.57l-4.09,-1.54l-4.1,-1.49l-4.11,-1.44l-4.11,-1.39l-3.9,-1.27l-4.36,-1.37l-3.89,-1.16l-4.14,-1.19v0.01l-0.33634,-0.09152l1.17634,-14.53848z" stroke="#ff0000"></path><path d="M137.01165,237.61537l-88.47017,-37.59024l51.96772,75.15472l36.50245,-37.56448" stroke="none"></path><path d="M128.34,239.37l-27.18,27.97l-38.69,-55.96z" stroke="none"></path><path d="M101.16,267.34l-38.69,-55.96l24.72537,10.5065l0.44463,0.6235l2.64,3.66l2.66,3.67l2.68,3.69l2.69,3.69l0.01,0.01l2.68,3.7l0.03,0.03l2.68,3.7l0.04,0.07l2.67,3.71l0.07,0.09l2.64,3.73l0.1,0.13l2.61,3.75l0.08163,0.12558z" stroke="#ff0000"></path><path d="M334.37557,154.38152l-188.64759,-24.42813l85.44912,31.98613l103.19846,-7.55799" stroke="none"></path><path d="M284.76,153l-52.87,3.87l-43.78,-16.39z" stroke="none"></path><path d="M188.11,140.48l43.78,16.39l52.87,-3.87z" stroke="#ff0000"></path><path d="M711.32109,135.8836l-565.59311,-5.93022l188.64759,24.42813l376.94553,-18.49792" stroke="none"></path><path d="M543.39,139.12l-208.78,10.25l-104.49,-13.53z" stroke="none"></path><path d="M230.12,135.84l104.49,13.53l208.78,-10.25z" stroke="#ff0000"></path><path d="M145.72798,129.95339l-97.1865,70.07174l88.47017,37.59024l8.71633,-107.66198" stroke="none"></path><path d="M132.59,230.3l-73.92,-31.41l81.2,-58.55z" stroke="none"></path><path d="M58.67,198.89l8.74911,-6.30862l0.43089,0.70862l2.3,3.65l2.48,3.84l2.29,3.47l1.46743,2.16847zM139.87,140.34l-0.69677,8.61007l-2.27323,-0.55007l-4.16,-0.94l-2.12983,-0.44312z" stroke="#ff0000"></path><path d="M100.5092,275.17985l-51.96772,-75.15472l71.7762,162.67115l-19.80848,-87.51643" stroke="none"></path><path d="M95.84,277.21l8.19,36.2l-29.67,-67.26z" stroke="none"></path><path d="M74.36,246.15l29.67,67.26l-8.19,-36.2z" stroke="#ff0000"></path><path d="M789.86574,257.26397l11.35426,-135.07797l-89.89891,13.6976l78.54465,121.38037" stroke="none"></path><path d="M786.11,242.26l-66.39,-102.6l75.99,-11.58z" stroke="none"></path><path d="M786.11,242.26l-4.74413,-7.33164l0.38413,-0.52836l2.67,-3.67l2.68,-3.7l0.32878,-0.45523zM719.72,139.66l75.99,-11.58l-1.17274,13.94825l-2.31726,-0.01825l-4.19,0.06l-3.95,0.14l-4.15,0.23l-4.17,0.32l-4.33,0.42l-4.38,0.51l-3.97,0.53l-4.01,0.62l-4.4,0.75l-4.07,0.76l-4.06,0.84l-4.17,0.92l-4.25,1l-4.19,1.06l-4.04,1.08l-2.25853,0.63649z" stroke="#ff0000"></path><path d="M740.34814,732.6533l99.35365,-551.8328l-81.5718,374.28347l-17.78185,177.54934" stroke="none"></path><path d="M758.04,606.16l5.04,-50.27l23.08,-105.88z" stroke="none"></path><path d="M786.16,450.01l-23.08,105.88l-5.04,50.27z" stroke="#ff0000"></path><path d="M839.7018,180.82049l-38.4818,-58.63449l-11.35426,135.07797l49.83605,-76.44348" stroke="none"></path><path d="M833.73,180.83l-37.22,57.09l8.48,-100.88z" stroke="none"></path><path d="M833.73,180.83l-37.22,57.09l2.30303,-27.39732l1.21697,-1.76268l2.47,-3.65l2.31,-3.48l2.49,-3.83l2.17,-3.42l2.39,-3.9l2,-3.37646l2.24,-3.94354l1.86,-3.45l1.96,-3.85l1.5,-3.16l1.63,-3.72l1.08029,-2.77669zM804.99,137.04l3.77677,5.75451l-0.64677,-0.08451l-3.58,-0.31673z" stroke="#ff0000"></path><path d="M711.32109,135.8836l89.89891,-13.6976l-655.49202,7.76739l565.59311,5.93022" stroke="none"></path><path d="M710.99,130.88l-117.24,-1.23l135.86,-1.61z" stroke="none"></path><path d="M729.61,128.04l-135.86,1.61l117.24,1.23z" stroke="#ff0000"></path><path d="M801.22,122.186l-745.98399,2.85954l90.49197,4.90785l655.49202,-7.76739" stroke="none"></path><path d="M145.72798,129.95339l-90.49197,-4.90785l-6.69452,74.97959l97.1865,-70.07174" stroke="none"></path><path d="M131.31,134.18l-76.82,55.39l5.3,-59.27z" stroke="none"></path><path d="M131.31,134.18l-14.35619,10.35134l-1.14381,-0.18134l-3.89,-0.54l-4.41,-0.53l-3.9,-0.4l-4.31,-0.36l-4.25,-0.26l-4.23,-0.17l-4.14,-0.08l-4.11,0.02l-4.21,0.11l-3.81,0.17l-3.83,0.31l-3.71,0.45l-3.44,0.58l-3.21,0.74l-1.8822,0.58437l1.3122,-14.67437zM54.49,189.57l1.60487,-17.94726l0.02513,0.05943l1.78,3.80782l1.6,3.19l1.93,3.62l0.90516,1.61336z" stroke="#ff0000"></path></g></svg>