<svg version="1.1" xmlns="http://www.w3.org/2000/svg" xmlns:xlink="http://www.w3.org/1999/xlink" width="1000" height="1000" viewBox="0,0,1000,1000"><defs><clipPath id="clip-1"><rect x="0" y="0" width="864" height="864"></rect></clipPath></defs><g fill="#fffccc" fill-rule="nonzero" stroke="#000000" stroke-width="1" stroke-linecap="butt" stroke-linejoin="miter" stroke-miterlimit="10" stroke-dasharray="" stroke-dashoffset="0" font-family="none" font-weight="none" font-size="none" text-anchor="none" style="mix-blend-mode: normal"><g clip-path="url(#clip-1)" id="Layer_1"><g><path d="M801.22,122.186c-63.465,-2.701 -129.632,25.657 -184.994,55.363c-63.11,32.129 -111.592,96.43 -155.394,153.141c-1.209,-6.377 -2.66,-12.165 -4.4,-17.157c7.911,-28.417 19.836,-56.008 35.928,-80.112c6.315,-9.46 12.068,-19.272 18.829,-28.431c6.74,-9.132 14.082,-17.8 21.094,-26.72c3.429,-4.36 11.308,-11.541 12.107,-17.378c0.929,-6.807 -6.936,-9.148 -11.51,-6.933c-7.507,3.636 -13.6,12.215 -18.816,18.424c-7.448,8.866 -14.234,18.179 -20.44,27.955c-19.559,30.819 -35.021,64.509 -44.021,99.924c-3.846,-4.748 -8.525,-6.934 -14.23,-5.682c-3.828,0.839 -6.819,2.961 -9.209,5.901c-8.993,-35.494 -24.477,-69.261 -44.076,-100.144c-6.205,-9.775 -12.991,-19.088 -20.44,-27.955c-5.218,-6.208 -11.311,-14.788 -18.817,-18.424c-4.574,-2.216 -12.439,0.125 -11.508,6.933c0.797,5.838 8.678,13.019 12.105,17.378c7.012,8.92 14.354,17.588 21.094,26.72c6.761,9.159 12.514,18.971 18.83,28.431c16.361,24.508 28.417,52.619 36.324,81.538c-1.242,4.975 -2.015,10.366 -2.572,15.646c-43.784,-56.69 -92.25,-120.943 -155.327,-153.056c-55.364,-29.707 -121.531,-58.064 -184.997,-55.363c-112.08,4.051 13.502,125.582 31.057,166.092c12.154,27.007 14.854,48.612 12.154,78.321c-1.352,20.254 -8.103,52.662 4.05,71.567c21.604,35.109 71.566,0 99.925,-8.103c13.503,-4.049 59.415,-12.152 32.408,9.453c-13.505,10.805 -37.811,12.154 -54.014,17.555c-64.817,20.256 -99.926,93.174 -76.969,159.342c9.452,22.955 20.254,39.158 20.254,66.168c0,20.254 -9.452,40.508 -8.102,59.412c32.408,-6.75 63.467,-41.859 95.875,-37.809c16.205,2.699 29.708,14.854 45.913,16.203c20.255,2.701 40.508,-13.504 54.013,-28.357c44.562,-44.559 52.664,-112.078 67.519,-170.143c2.52,-8.568 6.358,-18.33 11.021,-28.117c0.53,26.01 1.56,57.195 6.5,79.354c7.222,32.393 32.972,36.461 41.456,2.922c6.653,-26.309 5.704,-55.693 5.588,-83.693c4.97,10.258 9.072,20.553 11.714,29.535c14.854,58.064 22.956,125.584 67.518,170.143c13.504,14.854 33.759,31.059 54.014,28.357c16.204,-1.35 29.708,-13.504 45.912,-16.203c32.407,-4.051 63.466,31.059 95.874,37.809c1.352,-18.904 -8.101,-39.158 -8.101,-59.412c0,-27.01 10.802,-43.213 20.254,-66.168c22.955,-66.168 -12.153,-139.086 -76.97,-159.342c-16.205,-5.4 -40.511,-6.75 -54.014,-17.555c-27.008,-21.605 18.904,-13.501 32.409,-9.453c28.354,8.103 78.32,43.212 99.924,8.103c12.153,-18.906 5.401,-51.313 4.051,-71.567c-2.701,-29.709 0,-51.314 12.153,-78.321c17.55,-40.51 143.135,-162.041 31.054,-166.092z"></path></g></g><path d="M358.96549,394.28048l-32.3723,29.04502l-21.02146,-7.99753l-10.1358,-14.29143l4.91326,-26.1554l13.93251,-15.85692l35.62893,2.89641l9.03167,16.90326z"></path><path d="M69.82891,206.44411l-12.8016,-4.97705l-5.09922,-9.93143l2.77072,-13.62009l6.50632,-10.74837l13.86614,7.9818l-1.23444,31.27803z"></path><path d="M285.38567,629.20545l0.60058,18.80952l-18.31566,14.75235l-43.51372,-0.05813l10.29014,-33.47634l30.4246,-16.62174z"></path><path d="M101.72669,172.65853l-26.65542,2.49044l-13.86614,-7.9818l-1.17388,-2.05316l-2.31479,-7.39873l-0.43558,-4.99188l0.01137,-0.08857l1.52987,-2.47592l5.79501,-5.8573l8.74139,-5.01675l10.33305,-2.01851l10.51888,1.7744l10.09337,5.45832l9.26952,8.73388l0.81701,1.14208z"></path><path d="M545.38986,459.89021l0.79116,-0.38661l42.74252,12.31127l0.67373,3.48629l-19.12234,40.09397l-31.1334,1.89704l-5.84102,-8.32003l-2.96904,-20.20089z"></path><path d="M570.47492,515.39513l19.12234,-40.09397l38.85398,29.19591l-34.98805,26.7698z"></path><path d="M632.41936,464.95393l10.56512,-3.90878l11.83513,1.21785l9.69751,6.89549l4.638,7.0923l-22.91374,31.74529l-9.98825,-4.21004z"></path><path d="M334.23191,438.02398l-6.04627,49.98158l-16.91246,10.836l-21.67207,-2.01209l-20.97235,-19.8426l2.87812,-10.63226l10.02689,-20.97264l24.03796,-30.054l21.02146,7.99753z"></path><path d="M483.7967,499.56508l21.5524,12.46048l-15.60051,13.74702l-1.20013,-0.44944l-8.5264,-10.04134l2.23249,-13.55459z"></path><path d="M534.74671,271.32126l0.05278,-9.92949l4.62744,-10.95651l9.10119,-6.75462l13.14768,-2.37982l8.36011,0.93769l5.16827,7.59248l-7.47575,34.06846l-20.89417,-0.71943z"></path><path d="M310.08299,319.85205l-38.85584,-0.69432l-23.29291,-28.63258l28.69226,-27.07608l43.85754,7.58221l3.72079,4.83759l-2.47862,33.02462z"></path><path d="M670.0567,240.36906l32.17595,-35.47562l28.60498,10.59252l8.14026,27.23734l-0.16095,1.05341l-4.0119,14.71231l-6.31019,15.27933l-5.78847,10.09792l-9.37954,6.13404l-45.79909,-19.79872z"></path><path d="M588.92354,471.81487l11.15203,-16.25678l14.88097,1.05347l14.14734,5.54631l3.31549,2.79607l3.83377,38.8321l-7.80189,0.71103l-38.85398,-29.19591z"></path><path d="M567.72844,283.89945l7.47575,-34.06846l42.60949,-5.64003l14.13952,40.87677l-0.59682,1.38449l-4.52395,3.49196l-40.57337,15.23987z"></path><path d="M704.67894,311.01301l8.6479,-21.01269l9.37954,-6.13404l5.46274,5.09159l15.24869,19.06771l5.63165,14.20479l-1.66109,12.19257l-9.09412,12.15182l-12.60215,9.27161l-7.43878,0.05467z"></path><path d="M188.13089,248.2103l-18.87734,28.21827l-31.63336,-17.49096l-4.92118,-6.40807l-8.63094,-32.42122l23.52933,-9.51835l30.79311,20.06346z"></path><path d="M406.40989,357.82259l-47.46758,21.0013l-9.03167,-16.90326l13.63475,-33.43636l9.12539,-3.44497l0.315,0.10325l10.8609,5.87636l8.83217,7.55674l13.81231,18.89209z"></path><path d="M652.6623,547.38459l35.54344,-1.59625l17.84272,11.33086l-1.51426,28.44976l-34.60903,15.00103l-28.32373,-32.50652z"></path><path d="M435.98661,441.28771l-43.75885,1.70598l-5.52212,-37.39448l26.70587,-16.02289l27.56917,15.01597z"></path><path d="M647.23121,509.3543l44.57596,1.70138l-3.60143,34.73266l-35.54344,1.59625z"></path><path d="M535.09562,549.78155l30.36358,24.55829l-3.12654,12.75463l-27.0291,28.13369l-8.47007,-7.46277l-6.72834,-9.03397l-4.26049,-10.07967l-1.19574,-8.14875z"></path><path d="M258.70636,195.5727l-35.69709,-3.8822l-0.6717,-0.86526l2.08156,-2.17653l18.96976,-12.94575l12.20442,1.15153l4.54906,15.52383l-0.17663,1.64491z"></path><path d="M234.447,629.23286l-10.29014,33.47634l-6.68955,4.57165l-5.31719,-1.76579l-22.05736,-39.12639l12.67509,-20.98819l2.74024,0.1171z"></path><path d="M628.45124,504.49706l7.80189,-0.71103l9.98825,4.21004l0.98983,1.35823l5.43109,38.03029l-11.06087,20.67889l-25.11677,3.87724l-17.31269,-10.63515l-5.70878,-30.03869z"></path><path d="M574.57516,347.39128l2.62823,-11.93161l2.30627,-2.45012l44.0676,17.31193l6.23947,17.19567l-24.11249,19.7013l-25.46502,-13.39655z"></path><path d="M486.14979,480.80123l32.9838,2.93996l11.39787,5.03006l2.96904,20.20089l-28.15141,3.05343l-21.5524,-12.46048l-1.97357,-10.77444l0.14527,-4.1357z"></path><path d="M685.66449,471.09874l12.15754,-0.02963l6.44566,9.88362l-0.27361,16.22353l-0.97954,3.41636l-25.92399,-24.24021z"></path><path d="M623.57727,350.32147l-44.0676,-17.31193l6.74939,-27.82549l40.57337,-15.23987l4.57575,50.09984z"></path><path d="M746.27474,200.26811l7.7487,-30.56459l22.5033,-16.71685l27.49314,-0.50899l0.49742,0.14764l5.17699,2.66981l-5.31491,31.23516l-14.93863,13.41083z"></path><path d="M260.66361,228.02964l-16.82647,-0.39553l-16.84648,-13.47923l-3.98139,-22.46439l35.69709,3.8822l4.96299,16.55773z"></path><path d="M265.27705,344.47532l-19.02647,14.26923l-25.5027,-18.4553l4.73346,-34.35095l21.23686,-15.47313l1.21603,0.05998l23.29291,28.63258z"></path><path d="M246.84984,479.34387l-24.4721,45.14741l-32.06573,-20.3206l4.69406,-18.72686l3.18381,-3.74785l7.9958,-5.54464l9.27545,-3.04676l11.14178,-0.26447l13.56049,3.31924z"></path><path d="M244.37793,373.36403l-44.84594,0.70133l6.7303,-25.58915l14.48559,-8.18695l25.5027,18.4553z"></path><path d="M289.60111,496.82947l-23.92478,39.8169l-41.27709,-6.69888l-2.02149,-5.45619l24.4721,-45.14741l9.40142,-1.92822l12.37749,-0.42879z"></path><path d="M262.02214,602.81986l2.84947,9.79126l-30.4246,16.62174l-28.9389,-23.71528l30.784,-17.25253z"></path><path d="M677.49489,411.00075l2.01417,-10.52996l23.0954,-18.13461l22.59034,24.2593l3.89624,18.8061l-0.29885,0.39853l-2.61717,2.29014l-7.09153,3.82891l-10.05215,2.3031l-10.56518,-1.24571l-9.61225,-5.39319l-8.22001,-9.78254z"></path><path d="M631.35638,286.45223l0.59682,-1.38449l35.57455,-14.86614l45.79909,19.79872l-8.6479,21.01269l-37.43618,13.3706z"></path><path d="M386.01739,455.76469l-12.89816,25.54012l-31.61959,10.41054l-13.314,-3.7098l6.04627,-49.98158l52.07224,10.50265z"></path><path d="M327.17045,567.15655l-10.93909,42.12509l-30.84569,19.92381l-20.51407,-16.59433l-2.84947,-9.79126l18.35213,-39.12119z"></path><path d="M172.53843,567.93813l-18.73118,19.64661l-14.90718,-0.94231l-7.18165,-4.94253l-6.45618,-10.41471l1.59407,-10.67923l9.2094,-9.0117l14.05298,-6.18333l8.26901,-1.74383z"></path><path d="M634.49863,408.87136l14.92794,-21.92624l30.0825,13.52568l-2.01417,10.52996l-9.64206,5.78815l-14.4556,3.21324l-11.72841,-3.81076z"></path><path d="M363.37241,567.24968l10.35202,14.04666l2.64434,12.31585l-5.22989,10.16871l-8.4029,5.02933l-27.67556,-42.93076l19.4038,-6.4437z"></path><path d="M539.34153,517.29217l31.1334,-1.89704l22.98827,15.87174l5.70878,30.03869l-33.71277,13.03428l-30.36358,-24.55829l-1.72176,-7.53922z"></path><path d="M616.48466,571.94071l25.11677,-3.87724l28.32373,32.50652l-4.79936,26.56616l-26.78724,23.06089l-32.50058,-32.31296z"></path><path d="M545.38986,459.89021l-29.37434,-21.81206l-2.55531,-30.00248l14.74516,-11.51093l27.60117,9.02026l8.20477,13.62966l-17.83029,40.28895z"></path><path d="M555.80654,405.58499l24.43269,-31.7631l25.46502,13.39655l0.56892,3.72522l-13.10312,29.30813l-4.91932,4.49198l-24.23942,-5.52912z"></path><path d="M215.21383,551.3382l17.87033,20.30872l3.20793,16.61812l-30.784,17.25253l-2.74024,-0.1171l-22.52721,-35.70703z"></path><path d="M528.20537,396.56473l-2.40258,-22.46435l48.77237,-26.70911l5.66407,26.43061l-24.43269,31.7631z"></path><path d="M372.67078,325.0393l-9.12539,3.44497l-41.81918,-19.59079l2.47862,-33.02462l4.92773,-0.37075l14.8958,1.39192l12.17455,4.20501l9.09001,7.03263l5.80784,9.79381l2.45225,12.45486z"></path><path d="M225.48134,305.9383l-4.73346,34.35095l-14.48559,8.18695l-28.75057,-17.31997l8.95148,-27.56545z"></path><path d="M525.80279,374.10039l-23.85217,-32.40273l1.99248,-4.43445l6.11327,-9.51664l2.66197,-3.01224l64.48506,10.72533l-2.62823,11.93161z"></path><path d="M440.98067,404.5923l-27.56917,-15.01597l-7.00162,-31.75373l0.08127,-0.35486l27.53985,-12.30102l0.72678,0.09202l31.26923,31.60328l-2.17404,13.34132z"></path><path d="M310.08299,319.85205l4.19872,39.17217l-13.93251,15.85692l-35.07215,-30.40582l5.9501,-25.31759z"></path><path d="M386.70564,405.59921l5.52212,37.39448l-5.92361,5.53294l-52.07224,-10.50265l-7.63873,-14.69848l32.3723,-29.04502z"></path><path d="M638.33856,650.19704l26.78724,-23.06089l39.24529,18.05399l4.28947,8.77875l-0.88345,13.32535l-4.27557,14.61848l-1.15791,2.23211l-7.95923,3.50865l-13.42496,-1.29744l-7.77516,-2.64308l-35.64706,-28.98416z"></path><path d="M664.14566,332.14493l3.09709,-7.76132l37.43618,-13.3706l13.57437,44.88803l-14.46973,18.50196l-36.4839,-21.22875z"></path><path d="M225.48134,305.9383l-39.01813,-2.34751l-17.40748,-23.11418l0.19781,-4.04803l18.87734,-28.21827l5.75626,0.10315l30.83044,14.6767l22.00062,27.47502z"></path><path d="M264.22057,410.3742l-16.83584,2.74062l-13.43281,-3.64145l-5.61978,-3.62339l16.56872,-30.83346l39.42265,25.13427z"></path><path d="M328.82783,619.08785l-11.7227,49.02233l-5.38106,1.36083l-25.73782,-21.45604l-0.60058,-18.80952l30.84569,-19.92381z"></path><path d="M153.80725,587.58474l-1.54682,29.76792l-2.25908,0.10222l-18.22054,-3.83127l-7.11951,-9.20655l6.52773,-12.29305l7.71105,-5.48158z"></path><path d="M694.3844,687.65349l7.95923,-3.50865l11.54931,11.72859l6.34464,11.78913l0.15264,1.1188l-3.99993,10.82878l-12.06678,1.67741l-8.17414,-8.79295l-2.15465,-21.63325z"></path><path d="M137.62018,258.93762l-16.97428,24.47911l-8.80251,-8.26992l-2.28378,-7.69272l23.13938,-14.92454z"></path><path d="M599.75034,706.36412l23.94077,-13.48965l-0.15176,7.04841l-6.88369,12.48764l-11.84345,-1.33483z"></path><path d="M224.39924,529.94748l-9.1854,21.39072l-34.97319,18.35524l-7.70222,-1.75531l-14.15074,-24.27103l0.11121,-4.49855l1.70441,-8.58932l3.22234,-8.10963l4.67251,-7.31907l3.83969,-4.03336l18.37417,-6.94648l32.06573,20.3206z"></path><path d="M642.64666,372.95202l24.65303,-19.77776l36.4839,21.22875l-1.17911,7.93318l-23.0954,18.13461l-30.0825,-13.52568z"></path><path d="M212.93925,160.75117l0.43741,22.20653l-19.94377,-25.50001l11.15621,-5.94488z"></path><path d="M244.90087,375.01653l-16.56872,30.83346l-8.27111,1.86288l-14.71968,-0.36154l-12.50495,-25.45431l6.69558,-7.83167l44.84594,-0.70133z"></path><path d="M311.25238,690.53149l-2.73774,12.85751l-7.8272,7.09114l-10.38514,-0.54724l-8.17048,-5.44575l-1.67392,-2.26747l29.34729,-23.24673z"></path><path d="M193.88715,248.31346l-5.75626,-0.10315l-9.74039,-17.55687l26.97032,-40.72138l9.09855,-2.85953l7.8782,3.75272l0.6717,0.86526l3.98139,22.46439z"></path><path d="M217.85471,669.29021l-6.46401,18.39871l-9.78905,13.26456l-11.44018,4.42634l-15.04554,-2.40943l-6.18168,-2.97828l-0.34534,-4.86366l2.40875,-14.60761l1.95728,-4.85532l39.19517,-10.15047l5.31719,1.76579z"></path><path d="M346.25063,640.44781l-3.69222,9.71701l-6.3796,8.03203l-8.60559,6.01187l-10.14032,3.84819l-0.32778,0.05328l11.7227,-49.02233l18.1918,11.11389z"></path><path d="M558.15142,652.6l28.96894,20.78637l-3.14555,22.48844l-0.65936,0.35808l-11.99618,2.85407l-11.36348,-2.24353l-7.05621,-8.26942l-1.4356,-13.55016l3.58226,-15.48558z"></path><path d="M311.27318,498.84155l17.31442,67.24902l-1.41715,1.06598l-46.79618,-3.45788l-7.82488,-9.03019l-6.87305,-18.02212l23.92478,-39.8169z"></path><path d="M587.12036,673.38637l44.61648,-11.87088l-0.98084,16.82368l-0.11874,0.44802l-6.94616,14.08728l-23.94077,13.48965l-4.50904,-0.8398l-6.30882,-3.89316l-4.95766,-5.75635z"></path><path d="M562.33265,587.09447l30.58277,32.54831l-36.96295,27.3516l-6.54757,-5.82516l-6.04979,-7.48442l-4.74592,-8.55115l-3.23631,-9.46239l-0.06932,-0.44309z"></path><path d="M698.62782,200.94723l-1.06052,-31.24408l4.57811,-8.92562l8.40361,-9.11636l9.98938,-4.90031l11.23307,-0.49276l7.91381,2.50478l14.33816,20.93065l-7.7487,30.56459l-15.43711,15.21785l-28.60498,-10.59252z"></path><path d="M224.71758,262.99015l-30.83044,-14.6767l33.10351,-34.15858l16.84648,13.47923z"></path><path d="M389.59404,229.74285l-0.86576,0.02415l-9.18262,-7.61608l1.67032,-7.5416l6.35124,0.69458l4.23464,10.59062z"></path><path d="M800.05087,216.89424l-10.61011,-16.95311l14.93863,-13.41083l12.77469,7.32105l2.92426,8.2966l-4.03234,10.80844l-13.82793,4.17586z"></path><path d="M157.18089,342.63126l-19.77488,8.43828l-9.43069,-5.56811l-4.40521,-11.6152l11.31314,-13.89076l4.07804,-2.50918z"></path><path d="M384.16775,492.8187l-6.10859,24.3032l-12.96667,3.98262l-23.59285,-29.38916l31.61959,-10.41054z"></path><path d="M267.67058,662.76732l-0.77652,32.71825l-12.5169,1.80554l-12.88389,-3.46435l-14.92721,-12.55061l-8.71134,-11.98595l-0.38741,-2.00937l6.68955,-4.57165z"></path><path d="M205.28887,407.4425l-9.14662,10.29071l-9.60205,6.34903l-10.25544,3.14548l-10.29891,0.23593l-8.90947,-1.96475l-0.06127,-0.02761l-9.70952,-24.72416l0.59075,-3.78213l21.62228,-18.986l23.31779,3.91801l12.50495,25.45431z"></path><path d="M399.31609,504.37725l-5.09208,10.87244l-7.3594,4.39215l-8.80545,-2.51995l6.10859,-24.3032l12.90578,1.70328z"></path><path d="M400.10889,492.26705l-3.03536,2.25492l-12.90578,-1.70328l-11.04852,-11.51388l12.89816,-25.54012l22.20453,26.20584z"></path><path d="M658.4275,191.17969l-36.41166,-1.3092l1.734,-12.75942l10.68638,-4.09315l18.02598,11.00149l5.76479,5.92053l0.43501,1.09767z"></path><path d="M439.07561,511.64407l6.31742,11.10152l2.69363,11.0092l-0.89246,10.73152l-2.59977,6.12364l-11.71455,4.28892l-8.60338,-8.15761l-3.16326,-10.94704l4.44297,-11.50633l11.82801,-11.6597l1.65641,-1.0232z"></path><path d="M356.88889,556.88372l-2.42468,2.55206l-19.4038,6.4437l-6.47282,0.2111l-17.31442,-67.24902l16.91246,-10.836l13.314,3.7098l23.59285,29.38916z"></path><path d="M489.74858,525.77258l15.60051,-13.74702l28.15141,-3.05343l5.84102,8.32003l-5.96766,24.95016l-34.99777,2.96817l-6.82171,-8.73726z"></path><path d="M738.97789,242.7233l-8.14026,-27.23734l15.43711,-15.21785l43.16602,-0.32699l10.61011,16.95311l-2.57095,10.68321l-7.38852,8.66447l-11.9854,5.4351l-17.00203,2.2027z"></path><path d="M572.6874,220.7977l4.16385,-12.49355l11.21169,-3.73123l16.66827,5.02582l0.26594,0.16284l-31.27595,18.03578z"></path><path d="M512.71833,324.73434l0.68356,-4.51475l33.43237,-37.03956l20.89417,0.71943l18.53062,21.28461l-6.74939,27.82549l-2.30627,2.45012z"></path><path d="M617.81367,244.19096l4.39561,-12.058l7.49753,-3.10273l40.34989,11.33884l-2.52896,29.83253l-35.57455,14.86614z"></path><path d="M623.57727,350.32147l7.83091,-10.27745l32.73748,-7.8991l3.15402,21.02932l-24.65303,19.77776l-12.82991,-5.43488z"></path><path d="M448.57006,555.28631l4.00568,11.43389l-2.33613,10.10611l-6.56463,6.32016l-3.8078,1.28067l-2.96238,-1.41861l-5.10894,-5.91508l-2.34658,-9.17505l2.25853,-11.08921l1.17209,-1.93033l11.71455,-4.28892z"></path><path d="M177.51173,331.15624l-18.33482,12.14068l-1.99602,-0.66567l-18.21961,-25.14498l-0.7516,-11.71575l0.73951,-4.01746l30.10653,-21.27646l17.40748,23.11418z"></path><path d="M161.5389,630.92844l28.55387,-4.53977l22.05736,39.12639l-39.19517,10.15047l-6.56833,-9.22165l-5.06122,-13.22746l-1.16012,-13.81941z"></path><path d="M169.05573,280.47661l-30.10653,21.27646l-9.99889,-6.70475l-7.94341,-10.273l-0.361,-1.35859l16.97428,-24.47911l31.63336,17.49096z"></path><path d="M491.74371,342.18398l4.85621,1.91929l-30.57291,32.75874l-31.26923,-31.60328l13.31985,-10.77236l4.50784,-0.11551z"></path><path d="M804.37939,186.5303l5.31491,-31.23516l2.40608,-0.53163l4.95249,-0.17972l4.87187,4.20589l8.94017,12.35195l2.26905,12.7784l-7.60077,8.50621l-8.37911,1.42511z"></path><path d="M599.17197,561.30556l17.31269,10.63515l-10.64669,45.94338l-12.92255,1.75869l-30.58277,-32.54831l3.12654,-12.75463z"></path><path d="M729.34909,536.09429l19.22577,4.02945l6.60358,9.7518l-9.62845,12.36549l-0.37109,0.20434l-21.13059,-19.06886l2.83929,-7.18545z"></path><path d="M593.17005,420.25179l13.10312,-29.30813l23.92389,18.70712l-0.63486,0.92038l-14.45569,9.98188z"></path><path d="M605.83797,617.88409l32.50058,32.31296l-0.80134,4.53177l-5.80037,6.78668l-44.61648,11.87088l-28.96894,-20.78637l-2.02789,-4.90223l-0.17106,-0.7034l36.96295,-27.3516z"></path><path d="M147.59739,210.58997l-23.52933,9.51835l-7.48959,-1.31379l-14.85178,-46.136l12.66365,-18.28351l9.40271,-0.42098l10.21757,1.60597l5.27424,1.98621l6.95063,13.14194l4.29222,30.56685z"></path><path d="M280.37426,563.69867l-18.35213,39.12119l-25.73004,-14.55482l-3.20793,-16.61812l39.46521,-16.97844z"></path><path d="M725.19481,406.59548l22.20136,-11.29558l9.02505,8.39872l-0.85422,10.88594l-10.67579,8.02555l-10.27904,2.7747l-5.11115,0.09581l-0.40997,-0.07904z"></path><path d="M295.43593,401.03654l-11.11241,-0.88574l-39.42265,-25.13427l-0.52294,-1.6525l1.87265,-14.61947l19.02647,-14.26923l35.07215,30.40582z"></path><path d="M720.39023,708.78135l12.30953,8.00648l1.49846,10.9875l-2.21464,2.74439l-7.10228,-0.24988l-7.96693,-8.39193l-0.52406,-2.26778z"></path><path d="M739.68528,148.77287l2.31112,-6.50749l9.14246,-10.32953l11.15669,-0.8384l9.50363,6.80744l4.72757,15.0818l-22.5033,16.71685z"></path><path d="M434.75778,345.25874l-0.72678,-0.09202l-4.12602,-13.77183l-0.88472,-14.45638l2.67015,-5.9605l6.16446,-3.3505l0.41743,-0.02871l7.01807,2.63548l4.87881,9.63609l-2.09154,14.61602z"></path><path d="M771.79918,137.90488l1.77903,-5.30699l10.56314,-9.10556l11.23136,8.4878l8.64717,20.49755l-27.49314,0.50899z"></path><path d="M320.48404,271.03128l-43.85754,-7.58221l-3.1454,-22.46724l22.80774,-19.02817l7.59651,2.1013l8.82881,6.58085l5.84916,9.81987l2.73581,12.7246l-0.32803,15.23502z"></path><path d="M441.30761,474.03397l-3.15759,6.38304l-29.9281,1.55352l-22.20453,-26.20584l0.28676,-7.23806l5.92361,-5.53294l43.75885,-1.70598l5.62782,7.90012z"></path><path d="M224.39924,529.94748l41.27709,6.69888l6.87305,18.02212l-39.46521,16.97844l-17.87033,-20.30872z"></path><path d="M476.92273,446.29727l11.31347,-40.04291l25.22401,1.82131l2.55531,30.00248l-17.73504,12.37l-11.84814,1.87364z"></path><path d="M205.36081,189.93205l-21.47434,-6.2911l-5.88999,-16.07321l3.78669,-10.95111l8.72786,-0.47461l2.92185,1.31566l19.94377,25.50001l0.71912,1.89134l0.36358,2.22348z"></path><path d="M498.28049,450.44815l17.73504,-12.37l29.37434,21.81206l-14.8584,28.88104l-11.39787,-5.03006z"></path><path d="M169.51862,377.97902l-21.62228,18.986l-4.37834,-3.68597l-9.12151,-11.89737l-3.80965,-12.07227l2.14056,-11.69893l4.67861,-6.54093l19.77488,-8.43828l1.99602,0.66567z"></path><path d="M669.15512,476.25078l3.78349,-0.55131l4.15193,0.65294l25.92399,24.24021l0.58139,2.83044l-11.78876,7.63262l-44.57596,-1.70138l-0.98983,-1.35823z"></path><path d="M704.53419,585.56896l21.74466,12.85116l0.05932,0.18982l1.03758,8.9112l-0.51388,5.32618l-22.49078,32.34281l-39.24529,-18.05399l4.79936,-26.56616z"></path><path d="M703.78358,374.403l14.46973,-18.50196l7.43878,-0.05467l6.40496,3.63817l12.30947,11.19062l5.2979,11.15253l-1.00426,11.30536l-1.30398,2.16685l-22.20136,11.29558l-22.59034,-24.2593z"></path><path d="M704.53419,585.56896l1.51426,-28.44976l17.99985,-13.74268l21.13059,19.06886l0.58238,9.99771l-3.46833,9.94287l-6.89922,8.88424l-9.11489,7.14992z"></path><path d="M151.24803,430.93032l-5.34347,2.96373l-7.04366,1.44462l-10.73503,-2.29368l-5.64612,-8.68616l5.30671,-11.1754l13.74079,-9.99588l5.77834,-2.44041l9.70952,24.72416z"></path><path d="M192.83641,381.89702l-23.31779,-3.91801l-10.34171,-34.68209l18.33482,-12.14068l28.75057,17.31997l-6.7303,25.58915z"></path><path d="M658.227,189.93995l0.77846,-17.97401l6.15,-13.60851l11.16653,-2.67036l15.35779,8.26231l5.88752,5.75378l1.06052,31.24408l-39.96581,-9.90961z"></path><path d="M183.88648,183.64095l-33.35877,17.61406l-4.29222,-30.56685l31.761,-3.12042z"></path><path d="M691.80717,511.05568l11.78876,-7.63262l4.99321,2.26271l7.47096,5.77206l5.76387,7.41648l3.70112,8.68575l1.36252,8.63101l-2.83929,7.18545l-17.99985,13.74268l-17.84272,-11.33086z"></path><path d="M510.92913,314.1675l-3.39135,-17.08778l1.90766,-13.00979l7.23976,-8.67941l12.36814,-4.17279l5.69337,0.10354l12.08755,11.85876l-33.43237,37.03956z"></path><path d="M476.92273,446.29727l-35.3083,2.89056l-5.62782,-7.90012l4.99405,-36.69541l22.87231,-14.38896l24.38321,16.05102z"></path><path d="M704.37108,645.19014l22.49078,-32.34281l6.53304,8.17611l5.02492,14.83685l-5.78819,10.3463l-19.95558,7.30695l-4.0155,0.45537z"></path><path d="M247.93423,290.52515l-1.21603,-0.05998l-22.00062,-27.47502l19.11956,-35.35604l16.82647,0.39553l12.81749,12.95219l3.1454,22.46724z"></path><path d="M606.27317,390.94366l-0.56892,-3.72522l24.11249,-19.7013l12.82991,5.43488l6.77991,13.9931l-14.92794,21.92624l-4.30157,0.77943z"></path><path d="M486.43235,452.32179l11.84814,-1.87364l20.8531,33.29304l-32.9838,-2.93996z"></path><path d="M488.23619,406.25436l-24.38321,-16.05102l2.17404,-13.34132l30.57291,-32.75874l5.35069,-2.40562l23.85217,32.40273l2.40258,22.46435l-14.74516,11.51093z"></path><path d="M202.76786,605.40048l-12.67509,20.98819l-28.55387,4.53977l-3.89685,-4.23305l-5.38163,-9.34272l1.54682,-29.76792l18.73118,-19.64661l7.70222,1.75531z"></path><path d="M637.53722,654.72882l35.64706,28.98416l-10.32748,14.1632l-12.9994,4.15991l-19.10139,-23.69691l0.98084,-16.82368z"></path><path d="M177.99649,167.56774l-31.761,3.12042l-6.95063,-13.14194l6.15705,-4.37011l12.63564,-4.88278l11.55368,0.1151l9.90485,5.29157l2.2471,2.91663z"></path><path d="M178.39049,230.65343l-30.79311,-20.06346l2.93031,-9.33496l33.35877,-17.61406l21.47434,6.2911z"></path><path d="M296.28884,221.95366l-22.80774,19.02817l-12.81749,-12.95219l3.00573,-15.89921l21.39788,-7.4635l4.26328,2.48307l6.09733,10.0172z"></path><path d="M607.02201,210.08335l4.1424,-9.97485l7.4211,-8.56094l3.43033,-1.67708l36.41166,1.3092l-28.72069,37.85054l-7.49753,3.10273z"></path><path d="M335.06042,565.87947l27.67556,42.93076l-0.60575,3.68272l-5.49777,9.50822l-8.80847,7.78839l-0.80435,0.41217l-18.1918,-11.11389l-12.59647,-9.80621l10.93909,-42.12509l1.41715,-1.06598z"></path><path d="M310.82981,676.08522l-1.02461,2.88774l-29.34729,23.24673l-5.10597,-1.25201l-7.77208,-4.73295l-0.6858,-0.74915l0.77652,-32.71825l18.31566,-14.75235l25.73782,21.45604z"></path><path d="M282.7667,197.25129l2.30052,7.41564l-21.39788,7.4635l-4.96299,-16.55773l1.25938,-1.54948l13.1832,-2.37907z"></path><path d="M498.37609,545.2105l34.99777,-2.96817l1.72176,7.53922l-20.44671,30.72146l-4.6189,-1.74152l-11.42922,-8.77154l-4.3831,-10.64175l2.87995,-12.3717z"></path><path d="M476.92273,446.29727l9.50962,6.02452l-0.28256,28.47944l-4.18139,3.85371l-40.66079,-10.62097l0.30682,-24.84614z"></path><path d="M390.69038,526.74518l-1.00446,11.59439l-9.35054,9.60888l-17.58029,7.63804l-5.86619,1.29722l8.20359,-35.7792l12.96667,-3.98262l8.80545,2.51995z"></path><path d="M664.14566,332.14493l-32.73748,7.8991l-4.57575,-50.09984l4.52395,-3.49196l35.88638,37.93138z"></path><path d="M386.70564,405.59921l-27.74015,-11.31873l-0.02318,-15.45658l47.46758,-21.0013l7.00162,31.75373z"></path><path d="M190.31202,504.17068l-18.37417,6.94648l-3.81987,-7.83635l-3.60991,-18.32744l6.38206,-9.6952l14.80767,3.32194l9.30827,6.86371z"></path><path d="M670.0567,240.36906l-40.34989,-11.33884l28.72069,-37.85054l0.23451,-0.14207l39.96581,9.90961l3.60483,3.94621z"></path><path d="M103.54902,223.55864l-13.30769,-4.24551l-10.40772,-6.27901l-5.99679,-6.60712l1.23444,-31.27803l26.65542,-2.49044l14.85178,46.136l-11.94211,4.91028z"></path><path d="M546.18102,459.5036l17.83029,-40.28895l24.23942,5.52912l10.33526,22.81661l1.48958,7.9977l-11.15203,16.25678z"></path><path d="M349.91064,361.92063l-35.62893,-2.89641l-4.19872,-39.17217l11.64322,-10.95857l41.81918,19.59079z"></path><path d="M132.699,252.52954l-23.13938,14.92454l-3.95454,-2.59055l-5.36135,-10.5187l-0.17822,-14.12917l4.57085,-16.51085l11.94211,-4.91028l7.48959,1.31379z"></path><path d="M570.03591,242.23852l0.77013,-7.05841l2.91516,-7.38275l31.27595,-18.03578l2.02486,0.32178l15.18727,22.04961l-4.39561,12.058l-42.60949,5.64003z"></path><path d="M816.7075,0l-12.19019,152.62532l-0.49742,-0.14764l-8.64717,-20.49755l1.82055,-131.98013z"></path><path d="M797.19327,0l-1.82055,131.98013l-11.23136,-8.4878l-5.06942,-123.49233z"></path><path d="M773.57821,132.59789l-12.21209,-132.59789h17.70581l5.06942,123.49233z"></path><path d="M762.29555,131.09744l-18.3028,-131.09744h17.37338l12.21209,132.59789l-1.77903,5.30699z"></path><path d="M743.99275,0l18.3028,131.09744l-11.15669,0.8384l-24.25611,-131.93585z"></path><path d="M741.9964,142.26538l-32.01675,-142.26538h16.9031l24.25611,131.93585z"></path><path d="M731.77146,146.2681l-38.53344,-146.2681h16.74163l32.01675,142.26538l-2.31112,6.50749z"></path><path d="M720.53839,146.76086l-43.91627,-146.76086h16.6159l38.53344,146.2681z"></path><path d="M676.62213,0l43.91627,146.76086l-9.98938,4.90031l-50.44433,-151.66117z"></path><path d="M702.1454,160.77753l-58.47955,-160.77753h16.43883l50.44433,151.66117z"></path><path d="M697.56729,169.70315l-5.88752,-5.75378l-64.38728,-163.94937h16.37336l58.47955,160.77753z"></path><path d="M676.32198,155.68706l-65.34438,-155.68706h16.3149l64.38728,163.94937z"></path><path d="M610.9776,0l65.34438,155.68706l-11.16653,2.67036l-63.20557,-142.10285l-0.42905,-16.25457z"></path><path d="M659.00546,171.96594l-57.43166,-122.71606l0.37608,-32.9953l63.20557,142.10285z"></path><path d="M652.46221,184.01941l-52.4984,-107.27015l1.61,-27.4994l57.43166,122.71606l-0.77846,17.97401z"></path><path d="M634.43622,173.01792l-37.20209,-73.08975l2.72967,-23.17891l52.4984,107.27015z"></path><path d="M634.43622,173.01792l-10.68638,4.09315l-30.30793,-57.53866l3.79223,-19.64423z"></path><path d="M618.58551,191.54757l-29.92151,-55.5277l4.77791,-16.44746l30.30793,57.53866l-1.734,12.75942z"></path><path d="M611.16441,200.1085l-29.11156,-48.33269l6.61115,-15.75595l29.92151,55.5277z"></path><path d="M604.73121,209.59873l-29.83304,-44.69703l1.59138,-3.88482l5.5633,-9.24106l29.11156,48.33269l-4.1424,9.97485l-2.02486,-0.32178z"></path><path d="M604.73121,209.59873l-16.66827,-5.02582l-20.52275,-28.07984l7.35798,-11.59138z"></path><path d="M576.85125,208.30414l-18.10849,-22.85603l8.79743,-8.95504l20.52275,28.07984z"></path><path d="M572.6874,220.7977l-22.67146,-26.6279l8.29142,-8.44346l0.43541,-0.27823l18.10849,22.85603z"></path><path d="M570.80605,235.18011l-29.1793,-32.13541l0.49287,-0.84292l7.87432,-8.01827l0.02199,-0.01372l22.67146,26.6279l1.03381,6.99966z"></path><path d="M561.6758,241.30082l-28.17809,-29.29674l0.95081,-1.66176l7.17822,-7.29763l29.1793,32.13541l-0.77013,7.05841z"></path><path d="M548.52812,243.68064l-22.81823,-22.53448l1.61748,-2.88859l6.17034,-6.25349l28.17809,29.29674z"></path><path d="M539.42694,250.43526l-21.14481,-19.94618l2.27486,-4.154l5.15291,-5.18891l22.81823,22.53448z"></path><path d="M534.79949,261.39177l-23.74488,-21.50665l2.53008,-4.71992l4.69744,-4.67612l21.14481,19.94618z"></path><path d="M529.05334,271.21772l-25.12413,-21.95643l2.58455,-4.91722l4.54085,-4.45896l23.74488,21.50665l-0.05278,9.92949z"></path><path d="M529.05334,271.21772l-12.36814,4.17279l-19.58165,-16.58861l3.00488,-5.8383l3.82078,-3.7023z"></path><path d="M509.44544,284.06993l-18.86155,-15.55909l3.39113,-6.73921l3.12854,-2.96973l19.58165,16.58861z"></path><path d="M507.53778,297.07972l-23.18702,-18.7075l3.69964,-7.53178l2.53349,-2.32959l18.86155,15.55909z"></path><path d="M510.92913,314.1675l-32.54409,-25.79389l3.93529,-8.22154l2.03043,-1.77984l23.18702,18.7075z"></path><path d="M510.05636,327.74658l-37.38805,-29.24029l4.10156,-8.8148l1.61516,-1.31789l32.54409,25.79389l2.47276,6.05209l-0.68356,4.51475z"></path><path d="M503.9431,337.26321l-36.7595,-28.4973l4.19882,-9.31949l1.28589,-0.94013l37.38805,29.24029z"></path><path d="M491.74371,342.18398l-26.63327,-20.56411l-2.20105,-4.75707l3.22729,-7.45601l1.04692,-0.64088l36.7595,28.4973l-1.99248,4.43445l-5.35069,2.40562z"></path><path d="M491.74371,342.18398l-39.15824,-7.81312l12.52497,-12.75099z"></path><path d="M465.11044,321.61987l-12.52497,12.75099l-4.50784,0.11551l2.09154,-14.61602l12.74021,-3.00756z"></path><path d="M450.16918,319.87036l-4.87881,-9.63609l7.84246,-4.7482l13.00385,3.92071l-3.22729,7.45601z"></path><path d="M466.13668,309.40679l-13.00385,-3.92071l1.8923,-8.52104l2.91765,-2.11563l13.43965,4.59701l-4.19882,9.31949z"></path><path d="M471.38243,299.44642l-13.43965,-4.59701l-0.00272,-8.25889l3.66064,-2.73779l15.16919,5.83877l-4.10156,8.8148z"></path><path d="M476.76988,289.69149l-15.16919,-5.83877l0.16017,-7.86195l3.9077,-3.01016l16.65177,7.17146l-3.93529,8.22154z"></path><path d="M482.32033,280.15206l-16.65177,-7.17146l0.31065,-7.43164l4.16366,-3.30457l17.90753,8.59605l-3.69964,7.53178z"></path><path d="M488.0504,270.84044l-17.90753,-8.59605l0.45033,-6.96235l4.42935,-3.62711l18.95246,10.11671l-3.39113,6.73921z"></path><path d="M493.97501,261.77164l-18.95246,-10.11671l0.57821,-6.44704l4.70854,-3.98517l19.79912,11.74089l-3.00488,5.8383z"></path><path d="M500.10843,252.9636l-19.79912,-11.74089l0.69013,-5.87752l4.97808,-4.36037l20.53624,13.35925l-2.58455,4.91722z"></path><path d="M506.51376,244.34408l-20.53624,-13.35925l0.7756,-5.28953l5.00067,-4.52472l21.8309,13.99462l-2.53008,4.71992z"></path><path d="M513.58469,235.1652l-21.8309,-13.99462l0.83069,-5.05653l5.18236,-4.76091l22.79015,14.98194l-2.27486,4.154z"></path><path d="M520.55698,226.33508l-22.79015,-14.98194l0.83153,-4.69512l5.59007,-5.17391l23.13894,16.77346l-1.61748,2.88859z"></path><path d="M527.32737,218.25758l-23.13894,-16.77346l0.76914,-3.95696l6.01789,-5.6134l23.47306,18.42857l-0.95081,1.66176z"></path><path d="M534.44852,210.34233l-23.47306,-18.42857l0.67912,-3.20747l6.33752,-5.94147l24.12752,19.43695l-0.49287,0.84292z"></path><path d="M542.11962,202.20178l-24.12752,-19.43695l0.59691,-2.69914l6.65614,-6.2349l24.7488,20.35273z"></path><path d="M549.99394,194.18351l-24.7488,-20.35273l0.53763,-2.41558l6.68854,-6.24978l25.83604,20.56092l-8.29142,8.44346z"></path><path d="M558.30735,185.72634l-25.83604,-20.56092l0.18083,-0.8429l4.14332,-3.83689l39.69409,0.53124l-1.59138,3.88482l-7.35798,11.59138l-8.79743,8.95504z"></path><path d="M576.48955,161.01688l-39.69409,-0.53124l13.02896,-160.48564h51.69641l0.42905,16.25457l-0.37608,32.9953l-1.61,27.4994l-2.72967,23.17891l-3.79223,19.64423l-4.77791,16.44746l-6.61115,15.75595z"></path><path d="M532.65214,164.32252l-94.5761,-115.4854l-0.20705,-48.83712h111.95543l-13.02896,160.48564z"></path><path d="M525.78277,171.41521l-87.84144,-74.58461l-0.25173,-37.27514l0.38644,-10.71834l94.5761,115.4854l-0.18083,0.8429z"></path><path d="M518.589,180.06569l-80.67906,-65.69338l-0.11237,-14.4607l0.14375,-3.08101l87.84144,74.58461l-0.53763,2.41558z"></path><path d="M511.65458,188.7063l-73.72514,-55.0991l-0.1468,-16.78159l0.12731,-2.45329l80.67906,65.69338l-0.59691,2.69914z"></path><path d="M504.95757,197.52716l-67.02323,-45.66566l-0.15708,-15.68979l0.15217,-2.56451l73.72514,55.0991l-0.67912,3.20747z"></path><path d="M498.59837,206.65803l-60.66126,-37.95987l-0.16558,-14.43961l0.16283,-2.39705l67.02323,45.66566l-0.76914,3.95696z"></path><path d="M492.58447,216.11405l-54.64135,-31.98089l-0.1737,-13.27605l0.16769,-2.15896l60.66126,37.95987l-0.83153,4.69512z"></path><path d="M486.75312,225.6953l-48.80035,-26.63472l-0.19301,-12.86136l0.18337,-2.06606l54.64135,31.98089l-0.83069,5.05653z"></path><path d="M480.99943,235.34519l-43.03491,-21.79553l-0.21664,-12.48396l0.20488,-2.00513l48.80035,26.63472l-0.7756,5.28953z"></path><path d="M475.60077,245.20788l-37.62171,-17.57669l-0.24571,-12.13309l0.23118,-1.94844l43.03491,21.79553l-0.69013,5.87752z"></path><path d="M470.5932,255.28203l-32.59591,-13.94756l-0.28199,-11.80744l0.26377,-1.89585l37.62171,17.57669l-0.57821,6.44704z"></path><path d="M465.97921,265.54896l-27.9587,-10.86095l-0.32799,-11.50624l0.30477,-1.84729l32.59591,13.94756l-0.45033,6.96235z"></path><path d="M461.76086,275.99076l-23.71027,-8.2708l-0.38733,-11.22918l0.35724,-1.80278l27.9587,10.86095l-0.31065,7.43164z"></path><path d="M457.94005,286.59051l-15.26526,-4.71559l-4.76344,-5.63689l-0.28641,-6.75567l0.42565,-1.7624l23.71027,8.2708l-0.16017,7.86195z"></path><path d="M455.02512,296.96503l-9.59974,-4.21381l-2.75059,-10.87629l15.26526,4.71559l0.00272,8.25889z"></path><path d="M445.29036,310.23427l-7.01807,-2.63548l7.15309,-14.84757l9.59974,4.21381l-1.8923,8.52104z"></path><path d="M438.2723,307.59879l-0.41743,0.02871l-6.36746,-16.0793l1.04623,-7.8337l5.37772,-7.47646l4.76344,5.63689l2.75059,10.87629z"></path><path d="M431.69042,310.978l-9.3531,-7.07564l-0.74735,-5.47534l9.89744,-6.87882l6.36746,16.0793z"></path><path d="M431.48741,291.54819l-9.89744,6.87882l-4.49136,-5.01605l1.28134,-5.40129l14.15369,-4.29518z"></path><path d="M432.53363,283.7145l-14.15369,4.29518l-4.87741,-5.61673l0.9953,-4.9684l23.1271,-7.94218l0.28641,6.75567z"></path><path d="M437.62494,269.48237l-23.1271,7.94218l-5.01028,-5.9296l0.73852,-4.49375l27.43719,-10.51041l0.38733,11.22918z"></path><path d="M437.66326,256.49078l-27.43719,10.51041l-5.16847,-6.27306l0.50873,-3.97263l32.12618,-13.57374l0.32799,11.50624z"></path><path d="M437.69252,243.18177l-32.12618,13.57374l-5.35288,-6.65219l0.30759,-3.39925l37.19425,-17.17703l0.28199,11.80744z"></path><path d="M437.71529,229.52704l-37.19425,17.17703l-5.56845,-7.07298l0.14072,-2.76693l42.64003,-21.36605l0.24571,12.13309z"></path><path d="M437.73335,215.49811l-42.64003,21.36605l-5.49928,-7.1213l2.20781,-3.84832l45.94603,-24.82882l0.21664,12.48396z"></path><path d="M437.74789,201.06571l-45.94603,24.82882l-4.23464,-10.59062l50.19253,-29.10468l0.19301,12.86136z"></path><path d="M437.75975,186.19922l-50.19253,29.10468l-6.35124,-0.69458l-3.69344,-4.88473l-0.0433,-1.50113l60.29018,-37.36634l0.1737,13.27605z"></path><path d="M437.76942,170.85712l-60.29018,37.36634l-6.36141,-8.44115l-0.03463,-0.6571l66.68832,-44.86666l0.16558,14.43961z"></path><path d="M437.77152,154.25855l-66.68832,44.86666l-6.64231,-8.82982l73.33637,-54.12368l0.15708,15.68979z"></path><path d="M437.77727,136.17171l-73.33637,54.12368l-0.14275,-0.05239l-6.55704,-8.71443l80.04154,-64.70297l0.1468,16.78159z"></path><path d="M437.78264,116.8256l-80.04154,64.70297l-0.6673,-0.24251l-6.41998,-8.53379l87.14376,-72.84066l0.11237,14.4607z"></path><path d="M437.79758,99.91161l-87.14376,72.84066l-0.99384,-0.3555l-5.57078,-7.40314l93.6004,-105.43818l0.25173,37.27514z"></path><path d="M437.6896,59.55546l-93.6004,105.43818l-1.9599,-0.61887l-2.83346,-3.8833l12.88558,-160.49147h85.68758l0.20705,48.83712z"></path><path d="M352.18142,0l-12.88558,160.49147l-43.63632,-8.04742l-6.33395,-13.88195l-5.07631,-15.94908l-4.07171,-18.94165l-3.02853,-22.34746l-1.93946,-26.48178l-0.75326,-31.70216l0.36676,-23.13997z"></path><path d="M310.5893,178.29409l-7.8935,-10.63411l-6.58846,-13.74588l-0.44781,-1.47006l43.63632,8.04742l2.83346,3.8833l-25.53398,19.08389z"></path><path d="M319.32747,187.21526l-2.73215,-3.7566l25.53398,-19.08389l1.9599,0.61887l5.57078,7.40314l-24.09718,20.11237z"></path><path d="M327.99696,195.91474l-2.43417,-3.4056l24.09718,-20.11237l0.99384,0.3555l6.41998,8.53379l-23.74233,19.12295z"></path><path d="M336.37241,204.72825l-3.04094,-4.31923l23.74233,-19.12295l0.6673,0.24251l6.55704,8.71443l-23.26085,18.37815z"></path><path d="M344.50957,213.61595l-3.47228,-4.99479l23.26085,-18.37815l0.14275,0.05239l6.64231,8.82982l0.03463,0.6571l-22.93353,16.86851z"></path><path d="M352.32685,222.67685l-4.14255,-6.02603l22.93353,-16.86851l6.36141,8.44115l0.0433,1.50113l-22.64367,15.02954z"></path><path d="M359.78021,231.9532l-4.90133,-7.19907l22.64367,-15.02954l3.69344,4.88473l-1.67032,7.5416l-17.77943,11.38321z"></path><path d="M367.01596,241.30744l-5.24973,-7.7733l17.77943,-11.38321l9.18262,7.61608l-19.86421,12.97379z"></path><path d="M374.1608,250.63854l-5.29673,-7.89775l19.86421,-12.97379l0.86576,-0.02415l5.49928,7.1213l-0.14072,2.76693l-19.68745,11.84324z"></path><path d="M381.03226,260.11719l-5.76712,-8.64286l19.68745,-11.84324l5.56845,7.07298l-0.30759,3.39925l-18.88762,10.22856z"></path><path d="M387.3391,269.35912l-6.01327,-9.02725l18.88762,-10.22856l5.35288,6.65219l-0.50873,3.97263z"></path><path d="M393.2659,278.58742l-5.81437,-8.6972l-0.11243,-0.53109l17.7185,-8.63099l5.16847,6.27306l-0.73852,4.49375z"></path><path d="M399.0157,288.05748l-5.52543,-8.16655l-0.22437,-1.30351l16.22166,-7.09247l5.01028,5.9296l-0.9953,4.9684z"></path><path d="M404.61423,297.75284l-5.35812,-7.71892l-0.2404,-1.97644l14.48684,-5.66453l4.87741,5.61673l-1.28134,5.40129z"></path><path d="M410.10135,307.65808l-5.34969,-7.33341l-0.13744,-2.57183l12.48438,-4.34187l4.49136,5.01605l0.74735,5.47534z"></path><path d="M414.52545,316.46914l-4.56977,-5.67892l0.14567,-3.13214l12.23596,-3.75572l9.3531,7.07564l-2.67015,5.9605z"></path><path d="M429.90498,331.39488l-17.36684,-8.15094l1.9873,-6.7748l14.49482,0.46936z"></path><path d="M434.03101,345.16672l-27.53985,12.30102l-13.81231,-18.89209l19.85929,-15.3317l17.36684,8.15094z"></path><path d="M414.52545,316.46914l-1.9873,6.7748l-19.85929,15.3317l-8.83217,-7.55674l26.109,-20.22868z"></path><path d="M409.95568,310.79022l-26.109,20.22868l-10.8609,-5.87636l31.76589,-24.81788l5.34969,7.33341z"></path><path d="M404.75167,300.32467l-31.76589,24.81788l-0.315,-0.10325l0.88222,-14.66294l25.7031,-20.34243l5.35812,7.71892z"></path><path d="M399.25611,290.03392l-25.7031,20.34243l-2.45225,-12.45486l22.38952,-18.03056l5.52543,8.16655z"></path><path d="M393.49027,279.89093l-22.38952,18.03056l-5.80784,-9.79381l22.15861,-18.23746l5.81437,8.6972z"></path><path d="M365.29292,288.12768l-9.09001,-7.03263l24.82936,-20.97785l0.29357,0.21468l6.01327,9.02725l0.11243,0.53109z"></path><path d="M381.03226,260.11719l-24.82936,20.97785l-12.17455,-4.20501l30.13244,-26.2515l1.10435,0.8358z"></path><path d="M374.1608,250.63854l-30.13244,26.2515l-14.8958,-1.39192l37.88341,-34.19068l1.84811,1.43335z"></path><path d="M367.01596,241.30744l-37.88341,34.19068l-4.92773,0.37075l-3.72079,-4.83759l0.48705,-2.61599l38.80912,-36.4621l1.98602,1.58094z"></path><path d="M359.78021,231.9532l-38.80912,36.4621l0.32803,-15.23502l31.02772,-30.50343l2.55203,2.07728z"></path><path d="M352.32685,222.67685l-31.02772,30.50343l-2.73581,-12.7246l25.94625,-26.83973l3.67473,3.03487z"></path><path d="M344.50957,213.61595l-25.94625,26.83973l-5.84916,-9.81987l23.65825,-25.90756l4.66488,3.8929z"></path><path d="M312.71416,230.63581l-8.82881,-6.58085l24.1116,-28.14022l5.33451,4.49427l3.04094,4.31923z"></path><path d="M327.99696,195.91474l-24.1116,28.14022l-7.59651,-2.1013l-0.86102,-4.78646l23.89965,-29.95194l6.23532,5.29388z"></path><path d="M319.32747,187.21526l-23.89965,29.95194l-6.09733,-10.0172l21.2588,-28.8559l6.00602,5.16456z"></path><path d="M289.3305,207.15l-4.26328,-2.48307l-2.30052,-7.41564l19.92909,-29.59131l7.8935,10.63411z"></path><path d="M282.7667,197.25129l-9.61776,-5.60715l22.95839,-37.73004l6.58846,13.74588z"></path><path d="M296.10733,153.9141l-22.95839,37.73004l-13.1832,2.37907l0.17663,-1.64491l29.18321,-53.81621l6.33395,13.88195z"></path><path d="M289.32557,138.5621l-29.18321,53.81621l-4.54906,-15.52383l28.65596,-54.24147z"></path><path d="M255.5933,176.85448l-12.20442,-1.15153l36.78866,-72.03158l4.07171,18.94165z"></path><path d="M280.17755,103.67137l-36.78866,72.03158l-18.96976,12.94575l52.72989,-107.3248z"></path><path d="M222.33756,190.82523l-7.8782,-3.75272l-0.36358,-2.22348l61.11378,-130.00691l1.93946,26.48178l-52.72989,107.3248z"></path><path d="M275.20956,54.84213l-61.11378,130.00691l-0.71912,-1.89134l-0.43741,-22.20653l61.51705,-137.6112z"></path><path d="M274.82306,0l-0.36676,23.13997l-61.51705,137.6112l-8.35015,-9.23835l63.95958,-151.51281z"></path><path d="M268.54868,0l-63.95958,151.51281l-11.15621,5.94488l-2.92185,-1.31566l61.72812,-156.14203z"></path><path d="M252.23916,0l-61.72812,156.14203l-8.72786,0.47461l-2.2471,-2.91663l56.33547,-153.70001z"></path><path d="M235.87155,0l-56.33547,153.70001l-9.90485,-5.29157l49.80817,-148.40844z"></path><path d="M219.4394,0l-49.80817,148.40844l-11.55368,-0.1151l44.85262,-148.29333z"></path><path d="M186.32466,0h16.6055l-44.85262,148.29333l-12.63564,4.88278z"></path><path d="M186.32466,0l-40.88276,153.17611l-6.15705,4.37011l-5.27424,-1.98621l35.58575,-155.56001z"></path><path d="M169.59636,0l-35.58575,155.56001l-10.21757,-1.60597l28.91732,-153.95404z"></path><path d="M152.71036,0l-28.91732,153.95404l-9.40271,0.42098l-0.81701,-1.14208l22.04889,-153.23294z"></path><path d="M135.62222,0l-22.04889,153.23294l-9.26952,-8.73388l13.97275,-144.49906z"></path><path d="M118.27657,0l-13.97275,144.49906l-10.09337,-5.45832l6.39515,-139.04074z"></path><path d="M82.52761,0h18.07798l-6.39515,139.04074l-10.51888,-1.7744z"></path><path d="M82.52761,0l1.16394,137.26635l-10.33305,2.01851l-10.01355,-139.28485z"></path><path d="M63.34496,0l10.01355,139.28485l-8.74139,5.01675l-26.79644,-144.30161z"></path><path d="M37.82069,0l26.79644,144.30161l-5.79501,5.8573l-57.96713,-150.15891z"></path><path d="M0,0h0.85497l57.96713,150.15891l-1.52987,2.47592l-1.80158,-1.36839l-55.49066,-67.28368z"></path><path d="M0,83.98276l55.49066,67.28368l-55.49066,-24.60755z"></path><path d="M0,126.65889l55.49066,24.60755l1.80158,1.36839l-0.01137,0.08857l-57.28087,-0.71015z"></path><path d="M0,152.01325l57.28087,0.71015l0.43558,4.99188l-57.71646,13.52528z"></path><path d="M0,171.24056l57.71646,-13.52528l2.31479,7.39873l-60.03124,23.2933z"></path><path d="M0,188.40731l60.03124,-23.2933l1.17388,2.05316l-6.50632,10.74837l-54.69881,26.93397z"></path><path d="M0,204.84951l54.69881,-26.93397l-2.77072,13.62009l-51.92809,29.46984z"></path><path d="M0,221.00547l51.92809,-29.46984l5.09922,9.93143l-57.02731,35.54215z"></path><path d="M69.82891,206.44411l-69.82891,46.4281v-15.86299l57.02731,-35.54215z"></path><path d="M0,252.8722l69.82891,-46.4281l4.00792,-0.01711l5.99679,6.60712l-79.83361,55.50572z"></path><path d="M90.24133,219.31313l-90.24133,64.58927v-15.36255l79.83361,-55.50572z"></path><path d="M0,283.9024l90.24133,-64.58927l13.30769,4.24551l-103.54902,75.22092z"></path><path d="M100.06551,240.21566l-100.06551,72.65624v-14.09234l103.54902,-75.22092l1.08734,0.14617z"></path><path d="M0,312.8719l100.06551,-72.65624l0.17822,14.12917l-100.24373,71.29439z"></path><path d="M0,325.63922l100.24373,-71.29439l5.36135,10.5187l-105.60508,71.09292z"></path><path d="M0,335.95646l105.60508,-71.09292l3.95454,2.59055l2.28378,7.69272l-93.81384,55.08214l-18.02955,9.23316z"></path><path d="M121.0069,284.77532l-102.97735,45.45363l93.81384,-55.08214l8.80251,8.26992z"></path><path d="M128.95031,295.04832l-128.95031,46.43782v-2.02403l18.02955,-9.23316l102.97735,-45.45363z"></path><path d="M138.20969,305.77053l-138.20969,37.57274v-1.85713l128.95031,-46.43782l9.99889,6.70475z"></path><path d="M134.88324,319.99545l-134.88324,24.03957v-0.69175l138.20969,-37.57274l0.7516,11.71575z"></path><path d="M123.5701,333.88622l-123.5701,10.92096v-0.77216l134.88324,-24.03957z"></path><path d="M0,344.80718l123.5701,-10.92096l4.40521,11.6152l-127.97532,1.35094z"></path><path d="M132.7274,357.61046l-132.7274,-6.77393v-3.98418l127.97532,-1.35094l9.43069,5.56811z"></path><path d="M130.58684,369.30939l-130.58684,-11.19001v-7.28285l132.7274,6.77393z"></path><path d="M134.39649,381.38167l-134.39649,-13.92423v-9.33805l130.58684,11.19001z"></path><path d="M143.518,393.27904l-143.518,-11.91247v-13.90914l134.39649,13.92423z"></path><path d="M141.52725,403.18755l-141.52725,-3.76455v-18.05643l143.518,11.91247l4.37834,3.68597l-0.59075,3.78213z"></path><path d="M0,399.423l141.52725,3.76455l-13.74079,9.99588l-127.78646,9.24114z"></path><path d="M122.47975,424.35883l-122.47975,29.43744v-31.3717l127.78646,-9.24114z"></path><path d="M128.12587,433.045l-99.50672,53.28978l-28.61915,1.51414v-34.05264l122.47975,-29.43744z"></path><path d="M95.2037,480.79907l-24.50918,3.3256l-41.41277,2.21025l-0.6626,-0.00014l99.50672,-53.28978l10.73503,2.29368z"></path><path d="M145.90456,433.89405l-16.01206,40.49633l-9.82108,3.25094l-21.72748,3.08905l-3.14022,0.0687l43.6572,-45.4604z"></path><path d="M151.24803,430.93032l-1.76144,38.00184l-12.66514,4.7612l-6.92895,0.69702l16.01206,-40.49633z"></path><path d="M157.07638,425.49891l6.32431,38.10587l-0.4695,0.51181l-12.42069,4.79992l-1.02392,0.01565l1.76144,-38.00184l5.76708,-5.45902z"></path><path d="M175.23653,458.54887l-0.60424,0.78905l-11.23159,4.26686l-6.32431,-38.10587l8.90947,1.96475z"></path><path d="M176.28476,427.22773l10.11083,26.71797l-0.42605,0.60543l-10.73301,3.99775l-9.25068,-31.08522z"></path><path d="M186.5402,424.08224l10.82514,25.6981l-0.09891,0.13731l-10.87084,4.02805l-10.11083,-26.71797z"></path><path d="M196.14225,417.73322l11.98908,28.0555l-10.76599,3.99162l-10.82514,-25.6981z"></path><path d="M218.66143,442.30142l-9.87706,3.62566l-0.65304,-0.13837l-11.98908,-28.0555l9.14662,-10.29071z"></path><path d="M220.06104,407.71287l8.5911,31.68553l-8.68027,3.13842l-1.31044,-0.2354l-13.37256,-34.85892l0.05249,-0.09117z"></path><path d="M233.95193,409.47338l4.92224,27.27966l-8.24718,2.97952l-1.97485,-0.33416l-8.5911,-31.68553l8.27111,-1.86288z"></path><path d="M249.14782,433.88321l-8.59264,3.1801l-1.68101,-0.31027l-4.92224,-27.27966l13.43281,3.64145z"></path><path d="M258.17078,430.69595l-8.72046,3.26447l-0.30251,-0.07721l-1.76308,-20.76838l16.83584,-2.74062z"></path><path d="M305.57173,415.32797l-24.03796,30.054l-23.36298,-14.68602l6.04979,-20.32174l20.10295,-10.22341l11.11241,0.88574z"></path><path d="M258.17078,430.69595l23.36298,14.68602l-10.02689,20.97264l-22.05655,-32.39419z"></path><path d="M271.50687,466.35461l-2.87812,10.63226l-12.37749,0.42879l-15.69609,-40.35234l8.59264,-3.1801l0.30251,0.07721z"></path><path d="M256.25127,477.41566l-9.40142,1.92822l-6.68644,-3.18454l-9.53642,-36.42678l8.24718,-2.97952l1.68101,0.31027z"></path><path d="M230.62698,439.73256l9.53642,36.42678l-13.56049,-3.31924l-6.63105,-30.30327l8.68027,-3.13842z"></path><path d="M219.97187,442.53682l6.63105,30.30327l-11.14178,0.26447l-6.67677,-27.17748l9.87706,-3.62566z"></path><path d="M215.46114,473.10456l-9.27545,3.04676l-8.91926,-26.23368l0.09891,-0.13731l10.76599,-3.99162l0.65304,0.13837z"></path><path d="M206.18569,476.15133l-7.9958,5.54464l-12.22035,-27.14485l0.42605,-0.60543l10.87084,-4.02805z"></path><path d="M198.18988,481.69597l-3.18381,3.74785l-9.30827,-6.86371l-11.06551,-19.24219l0.60424,-0.78905l10.73301,-3.99775z"></path><path d="M174.63229,459.33793l11.06551,19.24219l-14.80767,-3.32194l-7.95894,-11.14158l0.4695,-0.51181z"></path><path d="M170.89013,475.25817l-6.38206,9.6952l-13.99757,-16.03686l12.42069,-4.79992z"></path><path d="M164.50807,484.95338l3.60991,18.32744l-31.29653,-29.58745l12.66514,-4.7612l1.02392,-0.01565z"></path><path d="M171.93785,511.11716l-3.83969,4.03336l-48.02675,-37.5092l9.82108,-3.25094l6.92895,-0.69702l31.29653,29.58745z"></path><path d="M120.07141,477.64132l48.02675,37.5092l-4.67251,7.31907l-65.08173,-41.73923z"></path><path d="M98.34393,480.73037l65.08173,41.73923l-3.22234,8.10963l-89.50879,-46.45456l24.50918,-3.3256z"></path><path d="M70.69452,484.12467l89.50879,46.45456l-1.70441,8.58932l-129.21715,-52.83363z"></path><path d="M29.28175,486.33492l129.21715,52.83363l-0.11121,4.49855l-8.26901,1.74383l-150.11868,-46.12926v-11.43276l28.61915,-1.51414z"></path><path d="M0,499.28167l150.11868,46.12926l-14.05298,6.18333l-136.06571,-28.77048z"></path><path d="M0,522.82378l136.06571,28.77048l-9.2094,9.0117l-126.85631,-15.11807z"></path><path d="M0,545.48789l126.85631,15.11807l-1.59407,10.67923l-125.26223,-3.59415z"></path><path d="M0,567.69104l125.26223,3.59415l6.45618,10.41471l-131.71841,8.10224z"></path><path d="M138.90007,586.64243l-7.71105,5.48158l-131.18902,20.04231v-22.36419l131.71841,-8.10224z"></path><path d="M0,612.16632l131.18902,-20.04231l-6.52773,12.29305l-124.66129,30.70619z"></path><path d="M0,635.12325l124.66129,-30.70619l7.11951,9.20655l-131.7808,48.41883z"></path><path d="M0,662.04244l131.7808,-48.41883l18.22054,3.83127l-150.00134,67.17219z"></path><path d="M152.26042,617.35266l5.38163,9.34272l-130.39518,57.58081l-17.85745,2.25382l-9.38943,0.78149v-2.68444l150.00134,-67.17219z"></path><path d="M161.5389,630.92844l-1.37362,8.46857l-113.90547,43.18005l-4.20168,0.55885l-14.81125,1.14029l130.39518,-57.58081z"></path><path d="M160.16528,639.39701l1.16012,13.81941l-106.26596,28.70325l-8.79963,0.65739z"></path><path d="M56.94303,681.89808l-1.88359,0.02158l106.26596,-28.70325l5.06122,13.22746z"></path><path d="M172.95495,675.66553l-1.95728,4.85532l-110.34863,1.57369l-3.70601,-0.19646l109.44359,-15.4542z"></path><path d="M60.64903,682.09454l110.34863,-1.57369l-2.40875,14.60761z"></path><path d="M60.64903,682.09454l107.93988,13.03392l0.34534,4.86366l-4.82532,7.00896l-0.74628,0.63393l-121.30452,-24.4991l4.20168,-0.55885l8.79963,-0.65739l1.88359,-0.02158z"></path><path d="M42.05813,683.13591l121.30452,24.4991l-6.22432,9.13823l-1.55149,1.13426l-146.19742,-31.37747l17.85745,-2.25382z"></path><path d="M0,687.31151l9.38943,-0.78149l146.19742,31.37747l-5.44246,8.29537l-2.15935,1.18503l-147.98504,-22.89314z"></path><path d="M0,704.49475l147.98504,22.89314l-5.19523,8.94297l-142.78981,10.75699z"></path><path d="M0,747.08786l142.78981,-10.75699l40.1672,127.66914h-182.95701z"></path><path d="M182.95701,864l-40.1672,-127.66914l5.19523,-8.94297l2.15935,-1.18503l62.82812,137.79714z"></path><path d="M157.13833,716.77324l75.90309,139.49679l0.91882,7.72997h-20.98773l-62.82812,-137.79714l5.44246,-8.29537z"></path><path d="M231.90574,841.79825l1.13569,14.47178l-75.90309,-139.49679l6.22432,-9.13823l0.74628,-0.63393l64.90475,111.28111z"></path><path d="M175.11593,702.97039l52.18927,90.71965l1.70848,24.59214l-64.90475,-111.28111l4.82532,-7.00896z"></path><path d="M227.28026,784.36099l0.02495,9.32905l-52.18927,-90.71965l15.04554,2.40943l36.44396,70.1768z"></path><path d="M190.16148,705.37982l11.44018,-4.42634l25.08244,60.93542l-0.07866,13.66771z"></path><path d="M226.997,758.94088l-0.31291,2.94803l-25.08244,-60.93542l9.78905,-13.26456l15.61195,63.27724z"></path><path d="M226.56605,681.27616l1.37574,62.06336l-0.93914,7.62665l-15.61195,-63.27724l6.46401,-18.39871z"></path><path d="M241.49327,693.82677l-13.55148,49.51275l-1.37574,-62.06336z"></path><path d="M254.37716,697.29112l-27.38015,61.64975l0.00565,-7.97471l0.93914,-7.62665l13.55148,-49.51275z"></path><path d="M254.37716,697.29112l12.5169,-1.80554l0.6858,0.74915l-40.29961,88.12626l-0.67482,-8.80437l0.07866,-13.66771l0.31291,-2.94803z"></path><path d="M275.35194,700.96768l-43.4462,140.83057l-2.89205,-23.51606l-1.70848,-24.59214l-0.02495,-9.32905l40.29961,-88.12626z"></path><path d="M282.13183,704.48716l-9.70304,159.51284h-38.46855l-0.91882,-7.72997l-1.13569,-14.47178l43.4462,-140.83057l5.10597,1.25201z"></path><path d="M290.30231,709.93291l34.77524,154.06709h-52.64876l9.70304,-159.51284z"></path><path d="M325.07754,864l-34.77524,-154.06709l10.38514,0.54724l73.1028,153.51985z"></path><path d="M373.79024,864l-73.1028,-153.51985l7.8272,-7.09114l109.92883,160.611z"></path><path d="M439.01254,864h-20.56907l-109.92883,-160.611l2.73774,-12.85751l127.68881,147.4689z"></path><path d="M439.06105,833.89853l-0.11985,4.10186l-127.68881,-147.4689l-1.44719,-11.55853l1.02461,-2.88774l128.12349,125.22733z"></path><path d="M317.43291,668.0569l121.51668,110.0638l0.07751,21.03934l-0.0738,2.1525l-128.12349,-125.22733l0.89427,-6.6142l5.38106,-1.36083z"></path><path d="M439.05647,775.33001l-0.10688,2.79069l-121.51668,-110.0638l10.14032,-3.84819l111.377,86.22923z"></path><path d="M439.05576,748.04129l-0.10553,2.39665l-111.377,-86.22923l8.60559,-6.01187l102.77188,68.28013z"></path><path d="M439.05526,724.38197l-0.10456,2.095l-102.77188,-68.28013l6.3796,-8.03203l96.39253,55.20117z"></path><path d="M439.05499,703.50219l-0.10404,1.8638l-96.39253,-55.20117l3.69222,-9.71701l92.70033,45.99362z"></path><path d="M439.05498,684.75532l-0.10403,1.68611l-92.70033,-45.99362l0.769,-10.24608l0.80435,-0.41217l81.40717,35.20727l9.80139,16.41127z"></path><path d="M356.63246,622.00118l63.40137,24.0783l9.19733,18.91736l-81.40717,-35.20727z"></path><path d="M418.71371,642.3524l1.32011,3.72707l-63.40137,-24.0783l5.49777,-9.50822l50.2233,16.90206z"></path><path d="M371.13887,603.7809l36.6004,11.03912l4.61426,14.575l-50.2233,-16.90206l0.60575,-3.68272z"></path><path d="M406.80019,606.50158l0.93908,8.31844l-36.6004,-11.03912l5.22989,-10.16871l28.68695,7.8637z"></path><path d="M373.72443,581.29634l30.2222,7.65944l1.10909,12.52012l-28.68695,-7.8637z"></path><path d="M404.20974,587.7273l-0.26311,1.22847l-30.2222,-7.65944l-10.35202,-14.04666l39.80605,9.51973z"></path><path d="M356.88889,556.88372l5.86619,-1.29722l40.50849,9.36016l0.9359,8.1818l-1.02102,3.64094l-39.80605,-9.51973l-8.90819,-7.8139z"></path><path d="M404.70668,560.63811l-1.4431,4.30856l-40.50849,-9.36016l17.58029,-7.63804l23.31676,5.34383z"></path><path d="M405.50027,548.62188l-1.84813,4.67041l-23.31676,-5.34383l9.35054,-9.60888l14.54826,3.40035z"></path><path d="M406.54907,536.83465l-2.31489,4.90528l-14.54826,-3.40035l1.00446,-11.59439l14.2615,3.4966z"></path><path d="M407.8852,525.18174l-2.93332,5.06005l-14.2615,-3.4966l-3.82577,-7.10333l7.3594,-4.39215l11.58916,3.72984z"></path><path d="M410.07192,513.59686l-4.25875,5.38268l-11.58916,-3.72984l5.09208,-10.87244l7.20852,2.87751z"></path><path d="M400.10889,492.26705l14.29765,9.76843l-7.88192,5.21928l-7.20852,-2.87751l-2.24256,-9.85528z"></path><path d="M438.86523,500.3507l-0.19065,1.07457l-24.26805,0.61021l-14.29765,-9.76843l8.11303,-10.29652l29.9281,-1.55352z"></path><path d="M438.67459,501.42527l0.36605,10.17973l-1.65641,1.0232l-27.31231,0.96865l-3.54731,-6.3421l7.88192,-5.21928z"></path><path d="M410.07192,513.59686l27.31231,-0.96865l-11.82801,11.6597l-17.67103,0.89384l-2.07203,-6.20221z"></path><path d="M425.55622,524.2879l-4.44297,11.50633l-14.56418,1.04042l-1.59719,-6.59287l2.93332,-5.06005z"></path><path d="M406.54907,536.83465l14.56418,-1.04042l3.16326,10.94704l-18.77623,1.88061l-1.26609,-6.88195z"></path><path d="M405.50027,548.62188l18.77623,-1.88061l8.60338,8.15761l-1.17209,1.93033l-27.00112,3.80891l-1.05454,-7.34582z"></path><path d="M431.7078,556.8292l-2.25853,11.08921l-25.24979,5.21006l-0.9359,-8.1818l1.4431,-4.30856z"></path><path d="M429.44927,567.91841l2.34658,9.17505l-27.58611,10.63385l-1.03129,-10.95789l1.02102,-3.64094z"></path><path d="M404.20974,587.7273l27.58611,-10.63385l5.10894,5.91508l-30.10461,23.49305l-1.74447,-5.02568l-1.10909,-12.52012z"></path><path d="M439.86718,584.42714l0.03964,0.79353l-21.19311,57.13174l-6.36019,-12.95739l-4.61426,-14.575l-0.93908,-8.31844l30.10461,-23.49305z"></path><path d="M439.90683,585.22067l23.65096,48.34903l-3.74869,10.46244l-9.32622,18.73882l-11.45032,18.63715l-9.80139,-16.41127l-9.19733,-18.91736l-1.32011,-3.72707z"></path><path d="M443.67498,583.14647l29.11773,18.95356l-1.34376,11.16582l-4.90717,14.57136l-2.984,5.73248l-23.65096,-48.34903l-0.03964,-0.79353z"></path><path d="M450.23961,576.82632l24.01833,7.71101l0.65076,3.0684l-1.37371,12.54955l-0.74228,1.94476l-29.11773,-18.95356z"></path><path d="M474.16868,570.98789l1.21777,4.52991l-1.1285,9.01953l-24.01833,-7.71101l2.33613,-10.10611z"></path><path d="M448.57006,555.28631l25.04562,3.26572l1.6652,5.16327l-1.1122,7.27258l-21.59294,-4.26768z"></path><path d="M472.72205,546.49613l2.13324,5.58103l-1.23961,6.47488l-25.04562,-3.26572l-3.97562,-4.67636l2.59977,-6.12364z"></path><path d="M448.08666,533.75479l23.42844,0.94687l2.65279,5.84856l-1.44584,5.94592l-25.52784,-2.00982z"></path><path d="M469.98686,523.08797l3.29247,6.00087l-1.76423,5.61282l-23.42844,-0.94687l-2.69363,-11.0092z"></path><path d="M467.55933,511.59739l4.60965,6.30009l-2.18212,5.1905l-24.59383,-0.34238l-6.31742,-11.10152z"></path><path d="M463.21196,500.19093l8.01057,6.01288l-3.6632,5.39358l-28.48372,0.04669l-0.03497,-0.03907l-0.36605,-10.17973l0.19065,-1.07457z"></path><path d="M441.30761,474.03397l40.66079,10.62097l-0.14527,4.1357l-18.61118,11.40029l-24.34672,0.15977l-0.71521,-19.93369z"></path><path d="M481.82313,488.79064l1.97357,10.77444l-1.54216,2.16213l-11.03201,4.4766l-8.01057,-6.01288z"></path><path d="M471.22253,506.20381l11.03201,-4.4766l-2.23249,13.55459l-7.85307,2.61567l-4.60965,-6.30009z"></path><path d="M480.02205,515.2818l8.5264,10.04134l-15.26912,3.7657l-3.29247,-6.00087l2.18212,-5.1905z"></path><path d="M488.54845,525.32314l1.20013,0.44944l1.8058,10.70066l-17.38649,4.07697l-2.65279,-5.84856l1.76423,-5.61282z"></path><path d="M491.55438,536.47324l6.82171,8.73726l-1.27844,1.76598l-22.24237,5.10067l-2.13324,-5.58103l1.44584,-5.94592z"></path><path d="M474.85529,552.07716l22.24237,-5.10067l-2.87995,12.3717l-18.93682,4.36711l-1.6652,-5.16327z"></path><path d="M494.2177,559.34819l4.3831,10.64175l-23.21436,5.52786l-1.21777,-4.52991l1.1122,-7.27258z"></path><path d="M475.38644,575.5178l23.21436,-5.52786l11.42922,8.77154l-35.12131,8.84424l-0.65076,-3.0684z"></path><path d="M474.9087,587.60573l35.12131,-8.84424l4.6189,1.74152l1.19574,8.14875l-42.30965,11.50352z"></path><path d="M473.53499,600.15528l42.30965,-11.50352l4.26049,10.07967l-48.65618,14.53444l1.34376,-11.16582z"></path><path d="M471.44895,613.26586l48.65618,-14.53444l6.72834,9.03397l-60.2917,20.07182z"></path><path d="M466.54178,627.83722l60.2917,-20.07182l8.47007,7.46277l0.06932,0.44309l-75.56378,28.36088l3.74869,-10.46244z"></path><path d="M459.80909,644.03214l75.56378,-28.36088l3.23631,9.46239l-88.12631,37.63731z"></path><path d="M450.48287,662.77095l88.12631,-37.63731l4.74592,8.55115l-104.30012,51.07052l-0.02244,-3.34722z"></path><path d="M439.05498,684.75532l104.30012,-51.07052l6.04979,7.48442l-110.34991,62.33298l-0.10403,-17.06076z"></path><path d="M439.05499,703.50219l110.34991,-62.33298l6.54757,5.82516l0.17106,0.7034l-117.06828,76.68419l-0.10431,-19.01599z"></path><path d="M439.05526,724.38197l117.06828,-76.68419l2.02789,4.90223l-3.10518,6.93828l-115.99047,88.50301l-0.10507,-21.56432z"></path><path d="M439.05576,748.04129l115.99047,-88.50301l-3.58226,15.48558l-112.40751,100.30615l-0.10624,-24.89206z"></path><path d="M439.05647,775.33001l112.40751,-100.30615l1.4356,13.55016l-113.87248,110.58602l-0.07751,-21.03934z"></path><path d="M439.0271,799.16004l113.87248,-110.58602l7.05621,8.26942l-120.89474,137.05509l-0.10776,-32.58599z"></path><path d="M439.06105,833.89853l120.89474,-137.05509l11.36348,2.24353l-115.83646,164.91303h-16.47028l-0.07134,-25.99961z"></path><path d="M455.48282,864l115.83646,-164.91303l11.99618,-2.85407l-83.42978,167.7671z"></path><path d="M583.97482,695.87482l4.95766,5.75635l-40.82983,162.36883h-48.21697l83.42978,-167.7671z"></path><path d="M548.10265,864l40.82983,-162.36883l6.30882,3.89316l5.63136,158.47568z"></path><path d="M599.75034,706.36412l5.06186,4.71157l40.3716,140.72426l-0.04391,0.61326l-1.3087,11.5868h-42.95854l-5.63136,-158.47568z"></path><path d="M604.8122,711.07569l11.84345,1.33483l33.96529,75.47029l0.03958,4.12377l-1.36585,23.42797l-4.11086,36.3674z"></path><path d="M616.65565,712.41052l6.88369,-12.48764l27.63775,61.10756l0.00322,0.02584l0.29318,12.93776l-0.85255,13.88677z"></path><path d="M623.6911,692.87447l6.94616,-14.08728l19.35855,65.02187l0.93573,6.34464l0.24554,10.87674l-27.63775,-61.10756z"></path><path d="M630.756,678.33917l19.10139,23.69691l0.13843,41.77299l-19.35855,-65.02187z"></path><path d="M649.99582,743.80906l-0.13843,-41.77299l12.9994,-4.15991l-11.92524,52.27753z"></path><path d="M650.93156,750.1537l11.92524,-52.27753l10.32748,-14.1632l7.77516,2.64308l-29.77912,74.70023l-0.00322,-0.02584z"></path><path d="M651.18031,761.05628l29.77912,-74.70023l13.42496,1.29744l-0.38966,3.20785l-42.52124,83.1327z"></path><path d="M651.47349,773.99404l42.52124,-83.1327l2.15465,21.63325l-45.48886,79.51l-0.03958,-4.12377z"></path><path d="M650.66052,792.00458l45.48886,-79.51l8.17414,8.79295l-55.02886,94.14501z"></path><path d="M649.29467,815.43254l55.02886,-94.14501l12.06678,-1.67741l0.52406,2.26778l-71.77447,130.53529l0.04391,-0.61326z"></path><path d="M643.8312,864l1.3087,-11.5868l71.77447,-130.53529l7.96693,8.39193l-62.37589,133.73016z"></path><path d="M662.50541,864l62.37589,-133.73016l7.10228,0.24988l2.27411,5.46911l-42.28059,128.01117z"></path><path d="M864,864h-27.40832h-144.61458l42.28059,-128.01117l129.74232,27.92772z"></path><path d="M864,763.91655l-129.74232,-27.92772l-2.27411,-5.46911l2.21464,-2.74439l129.80179,-18.81562z"></path><path d="M864,708.95971l-129.80179,18.81562l-1.49846,-10.9875l131.30024,-27.86141z"></path><path d="M848.43686,684.06208l15.56314,1.82696v3.03738l-131.30024,27.86141l-12.30953,-8.00648l-0.15264,-1.1188l117.88213,-24.29492z"></path><path d="M830.38483,682.42317l7.73489,0.94447l-117.88213,24.29492l-6.34464,-11.78913l104.9627,-13.78345l2.36645,-0.15291l1.45877,-0.00033z"></path><path d="M703.50154,681.91272l115.3541,0.17725l-104.9627,13.78345l-11.54931,-11.72859z"></path><path d="M707.77711,667.29424l113.44498,14.64282l-2.36645,0.15291l-115.3541,-0.17725z"></path><path d="M712.67606,653.51353l110.00481,28.4232l-1.45877,0.00033l-113.44498,-14.64282l0.88345,-13.32535z"></path><path d="M732.63164,646.20658l97.75319,36.21659l-7.70396,-0.48644l-110.00481,-28.4232z"></path><path d="M732.63164,646.20658l5.78819,-10.3463l110.01704,48.2018l-10.31714,-0.69444l-7.73489,-0.94447z"></path><path d="M733.39491,621.02343l130.60509,58.69927v6.16633l-15.56314,-1.82696l-110.01704,-48.2018z"></path><path d="M727.37575,607.52115l136.62425,51.96465v20.23691l-130.60509,-58.69927l-6.53304,-8.17611z"></path><path d="M726.33817,598.60994l137.66183,35.13682v25.73904l-136.62425,-51.96465z"></path><path d="M735.39374,591.2702l128.60626,20.76054v21.71603l-137.66183,-35.13682l-0.05932,-0.18982z"></path><path d="M742.29296,582.38596l121.70704,8.5201v21.12467l-128.60626,-20.76054z"></path><path d="M745.76128,572.44309l118.23872,-2.39326v20.85623l-121.70704,-8.5201z"></path><path d="M745.54999,562.24104l118.45001,-13.10438v20.91318l-118.23872,2.39326l-0.58238,-9.99771z"></path><path d="M755.17844,549.87555l108.82156,-22.05387v21.31498l-118.45001,13.10438z"></path><path d="M864,527.82167l-108.82156,22.05387l-6.60358,-9.7518l115.42514,-34.40559z"></path><path d="M729.34909,536.09429l123.49922,-49.27825l11.1517,0.5089v18.39321l-115.42514,34.40559z"></path><path d="M725.52509,527.56005l84.94221,-43.16701l29.63951,1.17843l12.7415,1.24456l-123.49922,49.27825l-2.46149,0.09677z"></path><path d="M721.82396,518.8743l60.17819,-37.86371l28.46514,3.38246l-84.94221,43.16701z"></path><path d="M716.06009,511.45782l43.55894,-33.40815l18.86571,2.12526l3.51741,0.83565l-60.17819,37.86371z"></path><path d="M708.58913,505.68576l34.2677,-31.82181l3.04507,0.16958l13.71713,4.01614l-43.55894,33.40815z"></path><path d="M703.99408,497.17626l24.66618,-27.74745l14.19659,4.43514l-34.2677,31.82181l-4.99321,-2.26271l-0.58139,-2.83044z"></path><path d="M703.99408,497.17626l0.27361,-16.22353l11.67493,-16.02971l11.10154,3.28151l1.61609,1.22428z"></path><path d="M697.82203,471.06911l6.38858,-10.87459l9.30619,2.45894l2.42582,2.26957l-11.67493,16.02971z"></path><path d="M685.66449,471.09874l7.20992,-15.62595l8.97312,2.14648l2.36308,2.57525l-6.38858,10.87459z"></path><path d="M672.93861,475.69947l8.67027,-24.8083l9.16472,2.11988l2.10082,2.46174l-7.20992,15.62595l-8.57395,5.25367z"></path><path d="M664.51712,469.15849l5.70565,-22.58137l9.62134,2.28309l1.76477,2.03096l-8.67027,24.8083l-3.78349,0.55131z"></path><path d="M664.51712,469.15849l-9.69751,-6.89549l4.24605,-19.45974l9.88763,2.43275l1.26948,1.34111z"></path><path d="M642.98448,461.04515l5.45628,-21.41568l9.90062,2.47519l0.72429,0.69859l-4.24605,19.45974z"></path><path d="M632.41936,464.95393l-3.31549,-2.79607l9.33989,-25.11173l9.87373,2.46991l0.12326,0.11343l-5.45628,21.41568z"></path><path d="M614.95654,456.61156l14.26025,-22.0842l8.89711,2.20199l0.32987,0.31678l-9.33989,25.11173z"></path><path d="M598.58599,447.56038l21.24349,-16.20063l8.11787,1.70236l1.26944,1.46525l-14.26025,22.0842l-14.88097,-1.05347z"></path><path d="M588.25073,424.74377l4.91932,-4.49198l21.93646,0.30125l4.72297,10.80671l-21.24349,16.20063z"></path><path d="M615.10651,420.55304l14.45569,-9.98188l-1.61485,22.49095l-8.11787,-1.70236z"></path><path d="M627.94735,433.06211l1.61485,-22.49095l0.63486,-0.92038l4.30157,-0.77943l7.1702,7.32002l-3.55493,20.53798l-8.89711,-2.20199z"></path><path d="M638.1139,436.72935l3.55493,-20.53798l11.72841,3.81076l-5.07974,19.51391l-9.87373,-2.46991z"></path><path d="M648.3175,439.51605l5.07974,-19.51391l14.4556,-3.21324l-9.51146,25.31576l-9.90062,-2.47519z"></path><path d="M658.34137,442.10466l9.51146,-25.31576l9.64206,-5.78815l3.13902,6.80009l-11.68062,27.43517l-9.88763,-2.43275z"></path><path d="M668.95329,445.23601l11.68062,-27.43517l8.22001,9.78254l-9.00982,21.27684l-9.62134,-2.28309z"></path><path d="M679.84411,448.86021l9.00982,-21.27684l9.61225,5.39319l-7.69257,20.03449l-9.16472,-2.11988z"></path><path d="M690.77359,453.01105l7.69257,-20.03449l10.56518,1.24571l-7.18381,23.397l-8.97312,-2.14648z"></path><path d="M701.84754,457.61927l7.18381,-23.397l10.05215,-2.3031l-5.56669,30.73429l-9.30619,-2.45894z"></path><path d="M713.5168,462.65346l5.56669,-30.73429l7.09153,-3.82891l0.86913,40.11428l-11.10154,-3.28151z"></path><path d="M727.04416,468.20453l-0.86913,-40.11428l2.61717,-2.29014l17.10971,48.23341l-3.04507,-0.16958l-14.19659,-4.43514z"></path><path d="M745.90191,474.03353l-17.10971,-48.23341l0.29885,-0.39853l0.40997,0.07904l48.98372,54.69431l-18.86571,-2.12526z"></path><path d="M778.48474,480.17493l-48.98372,-54.69431l5.11115,-0.09581l105.49463,60.18667l-29.63951,-1.17843l-28.46514,-3.38246z"></path><path d="M840.1068,485.57148l-105.49463,-60.18667l10.27904,-2.7747l119.10879,31.15733v33.5575l-11.1517,-0.5089z"></path><path d="M864,453.76743l-119.10879,-31.15733l10.67579,-8.02555l108.433,9.16527z"></path><path d="M864,423.74983l-108.433,-9.16527l0.85422,-10.88594l107.57878,-2.08107z"></path><path d="M747.39617,395.29989l1.30398,-2.16685l115.29985,-9.1316v17.6161l-107.57878,2.08107z"></path><path d="M864,384.00145l-115.29985,9.1316l1.00426,-11.30536l114.29559,-11.80762z"></path><path d="M864,370.02007l-114.29559,11.80762l-5.2979,-11.15253l119.59348,-10.49886z"></path><path d="M864,360.1763l-119.59348,10.49886l-12.30947,-11.19062l131.90295,-7.38508z"></path><path d="M725.69208,355.84637l12.60215,-9.27161l125.70576,0.50766v5.01704l-131.90295,7.38508z"></path><path d="M864,343.80422v3.2782l-125.70576,-0.50766l9.09412,-12.15182z"></path><path d="M864,341.71113v2.09309l-116.61164,-9.38127l1.66109,-12.19257z"></path><path d="M864,339.75618v1.95495l-114.95055,-19.48076l-5.63165,-14.20479z"></path><path d="M864,339.75618l-120.5822,-31.7306l-15.24869,-19.06771l135.83089,47.84501z"></path><path d="M722.70637,283.86628l5.78847,-10.09792l132.46055,57.15859l3.04461,1.5248v4.35113l-135.83089,-47.84501z"></path><path d="M860.95539,330.92694l-132.46055,-57.15859l6.31019,-15.27933z"></path><path d="M864,332.45174l-3.04461,-1.5248l-126.15036,-72.43792l4.0119,-14.71231l125.18307,83.59133z"></path><path d="M864,327.36805l-125.18307,-83.59133l0.16095,-1.05341l22.12608,1.1564l102.89603,72.93132z"></path><path d="M864,303.98091v12.83012l-102.89603,-72.93132l17.00203,-2.2027z"></path><path d="M864,303.98091l-85.894,-62.3039l11.9854,-5.4351l73.9086,53.72229z"></path><path d="M864,289.96421l-73.9086,-53.72229l7.38852,-8.66447l66.52008,47.70481z"></path><path d="M864,275.28225l-66.52008,-47.70481l2.57095,-10.68321l2.16719,0.238l61.78195,43.0983z"></path><path d="M864,260.23053l-61.78195,-43.0983l13.82793,-4.17586l47.95401,32.04167z"></path><path d="M864,244.99805l-47.95401,-32.04167l4.03234,-10.80844l43.92167,27.56928z"></path><path d="M864,229.71722l-43.92167,-27.56928l-2.92426,-8.2966l8.37911,-1.42511l38.46682,22.05913z"></path><path d="M864,214.48536l-38.46682,-22.05913l7.60077,-8.50621l30.86605,15.44831z"></path><path d="M864,199.36834l-30.86605,-15.44831l-2.26905,-12.7784l33.1351,13.23709z"></path><path d="M864,184.37872l-33.1351,-13.23709l-8.94017,-12.35195l42.07527,10.59341z"></path><path d="M864,153.74761v15.63548l-42.07527,-10.59341l-4.87187,-4.20589l1.15209,-0.78101l1.879,-0.79026z"></path><path d="M864,153.74761l-43.91605,-0.73509l2.68101,-1.86508l41.23504,-16.1446z"></path><path d="M864,135.00283l-41.23504,16.1446l41.23504,-46.19255z"></path><path d="M864,104.95488l-41.23504,46.19255l-2.68101,1.86508l-1.879,0.79026l45.79505,-110.90519z"></path><path d="M864,0v42.89759l-45.79505,110.90519l-1.15209,0.78101l-4.95249,0.17972l30.90541,-154.7635z"></path><path d="M843.00579,0l-30.90541,154.7635l-2.40608,0.53163l-5.17699,-2.66981l12.19019,-152.62532z"></path></g></svg>