<svg version="1.1" xmlns="http://www.w3.org/2000/svg" xmlns:xlink="http://www.w3.org/1999/xlink" width="1000" height="1000" viewBox="0,0,1000,1000"><defs><clipPath id="clip-1"><rect x="0" y="0" width="864" height="864" stroke="none"></rect></clipPath></defs><g fill="none" fill-rule="nonzero" stroke="none" stroke-width="1" stroke-linecap="butt" stroke-linejoin="miter" stroke-miterlimit="10" stroke-dasharray="" stroke-dashoffset="0" font-family="none" font-weight="none" font-size="none" text-anchor="none" style="mix-blend-mode: normal"><g clip-path="url(#clip-1)" id="Layer_1"><g stroke="#ffc0cb"><path d="M801.22,122.186c-63.465,-2.701 -129.632,25.657 -184.994,55.363c-63.11,32.129 -111.592,96.43 -155.394,153.141c-1.209,-6.377 -2.66,-12.165 -4.4,-17.157c7.911,-28.417 19.836,-56.008 35.928,-80.112c6.315,-9.46 12.068,-19.272 18.829,-28.431c6.74,-9.132 14.082,-17.8 21.094,-26.72c3.429,-4.36 11.308,-11.541 12.107,-17.378c0.929,-6.807 -6.936,-9.148 -11.51,-6.933c-7.507,3.636 -13.6,12.215 -18.816,18.424c-7.448,8.866 -14.234,18.179 -20.44,27.955c-19.559,30.819 -35.021,64.509 -44.021,99.924c-3.846,-4.748 -8.525,-6.934 -14.23,-5.682c-3.828,0.839 -6.819,2.961 -9.209,5.901c-8.993,-35.494 -24.477,-69.261 -44.076,-100.144c-6.205,-9.775 -12.991,-19.088 -20.44,-27.955c-5.218,-6.208 -11.311,-14.788 -18.817,-18.424c-4.574,-2.216 -12.439,0.125 -11.508,6.933c0.797,5.838 8.678,13.019 12.105,17.378c7.012,8.92 14.354,17.588 21.094,26.72c6.761,9.159 12.514,18.971 18.83,28.431c16.361,24.508 28.417,52.619 36.324,81.538c-1.242,4.975 -2.015,10.366 -2.572,15.646c-43.784,-56.69 -92.25,-120.943 -155.327,-153.056c-55.364,-29.707 -121.531,-58.064 -184.997,-55.363c-112.08,4.051 13.502,125.582 31.057,166.092c12.154,27.007 14.854,48.612 12.154,78.321c-1.352,20.254 -8.103,52.662 4.05,71.567c21.604,35.109 71.566,0 99.925,-8.103c13.503,-4.049 59.415,-12.152 32.408,9.453c-13.505,10.805 -37.811,12.154 -54.014,17.555c-64.817,20.256 -99.926,93.174 -76.969,159.342c9.452,22.955 20.254,39.158 20.254,66.168c0,20.254 -9.452,40.508 -8.102,59.412c32.408,-6.75 63.467,-41.859 95.875,-37.809c16.205,2.699 29.708,14.854 45.913,16.203c20.255,2.701 40.508,-13.504 54.013,-28.357c44.562,-44.559 52.664,-112.078 67.519,-170.143c2.52,-8.568 6.358,-18.33 11.021,-28.117c0.53,26.01 1.56,57.195 6.5,79.354c7.222,32.393 32.972,36.461 41.456,2.922c6.653,-26.309 5.704,-55.693 5.588,-83.693c4.97,10.258 9.072,20.553 11.714,29.535c14.854,58.064 22.956,125.584 67.518,170.143c13.504,14.854 33.759,31.059 54.014,28.357c16.204,-1.35 29.708,-13.504 45.912,-16.203c32.407,-4.051 63.466,31.059 95.874,37.809c1.352,-18.904 -8.101,-39.158 -8.101,-59.412c0,-27.01 10.802,-43.213 20.254,-66.168c22.955,-66.168 -12.153,-139.086 -76.97,-159.342c-16.205,-5.4 -40.511,-6.75 -54.014,-17.555c-27.008,-21.605 18.904,-13.501 32.409,-9.453c28.354,8.103 78.32,43.212 99.924,8.103c12.153,-18.906 5.401,-51.313 4.051,-71.567c-2.701,-29.709 0,-51.314 12.153,-78.321c17.55,-40.51 143.135,-162.041 31.054,-166.092z"></path></g></g><path d="M0,0l864,864v-864z" stroke="none"></path><path d="M0,864h864v-864z" stroke="none"></path><path d="M171.58413,692.41587l-31.89049,31.89049l5.95136,-41.72636z" stroke="#000000"></path><path d="M135.39673,639.02907l-15.12625,-42.30791l0.15268,-44.86261z" stroke="#000000"></path><path d="M120.42317,551.85856l15.73988,-42.01037l29.6276,-33.65621z" stroke="#000000"></path><path d="M165.79065,476.19198l40.02104,-20.18317l43.37496,-12.00157z" stroke="#000000"></path><path d="M200.59411,439.18041l-42.71435,13.96344l-36.52191,-20.02813z" stroke="#000000"></path><path d="M121.35784,433.11573l-3.49667,-44.51125l3.04774,-44.96561z" stroke="#000000"></path><path d="M90.40859,260.43342l-26.33766,-36.60963l-23.5764,-38.4013z" stroke="#000000"></path><path d="M40.49453,185.42249l-7.96596,-43.18171l37.96421,-19.68633z" stroke="#000000"></path><path d="M70.49277,122.55445l44.99022,1.55389l34.7945,26.16915z" stroke="#000000"></path><path d="M214.05848,214.05848l31.89049,31.89049l31.89049,31.89049z" stroke="#000000"></path><path d="M309.72995,309.72995l31.89049,31.89049l31.89049,31.89049z" stroke="#000000"></path><path d="M373.51094,373.51094l31.89049,31.89049l21.30664,31.89049z" stroke="#000000"></path><path d="M394.81758,469.18242l-31.89049,31.89049l-31.89049,31.89049z" stroke="#000000"></path><path d="M331.0366,532.9634l-31.89049,31.89049l-31.89049,31.89049z" stroke="#000000"></path><path d="M203.47463,660.52537l-31.89049,31.89049l-25.93913,-9.83587z" stroke="#000000"></path><path d="M145.645,682.58l-10.24827,-43.55093l-14.97357,-87.17052z" stroke="#000000"></path><path d="M120.42317,551.85856l45.36748,-75.66657l83.396,-32.18475z" stroke="#000000"></path><path d="M243.53269,426.02246l-42.93858,13.15795l-79.23626,-6.06468z" stroke="#000000"></path><path d="M90.40859,260.43342l-49.91406,-75.01092l29.99824,-62.86804z" stroke="#000000"></path><path d="M70.49277,122.55445l79.78472,27.72304l31.89049,31.89049z" stroke="#000000"></path><path d="M277.83946,277.83946l31.89049,31.89049l63.78099,63.78099z" stroke="#000000"></path><path d="M373.51094,373.51094l53.19714,63.78099l-31.89049,31.89049z" stroke="#000000"></path><path d="M331.0366,532.9634l-63.78099,63.78099l-31.89049,31.89049z" stroke="#000000"></path><path d="M235.36512,628.63488l-31.89049,31.89049l-57.82963,22.05463z" stroke="#000000"></path><path d="M145.645,682.58l-25.22183,-130.72144l128.76348,-107.85132z" stroke="#000000"></path><path d="M243.53269,426.02246l-122.17485,7.09327l-0.44893,-89.47686z" stroke="#000000"></path><path d="M112.47826,299.55845l-22.06967,-39.12503l-19.91582,-137.87896z" stroke="#000000"></path><path d="M70.49277,122.55445l111.67521,59.61353l31.89049,31.89049z" stroke="#000000"></path><path d="M214.05848,214.05848l63.78099,63.78099l95.67148,95.67148z" stroke="#000000"></path><path d="M373.51094,373.51094l21.30664,95.67148l-63.78099,63.78099z" stroke="#000000"></path><path d="M331.0366,532.9634l-95.67148,95.67148l-89.72012,53.94512z" stroke="#000000"></path><path d="M243.53269,426.02246l-122.62378,-82.38359l-8.43065,-44.08042z" stroke="#000000"></path><path d="M112.47826,299.55845l-41.98549,-177.004l143.5657,91.50403z" stroke="#000000"></path><path d="M214.05848,214.05848l159.45246,159.45246l-42.47434,159.45246z" stroke="#000000"></path><path d="M331.0366,532.9634l-185.3916,149.6166l103.54165,-238.57276z" stroke="#000000"></path><path d="M243.53269,426.02246l-131.05443,-126.46401l101.58022,-85.49997z" stroke="#000000"></path><path d="M214.05848,214.05848l116.97812,318.90493l-81.84995,-88.95617z" stroke="#000000"></path><path d="M249.18665,444.00724l-5.65396,-17.98478l-29.47421,-211.96398z" stroke="#000000"></path><path d="M671.94605,671.94605l34.81194,34.81194l33.70201,35.23501z" stroke="#000000"></path><path d="M650.58512,703.8658l-46.2812,15.62583l-45.32999,-13.85334z" stroke="#000000"></path><path d="M558.97394,705.63829l-32.92159,-36.38888l-21.7823,-44.02097z" stroke="#000000"></path><path d="M504.27004,625.22845l-13.88166,-47.20667l-11.20454,-47.93911z" stroke="#000000"></path><path d="M465.48315,501.32958l-1.36622,49.18914l-15.34677,45.60696z" stroke="#000000"></path><path d="M448.77016,596.12568l-31.04415,-26.12033l-5.01473,-48.93047z" stroke="#000000"></path><path d="M403.43987,513.97871l-11.96902,47.7274l-12.38579,47.63612z" stroke="#000000"></path><path d="M379.08506,609.34223l-18.51562,45.53409l-29.26999,39.35556z" stroke="#000000"></path><path d="M331.29945,694.23188l-40.95821,25.87368l-46.59678,-12.99706z" stroke="#000000"></path><path d="M196.55308,713.00431l-43.14506,23.66862l-3.64113,-22.43982z" stroke="#000000"></path><path d="M184.57883,679.42117l34.81194,-34.81194l34.81194,-34.81194z" stroke="#000000"></path><path d="M289.01466,574.98534l34.81194,-34.81194l34.81194,-34.81194z" stroke="#000000"></path><path d="M358.63855,505.36145l34.81194,-34.81194l34.81194,-34.81194z" stroke="#000000"></path><path d="M428.26244,435.73756l34.81194,27.33682l34.81194,34.81194z" stroke="#000000"></path><path d="M497.88633,497.88633l34.81194,34.81194l34.81194,34.81194z" stroke="#000000"></path><path d="M637.1341,637.1341l34.81194,34.81194l68.51395,70.04695z" stroke="#000000"></path><path d="M650.58512,703.8658l-91.61119,1.77249l-54.7039,-80.40984z" stroke="#000000"></path><path d="M465.48315,501.32958l-16.71299,94.7961l-36.05888,-75.0508z" stroke="#000000"></path><path d="M403.43987,513.97871l-24.35481,95.36352l-47.78561,84.88965z" stroke="#000000"></path><path d="M331.29945,694.23188l-87.55499,12.87662l-47.19138,5.8958z" stroke="#000000"></path><path d="M196.55308,713.00431l-46.78619,1.2288l34.81194,-34.81194z" stroke="#000000"></path><path d="M184.57883,679.42117l69.62389,-69.62389l34.81194,-34.81194z" stroke="#000000"></path><path d="M358.63855,505.36145l69.62389,-69.62389l69.62389,62.14877z" stroke="#000000"></path><path d="M497.88633,497.88633l69.62389,69.62389l34.81194,34.81194z" stroke="#000000"></path><path d="M602.32216,602.32216l34.81194,34.81194l103.3259,104.8589z" stroke="#000000"></path><path d="M696.11583,721.12167l-45.53071,-17.25588l-146.31508,-78.63735z" stroke="#000000"></path><path d="M465.48315,501.32958l-52.77186,19.7453l-9.27141,-7.09616z" stroke="#000000"></path><path d="M403.43987,513.97871l-72.14042,180.25317l-134.74637,18.77243z" stroke="#000000"></path><path d="M196.55308,713.00431l-11.97425,-33.58314l104.43583,-104.43583z" stroke="#000000"></path><path d="M497.88633,497.88633l104.43583,104.43583l138.13784,139.67084z" stroke="#000000"></path><path d="M740.46,741.993l-44.34417,-20.87133l-191.84579,-95.89323z" stroke="#000000"></path><path d="M403.43987,513.97871l-206.88679,199.0256l92.46158,-138.01898z" stroke="#000000"></path><path d="M497.88633,497.88633l242.57367,244.10667l-236.18996,-116.76455z" stroke="#000000"></path><path d="M403.43987,513.97871l-114.42521,61.00662l69.62389,-69.62389z" stroke="#000000"></path><path d="M497.88633,497.88633l6.38371,127.34212l-25.0862,-95.14577z" stroke="#000000"></path><path d="M465.48315,501.32958l-62.04328,12.64914l-44.80132,-8.61726z" stroke="#000000"></path><path d="M497.88633,497.88633l-18.70249,32.19635l-13.70069,-28.7531z" stroke="#000000"></path><path d="M465.48315,501.32958l-106.8446,4.03187l139.24778,-7.47512z" stroke="#000000"></path><path d="M209.42396,209.42396l-41.86424,-41.86424l-41.86424,-41.86424z" stroke="#000000"></path><path d="M125.69547,125.69547l57.02316,15.64278l54.32691,23.45904z" stroke="#000000"></path><path d="M237.04554,164.79729l51.62827,28.86687l45.23993,38.07274z" stroke="#000000"></path><path d="M333.91374,231.73689l39.74731,43.84743l36.78115,46.3895z" stroke="#000000"></path><path d="M382.25004,231.75792l-34.49222,-48.04881l6.1058,-20.66071z" stroke="#000000"></path><path d="M353.86363,163.04841l34.70066,47.85537l25.93391,53.14863z" stroke="#000000"></path><path d="M444.80445,295.98199l22.01225,-45.50981l28.0474,-52.06952z" stroke="#000000"></path><path d="M494.8641,198.40266l38.29674,-44.5722l-14.41236,41.33091z" stroke="#000000"></path><path d="M476.25553,310.74115l37.25466,-46.00623l40.84184,-42.81775z" stroke="#000000"></path><path d="M554.35203,221.91717l46.88786,-35.98954l52.5246,-27.27426z" stroke="#000000"></path><path d="M653.76449,158.65336l54.9516,-21.93535l3.07879,15.4871z" stroke="#000000"></path><path d="M711.79488,152.20512l-41.86424,41.86424l-41.86424,41.86424z" stroke="#000000"></path><path d="M502.47366,361.52634l-41.86424,41.86424l-41.86424,15.35459z" stroke="#000000"></path><path d="M209.42396,209.42396l-83.72849,-83.72849l111.35007,39.10182z" stroke="#000000"></path><path d="M237.04554,164.79729l96.8682,66.93961l76.52846,90.23693z" stroke="#000000"></path><path d="M409.51674,284.17184l-27.2667,-52.41392l-28.38641,-68.70951z" stroke="#000000"></path><path d="M444.80445,295.98199l50.05965,-97.57933l23.88438,-3.24129z" stroke="#000000"></path><path d="M476.25553,310.74115l78.0965,-88.82398l99.41246,-63.2638z" stroke="#000000"></path><path d="M653.76449,158.65336l58.0304,-6.44824l-83.72849,83.72849z" stroke="#000000"></path><path d="M544.33791,319.66209l-41.86424,41.86424l-83.72849,57.21884z" stroke="#000000"></path><path d="M251.2882,251.2882l-41.86424,-41.86424l27.62159,-44.62667z" stroke="#000000"></path><path d="M409.51674,284.17184l-55.65311,-121.12343l60.63456,101.004z" stroke="#000000"></path><path d="M444.80445,295.98199l73.94403,-100.82062l-33.15417,49.00389z" stroke="#000000"></path><path d="M476.25553,310.74115l177.50895,-152.08778l-25.69809,77.28024z" stroke="#000000"></path><path d="M586.20215,277.79785l-41.86424,41.86424l-125.59273,99.08308z" stroke="#000000"></path><path d="M293.15244,293.15244l-41.86424,-41.86424l-14.24266,-86.49091z" stroke="#000000"></path><path d="M410.4422,321.97382l-0.92546,-37.80198l4.98145,-20.11943z" stroke="#000000"></path><path d="M444.80445,295.98199l40.78986,-51.81672l-24.40004,53.82155z" stroke="#000000"></path><path d="M476.25553,310.74115l151.81086,-74.80754l-41.86424,41.86424z" stroke="#000000"></path><path d="M586.20215,277.79785l-167.45698,140.94732l-41.86424,-41.86424z" stroke="#000000"></path><path d="M335.01669,335.01669l-41.86424,-41.86424l-56.1069,-128.35516z" stroke="#000000"></path><path d="M410.4422,321.97382l4.05599,-57.92141l30.30627,31.92958z" stroke="#000000"></path><path d="M444.80445,295.98199l16.38982,2.00482l15.06126,12.75433z" stroke="#000000"></path><path d="M476.25553,310.74115l109.94662,-32.9433l-209.32122,99.08308z" stroke="#000000"></path><path d="M376.88093,376.88093l-41.86424,-41.86424l-97.97115,-170.2194z" stroke="#000000"></path><path d="M410.4422,321.97382l34.36225,-25.99183l31.45108,14.75915z" stroke="#000000"></path><path d="M376.88093,376.88093l-139.83539,-212.08364l173.39666,157.17654z" stroke="#000000"></path><path d="M410.4422,321.97382l65.81333,-11.23268l-99.3746,66.13978z" stroke="#000000"></path><path d="M757.74433,332.69582l1.41853,46.2282l0.10163,46.12319z" stroke="#000000"></path><path d="M759.26448,425.04722l-31.89375,28.41727l-44.42449,-11.90676z" stroke="#000000"></path><path d="M625.69085,442.31367l44.26113,13.0848l41.39944,20.13212z" stroke="#000000"></path><path d="M711.35142,475.53059l30.56445,34.4466l15.90548,43.24505z" stroke="#000000"></path><path d="M757.82134,553.22225l-0.56942,46.07432l-16.15891,43.27772z" stroke="#000000"></path><path d="M732.54578,687.66572l7.85323,45.62172l-27.48575,-20.37418z" stroke="#000000"></path><path d="M614.62187,614.62187l-32.7638,-32.7638l-32.7638,-32.7638z" stroke="#000000"></path><path d="M549.09427,549.09427l-32.7638,-32.7638l-32.7638,-32.7638z" stroke="#000000"></path><path d="M483.56668,483.56668l-32.7638,-32.7638l-4.84197,-32.7638z" stroke="#000000"></path><path d="M577.0161,286.9839l32.7638,-32.7638l32.7638,-32.7638z" stroke="#000000"></path><path d="M675.30749,188.69251l32.7638,-32.7638l35.12412,-28.47697z" stroke="#000000"></path><path d="M743.1954,127.45174l45.94821,-5.41293l45.17022,7.63122z" stroke="#000000"></path><path d="M834.31383,129.67003l9.42569,41.13004l-21.59115,40.87064z" stroke="#000000"></path><path d="M757.74433,332.69582l1.52016,92.35139l-76.31824,16.51052z" stroke="#000000"></path><path d="M625.69085,442.31367l85.66057,33.21692l46.46993,77.69166z" stroke="#000000"></path><path d="M757.82134,553.22225l-16.72832,89.35204l-8.54724,45.09143z" stroke="#000000"></path><path d="M732.54578,687.66572l-19.63252,25.24754l-32.7638,-32.7638z" stroke="#000000"></path><path d="M614.62187,614.62187l-65.52759,-65.52759l-65.52759,-65.52759z" stroke="#000000"></path><path d="M483.56668,483.56668l-37.60577,-65.52759l32.7638,-32.7638z" stroke="#000000"></path><path d="M577.0161,286.9839l65.52759,-65.52759l32.7638,-32.7638z" stroke="#000000"></path><path d="M675.30749,188.69251l67.88792,-61.24077l91.11843,2.21829z" stroke="#000000"></path><path d="M834.31383,129.67003l-12.16545,82.00067l-26.6862,37.87221z" stroke="#000000"></path><path d="M770.166,288.278l-12.42167,44.41782l-74.79809,108.86191z" stroke="#000000"></path><path d="M625.69085,442.31367l132.13049,110.90858l-25.27557,134.44347z" stroke="#000000"></path><path d="M732.54578,687.66572l-52.39632,-7.51626l-32.7638,-32.7638z" stroke="#000000"></path><path d="M614.62187,614.62187l-131.05519,-131.05519l-4.84197,-98.29139z" stroke="#000000"></path><path d="M544.2523,319.7477l32.7638,-32.7638l98.29139,-98.29139z" stroke="#000000"></path><path d="M675.30749,188.69251l159.00635,-59.02248l-38.85165,119.87288z" stroke="#000000"></path><path d="M770.166,288.278l-87.21976,153.27973l-43.74007,-14.81013z" stroke="#000000"></path><path d="M625.69085,442.31367l106.85493,245.35205l-85.16011,-40.28005z" stroke="#000000"></path><path d="M647.38566,647.38566l-32.7638,-32.7638l-135.89716,-229.34658z" stroke="#000000"></path><path d="M511.48851,352.51149l32.7638,-32.7638l131.05519,-131.05519z" stroke="#000000"></path><path d="M675.30749,188.69251l120.15469,60.8504l-25.29618,38.73509z" stroke="#000000"></path><path d="M625.69085,442.31367l21.69482,205.07199l-168.66095,-262.11037z" stroke="#000000"></path><path d="M478.72471,385.27529l32.7638,-32.7638l163.81898,-163.81898z" stroke="#000000"></path><path d="M675.30749,188.69251l94.85851,99.58549l-130.95983,138.4696z" stroke="#000000"></path><path d="M639.20617,426.7476l-13.51533,15.56607l-146.96614,-57.03838z" stroke="#000000"></path><path d="M478.72471,385.27529l196.58278,-196.58278l-36.10132,238.05509z" stroke="#000000"></path></g></svg>