<svg version="1.1" xmlns="http://www.w3.org/2000/svg" xmlns:xlink="http://www.w3.org/1999/xlink" width="298" height="298" viewBox="0,0,298,298"><defs><clipPath id="clip-1"><rect x="0" y="0" transform="scale(0.33333,0.33333)" width="864" height="864"></rect></clipPath></defs><g fill="none" fill-rule="nonzero" stroke="none" stroke-width="1" stroke-linecap="butt" stroke-linejoin="miter" stroke-miterlimit="10" stroke-dasharray="" stroke-dashoffset="0" font-family="none" font-weight="none" font-size="none" text-anchor="none" style="mix-blend-mode: normal"><g clip-path="url(#clip-1)" id="Layer_1" stroke="#ff0000"><g><path d="M267.07333,40.72867c-21.155,-0.90033 -43.21067,8.55233 -61.66467,18.45433c-21.03667,10.70967 -37.19733,32.14333 -51.798,51.047c-0.403,-2.12567 -0.88667,-4.055 -1.46667,-5.719c2.637,-9.47233 6.612,-18.66933 11.976,-26.704c2.105,-3.15333 4.02267,-6.424 6.27633,-9.477c2.24667,-3.044 4.694,-5.93333 7.03133,-8.90667c1.143,-1.45333 3.76933,-3.847 4.03567,-5.79267c0.30967,-2.269 -2.312,-3.04933 -3.83667,-2.311c-2.50233,1.212 -4.53333,4.07167 -6.272,6.14133c-2.48267,2.95533 -4.74467,6.05967 -6.81333,9.31833c-6.51967,10.273 -11.67367,21.503 -14.67367,33.308c-1.282,-1.58267 -2.84167,-2.31133 -4.74333,-1.894c-1.276,0.27967 -2.273,0.987 -3.06967,1.967c-2.99767,-11.83133 -8.159,-23.087 -14.692,-33.38133c-2.06833,-3.25833 -4.33033,-6.36267 -6.81333,-9.31833c-1.73933,-2.06933 -3.77033,-4.92933 -6.27233,-6.14133c-1.52467,-0.73867 -4.14633,0.04167 -3.836,2.311c0.26567,1.946 2.89267,4.33967 4.035,5.79267c2.33733,2.97333 4.78467,5.86267 7.03133,8.90667c2.25367,3.053 4.17133,6.32367 6.27667,9.477c5.45367,8.16933 9.47233,17.53967 12.108,27.17933c-0.414,1.65833 -0.67167,3.45533 -0.85733,5.21533c-14.59467,-18.89667 -30.75,-40.31433 -51.77567,-51.01867c-18.45467,-9.90233 -40.51033,-19.35467 -61.66567,-18.45433c-37.36,1.35033 4.50067,41.86067 10.35233,55.364c4.05133,9.00233 4.95133,16.204 4.05133,26.107c-0.45067,6.75133 -2.701,17.554 1.35,23.85567c7.20133,11.703 23.85533,0 33.30833,-2.701c4.501,-1.34967 19.805,-4.05067 10.80267,3.151c-4.50167,3.60167 -12.60367,4.05133 -18.00467,5.85167c-21.60567,6.752 -33.30867,31.058 -25.65633,53.114c3.15067,7.65167 6.75133,13.05267 6.75133,22.056c0,6.75133 -3.15067,13.50267 -2.70067,19.804c10.80267,-2.25 21.15567,-13.953 31.95833,-12.603c5.40167,0.89967 9.90267,4.95133 15.30433,5.401c6.75167,0.90033 13.50267,-4.50133 18.00433,-9.45233c14.854,-14.853 17.55467,-37.35933 22.50633,-56.71433c0.84,-2.856 2.11933,-6.11 3.67367,-9.37233c0.17667,8.67 0.52,19.065 2.16667,26.45133c2.40733,10.79767 10.99067,12.15367 13.81867,0.974c2.21767,-8.76967 1.90133,-18.56433 1.86267,-27.89767c1.65667,3.41933 3.024,6.851 3.90467,9.845c4.95133,19.35467 7.652,41.86133 22.506,56.71433c4.50133,4.95133 11.253,10.353 18.00467,9.45233c5.40133,-0.45 9.90267,-4.50133 15.304,-5.401c10.80233,-1.35033 21.15533,10.353 31.958,12.603c0.45067,-6.30133 -2.70033,-13.05267 -2.70033,-19.804c0,-9.00333 3.60067,-14.40433 6.75133,-22.056c7.65167,-22.056 -4.051,-46.362 -25.65667,-53.114c-5.40167,-1.8 -13.50367,-2.25 -18.00467,-5.85167c-9.00267,-7.20167 6.30133,-4.50033 10.803,-3.151c9.45133,2.701 26.10667,14.404 33.308,2.701c4.051,-6.302 1.80033,-17.10433 1.35033,-23.85567c-0.90033,-9.903 0,-17.10467 4.051,-26.107c5.85,-13.50333 47.71167,-54.01367 10.35133,-55.364z"></path></g></g><path d="M229.69344,178.52874c0,-0.55228 0.44772,-1 1,-1c0.55228,0 1,0.44772 1,1c0,0.55228 -0.44772,1 -1,1c-0.55228,0 -1,-0.44772 -1,-1z" stroke="none"></path><path d="M176.40294,163.8975c0,-0.55228 0.44772,-1 1,-1c0.55228,0 1,0.44772 1,1c0,0.55228 -0.44772,1 -1,1c-0.55228,0 -1,-0.44772 -1,-1z" stroke="none"></path><path d="M201.48897,178.80861c0,-0.55228 0.44772,-1 1,-1c0.55228,0 1,0.44772 1,1c0,0.55228 -0.44772,1 -1,1c-0.55228,0 -1,-0.44772 -1,-1z" stroke="none"></path><path d="M202.70709,200.61556c0,-0.55228 0.44772,-1 1,-1c0.55228,0 1,0.44772 1,1c0,0.55228 -0.44772,1 -1,1c-0.55228,0 -1,-0.44772 -1,-1z" stroke="none"></path><path d="M184.6735,83.91451c0,-0.55228 0.44772,-1 1,-1c0.55228,0 1,0.44772 1,1c0,0.55228 -0.44772,1 -1,1c-0.55228,0 -1,-0.44772 -1,-1z" stroke="none"></path><path d="M195.98909,179.16334c0,-0.55228 0.44772,-1 1,-1c0.55228,0 1,0.44772 1,1c0,0.55228 -0.44772,1 -1,1c-0.55228,0 -1,-0.44772 -1,-1z" stroke="none"></path><path d="M97.17365,88.57026c0,-0.55228 0.44772,-1 1,-1c0.55228,0 1,0.44772 1,1c0,0.55228 -0.44772,1 -1,1c-0.55228,0 -1,-0.44772 -1,-1z" stroke="none"></path><path d="M224.34508,57.56741c0,-0.55228 0.44772,-1 1,-1c0.55228,0 1,0.44772 1,1c0,0.55228 -0.44772,1 -1,1c-0.55228,0 -1,-0.44772 -1,-1z" stroke="none"></path><path d="M68.42893,135.39137c0,-0.55228 0.44772,-1 1,-1c0.55228,0 1,0.44772 1,1c0,0.55228 -0.44772,1 -1,1c-0.55228,0 -1,-0.44772 -1,-1z" stroke="none"></path><path d="M176.07846,175.26161c0,-0.55228 0.44772,-1 1,-1c0.55228,0 1,0.44772 1,1c0,0.55228 -0.44772,1 -1,1c-0.55228,0 -1,-0.44772 -1,-1z" stroke="none"></path><path d="M58.62603,100.972c0,-0.55228 0.44772,-1 1,-1c0.55228,0 1,0.44772 1,1c0,0.55228 -0.44772,1 -1,1c-0.55228,0 -1,-0.44772 -1,-1z" stroke="none"></path><path d="M248.86306,121.75396c0,-0.55228 0.44772,-1 1,-1c0.55228,0 1,0.44772 1,1c0,0.55228 -0.44772,1 -1,1c-0.55228,0 -1,-0.44772 -1,-1z" stroke="none"></path><path d="M190.94125,134.54546c0,-0.55228 0.44772,-1 1,-1c0.55228,0 1,0.44772 1,1c0,0.55228 -0.44772,1 -1,1c-0.55228,0 -1,-0.44772 -1,-1z" stroke="none"></path><path d="M58.72175,120.39276c0,-0.55228 0.44772,-1 1,-1c0.55228,0 1,0.44772 1,1c0,0.55228 -0.44772,1 -1,1c-0.55228,0 -1,-0.44772 -1,-1z" stroke="none"></path><path d="M191.35784,155.61503c0,-0.55228 0.44772,-1 1,-1c0.55228,0 1,0.44772 1,1c0,0.55228 -0.44772,1 -1,1c-0.55228,0 -1,-0.44772 -1,-1z" stroke="none"></path><path d="M87.58436,139.95606c0,-0.55228 0.44772,-1 1,-1c0.55228,0 1,0.44772 1,1c0,0.55228 -0.44772,1 -1,1c-0.55228,0 -1,-0.44772 -1,-1z" stroke="none"></path><path d="M53.16864,81.75174c0,-0.55228 0.44772,-1 1,-1c0.55228,0 1,0.44772 1,1c0,0.55228 -0.44772,1 -1,1c-0.55228,0 -1,-0.44772 -1,-1z" stroke="none"></path><path d="M226.46901,215.25187c0,-0.55228 0.44772,-1 1,-1c0.55228,0 1,0.44772 1,1c0,0.55228 -0.44772,1 -1,1c-0.55228,0 -1,-0.44772 -1,-1z" stroke="none"></path><path d="M166.4894,129.35994c0,-0.55228 0.44772,-1 1,-1c0.55228,0 1,0.44772 1,1c0,0.55228 -0.44772,1 -1,1c-0.55228,0 -1,-0.44772 -1,-1z" stroke="none"></path><path d="M205.39659,154.70492c0,-0.55228 0.44772,-1 1,-1c0.55228,0 1,0.44772 1,1c0,0.55228 -0.44772,1 -1,1c-0.55228,0 -1,-0.44772 -1,-1z" stroke="none"></path><path d="M92.75727,188.25466c0,-0.55228 0.44772,-1 1,-1c0.55228,0 1,0.44772 1,1c0,0.55228 -0.44772,1 -1,1c-0.55228,0 -1,-0.44772 -1,-1z" stroke="none"></path><path d="M210.8034,106.37448c0,-0.55228 0.44772,-1 1,-1c0.55228,0 1,0.44772 1,1c0,0.55228 -0.44772,1 -1,1c-0.55228,0 -1,-0.44772 -1,-1z" stroke="none"></path><path d="M41.00804,136.82541c0,-0.55228 0.44772,-1 1,-1c0.55228,0 1,0.44772 1,1c0,0.55228 -0.44772,1 -1,1c-0.55228,0 -1,-0.44772 -1,-1z" stroke="none"></path><path d="M207.96137,107.08589c0,-0.55228 0.44772,-1 1,-1c0.55228,0 1,0.44772 1,1c0,0.55228 -0.44772,1 -1,1c-0.55228,0 -1,-0.44772 -1,-1z" stroke="none"></path><path d="M79.39731,102.2023c0,-0.55228 0.44772,-1 1,-1c0.55228,0 1,0.44772 1,1c0,0.55228 -0.44772,1 -1,1c-0.55228,0 -1,-0.44772 -1,-1z" stroke="none"></path><path d="M89.65738,134.01822c0,-0.55228 0.44772,-1 1,-1c0.55228,0 1,0.44772 1,1c0,0.55228 -0.44772,1 -1,1c-0.55228,0 -1,-0.44772 -1,-1z" stroke="none"></path><path d="M112.91269,194.45096c0,-0.55228 0.44772,-1 1,-1c0.55228,0 1,0.44772 1,1c0,0.55228 -0.44772,1 -1,1c-0.55228,0 -1,-0.44772 -1,-1z" stroke="none"></path><path d="M193.99821,139.39187c0,-0.55228 0.44772,-1 1,-1c0.55228,0 1,0.44772 1,1c0,0.55228 -0.44772,1 -1,1c-0.55228,0 -1,-0.44772 -1,-1z" stroke="none"></path><path d="M220.60348,189.40411c0,-0.55228 0.44772,-1 1,-1c0.55228,0 1,0.44772 1,1c0,0.55228 -0.44772,1 -1,1c-0.55228,0 -1,-0.44772 -1,-1z" stroke="none"></path><path d="M43.14505,100.86184c0,-0.55228 0.44772,-1 1,-1c0.55228,0 1,0.44772 1,1c0,0.55228 -0.44772,1 -1,1c-0.55228,0 -1,-0.44772 -1,-1z" stroke="none"></path><path d="M276.97191,64.06543c0,-0.55228 0.44772,-1 1,-1c0.55228,0 1,0.44772 1,1c0,0.55228 -0.44772,1 -1,1c-0.55228,0 -1,-0.44772 -1,-1z" stroke="none"></path><path d="M238.64368,105.70457c0,-0.55228 0.44772,-1 1,-1c0.55228,0 1,0.44772 1,1c0,0.55228 -0.44772,1 -1,1c-0.55228,0 -1,-0.44772 -1,-1z" stroke="none"></path><path d="M139.67066,118.50974c0,-0.55228 0.44772,-1 1,-1c0.55228,0 1,0.44772 1,1c0,0.55228 -0.44772,1 -1,1c-0.55228,0 -1,-0.44772 -1,-1z" stroke="none"></path><path d="M73.67538,112.36052c0,-0.55228 0.44772,-1 1,-1c0.55228,0 1,0.44772 1,1c0,0.55228 -0.44772,1 -1,1c-0.55228,0 -1,-0.44772 -1,-1z" stroke="none"></path><path d="M98.06556,98.66431c0,-0.55228 0.44772,-1 1,-1c0.55228,0 1,0.44772 1,1c0,0.55228 -0.44772,1 -1,1c-0.55228,0 -1,-0.44772 -1,-1z" stroke="none"></path><path d="M223.10301,207.77536c0,-0.55228 0.44772,-1 1,-1c0.55228,0 1,0.44772 1,1c0,0.55228 -0.44772,1 -1,1c-0.55228,0 -1,-0.44772 -1,-1z" stroke="none"></path><path d="M39.96453,115.5635c0,-0.55228 0.44772,-1 1,-1c0.55228,0 1,0.44772 1,1c0,0.55228 -0.44772,1 -1,1c-0.55228,0 -1,-0.44772 -1,-1z" stroke="none"></path><path d="M82.53675,178.96458c0,-0.55228 0.44772,-1 1,-1c0.55228,0 1,0.44772 1,1c0,0.55228 -0.44772,1 -1,1c-0.55228,0 -1,-0.44772 -1,-1z" stroke="none"></path><path d="M58.20362,56.83081c0,-0.55228 0.44772,-1 1,-1c0.55228,0 1,0.44772 1,1c0,0.55228 -0.44772,1 -1,1c-0.55228,0 -1,-0.44772 -1,-1z" stroke="none"></path><path d="M131.08406,114.39064c0,-0.55228 0.44772,-1 1,-1c0.55228,0 1,0.44772 1,1c0,0.55228 -0.44772,1 -1,1c-0.55228,0 -1,-0.44772 -1,-1z" stroke="none"></path><path d="M159.64,87.58l-0.65,1.35l-0.64,1.37l-0.61,1.38l-0.59,1.38l-0.56,1.38l-0.01,0.02l-0.55,1.39h0.01l-0.53,1.43h-0.01l-0.5,1.42l-0.48,1.43l-0.46,1.43l-0.44,1.45h-0.01l-0.35,1.23l0.21,1.12l0.41,1.47l0.01,0.04l0.25,1.04l0.44,-0.57l0.93,-1.21l0.93,-1.2l0.94,-1.21l0.93,-1.2l2.82,-3.6l0.01,-0.01l0.94,-1.19l1.9,-2.38l0.01,-0.01l0.96,-1.19l0.96,-1.18l0.97,-1.17l0.01,-0.01l0.97,-1.18l0.98,-1.16l0.01,-0.01l0.98,-1.16l1,-1.16v-0.01l1.01,-1.14l1,-1.15l0.01,-0.01l2.04,-2.26l0.01,-0.01l1.04,-1.12l1.04,-1.11l0.01,-0.01l1.05,-1.1l1.07,-1.09l0.01,-0.02l1.07,-1.08l0.01,-0.01l1.08,-1.07h0.01l1.1,-1.06v-0.01l1.11,-1.05l0.01,-0.01l1.12,-1.03l0.01,-0.01l1.13,-1.02l0.01,-0.01l1.14,-1l0.01,-0.01l1.16,-0.99l0.01,-0.01l1.17,-0.98l0.01,-0.01l1.18,-0.96l0.01,-0.01l1.2,-0.94l0.01,-0.01l1.21,-0.92l0.02,-0.01l1.22,-0.9l0.01,-0.01l1.25,-0.89l0.01,-0.01l1.26,-0.86l0.01,-0.01l1.27,-0.84l0.02,-0.01l1.28,-0.82l0.02,-0.01l1.3,-0.79l0.02,-0.01l1.31,-0.76l0.02,-0.01l1.33,-0.74l0.02,-0.01l1.34,-0.72l4.05,-2.13h0.01l1.35,-0.7l1.36,-0.69h0.01l1.37,-0.68l1.36,-0.67l0.01,-0.01l1.38,-0.66l1.37,-0.66h0.01l1.39,-0.65l1.38,-0.63l0.02,-0.01l1.39,-0.62l1.39,-0.61h0.02l1.4,-0.6l1.4,-0.59l0.02,-0.01l1.41,-0.57l1.42,-0.56l0.02,-0.01l1.42,-0.54l0.01,-0.01l1.42,-0.53h0.01l1.44,-0.52h0.01l1.44,-0.51h0.01l1.44,-0.48l0.01,-0.01l1.45,-0.47h0.01l1.46,-0.45h0.01l1.46,-0.44h0.01l1.47,-0.41l0.01,-0.01l1.47,-0.39h0.02l1.47,-0.38h0.02l1.48,-0.35h0.02l1.48,-0.33l0.02,-0.01l1.49,-0.3l0.02,-0.01l1.49,-0.28h0.02l1.5,-0.26h0.02l1.5,-0.23h0.02l1.51,-0.21h0.02l1.51,-0.18h0.02l1.52,-0.14l0.02,-0.01l1.52,-0.11l0.02,-0.01l1.52,-0.08h0.02l1.52,-0.06h0.02l1.52,-0.02h0.03l1.52,0.01h0.02l1.53,0.05h0.02l1.52,0.08h0.03l1.52,0.14h0.04l1.51,0.2l0.05,0.01l1.5,0.27l0.06,0.01l1.48,0.37l0.07,0.02l1.45,0.47l0.09,0.04l1.39,0.61l0.11,0.05l1.31,0.77l0.12,0.09l1.19,0.96l0.12,0.12l1,1.15l0.11,0.16l0.75,1.32l0.08,0.18l0.48,1.44l0.04,0.17l0.23,1.5l0.01,0.15l0.01,1.52v0.11l-0.16,1.52l-0.02,0.08l-0.29,1.5l-0.02,0.07l-0.4,1.47l-0.02,0.05l-0.48,1.45l-0.02,0.04l-0.55,1.42l-0.01,0.04l-0.61,1.39l-0.02,0.03l-0.65,1.38l-0.01,0.02l-0.69,1.36l-0.01,0.02l-0.73,1.34l-0.01,0.02l-0.75,1.33l-0.01,0.01l-0.78,1.31v0.02l-0.8,1.29l-0.01,0.02l-0.81,1.28l-0.01,0.01l-0.83,1.28l-0.01,0.01l-0.84,1.27l-0.85,1.26l-0.01,0.01l-0.87,1.26l-0.87,1.24l-0.01,0.01l-0.88,1.25l-0.89,1.24l-0.89,1.23l-0.01,0.01l-0.89,1.23l-0.9,1.23l-0.89,1.24l-0.9,1.23l-0.89,1.23l-0.89,1.24l-0.87,1.24l-0.87,1.25l-0.84,1.24l-0.82,1.26l-0.78,1.28l-0.73,1.3h-0.01l-0.64,1.31l-0.59,1.36l-0.57,1.38l-0.52,1.4l-0.49,1.42l-0.44,1.42l-0.39,1.44l-0.34,1.45l-0.29,1.46l-0.23,1.47l-0.19,1.44h0.01l-0.14,1.48h0.01l-0.09,1.52l-0.03,1.5v1.46l0.04,1.5l0.08,1.51l0.11,1.52l0.12,1.5l0.13,1.5l0.16,1.52l0.16,1.51l0.15,1.52v0.01l0.14,1.51v0.02l0.12,1.52v0.02l0.08,1.52v0.03l0.05,1.52v0.03l-0.01,1.53v0.04l-0.07,1.52v0.05l-0.15,1.51l-0.01,0.06l-0.23,1.51l-0.02,0.07l-0.35,1.48l-0.02,0.09l-0.48,1.45l-0.04,0.1l-0.64,1.38l-0.06,0.11l-0.79,1.29l-0.07,0.1l-0.93,1.2l-0.09,0.1l-1.1,1.06l-0.11,0.1l-1.25,0.88l-0.13,0.08l-1.37,0.67l-0.14,0.06l-1.46,0.45l-0.13,0.03l-1.51,0.24l-0.11,0.02l-1.52,0.06h-0.1l-1.52,-0.08l-0.08,-0.01l-1.51,-0.2l-0.06,-0.01l-1.55,-0.31l-1.47,-0.37l-0.04,-0.02l-1.46,-0.43l-0.04,-0.01l-1.44,-0.49l-0.03,-0.01l-1.43,-0.52l-0.02,-0.01l-1.41,-0.55l-0.02,-0.01l-1.41,-0.58h-0.01l-1.4,-0.59l-1.4,-0.6l-1.4,-0.61l-1.4,-0.59l-1.41,-0.58l-1.39,-0.54l-1.41,-0.49l-1.41,-0.42l-1.41,-0.34l-1.46,-0.31l-1.5,-0.27l-1.44,-0.23v0.01l-1.51,-0.17l-1.45,-0.09l-1.4,0.03l-1.05,0.2l-0.26,0.30761l0.29,0.63239l0.93,0.97l1.01,0.86l1.26,0.86l1.17,0.62l1.4,0.6l1.37,0.48l1.43,0.42l1.43,0.37l1.44,0.35v-0.01l1.49,0.33l1.49,0.32l1.49,0.33l0.02,0.01l1.48,0.36h0.03l1.47,0.41l0.04,0.01l1.45,0.47l0.03,0.01l1.43,0.51l0.04,0.02l1.41,0.56l0.04,0.02l1.39,0.62l0.03,0.02l1.37,0.68l0.03,0.02l1.34,0.73l0.03,0.02l1.31,0.79l0.03,0.02l1.28,0.83l0.03,0.02l1.24,0.89l0.03,0.02l1.2,0.93l0.03,0.03l1.17,0.98l0.03,0.02l1.13,1.03l0.03,0.02l1.09,1.07l0.02,0.02l1.05,1.11l0.03,0.03l1,1.14l0.02,0.03l0.96,1.19l0.03,0.02l0.91,1.22l0.02,0.03l0.87,1.25l0.02,0.03l0.83,1.28l0.02,0.04l0.77,1.31l0.02,0.03l0.73,1.34l0.01,0.03l0.7,1.4l0.63,1.38l0.01,0.04l0.58,1.41l0.01,0.03l0.53,1.43l0.01,0.03l0.47,1.45l0.01,0.04l0.42,1.46l0.01,0.03l0.38,1.52l0.32,1.49v0.03l0.27,1.5v0.04l0.21,1.51v0.03l0.16,1.52v0.03l0.1,1.52v0.04l0.05,1.52v0.04l-0.01,1.52v0.04l-0.07,1.52v0.04l-0.12,1.51l-0.01,0.04l-0.17,1.51v0.04l-0.23,1.51l-0.01,0.03l-0.28,1.5l-0.01,0.03l-0.34,1.49l-0.01,0.03l-0.39,1.48l-0.01,0.03l-0.44,1.46l-0.02,0.05l-0.52,1.43l-0.02,0.05l-0.6,1.4l-0.01,0.01l-0.61,1.39l-1.26,2.78l-0.61,1.38l-0.6,1.4l-0.55,1.39l-0.51,1.41l-0.45,1.41l-0.39,1.43l-0.32,1.44l-0.24,1.45l-0.16,1.41l-0.1,1.52l-0.03,1.48l0.06,1.41l0.15,1.51l0.21,1.46l0.26,1.45l0.3,1.48l0.32,1.48l0.33,1.49l0.32,1.49v0.03l0.29,1.49v0.03l0.24,1.51l0.01,0.04l0.17,1.52v0.06l0.08,1.52v0.07l-0.03,1.53l-0.02,0.14l-0.03,0.13l-0.05,0.14l-0.07,0.12l-0.09,0.11l-0.1,0.1l-0.12,0.08l-0.12,0.07l-0.13,0.04l-0.14,0.03l-0.14,0.01l-0.19,-0.02l-1.41,-0.27l-0.11,-0.03l-1.45,-0.46l-0.06,-0.02l-1.42,-0.54l-0.04,-0.02l-1.4,-0.6l-0.04,-0.02l-1.37,-0.66l-0.03,-0.01l-1.35,-0.7l-0.02,-0.01l-1.34,-0.73l-0.01,-0.01l-1.33,-0.75h-0.01l-1.31,-0.77l-1.32,-0.77l-1.31,-0.77l-1.31,-0.75l-1.33,-0.75l-1.32,-0.71l-1.34,-0.67l-1.35,-0.63v-0.01l-1.32,-0.54l-1.38,-0.49l-1.39,-0.41l-1.49,-0.31l-1.43,-0.17l-1.42,-0.03l-1.33,0.11l-1.34,0.31l-1.45,0.47v-0.01l-1.35,0.55l-1.35,0.61l-2.74,1.29l-0.02,0.01l-1.39,0.62l-0.04,0.02l-1.42,0.56l-0.06,0.02l-1.45,0.46l-0.09,0.02l-1.49,0.32l-0.1,0.02l-1.51,0.18h-0.1l-1.52,0.02h-0.13l-1.51,-0.17l-0.11,-0.02l-1.49,-0.34l-0.09,-0.02l-1.45,-0.49l-0.08,-0.03l-1.4,-0.6l-0.06,-0.03l-1.35,-0.71l-0.06,-0.03l-1.3,-0.79l-0.05,-0.03l-1.25,-0.86l-0.04,-0.03l-1.22,-0.92l-0.03,-0.03l-1.17,-0.97l-0.03,-0.03l-1.13,-1.02l-0.03,-0.02l-1.09,-1.06l-0.03,-0.02l-1.06,-1.1l-1.05,-1.1l-0.01,-0.01l-1.04,-1.11l-0.02,-0.03l-1.01,-1.14l-0.02,-0.03l-0.96,-1.17l-0.02,-0.02l-0.94,-1.21l-0.01,-0.02l-0.9,-1.23l-0.02,-0.03l-0.86,-1.25l-0.01,-0.03l-0.83,-1.28l-0.01,-0.02l-0.79,-1.3l-0.02,-0.02l-0.76,-1.33l-0.01,-0.02l-0.72,-1.34l-0.01,-0.02l-0.7,-1.35v-0.02l-0.67,-1.38l-0.01,-0.02l-0.63,-1.38l-0.01,-0.02l-0.6,-1.4l-0.01,-0.02l-0.58,-1.41v-0.01l-0.56,-1.42v-0.02l-0.53,-1.43l-0.01,-0.01l-0.5,-1.44l-0.01,-0.01l-0.48,-1.44l-0.01,-0.02l-0.46,-1.45l-0.01,-0.01l-0.45,-1.45v-0.02l-0.43,-1.46v-0.01l-0.42,-1.46l-0.4,-1.47l-0.01,-0.02l-0.39,-1.47l-0.38,-1.48v-0.01l-0.37,-1.48l-0.36,-1.48v-0.01l-0.36,-1.48l-0.35,-1.48l-0.34,-1.49l-0.68,-2.96l-0.34,-1.49l-0.34,-1.48l-0.35,-1.49l-0.7,-2.96l-0.36,-1.48l-0.36,-1.42l-0.45,-1.45h0.01l-0.49,-1.41l-0.52,-1.41l-0.5,-1.24l0.01,1.29v1.53l-0.01,1.52l-0.01,1.53v0.01l-0.03,1.53l-0.01,0.01l-0.04,1.52v0.01l-0.07,1.52v0.02l-0.09,1.52v0.02l-0.11,1.51v0.02l-0.14,1.52v0.02l-0.17,1.51l-0.01,0.03l-0.2,1.51l-0.01,0.02l-0.24,1.5v0.03l-0.29,1.5v0.03l-0.33,1.48l-0.01,0.04l-0.38,1.47l-0.02,0.07l-0.49,1.45l-0.04,0.08l-0.61,1.39l-0.06,0.11l-0.77,1.31l-0.09,0.12l-0.96,1.18l-0.15,0.14l-1.19,0.95l-0.12,0.08l-0.12,0.07l-1.4,0.58l-0.14,0.04l-0.19,0.03l-1.52,0.08l-0.14,-0.01l-0.2,-0.03l-1.45,-0.44l-0.13,-0.05l-0.13,-0.07l-1.27,-0.83l-0.11,-0.08l-0.06,-0.05l-1.07,-1.08l-0.1,-0.13l-0.88,-1.24l-0.07,-0.11l-0.72,-1.34l-0.04,-0.09l-0.57,-1.41l-0.03,-0.08l-0.46,-1.46l-0.01,-0.07l-0.35,-1.48l-0.01,-0.04l-0.29,-1.49l-0.01,-0.03l-0.25,-1.5v-0.02l-0.22,-1.51v-0.02l-0.19,-1.51l-0.01,-0.01l-0.16,-1.52v-0.01l-0.15,-1.52v-0.01l-0.13,-1.52v-0.01l-0.11,-1.52l-0.1,-1.52v-0.02l-0.09,-1.52l-0.07,-1.52v-0.01l-0.07,-1.52l-0.05,-1.53v-0.01l-0.05,-1.52l-0.01,-0.22l-0.53,1.37l-0.52,1.41l-0.47,1.42l-0.42,1.42l-0.35,1.44l-0.36,1.49l-0.36,1.47l-0.34,1.48l-0.35,1.48l-0.34,1.49l-0.34,1.48l-0.34,1.49l-0.34,1.48l-0.34,1.49l-0.35,1.48l-0.72,2.96l-0.01,0.01l-0.37,1.48l-0.38,1.47v0.02l-0.8,2.94l-0.01,0.02l-0.42,1.46v0.01l-0.43,1.46l-0.01,0.01l-0.45,1.46v0.01l-0.47,1.45l-0.01,0.01l-0.49,1.44v0.02l-0.52,1.43v0.01l-0.54,1.43v0.02l-0.56,1.41l-0.01,0.02l-0.58,1.41l-0.01,0.02l-0.61,1.39l-0.01,0.02l-0.64,1.38l-0.01,0.02l-0.67,1.37l-0.01,0.02l-0.7,1.35l-0.01,0.02l-0.73,1.34l-0.01,0.02l-0.77,1.32l-0.01,0.02l-0.8,1.3l-0.01,0.02l-0.84,1.28l-0.01,0.02l-0.87,1.25l-0.02,0.02l-0.91,1.23l-0.01,0.02l-0.95,1.2l-0.01,0.02l-0.98,1.17l-0.02,0.03l-1.02,1.13l-0.02,0.03l-1.05,1.1l-1.04,1.11l-0.02,0.01l-1.06,1.08l-0.03,0.03l-1.1,1.05l-0.03,0.02l-1.14,1.01l-0.03,0.03l-1.18,0.96l-0.03,0.03l-1.23,0.91l-0.04,0.03l-1.27,0.84l-0.04,0.03l-1.32,0.77l-0.06,0.03l-1.36,0.69l-0.07,0.03l-1.41,0.58l-0.08,0.03l-1.45,0.45l-1.6,0.32l-0.11,0.02l-1.52,0.12l-0.12,0.01l-1.52,-0.07l-0.09,-0.01l-1.51,-0.2l-0.1,-0.02l-1.48,-0.36l-0.09,-0.02l-1.44,-0.49l-0.06,-0.02l-1.41,-0.58l-0.04,-0.01l-1.38,-0.63l-0.02,-0.01l-1.37,-0.66l-1.38,-0.64l-1.37,-0.6l-1.38,-0.53l-1.39,-0.42l-1.3,-0.26146l-1.42,-0.07854l-1.38,0.07l-1.42,0.2l-1.49,0.34l-1.33,0.4v0.01l-1.43,0.53l-1.35,0.58l-1.34,0.63l-1.33,0.68l-1.32,0.72l-1.3,0.74l-1.32,0.76l-1.31,0.77l-1.32,0.77l-1.32,0.76l-0.01,0.01l-1.32,0.75l-0.02,0.01l-1.34,0.72l-0.02,0.01l-1.36,0.69l-0.03,0.02l-1.38,0.64l-0.03,0.02l-1.41,0.59l-0.04,0.02l-1.43,0.52l-0.06,0.02l-1.46,0.44l-0.14,0.03l-0.14,0.01l-0.16,-0.01l-1.09,-0.18l-0.14,-0.03l-0.13,-0.05l-0.13,-0.07l-0.11,-0.09l-0.1,-0.1l-0.08,-0.11l-0.07,-0.13l-0.05,-0.13l-0.03,-0.14l-0.01,-0.13v-1.6l0.1,-1.52l0.01,-0.05l0.18,-1.51l0.01,-0.04l0.25,-1.51l0.01,-0.03l0.29,-1.49v-0.02l0.32,-1.49l0.33,-1.48l0.32,-1.49l0.3,-1.46h-0.01l0.26,-1.5h0.01l0.18,-1.42l0.13,-1.52l0.04,-1.46l-0.04,-1.47l-0.12,-1.47l-0.19,-1.46l-0.26,-1.45l-0.34,-1.43h0.01l-0.41,-1.42l-0.45,-1.37l-0.53,-1.43l-0.57,-1.39l-0.59,-1.38l-0.62,-1.37l-0.62,-1.39l-0.63,-1.39l-0.62,-1.39v-0.02l-0.6,-1.4l-0.02,-0.07l-0.5,-1.44l-0.01,-0.04l-0.43,-1.46l-0.01,-0.04l-0.38,-1.47l-0.01,-0.04l-0.32,-1.49l-0.01,-0.03l-0.27,-1.5l-0.01,-0.04l-0.21,-1.5l-0.01,-0.04l-0.16,-1.51v-0.04l-0.11,-1.52v-0.04l-0.05,-1.52v-1.59l0.06,-1.53v-0.03l0.11,-1.52v-0.04l0.17,-1.51l0.01,-0.04l0.22,-1.5v-0.04l0.28,-1.5v-0.03l0.33,-1.49l0.01,-0.03l0.38,-1.48l0.01,-0.03l0.44,-1.46l0.01,-0.04l0.48,-1.44l0.02,-0.03l0.53,-1.43l0.02,-0.03l0.59,-1.41l0.01,-0.03l0.64,-1.38l0.02,-0.04l0.69,-1.35l0.01,-0.04l0.74,-1.33l0.02,-0.03l0.79,-1.31l0.02,-0.03l0.83,-1.27l0.02,-0.03l0.88,-1.24l0.02,-0.03l0.93,-1.21l0.02,-0.03l0.97,-1.18l0.03,-0.03l1.01,-1.13l0.03,-0.03l1.06,-1.1l0.02,-0.02l1.1,-1.06l0.03,-0.03l1.14,-1.01l0.03,-0.02l1.17,-0.97l0.03,-0.03l1.22,-0.92l0.03,-0.02l1.24,-0.87l0.04,-0.02l1.28,-0.83l0.03,-0.02l1.32,-0.77l0.03,-0.02l1.34,-0.72l0.04,-0.02l1.37,-0.66l0.03,-0.02l1.4,-0.61l0.03,-0.02l1.42,-0.55l0.04,-0.02l1.44,-0.5l0.03,-0.01l1.45,-0.45l0.04,-0.01l1.47,-0.4h0.03l1.48,-0.35l0.02,-0.01l1.49,-0.32l1.49,-0.33l1.48,-0.33v0.01l1.47,-0.36l1.44,-0.38l1.37,-0.43l1.43,-0.52l1.33,-0.6l1.16,-0.65l1.21,-0.89l1.07,-0.95l0.76,-0.88l0.14,-0.51l-0.44,-0.29l-1.25,-0.16l-1.33,0.01l-1.52,0.12l-1.47,0.18l-1.47,0.23v-0.00239l-1.47,0.28239l-1.45,0.32l-1.44,0.37v-0.01l-1.37,0.42621v0.00379l-1.43,0.51l-1.39,0.55l-1.39,0.58l-1.4,0.6l-2.79,1.19l-1.4,0.59l-0.03,0.01l-1.41,0.58h-0.01l-1.42,0.55l-0.03,0.01l-1.43,0.51l-1.47,0.49l-0.04,0.01l-1.46,0.42l-0.04,0.01l-1.48,0.36l-0.06,0.01l-1.49,0.28l-0.07,0.01l-1.51,0.17l-0.09,0.01l-1.52,0.05h-0.1l-1.52,-0.11l-0.12,-0.01l-1.49,-0.29l-0.14,-0.04l-1.44,-0.5l-0.14,-0.07l-1.34,-0.72l-0.14,-0.08l-1.21,-0.93l-0.11,-0.1l-1.05,-1.1l-0.09,-0.1l-0.9,-1.23l-0.06,-0.09l-0.76,-1.31l-0.06,-0.11l-0.59,-1.4l-0.04,-0.1l-0.45,-1.46l-0.02,-0.08l-0.32,-1.49l-0.01,-0.07l-0.22,-1.51v-0.05l-0.13,-1.52v-0.05l-0.06,-1.52v-0.04l0.01,-1.52v-0.04l0.05,-1.52v-0.02l0.1,-1.52v-0.02l0.12,-1.52v-0.02l0.14,-1.51l0.16,-1.52v-0.01l0.16,-1.51l0.15,-1.52l0.13,-1.5l0.12,-1.51l0.1,-1.51l0.07,-1.5l0.03,-1.5v-1.49l-0.05,-1.5l-0.09,-1.49l-0.15,-1.48h0.01l-0.19,-1.44h-0.01l-0.25,-1.5l-0.3,-1.46l-0.36,-1.44l-0.4,-1.44l-0.45,-1.42l-0.5,-1.4l-0.53,-1.4l-0.58,-1.38l-0.61,-1.37l-0.67,-1.31l-0.71,-1.24h-0.01l-0.8,-1.29l-0.83,-1.26l-0.85,-1.24l-0.86,-1.24l-0.88,-1.25l-0.88,-1.22l-0.9,-1.24l-0.89,-1.23l-0.9,-1.23l-0.89,-1.23l-0.9,-1.23l-0.89,-1.24l-1.76,-2.48l-0.01,-0.01l-0.87,-1.25l-0.87,-1.26v-0.01l-0.86,-1.26l-0.84,-1.27l-0.01,-0.02l-0.83,-1.28v-0.01l-0.81,-1.29l-0.01,-0.01l-0.79,-1.3l-0.01,-0.02l-0.77,-1.31l-0.01,-0.02l-0.75,-1.33l-0.01,-0.01l-0.71,-1.35l-0.02,-0.02l-0.68,-1.36l-0.01,-0.03l-0.65,-1.38l-0.01,-0.03l-0.6,-1.4l-0.01,-0.04l-0.54,-1.43l-0.02,-0.04l-0.46,-1.45l-0.02,-0.06l-0.38,-1.48l-0.01,-0.07l-0.27,-1.5l-0.01,-0.09l-0.12,-1.52l-0.01,-0.12l0.06,-1.52l0.02,-0.15l0.28,-1.49l0.05,-0.17l0.55,-1.42l0.08,-0.18l0.82,-1.29l0.11,-0.15l1.05,-1.11l0.13,-0.11l1.21,-0.91l0.12,-0.08l1.34,-0.73l0.1,-0.05l1.41,-0.58l0.08,-0.03l1.46,-0.44l0.07,-0.02l1.48,-0.34l0.06,-0.01l1.5,-0.26l0.05,-0.01l1.51,-0.18h0.04l1.52,-0.12h0.03l1.53,-0.07h0.02l1.52,-0.04h0.02l1.52,-0.01h0.03l1.52,0.03h0.02l1.52,0.06l0.02,0.01l1.52,0.09h0.02l1.52,0.13h0.02l1.52,0.15h0.02l1.51,0.19h0.02l1.51,0.21h0.01l1.51,0.24h0.01l1.51,0.26l0.01,0.01l1.5,0.28l0.01,0.01l1.49,0.31h0.02l1.49,0.34h0.01l1.48,0.36h0.01l1.48,0.38h0.01l1.47,0.4h0.02l1.46,0.42h0.01l1.46,0.44h0.02l1.45,0.46h0.01l1.45,0.47l0.01,0.01l1.44,0.49h0.01l1.44,0.51h0.01l1.43,0.52h0.01l1.43,0.54h0.01l1.42,0.55l1.41,0.57h0.02l1.41,0.58l1.41,0.59l0.01,0.01l1.4,0.6l1.4,0.61l0.01,0.01l1.39,0.62l1.39,0.64h0.01l1.38,0.65l1.37,0.66h0.02l1.37,0.67l1.36,0.67l0.01,0.01l1.37,0.68l1.35,0.69h0.01l1.36,0.7l1.35,0.71l0.01,0.01l1.34,0.71l1.35,0.71l1.34,0.72l0.03,0.01l1.32,0.74l0.02,0.01l1.31,0.78l0.02,0.01l1.3,0.8l0.01,0.01l1.29,0.82l0.01,0.01l1.27,0.84l0.01,0.01l1.26,0.87l0.01,0.01l1.24,0.89l0.01,0.01l1.22,0.91l0.01,0.01l1.21,0.92l0.01,0.01l1.2,0.95l0.01,0.01l1.18,0.96l0.01,0.01l1.17,0.98l0.01,0.01l1.15,0.99l0.01,0.01l1.14,1.01l0.01,0.01l1.13,1.02l0.01,0.01l1.11,1.04l0.01,0.01l1.1,1.05l0.01,0.01l1.09,1.06h0.01l1.08,1.08l1.07,1.08l0.02,0.02l1.06,1.09l1.05,1.1l0.01,0.02l1.04,1.11l1.03,1.12l0.01,0.01l1.03,1.13l1.01,1.14l0.01,0.01l1.01,1.14l0.99,1.15l0.01,0.01l1.98,2.32l0.01,0.01l0.97,1.17l0.98,1.17l0.96,1.18l0.01,0.01l1.92,2.36l0.95,1.19l0.01,0.01l0.95,1.19l2.82,3.6l0.01,0.01l0.93,1.2l0.94,1.2l0.93,1.2l1.86,2.42l0.05,0.06l0.2,-1.21l0.01,-0.04l0.27,-1.27l-0.28,-1.26l-0.41,-1.4l-0.45,-1.44l-0.47,-1.43l-0.49,-1.43l-0.51,-1.42l-0.54,-1.41h0.01l-0.56,-1.4l-0.58,-1.4l-0.6,-1.38l-0.62,-1.37l-0.64,-1.37l-0.65,-1.33h-0.01l-0.69,-1.36l-0.71,-1.31l-0.74,-1.33l-0.76,-1.3l-0.78,-1.28l-0.8,-1.28l-0.83,-1.25l-0.84,-1.28v-0.01l-1.64,-2.56l-0.83,-1.28h0.01l-0.84,-1.27l-0.85,-1.25l-0.87,-1.22l-0.9,-1.2l-0.92,-1.2l-0.93,-1.18l-0.95,-1.19l-0.95,-1.18l-0.96,-1.19l-0.95,-1.19l-0.95,-1.18l-0.98,-1.11l-0.01,-0.01l-1,-1.16l-0.04,-0.06l-0.9,-1.22l-0.1,-0.15l-0.67,-1.37l-0.05,-0.13l-0.03,-0.13l-0.02,-0.15l-0.03,-1.5v-0.14l0.03,-0.14l0.04,-0.14l0.07,-0.12l0.08,-0.12l0.95,-1.15l0.09,-0.11l0.11,-0.08l0.13,-0.07l0.17,-0.07l1.45,-0.41l0.14,-0.03l0.14,-0.01l0.2,0.03l1.47,0.31l0.14,0.04l0.19,0.1l1.28,0.81l0.12,0.08l1.16,1l0.06,0.06l1.06,1.1l0.04,0.04l1,1.15l0.01,0.02l0.97,1.18l0.97,1.17l0.96,1.18l0.01,0.02l0.94,1.19l0.02,0.02l0.92,1.21l0.01,0.02l0.9,1.23l0.01,0.01l0.87,1.25l0.01,0.01l0.86,1.26l0.01,0.01l0.83,1.28l0.01,0.01l0.82,1.29v0.01l0.8,1.3l0.01,0.01l0.78,1.3l0.01,0.01l0.76,1.32l0.01,0.01l0.75,1.32l0.01,0.01l0.73,1.34l0.01,0.01l0.72,1.34l0.01,0.01l0.7,1.35l0.01,0.01l0.68,1.36l0.01,0.01l0.67,1.37v0.01l0.65,1.38l0.01,0.01l0.63,1.39l0.01,0.01l0.62,1.39v0.01l0.6,1.41v0.01l0.58,1.41l0.01,0.01l0.56,1.42v0.01l0.54,1.42l0.01,0.02l0.52,1.43v0.01l0.5,1.44l0.01,0.01l0.48,1.45v0.01l0.46,1.46v0.01l0.44,1.46v0.01l0.42,1.47v0.01l0.11,0.42l0.81,-0.55l0.13,-0.08l0.14,-0.05l1.45,-0.46l0.14,-0.03l0.17,-0.01l1.51,0.01l0.14,0.01l0.14,0.04l0.08,0.02l1.41,0.56l0.13,0.06l0.14,0.1l0.34,0.28l0.22,-0.82l0.01,-0.01l0.42,-1.47v-0.01l0.45,-1.46v-0.01l0.47,-1.45v-0.02l0.49,-1.44v-0.01l0.51,-1.44v-0.01l0.53,-1.43l0.01,-0.02l0.54,-1.42l0.01,-0.01l0.56,-1.41l0.01,-0.02l0.59,-1.4v-0.02l0.6,-1.39l0.01,-0.02l0.62,-1.39l0.01,-0.01l0.64,-1.38v-0.01l0.66,-1.38l0.01,-0.01l0.67,-1.36l0.01,-0.01l0.69,-1.36l0.01,-0.01l0.71,-1.35v-0.01l0.73,-1.34v-0.01l0.74,-1.33l0.01,-0.01l0.76,-1.32v-0.01l0.78,-1.32v-0.01l0.79,-1.3l0.01,-0.01l0.8,-1.29l0.01,-0.01l0.82,-1.29l0.01,-0.01l0.84,-1.27l0.01,-0.02l0.86,-1.25l0.01,-0.02l0.89,-1.24l0.01,-0.01l0.9,-1.22l0.01,-0.02l0.93,-1.21l0.01,-0.01l0.95,-1.19l0.01,-0.01l1.94,-2.36l0.97,-1.17l0.02,-0.03l1.02,-1.14l0.04,-0.05l1.09,-1.06l0.08,-0.07l1.2,-0.94l0.15,-0.1l1.35,-0.71l0.13,-0.06l0.13,-0.03l0.16,-0.02l1.51,-0.07l0.14,0.01l0.14,0.02l0.13,0.04l0.07,0.03l1.35,0.67l0.12,0.07l0.11,0.08l0.1,0.11l0.08,0.11l0.06,0.1l0.62,1.35l0.05,0.13l0.03,0.14l0.01,0.14v0.14l-0.02,0.08l-0.31,1.48l-0.04,0.13l-0.08,0.17l-0.78,1.31l-0.07,0.1l-0.94,1.2l-0.04,0.04l-2,2.3l-0.91,1.15l-0.96,1.19l-0.95,1.19l-0.96,1.18l-0.95,1.19l-0.93,1.18l0.01,0.01l-0.93,1.21l-0.89,1.21l-0.86,1.23l-0.84,1.25l-0.82,1.27l-1.64,2.56l-0.83,1.28l-0.84,1.28l-0.83,1.27l-0.79,1.28l-0.78,1.29l-0.75,1.3l-0.72,1.32l-0.71,1.33z" stroke="none"></path><path d="M257.31,77.64l-0.89,1.23l-0.02,0.03l-0.89,1.23l-0.02,0.03l-0.89,1.24l-0.04,0.05l-0.88,1.25l-0.05,0.07l-0.86,1.25l-0.07,0.1l-0.85,1.26l-0.1,0.14l-0.83,1.28l-0.12,0.2l-0.8,1.3l-0.18,0.3l-0.75,1.33l-0.26,0.5l-0.68,1.37l-0.17,0.38l-0.61,1.39l-0.09,0.21l-0.58,1.41l-0.09,0.25l-0.54,1.42l-0.1,0.27l-0.49,1.44l-0.1,0.29l-0.45,1.45l-0.09,0.31l-0.4,1.47l-0.08,0.33l-0.35,1.48l-0.07,0.34l-0.3,1.49l-0.06,0.35l-0.24,1.5l-0.05,0.34l-0.19,1.51l-0.03,0.33l-0.13,1.52l-0.03,0.32l-0.08,1.52l-0.01,0.29l-0.04,1.52v2.04l0.05,1.52l0.01,0.22l0.09,1.71l0.11,1.52v0.09l0.12,1.52l0.01,0.07l0.14,1.52l0.01,0.12l0.15,1.52l0.01,0.03l0.15,1.48l0.15,1.52h0.01l0.11,1.27l0.1,1.32l0.08,1.27l0.04,1.52l-0.01,0.93l-0.04,1.03l-0.1,1.07l-0.12,0.82l-0.18,0.78l-0.18,0.55l-0.18,0.39l-0.19,0.32l-0.23,0.3l-0.07,0.07l-0.13,0.04l-0.29,0.04l-0.47,0.02l-0.75,-0.04l-0.73,-0.1l-0.97,-0.19l-1.07,-0.28l-1.14,-0.34l-0.99,-0.33l-1.29,-0.47l-1.37,-0.54l-1.26,-0.52v0.01l-1.31,-0.56l-1.34,-0.58l-1.39,-0.59l-0.04,-0.02l-1.41,-0.6l-0.1,-0.04l-1.41,-0.58l-0.18,-0.08l-1.42,-0.55l-0.31,-0.11l-1.44,-0.5l-0.44,-0.14l-1.46,-0.43l-0.43,-0.12l-1.47,-0.36l-0.32,-0.07l-1.49,-0.32l-0.27,-0.05l-1.5,-0.27l-0.29,-0.05l-1.5,-0.23l-0.35,-0.04l-1.52,-0.17l-0.47,-0.05l-1.52,-0.09l-0.44,-0.02h-0.32l-1.52,0.03l-0.44,0.01l-0.44,0.04l-0.43,0.06l-0.31,0.05l-1.49,0.28l-0.43,0.09l-0.42,0.11l-0.42,0.13l-0.41,0.15l-0.41,0.17l-0.4,0.18l-0.38,0.21l-0.38,0.22l-0.37,0.24l-0.36,0.25l-0.34,0.27l-0.33,0.29l-0.32,0.3l-0.31,0.31l-0.23,0.27l-0.92,1.07l-0.28,0.34l-0.26,0.35l-0.25,0.37l-0.23,0.37l-0.21,0.39l-0.19,0.39l-0.18,0.4l-0.15,0.41l-0.14,0.41l-0.12,0.43l-0.1,0.42l-0.08,0.43l-0.06,0.44l-0.04,0.43l-0.02,0.44v0.44l0.02,0.44l0.04,0.43l0.06,0.44l0.08,0.43l0.09,0.43l0.12,0.42l0.14,0.41l0.16,0.41l0.21,0.5l0.65,1.35l0.19,0.39l0.22,0.39l0.23,0.37l0.25,0.36l0.26,0.35l0.28,0.33l0.27,0.3l1.05,1.1l0.3,0.31l0.44,0.4l1.16,0.99l0.34,0.28l0.45,0.32l1.26,0.87l0.37,0.23l0.55,0.32l1.35,0.72l0.39,0.2l0.35,0.16l1.4,0.59l0.59,0.23l1.43,0.5l0.45,0.15l1.46,0.43l0.32,0.09l1.47,0.38l0.23,0.06l1.48,0.35l0.13,0.03l1.49,0.32l0.03,0.01l1.43,0.31l1.43,0.32l1.19,0.29l1.15,0.32l1.09,0.34l1.07,0.38l1.15,0.47l1,0.45l1.15,0.57l0.81,0.45l1.05,0.62l1.13,0.75l0.85,0.61l0.98,0.77l0.67,0.56l0.82,0.74l0.88,0.86l0.97,1.02l0.58,0.66l0.79,0.97l0.69,0.92l0.78,1.13l0.44,0.68l0.64,1.07l0.56,1.03l0.55,1.11l0.47,1.01l0.42,1.02l0.41,1.11l0.42,1.25l0.31,1.07l0.28,1.13l0.24,1.09l0.26,1.5l0.14,1.01324l0.1,0.98676l0.1,1.52l0.03,1.17l-0.01,1.03l-0.05,1.05l-0.08,1.1l-0.16,1.44l-0.14,0.9l-0.23,1.23l-0.32,1.41l-0.21,0.81l-0.35,1.15l-0.34,0.95l-0.51,1.19l-0.54,1.22l-1.26,2.78l-0.03,0.06l-0.62,1.39l-0.06,0.14l-0.59,1.4l-0.09,0.2l-0.56,1.42l-0.11,0.28l-0.52,1.43l-0.12,0.35l-0.46,1.45l-0.12,0.41l-0.4,1.47l-0.11,0.45l-0.33,1.49l-0.09,0.47l-0.25,1.5l-0.07,0.49l-0.18,1.51l-0.04,0.48l-0.1,1.52l-0.02,0.46l-0.03,1.52l0.01,0.56l0.06,1.52l0.04,0.55l0.07,0.67l-0.85,-0.47l-0.16,-0.09l-1.34,-0.72l-0.21,-0.11l-1.36,-0.69l-0.29,-0.14l-1.38,-0.64l-0.36,-0.16l-1.41,-0.58l-0.45,-0.18l-1.44,-0.51l-0.56,-0.18l-1.47,-0.42l-0.42,-0.11l-0.26,-0.06l-1.49,-0.31l-0.43,-0.08l-0.38,-0.06l-1.51,-0.18l-0.43,-0.05l-0.49,-0.02l-1.52,-0.04h-0.44l-0.61,0.03l-1.52,0.13l-0.43,0.04l-0.44,0.07l-0.48,0.1l-1.48,0.34l-0.43,0.11l-0.39,0.11l-1.44,0.47l-0.59,0.22l-1.42,0.56l-0.38,0.16l-1.39,0.63l-0.18,0.08l-1.37,0.65l-1.18,0.56l-1.18,0.54l-0.83,0.32l-0.8,0.25l-0.63,0.14l-0.47,0.06h-0.5l-0.39,-0.04l-0.46,-0.1l-0.63,-0.21l-0.67,-0.29l-0.74,-0.39l-0.88,-0.53l-0.8,-0.55l-0.86,-0.65169l-1.02,-0.84831l-0.69,-0.63l-0.93,-0.90117l-0.9,-0.92883l-1.01,-1.06l-0.98,-1.05l-0.8,-0.92l-0.59,-0.72l-0.94,-1.2l-0.56,-0.78l-0.86,-1.25l-0.68,-1.06l-0.66,-1.09l-0.51,-0.9l-0.62,-1.14l-0.69,-1.35l-0.48,-1l-0.56,-1.21l-0.6,-1.4l-0.51,-1.24l-0.44,-1.13322l-0.52,-1.40678l-0.41,-1.16l-0.49,-1.44l-0.42,-1.33l-0.39,-1.24h0.01l-0.44,-1.46l-0.38,-1.37l-0.38,-1.38l-0.37,-1.4l-0.36,-1.4l-0.35,-1.37h0.01l-0.36,-1.43h0.01l-0.36,-1.48l-0.34,-1.45l-0.34,-1.44h0.01l-0.34,-1.48l-0.34,-1.49l-0.34,-1.48l-0.35,-1.49v-0.02l-0.34,-1.48l-0.01,-0.03l-0.35,-1.48l-0.01,-0.04l-0.35,-1.48l-0.01,-0.05l-0.37,-1.48l-0.01,-0.06l-0.37,-1.47l-0.13,-0.48l-0.45,-1.45l-0.1,-0.31l-0.49,-1.44l-0.09,-0.23l-0.53,-1.43l-0.08,-0.21l-0.57,-1.41l-0.08,-0.19l-0.59,-1.41l-0.08,-0.17l-0.62,-1.39l-0.08,-0.17l-0.65,-1.38l-0.2,-0.39l-0.21,-0.38l-0.23,-0.37l-0.25,-0.37l-0.26,-0.35l-0.28,-0.33l-0.3,-0.33l-0.31,-0.31l-0.32,-0.29l-0.33,-0.28l-0.35,-0.27l-0.36,-0.25l-0.38,-0.23l-0.38,-0.22l-0.39,-0.19l-0.4,-0.18l-0.41,-0.17l-0.41,-0.14l-0.42,-0.12l-0.43,-0.1l-0.43,-0.09l-0.43,-0.06l-0.43,-0.05l-0.44,-0.02l-0.44,-0.01l-0.44,0.02l-0.43,0.03l-0.44,0.06l-0.43,0.07l-0.43,0.09l-0.42,0.12l-0.42,0.13l-0.41,0.15l-0.4,0.17l-0.4,0.19l-0.39,0.21l-0.37,0.22l-0.37,0.24l-0.35,0.26l-0.35,0.27l-0.33,0.29l-0.31,0.31l-0.3,0.31l-0.29,0.33l-0.27,0.35l-0.26,0.35l-0.24,0.37l-0.22,0.38l-0.21,0.38l-0.18,0.4l-0.17,0.4l-0.1,0.28l-0.12,-0.27l-0.19,-0.4l-0.21,-0.38l-0.23,-0.37l-0.24,-0.37l-0.26,-0.35l-0.28,-0.34l-0.29,-0.33l-0.31,-0.31l-0.32,-0.3l-0.33,-0.28l-0.35,-0.27l-0.36,-0.25l-0.36,-0.24l-0.38,-0.22l-0.39,-0.2l-0.4,-0.18l-0.41,-0.17l-0.41,-0.14l-0.42,-0.13l-0.43,-0.11l-0.42,-0.08l-0.44,-0.07l-0.43,-0.05l-0.44,-0.03l-0.44,-0.01l-0.44,0.01l-0.43,0.03l-0.44,0.05l-0.43,0.07l-0.43,0.1l-0.42,0.11l-0.42,0.12l-0.41,0.15l-0.41,0.17l-0.4,0.18l-0.38,0.21l-0.38,0.22l-0.37,0.24l-0.36,0.25l-0.34,0.27l-0.34,0.29l-0.31,0.3l-0.31,0.31l-0.29,0.33l-0.27,0.34l-0.26,0.35l-0.25,0.37l-0.22,0.37l-0.21,0.39l-0.6,1.17l-0.23,0.48l-0.62,1.4l-0.07,0.18l-0.59,1.4l-0.08,0.2l-0.56,1.42l-0.08,0.21l-0.52,1.43l-0.09,0.24l-0.48,1.45l-0.12,0.38l-0.42,1.46l-0.1,0.35l-0.37,1.48l-0.01,0.05l-0.36,1.48l-0.01,0.05l-0.36,1.48l-0.01,0.03l-0.34,1.49l-0.01,0.02l-0.34,1.49l-0.01,0.01l-0.34,1.49l-0.34,1.48l-0.34,1.49l-0.34,1.48l-0.33,1.43l-0.34,1.45l-0.7,2.86l-0.35,1.41l-0.36,1.4l-0.4,1.47h0.01l-0.37,1.3l-0.39,1.37l-0.4,1.35l-0.41,1.34l-0.48,1.45h0.01l-0.4,1.18h-0.01l-0.46,1.29l-0.47,1.28l-0.5,1.26l-0.51,1.23l-0.53,1.22l-0.64,1.38l-0.58,1.18l-0.56,1.08l-0.55,1.01l-0.64,1.1l-0.66,1.08l-0.78,1.2l-0.61,0.87l-0.73,1l-0.9,1.15l-0.64,0.76l-1.01,1.14l-0.84,0.88l-0.01,0.01l-1.05,1.1l-0.72,0.74l-0.9,0.86l-0.84,0.75l-0.98,0.8l-0.83,0.62l-0.88,0.59l-0.72,0.42l-0.84,0.42l-0.6,0.25l-0.62,0.19l-0.43,0.09l-0.41,0.03l-0.4,-0.02l-0.65,-0.08l-0.56,-0.14l-0.87,-0.29l-0.89,-0.37l-1.19,-0.54l-1.23,-0.59l-0.03,-0.01l-1.38,-0.65l-0.23,-0.11l-1.39,-0.61l-0.43,-0.17l-1.42,-0.55l-0.41,-0.15l-0.23,-0.07l-1.46,-0.44l-0.42,-0.12l-0.5,-0.11l-1.49,-0.3l-0.43,-0.08l-0.44,-0.05l-0.49,-0.04l-1.52,-0.09l-0.43,-0.01l-0.56,0.01l-1.52,0.08l-0.44,0.03l-0.46,0.05l-1.51,0.22l-0.43,0.07l-0.35,0.08l-1.48,0.34l-0.43,0.11l-0.22,0.06l-1.46,0.45l-0.54,0.18l-1.43,0.53l-0.43,0.17l-1.4,0.6l-0.34,0.15l-1.38,0.66l-0.26,0.13l-1.36,0.69l-0.2,0.11l-1.34,0.73l-0.14,0.08l-0.5,0.28l0.1,-1.15l0.03,-0.57l0.04,-1.52l-0.01,-0.52l-0.04,-1.53l-0.02,-0.46l-0.12,-1.52l-0.05,-0.48l-0.19,-1.51l-0.08,-0.48l-0.27,-1.5l-0.1,-0.47l-0.34,-1.49l-0.12,-0.44l-0.41,-1.47l-0.12,-0.39l-0.48,-1.45l-0.12,-0.33l-0.53,-1.43l-0.1,-0.26l-0.57,-1.41l-0.08,-0.19l-0.6,-1.4l-0.06,-0.12l-0.62,-1.39l-0.02,-0.05l-0.62,-1.37l-0.63,-1.39l-0.58,-1.32l-0.44,-1.04868l-0.3,-0.88132l-0.35,-1.21l-0.25,-0.97818l-0.24,-1.11182l-0.2,-1.09l-0.21,-1.44l-0.1,-1.01l-0.08,-1.13l-0.04,-1.04v-1.52l0.05,-1.16l0.08,-1.07l0.15,-1.29l0.12,-0.83l0.27,-1.49l0.23,-1l0.24,-0.96l0.03,-0.11l0.41,-1.35l0.38,-1.12l0.35,-0.9l0.45,-1.09l0.5,-1.08l0.62,-1.22l0.4,-0.72l0.6,-1l0.71,-1.1l0.68,-0.956l0.7,-0.914l0.81,-0.98445l0.72,-0.79555l0.81,-0.85l0.85,-0.81l0.88,-0.79l0.81,-0.66l0.91,-0.7l0.96,-0.67l1.01,-0.65l0.91,-0.54l1.14,-0.61173l0.89,-0.42827l1.26,-0.55l0.74,-0.29l1.44,-0.5l0.85,-0.27l1.23,-0.33l1.24,-0.3v0.01l1.45,-0.32l1.49,-0.33l0.06,-0.01l1.48,-0.33l0.15,-0.03l1.48,-0.36l0.25,-0.06l1.47,-0.39l0.35,-0.1l1.46,-0.45l0.47,-0.16l1.43,-0.53l0.41,-0.16l0.21,-0.09l1.39,-0.62l0.4,-0.19l0.39,-0.21l1.32,-0.74l0.38,-0.23l0.37,-0.24l0.2,-0.14l1.23,-0.9l0.35,-0.27l0.35,-0.29l1.14,-1.01l0.32,-0.3l0.31,-0.31l0.25,-0.28l1,-1.15l0.28,-0.34l0.27,-0.35l0.25,-0.36l0.23,-0.37l0.21,-0.38l0.2,-0.39l0.18,-0.4l0.16,-0.41l0.14,-0.41l0.12,-0.41l0.38,-1.42l0.1,-0.43l0.08,-0.43l0.07,-0.43l0.04,-0.44l0.03,-0.44v-0.43l-0.01,-0.44l-0.04,-0.44l-0.06,-0.43l-0.07,-0.44l-0.1,-0.42l-0.11,-0.43l-0.13,-0.41l-0.16,-0.41l-0.17,-0.41l-0.19,-0.39l-0.2,-0.39l-0.23,-0.38l-0.24,-0.36l-0.26,-0.36l-0.27,-0.34l-0.29,-0.33l-0.3,-0.31l-0.32,-0.3l-0.33,-0.29l-0.35,-0.27l-0.35,-0.26l-1.21,-0.82l-0.37,-0.24l-0.37,-0.23l-0.39,-0.2l-0.4,-0.19l-0.4,-0.16l-0.42,-0.15l-0.41,-0.13l-0.43,-0.12l-0.43,-0.09l-0.56,-0.09l-1.51,-0.2l-0.43,-0.04l-0.44,-0.03l-0.42,-0.01l-1.53,0.01l-0.44,0.02l-0.23,0.01l-1.51,0.12l-0.44,0.04l-1.51,0.18l-0.33,0.05l-1.51,0.24l-0.28,0.05l-1.5,0.28l-0.27,0.05l-1.49,0.33l-0.34,0.08l-1.47,0.38l-0.44,0.12l-1.46,0.45l-0.42,0.14l-1.43,0.52l-0.27,0.1l-1.42,0.56l-0.16,0.07l-1.41,0.58l-0.09,0.04l-1.4,0.6l-0.03,0.01l-1.38,0.59l-1.33,0.57l-1.41,0.59l-1.15,0.47l-1.22,0.47l-1.31,0.48l-0.98,0.32l-1.22,0.36l-1.08,0.26l-0.87,0.16l-0.84,0.1l-0.56,0.02l-0.5,-0.03l-0.25,-0.05l-0.06,-0.02l-0.03,-0.02l-0.09,-0.1l-0.19,-0.26l-0.25,-0.42l-0.16,-0.38l-0.18,-0.59l-0.15,-0.72l-0.15,-1.04l-0.07,-0.92l-0.04,-1.25l0.01,-1.15l0.05,-1.22l0.08,-1.28l0.11,-1.33h-0.01l0.13,-1.31l0.15,-1.49l0.16,-1.51l0.01,-0.06l0.15,-1.51l0.01,-0.15l0.13,-1.52v-0.02l0.13,-1.52l0.01,-0.14l0.1,-1.52l0.01,-0.2l0.07,-1.52l0.01,-0.22l0.03,-1.52v-1.78l-0.01,-0.27l-0.04,-1.53l-0.02,-0.29l-0.09,-1.52l-0.03,-0.32l-0.15,-1.52l-0.03,-0.33l-0.2,-1.51l-0.05,-0.35l-0.26,-1.5l-0.06,-0.34l-0.31,-1.49l-0.08,-0.34l-0.36,-1.48l-0.08,-0.32l-0.42,-1.47l-0.09,-0.3l-0.46,-1.45l-0.09,-0.29l-0.51,-1.44l-0.1,-0.26l-0.54,-1.42l-0.1,-0.23l-0.58,-1.41l-0.09,-0.2l-0.62,-1.4l-0.22,-0.48l-0.7,-1.35l-0.24,-0.44l-0.76,-1.32l-0.17,-0.27l-0.8,-1.3l-0.12,-0.18l-0.84,-1.27l-0.08,-0.13l-0.86,-1.26l-0.06,-0.1l-0.87,-1.24l-0.05,-0.07l-0.88,-1.24l-0.03,-0.05l-0.89,-1.23l-0.02,-0.03l-0.9,-1.24l-0.01,-0.01l-0.89,-1.24l-1.8,-2.46l-0.88,-1.22l-0.86,-1.18h0.01l-0.87,-1.21h0.01l-0.88,-1.24l-0.8,-1.15l-0.87,-1.25l-0.8,-1.2l-0.79,-1.19h-0.01l-0.76,-1.19l-0.75,-1.19l-0.72,-1.19l-0.69,-1.18l-0.66,-1.17l-0.61,-1.16l-0.58,-1.15l-0.46,-1.00555l-0.47,-1.11445l-0.4,-1.07311l-0.27,-0.83689l-0.22,-0.86l-0.12,-0.73l-0.01,-0.1l0.32,-0.12447l0.67,-0.20553l0.91,-0.21l0.93,-0.16l1.08,-0.13l1.27,-0.1l1.15,-0.06l1.28,-0.03l1.36,-0.01l1.47,0.03l1.18,0.05l1.27,0.08l1.52,0.12l1.14,0.12l1.34,0.16l1.51,0.21l1.34,0.21l1.34,0.24l1.26,0.24l1.42,0.3v-0.01l1.2,0.28l1.35,0.32l1.47,0.38l1.22,0.33l1.35,0.38l1.46,0.44l1.34,0.42l1.23,0.4l1.44,0.49l1.34,0.47l1.24,0.45l1.33,0.5l1.42,0.55v-0.01l1.33,0.54v-0.01l1.25,0.52l1.4,0.59v-0.01l1.33,0.58l1.25,0.55l1.38,0.62l1.32,0.6l1.25,0.59l1.32,0.63l1.31,0.63l2.62,1.3v0.01l1.36,0.69l1.26,0.65l1.3,0.68l1.35,0.71l0.03,0.02l1.35,0.71l1.1,0.59l1.16,0.65l1.16,0.68l1.14,0.7l1.14,0.73l1.13,0.75l1.12,0.77l1.11,0.8l1.22,0.91l0.97,0.73759v0.00241l1.09,0.86l1.07,0.87v0.01l1.17,0.98l0.96,0.83l1.14,1.01l0.96,0.87l1.04,0.96l1.02,0.98l1.03,0.99l1.01,1l1.07,1.09l1,1.03l0.93,0.98l1.04,1.11l0.93,1.01l1.02,1.13l0.92,1.03l1.01,1.14l0.92,1.06l0.95,1.11l0.98,1.17l0.01,-0.01l0.91,1.09l0.94,1.14l1.88,2.3l0.93,1.15l2.79,3.51l0.94,1.2l0.92,1.16l-0.01,0.01l1.86,2.38l0.93,1.21l0.92,1.19l0.93,1.21l0.94,1.2l0.27,0.34l0.29,0.33l0.31,0.31l0.32,0.3l0.33,0.29l0.34,0.27l0.36,0.25l0.37,0.24l0.38,0.22l0.39,0.2l0.4,0.19l0.4,0.16l0.44,0.16l0.65,0.21l0.42,0.13l0.43,0.11l0.43,0.08l0.43,0.07l0.43,0.05l0.44,0.03l0.44,0.01l0.44,-0.01l0.43,-0.03l0.44,-0.05l0.43,-0.07l0.43,-0.09l0.42,-0.11l0.42,-0.13l0.42,-0.15l0.4,-0.17l0.4,-0.18l0.39,-0.21l0.38,-0.22l0.36,-0.23l0.36,-0.26l0.35,-0.27l0.33,-0.28l0.32,-0.3l0.3,-0.32l0.01,-0.02l0.12,0.15l0.6,0.64l0.32,0.3l0.34,0.28l0.34,0.27l0.36,0.25l0.37,0.24l0.38,0.22l0.39,0.2l0.4,0.18l0.4,0.17l0.42,0.14l0.42,0.13l0.42,0.11l0.43,0.09l0.43,0.06l0.44,0.05l0.43,0.03l0.44,0.01l0.44,-0.01l0.44,-0.03l0.43,-0.05l0.44,-0.07l0.42,-0.09l0.43,-0.11l0.42,-0.13l0.41,-0.15l0.4,-0.17l0.4,-0.18l0.39,-0.2l0.38,-0.22l0.37,-0.24l0.35,-0.26l0.35,-0.27l0.33,-0.28l0.32,-0.3l0.26,-0.26l0.86,-0.92l0.29,-0.33l0.31,-0.38l0.93,-1.21l0.93,-1.2l0.93,-1.19l0.92,-1.2l0.93,-1.19l1.84,-2.36l0.93,-1.18l0.92,-1.18l0.01,0.01l0.95,-1.19l-0.01,-0.01l0.94,-1.16l0.91,-1.12l0.96,-1.18l0.94,-1.14l0.91,-1.1l0.95,-1.13l0.94,-1.12l0.01,0.01l0.95,-1.11l0.96,-1.1l0.95,-1.1l0.01,0.01l1.02,-1.14l0.92,-1.02l0.98,-1.06l0.99,-1.05l0.99,-1.04l0.99,-1.02l1.08,-1.08l0.93,-0.94l0.01,0.01l1.1,-1.06l0.95,-0.9l1.03,-0.96l1.04,-0.94l1.05,-0.93v0.01l1.06,-0.91l1.06,-0.89l1.07,-0.87l1.2,-0.94l0.98,-0.75l1.22,-0.9l1.12,-0.79l1.12,-0.77l0.98,-0.65l1.13,-0.72l1.3,-0.79l0.99,-0.58l1.33,-0.74l1.17,-0.62l2.7,-1.42l1.3,-0.68l1.3,-0.67l1.26,-0.64l1.31,-0.65l1.36,-0.67l1.26,-0.61l1.31,-0.62l1.32,-0.62l1.31,-0.6l1.32,-0.59l1.4,-0.61l1.25,-0.54v0.01l1.4,-0.59l1.33,-0.54l1.25,-0.49l1.42,-0.55l1.24,-0.46l1.34,-0.49v0.01l1.33,-0.47l1.34,-0.45l1.34,-0.43l1.45,-0.45l1.35,-0.4l1.34,-0.38l1.35,-0.36l1.21,-0.3l1.34,-0.33v0.01l1.35,-0.3l1.4,-0.29l1.28,-0.24l1.33,-0.23l1.51,-0.23l1.34,-0.18l1.21,-0.14l1.46,-0.14l1.14,-0.09l1.39,-0.08l1.45,-0.05l1.25,-0.02l1.16,0.01l1.47,0.05l1.33,0.07l1.14,0.1l1,0.14l0.96,0.18l0.78,0.19l0.65,0.21l0.19,0.08l-0.02,0.19l-0.17,0.89l-0.2,0.74251l-0.39,1.17749l-0.4,1.01l-0.39,0.88985l-0.56,1.19015l-0.54,1.05l-0.63,1.17l-0.68,1.19957l-0.68,1.15043l-0.73,1.19l-0.79,1.25l-0.79,1.21l-0.74,1.11l-0.81,1.2l-0.83,1.2l-0.84,1.2l-0.85,1.21l-0.87,1.21l-1.76,2.44z" stroke="none"></path><path d="M173.33,116.11l0.92,-1.18l0.91,-1.17l0.91,-1.16l0.9,-1.15h0.01l0.9,-1.15h0.01l0.9,-1.14l1.82,-2.26l0.9,-1.11l0.91,-1.1l0.98,-1.17l-0.01,-0.01l0.85,-1l0.99,-1.16l-0.01,-0.01l0.85,-0.97l0.91,-1.05l0.92,-1.04l0.92,-1.03l0.92,-1.01l0.03,-0.04l0.08,-0.08l0.93,-1l0.82,-0.88l0.93,-0.97l0.93,-0.96l0.94,-0.95l0.93,-0.92l0.95,-0.92l0.15,-0.14l0.79,-0.75l0.95,-0.88l0.95,-0.86l1.15,-1.01l0.77,-0.6616v0.0016l0.96,-0.8l1.18,-0.96l0.98,-0.77l0.98,-0.74l0.98,-0.72l0.98,-0.7l0.71,-0.49l0.98,-0.65l0.98,-0.62l1.07,-0.66l0.89,-0.52l0.09,-0.05l0.02,-0.01l1.16,-0.64594l1.05,-0.55406l1.34,-0.71l1.26,-0.66l1.25,-0.66l1.26,-0.65l1.25,-0.63l1.36,-0.68l1.14,-0.56l1.38,-0.67l1.12,-0.53l1.25,-0.58l1.39,-0.64l1.11,-0.5v0.01l1.25,-0.55l1.24,-0.53l1.25,-0.52l1.24,-0.51l1.24,-0.49l1.24,-0.48l1.24,-0.46l1.24,-0.45l1.23,-0.43l1.23,-0.42l0.06,-0.02l1.17,-0.37l1.22,-0.38l1.32,-0.4l1.12,-0.31l1.47,-0.39l0.95,-0.24l1.48,-0.35l1.11,-0.25l1.3,-0.26l0.96,-0.19l1.09,-0.18l1.31,-0.2l1.01,-0.14l0.7,-0.08l-0.7,1.06l-0.86,1.26h0.01l-0.71,1.02l-0.81,1.16l-0.83,1.17l-0.89,1.24l-0.82,1.14l-0.89,1.23l-1.78,2.44l-0.01,0.01l-0.89,1.24l-0.03,0.03l-0.89,1.24l-0.05,0.06l-0.89,1.24l-0.07,0.1l-0.88,1.24l-0.09,0.15l-0.87,1.25l-0.14,0.2l-0.85,1.26l-0.19,0.28l-0.83,1.28l-0.25,0.4l-0.8,1.3l-0.36,0.61l-0.75,1.32l-0.3,0.55l-0.22,0.45l-0.68,1.37l-0.35,0.76l-0.61,1.4l-0.18,0.42l-0.57,1.41l-0.19,0.48l-0.54,1.43l-0.19,0.53l-0.5,1.44l-0.19,0.58l-0.45,1.45l-0.18,0.62l-0.4,1.47l-0.17,0.66l-0.34,1.48l-0.15,0.68l-0.3,1.49l-0.12,0.69l-0.24,1.5l-0.1,0.68l-0.18,1.52l-0.07,0.66l-0.14,1.51l-0.04,0.63l-0.09,1.52l-0.02,0.59l-0.04,1.53v2.06l0.01,0.48l0.04,1.53l0.02,0.43l0.1,1.9l0.11,1.52l0.01,0.18l0.13,1.52l0.01,0.15l0.13,1.52l0.03,0.25l0.15,1.51l0.01,0.07l0.13,1.21l-0.56,-0.24l-1.38,-0.59l-0.09,-0.04l-1.4,-0.59l-0.21,-0.09l-1.4,-0.58l-0.38,-0.15l-1.42,-0.55l-0.61,-0.22l-1.44,-0.5l-0.88,-0.29l-1.46,-0.43l-0.85,-0.23l-1.48,-0.36l-0.62,-0.15l-1.49,-0.31l-0.55,-0.11l-1.5,-0.27l-0.57,-0.1l-1.51,-0.22l-0.7,-0.09l-1.51,-0.17l-0.62,-0.06l-0.33,-0.03l-1.52,-0.09l-0.62,-0.03l-0.9,-0.01l-1.52,0.03l-0.62,0.02l-0.62,0.04l-0.62,0.06l-0.61,0.08l-0.76,0.13l-1.49,0.28l-0.61,0.12l-0.6,0.15l-0.6,0.16l-0.59,0.18l-0.59,0.2l-0.58,0.22l-0.57,0.24l-0.57,0.26l-0.55,0.28l-0.55,0.29l-0.53,0.31l-0.53,0.33l-0.51,0.34l-0.51,0.36l-0.49,0.38l-0.48,0.39l-0.47,0.41l-0.45,0.42l-0.44,0.44l-0.42,0.45l-0.39,0.44l-0.92,1.08l-0.4,0.47l-0.38,0.49l-0.36,0.51l-0.35,0.51l-0.33,0.52l-0.32,0.54l-0.29,0.54l-0.28,0.55l-0.26,0.57l-0.24,0.57l-0.23,0.57l-0.2,0.59l-0.19,0.59l-0.17,0.6l-0.14,0.6l-0.13,0.61l-0.11,0.61l-0.09,0.61l-0.07,0.61l-0.05,0.62l-0.03,0.62v0.62l0.01,0.62l0.03,0.62l0.05,0.62l0.07,0.61l0.09,0.62l0.11,0.61l0.13,0.6l0.15,0.6l0.17,0.6l0.19,0.59l0.2,0.58l0.23,0.58l0.24,0.57l0.18,0.38l0.64,1.36l0.28,0.55l0.29,0.55l0.31,0.54l0.33,0.52l0.34,0.52l0.36,0.5l0.38,0.49l0.39,0.48l0.41,0.47l0.32,0.35l1.05,1.1l0.43,0.45l0.45,0.43l0.61,0.54l1.16,0.99l0.48,0.39l0.49,0.38l0.62,0.44l1.25,0.86l0.52,0.34l0.52,0.33l0.8,0.45l1.35,0.71l0.55,0.29l0.56,0.26l0.38,0.17l1.4,0.59l0.57,0.24l0.59,0.22l1.44,0.5l0.59,0.2l0.3,0.09l1.46,0.43l0.65,0.18l1.47,0.39l0.45,0.11l1.48,0.34l0.26,0.06l1.48,0.33l0.08,0.01l1.49,0.33l1.23,0.27l0.91,0.22l0.91,0.26l0.67,0.21l0.84,0.3l0.7,0.28l0.7,0.31705l0.67,0.33295l0.56,0.3l0.69,0.42l0.71,0.46l0.59,0.42l0.67,0.51l0.6,0.51l0.58,0.53l0.56,0.54l0.57,0.6l0.5,0.57838l0.36,0.43996l0.56,0.74166l0.58,0.82l0.4,0.63l0.38,0.64l0.35,0.63l0.42,0.85l0.35,0.76l0.23,0.56191l0.34,0.89583l0.24,0.72226l0.3,1.03l0.15,0.57l0.21,0.96l0.13,0.76l0.13,0.91l0.08,0.76l0.06,0.92218l0.03,0.80782l-0.01,0.67501l-0.03,0.86753l-0.06,0.86504l-0.13,1.13058l-0.04,0.28184l-0.22,1.18l-0.2,0.88924l-0.1,0.38076l-0.28,0.93463l-0.18,0.48537l-0.28,0.65l-0.56,1.27l-1.26,2.78l-0.05,0.12l-0.62,1.4l-0.12,0.27l-0.59,1.4l-0.18,0.41l-0.56,1.42l-0.21,0.56l-0.52,1.43l-0.24,0.7l-0.46,1.45l-0.24,0.81l-0.4,1.47l-0.23,0.9l-0.15,0.71l-0.02,-0.01l-0.59,-0.17l-0.77,-0.17l-1.49,-0.32l-0.61,-0.12l-0.61,-0.09l-0.4,-0.06l-1.51,-0.18l-0.61,-0.07l-0.62,-0.04l-0.62,-0.03l-1.52,-0.04h-0.62l-0.62,0.01l-0.85,0.05l-1.52,0.13l-0.62,0.06l-0.61,0.08l-0.61,0.1l-0.86,0.18l-1.49,0.34l-0.6,0.15l-0.59,0.17l-0.43,0.13l-1.45,0.47l-0.59,0.21l-0.59,0.22l-1.42,0.57l-0.75,0.32l-1.39,0.62l-0.36,0.17l-1.38,0.65l-0.78,0.37l-0.12,-0.09l-0.51,-0.42l-0.79,-0.71l-0.47,-0.46l-0.87,-0.9l-0.97,-1.01l-0.77,-0.83l-0.52,-0.59l-0.48,-0.59l-0.77,-0.98l-0.55,-0.76l-0.53,-0.78l-0.66,-1.03l-0.52,-0.86l-0.51,-0.9l-0.39,-0.74l-0.58,-1.14l-0.47,-0.99l-0.46,-1.01l-0.45,-1.05l-0.37,-0.91l-0.49,-1.26l-0.42,-1.13l-0.4,-1.16l-0.4,-1.18l-0.38,-1.2l-0.38,-1.23l-0.31,-1.06l-0.42,-1.46l-0.35,-1.3l-0.35,-1.31h-0.01l-0.31,-1.22h0.01l-0.37,-1.48h-0.01l-0.33,-1.37l-0.32,-1.35l-0.34,-1.46l-0.34,-1.43l-0.33,-1.43h0.01l-0.34,-1.48l-0.34,-1.49l-0.01,-0.01l-0.34,-1.49l-0.01,-0.04l-0.34,-1.48l-0.02,-0.06l-0.34,-1.48l-0.02,-0.07l-0.36,-1.49l-0.02,-0.09l-0.36,-1.48l-0.03,-0.12l-0.37,-1.47l-0.16,-0.6l-0.11,-0.35l-0.44,-1.46l-0.2,-0.6l-0.49,-1.44l-0.17,-0.48l-0.54,-1.43l-0.16,-0.41l-0.56,-1.42l-0.16,-0.38l-0.75,-1.75l-0.62,-1.39l-0.16,-0.34l-0.65,-1.38l-0.27,-0.55l-0.29,-0.55l-0.31,-0.54l-0.33,-0.52l-0.34,-0.52l-0.36,-0.5l-0.38,-0.5l-0.39,-0.48l-0.4,-0.47l-0.42,-0.45l-0.44,-0.44l-0.45,-0.43l-0.46,-0.41l-0.48,-0.39l-0.49,-0.39l-0.5,-0.36l-0.51,-0.35l-0.53,-0.33l-0.53,-0.31l-0.54,-0.3l-0.56,-0.28l-0.56,-0.26l-0.57,-0.25l-0.57,-0.22l-0.59,-0.21l-0.59,-0.18l-0.6,-0.17l-0.6,-0.15l-0.6,-0.13l-0.61,-0.11l-0.62,-0.09l-0.61,-0.07l-0.62,-0.05l-0.62,-0.03l-0.62,-0.01l-0.62,0.01l-0.62,0.03l-0.62,0.05l-0.61,0.07l-0.61,0.09l-0.61,0.11l-0.61,0.13l-0.6,0.15l-0.6,0.16l-0.59,0.19l-0.58,0.21l-0.58,0.22l-0.57,0.24l-0.56,0.27l-0.56,0.28l-0.51,0.27l-0.04,-0.02l-0.56,-0.26l-0.57,-0.25l-0.58,-0.22l-0.58,-0.21l-0.59,-0.18l-0.6,-0.17l-0.6,-0.15l-0.61,-0.13l-0.61,-0.11l-0.61,-0.09l-0.62,-0.07l-0.61,-0.05l-0.62,-0.03l-0.62,-0.01l-0.62,0.01l-0.62,0.03l-0.62,0.05l-0.61,0.07l-0.62,0.09l-0.61,0.11l-0.6,0.13l-0.6,0.15l-0.6,0.16l-0.59,0.19l-0.59,0.21l-0.57,0.22l-0.57,0.25l-0.56,0.26l-0.56,0.28l-0.54,0.29l-0.54,0.32l-0.52,0.33l-0.51,0.35l-0.5,0.36l-0.49,0.38l-0.48,0.4l-0.46,0.41l-0.45,0.43l-0.44,0.44l-0.42,0.45l-0.4,0.47l-0.4,0.48l-0.37,0.49l-0.36,0.51l-0.34,0.51l-0.33,0.53l-0.31,0.54l-0.3,0.56l-0.6,1.17l-0.27,0.56l-0.19,0.41l-0.61,1.39l-0.16,0.36l-0.59,1.41l-0.15,0.38l-0.56,1.42l-0.16,0.43l-0.53,1.43l-0.17,0.49l-0.48,1.45l-0.24,0.75l-0.42,1.46l-0.19,0.7l-0.37,1.48l-0.03,0.11l-0.36,1.48l-0.02,0.09l-0.36,1.48l-0.01,0.07l-0.35,1.49l-0.01,0.05l-0.34,1.48l-0.01,0.03l-0.34,1.49l-0.01,0.01l-0.34,1.49l-0.34,1.48h0.01l-0.33,1.42l-0.35,1.48h0.01l-0.32,1.35h-0.01l-0.33,1.39l-0.33,1.37h-0.01l-0.37,1.48h0.01l-0.32,1.21l-0.35,1.31l-0.35,1.29l-0.37,1.27l-0.37,1.24l-0.4,1.31137l-0.45,1.35863l-0.31,0.93l-0.41,1.15l-0.43,1.16l-0.41,1.05l-0.59,1.41l-0.3,0.7l-0.47,1.01l-0.47,0.98l-0.66,1.28l-0.44,0.79l-0.53,0.91l-0.54,0.87l-0.38,0.6l-0.66,0.95l-0.65,0.89l-0.49,0.62l-0.53,0.64l-0.84,0.94l-0.73,0.77l-0.02,0.02l-1.03,1.08l-0.52,0.54l-0.68,0.64l-0.63,0.57l-0.46,0.37l-0.11,0.08l-1.08,-0.51l-0.07,-0.04l-1.38,-0.65l-0.46,-0.2l-1.39,-0.62l-0.85,-0.35l-1.42,-0.54l-0.59,-0.22l-0.7,-0.22l-1.46,-0.45l-0.59,-0.17l-0.6,-0.15l-0.64,-0.14l-1.5,-0.3l-0.61,-0.11l-0.61,-0.09l-0.61,-0.07l-0.87,-0.07l-1.52,-0.08l-0.62,-0.02l-0.62,-0.01l-0.75,0.02l-1.52,0.08l-0.62,0.04l-0.62,0.06l-0.56,0.07l-1.51,0.22l-0.61,0.1l-0.61,0.12l-0.34,0.07l-1.48,0.34l-0.6,0.15l-0.09,0.03l-0.29,-1.27l-0.23,-0.88l-0.41,-1.46l-0.25,-0.79l-0.47,-1.45l-0.24,-0.66l-0.53,-1.43l-0.2,-0.53l-0.58,-1.41l-0.16,-0.38l-0.6,-1.4l-0.1,-0.23l-0.62,-1.39l-0.05,-0.1l-0.62,-1.39l-0.55,-1.21l-0.57,-1.28l-0.27,-0.64l-0.16,-0.48818l-0.22,-0.77182l-0.19,-0.73594l-0.15,-0.66406l-0.17,-0.98512l-0.1,-0.69488l-0.11,-1.06079l-0.05,-0.71921l-0.02,-0.58v-1.16l0.03,-0.64l0.08,-1.06571l0.09,-0.77429l0.11,-0.7094l0.17,-0.89979l0.16,-0.70081l0.24,-0.95l0.25,-0.8l0.3,-0.88483l0.26,-0.67517l0.24,-0.58l0.43,-0.91l0.41,-0.79l0.28,-0.49l0.46,-0.77l0.53,-0.81l0.3,-0.42l0.61,-0.79l0.45,-0.55l0.47,-0.52336l0.76,-0.79664l0.42,-0.4l0.7,-0.62l0.58,-0.47l0.48,-0.37l0.76,-0.52l0.5,-0.33l0.76,-0.44l0.62,-0.34l0.69,-0.33l0.73,-0.32l0.77,-0.31l0.66,-0.23l0.89,-0.27l0.71,-0.19l1.27,-0.3l1.13,-0.25l1.49,-0.32l0.12,-0.03l1.49,-0.33l0.3,-0.07l1.48,-0.35l1.96,-0.52l0.7,-0.2l1.46,-0.45l0.59,-0.19l0.35,-0.13l1.43,-0.52l0.58,-0.23l0.66,-0.28l1.39,-0.62l0.56,-0.26l0.56,-0.28l0.46,-0.25l1.32,-0.75l0.54,-0.31l0.52,-0.33l0.52,-0.35l0.32,-0.23l1.23,-0.9l0.49,-0.37l0.49,-0.39l0.42,-0.36l1.14,-1.01l0.46,-0.42l0.44,-0.43l0.43,-0.45l0.43,-0.48l1,-1.15l0.4,-0.47l0.39,-0.49l0.36,-0.49l0.36,-0.51l0.33,-0.53l0.32,-0.53l0.3,-0.54l0.28,-0.55l0.27,-0.56l0.24,-0.57l0.23,-0.58l0.21,-0.58l0.19,-0.59l0.19,-0.66l0.38,-1.42l0.15,-0.6l0.13,-0.6l0.11,-0.61l0.1,-0.62l0.07,-0.61l0.05,-0.62l0.03,-0.62l0.01,-0.62l-0.01,-0.62l-0.02,-0.62l-0.05,-0.61l-0.07,-0.62l-0.09,-0.61l-0.11,-0.61l-0.12,-0.61l-0.15,-0.6l-0.17,-0.6l-0.18,-0.59l-0.21,-0.58l-0.22,-0.58l-0.24,-0.57l-0.26,-0.57l-0.28,-0.55l-0.29,-0.54l-0.32,-0.54l-0.33,-0.52l-0.34,-0.52l-0.37,-0.5l-0.38,-0.49l-0.39,-0.48l-0.41,-0.46l-0.43,-0.45l-0.44,-0.44l-0.45,-0.42l-0.47,-0.41l-0.47,-0.39l-0.5,-0.38l-0.59,-0.42l-1.21,-0.83l-0.52,-0.34l-0.53,-0.33l-0.54,-0.3l-0.54,-0.29l-0.56,-0.27l-0.56,-0.26l-0.58,-0.23l-0.58,-0.22l-0.59,-0.2l-0.59,-0.18l-0.6,-0.16l-0.6,-0.14l-0.61,-0.12l-0.61,-0.1l-0.35,-0.05l-1.5,-0.19l-0.62,-0.07l-0.62,-0.06l-0.62,-0.03l-0.74,-0.01l-1.53,0.01l-0.62,0.02l-0.71,0.04l-1.52,0.11l-0.88,0.09l-1.51,0.19l-0.66,0.09l-1.5,0.24l-0.57,0.09l-1.49,0.28l-0.55,0.12l-1.49,0.32l-0.68,0.16l-1.47,0.38l-0.88,0.25l-1.45,0.45l-0.84,0.28l-1.44,0.51l-0.54,0.21l-1.42,0.56l-0.33,0.13l-1.41,0.59l-0.17,0.07l-1.4,0.6l-0.06,0.02l-1.36,0.59l-0.25,0.11l0.01,-0.07l0.16,-1.51l0.01,-0.1l0.15,-1.52l0.03,-0.3l0.13,-1.52v-0.04l0.12,-1.52l0.02,-0.28l0.11,-1.52l0.02,-0.39l0.07,-1.53l0.01,-0.44l0.04,-1.52v-2.03l-0.01,-0.55l-0.05,-1.52l-0.03,-0.6l-0.09,-1.52l-0.05,-0.64l-0.15,-1.51l-0.08,-0.67l-0.2,-1.51l-0.1,-0.68l-0.25,-1.51l-0.13,-0.68l-0.31,-1.49l-0.15,-0.68l-0.36,-1.47l-0.17,-0.65l-0.41,-1.47l-0.19,-0.61l-0.46,-1.45l-0.19,-0.57l-0.5,-1.44l-0.2,-0.52l-0.54,-1.42l-0.19,-0.47l-0.59,-1.4l-0.17,-0.41l-0.62,-1.39l-0.26,-0.57l-0.2,-0.39l-0.69,-1.36l-0.29,-0.55l-0.95,-1.65l-0.33,-0.55l-0.81,-1.29l-0.24,-0.37l-0.83,-1.27l-0.17,-0.26l-0.86,-1.26l-0.13,-0.18l-0.87,-1.25l-0.09,-0.14l-0.88,-1.24l-0.07,-0.09l-0.89,-1.24l-0.04,-0.05l-0.89,-1.24l-0.02,-0.03l-0.9,-1.23l-0.01,-0.01l-1.78,-2.46l-0.88,-1.2l-0.81,-1.14l-0.84,-1.16h0.01l-0.88,-1.24l-0.81,-1.16l-0.77,-1.11l-0.78,-1.16l-0.53,-0.81l0.63,0.08l1.36,0.19l1.04,0.16l1.45,0.25l0.88,0.17l1.21,0.25l1.2,0.27l1.49,0.36l1.2,0.31l1.07,0.29l1.36,0.39l1.03,0.3l1.2,0.38l1.45,0.47l1.23,0.42l1.23,0.43l1.11,0.4l1.37,0.52l1.06,0.41l1.25,0.5l1.41,0.58l1.25,0.52l1.24,0.54v-0.01l1.11,0.49l1.39,0.63l1.12,0.51l1.25,0.59l1.38,0.65l1.13,0.55l1.37,0.68l1.25,0.63v-0.01l1.16,0.59l1.35,0.7l1.26,0.66l1.25,0.67l0.06,0.03l1.22,0.64l1.34,0.72l0.75,0.42l1.21,0.71l0.98,0.61l0.75,0.48l0.93,0.62l1.25,0.87l0.97,0.7l0.73,0.54l1.2,0.92l0.76,0.6l0.97,0.79l0.97,0.81l0.97,0.84l0.96,0.85l0.96,0.87l0.96,0.88l0.95,0.91l0.95,0.92l0.95,0.94l0.94,0.95l1.06,1.1l0.82,0.85l0.93,1l0.93,1.01l1.02,1.13l0.83,0.93l0.93,1.05l0.92,1.06l0.92,1.07l0.91,1.08l0.98,1.17l0.85,1.02l0.91,1.11l0.91,1.13l0.96,1.18l0.87,1.08l0.91,1.15l0.94,1.2h0.01l0.88,1.12l0.91,1.17l0.94,1.2l0.91,1.18l0.91,1.17l0.93,1.2l0.92,1.2l0.93,1.21l0.39,0.48l0.4,0.47l0.42,0.46l0.43,0.45l0.45,0.43l0.46,0.41l0.47,0.4l0.48,0.39l0.5,0.37l0.51,0.35l0.52,0.34l0.53,0.32l0.54,0.3l0.55,0.29l0.56,0.26l0.57,0.25l0.57,0.23l0.87,0.31l0.65,0.21l0.59,0.19l0.6,0.16l0.6,0.15l0.61,0.12l0.61,0.11l0.61,0.08l0.62,0.07l0.62,0.05l0.62,0.02l0.61,0.01l0.62,-0.01l0.62,-0.04l0.62,-0.05l0.62,-0.07l0.61,-0.1l0.61,-0.11l0.6,-0.13l0.6,-0.15l0.6,-0.18l0.59,-0.19l0.53,-0.19l0.3,0.13l0.58,0.24l0.58,0.21l0.59,0.19l0.59,0.18l0.6,0.15l0.61,0.14l0.61,0.11l0.61,0.1l0.61,0.08l0.62,0.06l0.62,0.03l0.62,0.02h0.62l0.62,-0.03l0.62,-0.04l0.61,-0.06l0.62,-0.08l0.61,-0.11l0.61,-0.12l0.6,-0.14l0.6,-0.16l0.59,-0.18l0.59,-0.2l0.58,-0.22l0.57,-0.24l0.56,-0.25l0.56,-0.27l0.55,-0.29l0.54,-0.31l0.52,-0.33l0.52,-0.34l0.5,-0.36l0.5,-0.37l0.48,-0.4l0.47,-0.4l0.45,-0.42l0.44,-0.44l0.28,-0.29l0.86,-0.92l0.42,-0.45l0.4,-0.48l0.39,-0.48l1.85,-2.4l0.93,-1.19z" stroke="none"></path><path d="M124.8,58c0,-10.60387 8.59613,-19.2 19.2,-19.2c10.60387,0 19.2,8.59613 19.2,19.2c0,10.60387 -8.59613,19.2 -19.2,19.2c-10.60387,0 -19.2,-8.59613 -19.2,-19.2z" stroke="#ff0000"></path></g></svg>