<?xml version="1.0" encoding="utf-8"?>
<!-- Generator: Adobe Illustrator 22.0.1, SVG Export Plug-In . SVG Version: 6.00 Build 0)  -->
<svg version="1.1" id="Livello_1" xmlns="http://www.w3.org/2000/svg" xmlns:xlink="http://www.w3.org/1999/xlink" x="0px" y="0px"
	 viewBox="0 0 180.5 124.2" style="enable-background:new 0 0 180.5 124.2;" xml:space="preserve">
<style type="text/css">
	.st0{fill:#020203;stroke:#020203;stroke-width:7.865816e-03;}
</style>
<path d="M178.9,0.5L178.5,0l-2.2,0.1c-19.6,0.5-38,9.6-57.8,28.4c-7.6,7.3-18.3,20.2-21.7,26.2c-0.9,1.6-1.4,2.3-2,2.8
	c-1.1,0.8-0.9-0.3,0.3-1.5c1.4-1.5,1.3-2.7-0.2-3.8l-0.8-0.5l0.1-0.5c0.3-2.7,4.4-11.9,7.9-17.9c5.1-8.6,8.4-12.6,11.7-13.9
	c2.5-1.1,3.3-1.8,3.3-3.1c0-1-0.2-1-1.3-0.4c-8.3,4.6-15.6,15.5-23.2,34.8c-0.1,0.2-0.1,0.2-1,0.3c-0.5,0-0.9,0.1-1,0.1
	c-0.1,0-0.2-0.2-0.3-0.4C84.8,36.9,77.8,26.4,70,20.1c-2.7-2.1-6.1-3.6-6.1-2.5c0,1.4,1.2,2.4,3.4,3.1c1.3,0.4,1.6,0.5,2.7,1.2
	c6,4,14.5,16.8,18.5,27.9c0.8,2.3,0.8,2.1,0.1,2.7c-1.6,1.4-1.7,2.3,0,3.8c1,0.9,1.2,1.3,1.1,1.9l-0.1,0.3l-0.9-1.2
	c-9.1-12-20.1-23.1-31.9-31.9C38.3,11.4,23.8,5.8,5.7,5.5L2.4,5.5L1.7,6.2c-4.5,4.5,0.6,20.4,9.6,30.1c1.5,1.6,2.2,2.5,2.6,3.3
	l0.3,0.6l0.1,1.8c0.1,2.2,0.1,2.3,1.8,5.6c1.8,3.5,2,4,2.6,7.8c0.7,4.3,1.2,5.6,2.7,6.4l0.4,0.2L21.7,63c-0.3,4.5,2.2,9.6,5.8,11.9
	l0.7,0.5l-0.5,0.6c-1.3,1.4-1.7,2.9-1.8,7.8c-0.1,3.7-0.3,4.9-1,6.4c-0.3,0.7-0.3,0.7-0.2,0.9c0.4,0.5,0.7,1.3,0.9,3.2
	c0.2,2,0.5,2.8,1.2,3.4l0.3,0.3l-0.2,0.4c-1.3,2.9,0.2,7.5,2.9,8.8l0.5,0.2l0.1,0.8c0.4,2.7,2.9,6.1,5.3,6.9
	c1.3,0.5,1.8,0.8,3.1,2.1c1.5,1.5,1.9,1.7,3.1,1.8c1.2,0.1,1.7,0.3,2.5,0.9c2.2,1.7,2.2,1.7,3.5,1.6c1.4-0.2,2.1,0.1,4.8,1.6
	c1.1,0.6,1.7,0.9,2.5,1.1h0c0.9,0.2,1.9,0.2,2.8-0.2c1-0.4,1.9-0.4,4.3,0c3.3,0.5,4.2,0.3,6-1c1.3-1,1.8-1.2,3.1-1.4
	c2.4-0.4,3.7-1.7,6.9-7.5c4.2-7.3,7-14,10.5-24.4l1.5-4.5l0.1,2.1c0.3,10.4,1,14.2,2.9,16.5l0.3,0.4l0.3-0.4c0.8-1,1.5-2.9,1.7-4.6
	c0.1-0.4,0.1-0.9,0.2-1c0-0.1,0.1-2.9,0.1-6.1c0-3.2,0.1-6,0.1-6.3l0.1-0.5l0.6,1.7c1.3,4,2.7,7.2,4.9,11.9
	c7.1,14.9,11.4,20.8,15.4,21.1c1.3,0.1,1.8,0.3,3,1.1c2,1.3,2.5,1.4,6.4,0.7c2.1-0.4,3.4-0.5,5.5-0.3c1.4,0.1,1.8,0,3.8-1.2
	c3-1.7,3.4-1.9,4.9-2c1.3-0.1,1.6-0.2,2.9-1.3c1.1-0.9,1.6-1.2,2.6-1.3c1.6-0.3,1.9-0.5,3-1.9c1.5-1.9,1.7-2.1,2.7-2.2
	c1-0.1,1.6-0.6,3-2.3c1.4-1.7,1.6-2.2,1.8-4c0.1-1.7,0.2-2,0.6-2.2c2.6-1.3,3.9-6.1,2.5-9.3l-0.2-0.4l0.3-0.2
	c0.6-0.5,0.8-0.9,0.7-2.3c-0.1-2.7-0.1-2.8,0.3-3.7c0.6-1.3,0.5-1.7-0.2-3.4c-0.2-0.5-0.5-1.2-0.7-1.6c-0.6-1.3-0.6-1.4-0.9-5.9
	c-0.2-2.7-0.7-4.1-1.9-5l-0.4-0.3l0.6-0.4c3.2-2.1,4.9-5.9,5-11.2l0-2.1l0.5-0.4c1.6-1.2,1.9-2.2,2.2-7.1c0.2-3.1,0.6-4.7,2.1-7.7
	c1.4-3,1.7-4.3,1.5-6.3l-0.1-1l1.9-2.8c5-7.6,7.2-11.8,8.7-16.5C181.1,9.3,181,2.9,178.9,0.5z"/>
</svg>
