<svg version="1.1" xmlns="http://www.w3.org/2000/svg" xmlns:xlink="http://www.w3.org/1999/xlink" width="1000" height="1000" viewBox="0,0,1000,1000"><defs><clipPath id="clip-1"><rect x="0" y="0" width="864" height="864"></rect></clipPath></defs><g fill="none" fill-rule="nonzero" stroke="none" stroke-width="1" stroke-linecap="butt" stroke-linejoin="miter" stroke-miterlimit="10" stroke-dasharray="" stroke-dashoffset="0" font-family="none" font-weight="none" font-size="none" text-anchor="none" style="mix-blend-mode: normal"><g clip-path="url(#clip-1)" id="Layer_1" stroke="none"><g><path d="M801.22,122.186c-63.465,-2.701 -129.632,25.657 -184.994,55.363c-63.11,32.129 -111.592,96.43 -155.394,153.141c-1.209,-6.377 -2.66,-12.165 -4.4,-17.157c7.911,-28.417 19.836,-56.008 35.928,-80.112c6.315,-9.46 12.068,-19.272 18.829,-28.431c6.74,-9.132 14.082,-17.8 21.094,-26.72c3.429,-4.36 11.308,-11.541 12.107,-17.378c0.929,-6.807 -6.936,-9.148 -11.51,-6.933c-7.507,3.636 -13.6,12.215 -18.816,18.424c-7.448,8.866 -14.234,18.179 -20.44,27.955c-19.559,30.819 -35.021,64.509 -44.021,99.924c-3.846,-4.748 -8.525,-6.934 -14.23,-5.682c-3.828,0.839 -6.819,2.961 -9.209,5.901c-8.993,-35.494 -24.477,-69.261 -44.076,-100.144c-6.205,-9.775 -12.991,-19.088 -20.44,-27.955c-5.218,-6.208 -11.311,-14.788 -18.817,-18.424c-4.574,-2.216 -12.439,0.125 -11.508,6.933c0.797,5.838 8.678,13.019 12.105,17.378c7.012,8.92 14.354,17.588 21.094,26.72c6.761,9.159 12.514,18.971 18.83,28.431c16.361,24.508 28.417,52.619 36.324,81.538c-1.242,4.975 -2.015,10.366 -2.572,15.646c-43.784,-56.69 -92.25,-120.943 -155.327,-153.056c-55.364,-29.707 -121.531,-58.064 -184.997,-55.363c-112.08,4.051 13.502,125.582 31.057,166.092c12.154,27.007 14.854,48.612 12.154,78.321c-1.352,20.254 -8.103,52.662 4.05,71.567c21.604,35.109 71.566,0 99.925,-8.103c13.503,-4.049 59.415,-12.152 32.408,9.453c-13.505,10.805 -37.811,12.154 -54.014,17.555c-64.817,20.256 -99.926,93.174 -76.969,159.342c9.452,22.955 20.254,39.158 20.254,66.168c0,20.254 -9.452,40.508 -8.102,59.412c32.408,-6.75 63.467,-41.859 95.875,-37.809c16.205,2.699 29.708,14.854 45.913,16.203c20.255,2.701 40.508,-13.504 54.013,-28.357c44.562,-44.559 52.664,-112.078 67.519,-170.143c2.52,-8.568 6.358,-18.33 11.021,-28.117c0.53,26.01 1.56,57.195 6.5,79.354c7.222,32.393 32.972,36.461 41.456,2.922c6.653,-26.309 5.704,-55.693 5.588,-83.693c4.97,10.258 9.072,20.553 11.714,29.535c14.854,58.064 22.956,125.584 67.518,170.143c13.504,14.854 33.759,31.059 54.014,28.357c16.204,-1.35 29.708,-13.504 45.912,-16.203c32.407,-4.051 63.466,31.059 95.874,37.809c1.352,-18.904 -8.101,-39.158 -8.101,-59.412c0,-27.01 10.802,-43.213 20.254,-66.168c22.955,-66.168 -12.153,-139.086 -76.97,-159.342c-16.205,-5.4 -40.511,-6.75 -54.014,-17.555c-27.008,-21.605 18.904,-13.501 32.409,-9.453c28.354,8.103 78.32,43.212 99.924,8.103c12.153,-18.906 5.401,-51.313 4.051,-71.567c-2.701,-29.709 0,-51.314 12.153,-78.321c17.55,-40.51 143.135,-162.041 31.054,-166.092z"></path></g></g><path d="M548.28631,227.64001l168.48397,-93.43427l62.29134,138.56691z" stroke="#000000"></path><path d="M779.06162,272.77265l-110.03991,162.82153l-55.10833,-4.14803z" stroke="#000000"></path><path d="M613.91338,431.44615l-89.49929,235.3028l-111.76719,-147.14817z" stroke="#000000"></path><path d="M398.45145,531.6075l-11.01822,47.16056l-244.79851,80.28156z" stroke="#000000"></path><path d="M191.4762,443.06184l-49.62672,9.10459l-22.71103,-76.08907z" stroke="#000000"></path><path d="M83.97522,251.51708l-49.94462,-112.43547l59.66089,-16.90427z" stroke="#000000"></path><path d="M93.69149,122.17734l183.90747,64.26119l0.16052,0.09881z" stroke="#000000"></path><path d="M277.75948,186.53734l34.8946,25.6153l42.21009,41.62926z" stroke="#000000"></path><path d="M408.78148,282.30604l-32.8511,-91.23992l33.22133,59.99502z" stroke="#000000"></path><path d="M472.43807,238.28028l68.50175,-70.2357l-24.35651,29.86381z" stroke="#000000"></path><path d="M470.14188,318.63197l78.14443,-90.99196l230.77531,45.13264z" stroke="#000000"></path><path d="M779.06162,272.77265l-165.14824,158.6735l-201.26648,88.15462z" stroke="#000000"></path><path d="M412.6469,519.60077l-14.19545,12.00673l-255.81673,127.44211z" stroke="#000000"></path><path d="M191.4762,443.06184l-72.33775,-66.98448l1.3662,-40.61158z" stroke="#000000"></path><path d="M120.50465,335.46578l-36.52943,-83.9487l9.71626,-129.33974z" stroke="#000000"></path><path d="M93.69149,122.17734l184.06799,64.36l77.10468,67.24456z" stroke="#000000"></path><path d="M418.87664,318.51837l-10.09516,-36.21233l0.37022,-31.2449z" stroke="#000000"></path><path d="M472.43807,238.28028l44.14524,-40.37189l-46.44143,120.72358z" stroke="#000000"></path><path d="M470.14188,318.63197l308.91974,-45.85933l-366.41472,246.82812z" stroke="#000000"></path><path d="M412.6469,519.60077l-270.01219,139.44884l48.84148,-215.98777z" stroke="#000000"></path><path d="M191.4762,443.06184l-70.97155,-107.59606l-26.81316,-213.28844z" stroke="#000000"></path><path d="M93.69149,122.17734l261.17267,131.60456l2.10482,2.35313z" stroke="#000000"></path><path d="M418.87664,318.51837l-9.72493,-67.45723l63.28636,-12.78085z" stroke="#000000"></path><path d="M472.43807,238.28028l-2.29619,80.35169l-57.49498,200.9688z" stroke="#000000"></path><path d="M412.6469,519.60077l-221.1707,-76.53893l-97.78471,-320.8845z" stroke="#000000"></path><path d="M93.69149,122.17734l263.27749,133.95769l61.90766,62.38333z" stroke="#000000"></path><path d="M418.87664,318.51837l53.56143,-80.23809l-59.79117,281.32049z" stroke="#000000"></path><path d="M412.6469,519.60077l-318.95541,-397.42343l325.18515,196.34103z" stroke="#000000"></path></g></svg>