<?xml version="1.0" encoding="utf-8"?>
<!-- Generator: Adobe Illustrator 19.0.0, SVG Export Plug-In . SVG Version: 6.00 Build 0)  -->
<svg version="1.1" id="Layer_1" xmlns="http://www.w3.org/2000/svg" xmlns:xlink="http://www.w3.org/1999/xlink" x="0px" y="0px"
	 viewBox="0 0 845.3 177.5" style="enable-background:new 0 0 845.3 177.5;" xml:space="preserve">
<g>
	<path d="M3.5,143.6c-0.6-1.7-0.1-2.9,0.4-4.1c1.7-4.8,5.4-7.6,9.8-9.7c1.2-0.6,2.5-1,3.8-1.5c1.3-0.5,1.4-0.8,0.6-1.9
		c-1.3-1.7-2.8-3.3-4.2-5c-4.2-5.2-8.2-10.7-11.1-16.8c-1.1-2.3-2-4.7-2.3-7.3c-0.1-0.6-0.2-1.1-0.1-1.7C1,90.7,0.2,85.5,0,80.3
		c-0.2-5.6,1.4-10.8,5.5-14.9c0.9-0.9,1.5-1.8,1.7-3.1c1-5.3,3.6-9.7,7.2-13.6c6.4-7.2,14.4-11.9,23.2-15.4c2.4-1,4.1-2.4,5.5-4.6
		c6.1-9.4,14.8-14.9,25.8-16.7c2.3-0.4,4.6-0.5,6.9-0.5c8.7,0,17.4,0,26.2,0c1.5,0,2.6-0.4,3.7-1.6c2.8-3.1,6.5-4.5,10.5-5.5
		c2-0.5,4.1-0.9,6.1-1.1c0.9,0,1.7-0.5,2.5-0.9c6.9-3.5,13.8-3.6,20.7,0.1c1,0.5,2,0.9,3.1,1.2c2.4,0.6,4.8,1.2,7.2,1.9
		c1.4,0.4,2.8,0.6,4.3,0.5c4.6-0.2,8.3,1.5,10.9,5.3c1,1.4,1.1,1.4,2.7,0.5c5-2.9,10.3-5.1,15.9-6.6c5.3-1.4,10.7-2.1,16.1-1.3
		c8.4,1.2,14.9,5.4,19.7,12.4c2.2,3.2,2.3,3.3,5.9,2c7.2-2.5,14.7-3.6,22.4-3.9c5-0.1,9.9,0.3,14.8,1.3c2.3,0.4,4.6,0.7,6.9,0.9
		c3.5,0.4,6.9,1.4,10,3.1c1.8,0.9,3.5,2.1,4.6,3.7c1,1.3,2.1,1.5,3.5,1.1c4.2-1.1,8.4-2.1,12.6-2.9c6.5-1.2,13.1-2.2,19.8-2.2
		c2.7,0,5.3,0.3,7.9,0.8c3.5,0.8,7,0.5,10.5,1.1c3.5,0.6,6.9,1.2,10.3,2.4c2.5,0.9,4.9,2,6.9,3.8c1,0.9,1.8,1,3,0.5
		c8-3,16.2-5,24.6-6.1c8.5-1.1,16.9-1,25.3,0.7c0.9,0.2,1.9,0.4,2.8,0.4c8.9,0.1,16.8,3.1,23.8,8.4c2.3,1.7,3.8,1.8,6.3,0.4
		c8-4.6,16.7-7.2,25.9-8.3c6.8-0.8,13.5-0.6,20.3,0.4c4.3,0.6,8.6,0.7,12.9,1.5c7.4,1.5,14.4,3.9,20.4,8.5c0.1,0.1,0.3,0.2,0.4,0.3
		c2,2.7,4.4,2.2,7.2,1.1c3.5-1.4,6.7-3.5,10.1-4.9c7.9-3.2,16.1-5.2,24.7-5c6.6,0.2,12.8,1.6,18.8,4.4c1.8,0.8,3.5,1.2,5.5,1.4
		c12.9,1.3,24,6,32.1,16.5c1.1,1.5,1.2,1.5,3,0.6c8.4-3.9,17.2-6.4,26.4-7.5c11.4-1.4,22.7-0.4,33.5,3.6c3.5,1.3,7.2,2,10.8,3
		c6.3,1.7,12.4,3.6,18.1,6.9c1.2,0.7,2.5,1.5,3.5,2.5c1,1.1,2.2,1.2,3.5,1c6.7-1,13.5-1.5,20.3-1.3c8.6,0.3,17.1,1.2,25.1,4.5
		c5.8,2.4,11.7,4.4,17,7.7c2.8,1.7,5.4,3.7,7.6,6.2c1.4,1.6,2.7,3.3,3.1,5.3c0.3,1.5,1.2,2.1,2.6,2.4c5.8,1.4,11.5,3.4,17,5.9
		c5.7,2.6,11.1,5.8,15.7,10.1c7.8,7.3,11.1,16.1,8.2,26.7c-0.4,1.4-0.2,2.6,0.3,3.9c2.7,6.2,4.3,12.5,4,19.3
		c-0.2,3.6-1,6.9-2.8,10.1c-1.3,2.2-2.5,4.5-4.1,6.5c-5.8,7.3-13.4,8.7-21.5,3.9c-1.6-0.9-3-2.1-4.4-3.3c-1.6-1.4-1.7-1.4-3.5-0.3
		c-4.9,3-10,5.4-15.4,7.1c-2.9,0.9-5.8,1.3-8.8,1.2c-1.2-0.1-2.5-0.1-3.5-0.7c-2-1.1-3.9-0.8-6-0.2c-8.9,2.4-17.9,3.4-27.1,2.7
		c-10.6-0.7-20.4-3.9-28.4-11.4c-0.9-0.8-1.8-1.2-3-1.1c-1.2,0.1-2.4,0.1-3.6,0.3c-0.9,0.2-1.6,0.5-2.3,1.2c-6,6.5-13.7,9.5-22.2,11
		c-11.4,2-22.6,0.8-33.8-1.6c-14.7-3.2-28.6-8.6-42.2-14.8c-0.4-0.2-0.7-0.3-1.1-0.5c-1-0.6-1.9-0.5-2.8,0.4
		c-1.8,1.7-3.8,3.2-5.9,4.5c-2.7,1.6-5.5,2.9-8.6,3.4c-1.1,0.2-1.9,0.5-2.1,1.9c-0.2,2-1.6,3.1-3.3,3.8c-1.7,0.7-3.5,1-5.4,1
		c-3.9,0.1-7.8,0.1-11.8,0c-4.3-0.1-8.4-1.1-12.3-2.9c-2.2-1-4.2-2.3-5.9-4c-0.9-0.9-1.8-1.5-3-1.9c-6.7-2.4-11.7-6.8-14.9-13.2
		c-0.2-0.4-0.4-0.7-0.5-1.1c-0.4-0.9-0.9-1.2-1.9-0.7c-0.6,0.3-1.2,0.5-1.8,0.8c-3.1,1.1-6.2,1.5-9.4,0.2c-1-0.4-2-0.4-3,0
		c-4.2,1.6-8.4,3.1-12.6,4.7c-2.3,0.9-2.3,0.9-1.3,3.3c0.9,2.2,1.8,4.3,2.6,6.4c0.7,1.7,0.6,1.9-1.2,2.2c-4.7,0.6-9.3,1.3-14,1.9
		c-2.1,0.3-4.3,0.5-6.4,0.8c-1.8,0.3-3.2,0-4.5-1.4c-1.9-2.1-4.1-4.1-6.1-6.1c-1-1.1-2.1-1.5-3.6-1.5c-4.5,0.1-8.8-0.6-12.8-2.6
		c-3.6-1.7-6.3-4.3-8.2-7.8c-1.2-2.2-1.2-2.2-3.7-1.4c-3,1-6,1.5-9.2,1.3c-2.3-0.1-4.4-0.7-6.1-2.4c-0.8-0.9-1.7-1-2.8-0.6
		c-3.1,1.1-6.2,2.1-9.3,3.1c-1.4,0.4-1.9,1.2-2,2.6c-0.2,2.5-0.6,5.1-0.8,7.6c-0.1,1.3-0.7,1.8-2,1.7c-2.7-0.2-5.4-0.1-8.1-0.4
		c-2.6-0.3-5.1,0.6-7.6,1c-5,0.8-5,0.9-9.3-1.9c-6.9-4.3-13.7-8.5-20.6-12.8c-1-0.6-2-0.9-3.1-1c-6.9-0.4-13.7-0.8-20.6-1
		c-4.3-0.2-8.6-0.4-12.9-0.8c-2.1-0.2-3.7,0.3-5,2c-2.3,2.8-4.7,5.4-7.2,8.1c-1.7,1.9-1.8,1.9-4,0.8c-2.9-1.4-5.9-2.4-9.1-2.9
		c-1.7-0.3-3.3-0.2-5,0.1c-3.9,0.6-6-0.8-6.5-4.8c-0.3-2.2-1.3-3.6-3.1-4.7c-2.9-1.8-5.8-3.8-8.6-5.7c-1-0.7-2.1-1.1-3.3-1.1
		c-6.3-0.4-12.6-0.8-18.9-1.2c-0.9-0.1-1.7,0.2-2.6,0.5c-5.7,2.3-11.7,3.5-17.8,3.5c-7.6,0-14.7-2-20.7-7c-1.1-0.9-2.2-1.4-3.7-1.5
		c-3-0.2-5.9-0.5-8.8-0.8c-3-0.3-6-0.1-9,0.7c-4.4,1.3-9,1.7-13.5,1.9c-3.6,0.1-7.2-0.3-10.6-1.7c-2.4-1-4.3-2.4-5.6-4.7
		c-0.9-1.5-0.9-1.5-2.3-0.6c-2.6,1.6-5.5,2.1-8.5,1.8c-0.5-0.1-1-0.1-1.4-0.3c-2.2-0.7-4.1-0.1-6.1,1c-3.7,2-7.6,3.7-11.9,4.4
		c-0.7,0.1-1.5,0.3-2.1,0.1c-1.5-0.3-2,0.5-2.3,1.7c-0.9,3.1-1.8,6.1-2.8,9.2c-0.3,0.9-0.3,1.9-1.4,2.8c-1.8-2.2-2.5-5.1-4.1-7.3
		c-1,0.3-1.2,1.2-1.7,1.8c-1.4,1.9-2.9,3.6-4.8,5c-3.9,2.8-8.1,3.2-12.5,1.6c-0.6-0.2-1.1-0.7-2-0.6c-0.4,2.2,0.7,4.4-0.1,6.7
		c-1.2-0.2-1.5-1.1-2-1.7c-2.7-3.4-5.3-6.8-8-10.2c-1.3-1.7-1.4-1.7-3-0.4c-6.5,4.9-13,9.9-19.4,14.9c-2.9,2.2-2.9,2.2-4.1-1.1
		c-1.5-4.4-2.7-8.9-4.7-13.1c-0.3-0.7-0.6-1.3-0.9-2c-0.9-1.7-0.9-1.7-2.7-1.3c-2.6,0.6-5.2,0.9-7.8,1.1c-6.6,0.4-13.1-0.5-19.4-2.4
		c-0.1,0-0.2,0-0.2-0.1c-3.8-1.9-7.6-1.8-11.7-1c-4,0.8-8,1.4-12,2.5C7.6,141.3,5.6,142.2,3.5,143.6z"/>
</g>
</svg>
