<svg version="1.1" xmlns="http://www.w3.org/2000/svg" xmlns:xlink="http://www.w3.org/1999/xlink" width="1000" height="1000" viewBox="0,0,1000,1000"><defs><clipPath id="clip-1"><rect x="0" y="0" width="864" height="864"></rect></clipPath></defs><g fill="none" fill-rule="nonzero" stroke="none" stroke-width="1" stroke-linecap="butt" stroke-linejoin="miter" stroke-miterlimit="10" stroke-dasharray="" stroke-dashoffset="0" font-family="none" font-weight="none" font-size="none" text-anchor="none" style="mix-blend-mode: normal"><g clip-path="url(#clip-1)" id="Layer_1"><g><path d="M834.181,157.138c0,-24.217 -22.925,-43.854 -51.207,-43.854c-4.718,0 -9.282,0.558 -13.622,1.583c-24.343,2.319 -50.295,15.128 -69.923,24.244c-35.152,16.325 -69.018,35.017 -98.721,60.165c-58.48,49.52 -116.64,110.346 -151.861,180.907c-0.751,-22.139 -3.091,-43.432 -9.212,-53.43c4.701,-23.746 13.632,-47.388 26.957,-67.35c4.095,-6.129 7.822,-12.493 12.207,-18.429c4.369,-5.924 9.129,-11.539 13.675,-17.322c2.224,-2.826 7.331,-7.482 7.848,-11.269c0.604,-4.409 -4.493,-5.93 -7.46,-4.492c-4.868,2.357 -8.817,7.917 -12.199,11.942c-4.828,5.749 -9.229,11.786 -13.252,18.123c-15.363,24.21 -26.846,51.149 -31.677,79.505c-0.251,1.479 -0.481,2.963 -0.7,4.449c-1.787,-1.028 -3.792,-1.366 -6.047,-0.871c-0.548,0.123 -1.068,0.276 -1.566,0.474c-0.2,-1.349 -0.407,-2.706 -0.638,-4.052c-4.831,-28.355 -16.313,-55.295 -31.678,-79.505c-4.022,-6.337 -8.422,-12.374 -13.252,-18.123c-3.382,-4.025 -7.332,-9.585 -12.197,-11.942c-2.966,-1.438 -8.063,0.083 -7.461,4.492c0.518,3.786 5.626,8.442 7.85,11.269c4.544,5.783 9.303,11.398 13.674,17.322c4.384,5.936 8.111,12.3 12.207,18.429c13.063,19.571 21.912,42.682 26.685,65.956c-3.618,4.888 -4.887,12.935 -5.605,20.378c-1.098,11.349 -1.682,22.783 -1.955,34.231c-35.231,-70.472 -93.334,-131.225 -151.755,-180.693c-29.702,-25.148 -63.567,-43.84 -98.722,-60.165c-19.628,-9.116 -45.579,-21.925 -69.924,-24.244c-4.337,-1.025 -8.904,-1.583 -13.622,-1.583c-28.279,0 -51.207,19.637 -51.207,43.854c0,24.223 22.927,43.855 51.207,43.855c0.38,0 0.757,-0.017 1.136,-0.023c-11.023,8.041 -18.021,20.011 -18.021,33.384c0,21.193 17.553,38.876 40.888,42.964c0.898,0.822 1.767,1.634 2.593,2.43c-11.244,9.123 -18.4,22.833 -18.4,38.174c0,25.025 19.04,45.72 43.814,49.198c-1.339,-0.188 -5.399,8.054 -5.998,9.253c-1.766,3.548 -3.083,7.297 -3.938,11.161c-1.936,8.736 0.387,21.849 3.511,30.083c3.731,9.822 11.166,17.271 19.884,22.877c22.385,14.389 50.575,20.499 76.22,26.154c15.502,3.421 31.156,5.94 46.713,9.054c18.278,3.664 36.515,7.533 54.715,11.572c-42.084,25.241 -78.815,61.254 -109.457,97.44c-17.882,21.12 -31.168,45.196 -42.775,70.194c-6.483,13.954 -15.59,32.405 -17.24,49.712c-0.729,3.087 -1.125,6.331 -1.125,9.685c0.001,20.111 13.96,36.41 31.182,36.41c17.221,0 31.183,-16.299 31.179,-36.41c0.002,-0.27 -0.01,-0.534 -0.015,-0.802c5.719,7.835 14.229,12.813 23.736,12.813c15.068,0 27.642,-12.481 30.548,-29.075c0.584,-0.637 1.16,-1.256 1.726,-1.844c6.486,7.995 16.236,13.086 27.143,13.086c17.793,0 32.51,-13.539 34.982,-31.155c-0.133,0.952 5.727,3.839 6.581,4.263c2.521,1.256 5.184,2.195 7.934,2.803c6.211,1.377 15.533,-0.277 21.388,-2.495c6.985,-2.652 12.28,-7.94 16.266,-14.138c10.229,-15.918 14.576,-35.963 18.599,-54.195c2.429,-11.018 4.221,-22.148 6.435,-33.214c1.709,-8.525 3.486,-17.044 5.314,-25.546c0.539,7.688 1.504,15.279 3.331,22.653c12.129,48.911 19.476,23.745 24.974,2.001c1.776,-7.025 2.715,-14.389 3.202,-21.889c1.618,7.588 3.203,15.178 4.727,22.78c2.215,11.065 4.004,22.196 6.435,33.214c4.023,18.232 8.367,38.277 18.599,54.195c3.983,6.197 9.28,11.485 16.268,14.138c5.855,2.218 15.173,3.872 21.388,2.495c2.747,-0.607 5.413,-1.547 7.934,-2.803c0.854,-0.424 6.713,-3.311 6.579,-4.263c2.474,17.616 17.19,31.155 34.98,31.155c10.908,0 20.659,-5.091 27.144,-13.086c0.566,0.588 1.142,1.207 1.727,1.844c2.906,16.594 15.479,29.075 30.547,29.075c9.511,0 18.019,-4.978 23.736,-12.813c-0.002,0.268 -0.016,0.532 -0.015,0.802c-0.001,20.111 13.96,36.41 31.179,36.41c17.223,0 31.183,-16.299 31.183,-36.41c0,-3.354 -0.397,-6.598 -1.124,-9.685c-1.649,-17.307 -10.756,-35.758 -17.24,-49.712c-11.608,-24.998 -24.894,-49.074 -42.777,-70.194c-30.64,-36.187 -67.373,-72.199 -109.456,-97.44c18.198,-4.039 36.438,-7.908 54.716,-11.572c15.556,-3.113 31.211,-5.633 46.711,-9.054c25.646,-5.655 53.836,-11.766 76.221,-26.154c8.718,-5.605 16.154,-13.055 19.882,-22.877c3.129,-8.234 5.447,-21.347 3.514,-30.083c-0.856,-3.864 -2.173,-7.613 -3.938,-11.161c-0.601,-1.199 -4.661,-9.44 -5.999,-9.253c24.775,-3.479 43.814,-24.173 43.814,-49.198c0,-15.341 -7.158,-29.051 -18.401,-38.174c0.827,-0.796 1.695,-1.607 2.594,-2.43c23.335,-4.088 40.89,-21.771 40.89,-42.964c0,-13.373 -6.999,-25.343 -18.022,-33.384c0.38,0.007 0.755,0.023 1.135,0.023c28.272,0.002 51.197,-19.631 51.197,-43.853z"></path></g></g></g></svg>