<svg version="1.1" xmlns="http://www.w3.org/2000/svg" xmlns:xlink="http://www.w3.org/1999/xlink" width="216" height="195.58235" viewBox="20.16,8.904,216,195.58235"><g fill="none" fill-rule="nonzero" stroke="#000000" stroke-width="1px" stroke-linecap="butt" stroke-linejoin="miter" stroke-miterlimit="10" stroke-dasharray="" stroke-dashoffset="0" font-family="none" font-weight="none" font-size="none" text-anchor="none" style="mix-blend-mode: normal"><path d="M150.021,92.739l-1.668,-1.568l2.733,-0.895z"></path><path d="M150.523,85.914l-1.916,0.627l0.802,-1.527z"></path><path d="M144.389,85.282l-0.604,-1.368l1.333,-0.02z"></path><path d="M156.988,82.253l-0.049,-1.54l2.039,-0.11z"></path><path d="M142.78,79.609l-0.653,0.01l-0.197,-0.705z"></path><path d="M162.156,86.593l-2.683,-0.789l3.099,-2.569z"></path><path d="M164.946,95.731l-5.953,2.294l1.895,-3.416z"></path><path d="M149.159,79.041l-0.156,0.079l-0.28,-0.229z"></path><path d="M162.946,109.133l-5.113,-6.031l9.737,-3.752z"></path><path d="M155.599,107.147l-1.487,-0.675l0.385,-0.625z"></path><path d="M157.413,112.713l-1.222,0.382l-0.594,-1.205z"></path><path d="M162.167,76.106l-2.859,0.153l1.874,-2.422z"></path><path d="M151.56,75.3l-9.886,-3.405l6.754,-8.145z"></path><path d="M173.614,102.805l-4.482,3.351l2.888,-6.111z"></path><path d="M159.171,69.376l-0.922,1.191l0.379,-2.28z"></path><path d="M130.994,62.458l-2.306,-1.202l2.949,-1.873z"></path><path d="M159.272,118.555l-0.949,-1.6l1.691,-0.528z"></path><path d="M155.14,62.938l-0.934,5.612l-1.715,-6.324z"></path><path d="M141.774,59.444l-2.967,2.06l-0.892,-3.359z"></path><path d="M153.087,57.913l-0.32,-0.086l0.138,-0.226z"></path><path d="M140.706,54.527l-0.492,-0.166l0.264,-0.142z"></path><path d="M165.121,123.403l-2.612,-1.015l1.057,-3.028z"></path><path d="M147.961,54.749l-1.056,0.887l-0.895,-1.208z"></path><path d="M174.953,123.017l-4.775,1.499l-2.329,-6.053z"></path><path d="M176.689,118.998l-8.591,-5.508l6.644,-2.782z"></path><path d="M172.122,132.405l-0.738,-3.74l3.762,-1.181z"></path><path d="M119.644,58.722l-1.606,-0.185l0.352,-1.494z"></path><path d="M148.295,50.426l-2.259,-0.372l1.261,-1.079z"></path><path d="M137.572,50.877l-1.293,0.694l-0.602,-2.664z"></path><path d="M128.822,56.053l-3.919,2.489l-2.638,-3.531z"></path><path d="M131.749,52.145l-9.017,-1.435l7.026,-5.262z"></path><path d="M185.211,127.279l-0.216,1.518l-0.911,-1.812z"></path><path d="M108.804,56.907l-0.384,0.12l-0.014,-0.434z"></path><path d="M139.58,46.472l-0.03,0.23l-0.329,-0.342z"></path><path d="M139.683,41.982l-0.527,-0.163l0.515,-0.16z"></path><path d="M113.206,54.194l-0.308,0.439l-0.559,-0.441z"></path><path d="M122.033,45.837l0.463,-1.212l1.276,-0.091z"></path><path d="M182.897,134.239l-7.543,1.157l4.467,-7.271z"></path><path d="M114.019,49.875l-4.692,-0.009l2.26,-5.444z"></path><path d="M127.6,39.101l-4.411,-0.751l2.546,-4.214z"></path><path d="M118.181,43.815l-0.985,2.577l-1.587,-3.559z"></path><path d="M177.446,141.813l-1.962,-2.067l4.658,-0.714z"></path><path d="M193.547,131.655l-2.486,0.682l1.552,-2.394z"></path><path d="M85.582,84.862l-1.859,1.029l-0.755,-2.354z"></path><path d="M137.265,37.883l-2.125,0.662l0.594,-1.926z"></path><path d="M96.24,62.372l-1.548,-0.144l1.101,-4.307z"></path><path d="M91.897,70.269l-3.984,-0.516l3.706,-1.067z"></path><path d="M103.218,52.662l-3.082,5.278l-0.8,-7.95z"></path><path d="M205.249,137.086l0.182,0.644l-0.923,-0.806z"></path><path d="M116.475,37.382l-2.067,-0.249l0.951,-2.834z"></path><path d="M88.993,81.748l-4.552,-2.307l6.371,-2.717z"></path><path d="M131.823,34.032l-0.79,1.924l-1.021,-2.717z"></path><path d="M105.593,47.593l-3.377,-4.74l5.783,-1.056z"></path><path d="M86.393,73.912l-5.54,2.362l-0.735,-3.175z"></path><path d="M110.305,35.779l-0.485,-0.277l0.824,-0.734z"></path><path d="M91.47,57.388l-2.169,-5.145l4.072,-2.301z"></path><path d="M122.718,30.775l-2.027,3.355l-0.808,-3.866z"></path><path d="M95.348,39.092l-2.482,-0.068l1.354,-2.974z"></path><path d="M192.139,146.233l-2.135,-6.624l3.759,-2.269z"></path><path d="M91.655,45.097l-1.29,0.905l0.432,-1.477z"></path><path d="M85.283,64.713l-6.228,2.724l-0.621,-4.42z"></path><path d="M189.03,150.668l-1.97,-1.047l0.689,-2.929z"></path><path d="M101.878,36.273l-2.348,1.671l-1.245,-3.359z"></path><path d="M72.802,71.114l-0.267,0.191l-0.052,-0.315z"></path><path d="M107.071,32.166l-0.608,-1.646l2.663,-0.187z"></path><path d="M102.292,31.694l-1.032,-0.484l0.794,-0.161z"></path><path d="M88.309,61.012l-7.774,-1.926l5.165,-4.264z"></path><path d="M76.188,75.276l-1.045,-0.524l0.793,-0.564z"></path><path d="M205.914,143.888l-10.167,6.632l2.444,-13.378z"></path><path d="M81.167,52.963l-3.008,2.483l0.086,-2.763z"></path><path d="M81.134,47.008l-0.144,-0.053l0.041,-0.103z"></path><path d="M74.66,67.202l-1.368,-0.534l1.104,-1.344z"></path><path d="M85.798,46.231l-1.518,-2.298l2.273,-0.285z"></path><path d="M200.011,154.462l-1.796,-0.394l3.64,-2.375z"></path><path d="M95.904,21c0,-6.68044 5.41556,-12.096 12.096,-12.096c6.55779,0 11.89673,5.21854 12.09055,11.72937c3.58104,0.43803 7.10955,1.20173 10.54772,2.41708c5.12128,1.80901 9.73297,4.45882 13.73318,8.1278c1.19751,1.0956 2.26763,2.26763 3.36323,3.46514c0.99368,1.0956 2.01284,2.14024 2.95556,3.26131c2.4205,2.87913 4.63718,5.93661 6.72645,9.096c3.54158,5.35059 6.65002,10.93049 9.45271,16.68874c2.90461,5.98756 5.47798,12.10252 7.77109,18.34487c1.19751,3.28679 2.34407,6.59906 3.38871,9.93681c0.10192,0.30575 0.22931,0.6115 0.38218,0.89176c4.22951,7.0322 8.63738,13.91153 13.52934,20.51059c2.21667,3.00652 4.56074,5.91113 7.1596,8.58642c1.0956,1.12108 2.24215,2.19119 3.54158,3.08296c0.17835,0.12739 0.38218,0.22931 0.56054,0.38218c0.56054,0.38218 1.07012,0.50958 1.73257,0.15287c0.9682,-0.4841 2.03832,-0.63697 3.15939,-0.53506c1.65613,0.17835 2.87913,1.04464 3.79637,2.39503c0.68793,1.04464 1.14655,2.21667 1.40134,3.43966c0.40766,1.98736 1.01916,3.89829 1.55422,5.86017c0.53506,1.96188 1.12108,3.92376 1.63066,5.88565c0.12739,0.4841 0.38218,0.68793 0.84081,0.84081c2.64982,0.81533 5.27415,1.68161 7.92397,2.52242c0.68793,0.22931 1.40134,0.45862 2.0638,0.73889c2.11476,0.89176 4.22951,1.83449 6.44618,2.47146c0.6115,0.17835 1.17203,0.45862 1.70709,0.84081c0.22931,0.15287 0.45862,0.35671 0.58602,0.6115c0.30575,0.56054 -0.02548,1.17203 -0.66245,1.14655c-0.91724,-0.02548 -1.83449,-0.07644 -2.75173,-0.15287c-1.68161,-0.15287 -3.36323,-0.30575 -5.04484,-0.56054c-0.91724,-0.15287 -1.85997,-0.28027 -2.75173,-0.56054c-0.94272,-0.30575 -1.91092,-0.43314 -2.87913,-0.53506c-1.63066,-0.15287 -3.28679,-0.28027 -4.91745,-0.43314c-0.4841,-0.05096 -0.50958,0 -0.45862,0.4841c0.33123,3.10844 -0.68793,5.78373 -2.77721,8.05136c-1.73257,1.88545 -3.92376,3.08296 -6.29331,4.0002c-0.86629,0.33123 -1.73257,0.6115 -2.62434,0.84081c-0.56054,0.15287 -0.6115,0.20383 -0.56054,0.73889c0.12739,1.4523 0.28027,2.93008 0.43314,4.38239c0.15287,1.50326 0.28027,3.00652 0.40766,4.50978c0.15287,1.52874 0.28027,3.032 0.43314,4.56074c0.53506,5.70729 2.01284,11.21076 3.6435,16.68874c0.45862,1.50326 1.01916,2.95556 1.75805,4.35691c0.25479,0.45862 0.53506,0.84081 0.94272,1.17203c1.29943,1.0956 2.57338,2.21667 3.84733,3.28679c0.38218,0.33123 0.50958,0.71341 0.4841,1.19751c-0.02548,0.45862 -0.25479,0.66245 -0.71341,0.66245c-0.28027,0 -0.53506,-0.07644 -0.76437,-0.20383c-1.47778,-0.71341 -2.82817,-1.63066 -3.84733,-2.95556c-1.4523,-1.88545 -2.52242,-4.0002 -3.43966,-6.19139c-1.60518,-3.84733 -2.67529,-7.87301 -3.54158,-11.94965c-0.66245,-3.18487 -1.19751,-6.39523 -1.60518,-9.63106c-0.05096,-0.33123 -0.12739,-0.63697 -0.22931,-0.94272c-0.9682,-2.39503 -1.9364,-4.79005 -2.90461,-7.21055c-0.17835,-0.43314 -0.43314,-0.66245 -0.89176,-0.78985c-6.87933,-1.83449 -13.27455,-4.71361 -19.13472,-8.76477c-3.6435,-2.49694 -6.87933,-5.42703 -9.63106,-8.86669c-0.10192,-0.15287 -0.22931,-0.28027 -0.38218,-0.40766c-4.28047,-4.07664 -8.05136,-8.58642 -11.54198,-13.35099c-3.36323,-4.56074 -6.39523,-9.35079 -9.07052,-14.34467c-3.56706,-6.62454 -6.5481,-13.47839 -8.81573,-20.66346c-0.45862,-1.4523 -1.04464,-2.82817 -1.70709,-4.17855c-2.14024,-4.25499 -4.05116,-8.63738 -5.52894,-13.17264c-0.89176,-2.77721 -1.60518,-5.60538 -1.75805,-8.53546c-0.02548,-0.40766 -0.07644,-0.45862 -0.56054,-0.56054c-1.32491,-0.25479 -2.59886,-0.68793 -3.82185,-1.24847c-1.85997,-0.84081 -3.5161,-1.98736 -4.84101,-3.56706c-0.28027,-0.33123 -0.53506,-0.35671 -0.89176,-0.22931c-1.37587,0.4841 -2.80269,0.84081 -4.28047,1.01916c-1.04464,0.12739 -2.11476,0.20383 -3.15939,-0.02548c-0.66245,-0.15287 -1.29943,-0.38218 -1.78353,-0.89176c-0.22931,-0.22931 -0.4841,-0.25479 -0.78985,-0.25479c-1.27395,0 -2.57338,0 -3.84733,0c-0.38218,0 -0.63697,0.12739 -0.86629,0.45862c-1.27395,1.75805 -2.5479,3.49062 -3.84733,5.22319c-0.07644,0.12739 -0.15287,0.25479 -0.25479,0.33123c-0.50958,0.35671 -0.50958,0.86629 -0.45862,1.37587c0.07644,0.91724 0.15287,1.83449 0.25479,2.72625c0.02548,0.30575 0.17835,0.58602 0.33123,0.84081c0.76437,1.27395 1.27395,2.64982 1.42682,4.1276c0.17835,2.01284 -0.43314,3.77089 -1.70709,5.32511c-0.43314,0.53506 -0.94272,1.04464 -1.50326,1.4523c-0.38218,0.28027 -0.43314,0.56054 -0.30575,0.99368c0.53506,1.91092 1.07012,3.84733 1.5797,5.78373c0.30575,1.12108 0.78985,2.19119 1.19751,3.26131c2.49694,6.57358 4.63718,13.27455 6.49714,20.05197c1.37587,4.99388 2.5479,10.03872 3.5161,15.10904c0.6115,3.26131 1.47778,6.47166 2.21667,9.7075c1.12108,4.79005 2.29311,9.5801 3.41418,14.39563c0.76437,3.36323 1.29943,6.75193 1.63066,10.1916c0.15287,1.73257 0.28027,3.46514 0.22931,5.19771c-0.07644,2.39503 -0.20383,4.76457 -1.04464,7.0322c-0.78985,2.14024 -1.70709,4.22951 -3.13392,6.064c-0.35671,0.43314 -0.73889,0.81533 -1.24847,1.04464c-0.56054,0.25479 -1.07012,0.17835 -1.52874,-0.22931c-0.33123,-0.30575 -0.38218,-0.43314 -0.10192,-0.84081c0.56054,-0.84081 1.07012,-1.73257 1.55422,-2.62434c1.5797,-3.00652 2.70077,-6.16592 3.032,-9.55462c0.20383,-2.03832 0.05096,-4.05116 -0.35671,-6.08948c-1.0956,-5.19771 -2.11476,-10.39543 -3.15939,-15.56766c-0.9682,-4.84101 -1.91092,-9.68202 -2.95556,-14.49755c-0.56054,-2.62434 -1.32491,-5.19771 -2.0638,-7.79657c-1.52874,-5.50346 -3.15939,-10.95597 -4.99388,-16.35751c-1.42682,-4.17855 -2.93008,-8.33163 -4.76457,-12.38279c-0.9682,-2.14024 -2.01284,-4.22951 -3.36323,-6.16592c-0.30575,-0.45862 -0.66245,-0.89176 -1.01916,-1.29943c-0.33123,-0.35671 -0.33123,-0.35671 -0.76437,-0.10192c-1.37587,0.73889 -2.77721,1.4523 -4.25499,2.01284c-1.68161,0.66245 -3.38871,1.19751 -5.17224,1.4523c-1.4523,0.22931 -2.87913,0.25479 -4.30595,-0.17835c-1.73257,-0.50958 -2.95556,-1.60518 -3.61802,-3.28679c-0.28027,-0.71341 -0.66245,-1.35039 -1.07012,-1.98736c-1.60518,-2.67529 -3.21035,-5.35059 -4.81553,-8.02588c-0.25479,-0.40766 -0.53506,-0.73889 -0.94272,-1.01916c-1.19751,-0.84081 -2.39503,-1.70709 -3.59254,-2.5479c-0.43314,-0.30575 -0.43314,-0.30575 -0.84081,0.02548c-1.42682,1.19751 -2.82817,2.39503 -4.25499,3.59254c-1.98736,1.68161 -3.97472,3.36323 -5.96208,5.07032c-2.08928,1.78353 -4.02568,3.74541 -5.96208,5.70729c-6.03852,6.19139 -11.56746,12.79045 -16.2556,20.07745c-2.75173,4.25499 -5.14676,8.68834 -6.95576,13.45291c-1.22299,3.23583 -2.19119,6.5481 -2.59886,9.96229c-0.17835,1.42682 -0.56054,2.80269 -0.73889,4.20403c-0.43314,3.69445 -0.25479,7.31247 1.14655,10.82857c1.50326,3.71993 4.10212,6.39523 7.61822,8.25519c0.35671,0.17835 0.73889,0.25479 1.12108,0.30575c0.94272,0.17835 1.85997,0.43314 2.72625,0.86629c0.43314,0.20383 0.81533,0.45862 1.14655,0.81533c0.25479,0.30575 0.45862,0.63697 0.4841,1.04464c0.05096,0.50958 -0.10192,0.68793 -0.6115,0.6115c-0.4841,-0.05096 -0.9682,-0.12739 -1.4523,-0.22931c-4.6117,-0.99368 -8.45903,-3.26131 -11.21076,-7.18508c-1.29943,-1.85997 -2.11476,-3.94924 -2.67529,-6.14044c-0.71341,-2.4205 -1.04464,-4.99388 -1.01916,-6.85385c0,-4.99388 0.73889,-9.096 1.91092,-13.12168c1.40134,-4.79005 3.43966,-9.35079 5.80921,-13.75866c3.82185,-7.05768 8.45903,-13.55482 13.52934,-19.72074c0.99368,-1.22299 2.08928,-2.34407 3.13392,-3.5161c2.34407,-2.62434 4.68813,-5.24867 7.05768,-7.87301c1.88545,-2.11476 3.79637,-4.20403 5.68182,-6.31879c1.29943,-1.4523 2.59886,-2.93008 3.92376,-4.38239c0.22931,-0.25479 0.30575,-0.53506 0.33123,-0.89176c0.05096,-3.5161 0.50958,-6.98124 1.4523,-10.39543c0.73889,-2.64982 1.78353,-5.17224 3.36323,-7.43987c0.15287,-0.22931 0.22931,-0.4841 0.28027,-0.73889c0.91724,-4.28047 2.4205,-8.38259 4.38239,-12.30635c1.88545,-3.74541 4.17855,-7.23603 6.95576,-10.36995c3.54158,-3.97472 7.66918,-7.1596 12.45923,-9.50366c1.78214,-0.88274 3.62961,-1.55862 5.52817,-2.07034c-0.03744,-0.38749 -0.05659,-0.78032 -0.05659,-1.17763z"></path><path d="M100.8,21c0,-3.97645 3.22355,-7.2 7.2,-7.2c3.97645,0 7.2,3.22355 7.2,7.2c0,3.97645 -3.22355,7.2 -7.2,7.2c-3.97645,0 -7.2,-3.22355 -7.2,-7.2z"></path></g></svg>