<svg version="1.1" xmlns="http://www.w3.org/2000/svg" xmlns:xlink="http://www.w3.org/1999/xlink" width="216" height="195.58235" viewBox="20.16,8.904,216,195.58235"><g fill="none" fill-rule="nonzero" stroke="#ff0000" stroke-width="1px" stroke-linecap="butt" stroke-linejoin="miter" stroke-miterlimit="10" stroke-dasharray="" stroke-dashoffset="0" font-family="none" font-weight="none" font-size="none" text-anchor="none" style="mix-blend-mode: normal"><path d="M155.269,96.5l-6.191,-5.066l8.867,-1.87z"></path><path d="M163.579,90.463l-2.076,1.883l0.98,-2.541z"></path><path d="M152.397,101.705l-0.868,1.225l-0.566,-1.427z"></path><path d="M165.999,97.111l-3.641,0.291l3.261,-2.958z"></path><path d="M151.377,86.534l-5.887,1.241l-1.279,-2.895z"></path><path d="M159.005,83.861l-11.333,-2.616l10.777,-4.335z"></path><path d="M165.517,84.526l-0.75,-0.01l0.412,-0.881z"></path><path d="M165.3,105.911l-7.745,5.421l0.598,-8.198z"></path><path d="M154.533,73.829l-7.93,3.189l3.545,-4.921z"></path><path d="M141.368,76.894l-0.702,-2.519l3.222,-0.979z"></path><path d="M168.6,110.761l-3.795,0.769l3.501,-2.451z"></path><path d="M156.859,66.95l-1.95,0.094l1.561,-1.541z"></path><path d="M160.229,120.167l-1.749,-2.947l5.946,-1.205z"></path><path d="M146.786,68.001l-4.468,1.357l3.256,-6.232z"></path><path d="M179.214,116.089l-2.742,-2.151l2.813,-0.366z"></path><path d="M177.815,109.407l-2.617,0.34l1.344,-2.277z"></path><path d="M153.68,62.187l-3.122,3.083l-1.17,-4.709z"></path><path d="M138.457,67.417l-1.874,-5.612l5.552,-1.427z"></path><path d="M152.661,57.181l-1.251,-0.474l0.736,-0.41z"></path><path d="M143.349,55.606l-4.53,1.164l3.12,-4.568z"></path><path d="M177.588,120.305l-7.498,5.074l2.287,-9.162z"></path><path d="M165.444,126.155l-2.58,-2.519l4.261,-4.215z"></path><path d="M127.761,58.85l-1.005,0.123l0.066,-0.751z"></path><path d="M179.924,124.447l-1.257,0.345l1.16,-0.785z"></path><path d="M149.822,52.646l-0.851,0.474l0.182,-1.447z"></path><path d="M129.368,54.729l-1.779,-1.189l0.64,-1.798z"></path><path d="M178.988,129.838l-1.595,-0.218l1.823,-0.5z"></path><path d="M119.658,57.965l-0.288,-0.076l0.121,-0.191z"></path><path d="M138.689,49.301l-4.342,6.359l-2.847,-7.462z"></path><path d="M185.447,131.446l-0.186,-0.666l0.49,-0.195z"></path><path d="M124.088,50.492l-0.035,-0.035l0.06,-0.036z"></path><path d="M111.97,57.354l-2.438,0.181l0.87,-2.383z"></path><path d="M134.169,42.05l-0.073,0.015l0.036,-0.042z"></path><path d="M116.47,48.071l-3.835,0.185l1.08,-4.027z"></path><path d="M116.18,54.857l-0.323,0.507l-0.561,-0.788z"></path><path d="M192.139,131.309l-2.711,1.839l1.047,-2.971z"></path><path d="M200.886,139.746l-10.269,-2.185l5.047,-3.422z"></path><path d="M116.488,40.684l-0.797,-1.111l0.49,-0.442z"></path><path d="M102.02,60.105l-0.071,0.044l0.017,-0.073z"></path><path d="M125.27,39.586l-4.314,-4.284l3.512,-2.348z"></path><path d="M105.172,56.879l-0.478,-0.251l0.758,-0.516z"></path><path d="M100.331,54.369l-3.222,-1.615l5.622,-0.016z"></path><path d="M124.661,45.069l-2.598,1.546l-1.014,-5.133z"></path><path d="M92.122,75.807l-0.358,-0.355l0.392,-0.067z"></path><path d="M182.345,146.147l-0.525,-0.427l0.516,-0.176z"></path><path d="M131.02,39.023l-1.291,1.455l-0.45,-3.717z"></path><path d="M83.952,73.798l-3.29,2.453l0.779,-4.93z"></path><path d="M87.399,71.13l-2.689,-2.652l6.886,-0.761z"></path><path d="M105.431,48.41l-14.447,0.042l4.245,-13.443z"></path><path d="M82.415,84.784l-0.941,-1.559l1.853,-0.044z"></path><path d="M87.544,86.142l-1.015,0.146l0.552,-0.969z"></path><path d="M120.542,30.383l-1.052,0.703l-0.054,-0.902z"></path><path d="M98.007,58.037l-0.405,1.732l-2.33,-3.103z"></path><path d="M201.313,145.254l-8.108,6.632l-4.652,-7.049z"></path><path d="M110.261,40.431l-1.427,5.317l-7.229,-9.496z"></path><path d="M84.983,78.821l-0.558,0.013l0.568,-0.424z"></path><path d="M91.383,63.395l-8.494,0.938l1.295,-4.711z"></path><path d="M91.181,58.412l-4.913,-2.574l1.62,-1.813z"></path><path d="M112.753,30.7l-1.399,-0.754l1.887,-0.07z"></path><path d="M78.44,55.366l-1.985,0.514l0.633,-1.765z"></path><path d="M199.743,154.403l-2.201,-0.483l3.836,-3.138z"></path><path d="M206.385,151.235l-0.641,0.374l0.505,-1.119z"></path><path d="M76.486,75l-1.9,-3.124l2.595,-1.274z"></path><path d="M77.689,61.863l-1.091,-1.558l2.151,-0.557z"></path><path d="M104.581,32.892l-3.914,-1.89l1.897,-0.491z"></path><path d="M83.315,52.66l-0.65,0.728l-0.828,-0.766z"></path><path d="M74.3,64.555l-1.167,0.216l0.468,-1.214z"></path><path d="M89.233,39.651l-0.281,-3.183l1.614,-1.036z"></path><path d="M83.106,48.333l-3.363,-0.087l1.246,-2.291z"></path><path d="M95.904,21c0,-6.68044 5.41556,-12.096 12.096,-12.096c6.55779,0 11.89673,5.21854 12.09055,11.72937c3.58104,0.43803 7.10955,1.20173 10.54772,2.41708c5.12128,1.80901 9.73297,4.45882 13.73318,8.1278c1.19751,1.0956 2.26763,2.26763 3.36323,3.46514c0.99368,1.0956 2.01284,2.14024 2.95556,3.26131c2.4205,2.87913 4.63718,5.93661 6.72645,9.096c3.54158,5.35059 6.65002,10.93049 9.45271,16.68874c2.90461,5.98756 5.47798,12.10252 7.77109,18.34487c1.19751,3.28679 2.34407,6.59906 3.38871,9.93681c0.10192,0.30575 0.22931,0.6115 0.38218,0.89176c4.22951,7.0322 8.63738,13.91153 13.52934,20.51059c2.21667,3.00652 4.56074,5.91113 7.1596,8.58642c1.0956,1.12108 2.24215,2.19119 3.54158,3.08296c0.17835,0.12739 0.38218,0.22931 0.56054,0.38218c0.56054,0.38218 1.07012,0.50958 1.73257,0.15287c0.9682,-0.4841 2.03832,-0.63697 3.15939,-0.53506c1.65613,0.17835 2.87913,1.04464 3.79637,2.39503c0.68793,1.04464 1.14655,2.21667 1.40134,3.43966c0.40766,1.98736 1.01916,3.89829 1.55422,5.86017c0.53506,1.96188 1.12108,3.92376 1.63066,5.88565c0.12739,0.4841 0.38218,0.68793 0.84081,0.84081c2.64982,0.81533 5.27415,1.68161 7.92397,2.52242c0.68793,0.22931 1.40134,0.45862 2.0638,0.73889c2.11476,0.89176 4.22951,1.83449 6.44618,2.47146c0.6115,0.17835 1.17203,0.45862 1.70709,0.84081c0.22931,0.15287 0.45862,0.35671 0.58602,0.6115c0.30575,0.56054 -0.02548,1.17203 -0.66245,1.14655c-0.91724,-0.02548 -1.83449,-0.07644 -2.75173,-0.15287c-1.68161,-0.15287 -3.36323,-0.30575 -5.04484,-0.56054c-0.91724,-0.15287 -1.85997,-0.28027 -2.75173,-0.56054c-0.94272,-0.30575 -1.91092,-0.43314 -2.87913,-0.53506c-1.63066,-0.15287 -3.28679,-0.28027 -4.91745,-0.43314c-0.4841,-0.05096 -0.50958,0 -0.45862,0.4841c0.33123,3.10844 -0.68793,5.78373 -2.77721,8.05136c-1.73257,1.88545 -3.92376,3.08296 -6.29331,4.0002c-0.86629,0.33123 -1.73257,0.6115 -2.62434,0.84081c-0.56054,0.15287 -0.6115,0.20383 -0.56054,0.73889c0.12739,1.4523 0.28027,2.93008 0.43314,4.38239c0.15287,1.50326 0.28027,3.00652 0.40766,4.50978c0.15287,1.52874 0.28027,3.032 0.43314,4.56074c0.53506,5.70729 2.01284,11.21076 3.6435,16.68874c0.45862,1.50326 1.01916,2.95556 1.75805,4.35691c0.25479,0.45862 0.53506,0.84081 0.94272,1.17203c1.29943,1.0956 2.57338,2.21667 3.84733,3.28679c0.38218,0.33123 0.50958,0.71341 0.4841,1.19751c-0.02548,0.45862 -0.25479,0.66245 -0.71341,0.66245c-0.28027,0 -0.53506,-0.07644 -0.76437,-0.20383c-1.47778,-0.71341 -2.82817,-1.63066 -3.84733,-2.95556c-1.4523,-1.88545 -2.52242,-4.0002 -3.43966,-6.19139c-1.60518,-3.84733 -2.67529,-7.87301 -3.54158,-11.94965c-0.66245,-3.18487 -1.19751,-6.39523 -1.60518,-9.63106c-0.05096,-0.33123 -0.12739,-0.63697 -0.22931,-0.94272c-0.9682,-2.39503 -1.9364,-4.79005 -2.90461,-7.21055c-0.17835,-0.43314 -0.43314,-0.66245 -0.89176,-0.78985c-6.87933,-1.83449 -13.27455,-4.71361 -19.13472,-8.76477c-3.6435,-2.49694 -6.87933,-5.42703 -9.63106,-8.86669c-0.10192,-0.15287 -0.22931,-0.28027 -0.38218,-0.40766c-4.28047,-4.07664 -8.05136,-8.58642 -11.54198,-13.35099c-3.36323,-4.56074 -6.39523,-9.35079 -9.07052,-14.34467c-3.56706,-6.62454 -6.5481,-13.47839 -8.81573,-20.66346c-0.45862,-1.4523 -1.04464,-2.82817 -1.70709,-4.17855c-2.14024,-4.25499 -4.05116,-8.63738 -5.52894,-13.17264c-0.89176,-2.77721 -1.60518,-5.60538 -1.75805,-8.53546c-0.02548,-0.40766 -0.07644,-0.45862 -0.56054,-0.56054c-1.32491,-0.25479 -2.59886,-0.68793 -3.82185,-1.24847c-1.85997,-0.84081 -3.5161,-1.98736 -4.84101,-3.56706c-0.28027,-0.33123 -0.53506,-0.35671 -0.89176,-0.22931c-1.37587,0.4841 -2.80269,0.84081 -4.28047,1.01916c-1.04464,0.12739 -2.11476,0.20383 -3.15939,-0.02548c-0.66245,-0.15287 -1.29943,-0.38218 -1.78353,-0.89176c-0.22931,-0.22931 -0.4841,-0.25479 -0.78985,-0.25479c-1.27395,0 -2.57338,0 -3.84733,0c-0.38218,0 -0.63697,0.12739 -0.86629,0.45862c-1.27395,1.75805 -2.5479,3.49062 -3.84733,5.22319c-0.07644,0.12739 -0.15287,0.25479 -0.25479,0.33123c-0.50958,0.35671 -0.50958,0.86629 -0.45862,1.37587c0.07644,0.91724 0.15287,1.83449 0.25479,2.72625c0.02548,0.30575 0.17835,0.58602 0.33123,0.84081c0.76437,1.27395 1.27395,2.64982 1.42682,4.1276c0.17835,2.01284 -0.43314,3.77089 -1.70709,5.32511c-0.43314,0.53506 -0.94272,1.04464 -1.50326,1.4523c-0.38218,0.28027 -0.43314,0.56054 -0.30575,0.99368c0.53506,1.91092 1.07012,3.84733 1.5797,5.78373c0.30575,1.12108 0.78985,2.19119 1.19751,3.26131c2.49694,6.57358 4.63718,13.27455 6.49714,20.05197c1.37587,4.99388 2.5479,10.03872 3.5161,15.10904c0.6115,3.26131 1.47778,6.47166 2.21667,9.7075c1.12108,4.79005 2.29311,9.5801 3.41418,14.39563c0.76437,3.36323 1.29943,6.75193 1.63066,10.1916c0.15287,1.73257 0.28027,3.46514 0.22931,5.19771c-0.07644,2.39503 -0.20383,4.76457 -1.04464,7.0322c-0.78985,2.14024 -1.70709,4.22951 -3.13392,6.064c-0.35671,0.43314 -0.73889,0.81533 -1.24847,1.04464c-0.56054,0.25479 -1.07012,0.17835 -1.52874,-0.22931c-0.33123,-0.30575 -0.38218,-0.43314 -0.10192,-0.84081c0.56054,-0.84081 1.07012,-1.73257 1.55422,-2.62434c1.5797,-3.00652 2.70077,-6.16592 3.032,-9.55462c0.20383,-2.03832 0.05096,-4.05116 -0.35671,-6.08948c-1.0956,-5.19771 -2.11476,-10.39543 -3.15939,-15.56766c-0.9682,-4.84101 -1.91092,-9.68202 -2.95556,-14.49755c-0.56054,-2.62434 -1.32491,-5.19771 -2.0638,-7.79657c-1.52874,-5.50346 -3.15939,-10.95597 -4.99388,-16.35751c-1.42682,-4.17855 -2.93008,-8.33163 -4.76457,-12.38279c-0.9682,-2.14024 -2.01284,-4.22951 -3.36323,-6.16592c-0.30575,-0.45862 -0.66245,-0.89176 -1.01916,-1.29943c-0.33123,-0.35671 -0.33123,-0.35671 -0.76437,-0.10192c-1.37587,0.73889 -2.77721,1.4523 -4.25499,2.01284c-1.68161,0.66245 -3.38871,1.19751 -5.17224,1.4523c-1.4523,0.22931 -2.87913,0.25479 -4.30595,-0.17835c-1.73257,-0.50958 -2.95556,-1.60518 -3.61802,-3.28679c-0.28027,-0.71341 -0.66245,-1.35039 -1.07012,-1.98736c-1.60518,-2.67529 -3.21035,-5.35059 -4.81553,-8.02588c-0.25479,-0.40766 -0.53506,-0.73889 -0.94272,-1.01916c-1.19751,-0.84081 -2.39503,-1.70709 -3.59254,-2.5479c-0.43314,-0.30575 -0.43314,-0.30575 -0.84081,0.02548c-1.42682,1.19751 -2.82817,2.39503 -4.25499,3.59254c-1.98736,1.68161 -3.97472,3.36323 -5.96208,5.07032c-2.08928,1.78353 -4.02568,3.74541 -5.96208,5.70729c-6.03852,6.19139 -11.56746,12.79045 -16.2556,20.07745c-2.75173,4.25499 -5.14676,8.68834 -6.95576,13.45291c-1.22299,3.23583 -2.19119,6.5481 -2.59886,9.96229c-0.17835,1.42682 -0.56054,2.80269 -0.73889,4.20403c-0.43314,3.69445 -0.25479,7.31247 1.14655,10.82857c1.50326,3.71993 4.10212,6.39523 7.61822,8.25519c0.35671,0.17835 0.73889,0.25479 1.12108,0.30575c0.94272,0.17835 1.85997,0.43314 2.72625,0.86629c0.43314,0.20383 0.81533,0.45862 1.14655,0.81533c0.25479,0.30575 0.45862,0.63697 0.4841,1.04464c0.05096,0.50958 -0.10192,0.68793 -0.6115,0.6115c-0.4841,-0.05096 -0.9682,-0.12739 -1.4523,-0.22931c-4.6117,-0.99368 -8.45903,-3.26131 -11.21076,-7.18508c-1.29943,-1.85997 -2.11476,-3.94924 -2.67529,-6.14044c-0.71341,-2.4205 -1.04464,-4.99388 -1.01916,-6.85385c0,-4.99388 0.73889,-9.096 1.91092,-13.12168c1.40134,-4.79005 3.43966,-9.35079 5.80921,-13.75866c3.82185,-7.05768 8.45903,-13.55482 13.52934,-19.72074c0.99368,-1.22299 2.08928,-2.34407 3.13392,-3.5161c2.34407,-2.62434 4.68813,-5.24867 7.05768,-7.87301c1.88545,-2.11476 3.79637,-4.20403 5.68182,-6.31879c1.29943,-1.4523 2.59886,-2.93008 3.92376,-4.38239c0.22931,-0.25479 0.30575,-0.53506 0.33123,-0.89176c0.05096,-3.5161 0.50958,-6.98124 1.4523,-10.39543c0.73889,-2.64982 1.78353,-5.17224 3.36323,-7.43987c0.15287,-0.22931 0.22931,-0.4841 0.28027,-0.73889c0.91724,-4.28047 2.4205,-8.38259 4.38239,-12.30635c1.88545,-3.74541 4.17855,-7.23603 6.95576,-10.36995c3.54158,-3.97472 7.66918,-7.1596 12.45923,-9.50366c1.78214,-0.88274 3.62961,-1.55862 5.52817,-2.07034c-0.03744,-0.38749 -0.05659,-0.78032 -0.05659,-1.17763z"></path><path d="M100.8,21c0,-3.97645 3.22355,-7.2 7.2,-7.2c3.97645,0 7.2,3.22355 7.2,7.2c0,3.97645 -3.22355,7.2 -7.2,7.2c-3.97645,0 -7.2,-3.22355 -7.2,-7.2z"></path></g></svg>