<svg version="1.1" xmlns="http://www.w3.org/2000/svg" xmlns:xlink="http://www.w3.org/1999/xlink" width="216" height="178.6873" viewBox="20.16,20.16,216,178.6873"><g fill="none" fill-rule="nonzero" stroke="#ff0000" stroke-width="1px" stroke-linecap="butt" stroke-linejoin="miter" stroke-miterlimit="10" stroke-dasharray="" stroke-dashoffset="0" font-family="none" font-weight="none" font-size="none" text-anchor="none" style="mix-blend-mode: normal"><path d="M100.502,169.876l-6.183,7.232l-13.174,-17.07z"></path><path d="M169.79,145.541l-25.55,0.284l-1.822,-9.245z"></path><path d="M132.374,112.344l-2.01929,-16.87838l1.53129,0.63738l1.673,0.267l1.689,-0.131l1.611,-0.522l0.32232,-0.19718z"></path><path d="M128.406,121.94l-3.83618,1.16966l-0.93982,0.07734l-1.609,0.529l-0.54494,0.33695l-1.00706,0.30705l-1.797,-21.483z"></path><path d="M133.886,122.777l3.979,-13.925l-0.30207,16.8266l-0.25593,-0.3316l-1.321,-1.062l-1.43977,-0.68086z"></path><path d="M107.486,158.002l-4.463,8.309l-19.187,-9.752z"></path><path d="M74.564,151.241l-0.27834,-0.45485l0.01234,-1.10015l-0.377,-1.652l-0.753,-1.517l-1.087,-1.3l-0.31123,-0.23113l26.84223,-0.63587z"></path><path d="M196.126,115.107l-54.328,15.401l0.628,-35.042z"></path><path d="M125.976,95.226l1.945,16.264l-8.30905,-16.26984l1.32105,0.30584l1.694,-0.014l1.644,-0.41l0.04861,-0.02529z"></path><path d="M149.281,159.009l-3.616,-8.879l25.96,-0.29z"></path><path d="M182.919,159.903l-24.044,-0.161l22.359,-9.175z"></path><path d="M109.422,153.793l-23.149,-1.413l25.87,-7.412z"></path><path d="M113.631,139.673l-30.969,0.734l32.988,-10.062z"></path><path d="M185.976,96.812l-41.884,-6.054l5.556,-7.982z"></path><path d="M60.285,130.123l-6.695,-9.189l1.482,-6.052z"></path><path d="M111.226,127.178l-42.907,13.087l-10.166,-29.723z"></path><path d="M174.92,164.169l-17.863,7.477l-4.962,-7.629z"></path><path d="M166.68,181.603l-6.624,-6.529l18.262,-7.643z"></path><path d="M86.652,174.245l-14.211,-7.243l2.138,-8.402z"></path><path d="M181.954,144.977l-34.972,-11.449l51.322,-14.548z"></path><path d="M82.24,186.85l-3.807,-2.504l8.281,-0.86z"></path><path d="M183.433,175.461l-9.362,3.949l9.315,-11.343z"></path><path d="M189.086,93.382l-36.219,-13.994l7.138,-6.556z"></path><path d="M59.025,135.729l-2.635,-1.562l-0.685,-2.994z"></path><path d="M116.119,124.184l-53.392,-16.736l50.936,-12.62z"></path><path d="M86.743,179.14l-12.734,1.323l-1.308,-8.48z"></path><path d="M178.672,187.469l-6.278,-2.662l9.088,-3.835z"></path><path d="M193.586,139.669l-4.698,2.397l7.604,-12.091z"></path><path d="M202.213,129.299l-1.602,1.981l1.369,-4.566z"></path><path d="M112.072,90.771l-40.344,9.997l34.785,-18.161z"></path><path d="M103.492,79.311l-34.75,18.142l27.48,-24.832z"></path><path d="M202.207,103.522l-0.14059,1.33032l-0.56841,1.43468l-0.24,1.677l0.27032,1.97973l-0.25832,2.44427l-40.688,-14.881z"></path><path d="M193.092,90.923l-29.49,-20.839l8.107,-5.592z"></path><path d="M92.767,69.92l-27.69,25.022l19.502,-30.703z"></path><path d="M54.674,103.264l-5.452,-8.074l24.534,-21.969z"></path><path d="M210.002,89.98l-5.568,8.094l-21.41,-26.465z"></path><path d="M80.229,61.625l-24.659,22.082l16.028,-26.732z"></path><path d="M202.522,79.661l-26.286,-17.9l8.388,-4.68z"></path><path d="M46.623,90.228l-3.864,-8.341l18.958,-16.833z"></path><path d="M215.235,76.204l-2.99,8.769l-17.292,-21.815z"></path><path d="M209.625,67.458l-19.745,-12.7l8.393,-3.33z"></path><path d="M66.77,54.791l-19.469,17.286l10.687,-20.838z"></path><path d="M40.591,75.694l-2.519,-7.893l11.859,-10.32z"></path><path d="M220.238,62.292l-3.037,8.39l-11.21,-15.829z"></path><path d="M52.228,49.757l-12.295,10.698l3.882,-12.369z"></path><path d="M217.125,55.793l-11.672,-6.094l7.152,-1.453z"></path><path d="M35.315,60.743l-2.699,-6.597l5.919,-3.663z"></path><path d="M225.129,49.255l-2.66,7.052l-4.707,-7.86z"></path><path d="M232.05187,40.59883c-2.01522,-1.2955 -4.31832,-1.87127 -6.62143,-2.01522c-9.06847,-0.86366 -17.993,0.28789 -26.62965,2.73494c-15.6899,4.46226 -29.50853,12.81102 -42.60743,22.45527c-9.35636,6.76537 -17.12934,15.11412 -22.16738,25.76598c-0.28789,-0.57578 -0.57578,-1.2955 -1.00761,-1.72733c-0.71972,-1.2955 -0.71972,-2.01522 0.43183,-3.16677c2.59099,-2.44705 3.02282,-6.33354 1.15155,-9.35636c-0.71972,-1.00761 -0.71972,-1.87127 -0.28789,-3.02282c2.01522,-5.90171 4.46226,-11.65947 7.1972,-17.41723c4.75015,-9.64425 10.65186,-18.42484 19.00061,-25.47809c4.75015,-4.03043 9.78819,-6.90931 16.12173,-7.48509c5.03804,-0.43183 8.63664,2.3031 10.07608,7.34115c1.2955,4.75015 0.43183,7.1972 -4.46226,9.93214c-2.15916,1.15155 -4.31832,0.28789 -6.33354,-0.71972c-1.43944,-0.86366 -1.43944,-2.44705 -1.43944,-4.03043c0.57578,0.28789 1.00761,0.43183 1.43944,0.57578c1.87127,0.71972 3.88649,0 4.75015,-1.72733c0.86366,-1.72733 0.43183,-3.74254 -1.00761,-5.03804c-1.58338,-1.15155 -3.5986,-1.00761 -5.03804,0.28789c-2.3031,2.15916 -3.02282,6.18959 -1.72733,9.21242c1.00761,2.44705 3.5986,3.5986 7.05326,3.45466c0.71972,0 1.58338,-0.14394 2.3031,-0.28789c3.88649,-0.86366 7.77298,-5.61382 7.1972,-9.50031c-0.43183,-3.31071 -1.87127,-6.33354 -4.03043,-8.78059c-1.15155,-1.2955 -2.44705,-2.15916 -4.17438,-2.3031c-4.31832,-0.28789 -8.63664,-0.28789 -12.66707,1.43944c-5.61382,2.44705 -10.50791,5.90171 -14.3944,10.65186c-9.64425,11.65947 -18.13695,23.89471 -22.02344,38.86489c-0.28789,0.86366 -0.43183,1.15155 -1.43944,0.71972c-1.87127,-0.71972 -3.74254,-0.71972 -5.61382,0c-1.15155,0.43183 -1.2955,0 -1.43944,-0.86366c-0.57578,-2.15916 -1.15155,-4.17438 -2.01522,-6.33354c-3.16677,-8.92453 -8.34875,-16.84145 -13.81863,-24.47049c-3.88649,-5.61382 -8.4927,-11.08369 -14.53835,-15.25807c-5.46987,-3.5986 -11.22763,-5.18199 -17.70512,-4.60621c-1.00761,0.14394 -2.01522,0.43183 -2.87888,0.86366c-4.60621,2.59099 -6.90931,10.36397 -4.60621,14.97018c2.15916,4.46226 7.91692,6.47748 12.52313,4.46226c1.00761,-0.43183 2.01522,-1.15155 2.44705,-2.3031c1.43944,-3.16677 1.43944,-6.90931 -1.43944,-9.78819c-1.43944,-1.43944 -3.45466,-1.58338 -5.03804,-0.43183c-1.58338,1.15155 -2.01522,3.31071 -1.15155,4.8941c0.86366,1.72733 2.87888,2.44705 4.75015,1.72733c0.43183,-0.14394 0.86366,-0.71972 1.43944,-0.43183c0,2.3031 -0.28789,3.16677 -1.2955,3.88649c-3.88649,2.73494 -10.50791,0 -11.37158,-4.60621c-1.15155,-6.47748 4.46226,-12.52313 10.93975,-11.80341c4.31832,0.57578 8.4927,1.87127 12.0913,4.46226c4.03043,3.02282 7.77298,6.33354 11.08369,10.07608c9.06847,10.93975 14.53835,23.75077 19.14456,36.84967c0.14394,0.57578 0,1.15155 -0.28789,1.58338c-2.44705,3.88649 -1.87127,7.34115 1.43944,10.36397c0.57578,0.43183 0.71972,0.86366 0.28789,1.43944c-0.57578,0.86366 -1.00761,1.72733 -1.43944,2.73494c-3.16677,-6.62143 -7.1972,-12.23524 -12.23524,-17.27328c-11.94735,-11.65947 -26.05387,-20.15216 -41.16799,-26.91753c-10.93975,-4.8941 -22.31132,-7.34115 -34.40262,-7.05326c-3.31071,0.14394 -6.62143,0.43183 -9.64425,2.01522c-4.17438,2.3031 -5.75776,6.47748 -3.74254,10.7958c4.46226,9.93214 8.78059,19.86428 11.65947,30.37219c0.86366,3.31071 1.58338,6.76537 3.31071,9.93214c3.16677,5.75776 6.18959,11.37158 11.08369,15.83384c1.15155,1.00761 1.2955,1.87127 0.43183,3.31071c-3.45466,6.47748 -5.18199,13.38679 -3.02282,20.72794c2.44705,8.06087 6.90931,14.82624 15.6899,17.41723c2.3031,0.71972 4.60621,0.86366 7.05326,1.00761c0.14394,0.71972 -0.28789,1.15155 -0.43183,1.72733c-1.58338,4.31832 -3.5986,8.63664 -4.03043,13.24285c-0.71972,9.21242 0.86366,18.28089 5.03804,26.62965c0.71972,1.43944 1.72733,2.73494 2.87888,3.88649c3.74254,3.74254 7.05326,4.46226 11.94735,2.44705c1.43944,-0.57578 2.87888,-1.43944 4.31832,-2.3031c3.74254,-2.3031 7.34115,-4.75015 10.50791,-7.77298c15.97779,-14.3944 24.47049,-33.10713 26.62965,-54.84268c0.14394,-1.00761 -0.14394,-2.01522 0.43183,-3.02282c0.71972,0.43183 0.57578,1.15155 0.57578,1.58338c0.86366,6.76537 1.87127,13.38679 2.3031,20.15216c0,0.57578 -0.14394,1.43944 0.71972,1.43944c0.86366,0 0.71972,-0.86366 0.71972,-1.43944c0.43183,-5.03804 1.00761,-10.07608 1.72733,-15.11412c0.28789,-2.3031 0.43183,-4.60621 1.00761,-6.76537c0.71972,0.28789 0.57578,0.86366 0.57578,1.2955c0.14394,9.50031 2.73494,18.42484 6.18959,27.20542c6.33354,15.6899 16.40962,28.35697 30.80402,37.2815c2.01522,1.2955 4.17438,2.3031 6.33354,3.16677c2.59099,0.86366 5.03804,0.57578 7.34115,-0.86366c2.44705,-1.58338 4.31832,-3.74254 5.75776,-6.18959c1.87127,-3.45466 2.87888,-7.1972 3.74254,-10.93975c2.01522,-8.92453 2.01522,-17.84906 -1.87127,-26.34176c-0.57578,-1.2955 -1.00761,-2.73494 -1.58338,-4.17438c2.01522,-0.28789 3.74254,-0.43183 5.61382,-0.71972c11.22763,-1.72733 17.84906,-14.53835 17.993,-22.45527c0.14394,-5.90171 -1.2955,-11.37158 -4.03043,-16.40962c-0.57578,-1.00761 -0.43183,-1.72733 0.28789,-2.44705c1.15155,-1.15155 2.3031,-2.3031 3.31071,-3.45466c4.8941,-6.47748 9.06847,-13.24285 11.08369,-21.30372c2.73494,-11.08369 7.34115,-21.5916 12.0913,-31.95557c2.01522,-4.03043 0.71972,-8.06087 -3.16677,-10.50791z"></path></g></svg>