<svg version="1.1" xmlns="http://www.w3.org/2000/svg" xmlns:xlink="http://www.w3.org/1999/xlink" width="216" height="178.6873" viewBox="20.16,20.16,216,178.6873"><g fill="none" fill-rule="nonzero" stroke="#ff0000" stroke-width="1px" stroke-linecap="butt" stroke-linejoin="miter" stroke-miterlimit="10" stroke-dasharray="" stroke-dashoffset="0" font-family="none" font-weight="none" font-size="none" text-anchor="none" style="mix-blend-mode: normal"><path d="M138.92061,127.97613l0.11539,0.25687l0.24469,1.30164l0.91931,1.15136l2.818,-1.358z"></path><path d="M146.308,132.538l-2.641,1.273l2.381,1.845z"></path><path d="M142.82,138.619l0.747,3.79l1.399,-2.126z"></path><path d="M128.774,118.625l-3.80649,-2.74307l1.77749,0.06007l1.75077,0.35661zM126.709,101.359l0.05328,0.44551l-0.29833,0.11365z"></path><path d="M120.861,118.248l-0.109,6.025l0.72592,-0.2212l0.54308,-0.3358l1.609,-0.529l0.93972,-0.07734l2.13528,-0.65066z"></path><path d="M146.487,145.828l-1.104,1.676l1.472,1.116z"></path><path d="M115.897,129.203l-1.902,8.785l-4.64153,-3.58932l0.19853,-1.22868l0.237,-1.16l0.77799,-3.1463z"></path><path d="M134.15,121.853l1.53617,-5.37671l1.22383,0.31571l2.191,0.976l1.998,1.326l1.75,1.639l1.454,1.906l1.118,2.122l0.29941,0.90942zM140.099,101.031l0.22995,0.99426l-0.58294,0.24123z"></path><path d="M143.451,96.35l2.13361,1.05317l-1.31161,1.70783l-0.15223,0.13517z"></path><path d="M130.35471,95.46562l1.53129,0.63738l1.673,0.267l1.689,-0.131l1.611,-0.522l0.32232,-0.19718l-2.27704,7.96895l-1.40328,0.08324l-2.20501,-0.23863z"></path><path d="M151.093,157.596l0.426,-2.258l1.34784,-0.23327l0.5097,1.16756z"></path><path d="M124.73,95.113l-3.34079,7.62284l-0.42621,0.01316l-1.67507,-0.22912l-1.14703,-7.94617l1.1421,0.5703l1.65,0.382l1.694,-0.014l1.644,-0.41l0.04969,-0.02585z"></path><path d="M116.42,124.907l-4.57059,-0.2909l0.72159,-1.5411l1.362,-1.973l1.672,-1.72l0.9262,-0.67944z"></path><path d="M109.703,152.88l-4.23814,-2.33416l1.73314,-5.42784l0.07372,-0.31186l5.08328,-0.52814z"></path><path d="M145.935,88.111l3.815,-5.482l5.25454,1.40575l-1.07084,1.23696z"></path><path d="M145.859,92.721l3.4671,-1.23044l-0.1471,0.21244l-1.24657,2.04151z"></path><path d="M180.569,141.806l-1.604,-0.308l1.52408,-2.77735l0.46292,-0.41965l0.1262,-0.08078z"></path><path d="M176.995,146.442l-1.33176,0.24482l0.08876,-0.52482l0.12005,-0.34552l0.04595,-0.04348z"></path><path d="M114.307,98.254l0.38088,2.63789l-0.52788,-0.26789l-0.91589,-0.67612z"></path><path d="M182.474,157.434l-6.81649,-4.58733l-0.27523,-1.71525l5.76172,-1.06042z"></path><path d="M191.841,139.818l-6.865,1.68l0.7912,-5.5718l1.7418,-0.4192l1.24034,-0.19108z"></path><path d="M155.962,169.964l-4.815,-7.405l4.20366,-2.4373l1.10434,2.0603l1.89438,2.90517z"></path><path d="M109.794,140.201l-1.46973,0.15268l0.21173,-0.89568l0.03303,-0.20441z"></path><path d="M110.921,95.522l-0.80995,1.29082l-0.63647,-0.92842z"></path><path d="M159.813,171.923l1.41045,-2.88098l1.74855,2.21598l0.40174,0.42138z"></path><path d="M162.314,70.972l5.368,-3.703l-3.08407,8.20056l-0.87077,0.68966z"></path><path d="M153.203,79.08l5.473,-5.027l1.36851,5.0229l-0.06451,0.0511l-1.45539,1.37767z"></path><path d="M198.794,115.409l-2.69743,1.58511l-0.16333,-0.53802l1.52376,-1.79808z"></path><path d="M108.071,156.913l-4.195,7.81l-2.71047,-4.78365l2.11847,-4.09735l0.5262,-1.27583z"></path><path d="M181.701,162.121l-3.05376,2.1527l-1.38924,-4.7477l-0.12801,-0.48178z"></path><path d="M202.031,127.282l-4.11333,-0.83491l0.00933,-0.03609l-0.125,-3.17l-0.51211,-1.93763l3.99211,-2.34637z"></path><path d="M196.07,109.484l-1.94884,-0.44387l-0.03516,-1.83213l0.353,-2.372l0.07392,-0.22713l5.49708,-0.41587z"></path><path d="M200.527,131.384l-4.995,6.179l-2.31178,-3.36694l0.66878,-0.34206l1.776,-1.849l0.79967,-1.44535z"></path><path d="M166.663,175.784l-5.504,0.377l4.436,4.372z"></path><path d="M183.425,174.216l-4.51053,-0.96333l0.29009,-4.08703l4.16945,-2.93964z"></path><path d="M201.52836,109.94398l-0.06425,-0.47053l-1.30211,1.74854l1.162,0.654z"></path><path d="M182.573,178.451l-3.106,7.182l-2.50296,-4.05956l0.89196,-2.72144l0.27414,-1.34938z"></path><path d="M112.077,90.778l-4.86314,1.2184l-1.01586,-1.7824l-3.103,-4.252l-0.38104,-0.41575l3.94304,-2.72825z"></path><path d="M74.328,150.854l-0.04232,-0.06914l0.01232,-1.09886l-0.377,-1.652l-0.753,-1.517l-0.89014,-1.06457l8.54493,0.55776l0.06521,0.16081l0.18372,0.82711z"></path><path d="M173.185,64.909l3.4522,2.35085l-1.5922,0.97615l-4.15744,2.78178z"></path><path d="M103.768,79.564l-4.00013,2.76783l-0.33987,-0.37083l-4.299,-3.908l-1.19973,-0.96691l2.70773,-4.08409z"></path><path d="M100.502,169.876l-6.183,7.232l-2.98127,-3.86293l2.93527,-3.20607l1.83674,-2.39532z"></path><path d="M78.127,153.657l3.30562,-1.88983l-0.17562,1.52183l-0.49389,1.70785z"></path><path d="M73.773,141.221l2.68866,-1.68161l0.68834,0.56261l1.24292,1.42082z"></path><path d="M67.838,139.837l-2.36278,-4.82779l0.47778,0.19679l4.97,1.353l1.36056,0.49772z"></path><path d="M170.35,179.078l-0.998,4.439l5.057,2.144z"></path><path d="M209.178,91.177l-5.38,7.821l-4.68527,-2.01162l2.56827,-2.86138l2.3735,-3.49856z"></path><path d="M84.748,64.357l-1.269,2.445l5.226,0.3z"></path><path d="M92.357,71.639l-1.80607,2.72433l-0.13193,-0.10633l-4.13452,-2.96688z"></path><path d="M57.291,108.807l4.89286,-1.18419l0.12414,0.76519l-0.014,2.398l-0.412,2.362l-0.798,2.262l-1.57912,3.51104z"></path><path d="M176.236,61.761l8.388,-4.68l3.14129,3.96304l-1.99729,0.95996l-5.0766,2.791z"></path><path d="M72.441,167.002l2.138,-8.402l3.37613,4.37502l-0.73413,2.72598l-0.14046,3.66566z"></path><path d="M54.587,126.284l0.678,2.964l0.942,-1.859z"></path><path d="M58.957,131.518l-1.625,3.208l4.501,2.668z"></path><path d="M86.714,183.486l-8.281,0.86l3.807,2.504z"></path><path d="M56.577,104.535l-1.17051,-9.50161l0.46651,0.64461l0.155,0.22l3.744,5.382l1.22102,2.18633z"></path><path d="M54.611,116.766l-0.904,3.689l2.012,1.372z"></path><path d="M86.743,179.14l-2.1905,0.22758l1.07137,-0.79799zM74.009,180.463l-1.308,-8.48l4.78808,2.44041l0.04392,0.45159l1.133,4.748l0.1348,0.34216z"></path><path d="M215.235,76.204l-2.99,8.769l-3.41918,-4.31352l0.11118,-0.29248l1.627,-5.969l0.211,-0.703l0.09746,-0.29712z"></path><path d="M70.976,58.425l3.54489,5.64255l-5.10753,-2.66006z"></path><path d="M189.88,54.758l8.393,-3.33l2.98885,4.22051l-4.53185,1.49349l-1.92548,0.78346z"></path><path d="M50.872,93.559l-1.679,1.589l2.293,3.395z"></path><path d="M76.993,59.882l2.853,4.541l1.219,-2.348z"></path><path d="M45.13,87.004l1.945,4.2l1.902,-1.801z"></path><path d="M220.238,62.292l-3.037,8.39l-3.66747,-5.17862l2.07147,-5.43138l0.06594,-0.16467z"></path><path d="M205.453,49.699l7.152,-1.453l2.80636,4.68576l-2.05436,0.12724l-1.12633,0.17865z"></path><path d="M42.953,80.556l2.87652,-5.60894l0.09448,0.29594l0.188,0.638l1.518,5.641l1.15409,2.6697z"></path><path d="M67.788,55.203l-2.27958,4.35098l-1.87942,-0.88898l-5.36834,-2.199l0.54034,-4.898z"></path><path d="M217.762,48.447l4.707,7.86l2.66,-7.052z"></path><path d="M40.591,75.694l-2.519,-7.893l4.11838,-3.58392l1.42362,3.84092l0.215,0.623l0.13752,0.43074z"></path><path d="M52.228,49.757l-4.42864,3.8534l-0.51336,-0.1144l-4.9657,-0.64751l1.4947,-4.76249zM39.933,60.455l0.35894,-1.14366l0.2512,0.61277z"></path><path d="M35.315,60.743l-2.699,-6.597l5.919,-3.663z"></path><path d="M232.05187,40.59883c-2.01522,-1.2955 -4.31832,-1.87127 -6.62143,-2.01522c-9.06847,-0.86366 -17.993,0.28789 -26.62965,2.73494c-15.6899,4.46226 -29.50853,12.81102 -42.60743,22.45527c-9.35636,6.76537 -17.12934,15.11412 -22.16738,25.76598c-0.28789,-0.57578 -0.57578,-1.2955 -1.00761,-1.72733c-0.71972,-1.2955 -0.71972,-2.01522 0.43183,-3.16677c2.59099,-2.44705 3.02282,-6.33354 1.15155,-9.35636c-0.71972,-1.00761 -0.71972,-1.87127 -0.28789,-3.02282c2.01522,-5.90171 4.46226,-11.65947 7.1972,-17.41723c4.75015,-9.64425 10.65186,-18.42484 19.00061,-25.47809c4.75015,-4.03043 9.78819,-6.90931 16.12173,-7.48509c5.03804,-0.43183 8.63664,2.3031 10.07608,7.34115c1.2955,4.75015 0.43183,7.1972 -4.46226,9.93214c-2.15916,1.15155 -4.31832,0.28789 -6.33354,-0.71972c-1.43944,-0.86366 -1.43944,-2.44705 -1.43944,-4.03043c0.57578,0.28789 1.00761,0.43183 1.43944,0.57578c1.87127,0.71972 3.88649,0 4.75015,-1.72733c0.86366,-1.72733 0.43183,-3.74254 -1.00761,-5.03804c-1.58338,-1.15155 -3.5986,-1.00761 -5.03804,0.28789c-2.3031,2.15916 -3.02282,6.18959 -1.72733,9.21242c1.00761,2.44705 3.5986,3.5986 7.05326,3.45466c0.71972,0 1.58338,-0.14394 2.3031,-0.28789c3.88649,-0.86366 7.77298,-5.61382 7.1972,-9.50031c-0.43183,-3.31071 -1.87127,-6.33354 -4.03043,-8.78059c-1.15155,-1.2955 -2.44705,-2.15916 -4.17438,-2.3031c-4.31832,-0.28789 -8.63664,-0.28789 -12.66707,1.43944c-5.61382,2.44705 -10.50791,5.90171 -14.3944,10.65186c-9.64425,11.65947 -18.13695,23.89471 -22.02344,38.86489c-0.28789,0.86366 -0.43183,1.15155 -1.43944,0.71972c-1.87127,-0.71972 -3.74254,-0.71972 -5.61382,0c-1.15155,0.43183 -1.2955,0 -1.43944,-0.86366c-0.57578,-2.15916 -1.15155,-4.17438 -2.01522,-6.33354c-3.16677,-8.92453 -8.34875,-16.84145 -13.81863,-24.47049c-3.88649,-5.61382 -8.4927,-11.08369 -14.53835,-15.25807c-5.46987,-3.5986 -11.22763,-5.18199 -17.70512,-4.60621c-1.00761,0.14394 -2.01522,0.43183 -2.87888,0.86366c-4.60621,2.59099 -6.90931,10.36397 -4.60621,14.97018c2.15916,4.46226 7.91692,6.47748 12.52313,4.46226c1.00761,-0.43183 2.01522,-1.15155 2.44705,-2.3031c1.43944,-3.16677 1.43944,-6.90931 -1.43944,-9.78819c-1.43944,-1.43944 -3.45466,-1.58338 -5.03804,-0.43183c-1.58338,1.15155 -2.01522,3.31071 -1.15155,4.8941c0.86366,1.72733 2.87888,2.44705 4.75015,1.72733c0.43183,-0.14394 0.86366,-0.71972 1.43944,-0.43183c0,2.3031 -0.28789,3.16677 -1.2955,3.88649c-3.88649,2.73494 -10.50791,0 -11.37158,-4.60621c-1.15155,-6.47748 4.46226,-12.52313 10.93975,-11.80341c4.31832,0.57578 8.4927,1.87127 12.0913,4.46226c4.03043,3.02282 7.77298,6.33354 11.08369,10.07608c9.06847,10.93975 14.53835,23.75077 19.14456,36.84967c0.14394,0.57578 0,1.15155 -0.28789,1.58338c-2.44705,3.88649 -1.87127,7.34115 1.43944,10.36397c0.57578,0.43183 0.71972,0.86366 0.28789,1.43944c-0.57578,0.86366 -1.00761,1.72733 -1.43944,2.73494c-3.16677,-6.62143 -7.1972,-12.23524 -12.23524,-17.27328c-11.94735,-11.65947 -26.05387,-20.15216 -41.16799,-26.91753c-10.93975,-4.8941 -22.31132,-7.34115 -34.40262,-7.05326c-3.31071,0.14394 -6.62143,0.43183 -9.64425,2.01522c-4.17438,2.3031 -5.75776,6.47748 -3.74254,10.7958c4.46226,9.93214 8.78059,19.86428 11.65947,30.37219c0.86366,3.31071 1.58338,6.76537 3.31071,9.93214c3.16677,5.75776 6.18959,11.37158 11.08369,15.83384c1.15155,1.00761 1.2955,1.87127 0.43183,3.31071c-3.45466,6.47748 -5.18199,13.38679 -3.02282,20.72794c2.44705,8.06087 6.90931,14.82624 15.6899,17.41723c2.3031,0.71972 4.60621,0.86366 7.05326,1.00761c0.14394,0.71972 -0.28789,1.15155 -0.43183,1.72733c-1.58338,4.31832 -3.5986,8.63664 -4.03043,13.24285c-0.71972,9.21242 0.86366,18.28089 5.03804,26.62965c0.71972,1.43944 1.72733,2.73494 2.87888,3.88649c3.74254,3.74254 7.05326,4.46226 11.94735,2.44705c1.43944,-0.57578 2.87888,-1.43944 4.31832,-2.3031c3.74254,-2.3031 7.34115,-4.75015 10.50791,-7.77298c15.97779,-14.3944 24.47049,-33.10713 26.62965,-54.84268c0.14394,-1.00761 -0.14394,-2.01522 0.43183,-3.02282c0.71972,0.43183 0.57578,1.15155 0.57578,1.58338c0.86366,6.76537 1.87127,13.38679 2.3031,20.15216c0,0.57578 -0.14394,1.43944 0.71972,1.43944c0.86366,0 0.71972,-0.86366 0.71972,-1.43944c0.43183,-5.03804 1.00761,-10.07608 1.72733,-15.11412c0.28789,-2.3031 0.43183,-4.60621 1.00761,-6.76537c0.71972,0.28789 0.57578,0.86366 0.57578,1.2955c0.14394,9.50031 2.73494,18.42484 6.18959,27.20542c6.33354,15.6899 16.40962,28.35697 30.80402,37.2815c2.01522,1.2955 4.17438,2.3031 6.33354,3.16677c2.59099,0.86366 5.03804,0.57578 7.34115,-0.86366c2.44705,-1.58338 4.31832,-3.74254 5.75776,-6.18959c1.87127,-3.45466 2.87888,-7.1972 3.74254,-10.93975c2.01522,-8.92453 2.01522,-17.84906 -1.87127,-26.34176c-0.57578,-1.2955 -1.00761,-2.73494 -1.58338,-4.17438c2.01522,-0.28789 3.74254,-0.43183 5.61382,-0.71972c11.22763,-1.72733 17.84906,-14.53835 17.993,-22.45527c0.14394,-5.90171 -1.2955,-11.37158 -4.03043,-16.40962c-0.57578,-1.00761 -0.43183,-1.72733 0.28789,-2.44705c1.15155,-1.15155 2.3031,-2.3031 3.31071,-3.45466c4.8941,-6.47748 9.06847,-13.24285 11.08369,-21.30372c2.73494,-11.08369 7.34115,-21.5916 12.0913,-31.95557c2.01522,-4.03043 0.71972,-8.06087 -3.16677,-10.50791z"></path></g></svg>