<svg version="1.1" xmlns="http://www.w3.org/2000/svg" xmlns:xlink="http://www.w3.org/1999/xlink" width="216" height="178.6873" viewBox="20.16,20.16,216,178.6873"><g fill="none" fill-rule="nonzero" stroke="#000000" stroke-width="1px" stroke-linecap="butt" stroke-linejoin="miter" stroke-miterlimit="10" stroke-dasharray="" stroke-dashoffset="0" font-family="none" font-weight="none" font-size="none" text-anchor="none" style="mix-blend-mode: normal"><path d="M105,153.639l-1.19568,0.94143l0.4016,-0.97373z"></path><path d="M143.692,143.045l-1.551,-7.869l4.73471,-0.71894l0.06829,1.00294l0.53119,2.89222z"></path><path d="M134.3,123.295l4.71772,-5.5641l0.08328,0.0371l0.87904,0.58338l-1.49086,8.66427l-0.14718,-0.32765l-1.035,-1.341l-1.321,-1.062l-1.43889,-0.68044z"></path><path d="M129.582,121.582l-5.01417,1.52782l-0.44719,0.0368l4.85926,-6.75439l0.8291,-0.21024l0.63924,-0.05189z"></path><path d="M143.075,125.84l0.67551,-3.92524l0.55249,0.72424l0.56013,1.06315z"></path><path d="M147.399,145.329l1.33274,-1.65325l0.41308,1.47466z"></path><path d="M144.906,130.387l1.50148,-1.79551l0.12452,0.81751l0.04926,0.72345z"></path><path d="M148.893,158.056l-3.337,-8.195l4.9977,-0.5115l0.8853,2.4845l1.15422,2.64396z"></path><path d="M119.591,122.046l-1.03501,-4.59432l1.12401,-0.56568l2.291,-0.707l2.0369,-0.2725z"></path><path d="M112.548,142.831l-2.31,5.152l-3.00939,-2.99448l0.99876,-4.22497z"></path><path d="M113.849,138.664l-4.81263,-2.30276l0.51563,-3.19124l0.237,-1.16l0.56896,-2.30095l5.47904,-0.22805z"></path><path d="M115.863,125.156l-4.33656,0.18062l0.02756,-0.08962l1.017,-2.172l1.362,-1.973l0.82562,-0.84932z"></path><path d="M136.31306,95.8939l-1.06506,0.3451l-1.689,0.131l-1.63851,-0.2615l2.30751,4.2745z"></path><path d="M126.857,95.824l-7.61,2.374l10.702,3.35z"></path><path d="M139.563,99.152l0.63009,2.92948l-1.96109,0.81152l-0.455,0.10455z"></path><path d="M106.082,160.616l-4.578,2.052l2.073,2.611z"></path><path d="M116.767,94.395l-0.037,0.062l0.163,-0.05z"></path><path d="M57.47,106.406l2.32486,-5.08507l1.35714,2.43007l0.772,2.27l0.384,2.367l-0.0067,1.1481z"></path><path d="M142.992,92.338l4.822,-6.927l1.40322,6.23681l-0.03822,0.05519l-2.96615,4.85769z"></path><path d="M151.489,161.556l3.04972,-2.94912l1.91628,3.57512l3.068,4.705l0.43166,0.54706z"></path><path d="M99.267,166.798l-1.228,5.958l3.089,-3.613z"></path><path d="M155.912,169.885l1.458,2.243l1.676,-0.066z"></path><path d="M179.348,145.026l-3.09294,-0.31183l0.28394,-0.81717l1.152,-2.103l0.11042,-0.14001z"></path><path d="M181.048,149.541l1.321,7.316l-6.94623,-5.47327l-0.07377,-0.45973l0.00245,-1.95802z"></path><path d="M92.689,177.322l-3.60134,-1.83549l1.34834,-1.25651l3.72849,-4.07248zM76.243,168.94l0.86128,-0.19291l-0.02375,0.61977z"></path><path d="M163.665,176.203l-2.369,0.093l2.691,2.652z"></path><path d="M74.17072,149.12827l0.12728,0.55773l-0.01232,1.0988l0.17832,0.2912l1.935,-0.789z"></path><path d="M74.67,164.866l5.65529,-8.57842l-1.92929,5.05042l-0.7719,2.86622z"></path><path d="M151.968,84.189l2.00734,1.03462l-1.4085,1.627z"></path><path d="M112.448,91.324l0.341,1.31l0.257,-0.433z"></path><path d="M80.163,147.374l-9.054,-4.708l4.94425,-3.46043l1.09675,0.89643l1.579,1.805l1.258,2.042l0.66592,1.64225z"></path><path d="M181.704,161.833l-3.2106,1.91495l-1.2354,-4.22195l-0.182,-0.685l-0.19384,-0.8077z"></path><path d="M183.426,174.389l-4.54512,-0.66317l0.32812,-4.62283l-0.06719,-0.71109l4.23019,-2.52291z"></path><path d="M197.985,113.954l-2.68891,0.40329l-0.61909,-2.03929l-0.25643,-1.27648z"></path><path d="M191.496,140.735l-7.587,3.872l-2.90688,-6.33808l1.96988,-1.26092l2.206,-0.94l0.5672,-0.13651z"></path><path d="M75.896,155.157l-0.492,0.201l-0.226,0.888z"></path><path d="M86.714,183.486l-8.281,0.86l3.807,2.504z"></path><path d="M168.659,181.693l-0.609,-5.182l0.21003,0.03065l2.71097,2.35635l1.59587,1.14665z"></path><path d="M152.585,79.648l6.948,-6.382l2.92707,3.89676l-2.48007,1.96424l-2.96317,2.80493z"></path><path d="M67.271,140.08l-8.526,-9.375l1.22313,-0.00212l1.01087,1.66212l1.689,1.488l3.285,1.353l4.97,1.353l0.90544,0.33123z"></path><path d="M86.743,179.14l-2.1905,0.22758l1.07137,-0.79799zM74.009,180.463l-1.308,-8.48l4.78808,2.44041l0.04392,0.45159l1.133,4.748l0.1348,0.34216z"></path><path d="M181.482,180.972l-9.088,3.835l6.278,2.662z"></path><path d="M200.709,131.159l-5.618,6.949l-3.81025,-3.18204l0.73325,-0.11296l1.875,-0.959l1.776,-1.849l1.09058,-1.97117z"></path><path d="M202.009,127.037l-4.10337,-1.16785l-0.10363,-2.62815l-1.2434,-4.7046l4.6224,-0.6934z"></path><path d="M162.906,70.563l7.763,-5.353l1.07218,5.23661l-2.01818,1.35039l-3.82952,2.7435z"></path><path d="M56.119,126.389l0.616,-15.31l4.78358,3.09914l-0.43458,1.23186l-2.22,4.936l-0.736,3.304l0.16112,2.73532z"></path><path d="M108.84,94.612l-0.17504,-0.06955l-2.46696,-4.32845l-3.103,-4.252l-3.57389,-3.89941l6.03189,-0.07759z"></path><path d="M101.756,77.713l-6.93823,0.08917l-4.39877,-3.54517l-0.13451,-0.09652l5.45551,-1.98348z"></path><path d="M199.355,100.036l1.08,10.342l-6.08126,-4.9691l0.08526,-0.5729l0.742,-2.28l1.11,-2.126l0.50027,-0.66104z"></path><path d="M186.996,56.783l7.58981,1.23145l-3.37081,1.37155l-4.94524,2.37684z"></path><path d="M174.563,62.694l7.844,-4.376l-0.87761,6.01629l-1.16539,0.64071l-4.73899,2.9054z"></path><path d="M91.576,69.094l-5.54329,2.01545l-0.58871,-0.42245l-4.47101,-2.86925l3.33401,-3.76675z"></path><path d="M78.251,64.375l-1.06966,1.2084l-1.35839,-0.78343z"></path><path d="M54.365,102.807l-5.011,-7.422l4.17971,-2.93933l2.33929,3.23233l0.155,0.22l0.90259,1.29747z"></path><path d="M47.251,91.583l-3.803,-8.21l4.90198,-0.18551l1.25602,2.90551l1.57575,2.72557z"></path><path d="M69.612,61.225l-0.51577,0.02602l-1.57916,-0.74695l1.74992,-1.77408z"></path><path d="M73.529,58.016l0.378,2.734l3.545,-0.621z"></path><path d="M46.391,78.94l0.44474,-0.36953l0.09395,0.34914z"></path><path d="M41.208,77.63l-2.78,-8.713l5.24961,-0.67468l0.15139,0.43868l1.70858,5.35164z"></path><path d="M210.508,88.582l-6.798,5.032l0.13621,-2.68053l0.75879,-1.11847l2.475,-4.563l1.36145,-3.58141z"></path><path d="M215.399,75.724l-2.252,6.604l-2.4769,-8.2835l0.1049,-0.3495l0.87306,-2.66148z"></path><path d="M207.694,49.244l-5.417,1.1l1.609,3.135z"></path><path d="M198.028,51.525l-4.779,1.896l6.273,1.017z"></path><path d="M66.995,54.883l-3.62657,3.67526l-1.54034,-0.63096l-1.60609,-5.7853z"></path><path d="M55.802,52.373l1.00616,3.62427l-3.79202,-1.19995z"></path><path d="M220.03,62.866l-2.924,8.077l-3.82343,-4.78159l1.65465,-4.33847z"></path><path d="M36.494,56.985l-1.223,1.633l0.349,1.153z"></path><path d="M52.228,49.757l-4.42864,3.8534l-0.51336,-0.1144l-4.9657,-0.64751l1.4947,-4.76249zM39.933,60.455l0.35894,-1.14366l0.2512,0.61277z"></path><path d="M218.537,58.15l-1.96218,-0.40174l0.71113,-1.68695zM213.323,49.445l2.08845,3.48675l-2.05445,0.12725l-3.83007,0.6075z"></path><path d="M33.749,53.445l-0.874,0.541l0.209,0.347z"></path><path d="M217.762,48.447l4.707,7.86l2.66,-7.052z"></path><path d="M232.05187,40.59883c-2.01522,-1.2955 -4.31832,-1.87127 -6.62143,-2.01522c-9.06847,-0.86366 -17.993,0.28789 -26.62965,2.73494c-15.6899,4.46226 -29.50853,12.81102 -42.60743,22.45527c-9.35636,6.76537 -17.12934,15.11412 -22.16738,25.76598c-0.28789,-0.57578 -0.57578,-1.2955 -1.00761,-1.72733c-0.71972,-1.2955 -0.71972,-2.01522 0.43183,-3.16677c2.59099,-2.44705 3.02282,-6.33354 1.15155,-9.35636c-0.71972,-1.00761 -0.71972,-1.87127 -0.28789,-3.02282c2.01522,-5.90171 4.46226,-11.65947 7.1972,-17.41723c4.75015,-9.64425 10.65186,-18.42484 19.00061,-25.47809c4.75015,-4.03043 9.78819,-6.90931 16.12173,-7.48509c5.03804,-0.43183 8.63664,2.3031 10.07608,7.34115c1.2955,4.75015 0.43183,7.1972 -4.46226,9.93214c-2.15916,1.15155 -4.31832,0.28789 -6.33354,-0.71972c-1.43944,-0.86366 -1.43944,-2.44705 -1.43944,-4.03043c0.57578,0.28789 1.00761,0.43183 1.43944,0.57578c1.87127,0.71972 3.88649,0 4.75015,-1.72733c0.86366,-1.72733 0.43183,-3.74254 -1.00761,-5.03804c-1.58338,-1.15155 -3.5986,-1.00761 -5.03804,0.28789c-2.3031,2.15916 -3.02282,6.18959 -1.72733,9.21242c1.00761,2.44705 3.5986,3.5986 7.05326,3.45466c0.71972,0 1.58338,-0.14394 2.3031,-0.28789c3.88649,-0.86366 7.77298,-5.61382 7.1972,-9.50031c-0.43183,-3.31071 -1.87127,-6.33354 -4.03043,-8.78059c-1.15155,-1.2955 -2.44705,-2.15916 -4.17438,-2.3031c-4.31832,-0.28789 -8.63664,-0.28789 -12.66707,1.43944c-5.61382,2.44705 -10.50791,5.90171 -14.3944,10.65186c-9.64425,11.65947 -18.13695,23.89471 -22.02344,38.86489c-0.28789,0.86366 -0.43183,1.15155 -1.43944,0.71972c-1.87127,-0.71972 -3.74254,-0.71972 -5.61382,0c-1.15155,0.43183 -1.2955,0 -1.43944,-0.86366c-0.57578,-2.15916 -1.15155,-4.17438 -2.01522,-6.33354c-3.16677,-8.92453 -8.34875,-16.84145 -13.81863,-24.47049c-3.88649,-5.61382 -8.4927,-11.08369 -14.53835,-15.25807c-5.46987,-3.5986 -11.22763,-5.18199 -17.70512,-4.60621c-1.00761,0.14394 -2.01522,0.43183 -2.87888,0.86366c-4.60621,2.59099 -6.90931,10.36397 -4.60621,14.97018c2.15916,4.46226 7.91692,6.47748 12.52313,4.46226c1.00761,-0.43183 2.01522,-1.15155 2.44705,-2.3031c1.43944,-3.16677 1.43944,-6.90931 -1.43944,-9.78819c-1.43944,-1.43944 -3.45466,-1.58338 -5.03804,-0.43183c-1.58338,1.15155 -2.01522,3.31071 -1.15155,4.8941c0.86366,1.72733 2.87888,2.44705 4.75015,1.72733c0.43183,-0.14394 0.86366,-0.71972 1.43944,-0.43183c0,2.3031 -0.28789,3.16677 -1.2955,3.88649c-3.88649,2.73494 -10.50791,0 -11.37158,-4.60621c-1.15155,-6.47748 4.46226,-12.52313 10.93975,-11.80341c4.31832,0.57578 8.4927,1.87127 12.0913,4.46226c4.03043,3.02282 7.77298,6.33354 11.08369,10.07608c9.06847,10.93975 14.53835,23.75077 19.14456,36.84967c0.14394,0.57578 0,1.15155 -0.28789,1.58338c-2.44705,3.88649 -1.87127,7.34115 1.43944,10.36397c0.57578,0.43183 0.71972,0.86366 0.28789,1.43944c-0.57578,0.86366 -1.00761,1.72733 -1.43944,2.73494c-3.16677,-6.62143 -7.1972,-12.23524 -12.23524,-17.27328c-11.94735,-11.65947 -26.05387,-20.15216 -41.16799,-26.91753c-10.93975,-4.8941 -22.31132,-7.34115 -34.40262,-7.05326c-3.31071,0.14394 -6.62143,0.43183 -9.64425,2.01522c-4.17438,2.3031 -5.75776,6.47748 -3.74254,10.7958c4.46226,9.93214 8.78059,19.86428 11.65947,30.37219c0.86366,3.31071 1.58338,6.76537 3.31071,9.93214c3.16677,5.75776 6.18959,11.37158 11.08369,15.83384c1.15155,1.00761 1.2955,1.87127 0.43183,3.31071c-3.45466,6.47748 -5.18199,13.38679 -3.02282,20.72794c2.44705,8.06087 6.90931,14.82624 15.6899,17.41723c2.3031,0.71972 4.60621,0.86366 7.05326,1.00761c0.14394,0.71972 -0.28789,1.15155 -0.43183,1.72733c-1.58338,4.31832 -3.5986,8.63664 -4.03043,13.24285c-0.71972,9.21242 0.86366,18.28089 5.03804,26.62965c0.71972,1.43944 1.72733,2.73494 2.87888,3.88649c3.74254,3.74254 7.05326,4.46226 11.94735,2.44705c1.43944,-0.57578 2.87888,-1.43944 4.31832,-2.3031c3.74254,-2.3031 7.34115,-4.75015 10.50791,-7.77298c15.97779,-14.3944 24.47049,-33.10713 26.62965,-54.84268c0.14394,-1.00761 -0.14394,-2.01522 0.43183,-3.02282c0.71972,0.43183 0.57578,1.15155 0.57578,1.58338c0.86366,6.76537 1.87127,13.38679 2.3031,20.15216c0,0.57578 -0.14394,1.43944 0.71972,1.43944c0.86366,0 0.71972,-0.86366 0.71972,-1.43944c0.43183,-5.03804 1.00761,-10.07608 1.72733,-15.11412c0.28789,-2.3031 0.43183,-4.60621 1.00761,-6.76537c0.71972,0.28789 0.57578,0.86366 0.57578,1.2955c0.14394,9.50031 2.73494,18.42484 6.18959,27.20542c6.33354,15.6899 16.40962,28.35697 30.80402,37.2815c2.01522,1.2955 4.17438,2.3031 6.33354,3.16677c2.59099,0.86366 5.03804,0.57578 7.34115,-0.86366c2.44705,-1.58338 4.31832,-3.74254 5.75776,-6.18959c1.87127,-3.45466 2.87888,-7.1972 3.74254,-10.93975c2.01522,-8.92453 2.01522,-17.84906 -1.87127,-26.34176c-0.57578,-1.2955 -1.00761,-2.73494 -1.58338,-4.17438c2.01522,-0.28789 3.74254,-0.43183 5.61382,-0.71972c11.22763,-1.72733 17.84906,-14.53835 17.993,-22.45527c0.14394,-5.90171 -1.2955,-11.37158 -4.03043,-16.40962c-0.57578,-1.00761 -0.43183,-1.72733 0.28789,-2.44705c1.15155,-1.15155 2.3031,-2.3031 3.31071,-3.45466c4.8941,-6.47748 9.06847,-13.24285 11.08369,-21.30372c2.73494,-11.08369 7.34115,-21.5916 12.0913,-31.95557c2.01522,-4.03043 0.71972,-8.06087 -3.16677,-10.50791z"></path></g></svg>