<svg version="1.1" xmlns="http://www.w3.org/2000/svg" xmlns:xlink="http://www.w3.org/1999/xlink" width="216" height="178.6873" viewBox="20.16,20.16,216,178.6873"><g fill="none" fill-rule="nonzero" stroke="#000000" stroke-width="1px" stroke-linecap="butt" stroke-linejoin="miter" stroke-miterlimit="10" stroke-dasharray="" stroke-dashoffset="0" font-family="none" font-weight="none" font-size="none" text-anchor="none" style="mix-blend-mode: normal"><path d="M115.90532,121.63296c0.08334,0.99652 -0.73476,1.56014 -1.6362,1.12724l-3.90523,-1.8754c-0.90144,-0.4329 -1.486,-1.81426 -1.16911,-2.76272l4.49845,-13.46415c0.31689,-0.94846 0.71712,-0.90041 0.80046,0.09612z"></path><path d="M114.28618,136.64528c-0.21159,0.97736 -1.31521,1.50274 -2.20725,1.05077l-3.76788,-1.9091c-0.89203,-0.45197 -0.86956,-1.30853 0.04494,-1.71311l5.34499,-2.36467c0.9145,-0.40458 1.61741,0.16819 1.40582,1.14555z"></path><path d="M111.57803,126.26039c0.90149,0.43281 0.8885,1.27026 -0.02598,1.6749l-4.6881,2.07443c-0.91447,0.40464 -1.51997,-0.14178 -1.21099,-1.09285l0.92808,-2.85673c0.30898,-0.95107 1.51945,-1.46933 2.42093,-1.03652z"></path><path d="M110.07654,151.66786c-0.29477,0.95557 -1.57294,1.72969 -2.55634,1.54824l-0.8954,-0.16521c-0.9834,-0.18145 -1.17166,-0.96932 -0.37652,-1.57574l3.49343,-2.66431c0.79514,-0.60642 1.29551,-0.25728 1.00074,0.69829z"></path><path d="M146.10115,143.29496c-0.24759,0.14915 -0.50065,0.21494 -0.73693,0.20899c0.24364,-0.26486 0.51869,-0.47737 0.80075,-0.59864c0.85327,-0.33596 0.89609,-0.18862 0.06387,0.31272zM144.2569,142.3313c0.0466,0.70943 0.52617,1.15803 1.10733,1.17265c-0.54647,0.59408 -0.93494,1.45155 -0.89012,2.13374zM146.16498,142.90531c-0.02497,0.00983 -0.05064,0.02008 -0.077,0.03074l0.10905,-0.04412c-0.01069,0.00433 -0.02138,0.00878 -0.03205,0.01337z"></path><path d="M166.88999,126.68664c0.645,0.76418 0.29544,1.63246 -0.69912,1.73656l-19.26573,2.01659c-0.99457,0.1041 -1.32155,-0.53633 -0.65396,-1.28086l10.36066,-11.55487c0.66759,-0.74453 1.98017,-0.72489 2.62518,0.03929z"></path><path d="M109.55097,141.25899c0.89201,0.45201 0.98884,1.51038 0.19365,2.11674l-6.01224,4.58456c-0.79519,0.60636 -1.48579,0.21821 -1.38121,-0.77631l0.74665,-7.09994c0.10459,-0.99452 1.10119,-1.53702 1.9932,-1.08502z"></path><path d="M145.36207,138.56904c-0.92703,0.37498 -2.12584,-0.21241 -2.39762,-1.17477l-0.0589,-0.20856c-0.27178,-0.96236 0.45101,-2.02885 1.44558,-2.13297l11.10374,-1.1625c0.99456,-0.10413 1.06209,0.16673 0.13506,0.5417z"></path><path d="M141.01711,128.54888c-0.45827,0.51113 -1.21051,0.65393 -1.83895,0.44037l-0.14217,-0.75625l-0.694,-1.545l-1.035,-1.341l-1.27652,-1.02624c0.13885,-0.37474 0.43063,-0.69579 0.84771,-0.85985l11.57962,-4.55481c0.9306,-0.36605 1.19364,0.01246 0.52608,0.75702z"></path><path d="M105.36284,115.9561c-0.31692,0.94845 -1.48103,1.36561 -2.32822,0.83432l-4.32424,-2.71183c-0.84719,-0.53129 -0.97399,-1.75615 -0.2536,-2.44973l10.87245,-10.46772c0.72039,-0.69357 1.12386,-0.43869 0.80694,0.50976z"></path><path d="M92.72369,143.48078c-0.57435,0.81861 -2.1333,1.46243 -3.1179,1.28764l-10.04258,-1.78283c-0.98461,-0.17479 -0.99619,-0.58031 -0.02317,-0.81102l14.96792,-3.54913c0.97302,-0.23072 1.37169,0.35718 0.79735,1.17579z"></path><path d="M97.98415,147.40797c-0.09007,0.85659 -0.72303,1.20758 -1.36446,0.85299c-0.51378,-0.75475 -0.57222,-1.99446 -0.06943,-2.71148l0.76849,-1.09594c0.57413,-0.81877 1.04368,-0.64301 0.93911,0.3515zM96.31141,148.03395c0.10149,0.09452 0.20499,0.16991 0.30828,0.22701c0.0729,0.10709 0.15496,0.20441 0.24589,0.2891z"></path><path d="M127.49647,120.15878c0.45477,0.89061 -0.04699,2.07287 -1.00352,2.36451l-1.92313,0.58636l-0.93982,0.07734l-1.609,0.529l-0.19888,0.12297c-0.76492,-0.05585 -1.45268,-0.66932 -1.51983,-1.47201l-1.46357,-17.49692c-0.08336,-0.99652 0.28805,-1.10243 0.74282,-0.21182z"></path><path d="M101.63856,121.01351c0.84722,0.53124 1.38541,2.01354 1.07638,2.96459l-0.74988,2.30779c-0.30903,0.95105 -0.96707,0.96499 -1.31609,0.02787l-2.17894,-5.85053c-0.34901,-0.93712 0.14919,-1.34299 0.99641,-0.81175z"></path><path d="M132.92349,110.42096c-0.27474,0.96152 -0.66828,0.93012 -0.78707,-0.0628l-1.57184,-13.13832c-0.06193,-0.51762 0.1473,-1.0535 0.50316,-1.45743l0.81826,0.34059l1.673,0.267l1.689,-0.131l1.55465,-0.50374c0.11701,0.28156 0.14293,0.60956 0.04686,0.94578z"></path><path d="M105.71524,157.27586c0.98338,0.18157 1.49344,1.24403 1.02013,2.12493l-1.26774,2.35942c-0.47331,0.88089 -1.22682,0.80184 -1.50701,-0.1581l-0.87424,-2.99522c-0.28019,-0.95994 0.423,-1.73832 1.40638,-1.55675z"></path><path d="M100.96574,166.75808c0.28013,0.95996 -0.08956,2.68001 -0.73938,3.4401l-0.98372,1.15065c-0.64982,0.76009 -1.1065,0.53901 -0.91336,-0.44217l1.16343,-5.91032c0.19314,-0.98117 0.66641,-1.00238 0.94654,-0.04242z"></path><path d="M153.07548,110.42032c0.65476,0.75584 0.37892,1.87772 -0.55168,2.24376l-15.8816,6.24684c-0.9306,0.36604 -1.58647,-0.22944 -1.31174,-1.19096l5.42009,-18.96991c0.27473,-0.96152 1.20421,-1.16721 1.85897,-0.41137z"></path><path d="M126.21349,97.21185l1.47003,12.2923c0.11874,0.99293 -0.21734,1.09527 -0.67216,0.20469l-6.79371,-13.30267c-0.20143,-0.39443 -0.20751,-0.77124 -0.06525,-1.06089l0.7806,0.18072l1.694,-0.014l1.644,-0.41l0.00479,-0.00249c0.91083,0.24561 1.83045,1.21559 1.93769,2.11234z"></path><path d="M178.10348,143.71578c0.50926,0.86061 0.01859,1.73236 -0.98135,1.74349l-24.73625,0.27546c-0.99994,0.01114 -1.14325,-0.49367 -0.28663,-1.00961l17.89851,-10.78023c0.85662,-0.51594 2.22251,-0.17127 2.73177,0.68934z"></path><path d="M151.13127,158.24973c-0.92514,0.37964 -2.22745,-0.16687 -2.60462,-1.09301l-2.1073,-5.17443c-0.37717,-0.92614 0.24559,-1.86345 1.24553,-1.87463l21.96025,-0.24532c0.99994,-0.01117 1.07474,0.35729 0.1496,0.73693z"></path><path d="M95.20384,108.76393c-0.72042,0.69354 -2.05217,0.59569 -2.66349,-0.19569l-1.3777,-1.78348c-0.61132,-0.79138 -0.30015,-1.96875 0.62236,-2.35474l12.16499,-5.09004c0.9225,-0.38599 1.12458,-0.07844 0.40416,0.61509z"></path><path d="M81.7998,147.76938c0.9846,0.17481 1.01992,0.66403 0.07063,0.97844l-5.44485,1.80336c-0.62489,0.20697 -1.47595,0.04433 -2.13353,-0.3343l0.00595,-0.53088l-0.377,-1.652l-0.753,-1.517l-0.24192,-0.28933c0.10538,-0.00333 0.21972,0.00522 0.34213,0.02695z"></path><path d="M182.56377,157.9348c0.17761,0.9841 -0.64475,1.9615 -1.64473,1.95481l-20.04409,-0.13422c-0.99998,-0.0067 -1.07482,-0.39302 -0.14968,-0.77265l18.65845,-7.65648c0.92514,-0.37963 2.02789,0.22484 2.20551,1.20894z"></path><path d="M93.05235,175.34767c-0.19317,0.98116 -1.27729,1.50821 -2.16823,1.05409l-14.31323,-7.29553c-0.89094,-0.45412 -0.88073,-1.34174 0.02042,-1.77525l18.1244,-8.71896c0.90115,-0.43351 1.60912,0.11415 1.41595,1.09531z"></path><path d="M93.48145,151.3012c-0.16645,-0.15505 -0.38202,-0.29383 -0.62693,-0.41202c-0.05965,-0.16476 -0.1824,-0.34187 -0.37297,-0.51939zM91.94504,151.7208l-3.21407,-0.0196c-0.99998,-0.0061 -1.05067,-0.32659 -0.10138,-0.64099l1.48983,-0.49342c0.73335,-0.24288 1.90339,-0.07898 2.73511,0.3224c0.16938,0.46784 -0.16995,0.83613 -0.90949,0.83162z"></path><path d="M97.91184,131.33881c0.34908,0.93709 -0.27486,2.1049 -1.24788,2.33562l-21.53891,5.10714c-0.97302,0.23072 -1.27753,-0.28227 -0.60902,-1.02598l16.89396,-18.79419c0.66851,-0.7437 1.6861,-0.55031 2.03518,0.38678z"></path><path d="M181.23179,137.1629c0.86573,0.47055 1.49873,1.88371 1.28778,2.85381c-0.2526,0.92495 -0.98455,1.01682 -1.485,0.17101l-1.71314,-2.89544c-0.50921,-0.86064 -0.13982,-1.24373 0.73878,-0.76618zM182.50959,140.05969c0.00351,-0.01423 0.00684,-0.02855 0.00997,-0.04298c0.00443,-0.01621 0.00871,-0.03268 0.01284,-0.0494z"></path><path d="M179.234,99.121l0.84933,-0.65878c-0.79017,0.61289 -0.69434,0.7621 0.19166,0.29841l-0.937,0.49038l1.14539,1.43174c-0.6247,-0.78087 -2.03956,-0.94885 -2.82972,-0.33595l0.84933,-0.65878l-0.937,0.49038c0.886,-0.46369 1.1473,-1.70825 0.52261,-2.48912zM177.566,100.17838c0,0 0,0 0,0z"></path><path d="M152.78653,102.18741c0.27023,0.96279 -0.11423,1.1697 -0.76893,0.41381l-7.65521,-8.83844c-0.6547,-0.75589 -0.7381,-2.33253 -0.16681,-3.15328l2.66384,-3.82701c0.57129,-0.82075 1.41282,-0.6787 1.68305,0.28409z"></path><path d="M173.82391,95.55056c0.88754,0.46072 0.98452,1.53382 0.19395,2.14619l-13.20873,10.2315c-0.79057,0.61237 -1.85136,0.26195 -2.12158,-0.70084l-5.8771,-20.93981c-0.27022,-0.9628 0.3471,-1.46487 1.23464,-1.00415z"></path><path d="M111.20437,89.49683c0.56281,0.82658 0.20312,2.03916 -0.71938,2.42514l-14.68898,6.14605c-0.9225,0.38599 -1.19935,0.00835 -0.55369,-0.75528l10.49836,-12.4165c0.64566,-0.76363 1.85413,-0.70067 2.41694,0.12592z"></path><path d="M86.84349,115.27972c0.99925,0.03864 1.32998,0.82097 0.66145,1.56466l-17.7119,19.70325c-0.66853,0.74369 -1.47356,0.49674 -1.61007,-0.4939l-2.70496,-19.62945c-0.13651,-0.99064 0.72623,-1.94264 1.72548,-1.904z"></path><path d="M172.92004,164.15568c0.99998,0.00666 1.0775,0.39943 0.15505,0.78555l-14.1732,5.93254c-0.92245,0.38611 -2.39013,-0.06606 -2.93536,-0.90434l-2.78107,-4.27586c-0.54523,-0.83829 -0.09049,-1.66991 0.90949,-1.66325z"></path><path d="M167.94926,180.05737c-0.63463,0.77281 -1.98146,0.84365 -2.69366,0.14167l-3.77522,-3.72107c-0.7122,-0.70198 -0.50192,-1.79003 0.42055,-2.1761l14.57212,-6.09872c0.92247,-0.38607 1.21031,0.00067 0.57567,0.77349z"></path><path d="M188.82219,140.75893c-0.06488,-0.02723 -0.13096,-0.04965 -0.19781,-0.06747c-0.06245,-0.03643 -0.13065,-0.07037 -0.20457,-0.10139zM188.4825,142.273l-0.58601,0.29901c-0.82547,0.42119 -1.44512,0.00861 -1.34077,-0.82679c0.30551,-0.79546 1.24625,-1.27295 2.06866,-1.05375c0.71663,0.418 0.67747,1.16347 -0.14187,1.58154zM186.59432,141.53929c-0.01756,0.07115 -0.03034,0.13986 -0.0386,0.20593c-0.02259,0.05881 -0.0417,0.11936 -0.05704,0.1815z"></path><path d="M172.29128,123.73162c-0.32214,0.94669 -1.28932,1.12924 -1.93437,0.3651l-7.66181,-9.07643c-0.64505,-0.76414 -0.40373,-1.99127 0.48264,-2.45426l13.93154,-7.27705c0.88637,-0.46299 1.45059,0.02072 1.12845,0.96741z"></path><path d="M197.38256,113.7426c0.79872,0.6017 0.69423,1.6326 -0.20899,2.06179l-19.21415,9.13023c-0.90321,0.42919 -1.48426,-0.0883 -1.1621,-1.03498l6.30735,-18.53426c0.32216,-0.94668 1.44305,-1.29167 2.24177,-0.68996z"></path><path d="M88.11804,156.01775c0.99998,0.00612 1.09883,0.44579 0.19769,0.87932l-13.35646,6.42584c-0.90113,0.43354 -1.55573,-0.10205 -1.30919,-1.07119l1.11284,-4.37447c0.24654,-0.96913 1.49306,-1.93214 2.49304,-1.92602z"></path><path d="M194.46379,105.20315c0.5171,0.85592 0.23552,1.1101 -0.56316,0.50835l-4.17826,-3.148c-0.76107,-0.57341 -0.62305,-1.27388 0.2484,-1.45965c0.98776,-0.0676 2.39366,0.62439 2.88943,1.445zM190.10532,101.08015c0,0 0,0 0,0zM190.10532,101.08015c-0.04663,0.00659 -0.09148,0.01451 -0.13455,0.02369c-0.04251,0.00291 -0.08424,0.00723 -0.1251,0.013z"></path><path d="M87.76904,109.45748c0.61148,0.79126 0.22371,1.54386 -0.77555,1.5052l-10.29699,-0.39837c-0.99925,-0.03866 -1.04929,-0.39195 -0.10007,-0.70657l7.24214,-2.40049c0.94922,-0.31463 2.50991,0.162 3.12139,0.95326z"></path><path d="M83.83854,185.64806c-0.79927,0.60097 -2.43402,0.65242 -3.2695,0.1029l-0.46509,-0.3059c-0.83548,-0.54952 -0.67631,-1.20234 0.31835,-1.30564l4.3024,-0.44681c0.99465,-0.1033 1.19003,0.39438 0.39076,0.99535z"></path><path d="M183.42029,173.46104c0.00636,0.99998 -0.90867,2.38861 -1.83006,2.77726l-5.67646,2.3944c-0.92139,0.38865 -1.20813,0.00449 -0.57349,-0.76832l6.77644,-8.25177c0.63464,-0.77281 1.27563,-0.54564 1.28199,0.45434z"></path><path d="M170.86417,88.18166c0.60441,0.79667 0.3213,1.13258 -0.56622,0.67181l-15.94491,-8.27794c-0.88752,-0.46076 -1.03854,-1.59796 -0.30204,-2.2744l4.01798,-3.69027c0.7365,-0.67643 2.07742,-0.55619 2.68183,0.24048z"></path><path d="M175.00063,85.08811c0.21119,0.97745 -0.18205,1.15823 -0.78648,0.36157l-10.09028,-13.29936c-0.60443,-0.79666 -0.38561,-2.161 0.43763,-2.72869l4.49302,-3.09826c0.82325,-0.56769 1.85768,-0.15793 2.06886,0.81952z"></path><path d="M102.75929,78.63572c0.73585,0.67714 0.8261,2.11795 0.18049,2.88161l-10.36755,12.26334c-0.64561,0.76367 -1.02063,0.56464 -0.75004,-0.39806l4.99963,-17.78723c0.27059,-0.96269 1.27704,-1.24825 2.0129,-0.57111z"></path><path d="M63.92701,136.81672c0.13649,0.99064 -0.58719,1.47129 -1.44737,0.9613l-3.64328,-2.16004c-0.86018,-0.50999 -1.38839,-1.96327 -1.05642,-2.90656l3.34712,-9.51084c0.33197,-0.94329 0.80043,-0.89594 0.93693,0.0947z"></path><path d="M84.9611,178.23179c0.89095,0.4541 0.78725,1.01155 -0.20739,1.11488l-8.75542,0.90964c-0.99465,0.10334 -2.14173,-0.78163 -2.29418,-1.76995l-0.69823,-4.52675c-0.15244,-0.98831 0.58606,-1.52252 1.47701,-1.06842z"></path><path d="M186.20645,132.71262c-0.63173,0.77519 -2.14211,1.07293 -3.02076,0.59547l-4.20538,-2.28518c-0.87866,-0.47746 -0.8541,-1.38411 0.04911,-1.81331l14.56516,-6.92121c0.90321,-0.4292 1.1747,-0.0832 0.54297,0.69199z"></path><path d="M179.46594,185.63334c-0.39697,0.91783 -1.71459,1.44529 -2.63525,1.05491l-2.59538,-1.10049c-0.92066,-0.39038 -0.91998,-1.16954 0.00135,-1.55833l5.40269,-2.27985c0.92133,-0.38879 1.44569,0.14026 1.04872,1.05809z"></path><path d="M195.98839,136.99769c-0.59505,0.73603 -2.01619,1.12555 -2.94848,0.83717c-0.75208,-0.4009 -0.68295,-1.06625 0.1949,-1.39238l2.7024,-1.00398c0.9374,-0.34826 1.24611,0.08114 0.61741,0.8588zM193.0399,137.83486c0.05102,0.0272 0.10583,0.05318 0.16442,0.07775l-0.31764,-0.13324c0.04935,0.0207 0.10051,0.03918 0.15322,0.05548z"></path><path d="M201.96385,126.53404c0.08958,0.99598 -0.75829,2.34008 -1.69574,2.68821l-6.2192,2.30951c-0.93745,0.34812 -1.24317,-0.07894 -0.61144,-0.85414l6.75109,-8.28424c0.63173,-0.77519 1.35303,-0.5544 1.44261,0.44158z"></path><path d="M57.81389,111.67456c-0.09032,-0.05634 -0.18333,-0.10168 -0.27772,-0.13654c-0.07274,-0.0694 -0.15446,-0.13307 -0.24506,-0.18959zM57.42907,113.65989l-1.00314,0.80621c-0.77946,0.62645 -1.32101,0.28161 -1.08309,-0.68968l0.29832,-1.21786c0.21259,-0.86789 1.10262,-1.31319 1.89501,-1.02054c0.60844,0.58049 0.58913,1.56232 -0.1071,2.12187zM57.81389,111.67456c0,0 0,0 0,0z"></path><path d="M55.5957,125.90434c-0.33185,0.94333 -0.88676,0.91186 -1.10981,-0.06295l-0.37979,-1.65978c-0.22305,-0.97481 0.33332,-2.5761 1.11275,-3.20259l1.38228,-1.11104c0.77943,-0.62649 1.22701,-0.30965 0.89516,0.63369z"></path><path d="M74.67636,105.04579c0.99282,0.11961 1.03644,0.55388 0.08724,0.86854l-9.50319,3.15034c-0.9492,0.31466 -2.57348,-0.10842 -3.24855,-0.84618l-3.48171,-3.80499c-0.67507,-0.73775 -0.35732,-1.3559 0.6355,-1.23629z"></path><path d="M200.30392,102.75312c0.86533,0.23679 1.64596,1.27399 1.72139,2.20293l-0.52731,1.33096l-0.1885,1.31712c-0.21497,-0.00398 -0.46236,-0.18811 -0.68946,-0.56412l-2.0051,-3.32c-0.51698,-0.856 -0.06941,-1.44806 0.89512,-1.18412z"></path><path d="M197.9706,83.32664c0.8047,0.59368 0.70132,1.60615 -0.20676,2.02495l-14.81367,6.83183c-0.90808,0.41879 -2.02737,-0.13986 -2.23857,-1.1173l-4.84019,-22.40023c-0.2112,-0.97744 0.38229,-1.3612 1.187,-0.76752z"></path><path d="M80.13042,99.96293c0.63679,0.77104 0.28076,1.42247 -0.71206,1.30286l-23.32171,-2.80958c-0.99282,-0.11961 -1.84109,-1.22871 -1.69653,-2.21821l3.11578,-21.32801c0.14455,-0.9895 0.9259,-1.20796 1.56269,-0.43692z"></path><path d="M192.18261,93.43801c0.07839,-0.07782 0.1457,-0.15052 0.2022,-0.21774c0.06366,-0.05199 0.12243,-0.10451 0.17559,-0.15729zM189.14305,94.38154c0.22734,0.01029 0.49144,-0.0159 0.77216,-0.07081c0.13463,0.07282 0.34863,0.12156 0.63975,0.13474zM190.37326,93.51761l1.41249,-0.65123c0.80782,-0.37245 1.05406,-0.18742 0.59906,0.35389c-0.59273,0.4841 -1.60922,0.92216 -2.4696,1.09045c-0.32734,-0.17705 -0.18543,-0.49644 0.45805,-0.79311z"></path><path d="M92.0958,69.45487c0.8216,0.57006 1.37262,2.10282 1.10204,3.06552l-4.74867,16.89521c-0.27058,0.9627 -0.60017,0.92714 -0.65917,-0.07112l-1.29199,-21.85897c-0.059,-0.99826 0.7036,-1.42645 1.5252,-0.85639z"></path><path d="M50.42613,93.55601c-0.08276,0.56645 -0.39761,0.90154 -0.78458,0.95209c-0.22419,-0.71632 -0.27134,-1.53393 -0.06321,-2.09707l0.98533,-2.66605c0.34667,-0.93799 0.54877,-0.88648 0.4042,0.10301zM48.72053,94.12305c0.3028,0.30183 0.63202,0.42279 0.92102,0.38504c0.14923,0.4768 0.3769,0.90873 0.65993,1.19085z"></path><path d="M202.18697,96.81712c0.04602,0.99894 -0.87251,1.73396 -1.83706,1.47004l-1.74082,-0.47632c-0.96454,-0.26392 -1.30364,-1.3081 -0.67818,-2.08836l2.72619,-3.40095c0.62545,-0.78026 1.29692,-0.56158 1.34294,0.43736z"></path><path d="M208.00881,89.38855c0.8996,0.43672 1.23234,1.69726 0.66548,2.52108l-1.10557,1.60673c-0.56686,0.82382 -1.17971,0.64869 -1.22571,-0.35025l-0.12401,-2.69323c-0.046,-0.99894 0.8076,-1.56116 1.7072,-1.12444z"></path><path d="M195.22228,74.98889c0.51936,0.85456 0.23406,1.11538 -0.5706,0.52165l-16.93135,-12.49307c-0.80466,-0.59373 -0.73601,-1.67463 0.1373,-2.16179l4.80675,-2.68136c0.87331,-0.48716 2.26598,-0.11977 2.78534,0.73479z"></path><path d="M83.84598,95.82349c0.05901,0.99826 -0.51877,1.22548 -1.15557,0.45445l-21.17583,-25.63986c-0.63679,-0.77103 -0.30119,-1.7754 0.67121,-2.00872l17.82741,-4.27769c0.9724,-0.23333 2.00381,0.5316 2.06282,1.52986z"></path><path d="M76.19727,59.4534c0.88036,0.4743 0.78833,1.18195 -0.18406,1.4153l-10.37043,2.48861c-0.97239,0.23335 -1.21964,-0.2219 -0.4945,-0.9105l4.56043,-4.33061c0.72514,-0.6886 2.33065,-0.9029 3.21101,-0.4286z"></path><path d="M200.06562,73.08402c0.13019,0.99149 -0.25904,1.12846 -0.77847,0.27394l-9.8983,-16.28393c-0.51942,-0.85452 -0.10935,-2.07785 0.82015,-2.44668l5.206,-2.06572c0.9295,-0.36882 1.98919,0.25385 2.11938,1.24534z"></path><path d="M46.8474,87.33905c-0.3467,0.93798 -1.11373,0.96859 -1.53407,0.06122l-1.69065,-3.64953c-0.42034,-0.90737 -0.07237,-2.45482 0.69594,-3.0949l5.68677,-4.73768c0.76831,-0.64008 1.18992,-0.34218 0.84322,0.59579z"></path><path d="M48.63513,69.70472c0.99943,0.03364 1.23053,0.70732 0.4622,1.34737l-6.35366,5.29281c-0.76833,0.64005 -1.84073,0.32744 -2.14478,-0.62521l-1.41978,-4.44838c-0.30406,-0.95265 0.39132,-1.87167 1.39076,-1.83803z"></path><path d="M212.40166,84.51308c-0.32283,0.94646 -1.54526,1.45622 -2.44487,1.01952l-0.07457,-0.0362c-0.89961,-0.4367 -0.97523,-1.44001 -0.15124,-2.00662l2.29706,-1.57956c0.82399,-0.56661 1.32514,-0.18676 1.00232,0.7597z"></path><path d="M213.6412,73.13079c0.5779,0.81611 0.33184,2.19886 -0.49212,2.76551l-6.01616,4.1374c-0.82396,0.56665 -1.77814,0.14181 -1.90836,-0.84967l-2.63213,-20.04106c-0.13022,-0.99149 0.31746,-1.16686 0.89536,-0.35076z"></path><path d="M65.03301,54.08886c0.927,0.37507 1.12885,1.43874 0.40371,2.12734l-5.29443,5.02761c-0.72514,0.6886 -1.41946,0.37767 -1.38864,-0.62185l0.21471,-6.9629c0.03082,-0.99952 0.98864,-1.62398 1.91564,-1.24891z"></path><path d="M46.87851,64.30338c0.84275,0.53831 0.68606,1.04301 -0.31338,1.00939l-6.82426,-0.22954c-0.99943,-0.03362 -1.99872,-1.06723 -1.99856,-2.06723l0.00039,-2.548c0.00015,-1 0.84305,-1.46169 1.6858,-0.92338z"></path><path d="M213.81022,55.08102c0.96439,0.26449 1.92507,1.52897 1.92136,2.52896l-0.03316,8.94003c-0.00371,0.99999 -0.58532,1.18388 -1.16322,0.36777l-9.0714,-12.81057c-0.5779,-0.81611 -0.19141,-1.36773 0.77298,-1.10324z"></path><path d="M220.039,60.883l0.00008,-0.01998c-0.00003,0.00673 -0.00004,0.01341 -0.00004,0.02005l0.42381,0.61744c0.07921,-0.11103 0.16391,-0.28342 0.24886,-0.5181l-0.20871,0.5766l0.66782,0.97294c-0.31298,-0.45598 -0.6272,-0.60609 -0.84623,-0.48002l-0.2935,0.81086c-0.00008,0.0067 -0.00013,0.01343 -0.00016,0.0202l0.00008,-0.01998l-0.20871,0.5766c0.34035,-0.9403 0.1148,-2.70506 -0.45111,-3.52953zM221.17082,62.53194c0,0 0,0 0,0z"></path><path d="M54.39175,61.93695c-0.03087,0.99952 -0.90451,1.46076 -1.74727,0.92247l-10.15295,-6.48486c-0.84276,-0.53829 -0.72306,-1.34797 0.23941,-1.61938l10.06214,-2.83739c0.96247,-0.2714 1.89406,0.45672 1.86318,1.45624z"></path><path d="M45.75328,48.47155c0.98086,0.19472 0.99924,0.6608 0.03676,0.93216l-2.68708,0.75758c-0.85718,0.24167 -1.23613,-0.14943 -0.88288,-0.80145c0.69716,-0.69044 2.09041,-1.17472 2.98364,-0.99739zM42.22008,49.35984c-0.06839,0.06774 -0.13009,0.13746 -0.18396,0.20873l0.34776,-0.46014c-0.06597,0.08728 -0.12041,0.17132 -0.16381,0.25142z"></path><path d="M213.43092,50.04032c-0.10923,-0.20999 -0.27336,-0.40883 -0.47329,-0.58739c0.00742,-0.19 -0.0467,-0.41229 -0.17256,-0.65425zM211.77914,50.04432l-1.48728,-0.40765c-0.96443,-0.26434 -0.94887,-0.72775 0.03111,-0.92682l0.22506,-0.04572c0.74802,-0.15195 1.7649,0.21298 2.40961,0.78879c-0.01977,0.50665 -0.4771,0.78364 -1.1785,0.59139zM213.43092,50.04032c0,0 0,0 0,0z"></path><path d="M219.82993,48.67384c0.93059,0.10212 1.12317,0.67696 0.45307,1.19247c-0.65063,0.33107 -1.51471,0.19248 -2.07506,-0.27771c-0.01697,-0.60584 0.47337,-1.04081 1.23313,-0.95744zM220.13387,49.97076c0,0 0,0 0,0zM220.13387,49.97076c0.05375,-0.03443 0.10344,-0.0693 0.14913,-0.10445c0.04477,-0.02278 0.08854,-0.04779 0.13112,-0.07507zM218.20794,49.5886c0.00523,0.18682 0.05871,0.38989 0.1674,0.59902l-0.56768,-1.09225c0.09895,0.19039 0.23667,0.35594 0.40028,0.49323z"></path><path d="M223.057,54.74875c-0.2467,0.65388 -0.77017,0.90532 -1.25649,0.71622c-0.08264,-0.64704 0.14574,-1.3627 0.61408,-1.79516c0.66114,-0.28313 1.00326,0.12254 0.69241,0.94643zM221.21767,54.9721c0.17064,0.24812 0.37329,0.41139 0.58284,0.49287c0.03523,0.27587 0.12701,0.53926 0.28082,0.76292zM222.41459,53.66982c-0.08966,0.0384 -0.18519,0.08946 -0.28575,0.15387l0.50334,-0.32238c-0.07738,0.04956 -0.14998,0.10609 -0.21758,0.16851z"></path><path d="M232.05187,40.59883c-2.01522,-1.2955 -4.31832,-1.87127 -6.62143,-2.01522c-9.06847,-0.86366 -17.993,0.28789 -26.62965,2.73494c-15.6899,4.46226 -29.50853,12.81102 -42.60743,22.45527c-9.35636,6.76537 -17.12934,15.11412 -22.16738,25.76598c-0.28789,-0.57578 -0.57578,-1.2955 -1.00761,-1.72733c-0.71972,-1.2955 -0.71972,-2.01522 0.43183,-3.16677c2.59099,-2.44705 3.02282,-6.33354 1.15155,-9.35636c-0.71972,-1.00761 -0.71972,-1.87127 -0.28789,-3.02282c2.01522,-5.90171 4.46226,-11.65947 7.1972,-17.41723c4.75015,-9.64425 10.65186,-18.42484 19.00061,-25.47809c4.75015,-4.03043 9.78819,-6.90931 16.12173,-7.48509c5.03804,-0.43183 8.63664,2.3031 10.07608,7.34115c1.2955,4.75015 0.43183,7.1972 -4.46226,9.93214c-2.15916,1.15155 -4.31832,0.28789 -6.33354,-0.71972c-1.43944,-0.86366 -1.43944,-2.44705 -1.43944,-4.03043c0.57578,0.28789 1.00761,0.43183 1.43944,0.57578c1.87127,0.71972 3.88649,0 4.75015,-1.72733c0.86366,-1.72733 0.43183,-3.74254 -1.00761,-5.03804c-1.58338,-1.15155 -3.5986,-1.00761 -5.03804,0.28789c-2.3031,2.15916 -3.02282,6.18959 -1.72733,9.21242c1.00761,2.44705 3.5986,3.5986 7.05326,3.45466c0.71972,0 1.58338,-0.14394 2.3031,-0.28789c3.88649,-0.86366 7.77298,-5.61382 7.1972,-9.50031c-0.43183,-3.31071 -1.87127,-6.33354 -4.03043,-8.78059c-1.15155,-1.2955 -2.44705,-2.15916 -4.17438,-2.3031c-4.31832,-0.28789 -8.63664,-0.28789 -12.66707,1.43944c-5.61382,2.44705 -10.50791,5.90171 -14.3944,10.65186c-9.64425,11.65947 -18.13695,23.89471 -22.02344,38.86489c-0.28789,0.86366 -0.43183,1.15155 -1.43944,0.71972c-1.87127,-0.71972 -3.74254,-0.71972 -5.61382,0c-1.15155,0.43183 -1.2955,0 -1.43944,-0.86366c-0.57578,-2.15916 -1.15155,-4.17438 -2.01522,-6.33354c-3.16677,-8.92453 -8.34875,-16.84145 -13.81863,-24.47049c-3.88649,-5.61382 -8.4927,-11.08369 -14.53835,-15.25807c-5.46987,-3.5986 -11.22763,-5.18199 -17.70512,-4.60621c-1.00761,0.14394 -2.01522,0.43183 -2.87888,0.86366c-4.60621,2.59099 -6.90931,10.36397 -4.60621,14.97018c2.15916,4.46226 7.91692,6.47748 12.52313,4.46226c1.00761,-0.43183 2.01522,-1.15155 2.44705,-2.3031c1.43944,-3.16677 1.43944,-6.90931 -1.43944,-9.78819c-1.43944,-1.43944 -3.45466,-1.58338 -5.03804,-0.43183c-1.58338,1.15155 -2.01522,3.31071 -1.15155,4.8941c0.86366,1.72733 2.87888,2.44705 4.75015,1.72733c0.43183,-0.14394 0.86366,-0.71972 1.43944,-0.43183c0,2.3031 -0.28789,3.16677 -1.2955,3.88649c-3.88649,2.73494 -10.50791,0 -11.37158,-4.60621c-1.15155,-6.47748 4.46226,-12.52313 10.93975,-11.80341c4.31832,0.57578 8.4927,1.87127 12.0913,4.46226c4.03043,3.02282 7.77298,6.33354 11.08369,10.07608c9.06847,10.93975 14.53835,23.75077 19.14456,36.84967c0.14394,0.57578 0,1.15155 -0.28789,1.58338c-2.44705,3.88649 -1.87127,7.34115 1.43944,10.36397c0.57578,0.43183 0.71972,0.86366 0.28789,1.43944c-0.57578,0.86366 -1.00761,1.72733 -1.43944,2.73494c-3.16677,-6.62143 -7.1972,-12.23524 -12.23524,-17.27328c-11.94735,-11.65947 -26.05387,-20.15216 -41.16799,-26.91753c-10.93975,-4.8941 -22.31132,-7.34115 -34.40262,-7.05326c-3.31071,0.14394 -6.62143,0.43183 -9.64425,2.01522c-4.17438,2.3031 -5.75776,6.47748 -3.74254,10.7958c4.46226,9.93214 8.78059,19.86428 11.65947,30.37219c0.86366,3.31071 1.58338,6.76537 3.31071,9.93214c3.16677,5.75776 6.18959,11.37158 11.08369,15.83384c1.15155,1.00761 1.2955,1.87127 0.43183,3.31071c-3.45466,6.47748 -5.18199,13.38679 -3.02282,20.72794c2.44705,8.06087 6.90931,14.82624 15.6899,17.41723c2.3031,0.71972 4.60621,0.86366 7.05326,1.00761c0.14394,0.71972 -0.28789,1.15155 -0.43183,1.72733c-1.58338,4.31832 -3.5986,8.63664 -4.03043,13.24285c-0.71972,9.21242 0.86366,18.28089 5.03804,26.62965c0.71972,1.43944 1.72733,2.73494 2.87888,3.88649c3.74254,3.74254 7.05326,4.46226 11.94735,2.44705c1.43944,-0.57578 2.87888,-1.43944 4.31832,-2.3031c3.74254,-2.3031 7.34115,-4.75015 10.50791,-7.77298c15.97779,-14.3944 24.47049,-33.10713 26.62965,-54.84268c0.14394,-1.00761 -0.14394,-2.01522 0.43183,-3.02282c0.71972,0.43183 0.57578,1.15155 0.57578,1.58338c0.86366,6.76537 1.87127,13.38679 2.3031,20.15216c0,0.57578 -0.14394,1.43944 0.71972,1.43944c0.86366,0 0.71972,-0.86366 0.71972,-1.43944c0.43183,-5.03804 1.00761,-10.07608 1.72733,-15.11412c0.28789,-2.3031 0.43183,-4.60621 1.00761,-6.76537c0.71972,0.28789 0.57578,0.86366 0.57578,1.2955c0.14394,9.50031 2.73494,18.42484 6.18959,27.20542c6.33354,15.6899 16.40962,28.35697 30.80402,37.2815c2.01522,1.2955 4.17438,2.3031 6.33354,3.16677c2.59099,0.86366 5.03804,0.57578 7.34115,-0.86366c2.44705,-1.58338 4.31832,-3.74254 5.75776,-6.18959c1.87127,-3.45466 2.87888,-7.1972 3.74254,-10.93975c2.01522,-8.92453 2.01522,-17.84906 -1.87127,-26.34176c-0.57578,-1.2955 -1.00761,-2.73494 -1.58338,-4.17438c2.01522,-0.28789 3.74254,-0.43183 5.61382,-0.71972c11.22763,-1.72733 17.84906,-14.53835 17.993,-22.45527c0.14394,-5.90171 -1.2955,-11.37158 -4.03043,-16.40962c-0.57578,-1.00761 -0.43183,-1.72733 0.28789,-2.44705c1.15155,-1.15155 2.3031,-2.3031 3.31071,-3.45466c4.8941,-6.47748 9.06847,-13.24285 11.08369,-21.30372c2.73494,-11.08369 7.34115,-21.5916 12.0913,-31.95557c2.01522,-4.03043 0.71972,-8.06087 -3.16677,-10.50791z"></path></g></svg>