<svg version="1.1" xmlns="http://www.w3.org/2000/svg" xmlns:xlink="http://www.w3.org/1999/xlink" width="216" height="178.6873" viewBox="20.16,20.16,216,178.6873"><g fill="none" fill-rule="nonzero" stroke="#ff0000" stroke-width="1px" stroke-linecap="butt" stroke-linejoin="miter" stroke-miterlimit="10" stroke-dasharray="" stroke-dashoffset="0" font-family="none" font-weight="none" font-size="none" text-anchor="none" style="mix-blend-mode: normal"><path d="M110.0012,151.91276c-0.2946,0.95562 -1.58832,1.86937 -2.58744,1.8275l-3.11451,-0.13052c-0.99912,-0.04187 -1.17742,-0.65492 -0.35659,-1.22609l5.88669,-4.09629c0.82083,-0.57118 1.34705,-0.18673 1.05246,0.76889z"></path><path d="M148.77122,154.7632c-0.09619,-0.06361 -0.18736,-0.1149 -0.27282,-0.15445c-0.06308,-0.05877 -0.13066,-0.11238 -0.20261,-0.15995zM149.10532,156.29338c0.24919,-0.06562 0.4927,-0.23442 0.69235,-0.51097l-1.00432,1.39118c0.18293,-0.25339 0.28439,-0.56066 0.31198,-0.88021zM147.87297,155.55158l-0.01594,-0.03917c-0.33354,-0.8194 -0.01425,-1.20708 0.64137,-0.90367c0.43967,0.40963 0.66,1.06987 0.60692,1.68463c-0.48138,0.12677 -0.98393,-0.1315 -1.23234,-0.74179z"></path><path d="M155.6234,141.64796c0.9373,0.34852 0.89986,0.92038 -0.07488,1.14372l-9.44304,2.16365c-0.97474,0.22334 -2.14283,-0.53445 -2.33617,-1.51558l-0.93162,-4.72748c-0.19335,-0.98113 0.55061,-1.61374 1.48791,-1.26522z"></path><path d="M154.14641,150.78605c-0.70221,0.71197 -2.23851,0.87233 -3.0726,0.32071l-1.54161,-1.01953c-0.8341,-0.55162 -0.69345,-1.32659 0.28128,-1.54993l6.51405,-1.49261c0.97474,-0.22335 1.24727,0.26528 0.54507,0.97725z"></path><path d="M137.54176,113.09238c-0.65938,0.75181 -1.04399,0.54211 -0.76922,-0.4194l4.65491,-16.28896c0.27477,-0.96151 1.54775,-1.98284 2.54596,-2.04265l8.57316,-0.51373c0.99821,-0.05982 1.33704,0.63218 0.67766,1.38399z"></path><path d="M178.15124,148.53855c0.96688,0.25522 1.60827,1.45599 1.28277,2.40153l-2.81001,8.16283c-0.3255,0.94554 -1.07768,0.98668 -1.50436,0.08228l-5.31528,-11.26639c-0.42668,-0.9044 0.11352,-1.55358 1.0804,-1.29836z"></path><path d="M113.87392,138.55023c-0.21146,0.97739 -1.24383,2.52583 -2.06474,3.09688l-3.21835,2.23879c-0.82091,0.57105 -1.01428,0.36353 -0.38673,-0.41505l5.0398,-6.25269c0.62755,-0.77858 1.04364,-0.57977 0.83218,0.39762z"></path><path d="M128.56068,119.80981c0.20816,0.97809 -0.54022,2.24778 -1.49676,2.53937l-2.49488,0.76054l-0.93904,0.07728l-0.98266,0.32307c-0.56815,-0.13878 -0.91457,-0.69389 -0.7561,-1.40292l3.23053,-14.45431c0.21812,-0.97592 0.6444,-0.97375 0.85256,0.00434z"></path><path d="M81.3543,151.52115c0.91785,0.39692 0.83843,0.72001 -0.15884,0.64617l-4.35792,-0.32265c-0.77197,-0.05716 -1.85667,-0.62543 -2.54945,-1.27494l0.00991,-0.88374l-0.30537,-1.33811c0.06266,0.02034 0.1284,0.04526 0.19707,0.07495z"></path><path d="M105.34874,157.97749c0.99913,0.04175 1.50143,0.95136 1.00461,1.81921l-0.98271,1.71659c-0.49682,0.86785 -1.59365,0.9357 -2.19365,0.1357l-1.713,-2.284c-0.6,-0.8 -0.20087,-1.55825 0.79826,-1.51649z"></path><path d="M132.7994,110.85394c-0.2747,0.96153 -0.68493,0.93229 -0.82046,-0.05849l-1.71589,-12.54391c-0.12256,-0.896 0.56203,-1.92376 1.42408,-2.23132l0.19886,0.08278l1.673,0.267l1.689,-0.131l1.30362,-0.4224c0.24279,0.29866 0.33751,0.7221 0.20598,1.18246z"></path><path d="M173.25751,141.83842c0.74525,0.66679 0.52361,1.07835 -0.44327,0.82312l-1.44748,-0.38209c-0.69282,-0.18288 -1.00417,-0.70944 -0.85167,-1.2395c0.76267,-0.24008 1.72308,-0.11355 2.2754,0.38062zM170.91892,140.43032c-0.21059,0.18972 -0.3435,0.39995 -0.40382,0.60963c-0.2664,0.08386 -0.50867,0.21245 -0.70101,0.38572z"></path><path d="M164.33024,138.52377c0.69427,0.08329 1.02531,0.49389 0.90765,0.96221c-0.81978,0.3277 -1.88783,0.42625 -2.56645,0.17387l-3.42487,-1.27371c-0.93728,-0.34857 -0.88168,-0.57803 0.1112,-0.45892zM165.23789,139.48598c0.31246,-0.1249 0.58885,-0.2831 0.79386,-0.46784l-1.20151,1.08271c0.22342,-0.20133 0.35704,-0.41344 0.40764,-0.61488z"></path><path d="M139.97431,127.52306c-0.20562,0.43338 -0.55477,0.68692 -0.9313,0.74718l-0.007,-0.03724l-0.694,-1.545l-1.035,-1.341l-1.321,-1.062l-0.82681,-0.39099c-0.12148,-0.73855 0.0415,-1.58029 0.47857,-2.07863l14.02748,-15.99376c0.65938,-0.75181 0.89011,-0.60015 0.46146,0.30332z"></path><path d="M121.18898,96.3288c0.94551,0.3256 1.67296,1.62713 1.4549,2.60307l-2.69377,12.05626c-0.21806,0.97594 -0.5195,0.95536 -0.60289,-0.04116l-1.14744,-13.71193c-0.08339,-0.99652 0.77873,-1.66744 1.72424,-1.34184z"></path><path d="M152.08913,162.53573c0.13085,0.79238 -0.08984,1.04399 -0.46414,0.67807c-0.18321,-0.47072 -0.24251,-1.06972 -0.18185,-1.63415c0.29874,0.04682 0.54443,0.3411 0.62973,0.85763zM151.62499,163.2138c0.05057,0.12992 0.11057,0.25006 0.1801,0.35702l-0.48018,-0.73863c0.10731,0.16508 0.20831,0.2919 0.30008,0.38161zM151.8854,160.27222c-0.24007,0.33266 -0.38842,0.80643 -0.44226,1.30742c-0.27189,-0.04261 -0.58771,0.11976 -0.86654,0.50613z"></path><path d="M167.92968,132.72605c0.24716,0.96897 -0.49856,1.81884 -1.49144,1.69973l-21.62748,-2.59455c-0.99288,-0.11911 -1.55711,-1.14169 -1.12845,-2.04516l14.42439,-30.40212c0.42865,-0.90347 1.10447,-0.83796 1.35163,0.13101z"></path><path d="M170.8017,160.15616c0.42665,0.90442 -0.03958,1.35853 -0.93245,0.90823l-11.4325,-5.76578c-0.89287,-0.45031 -1.08352,-1.61256 -0.38128,-2.32451l4.92607,-4.99421c0.70223,-0.71195 1.83111,-0.51948 2.25776,0.38494z"></path><path d="M197.2715,114.59285c0.87475,0.48457 0.92465,1.5345 0.09981,2.09986l-23.09661,15.83058c-0.82485,0.56536 -1.89684,0.16173 -2.14399,-0.80724l-8.72841,-34.22109c-0.24715,-0.96898 0.38046,-1.45338 1.25521,-0.96881z"></path><path d="M100.2671,167.24023c0.50795,0.86139 0.36601,2.48279 -0.28389,3.24282l-1.89141,2.21191c-0.6499,0.76002 -1.23743,0.52199 -1.17507,-0.47606l0.47755,-7.64279c0.06236,-0.99805 0.63268,-1.13472 1.14063,-0.27334z"></path><path d="M96.40612,151.22387c-0.62756,0.77857 -2.17298,1.16021 -3.09083,0.76329l-18.27359,-7.90232c-0.91785,-0.39692 -0.87921,-1.08558 0.07729,-1.37731l35.41601,-10.80205c0.9565,-0.29174 1.28543,0.19509 0.65787,0.97366z"></path><path d="M92.40672,175.11889c-0.06236,0.99805 -1.01565,1.54198 -1.90659,1.08785l-13.97126,-7.12148c-0.89094,-0.45413 -0.88451,-1.34956 0.01285,-1.79086l15.07756,-7.4148c0.89736,-0.4413 1.73236,0.11545 1.67,1.11351z"></path><path d="M169.15028,165.54033c0.89286,0.45034 0.8508,1.25554 -0.08412,1.6104l-9.26733,3.51755c-0.93492,0.35486 -2.0329,-0.27689 -2.19596,-1.26351l-1.42076,-8.59654c-0.16306,-0.98662 0.56674,-1.5229 1.4596,-1.07256z"></path><path d="M153.36728,87.93068c0.69536,0.71866 0.39251,1.49709 -0.6057,1.55687l-6.12715,0.3669c-0.99821,0.05977 -1.42521,-0.70125 -0.85399,-1.52205l2.19413,-3.15281c0.57122,-0.8208 1.8378,-0.92294 2.53316,-0.20428z"></path><path d="M108.10664,127.10006c0.97618,0.21697 0.99586,0.72567 0.03936,1.01741l-37.436,11.41806c-0.9565,0.29173 -2.02885,-0.4098 -2.14469,-1.40307l-2.14161,-18.36193c-0.11585,-0.99327 0.74448,-1.76957 1.72066,-1.5526z"></path><path d="M168.20438,174.75566c-0.56269,0.82667 -2.05192,1.27713 -2.97846,0.90093l-1.23685,-0.5022c-0.92654,-0.3762 -0.91816,-1.10727 0.01676,-1.46213l4.76733,-1.80953c0.93492,-0.35487 1.30714,0.11694 0.74445,0.9436z"></path><path d="M182.73969,158.90781c0.16079,0.89067 -0.41013,2.14961 -1.18222,2.71391c-0.72279,0.21745 -1.13865,-0.26775 -0.84945,-1.1078l0.87196,-2.53285c0.32551,-0.94554 0.82868,-0.90698 1.00633,0.07711zM181.55747,161.62172c0.09076,-0.02731 0.18637,-0.06569 0.28602,-0.11585l-0.53499,0.26926c0.0848,-0.04268 0.16799,-0.09422 0.24897,-0.15341z"></path><path d="M115.97533,122.46796c0.08334,0.99652 -0.8095,1.77607 -1.78568,1.5591l-41.64829,-9.25711c-0.97618,-0.21697 -1.03739,-0.83748 -0.12243,-1.24102l39.45615,-17.40185c0.91496,-0.40354 1.91326,0.18945 1.9966,1.18597z"></path><path d="M179.68716,173.8849c-0.00715,-0.00739 -0.01438,-0.0147 -0.02169,-0.02195c-0.00774,-0.0083 -0.01562,-0.01659 -0.02362,-0.02486zM179.04794,175.519l-2.74988,0.33801c-0.99253,0.122 -1.24808,-0.43192 -0.51111,-1.10784l1.03509,-0.94933c0.7294,-0.66897 2.14015,-0.63418 2.84342,0.06312c0.66502,0.71285 0.36358,1.53545 -0.61753,1.65604z"></path><path d="M85.72547,156.83517c0.99726,0.07391 1.09716,0.58911 0.19979,1.03039l-10.96053,5.38987c-0.89737,0.44128 -1.54817,-0.08656 -1.3016,-1.05568l1.06973,-4.2045c0.24657,-0.96913 1.4904,-1.86434 2.48767,-1.79042z"></path><path d="M68.19592,110.66992c-0.91496,0.40354 -1.69262,-0.18345 -1.55532,-1.17397l1.55579,-11.22388c0.1373,-0.99053 1.2737,-2.02361 2.27279,-2.06616l31.78562,-1.35379c0.99909,-0.04255 1.08323,0.31844 0.16827,0.72198z"></path><path d="M186.58987,141.90529c0.98657,0.16336 1.08244,0.78132 0.19175,1.23592l-1.77822,0.90759c-0.89069,0.4546 -2.52655,0.24232 -3.27171,-0.42456l-1.96935,-1.76247c-0.74516,-0.66688 -0.50376,-1.17041 0.48281,-1.00705z"></path><path d="M157.54968,80.08814c-0.00966,0.81556 -0.31032,1.03291 -0.65821,0.59744c-0.18296,-0.6812 -0.15105,-1.59823 0.06477,-2.32576c0.34962,-0.1595 0.61229,0.13648 0.60408,0.83004zM156.6511,80.28952c0.08066,0.16581 0.16172,0.29762 0.24037,0.39607c0.0383,0.1426 0.08602,0.27487 0.14344,0.3929zM157.28613,77.62718c-0.13612,0.19979 -0.24668,0.45213 -0.32989,0.73264c-0.15444,0.07046 -0.32585,0.22979 -0.49837,0.483z"></path><path d="M83.83854,185.64806c-0.79927,0.60097 -2.43402,0.65242 -3.2695,0.1029l-0.46509,-0.3059c-0.83548,-0.54952 -0.67631,-1.20234 0.31835,-1.30564l4.3024,-0.44681c0.99465,-0.1033 1.19003,0.39438 0.39076,0.99535z"></path><path d="M179.83712,184.77542c-0.39706,0.91779 -1.52208,1.14996 -2.25003,0.46433l-3.41719,-3.21849c-0.72795,-0.68563 -0.46337,-1.49321 0.52916,-1.61517l5.43786,-0.66817c0.99254,-0.12196 1.58801,0.67388 1.19095,1.59167z"></path><path d="M177.94801,75.14171c0.9875,0.15765 1.13631,0.85992 0.29764,1.40455l-14.78229,9.59948c-0.83868,0.54463 -1.66561,0.08933 -1.65387,-0.9106l0.12503,-10.64628c0.01174,-0.99993 1.01098,-1.84221 1.99848,-1.68457z"></path><path d="M110.32127,88.1999c0.56286,0.82655 0.12606,1.62731 -0.87361,1.60151l-24.99133,-0.64483c-0.99967,-0.02579 -1.03762,-0.32564 -0.07591,-0.5997l20.00514,-5.70078c0.96171,-0.27406 2.48629,0.27844 3.04916,1.10499z"></path><path d="M64.06927,136.87047c0.11587,0.99326 -0.62847,1.47658 -1.48867,0.96663l-3.61018,-2.1402c-0.8602,-0.50995 -1.31139,-1.93242 -0.90236,-2.84495l3.57191,-7.9689c0.40902,-0.91252 0.93391,-0.83178 1.04978,0.16148z"></path><path d="M55.97612,126.95698c-0.40906,0.91251 -1.04106,0.85018 -1.264,-0.12465l-0.53324,-2.33167c-0.22294,-0.97483 0.44399,-2.40589 1.33385,-2.86211l1.91754,-0.9831c0.88986,-0.45622 1.37067,0.00006 0.96161,0.91257z"></path><path d="M84.9611,178.23179c0.89095,0.4541 0.78725,1.01155 -0.20739,1.11488l-8.75542,0.90964c-0.99465,0.10334 -2.14173,-0.78163 -2.29418,-1.76995l-0.69823,-4.52675c-0.15244,-0.98831 0.58606,-1.52252 1.47701,-1.06842z"></path><path d="M101.44638,77.42862c0.73581,0.67719 0.50989,1.62839 -0.45184,1.90239l-20.32209,5.78997c-0.96173,0.27401 -1.12665,-0.05622 -0.32984,-0.66045l14.16576,-10.74208c0.79681,-0.60423 2.32943,-0.53127 3.06524,0.14592z"></path><path d="M169.301,183.371l0.31981,-1.85492c-0.16991,0.98546 0.58169,2.35929 1.50319,2.74767l-1.582,-0.66675l1.21789,1.14208c-0.72944,-0.68404 -1.62879,-0.38262 -1.7987,0.60284l0.31981,-1.85492l-1.582,-0.66675c0.9215,0.38837 1.11356,0.0927 0.38412,-0.59134zM170.75989,184.73908c0,0 0,0 0,0z"></path><path d="M194.44135,136.81524c-0.28717,0.95788 -1.56092,1.75245 -2.5475,1.58913l-12.9747,-2.14775c-0.98657,-0.16331 -1.14829,-0.89196 -0.32343,-1.45731l19.05457,-13.05964c0.82486,-0.56534 1.36254,-0.1728 1.07537,0.78507z"></path><path d="M202.15954,128.70592c-0.02753,-0.30541 -0.08206,-0.52075 -0.15273,-0.64492c0.03564,-0.27647 0.04646,-0.53414 0.02665,-0.75393zM201.36846,130.18114c0.13068,-0.05984 0.30101,-0.21002 0.50015,-0.45627l-0.91321,1.12926c0.14462,-0.17884 0.2845,-0.41036 0.41307,-0.67299zM201.18539,129.36426l0.22022,-0.73451c0.19913,-0.66414 0.44141,-0.84949 0.6012,-0.56874c-0.08872,0.68817 -0.33129,1.49287 -0.63835,2.12013c-0.28196,0.12911 -0.37931,-0.16236 -0.18307,-0.81688z"></path><path d="M62.37762,108.78394c-0.13731,0.99053 -1.02849,1.32403 -1.78236,0.66701l-1.27352,-1.10991c-0.75387,-0.65702 -0.83395,-2.05297 -0.16016,-2.79189l2.97384,-3.26131c0.67379,-0.73892 1.21027,-0.48732 1.07296,0.50321z"></path><path d="M58.36333,113.23588c0.75384,0.65706 0.61774,1.77022 -0.27218,2.22632l-1.83528,0.9406c-0.88993,0.4561 -1.54182,-0.05906 -1.30378,-1.03031l0.55584,-2.26798c0.23804,-0.97126 1.22991,-1.28545 1.98375,-0.62839z"></path><path d="M56.33058,102.24316c-0.67379,0.73892 -1.90722,0.6491 -2.46685,-0.17964l-2.38446,-3.53104c-0.55964,-0.82874 -0.11975,-1.6885 0.87977,-1.71951l7.18392,-0.22293c0.99952,-0.03102 1.32525,0.67689 0.65145,1.41581z"></path><path d="M197.6044,108.48009c0.4158,0.90946 -0.04316,1.33435 -0.91791,0.84978l-29.21898,-16.18573c-0.87475,-0.48457 -0.77036,-1.17229 0.20878,-1.37545l18.39842,-3.81737c0.97915,-0.20316 2.37409,0.50314 2.78989,1.4126z"></path><path d="M200.96796,100.95599c0.67752,0.73551 1.24988,2.46547 1.14473,3.45992l-0.04609,0.43592l-0.495,1.2494c-0.18606,-0.00262 -0.40143,-0.21051 -0.5942,-0.63214l-3.25579,-7.12118c-0.4158,-0.90946 -0.15409,-1.0834 0.52343,-0.3479z"></path><path d="M204.02916,76.99178c0.99942,0.03411 1.05281,0.39231 0.10678,0.7164l-11.57589,3.96565c-0.94603,0.32409 -2.19624,-0.30444 -2.50042,-1.25705l-0.65126,-2.03955c-0.30418,-0.95261 0.39105,-1.87112 1.39047,-1.837z"></path><path d="M185.88556,81.5468c0.30422,0.9526 -0.3707,2.10839 -1.34984,2.31158l-12.17844,2.52724c-0.97914,0.20319 -1.11959,-0.13823 -0.2809,-0.68284l10.85924,-7.05156c0.83869,-0.54461 1.9816,-0.13662 2.28581,0.81598z"></path><path d="M177.62659,69.59323c0.73471,0.67839 0.48191,1.19916 -0.50559,1.04155l-9.652,-1.54054c-0.9875,-0.15761 -1.15183,-0.88301 -0.32865,-1.4508l3.1473,-2.17085c0.82318,-0.56779 2.38106,-0.45719 3.11576,0.2212z"></path><path d="M90.91474,68.63496c0.82163,0.57002 0.84647,1.74428 0.04967,2.34853l-14.63581,11.09901c-0.7968,0.60425 -1.12681,0.32413 -0.66002,-0.56024l8.13185,-15.40652c0.46679,-0.88437 1.75521,-1.19872 2.57684,-0.6287z"></path><path d="M64.44381,87.41315c0.39209,0.91992 -0.20002,2.01688 -1.18422,2.19391l-10.60118,1.90687c-0.98421,0.17703 -1.45228,-0.50244 -0.93614,-1.35895l7.10346,-11.78797c0.51613,-0.85651 1.42436,-0.79309 1.81646,0.12683z"></path><path d="M69.41864,84.10829c-0.46682,0.88435 -1.32568,0.84876 -1.71773,-0.07119l-3.91182,-9.17922c-0.39204,-0.91995 0.12727,-2.2515 1.03863,-2.66311l12.46255,-5.62857c0.91136,-0.41161 1.35591,0.06114 0.88909,0.94549z"></path><path d="M183.42334,67.12501c0.03183,0.99949 -0.67103,1.32058 -1.40571,0.64217l-4.76325,-4.39837c-0.73469,-0.67841 -0.5961,-1.84404 0.27718,-2.33127l3.8519,-2.14909c0.87328,-0.48723 1.77838,0.02504 1.81021,1.02453z"></path><path d="M207.37358,90.58149c0.98371,0.17976 1.4006,1.18335 0.83377,2.00719l-2.74569,3.99065c-0.56683,0.82384 -1.81115,0.91215 -2.48865,0.17663l-6.374,-6.91991c-0.6775,-0.73552 -0.37129,-1.29129 0.61242,-1.11153z"></path><path d="M77.33031,60.06334c0.88035,0.47433 0.84935,1.36032 -0.06199,1.77197l-9.88564,4.46538c-0.91134,0.41166 -1.3109,-0.03581 -0.79912,-0.89492l3.99689,-6.70953c0.51178,-0.85912 1.9039,-1.2439 2.78425,-0.76957z"></path><path d="M47.66029,88.525c-0.51615,0.8565 -1.45271,0.80567 -1.87312,-0.10167l-1.95935,-4.22867c-0.42041,-0.90733 0.06443,-2.23954 0.96968,-2.66442l8.059,-3.78249c0.90525,-0.42488 1.29435,0.00674 0.77821,0.86324z"></path><path d="M188.63031,64.1224c-0.46216,0.8868 -0.95613,0.7741 -0.98794,-0.22539l-0.19575,-6.15002c-0.03181,-0.99949 0.86592,-2.3677 1.79546,-2.73642l3.35583,-1.33114c0.92954,-0.36872 1.39693,0.14937 0.93477,1.03617z"></path><path d="M51.95421,71.98165c0.96689,0.25518 1.02854,0.93523 0.12329,1.36011l-4.91201,2.30547c-0.90525,0.42488 -1.31698,-0.01997 -0.82346,-0.8897l1.11392,-1.96306c0.49352,-0.86973 1.95394,-1.48429 2.92083,-1.22912z"></path><path d="M57.33545,67.02366c0.13628,0.99067 -0.6944,1.72638 -1.66135,1.47142l-3.28119,-0.86516c-0.96695,-0.25496 -1.50266,-1.41215 -1.07141,-2.31439l3.62501,-7.58406c0.43125,-0.90223 0.99877,-0.8138 1.13505,0.17687z"></path><path d="M212.21356,85.06305c-0.32278,0.94647 -1.62927,1.71321 -2.61298,1.53347l-9.82414,-1.79504c-0.98371,-0.17974 -1.02141,-0.68359 -0.07539,-1.00769l12.76592,-4.37358c0.94602,-0.32411 1.56926,0.29826 1.24649,1.24474z"></path><path d="M212.38917,71.36181c0.57792,0.8161 0.15642,1.59809 -0.843,1.56399l-20.23833,-0.69059c-0.99942,-0.0341 -1.53664,-0.95498 -1.07445,-1.84176l8.17822,-15.69089c0.4622,-0.88678 1.50231,-0.95746 2.08023,-0.14136z"></path><path d="M65.80898,54.40292c0.92701,0.37504 1.34223,1.6092 0.83044,2.46831l-4.12685,6.92755c-0.51179,0.85911 -1.15988,0.72756 -1.29619,-0.26311l-1.32877,-9.65733c-0.13631,-0.99067 0.65439,-1.60629 1.5814,-1.23125z"></path><path d="M41.92264,70.05246c0.99268,0.12077 1.49189,1.11131 0.99842,1.98107l-1.25213,2.20694c-0.49347,0.86976 -1.29094,0.78686 -1.59493,-0.16582l-0.802,-2.51331c-0.304,-0.95267 0.38468,-1.78457 1.37736,-1.6638z"></path><path d="M44.19117,64.07573c0.21491,0.97663 -0.56284,1.83238 -1.55551,1.7115l-2.22933,-0.27148c-0.99267,-0.12088 -1.68587,-1.19587 -1.38641,-2.14998l2.34915,-7.48457c0.29946,-0.95411 0.81384,-0.93158 1.02875,0.04505z"></path><path d="M218.46513,61.3663c0.88644,0.46285 1.43251,1.86599 1.09214,2.80628l-1.67554,4.62883c-0.34037,0.94029 -1.25867,1.06451 -1.83661,0.24843l-8.89823,-12.56469c-0.57794,-0.81608 -0.26945,-1.16931 0.61699,-0.70646z"></path><path d="M51.85832,49.68338c0.98084,0.19481 1.53038,1.29183 1.09907,2.19403l-3.94978,8.26218c-0.4313,0.90221 -1.07746,0.82776 -1.2923,-0.14888l-2.13062,-9.68541c-0.21485,-0.97665 0.55115,-1.75849 1.53199,-1.56368z"></path><path d="M216.09738,54.07719c0.51381,0.8579 0.14117,1.25299 -0.74528,0.79017l-8.12619,-4.24272c-0.88645,-0.46282 -0.79292,-1.12473 0.18706,-1.32383l3.23208,-0.65663c0.97998,-0.19909 2.47377,0.45972 2.98758,1.31762z"></path><path d="M35.91388,58.83477c-0.29944,0.95412 -0.97754,0.98269 -1.3562,0.05716l-1.18436,-2.89486c-0.37866,-0.92554 0.09302,-2.37731 0.94336,-2.90354l2.51765,-1.55806c0.85034,-0.52624 1.40124,-0.09836 1.1018,0.85576z"></path><path d="M223.14092,49.03695c0.99404,0.10902 1.63515,1.1537 1.28223,2.08935l-1.2483,3.30939c-0.35293,0.93565 -1.21962,1.01338 -1.7334,0.15545l-2.65191,-4.4283c-0.51377,-0.85793 -0.03351,-1.60683 0.96053,-1.4978z"></path><path d="M232.05187,40.59883c-2.01522,-1.2955 -4.31832,-1.87127 -6.62143,-2.01522c-9.06847,-0.86366 -17.993,0.28789 -26.62965,2.73494c-15.6899,4.46226 -29.50853,12.81102 -42.60743,22.45527c-9.35636,6.76537 -17.12934,15.11412 -22.16738,25.76598c-0.28789,-0.57578 -0.57578,-1.2955 -1.00761,-1.72733c-0.71972,-1.2955 -0.71972,-2.01522 0.43183,-3.16677c2.59099,-2.44705 3.02282,-6.33354 1.15155,-9.35636c-0.71972,-1.00761 -0.71972,-1.87127 -0.28789,-3.02282c2.01522,-5.90171 4.46226,-11.65947 7.1972,-17.41723c4.75015,-9.64425 10.65186,-18.42484 19.00061,-25.47809c4.75015,-4.03043 9.78819,-6.90931 16.12173,-7.48509c5.03804,-0.43183 8.63664,2.3031 10.07608,7.34115c1.2955,4.75015 0.43183,7.1972 -4.46226,9.93214c-2.15916,1.15155 -4.31832,0.28789 -6.33354,-0.71972c-1.43944,-0.86366 -1.43944,-2.44705 -1.43944,-4.03043c0.57578,0.28789 1.00761,0.43183 1.43944,0.57578c1.87127,0.71972 3.88649,0 4.75015,-1.72733c0.86366,-1.72733 0.43183,-3.74254 -1.00761,-5.03804c-1.58338,-1.15155 -3.5986,-1.00761 -5.03804,0.28789c-2.3031,2.15916 -3.02282,6.18959 -1.72733,9.21242c1.00761,2.44705 3.5986,3.5986 7.05326,3.45466c0.71972,0 1.58338,-0.14394 2.3031,-0.28789c3.88649,-0.86366 7.77298,-5.61382 7.1972,-9.50031c-0.43183,-3.31071 -1.87127,-6.33354 -4.03043,-8.78059c-1.15155,-1.2955 -2.44705,-2.15916 -4.17438,-2.3031c-4.31832,-0.28789 -8.63664,-0.28789 -12.66707,1.43944c-5.61382,2.44705 -10.50791,5.90171 -14.3944,10.65186c-9.64425,11.65947 -18.13695,23.89471 -22.02344,38.86489c-0.28789,0.86366 -0.43183,1.15155 -1.43944,0.71972c-1.87127,-0.71972 -3.74254,-0.71972 -5.61382,0c-1.15155,0.43183 -1.2955,0 -1.43944,-0.86366c-0.57578,-2.15916 -1.15155,-4.17438 -2.01522,-6.33354c-3.16677,-8.92453 -8.34875,-16.84145 -13.81863,-24.47049c-3.88649,-5.61382 -8.4927,-11.08369 -14.53835,-15.25807c-5.46987,-3.5986 -11.22763,-5.18199 -17.70512,-4.60621c-1.00761,0.14394 -2.01522,0.43183 -2.87888,0.86366c-4.60621,2.59099 -6.90931,10.36397 -4.60621,14.97018c2.15916,4.46226 7.91692,6.47748 12.52313,4.46226c1.00761,-0.43183 2.01522,-1.15155 2.44705,-2.3031c1.43944,-3.16677 1.43944,-6.90931 -1.43944,-9.78819c-1.43944,-1.43944 -3.45466,-1.58338 -5.03804,-0.43183c-1.58338,1.15155 -2.01522,3.31071 -1.15155,4.8941c0.86366,1.72733 2.87888,2.44705 4.75015,1.72733c0.43183,-0.14394 0.86366,-0.71972 1.43944,-0.43183c0,2.3031 -0.28789,3.16677 -1.2955,3.88649c-3.88649,2.73494 -10.50791,0 -11.37158,-4.60621c-1.15155,-6.47748 4.46226,-12.52313 10.93975,-11.80341c4.31832,0.57578 8.4927,1.87127 12.0913,4.46226c4.03043,3.02282 7.77298,6.33354 11.08369,10.07608c9.06847,10.93975 14.53835,23.75077 19.14456,36.84967c0.14394,0.57578 0,1.15155 -0.28789,1.58338c-2.44705,3.88649 -1.87127,7.34115 1.43944,10.36397c0.57578,0.43183 0.71972,0.86366 0.28789,1.43944c-0.57578,0.86366 -1.00761,1.72733 -1.43944,2.73494c-3.16677,-6.62143 -7.1972,-12.23524 -12.23524,-17.27328c-11.94735,-11.65947 -26.05387,-20.15216 -41.16799,-26.91753c-10.93975,-4.8941 -22.31132,-7.34115 -34.40262,-7.05326c-3.31071,0.14394 -6.62143,0.43183 -9.64425,2.01522c-4.17438,2.3031 -5.75776,6.47748 -3.74254,10.7958c4.46226,9.93214 8.78059,19.86428 11.65947,30.37219c0.86366,3.31071 1.58338,6.76537 3.31071,9.93214c3.16677,5.75776 6.18959,11.37158 11.08369,15.83384c1.15155,1.00761 1.2955,1.87127 0.43183,3.31071c-3.45466,6.47748 -5.18199,13.38679 -3.02282,20.72794c2.44705,8.06087 6.90931,14.82624 15.6899,17.41723c2.3031,0.71972 4.60621,0.86366 7.05326,1.00761c0.14394,0.71972 -0.28789,1.15155 -0.43183,1.72733c-1.58338,4.31832 -3.5986,8.63664 -4.03043,13.24285c-0.71972,9.21242 0.86366,18.28089 5.03804,26.62965c0.71972,1.43944 1.72733,2.73494 2.87888,3.88649c3.74254,3.74254 7.05326,4.46226 11.94735,2.44705c1.43944,-0.57578 2.87888,-1.43944 4.31832,-2.3031c3.74254,-2.3031 7.34115,-4.75015 10.50791,-7.77298c15.97779,-14.3944 24.47049,-33.10713 26.62965,-54.84268c0.14394,-1.00761 -0.14394,-2.01522 0.43183,-3.02282c0.71972,0.43183 0.57578,1.15155 0.57578,1.58338c0.86366,6.76537 1.87127,13.38679 2.3031,20.15216c0,0.57578 -0.14394,1.43944 0.71972,1.43944c0.86366,0 0.71972,-0.86366 0.71972,-1.43944c0.43183,-5.03804 1.00761,-10.07608 1.72733,-15.11412c0.28789,-2.3031 0.43183,-4.60621 1.00761,-6.76537c0.71972,0.28789 0.57578,0.86366 0.57578,1.2955c0.14394,9.50031 2.73494,18.42484 6.18959,27.20542c6.33354,15.6899 16.40962,28.35697 30.80402,37.2815c2.01522,1.2955 4.17438,2.3031 6.33354,3.16677c2.59099,0.86366 5.03804,0.57578 7.34115,-0.86366c2.44705,-1.58338 4.31832,-3.74254 5.75776,-6.18959c1.87127,-3.45466 2.87888,-7.1972 3.74254,-10.93975c2.01522,-8.92453 2.01522,-17.84906 -1.87127,-26.34176c-0.57578,-1.2955 -1.00761,-2.73494 -1.58338,-4.17438c2.01522,-0.28789 3.74254,-0.43183 5.61382,-0.71972c11.22763,-1.72733 17.84906,-14.53835 17.993,-22.45527c0.14394,-5.90171 -1.2955,-11.37158 -4.03043,-16.40962c-0.57578,-1.00761 -0.43183,-1.72733 0.28789,-2.44705c1.15155,-1.15155 2.3031,-2.3031 3.31071,-3.45466c4.8941,-6.47748 9.06847,-13.24285 11.08369,-21.30372c2.73494,-11.08369 7.34115,-21.5916 12.0913,-31.95557c2.01522,-4.03043 0.71972,-8.06087 -3.16677,-10.50791z"></path></g></svg>