<svg version="1.1" xmlns="http://www.w3.org/2000/svg" xmlns:xlink="http://www.w3.org/1999/xlink" width="216" height="178.6873" viewBox="20.16,20.16,216,178.6873"><g fill="none" fill-rule="nonzero" stroke="#ff0000" stroke-width="1px" stroke-linecap="butt" stroke-linejoin="miter" stroke-miterlimit="10" stroke-dasharray="" stroke-dashoffset="0" font-family="none" font-weight="none" font-size="none" text-anchor="none" style="mix-blend-mode: normal"><path d="M113.62,139.722l-27.381,1.452l29.363,-10.61z"></path><path d="M107.486,158.002l-4.463,8.309l-19.187,-9.752z"></path><path d="M143.959,144.4l-1.829,-9.283l21.379,-3.854z"></path><path d="M132.374,112.344l-2.01929,-16.87838l1.53129,0.63738l1.673,0.267l1.689,-0.131l1.611,-0.522l0.32232,-0.19718z"></path><path d="M129.065,121.056l-7.858,-0.12l5.729,-17.681z"></path><path d="M167.741,124.603l-33.449,-3.248l7.062,-24.716z"></path><path d="M109.555,153.358l-25.421,-7.746l28.272,-1.499z"></path><path d="M157.528,127.952l-17.057,3.074l-1.1902,-1.49081l-0.2448,-1.30219l-0.694,-1.545l-0.49992,-0.64772z"></path><path d="M125.024,95.14l-5.533,17.075l-1.515,-17.711l0.03089,0.00279l1.27611,0.63721l1.65,0.382l1.694,-0.014l1.644,-0.41l0.04905,-0.02552z"></path><path d="M174.871,145.787l-25.297,0.045l22.226,-14.934z"></path><path d="M149.238,158.903l-3.561,-8.744l22.17,-0.04z"></path><path d="M156.416,170.661l-5.159,-7.934l18.67,-8.812z"></path><path d="M181.116,149.915l-0.036,-0.065l0.024,-0.001z"></path><path d="M179.577,145.627l-0.323,0.024l-0.257,-1.244z"></path><path d="M114.449,122.402l-39.841,18.048l8.413,-48.128z"></path><path d="M93.773,177.746l-6.552,-3.896l11.315,-1.675z"></path><path d="M92.84,152.78l-17.446,-1.064l-0.841,-4.508z"></path><path d="M187.224,118.257l-12.768,6.093l-11.74,-31.062z"></path><path d="M167.429,117.977l-23.5,-24.904l11.945,-5.669z"></path><path d="M152.224,84.354l-5.488,2.606l2.794,-4.014z"></path><path d="M113.602,94.053l2.009,23.482l-27.833,-26.639z"></path><path d="M96.908,168.049l-14.623,2.165l-4.645,-11.958z"></path><path d="M77.068,168.715l-4.588,-1.865l1.529,-6.011z"></path><path d="M179.307,165.163l-17.02,5.101l14.133,-17.518z"></path><path d="M166.686,181.609l-6.344,-6.253l15.319,-4.59z"></path><path d="M89.662,180.329l-2.134,1.023l-1.557,-3.218z"></path><path d="M191.015,140.981l-7.133,3.64l-5.486,-11.547z"></path><path d="M192.276,136.672l-14.532,-9.105l11.572,-5.522z"></path><path d="M111.138,89.4l-19.466,-2.38l14.666,-4.67z"></path><path d="M82.352,185.991l-0.488,0.612l-1.179,-0.775z"></path><path d="M181.203,173.72l-4.702,2.806l4.206,-5.081z"></path><path d="M82.9,181.705l-6.387,-0.627l3.88,-4.554z"></path><path d="M155.492,81.188l-2.921,-1.527l3.903,-3.585z"></path><path d="M166.223,75.625l-6.052,4.106l1.244,-6.478z"></path><path d="M103.017,78.874l-15.268,4.861l8.726,-10.882z"></path><path d="M187.167,93.238l-25.41,-9.363l8.56,-5.807z"></path><path d="M59.025,135.729l-2.635,-1.562l-0.685,-2.994z"></path><path d="M77.313,173.478l-3.71,4.354l-0.965,-6.254z"></path><path d="M178.315,187.317l-6.704,-2.842l8.692,-5.187z"></path><path d="M201.412,130.29l-4.815,5.955l-2.396,-11.845z"></path><path d="M194.294,100.469l-4.408,14.333l-24.538,-25z"></path><path d="M200.275,113.943l-6.152,1.776l3.053,-9.926z"></path><path d="M201.831,125.054l-6.39,-5.219l5.77,-1.666z"></path><path d="M70.838,136.924l-13.399,-29.003l21.114,-15.125z"></path><path d="M63.863,132.127l-10.24,-11.33l1.735,-7.08z"></path><path d="M56.392,103.357l-0.048,-0.352l1.784,-0.892z"></path><path d="M49.736,94.971l-1.115,-1.013l0.183,-2.136z"></path><path d="M202.243,103.183l-0.17649,1.66906l-0.32007,0.80787l-1.14944,-3.02493z"></path><path d="M173.661,67.032l0.485,-4.105l3.893,-2.172z"></path><path d="M168.812,71.249l-2.878,-2.266l3.455,-2.618z"></path><path d="M193.035,92.708l-19.667,-17.707l10.906,-15.633z"></path><path d="M93.102,70.153l-8.73,10.888l1.413,-15.965z"></path><path d="M75.227,88.73l-19.889,9.947l-4.59,-15.516z"></path><path d="M203.714,99.119l-1.639,-0.545l3.457,-2.096z"></path><path d="M78.386,85.019l-26.719,-6.08l18.235,-20.568z"></path><path d="M81.685,62.409l-1.298,14.655l-5.901,-18.533z"></path><path d="M209.798,88.839l-11.484,6.963l-8.431,-32.086z"></path><path d="M45.462,78.372l-1.582,0.232l1.569,-3.184z"></path><path d="M44.921,86.553l-1.621,-3.498l1.945,-0.285z"></path><path d="M49.765,74.572l-0.03,-7.036l11.673,-6.095z"></path><path d="M40.554,75.58l-2.081,-6.52l5.492,-0.401z"></path><path d="M215.235,76.204l-2.99,8.769l-17.292,-21.815z"></path><path d="M209.625,67.458l-19.745,-12.7l8.393,-3.33z"></path><path d="M65.371,54.226l-12.777,5.899l5.286,-8.93z"></path><path d="M41.616,63.813l-4.697,0.853l-2.287,-5.591z"></path><path d="M53.602,49.941l-3.998,6.753l0.222,-7.617z"></path><path d="M220.238,62.292l-3.037,8.39l-11.21,-15.829z"></path><path d="M45.528,48.242l-0.031,1.075l-0.281,-1.121z"></path><path d="M217.125,55.793l-11.672,-6.094l7.152,-1.453z"></path><path d="M43.729,60.026l-9.834,-6.672l7.064,-4.372z"></path><path d="M223.759,49.105l-0.823,0.933l-1.609,-1.2z"></path><path d="M232.05187,40.59883c-2.01522,-1.2955 -4.31832,-1.87127 -6.62143,-2.01522c-9.06847,-0.86366 -17.993,0.28789 -26.62965,2.73494c-15.6899,4.46226 -29.50853,12.81102 -42.60743,22.45527c-9.35636,6.76537 -17.12934,15.11412 -22.16738,25.76598c-0.28789,-0.57578 -0.57578,-1.2955 -1.00761,-1.72733c-0.71972,-1.2955 -0.71972,-2.01522 0.43183,-3.16677c2.59099,-2.44705 3.02282,-6.33354 1.15155,-9.35636c-0.71972,-1.00761 -0.71972,-1.87127 -0.28789,-3.02282c2.01522,-5.90171 4.46226,-11.65947 7.1972,-17.41723c4.75015,-9.64425 10.65186,-18.42484 19.00061,-25.47809c4.75015,-4.03043 9.78819,-6.90931 16.12173,-7.48509c5.03804,-0.43183 8.63664,2.3031 10.07608,7.34115c1.2955,4.75015 0.43183,7.1972 -4.46226,9.93214c-2.15916,1.15155 -4.31832,0.28789 -6.33354,-0.71972c-1.43944,-0.86366 -1.43944,-2.44705 -1.43944,-4.03043c0.57578,0.28789 1.00761,0.43183 1.43944,0.57578c1.87127,0.71972 3.88649,0 4.75015,-1.72733c0.86366,-1.72733 0.43183,-3.74254 -1.00761,-5.03804c-1.58338,-1.15155 -3.5986,-1.00761 -5.03804,0.28789c-2.3031,2.15916 -3.02282,6.18959 -1.72733,9.21242c1.00761,2.44705 3.5986,3.5986 7.05326,3.45466c0.71972,0 1.58338,-0.14394 2.3031,-0.28789c3.88649,-0.86366 7.77298,-5.61382 7.1972,-9.50031c-0.43183,-3.31071 -1.87127,-6.33354 -4.03043,-8.78059c-1.15155,-1.2955 -2.44705,-2.15916 -4.17438,-2.3031c-4.31832,-0.28789 -8.63664,-0.28789 -12.66707,1.43944c-5.61382,2.44705 -10.50791,5.90171 -14.3944,10.65186c-9.64425,11.65947 -18.13695,23.89471 -22.02344,38.86489c-0.28789,0.86366 -0.43183,1.15155 -1.43944,0.71972c-1.87127,-0.71972 -3.74254,-0.71972 -5.61382,0c-1.15155,0.43183 -1.2955,0 -1.43944,-0.86366c-0.57578,-2.15916 -1.15155,-4.17438 -2.01522,-6.33354c-3.16677,-8.92453 -8.34875,-16.84145 -13.81863,-24.47049c-3.88649,-5.61382 -8.4927,-11.08369 -14.53835,-15.25807c-5.46987,-3.5986 -11.22763,-5.18199 -17.70512,-4.60621c-1.00761,0.14394 -2.01522,0.43183 -2.87888,0.86366c-4.60621,2.59099 -6.90931,10.36397 -4.60621,14.97018c2.15916,4.46226 7.91692,6.47748 12.52313,4.46226c1.00761,-0.43183 2.01522,-1.15155 2.44705,-2.3031c1.43944,-3.16677 1.43944,-6.90931 -1.43944,-9.78819c-1.43944,-1.43944 -3.45466,-1.58338 -5.03804,-0.43183c-1.58338,1.15155 -2.01522,3.31071 -1.15155,4.8941c0.86366,1.72733 2.87888,2.44705 4.75015,1.72733c0.43183,-0.14394 0.86366,-0.71972 1.43944,-0.43183c0,2.3031 -0.28789,3.16677 -1.2955,3.88649c-3.88649,2.73494 -10.50791,0 -11.37158,-4.60621c-1.15155,-6.47748 4.46226,-12.52313 10.93975,-11.80341c4.31832,0.57578 8.4927,1.87127 12.0913,4.46226c4.03043,3.02282 7.77298,6.33354 11.08369,10.07608c9.06847,10.93975 14.53835,23.75077 19.14456,36.84967c0.14394,0.57578 0,1.15155 -0.28789,1.58338c-2.44705,3.88649 -1.87127,7.34115 1.43944,10.36397c0.57578,0.43183 0.71972,0.86366 0.28789,1.43944c-0.57578,0.86366 -1.00761,1.72733 -1.43944,2.73494c-3.16677,-6.62143 -7.1972,-12.23524 -12.23524,-17.27328c-11.94735,-11.65947 -26.05387,-20.15216 -41.16799,-26.91753c-10.93975,-4.8941 -22.31132,-7.34115 -34.40262,-7.05326c-3.31071,0.14394 -6.62143,0.43183 -9.64425,2.01522c-4.17438,2.3031 -5.75776,6.47748 -3.74254,10.7958c4.46226,9.93214 8.78059,19.86428 11.65947,30.37219c0.86366,3.31071 1.58338,6.76537 3.31071,9.93214c3.16677,5.75776 6.18959,11.37158 11.08369,15.83384c1.15155,1.00761 1.2955,1.87127 0.43183,3.31071c-3.45466,6.47748 -5.18199,13.38679 -3.02282,20.72794c2.44705,8.06087 6.90931,14.82624 15.6899,17.41723c2.3031,0.71972 4.60621,0.86366 7.05326,1.00761c0.14394,0.71972 -0.28789,1.15155 -0.43183,1.72733c-1.58338,4.31832 -3.5986,8.63664 -4.03043,13.24285c-0.71972,9.21242 0.86366,18.28089 5.03804,26.62965c0.71972,1.43944 1.72733,2.73494 2.87888,3.88649c3.74254,3.74254 7.05326,4.46226 11.94735,2.44705c1.43944,-0.57578 2.87888,-1.43944 4.31832,-2.3031c3.74254,-2.3031 7.34115,-4.75015 10.50791,-7.77298c15.97779,-14.3944 24.47049,-33.10713 26.62965,-54.84268c0.14394,-1.00761 -0.14394,-2.01522 0.43183,-3.02282c0.71972,0.43183 0.57578,1.15155 0.57578,1.58338c0.86366,6.76537 1.87127,13.38679 2.3031,20.15216c0,0.57578 -0.14394,1.43944 0.71972,1.43944c0.86366,0 0.71972,-0.86366 0.71972,-1.43944c0.43183,-5.03804 1.00761,-10.07608 1.72733,-15.11412c0.28789,-2.3031 0.43183,-4.60621 1.00761,-6.76537c0.71972,0.28789 0.57578,0.86366 0.57578,1.2955c0.14394,9.50031 2.73494,18.42484 6.18959,27.20542c6.33354,15.6899 16.40962,28.35697 30.80402,37.2815c2.01522,1.2955 4.17438,2.3031 6.33354,3.16677c2.59099,0.86366 5.03804,0.57578 7.34115,-0.86366c2.44705,-1.58338 4.31832,-3.74254 5.75776,-6.18959c1.87127,-3.45466 2.87888,-7.1972 3.74254,-10.93975c2.01522,-8.92453 2.01522,-17.84906 -1.87127,-26.34176c-0.57578,-1.2955 -1.00761,-2.73494 -1.58338,-4.17438c2.01522,-0.28789 3.74254,-0.43183 5.61382,-0.71972c11.22763,-1.72733 17.84906,-14.53835 17.993,-22.45527c0.14394,-5.90171 -1.2955,-11.37158 -4.03043,-16.40962c-0.57578,-1.00761 -0.43183,-1.72733 0.28789,-2.44705c1.15155,-1.15155 2.3031,-2.3031 3.31071,-3.45466c4.8941,-6.47748 9.06847,-13.24285 11.08369,-21.30372c2.73494,-11.08369 7.34115,-21.5916 12.0913,-31.95557c2.01522,-4.03043 0.71972,-8.06087 -3.16677,-10.50791z"></path></g></svg>