<svg version="1.1" xmlns="http://www.w3.org/2000/svg" xmlns:xlink="http://www.w3.org/1999/xlink" width="216" height="178.6873" viewBox="20.16,20.16,216,178.6873"><g fill="none" fill-rule="nonzero" stroke="#000000" stroke-width="1px" stroke-linecap="butt" stroke-linejoin="miter" stroke-miterlimit="10" stroke-dasharray="" stroke-dashoffset="0" font-family="none" font-weight="none" font-size="none" text-anchor="none" style="mix-blend-mode: normal"><path d="M128.22,121.997l-3.64937,1.11259l-0.94063,0.07741l-0.69022,0.22693l2.83322,-5.46393z"></path><path d="M134.019,121.468l-1.185,-0.189l-0.562,-0.929z"></path><path d="M140.585,126.888l-1.33029,2.50843l-0.21871,-1.16343l-0.694,-1.545l-0.13862,-0.1796z"></path><path d="M115.937,126.439l-7.975,5.857l0.826,-24.674z"></path><path d="M113.872,138.556l-4.156,-2.189l5.506,-4.044z"></path><path d="M128.729,105.288l1.128,-10.022l0.19209,-0.01295l0.27291,0.19895l1.564,0.651l1.673,0.267l1.44566,-0.11213z"></path><path d="M122.94,114.026l-4.096,7.9l-6.675,-17.569z"></path><path d="M119.172,104.837l-8.463,-7.596l3.912,-2.126z"></path><path d="M125.519,95.185l-1.181,10.5l-4.91984,-10.50971l1.51484,0.35071l1.694,-0.014l1.644,-0.41l0.0484,-0.02518z"></path><path d="M166.222,125.302l-5.579,-0.561l4.403,-0.704z"></path><path d="M147.978,98.653l-15.269,8.479l8.317,-11.966z"></path><path d="M111.746,91.761l-0.836,0.454l0.313,-0.881z"></path><path d="M142.721,121.906l-12.88,-8.239l19.004,-10.554z"></path><path d="M158.501,116.678l-11.066,4.705l5.504,-16.889z"></path><path d="M112.79,142.868l-1.686,5.469l-2.045,-7.433z"></path><path d="M155.385,128.554l-11.842,1.976l1.594,-3.006z"></path><path d="M176.588,102.815l-14.39,11.559l-6.092,-13.345z"></path><path d="M103.645,132.134l-31.662,-26.848l32.758,-5.883z"></path><path d="M143.954,144.373l-1.819,-9.229l20.265,-3.38z"></path><path d="M149.597,94.632l-6.079,-3.049l4.219,-6.061z"></path><path d="M152.829,88.871l-1.624,-7.956l4.749,-4.362z"></path><path d="M179.182,145.436l-29.612,0.33l21.416,-14.64z"></path><path d="M165.562,118.595l-0.821,-0.722l3.821,-3.07z"></path><path d="M107.486,158.002l-4.463,8.309l-19.187,-9.752z"></path><path d="M108.102,153.712l-26.76,-1.633l22.946,-12.232z"></path><path d="M105.045,80.74l-0.069,5.132l-3.247,-8.184z"></path><path d="M104.007,95.146l-31.367,5.633l22.913,-26.945z"></path><path d="M74.359,150.906l-0.07334,-0.11985l0.01234,-1.10015l-0.377,-1.652l-0.753,-1.517l-1.087,-1.3l-1.0173,-0.7555l22.0973,-3.5785z"></path><path d="M100.684,135.287l-31.563,5.113l0.113,-31.78z"></path><path d="M170.933,124.025l-2.246,-2.417l6.248,-7.897z"></path><path d="M149.281,159.009l-3.616,-8.879l25.96,-0.29z"></path><path d="M196.18,120.828l-21.037,4.288l7.699,-19.841z"></path><path d="M177.637,98.571l-22.317,-1.946l5.461,-21.533z"></path><path d="M164.431,169.108l-11.53,-6.915l23.715,-9.731z"></path><path d="M97.128,168.161l-11.824,2.016l-6.336,-11.246z"></path><path d="M79.62,168.889l-7.099,-2.202l1.823,-7.162z"></path><path d="M159.535,171.209l-2.352,0.632l-2.178,-3.349z"></path><path d="M91.362,179.989l-1.739,1.308l1.24,-2.118z"></path><path d="M94.518,176.875l-0.563,-0.915l2.162,-0.956z"></path><path d="M61.263,102.202l-1.524,0.104l-0.954,-2.016z"></path><path d="M59.025,135.729l-2.635,-1.562l-0.685,-2.994z"></path><path d="M64.816,136.341l-10.781,-14.796l10.876,-11.965z"></path><path d="M87.645,176.127l-2.08,3.552l0.452,-4.145z"></path><path d="M69.628,97.653l1.436,-24.355l20.258,-1.156z"></path><path d="M55.374,113.649l1.147,-4.681l4.078,-1.066z"></path><path d="M183.09,160.849l-11.226,5.419l9.79,-13.376z"></path><path d="M190.796,141.093l-7.06,3.602l-6.314,-11.025z"></path><path d="M89.853,67.898l-13.101,0.749l7.192,-4.848z"></path><path d="M65.176,99.764l-9.204,-7.099l10.463,-14.244z"></path><path d="M193.988,137.923l-16.129,-8.952l19.41,-3.956z"></path><path d="M177.248,90.623l-14.382,-20.032l7.932,-5.47z"></path><path d="M183.425,174.15l-12.013,-2.868l11.958,-5.772z"></path><path d="M163.801,178.765l-3.372,-3.323l2.789,-0.75z"></path><path d="M195.658,78.918l-12.558,17.222l-7.554,-29.863z"></path><path d="M200.442,116.156l-0.856,2.008l-5.304,-6.185z"></path><path d="M80.559,185.745l-4.786,-3.148l5.657,-4.846z"></path><path d="M79.793,173.465l-6.062,5.193l-1.147,-7.429z"></path><path d="M201.855,129.741l-1.94,2.4l1.033,-4.064z"></path><path d="M48.605,92.013l-1.029,0.272l-0.974,-2.102z"></path><path d="M51.479,98.533l-1.611,-2.386l1.274,-0.338z"></path><path d="M202.18,103.784l-0.11275,1.06619l-0.56925,1.43681l-0.24,1.677l0.27048,1.9809l-0.17048,1.6121l-11.925,-8.086z"></path><path d="M178.691,177.461l-10.102,4.261l-0.99,-6.909z"></path><path d="M79.79,61.389l-8.142,5.487l0.973,-9.349z"></path><path d="M52.664,89.87l-8.411,-7.686l18.904,-6.598z"></path><path d="M201.793,99.452l-15.485,-0.38l11.479,-15.74z"></path><path d="M178.672,187.469l-6.278,-2.662l9.088,-3.835z"></path><path d="M192.675,71.94l-16.309,-10.252l7.987,-4.456z"></path><path d="M59.584,72.258l-18.076,6.31l-2.842,-8.905z"></path><path d="M207.031,82.02l-4.434,-3.454l2.148,-1.27z"></path><path d="M202.136,73.82l-2.573,1.521l-5.068,-8.957z"></path><path d="M210.078,89.869l-4.565,6.636l-3.141,-12.639z"></path><path d="M68.49,55.487l-0.882,8.481l-5.959,-11.248z"></path><path d="M65.171,68.598l-24.52,-3.041l15.681,-13.646z"></path><path d="M201.631,67.301l-12.559,-12.223l8.507,-3.375z"></path><path d="M218.882,61.583l-11.937,8.991l-4.576,-17.613z"></path><path d="M214.891,77.214l-2.226,6.527l-3.397,-7.017z"></path><path d="M52.228,49.757l-12.295,10.698l3.882,-12.369z"></path><path d="M216.36,73.006l-4.896,-0.427l6.944,-5.231z"></path><path d="M35.315,60.743l-2.699,-6.597l5.919,-3.663z"></path><path d="M217.125,55.793l-11.672,-6.094l7.152,-1.453z"></path><path d="M225.129,49.255l-2.66,7.052l-4.707,-7.86z"></path><path d="M232.05187,40.59883c-2.01522,-1.2955 -4.31832,-1.87127 -6.62143,-2.01522c-9.06847,-0.86366 -17.993,0.28789 -26.62965,2.73494c-15.6899,4.46226 -29.50853,12.81102 -42.60743,22.45527c-9.35636,6.76537 -17.12934,15.11412 -22.16738,25.76598c-0.28789,-0.57578 -0.57578,-1.2955 -1.00761,-1.72733c-0.71972,-1.2955 -0.71972,-2.01522 0.43183,-3.16677c2.59099,-2.44705 3.02282,-6.33354 1.15155,-9.35636c-0.71972,-1.00761 -0.71972,-1.87127 -0.28789,-3.02282c2.01522,-5.90171 4.46226,-11.65947 7.1972,-17.41723c4.75015,-9.64425 10.65186,-18.42484 19.00061,-25.47809c4.75015,-4.03043 9.78819,-6.90931 16.12173,-7.48509c5.03804,-0.43183 8.63664,2.3031 10.07608,7.34115c1.2955,4.75015 0.43183,7.1972 -4.46226,9.93214c-2.15916,1.15155 -4.31832,0.28789 -6.33354,-0.71972c-1.43944,-0.86366 -1.43944,-2.44705 -1.43944,-4.03043c0.57578,0.28789 1.00761,0.43183 1.43944,0.57578c1.87127,0.71972 3.88649,0 4.75015,-1.72733c0.86366,-1.72733 0.43183,-3.74254 -1.00761,-5.03804c-1.58338,-1.15155 -3.5986,-1.00761 -5.03804,0.28789c-2.3031,2.15916 -3.02282,6.18959 -1.72733,9.21242c1.00761,2.44705 3.5986,3.5986 7.05326,3.45466c0.71972,0 1.58338,-0.14394 2.3031,-0.28789c3.88649,-0.86366 7.77298,-5.61382 7.1972,-9.50031c-0.43183,-3.31071 -1.87127,-6.33354 -4.03043,-8.78059c-1.15155,-1.2955 -2.44705,-2.15916 -4.17438,-2.3031c-4.31832,-0.28789 -8.63664,-0.28789 -12.66707,1.43944c-5.61382,2.44705 -10.50791,5.90171 -14.3944,10.65186c-9.64425,11.65947 -18.13695,23.89471 -22.02344,38.86489c-0.28789,0.86366 -0.43183,1.15155 -1.43944,0.71972c-1.87127,-0.71972 -3.74254,-0.71972 -5.61382,0c-1.15155,0.43183 -1.2955,0 -1.43944,-0.86366c-0.57578,-2.15916 -1.15155,-4.17438 -2.01522,-6.33354c-3.16677,-8.92453 -8.34875,-16.84145 -13.81863,-24.47049c-3.88649,-5.61382 -8.4927,-11.08369 -14.53835,-15.25807c-5.46987,-3.5986 -11.22763,-5.18199 -17.70512,-4.60621c-1.00761,0.14394 -2.01522,0.43183 -2.87888,0.86366c-4.60621,2.59099 -6.90931,10.36397 -4.60621,14.97018c2.15916,4.46226 7.91692,6.47748 12.52313,4.46226c1.00761,-0.43183 2.01522,-1.15155 2.44705,-2.3031c1.43944,-3.16677 1.43944,-6.90931 -1.43944,-9.78819c-1.43944,-1.43944 -3.45466,-1.58338 -5.03804,-0.43183c-1.58338,1.15155 -2.01522,3.31071 -1.15155,4.8941c0.86366,1.72733 2.87888,2.44705 4.75015,1.72733c0.43183,-0.14394 0.86366,-0.71972 1.43944,-0.43183c0,2.3031 -0.28789,3.16677 -1.2955,3.88649c-3.88649,2.73494 -10.50791,0 -11.37158,-4.60621c-1.15155,-6.47748 4.46226,-12.52313 10.93975,-11.80341c4.31832,0.57578 8.4927,1.87127 12.0913,4.46226c4.03043,3.02282 7.77298,6.33354 11.08369,10.07608c9.06847,10.93975 14.53835,23.75077 19.14456,36.84967c0.14394,0.57578 0,1.15155 -0.28789,1.58338c-2.44705,3.88649 -1.87127,7.34115 1.43944,10.36397c0.57578,0.43183 0.71972,0.86366 0.28789,1.43944c-0.57578,0.86366 -1.00761,1.72733 -1.43944,2.73494c-3.16677,-6.62143 -7.1972,-12.23524 -12.23524,-17.27328c-11.94735,-11.65947 -26.05387,-20.15216 -41.16799,-26.91753c-10.93975,-4.8941 -22.31132,-7.34115 -34.40262,-7.05326c-3.31071,0.14394 -6.62143,0.43183 -9.64425,2.01522c-4.17438,2.3031 -5.75776,6.47748 -3.74254,10.7958c4.46226,9.93214 8.78059,19.86428 11.65947,30.37219c0.86366,3.31071 1.58338,6.76537 3.31071,9.93214c3.16677,5.75776 6.18959,11.37158 11.08369,15.83384c1.15155,1.00761 1.2955,1.87127 0.43183,3.31071c-3.45466,6.47748 -5.18199,13.38679 -3.02282,20.72794c2.44705,8.06087 6.90931,14.82624 15.6899,17.41723c2.3031,0.71972 4.60621,0.86366 7.05326,1.00761c0.14394,0.71972 -0.28789,1.15155 -0.43183,1.72733c-1.58338,4.31832 -3.5986,8.63664 -4.03043,13.24285c-0.71972,9.21242 0.86366,18.28089 5.03804,26.62965c0.71972,1.43944 1.72733,2.73494 2.87888,3.88649c3.74254,3.74254 7.05326,4.46226 11.94735,2.44705c1.43944,-0.57578 2.87888,-1.43944 4.31832,-2.3031c3.74254,-2.3031 7.34115,-4.75015 10.50791,-7.77298c15.97779,-14.3944 24.47049,-33.10713 26.62965,-54.84268c0.14394,-1.00761 -0.14394,-2.01522 0.43183,-3.02282c0.71972,0.43183 0.57578,1.15155 0.57578,1.58338c0.86366,6.76537 1.87127,13.38679 2.3031,20.15216c0,0.57578 -0.14394,1.43944 0.71972,1.43944c0.86366,0 0.71972,-0.86366 0.71972,-1.43944c0.43183,-5.03804 1.00761,-10.07608 1.72733,-15.11412c0.28789,-2.3031 0.43183,-4.60621 1.00761,-6.76537c0.71972,0.28789 0.57578,0.86366 0.57578,1.2955c0.14394,9.50031 2.73494,18.42484 6.18959,27.20542c6.33354,15.6899 16.40962,28.35697 30.80402,37.2815c2.01522,1.2955 4.17438,2.3031 6.33354,3.16677c2.59099,0.86366 5.03804,0.57578 7.34115,-0.86366c2.44705,-1.58338 4.31832,-3.74254 5.75776,-6.18959c1.87127,-3.45466 2.87888,-7.1972 3.74254,-10.93975c2.01522,-8.92453 2.01522,-17.84906 -1.87127,-26.34176c-0.57578,-1.2955 -1.00761,-2.73494 -1.58338,-4.17438c2.01522,-0.28789 3.74254,-0.43183 5.61382,-0.71972c11.22763,-1.72733 17.84906,-14.53835 17.993,-22.45527c0.14394,-5.90171 -1.2955,-11.37158 -4.03043,-16.40962c-0.57578,-1.00761 -0.43183,-1.72733 0.28789,-2.44705c1.15155,-1.15155 2.3031,-2.3031 3.31071,-3.45466c4.8941,-6.47748 9.06847,-13.24285 11.08369,-21.30372c2.73494,-11.08369 7.34115,-21.5916 12.0913,-31.95557c2.01522,-4.03043 0.71972,-8.06087 -3.16677,-10.50791z"></path></g></svg>