<svg version="1.1" xmlns="http://www.w3.org/2000/svg" xmlns:xlink="http://www.w3.org/1999/xlink" width="216" height="178.6873" viewBox="20.16,20.16,216,178.6873"><g fill="none" fill-rule="nonzero" stroke="#ff0000" stroke-width="1px" stroke-linecap="butt" stroke-linejoin="miter" stroke-miterlimit="10" stroke-dasharray="" stroke-dashoffset="0" font-family="none" font-weight="none" font-size="none" text-anchor="none" style="mix-blend-mode: normal"><path d="M45.635,56.179l-3.46,-1.086l-6.03248,-9.74646l0.07048,-0.00554l6.122,0.249l5.26622,0.68653z"></path><path d="M51.83489,47.13416l2.80711,0.62584l5.973,1.89l1.37918,0.56494l-2.70031,6.67429l-1.13087,-0.46323l-5.407,-1.711l-2.32383,-0.51787z"></path><path d="M65.9919,51.85249l0.5481,0.22451l5.914,2.797l3.0975,1.61321l-3.41504,6.3385l-2.85846,-1.48872l-5.649,-2.672l-0.33736,-0.13819z"></path><path d="M86.756,66.469l-3.16392,3.02954l-3.35108,-2.15054l-4.29874,-2.47921l3.41616,-6.34073l4.64958,2.68094l4.42623,2.84105z"></path><path d="M94.37272,68.23185l-2.39131,-1.71622l-0.32841,0.47337z"></path><path d="M103.64601,76.06414l0.86899,0.78986l4.157,4.536l1.86396,2.55462l-5.95465,4.05404l-1.48631,-2.03667l-3.1948,-3.48579z"></path><path d="M118.992,99.302l-10.58609,-5.21408l-1.42323,-2.49715l5.97055,-4.0653l2.51177,4.40753l1.006,1.363l1.296,1.091l1.516,0.757l0.08235,0.01907z"></path><path d="M123.077,102.102l0.61851,-6.85648l0.57549,-0.14352l1.503,-0.782l1.278,-1.112l0.482,-0.677l0.321,0.633l1.098,1.29l1.369,0.998l1.564,0.651l0.2898,0.04625l0.49403,7.3328l-1.55284,-0.16805l-2.308,-0.649l-1.922,-0.908l-1.176,0.448l-2.28375,0.45636z"></path><path d="M136.48514,95.83814l0.37386,-0.12114l1.445,-0.884l1.199,-1.198l0.492,-0.707l3.09173,-5.06365l5.91992,4.12091l-2.86665,4.69474l-1.867,2.431l-1.793,1.592l-2.032,1.273l-2.216,0.917l-1.25183,0.28765z"></path><path d="M145.54092,84.30837l1.18508,-1.71137l4.017,-4.64l1.75339,-1.66051l4.87093,5.30367l-1.41332,1.33784l-3.526,4.073l-0.97741,1.41151z"></path><path d="M155.66471,73.35955l4.60229,-3.64455l3.86426,-2.76894l4.08835,5.92798l-3.60961,2.58596l-4.06176,3.21695z"></path><path d="M167.68871,64.49488l3.46429,-2.31788l5.50732,-3.37564l3.51031,6.2922l-5.12563,3.14244l-3.26806,2.18669z"></path><path d="M180.44378,56.71487l2.02522,-1.11387l5.827,-2.801l1.71543,-0.6977l2.65491,6.69317l-1.45134,0.59053l-5.447,2.618l-1.81619,0.9985z"></path><path d="M204.369,48.338l-6.20275,8.33068l-1.43625,0.47332l-0.06114,0.02488l-2.65477,-6.69256l0.2319,-0.09432l6.045,-1.993l3.89217,-0.96367z"></path><path d="M218.85124,45.51686l-0.11624,-0.00486l-6.159,0.381l-4.16182,0.6603l0.16182,0.7967l8.955,4.127l0.713,-0.427z"></path><path d="M226.70601,52.46943l0.97699,-2.18243l0.6,-2.671l-0.616,-0.835l-3.361,-1.036l-1.12866,-0.0472l-0.57334,5.2242z"></path><path d="M220.97385,66.19852l1.35815,-3.56052l0.093,-0.231l2.52247,-5.9838l-4.45947,-1.6822l-1.06,0.635l-1.791,4.903l2.468,5.605z"></path><path d="M216.38826,80.40729l1.12174,-4.11629l0.106,-0.351l1.86659,-5.68754l-0.57859,-0.20946l-8.655,6.923l-0.054,1.329z"></path><path d="M208.528,82.291l6.53332,2.22813l-1.41932,3.73487l-2.882,5.314l-0.32951,0.48553l-5.93219,-4.08126l0.1067,-0.15728l2.475,-4.563l0.93625,-2.4629z"></path><path d="M202.474,93.825l5.52984,3.80419l-0.63984,0.94281l-4.267,4.755l-0.975,1.385l-0.55444,1.39942l-7.20508,-0.76127l0.07652,-0.51415l0.742,-2.28l1.11,-2.126l1.447,-1.912l1.12246,-1.25057z"></path><path d="M201.63849,110.4625l1.80251,5.9375l1.06744,4.03723l-7.27437,0.65494l-0.71707,-2.71316l-1.84,-6.061l-0.53179,-2.64725z"></path><path d="M205.06593,124.72496l0.09707,2.46304l-1.223,4.732l-1.57893,2.85337l-5.68498,-4.59586l0.52091,-0.94151l0.73,-2.825l-0.04099,-1.03962z"></path><path d="M199.71076,138.18602l-1.46676,1.52698l-3.988,2.04l-3.73236,0.57462l-3.42953,-6.72076l0.41489,-0.09985l4.505,-0.694l1.875,-0.959l0.20251,-0.21083z"></path><path d="M186.2575,143.47257l-0.7665,0.42543l-1.248,1.145l-0.946,1.405l-0.592,1.588l-0.204,1.681l0.198,1.702l0.3391,1.41302l-7.09663,1.28152l-0.24347,-1.01453l-0.349,-2.175l0.003,-2.397l0.4,-2.365l0.787,-2.265l1.152,-2.103l1.485,-1.883l1.776,-1.61l2.00993,-1.28655z"></path><path d="M184.04771,157.03896l0.02929,0.12204l0.091,0.343l1.739,5.94l0.36558,3.8761l-7.22771,0.0458l-0.24187,-2.5599l-1.545,-5.28l-0.182,-0.685l-0.12497,-0.52073z"></path><path d="M177.85,179.139l-0.04957,-0.11747l0.05557,-0.16953l1.016,-5.001l0.15362,-2.16433l7.22147,-0.0458l-0.22609,3.18612l-1.195,5.87819l-0.41658,1.27142z"></path><path d="M174.66875,189.91323l1.34025,0.74877l2.627,0.403l2.085,-1.377l2.30656,-3.60187l-5.69156,-2.46213z"></path><path d="M170.90724,187.71808l-4.40324,-3.16408l-3.68804,-3.20532l5.06359,-5.13774l3.09145,2.68706l2.81782,2.02463z"></path><path d="M159.74615,178.30924l-2.21415,-2.32224l-3.857,-4.888l-0.65202,-0.99986l6.03559,-3.92437l0.46443,0.71223l3.449,4.371l1.831,1.92052z"></path><path d="M150.66317,166.48039l-0.40717,-0.62439l-2.972,-5.542l-1.43853,-3.29406l6.6715,-2.71665l1.25103,2.86571l2.687,5.013l0.24371,0.37375z"></path><path d="M144.2174,153.01878l-1.6174,-4.54078l-1.56493,-5.58535l7.08628,-1.39598l1.34465,4.80033l1.42662,4.00364z"></path><path d="M140.20941,138.6515l-0.42041,-2.2895l-0.44,-6.464l-0.30314,-1.61255l5.79481,-4.62594l0.58033,1.10149l0.75,2.278l0.361,2.37l0.412,6.051l0.33049,1.79947z"></path><path d="M136.55723,124.74423l-0.57123,-0.45923l-1.531,-0.724l-1.659,-0.346l-1.693,0.051l-1.634,0.446l-0.705,0.387l-0.204,-0.148l-1.567,-0.643l-0.31481,-0.0489l-2.25472,-7.39555l2.32153,0.07845l2.224,0.453l0.84,-0.213l2.39,-0.194l2.389,0.205l2.322,0.599l2.191,0.976l1.998,1.326l1.16711,1.09308z"></path><path d="M111.449,131.096l0.21636,-6.08683l0.90564,-1.93417l1.362,-1.973l1.672,-1.72l1.933,-1.418l2.142,-1.078l0.49298,-0.15213l2.10291,6.89833l-0.25489,0.0838l-1.441,0.891l-1.193,1.203l-0.879,1.448l-0.438,1.256l-0.94245,3.81138z"></path><path d="M112.091,146.325l-3.14374,-9.41225l0.00247,-0.01527l0.93428,-1.68548l0.028,-0.029l6.38391,1.3821l-0.69591,4.3049l-1.43887,6.09324z"></path><path d="M108.78215,160.88324l1.04285,-2.01824l2.398,-5.813l0.62982,-1.97212l-1.97482,-0.60888l-8.413,7.019z"></path><path d="M100.035,172.837l-0.63467,-9.94938l1.01221,-1.59605l6.36055,3.41625l-3.16509,4.98819l-2.86906,3.74281z"></path><path d="M90.27924,184.07911l0.73176,-0.54511l4.539,-4.228l2.3716,-2.5904l-0.5236,-0.4476l-7.238,1.944l-2.144,2.858z"></path><path d="M81.896,183.033l-0.522,0.794l1.76893,5.1654l2.93607,-1.7844l0.73562,-0.54799l-2.62562,-3.49101z"></path><path d="M74.392,177.154l-3.58606,0.55349l0.97406,4.07951l1.71847,4.36341l3.79353,-3.97741l0.745,-1.134z"></path><path d="M70.52604,162.87219l-0.46904,1.74081l-0.213,5.577l0.31489,3.24617l3.37011,-0.52017l2.699,-8.593z"></path><path d="M74.48,148.307l-0.43583,0.26674l0.25383,1.11226l-0.019,1.694l-0.414,1.643l-2.17321,5.68867l4.72421,1.20233l0.942,-4.872z"></path><path d="M73.764,143.68l-2.05717,1.25913l-0.98583,-0.73213l-1.69,-0.701l-5.404,-1.472l-1.64606,-0.67751l3.71018,-6.25835l0.26188,0.10786l4.97,1.353l2.288,0.837l2.083,1.189l0.46439,0.37957z"></path><path d="M58.10274,139.42625l-2.70574,-2.38425l-2.588,-4.255l-0.65515,-1.93391l7.05527,-1.61375l0.16488,0.48666l1.605,2.639l0.86057,0.75816z"></path><path d="M51.09252,126.66504l-0.21252,-3.59804l1.116,-5.005l0.72172,-1.6049l7.11175,1.74225l-0.96547,2.14665l-0.736,3.304l0.08171,1.38717z"></path><path d="M54.5188,112.45029l0.5072,-1.61029l0.116,-1.69l-0.281,-1.67l-0.349,-0.72944l7.76957,1.47454l0.02643,0.1629l-0.014,2.398l-0.412,2.362l-0.35915,1.01804z"></path><path d="M48.229,88.162l-4.5305,2.09869l2.5165,4.35231l2.45592,3.39398l1.63608,-2.07898z"></path><path d="M48.152,83.437l-6.28042,2.90924l-1.05758,-2.44624l-1.655,-6.148l-0.094,-0.318l-0.38596,-1.2089l6.8597,-2.18882l0.38526,1.20671l0.188,0.638l1.518,5.641l0.70145,1.62264z"></path><path d="M37.36509,72.1095l-0.39509,-1.2375l-0.107,-0.312l-2.394,-6.459l-0.089,-0.229l-0.70775,-1.72643l6.66432,-2.72533l0.70542,1.72077l0.178,0.458l2.394,6.459l0.215,0.623l0.39567,1.23932z"></path><path d="M31.29766,45.72714l-0.30366,0.02386l-2.639,1.157l-0.448,0.96l1.163,3.442l2.634,6.04l0.063,0.148l0.26679,0.6508l5.54821,-2.2688z"></path><path d="M80.759,152.009l-2.928,-6.853l1.18018,-2.79096l0.97582,1.58396l0.901,2.222l0.52,2.341l0.124,2.394l-0.09582,0.83031z"></path><path d="M215.854,66.95l-3.88626,3.10901l0.95426,-2.90901l0.228,-0.641l1.16532,-3.05546z"></path><path d="M99.165,75.172l-2.4994,4.27784l-1.5366,-1.39684l-4.71,-3.796l-3.17277,-2.27674l1.59477,-1.52726z"></path><path d="M75.99047,189.79643l0.17253,0.23057l2.069,0.932l0.92929,-0.2596l-1.06529,-3.1104z"></path><path d="M54.398,94.505l-0.36734,-1.37267l1.07613,1.48695z"></path><path d="M95.669,172.259l-4.54702,1.22173l3.15102,-3.44173l1.15842,-1.51072z"></path><path d="M107.878,147.348l-1.89754,1.58311l1.18585,-3.71386z"></path><path d="M51.32831,101.74914l-0.0487,-0.07002l2.30539,-2.93012l4.98566,0.80407l1.20134,1.72693l1.29402,2.31705z"></path><path d="M207.364,51.548l3.97411,1.83122l-3.48511,0.55278l-2.77554,0.68753z"></path><path d="M232.05187,40.59883c-2.01522,-1.2955 -4.31832,-1.87127 -6.62143,-2.01522c-9.06847,-0.86366 -17.993,0.28789 -26.62965,2.73494c-15.6899,4.46226 -29.50853,12.81102 -42.60743,22.45527c-9.35636,6.76537 -17.12934,15.11412 -22.16738,25.76598c-0.28789,-0.57578 -0.57578,-1.2955 -1.00761,-1.72733c-0.71972,-1.2955 -0.71972,-2.01522 0.43183,-3.16677c2.59099,-2.44705 3.02282,-6.33354 1.15155,-9.35636c-0.71972,-1.00761 -0.71972,-1.87127 -0.28789,-3.02282c2.01522,-5.90171 4.46226,-11.65947 7.1972,-17.41723c4.75015,-9.64425 10.65186,-18.42484 19.00061,-25.47809c4.75015,-4.03043 9.78819,-6.90931 16.12173,-7.48509c5.03804,-0.43183 8.63664,2.3031 10.07608,7.34115c1.2955,4.75015 0.43183,7.1972 -4.46226,9.93214c-2.15916,1.15155 -4.31832,0.28789 -6.33354,-0.71972c-1.43944,-0.86366 -1.43944,-2.44705 -1.43944,-4.03043c0.57578,0.28789 1.00761,0.43183 1.43944,0.57578c1.87127,0.71972 3.88649,0 4.75015,-1.72733c0.86366,-1.72733 0.43183,-3.74254 -1.00761,-5.03804c-1.58338,-1.15155 -3.5986,-1.00761 -5.03804,0.28789c-2.3031,2.15916 -3.02282,6.18959 -1.72733,9.21242c1.00761,2.44705 3.5986,3.5986 7.05326,3.45466c0.71972,0 1.58338,-0.14394 2.3031,-0.28789c3.88649,-0.86366 7.77298,-5.61382 7.1972,-9.50031c-0.43183,-3.31071 -1.87127,-6.33354 -4.03043,-8.78059c-1.15155,-1.2955 -2.44705,-2.15916 -4.17438,-2.3031c-4.31832,-0.28789 -8.63664,-0.28789 -12.66707,1.43944c-5.61382,2.44705 -10.50791,5.90171 -14.3944,10.65186c-9.64425,11.65947 -18.13695,23.89471 -22.02344,38.86489c-0.28789,0.86366 -0.43183,1.15155 -1.43944,0.71972c-1.87127,-0.71972 -3.74254,-0.71972 -5.61382,0c-1.15155,0.43183 -1.2955,0 -1.43944,-0.86366c-0.57578,-2.15916 -1.15155,-4.17438 -2.01522,-6.33354c-3.16677,-8.92453 -8.34875,-16.84145 -13.81863,-24.47049c-3.88649,-5.61382 -8.4927,-11.08369 -14.53835,-15.25807c-5.46987,-3.5986 -11.22763,-5.18199 -17.70512,-4.60621c-1.00761,0.14394 -2.01522,0.43183 -2.87888,0.86366c-4.60621,2.59099 -6.90931,10.36397 -4.60621,14.97018c2.15916,4.46226 7.91692,6.47748 12.52313,4.46226c1.00761,-0.43183 2.01522,-1.15155 2.44705,-2.3031c1.43944,-3.16677 1.43944,-6.90931 -1.43944,-9.78819c-1.43944,-1.43944 -3.45466,-1.58338 -5.03804,-0.43183c-1.58338,1.15155 -2.01522,3.31071 -1.15155,4.8941c0.86366,1.72733 2.87888,2.44705 4.75015,1.72733c0.43183,-0.14394 0.86366,-0.71972 1.43944,-0.43183c0,2.3031 -0.28789,3.16677 -1.2955,3.88649c-3.88649,2.73494 -10.50791,0 -11.37158,-4.60621c-1.15155,-6.47748 4.46226,-12.52313 10.93975,-11.80341c4.31832,0.57578 8.4927,1.87127 12.0913,4.46226c4.03043,3.02282 7.77298,6.33354 11.08369,10.07608c9.06847,10.93975 14.53835,23.75077 19.14456,36.84967c0.14394,0.57578 0,1.15155 -0.28789,1.58338c-2.44705,3.88649 -1.87127,7.34115 1.43944,10.36397c0.57578,0.43183 0.71972,0.86366 0.28789,1.43944c-0.57578,0.86366 -1.00761,1.72733 -1.43944,2.73494c-3.16677,-6.62143 -7.1972,-12.23524 -12.23524,-17.27328c-11.94735,-11.65947 -26.05387,-20.15216 -41.16799,-26.91753c-10.93975,-4.8941 -22.31132,-7.34115 -34.40262,-7.05326c-3.31071,0.14394 -6.62143,0.43183 -9.64425,2.01522c-4.17438,2.3031 -5.75776,6.47748 -3.74254,10.7958c4.46226,9.93214 8.78059,19.86428 11.65947,30.37219c0.86366,3.31071 1.58338,6.76537 3.31071,9.93214c3.16677,5.75776 6.18959,11.37158 11.08369,15.83384c1.15155,1.00761 1.2955,1.87127 0.43183,3.31071c-3.45466,6.47748 -5.18199,13.38679 -3.02282,20.72794c2.44705,8.06087 6.90931,14.82624 15.6899,17.41723c2.3031,0.71972 4.60621,0.86366 7.05326,1.00761c0.14394,0.71972 -0.28789,1.15155 -0.43183,1.72733c-1.58338,4.31832 -3.5986,8.63664 -4.03043,13.24285c-0.71972,9.21242 0.86366,18.28089 5.03804,26.62965c0.71972,1.43944 1.72733,2.73494 2.87888,3.88649c3.74254,3.74254 7.05326,4.46226 11.94735,2.44705c1.43944,-0.57578 2.87888,-1.43944 4.31832,-2.3031c3.74254,-2.3031 7.34115,-4.75015 10.50791,-7.77298c15.97779,-14.3944 24.47049,-33.10713 26.62965,-54.84268c0.14394,-1.00761 -0.14394,-2.01522 0.43183,-3.02282c0.71972,0.43183 0.57578,1.15155 0.57578,1.58338c0.86366,6.76537 1.87127,13.38679 2.3031,20.15216c0,0.57578 -0.14394,1.43944 0.71972,1.43944c0.86366,0 0.71972,-0.86366 0.71972,-1.43944c0.43183,-5.03804 1.00761,-10.07608 1.72733,-15.11412c0.28789,-2.3031 0.43183,-4.60621 1.00761,-6.76537c0.71972,0.28789 0.57578,0.86366 0.57578,1.2955c0.14394,9.50031 2.73494,18.42484 6.18959,27.20542c6.33354,15.6899 16.40962,28.35697 30.80402,37.2815c2.01522,1.2955 4.17438,2.3031 6.33354,3.16677c2.59099,0.86366 5.03804,0.57578 7.34115,-0.86366c2.44705,-1.58338 4.31832,-3.74254 5.75776,-6.18959c1.87127,-3.45466 2.87888,-7.1972 3.74254,-10.93975c2.01522,-8.92453 2.01522,-17.84906 -1.87127,-26.34176c-0.57578,-1.2955 -1.00761,-2.73494 -1.58338,-4.17438c2.01522,-0.28789 3.74254,-0.43183 5.61382,-0.71972c11.22763,-1.72733 17.84906,-14.53835 17.993,-22.45527c0.14394,-5.90171 -1.2955,-11.37158 -4.03043,-16.40962c-0.57578,-1.00761 -0.43183,-1.72733 0.28789,-2.44705c1.15155,-1.15155 2.3031,-2.3031 3.31071,-3.45466c4.8941,-6.47748 9.06847,-13.24285 11.08369,-21.30372c2.73494,-11.08369 7.34115,-21.5916 12.0913,-31.95557c2.01522,-4.03043 0.71972,-8.06087 -3.16677,-10.50791z"></path></g></svg>