<svg version="1.1" xmlns="http://www.w3.org/2000/svg" xmlns:xlink="http://www.w3.org/1999/xlink" width="216" height="178.6873" viewBox="20.16,20.16,216,178.6873"><g fill="none" fill-rule="nonzero" stroke="#ff0000" stroke-width="1px" stroke-linecap="butt" stroke-linejoin="miter" stroke-miterlimit="10" stroke-dasharray="" stroke-dashoffset="0" font-family="none" font-weight="none" font-size="none" text-anchor="none" style="mix-blend-mode: normal"><path d="M42.25459,52.00178c-0.44079,0.89761 -1.40788,0.94491 -1.93417,0.09461l-4.1778,-6.74986l0.07038,-0.00553l6.122,0.249l2.88364,0.37592z"></path><path d="M59.33453,51.48138l-0.76807,-0.22777c-0.95873,-0.28431 -2.15586,-1.53978 -2.39426,-2.51095l-0.13267,-0.54045l4.57546,1.44778l1.37926,0.56497c-0.38544,0.91677 -1.70755,1.54878 -2.65972,1.26641z"></path><path d="M68.46663,69.63729c-0.47431,0.88036 -1.11431,0.77453 -1.27999,-0.21165l-2.10528,-12.53128c-0.16568,-0.98618 0.04368,-2.89937 0.41873,-3.82637l0.49177,-1.21552l0.54814,0.22453l5.914,2.797l3.09755,1.61324z"></path><path d="M78.96206,77.70276c-0.57003,0.82162 -2.10933,1.88926 -3.0786,2.13527l-0.90993,0.23095c-0.74536,0.18918 -1.96961,0.03143 -2.86372,-0.31835c-0.5276,-0.4711 -1.05372,-0.97387 -1.41977,-1.36484c-0.61228,-0.77698 -0.77512,-2.32715 -0.31644,-3.17851l8.98576,-16.67868l4.64864,2.6804l4.42618,2.84102zM72.10982,79.75063c0.50493,0.45086 1.01122,0.8727 1.37982,1.13974l-2.07427,-1.50273c0.18707,0.13553 0.42586,0.25792 0.69445,0.36299zM70.69005,78.38579c0.02085,0.02646 0.04223,0.05203 0.06412,0.07664l-0.21333,-0.23986c0.04602,0.05174 0.09592,0.10629 0.14921,0.16322z"></path><path d="M94.58725,79.31926c-0.67712,0.73587 -2.34682,1.3501 -3.3394,1.22847l-6.3117,-0.77346c-0.99257,-0.12163 -1.41512,-1.06489 -0.84509,-1.88652l7.88997,-11.3724l2.79597,2.00664l5.049,4.07l0.51812,0.47094z"></path><path d="M105.46321,87.39844c-0.82661,0.56278 -2.41463,0.4773 -3.17605,-0.17096l-3.58233,-3.04995c-0.76142,-0.64826 -0.84573,-2.03241 -0.16862,-2.76829l5.00544,-5.43994l0.97334,0.88471l4.157,4.536l1.86402,2.55471z"></path><path d="M118.44166,105.40509c-0.08983,0.99596 -1.17619,2.07524 -2.17271,2.15857l-5.09091,0.42569c-0.99652,0.08333 -2.18559,-0.81463 -2.37815,-1.79592l-2.3568,-12.01085c-0.19255,-0.98129 0.44149,-2.52537 1.26809,-3.08817l5.24196,-3.56907l2.51185,4.40767l1.006,1.363l1.296,1.091l1.516,0.757l0.08246,0.01909z"></path><path d="M132.68456,103.70052c0.06722,0.99774 -0.85849,2.11414 -1.85143,2.2328l-6.20326,0.74134c-0.99293,0.11866 -1.89606,-0.75863 -1.80624,-1.75459l0.87243,-9.6747l0.57495,-0.14339l1.503,-0.782l1.278,-1.112l0.482,-0.677l0.321,0.633l1.098,1.29l1.369,0.998l1.564,0.651l0.2898,0.04625z"></path><path d="M149.95354,92.64437c0.43135,0.30027 0.8778,0.87635 1.21225,1.50034c-0.26252,0.65676 -0.64001,1.2784 -1.0325,1.62575l-10.35157,9.16107c-0.41788,0.36982 -1.13512,0.65395 -1.85455,0.78505c-0.48971,-0.51672 -0.85644,-1.19275 -0.8957,-1.77506l-0.54633,-8.10339l0.37386,-0.12114l1.445,-0.884l1.199,-1.198l0.492,-0.707l3.09173,-5.06366zM151.70426,95.78401c-0.02592,-0.47372 -0.23657,-1.07603 -0.53847,-1.6393c0.23836,-0.59631 0.38195,-1.22156 0.35595,-1.69673zM136.36121,105.70665c0.42492,0.12162 0.99612,0.11378 1.56595,0.00994c0.34937,0.36864 0.76133,0.65619 1.16163,0.77076z"></path><path d="M153.44998,79.29568l0.13004,7.22765c0.00917,0.50942 -0.1144,1.24193 -0.30545,1.95162c-0.60125,0.28009 -1.35575,0.27365 -1.89197,-0.09965l-5.84171,-4.06687l1.18511,-1.71142l4.017,-4.64l1.70367,-1.61343c0.53195,0.8536 0.98876,2.14363 1.00331,2.9521zM153.27457,88.47494c0.31898,-0.1486 0.59483,-0.37784 0.77207,-0.67573l-1.45327,2.44257c0.2508,-0.42153 0.49727,-1.08361 0.6812,-1.76684z"></path><path d="M165.92848,69.54961c0.56776,0.82319 0.16803,1.89931 -0.79945,2.15222l-6.92505,1.81033c-0.6381,0.16681 -1.57045,0.01323 -2.32539,-0.32198l4.38841,-3.47518l3.86529,-2.76968z"></path><path d="M183.6726,71.37042c0.4872,0.87329 0.13699,2.29316 -0.70042,2.83974l-0.37336,0.24369c-0.83741,0.54658 -2.55805,0.62421 -3.44127,0.15526l-5.32109,-2.82522c-0.88323,-0.46895 -2.33421,-1.76109 -2.90196,-2.58429l-3.24512,-4.70517l3.46362,-2.31744l5.50744,-3.37572z"></path><path d="M190.13559,52.41591c0.36871,0.92955 0.82726,2.85505 0.91711,3.851l1.12261,12.44418c0.08661,0.96011 -0.73964,2.09429 -1.67924,2.34249c-0.97876,0.1193 -2.35924,-0.54805 -2.82849,-1.38915l-7.22441,-12.94923l2.02582,-1.1142l5.827,-2.801l1.71523,-0.69762zM190.3904,71.07761c0.03535,-0.00674 0.07059,-0.01477 0.10567,-0.02404c0.03746,-0.00457 0.07433,-0.01028 0.11053,-0.01719z"></path><path d="M196.03242,50.13987c-0.37282,0.15746 -0.80604,0.16267 -1.21415,0.05145l4.97952,-1.64172z"></path><path d="M218.46218,49.06194c-0.10909,0.99403 -1.07614,2.50179 -1.93409,3.01552l-2.30818,1.3821c-0.85795,0.51373 -2.19659,0.15056 -2.67727,-0.72634l-2.01528,-3.67642c-0.32126,-0.58606 -0.73142,-1.60987 -1.02757,-2.51708l4.07621,-0.64671l6.159,-0.381l0.11624,0.00486z"></path><path d="M224.47528,51.62792c-0.93564,-0.35296 -1.76219,-1.69995 -1.65309,-2.69398l0.35516,-3.23614l1.12866,0.0472l3.361,1.036l0.616,0.835l-0.6,2.671l-0.97699,2.18243z"></path><path d="M213.82455,63.60982c-0.94028,-0.34041 -1.5269,-1.6162 -1.17325,-2.55158l0.08639,-0.22849c0.35365,-0.93538 1.56527,-2.38446 2.42324,-2.89817l3.61114,-2.16217c0.85797,-0.51371 2.6516,-0.67453 3.58727,-0.32165l2.58789,0.97601l-2.52223,5.98322l-0.093,0.231l-1.35801,3.56015z"></path><path d="M203.71493,76.08462c-0.67628,-0.23066 -1.64347,-0.88089 -2.34842,-1.53313c-0.18346,-0.79634 0.09049,-1.77343 0.71342,-2.24718l5.84815,-4.44762c0.79596,-0.60534 2.53221,-0.8703 3.47249,-0.52991l8.082,2.92576l-1.86656,5.68745l-0.106,0.351l-1.1217,4.11615zM201.3665,74.55149c0.05096,0.2212 0.13721,0.42845 0.26107,0.60709l-0.94515,-1.36317c0.16266,0.23459 0.40244,0.4955 0.68408,0.75608z"></path><path d="M206.44971,91.31461c-0.82385,-0.5668 -1.8126,-2.11992 -1.97749,-3.10623l-0.96443,-5.76875c-0.16489,-0.98631 0.61669,-1.64985 1.56317,-1.32708l9.99024,3.4069l-1.4192,3.73456l-2.882,5.314l-0.32943,0.48541z"></path><path d="M197.21493,105.65117c-0.99446,-0.10509 -1.39719,-1.0163 -0.80545,-1.82243l5.73105,-7.80748c0.59174,-0.80613 2.00733,-1.04547 2.83119,-0.47867l3.03239,2.08621l-0.64011,0.9432l-4.267,4.755l-0.975,1.385l-0.55432,1.39913z"></path><path d="M202.36756,118.91439l-5.52312,-7.47579c-0.59422,-0.8043 -0.19398,-1.50352 0.80049,-1.39843l3.99347,0.422l1.80261,5.93783l1.00515,3.80163c-0.82053,-0.24107 -1.677,-0.74368 -2.07859,-1.28724z"></path><path d="M199.2183,132.2314c-0.77765,-0.6287 -0.86225,-1.97829 -0.1692,-2.69918l3.1028,-3.22744c0.59441,-0.61829 1.92147,-1.30255 2.91554,-1.54138l0.09556,2.4246l-1.223,4.732l-1.57848,2.85256z"></path><path d="M187.67006,136.73546c-0.45453,-0.89073 0.03797,-2.10262 0.985,-2.42377l0.93889,-0.31839c0.66859,-0.22673 1.83557,-0.45636 2.81587,-0.57385c0.98953,0.17902 2.24164,0.67564 2.86048,1.17595l4.44082,3.59025l-1.46712,1.52735l-3.988,2.04l-3.73234,0.57461zM192.40982,133.41945c-0.25393,-0.04594 -0.49057,-0.07097 -0.69478,-0.06978l1.77293,-0.01035c-0.29401,0.00172 -0.66989,0.03119 -1.07815,0.08012z"></path><path d="M180.28939,135.21022c0.97931,0.20239 2.41314,1.29551 2.86767,2.18624l3.10053,6.07606l-0.76659,0.42548l-1.248,1.145l-0.946,1.405l-0.592,1.588l-0.204,1.681l0.198,1.702l0.33911,1.41304l-3.02094,0.54554c-0.98408,0.17771 -2.19126,-0.61938 -2.41435,-1.59417l-3.22364,-14.08581c-0.18797,-0.82134 0.25208,-1.97374 0.92443,-2.59516c0.96243,-0.30346 2.32305,-0.4425 3.111,-0.27966zM175.70223,134.81535c-0.13926,0.07341 -0.27299,0.17098 -0.39861,0.28709c-0.23374,0.0737 -0.44398,0.15709 -0.61684,0.24821z"></path><path d="M174.87396,167.39233c-0.50191,0.00318 -1.10108,-0.22604 -1.62225,-0.5718c0.05645,-0.61237 0.20521,-1.20314 0.43517,-1.59991l3.08225,-5.31822c0.50144,-0.86519 1.98696,-1.90806 2.97105,-2.08574l4.30753,-0.77772l0.02929,0.12207l0.091,0.343l1.739,5.94l0.36558,3.8761zM173.25171,166.82052c-0.06664,0.72295 -0.00461,1.47599 0.20441,1.97543l-1.35423,-3.2359c0.19229,0.45946 0.63265,0.91735 1.14982,1.26047z"></path><path d="M179.6856,179.93308c-0.9178,-0.39704 -2.22436,-1.71542 -2.61312,-2.63676l-1.57795,-3.73965c-0.38876,-0.92134 0.22246,-1.84902 1.22244,-1.85536l9.53013,-0.06044l-0.22609,3.18612l-1.195,5.87819l-0.41658,1.27142z"></path><path d="M176.55512,185.46526c0.39044,-0.92063 1.69868,-1.44422 2.61648,-1.04719l3.85595,1.66806l-2.30656,3.60187l-2.085,1.377l-2.627,-0.403l-1.34025,-0.74877z"></path><path d="M173.07376,178.93321c0.38862,0.9214 0.38685,2.76344 -0.00355,3.68409l-2.16297,5.10079l-4.40324,-3.16408l-3.68804,-3.20532l6.49315,-6.58823c0.70195,-0.71223 1.79252,-0.50306 2.18114,0.41834z"></path><path d="M166.79143,167.57665c0.43961,0.20121 0.96969,0.61793 1.44376,1.09895c-0.09289,0.69578 -0.36582,1.39174 -0.76211,1.79383l-7.72693,7.83981l-2.21415,-2.32224l-3.857,-4.888l-0.65232,-1.00032l6.28761,-4.08842c0.83835,-0.54513 2.58599,-0.67408 3.49528,-0.25791zM168.23519,168.6756c0.07165,-0.53665 0.03619,-1.07319 -0.13236,-1.47469l1.28134,3.05218c-0.19994,-0.47627 -0.64249,-1.06357 -1.14898,-1.57749z"></path><path d="M156.94008,160.0189c0.49296,0.87005 0.14755,2.28522 -0.69081,2.83033l-5.58566,3.63184l-0.40761,-0.62507l-2.972,-5.542l-1.43832,-3.29358l5.78198,-2.35421c0.92617,-0.3771 2.3453,0.11584 2.83826,0.9859z"></path><path d="M152.71036,147.68542c-0.13168,0.99129 -1.18952,2.3597 -2.11569,2.73683l-6.37721,2.59671l-1.61746,-4.54095l-1.56505,-5.58578l10.68078,-2.10457c0.98113,-0.19333 1.83059,0.60464 1.69891,1.59593z"></path><path d="M149.68652,125.32467c0.84124,0.54067 2.17176,1.95346 2.66104,2.82558l2.50187,4.4595c0.33277,0.59315 0.41176,1.57303 0.25565,2.40225c-0.67674,0.5396 -1.53069,1.00673 -2.15937,1.13059l-12.73627,2.50913l-0.42044,-2.28971l-0.44,-6.464l-0.30306,-1.61213l5.23798,-4.18116c0.78154,-0.62386 2.40432,-0.70705 3.24556,-0.16638zM155.10509,135.012c0.37939,-0.30251 0.70309,-0.62779 0.90017,-0.92813l-1.27452,1.94226c0.1755,-0.26744 0.30093,-0.62412 0.37435,-1.01413z"></path><path d="M136.85993,110.34285c-0.22742,-0.06503 -0.5104,-0.12342 -0.82306,-0.1731c-0.19276,-0.09533 -0.3777,-0.17025 -0.5468,-0.21861zM138.43698,112.21898l3.42903,5.75304c0.51199,0.85899 0.24242,2.34181 -0.53913,2.96564l-4.76933,3.80683l-0.57155,-0.45949l-1.531,-0.724l-1.659,-0.346l-1.693,0.051l-1.634,0.446l-0.705,0.387l-0.204,-0.148l-1.567,-0.643l-0.31459,-0.04886l-3.08721,-10.12706c-0.2916,-0.95654 0.40973,-2.03178 1.40266,-2.15047l7.95728,-0.95122c0.75807,-0.09062 2.07655,-0.02099 3.08573,0.13936c0.90322,0.44668 1.97817,1.34132 2.40012,2.04923z"></path><path d="M113.3547,131.50824c-0.97735,-0.21162 -2.48279,-1.27243 -3.01088,-2.12162l-6.52666,-10.49524c-0.52809,-0.84919 -0.28872,-2.33949 0.47873,-2.9806l2.47021,-2.06356c0.76745,-0.64111 2.53141,-1.36561 3.52793,-1.449l6.35093,-0.53145c0.99652,-0.08339 2.28465,0.78976 2.57626,1.7463l3.05448,10.01919l-0.25471,0.08374l-1.441,0.891l-1.193,1.203l-0.879,1.448l-0.438,1.256l-0.9424,3.81116z"></path><path d="M110.95422,145.97428c-0.95561,-0.29464 -1.65805,-1.5567 -1.40488,-2.52412l1.56032,-5.96231c0.25317,-0.96742 1.48371,-1.72332 2.46109,-1.5118l2.72505,0.58976l-0.69579,4.3042l-1.43883,6.09306z"></path><path d="M106.9359,159.89141c-0.88095,-0.47321 -1.45767,-1.89901 -1.15343,-2.85161l1.75805,-5.50462c0.30424,-0.9526 1.56409,-1.61058 2.51971,-1.31597l2.7925,0.86092l-0.62974,1.97186l-2.398,5.813l-1.04281,2.01815z"></path><path d="M97.18788,166.17572c-0.54894,-0.83586 -0.15195,-1.9961 0.79397,-2.32049l2.5063,-0.85947c0.94593,-0.32438 2.7728,-0.17556 3.65375,0.29765l2.63168,1.41362l-3.16558,4.98896l-2.2126,2.88643z"></path><path d="M89.26323,182.72932c-0.60112,-0.79916 -0.20968,-1.72016 0.78286,-1.842l4.38401,-0.53816l-3.41911,3.18484l-0.73222,0.54545z"></path><path d="M81.81879,183.14985c0.54961,-0.83542 1.70029,-0.87166 2.30136,-0.07246l2.6945,3.58261l-0.73565,0.54801l-4.747,2.885l-3.1,0.866l-1.19619,-0.53884z"></path><path d="M80.29456,178.2402c-0.10702,-0.33323 -0.3351,-0.64777 -0.62876,-0.90934c0.03693,-0.53053 0.00226,-1.04138 -0.11936,-1.42007zM79.05875,179.48583l-5.04524,7.66863l-0.25252,-0.33746l-1.981,-5.03l-0.97433,-4.08063l6.90074,-1.06525c0.6424,-0.09917 1.414,0.20394 1.95939,0.68974c-0.05592,0.80334 -0.27603,1.65182 -0.60705,2.15496zM80.29456,178.2402c0,0 0,0 0,0z"></path><path d="M70.82077,162.94776c0.96911,0.24662 2.54844,1.28548 3.15865,2.07772l4.16316,5.40504c0.61021,0.79224 0.23213,1.73703 -0.75617,1.88958l-7.22756,1.11563l-0.31485,-3.24573l0.213,-5.577l0.4689,-1.74028z"></path><path d="M83.03767,145.15716c-0.02556,-0.3338 -0.1467,-0.60909 -0.32858,-0.80806c0.1221,-0.54792 0.18392,-1.08138 0.15323,-1.48227zM81.87042,146.50111l-7.62685,10.92879c-0.47084,0.67468 -1.59763,1.1824 -2.52202,1.20385l2.14344,-5.61074l0.414,-1.643l0.019,-1.694l-0.25381,-1.11217l7.13494,-4.36679c0.56739,-0.34726 1.16856,-0.25329 1.52996,0.14207c-0.18158,0.81484 -0.49648,1.66166 -0.83867,2.152z"></path><path d="M76.97597,139.79171c0.91601,0.40114 0.97909,1.3243 0.12615,1.84631l-5.39463,3.30159l-0.98649,-0.73261l-1.69,-0.701l-5.404,-1.472l-1.64605,-0.67751l2.80714,-4.7351c0.50996,-0.8602 1.93593,-1.31925 2.85195,-0.91811z"></path><path d="M61.83361,130.64498c-0.03047,-0.06521 -0.06599,-0.12927 -0.10603,-0.19191c-0.02695,-0.08073 -0.057,-0.15703 -0.09018,-0.22804zM61.46403,133.75737l-3.36107,5.66908l-2.70596,-2.38445l-2.588,-4.255l-0.65507,-1.93368l6.88342,-1.57439c0.90466,-0.20692 2.17388,0.36643 2.69023,1.17414c0.31694,0.94925 0.20647,2.51154 -0.26354,3.3043z"></path><path d="M59.70843,118.16915c0.97128,0.23792 1.73228,1.45349 1.52199,2.43113l-0.42685,1.98444c-0.21029,0.97764 -1.3954,2.17825 -2.37023,2.40122l-7.34083,1.67904l-0.21251,-3.59798l1.116,-5.005l0.72187,-1.60525z"></path><path d="M61.21724,106.68909c0.99388,0.11045 1.90946,1.21784 1.83115,2.21477l-0.27777,3.53628c-0.07831,0.99693 -1.12789,1.75589 -2.09916,1.51792l-6.15275,-1.50748l0.50729,-1.61057l0.116,-1.69l-0.281,-1.67l-0.75661,-1.58138z"></path><path d="M53.11789,74.99707c0.86256,0.50596 0.93814,1.62892 0.15117,2.24591l-10.34812,8.11303c-0.286,0.22422 -0.69183,0.50395 -1.13618,0.78941l-0.97076,-2.24542l-1.655,-6.148l-0.094,-0.318l-0.38608,-1.20928l8.80174,-2.80871c0.95267,-0.30401 2.7679,-0.10205 3.63045,0.40391z"></path><path d="M40.69226,59.15552c-0.33676,-0.40206 -0.66895,-0.7625 -0.93809,-1.00682l1.19883,1.0883l1.81296,0.56655c-0.36311,-0.11347 -0.86018,-0.17216 -1.38769,-0.18048l1.05556,0.95823c-0.31913,-0.28971 -0.81558,-0.63483 -1.35364,-0.95766c-0.0028,0.00005 -0.00559,0.00011 -0.00839,0.00017c-0.00257,-0.00327 -0.00513,-0.00654 -0.0077,-0.00981c-0.70599,-0.42236 -1.48108,-0.80512 -2.02006,-0.97355zM42.18943,61.25057l3.35914,6.18585c0.47721,0.87879 0.00176,2.06158 -0.95091,2.36558l-7.23243,2.30793l-0.39523,-1.23794l-0.107,-0.312l-2.394,-6.459l-0.089,-0.229l-0.70783,-1.72665l5.33366,-2.18128c0.50586,-0.20688 1.29683,-0.32467 2.06598,-0.34026c0.45611,0.5811 0.87925,1.18779 1.11762,1.62677z"></path><path d="M36.52938,54.17941c0.52631,0.85029 0.12702,2.07909 -0.79859,2.45759l-3.69701,1.5118l-0.26679,-0.6508l-0.063,-0.148l-2.634,-6.04l-1.163,-3.442l0.448,-0.96l2.639,-1.157l0.30366,-0.02386z"></path><path d="M89.72857,160.90645c0.40622,0.91378 0.00581,2.41862 -0.80081,3.00969l-5.00252,3.66572c-0.80662,0.59107 -2.22339,0.38986 -2.83354,-0.40243l-3.17739,-4.12586c-0.61015,-0.79228 -0.64804,-2.40464 -0.07577,-3.22471l5.82594,-8.34872c0.57226,-0.82007 1.55075,-0.72636 1.95696,0.18741z"></path><path d="M167.73117,136.72298c0.99992,0.01301 2.22289,1.00083 2.44595,1.97563l3.48475,15.22878c0.22306,0.9748 -0.05527,2.81483 -0.55667,3.68004l-2.71041,4.67713c-0.5014,0.86522 -1.91206,1.31422 -2.82133,0.89801l-3.41493,-1.56316c-0.90927,-0.41621 -2.31149,-1.70247 -2.80445,-2.57253l-3.70817,-6.54479c-0.49296,-0.87005 -0.85428,-2.7314 -0.72264,-3.7227l1.10546,-8.32481c0.09224,-0.69466 0.45391,-1.79987 0.85091,-2.68682c0.71146,-0.62614 1.8415,-1.13602 2.63019,-1.12575zM158.87964,137.76778c-0.19054,0.16769 -0.35105,0.34371 -0.46695,0.52032l0.97663,-1.48819c-0.16418,0.25018 -0.34015,0.58913 -0.50968,0.96787z"></path><path d="M198.53165,120.99233c0.59417,0.80434 0.49525,2.32952 -0.19785,3.05036l-3.3986,3.53463c-0.22492,0.23393 -0.55515,0.46889 -0.93283,0.67993c-0.27932,-0.35184 -0.4434,-0.79103 -0.41189,-1.23217l0.68603,-9.60516c0.07124,-0.99746 0.73666,-1.19058 1.33083,-0.38624zM191.5491,129.0388c0,0 0,0 0,0zM191.5491,129.0388c0.67545,-0.00669 1.66714,-0.34228 2.45327,-0.78155c0.35226,0.44371 0.88781,0.74847 1.44553,0.74295z"></path><path d="M72.10292,85.25041c-0.37948,-0.28217 -0.93118,-0.42171 -1.4888,-0.42295l0.1298,1.24781c-0.02029,-0.1951 -0.07147,-0.41316 -0.14667,-0.64217c0.01097,-0.21651 0.0137,-0.42113 0.00701,-0.60565c-0.08172,0.00006 -0.16355,0.00308 -0.24496,0.00906c-0.36093,-0.77732 -0.91515,-1.56314 -1.42723,-1.94392zM70.03062,88.39599l-5.12225,12.42301c-0.38119,0.9245 -1.75626,1.73854 -2.75014,1.62808l-8.91848,-0.99117c-0.87918,-0.09771 -1.34663,-0.86085 -1.0786,-1.62433c0.62577,-0.83833 1.58363,-1.89905 2.20213,-2.41131l14.5944,-12.08755c0.35044,-0.29024 0.86703,-0.45694 1.4016,-0.49622c0.09372,0.20185 0.17441,0.40313 0.23795,0.59659c-0.05093,1.00501 -0.27941,2.2663 -0.56663,2.9629zM52.30434,99.53424c-0.06072,0.09814 -0.10821,0.19774 -0.14318,0.29735c-0.15343,0.20555 -0.2869,0.39772 -0.39051,0.56517z"></path><path d="M58.69359,55.7972c0.95871,0.2844 2.08308,1.55498 2.24875,2.54116l2.35932,14.04428c0.16567,0.98618 -0.65617,1.8148 -1.64368,1.65724l-0.26796,-0.04275c-0.98751,-0.15756 -2.83761,-0.82102 -3.7002,-1.32693l-4.70663,-2.76039c-0.86259,-0.5059 -2.20239,-1.89059 -2.67959,-2.76939l-3.41118,-6.28183c-0.4772,-0.87879 -0.05385,-2.19232 0.84671,-2.62705l5.49176,-2.65107c0.90056,-0.43473 2.75983,-0.58507 3.71853,-0.30067z"></path><path d="M90.8277,115.37399c0.58365,0.812 0.17155,1.53197 -0.82421,1.43993l-21.08498,-1.94885c-0.99576,-0.09204 -1.9131,-1.18099 -1.83468,-2.17791l0.40834,-5.19132c0.07842,-0.99692 0.53813,-2.91829 0.91944,-3.84274l4.33879,-10.5192c0.3813,-0.92445 1.34626,-1.0369 1.92991,-0.22489z"></path><path d="M188.21023,108.60736c0.65766,0.0966 1.46537,0.60878 2.0328,1.21763c0.09607,0.71048 0.14238,1.42251 0.10759,1.90994l-1.13323,15.87715c-0.07119,0.99746 -1.08944,2.31599 -2.0365,2.63706l-1.72478,0.58473c-0.94706,0.32107 -2.87338,0.43958 -3.85265,0.23702l-1.10592,-0.22876c-0.97927,-0.20256 -1.8274,-1.39648 -1.69626,-2.38785l2.49243,-18.84155c0.13114,-0.99136 1.25167,-1.83741 2.24105,-1.69209zM190.86818,110.77915c0,0 0,0 0,0zM190.86818,110.77915c-0.11386,-0.31536 -0.33894,-0.64706 -0.62515,-0.95416c-0.10053,-0.74344 -0.25556,-1.48519 -0.4292,-1.96614z"></path><path d="M51.85535,49.27563c0.23833,0.97119 -0.42391,2.37709 -1.32448,2.81181l-2.79274,1.34811c-0.90056,0.43472 -1.3604,-0.0282 -0.91966,-0.92583l2.87389,-5.85324l1.60825,0.35856z"></path><path d="M102.1172,147.76855c0.9759,0.21823 1.64759,1.38906 1.34338,2.34166l-2.00917,6.29158c-0.30421,0.95261 -1.55436,2.22954 -2.50031,2.55386l-2.76122,0.9467c-0.94595,0.32432 -2.29812,-0.26512 -2.70435,-1.17889l-5.32008,-11.96692c-0.14391,-0.3237 -0.2974,-0.77253 -0.43902,-1.26153c0.32657,-0.47142 0.91887,-0.73898 1.54235,-0.59956zM87.72644,145.49501c-0.18459,0.26647 -0.28428,0.59808 -0.2567,0.95815l-0.26949,-3.51832c0.04932,0.64387 0.26803,1.66877 0.52619,2.56017z"></path><path d="M196.6238,75.06386c-0.36984,-0.07625 -0.87976,-0.12579 -1.42411,-0.14781c-0.32417,-0.15912 -0.63748,-0.27724 -0.90749,-0.33291zM197.3908,76.63043c-0.01844,-0.02659 -0.03791,-0.05339 -0.05835,-0.08037c-0.02399,-0.03709 -0.04776,-0.07262 -0.07124,-0.10648zM198.7308,80.05962l1.48241,8.86676c0.1649,0.98631 -0.26204,2.77868 -0.85389,3.58473l-7.67563,10.45378c-0.59184,0.80605 -2.17308,1.4669 -3.16248,1.32169l-5.4724,-0.80316c-0.9894,-0.14521 -1.90444,-1.28765 -1.83009,-2.28488l1.47257,-19.74907c0.07436,-0.99723 0.98616,-2.54098 1.82361,-3.0875l2.14821,-1.40193c0.83745,-0.54652 2.65718,-1.28043 3.63946,-1.46782l2.39786,-0.45744c0.61135,-0.11663 1.60208,-0.15504 2.49926,-0.11873c0.81365,0.3994 1.69567,1.05711 2.13276,1.63401c0.55825,0.86285 1.24025,2.5639 1.39835,3.50957z"></path><path d="M63.49596,78.70699c0.77557,0.1237 1.96102,0.70834 2.75605,1.31561c0.33759,0.76716 0.15632,1.81238 -0.4833,2.34215l-12.90844,10.6915c-0.77014,0.63787 -2.24229,0.56358 -2.9443,-0.14858l-2.79195,-2.83234c-0.70201,-0.71217 -0.61706,-2.04134 0.1699,-2.65834l10.39616,-8.15098c0.78696,-0.61701 2.56144,-1.0765 3.54895,-0.919zM66.25201,80.0226c-0.06889,-0.15655 -0.15939,-0.30153 -0.27201,-0.42818l0.81999,0.92216c-0.14262,-0.16039 -0.33072,-0.32803 -0.54798,-0.49398z"></path><path d="M97.06911,173.86628c0.54894,0.83586 0.10534,1.79354 -0.88721,1.91536l-9.44079,1.15872c-0.56031,0.06877 -1.36511,-0.06688 -2.09782,-0.31346c-0.27383,-0.41278 -0.51817,-0.8407 -0.68936,-1.21891c-0.09989,-0.52446 -0.13727,-1.18917 -0.11275,-1.82292c0.45882,-0.67915 1.02953,-1.33862 1.49589,-1.68046l5.43687,-3.98524c0.80653,-0.59119 2.16201,-0.34652 2.71095,0.48934zM83.22166,175.90112c0,0 0,0 0,0zM83.22166,175.90112c0.33409,0.27934 0.85641,0.53557 1.42163,0.72579c0.41178,0.62072 0.89026,1.20722 1.28706,1.53898zM83.78523,174.97854c0.0424,0.13221 0.09959,0.27678 0.16869,0.42946c0.02949,0.15485 0.06443,0.29747 0.10484,0.42346zM84.07231,172.02694c0,0 0,0 0,0zM84.07231,172.02694c-0.13097,0.39859 -0.20818,0.9648 -0.23113,1.55814c-0.33468,0.4954 -0.60982,1.00128 -0.74148,1.40198z"></path><path d="M174.84336,77.20946c0.88332,0.46877 0.84261,1.31987 -0.08142,1.70219l-15.02489,6.2167c-0.92403,0.38233 -1.86601,-0.23519 -1.88396,-1.23503l-0.06819,-3.79764c-0.01795,-0.99984 0.9316,-2.25254 1.8991,-2.5054l8.70299,-2.27456c0.9675,-0.25286 2.81832,-0.03695 3.70164,0.43182z"></path><path d="M163.01363,103.88531c0.83918,0.54385 1.0932,1.8986 0.50803,2.70951l-9.91532,13.74036c-0.58517,0.81091 -2.01158,1.08116 -2.85282,0.54051l-1.76503,-1.13437c-0.84124,-0.54066 -2.19454,-1.94027 -2.70659,-2.79923l-3.65679,-6.13418c-0.51205,-0.85895 -0.27523,-2.38062 0.47364,-3.04334l9.45151,-8.36414c0.74887,-0.66272 2.33693,-0.78158 3.17611,-0.23774z"></path><path d="M91.17885,84.8917c0.99257,0.12165 2.74666,0.89145 3.50816,1.53961l5.47896,4.66338c0.76151,0.64815 1.71562,2.27758 1.90822,3.25886l2.61359,13.31589c0.1926,0.98128 -0.38224,2.60367 -1.14969,3.24478l-3.02921,2.53055c-0.62436,0.52158 -1.89816,1.17084 -2.8798,1.49869c-0.96069,-0.01223 -2.20116,-0.57058 -2.70638,-1.27348l-18.66843,-25.97296c-0.33885,-0.47143 -0.71264,-1.27812 -0.98688,-2.06652c0.27374,-0.73364 0.90974,-1.41007 1.59803,-1.58491l0.47313,-0.12019c0.96922,-0.2462 2.93101,-0.37076 3.92358,-0.24911zM97.01157,115.11282c0,0 0,0 0,0zM97.01157,115.11282c0.18294,-0.03597 0.39256,-0.09422 0.61753,-0.16935c0.14912,0.0019 0.2915,-0.00936 0.42334,-0.03528zM75.26741,85.6305c-0.11173,0.29945 -0.16311,0.60842 -0.13306,0.89672l-0.25469,-2.44345c0.04348,0.41716 0.18964,0.97717 0.38775,1.54673z"></path><path d="M208.35577,55.90714c0.48062,0.87693 0.60765,2.68926 0.25407,3.62467l-0.55467,1.46739c-0.35358,0.9354 -1.50313,2.47615 -2.29909,3.0815l-7.15515,5.44162c-0.33201,0.2525 -0.83439,0.46975 -1.37833,0.62252c-0.38884,-0.44445 -0.6683,-0.98144 -0.71236,-1.46973l-1.04147,-11.54019c-0.08988,-0.99595 0.74147,-2.3809 1.66271,-2.7699l6.58605,-2.781c0.92124,-0.389 2.32309,0.09893 2.80371,0.97586zM197.2226,70.14483c0.40427,0.46207 0.92677,0.82411 1.42592,0.92738l-3.59804,-0.74442c0.5708,0.1181 1.41202,0.03052 2.17212,-0.18296z"></path><path d="M174.40131,128.77228c-0.12426,0.93924 -1.0424,2.29738 -1.89074,2.83445c-0.94343,0.43087 -2.64133,0.82338 -3.5724,0.81128l-7.31034,-0.09502c-0.99992,-0.013 -2.4891,-0.89813 -2.97836,-1.77026l-2.12194,-3.78246c-0.48926,-0.87214 -0.39342,-2.55522 0.1917,-3.36618l10.99455,-15.23819c0.58511,-0.81095 2.17018,-1.6317 3.17013,-1.6415l4.46919,-0.0438c0.99995,-0.0098 1.86875,0.97176 1.7376,1.96312zM172.51057,131.60673c0.06976,-0.03186 0.1354,-0.06393 0.1963,-0.09606l-0.33673,0.17767c0.0465,-0.02453 0.09336,-0.05181 0.14043,-0.08161z"></path><path d="M88.12348,120.97802c0.99576,0.09199 1.59177,1.1006 1.19201,2.01722l-5.60299,12.84751c-0.39975,0.91662 -1.71554,1.43214 -2.63157,1.03104l-12.71287,-5.56659c-0.91603,-0.4011 -2.25519,-1.70828 -2.67831,-2.61435l-0.37252,-0.79771c-0.42312,-0.90607 -0.63602,-2.7898 -0.4258,-3.76745l0.69612,-3.23738c0.21022,-0.97765 1.4162,-1.86332 2.41196,-1.77133z"></path><path d="M106.6687,131.6567c0.52815,0.84915 0.80321,2.66575 0.55012,3.63319l-1.76564,6.74923c-0.25309,0.96744 -1.48208,1.71669 -2.45799,1.49849l-14.38038,-3.21522c-0.9759,-0.2182 -1.55209,-1.35303 -1.15238,-2.26967l6.81113,-15.61944c0.25359,-0.58154 0.81146,-1.42658 1.37848,-2.13387c0.55453,-0.31225 1.18997,-0.605 1.74379,-0.79902c0.94022,0.03972 2.09926,0.62269 2.54845,1.34491zM95.65205,120.29941c-0.41393,0.23308 -0.78278,0.47702 -1.03895,0.69885l1.9718,-1.70752c-0.27635,0.23931 -0.60612,0.60112 -0.93285,1.00867zM98.0876,119.30401c-0.20329,0.03988 -0.43902,0.10785 -0.69175,0.19639c-0.16525,-0.00698 -0.32375,0.00282 -0.47044,0.03159z"></path><path d="M176.96469,100.15153c-0.07434,0.99723 -1.14864,2.00445 -2.14859,2.01443l-4.4142,0.04407c-0.99995,0.00998 -2.83905,-0.52393 -3.6782,-1.06783l-9.1034,-5.9004c-0.52586,-0.34084 -1.07329,-1.07379 -1.42226,-1.81928c0.11124,-0.48995 0.25981,-0.98125 0.42596,-1.39358c0.65554,-0.78065 1.74746,-1.66211 2.50011,-1.97347l17.33679,-7.17194c0.92405,-0.38227 1.77376,0.2327 1.69942,1.22994zM155.83217,92.15702c0,0 0,0 0,0zM155.83217,92.15702c0.0205,0.37278 0.15797,0.82136 0.36587,1.2655c-0.14473,0.63741 -0.22628,1.27253 -0.2012,1.72847zM156.624,92.02894c-0.14929,0.17778 -0.27595,0.35034 -0.37081,0.50974l0.65662,-1.10336c-0.09839,0.16533 -0.19474,0.36761 -0.28581,0.59362z"></path><path d="M232.05187,40.59883c-2.01522,-1.2955 -4.31832,-1.87127 -6.62143,-2.01522c-9.06847,-0.86366 -17.993,0.28789 -26.62965,2.73494c-15.6899,4.46226 -29.50853,12.81102 -42.60743,22.45527c-9.35636,6.76537 -17.12934,15.11412 -22.16738,25.76598c-0.28789,-0.57578 -0.57578,-1.2955 -1.00761,-1.72733c-0.71972,-1.2955 -0.71972,-2.01522 0.43183,-3.16677c2.59099,-2.44705 3.02282,-6.33354 1.15155,-9.35636c-0.71972,-1.00761 -0.71972,-1.87127 -0.28789,-3.02282c2.01522,-5.90171 4.46226,-11.65947 7.1972,-17.41723c4.75015,-9.64425 10.65186,-18.42484 19.00061,-25.47809c4.75015,-4.03043 9.78819,-6.90931 16.12173,-7.48509c5.03804,-0.43183 8.63664,2.3031 10.07608,7.34115c1.2955,4.75015 0.43183,7.1972 -4.46226,9.93214c-2.15916,1.15155 -4.31832,0.28789 -6.33354,-0.71972c-1.43944,-0.86366 -1.43944,-2.44705 -1.43944,-4.03043c0.57578,0.28789 1.00761,0.43183 1.43944,0.57578c1.87127,0.71972 3.88649,0 4.75015,-1.72733c0.86366,-1.72733 0.43183,-3.74254 -1.00761,-5.03804c-1.58338,-1.15155 -3.5986,-1.00761 -5.03804,0.28789c-2.3031,2.15916 -3.02282,6.18959 -1.72733,9.21242c1.00761,2.44705 3.5986,3.5986 7.05326,3.45466c0.71972,0 1.58338,-0.14394 2.3031,-0.28789c3.88649,-0.86366 7.77298,-5.61382 7.1972,-9.50031c-0.43183,-3.31071 -1.87127,-6.33354 -4.03043,-8.78059c-1.15155,-1.2955 -2.44705,-2.15916 -4.17438,-2.3031c-4.31832,-0.28789 -8.63664,-0.28789 -12.66707,1.43944c-5.61382,2.44705 -10.50791,5.90171 -14.3944,10.65186c-9.64425,11.65947 -18.13695,23.89471 -22.02344,38.86489c-0.28789,0.86366 -0.43183,1.15155 -1.43944,0.71972c-1.87127,-0.71972 -3.74254,-0.71972 -5.61382,0c-1.15155,0.43183 -1.2955,0 -1.43944,-0.86366c-0.57578,-2.15916 -1.15155,-4.17438 -2.01522,-6.33354c-3.16677,-8.92453 -8.34875,-16.84145 -13.81863,-24.47049c-3.88649,-5.61382 -8.4927,-11.08369 -14.53835,-15.25807c-5.46987,-3.5986 -11.22763,-5.18199 -17.70512,-4.60621c-1.00761,0.14394 -2.01522,0.43183 -2.87888,0.86366c-4.60621,2.59099 -6.90931,10.36397 -4.60621,14.97018c2.15916,4.46226 7.91692,6.47748 12.52313,4.46226c1.00761,-0.43183 2.01522,-1.15155 2.44705,-2.3031c1.43944,-3.16677 1.43944,-6.90931 -1.43944,-9.78819c-1.43944,-1.43944 -3.45466,-1.58338 -5.03804,-0.43183c-1.58338,1.15155 -2.01522,3.31071 -1.15155,4.8941c0.86366,1.72733 2.87888,2.44705 4.75015,1.72733c0.43183,-0.14394 0.86366,-0.71972 1.43944,-0.43183c0,2.3031 -0.28789,3.16677 -1.2955,3.88649c-3.88649,2.73494 -10.50791,0 -11.37158,-4.60621c-1.15155,-6.47748 4.46226,-12.52313 10.93975,-11.80341c4.31832,0.57578 8.4927,1.87127 12.0913,4.46226c4.03043,3.02282 7.77298,6.33354 11.08369,10.07608c9.06847,10.93975 14.53835,23.75077 19.14456,36.84967c0.14394,0.57578 0,1.15155 -0.28789,1.58338c-2.44705,3.88649 -1.87127,7.34115 1.43944,10.36397c0.57578,0.43183 0.71972,0.86366 0.28789,1.43944c-0.57578,0.86366 -1.00761,1.72733 -1.43944,2.73494c-3.16677,-6.62143 -7.1972,-12.23524 -12.23524,-17.27328c-11.94735,-11.65947 -26.05387,-20.15216 -41.16799,-26.91753c-10.93975,-4.8941 -22.31132,-7.34115 -34.40262,-7.05326c-3.31071,0.14394 -6.62143,0.43183 -9.64425,2.01522c-4.17438,2.3031 -5.75776,6.47748 -3.74254,10.7958c4.46226,9.93214 8.78059,19.86428 11.65947,30.37219c0.86366,3.31071 1.58338,6.76537 3.31071,9.93214c3.16677,5.75776 6.18959,11.37158 11.08369,15.83384c1.15155,1.00761 1.2955,1.87127 0.43183,3.31071c-3.45466,6.47748 -5.18199,13.38679 -3.02282,20.72794c2.44705,8.06087 6.90931,14.82624 15.6899,17.41723c2.3031,0.71972 4.60621,0.86366 7.05326,1.00761c0.14394,0.71972 -0.28789,1.15155 -0.43183,1.72733c-1.58338,4.31832 -3.5986,8.63664 -4.03043,13.24285c-0.71972,9.21242 0.86366,18.28089 5.03804,26.62965c0.71972,1.43944 1.72733,2.73494 2.87888,3.88649c3.74254,3.74254 7.05326,4.46226 11.94735,2.44705c1.43944,-0.57578 2.87888,-1.43944 4.31832,-2.3031c3.74254,-2.3031 7.34115,-4.75015 10.50791,-7.77298c15.97779,-14.3944 24.47049,-33.10713 26.62965,-54.84268c0.14394,-1.00761 -0.14394,-2.01522 0.43183,-3.02282c0.71972,0.43183 0.57578,1.15155 0.57578,1.58338c0.86366,6.76537 1.87127,13.38679 2.3031,20.15216c0,0.57578 -0.14394,1.43944 0.71972,1.43944c0.86366,0 0.71972,-0.86366 0.71972,-1.43944c0.43183,-5.03804 1.00761,-10.07608 1.72733,-15.11412c0.28789,-2.3031 0.43183,-4.60621 1.00761,-6.76537c0.71972,0.28789 0.57578,0.86366 0.57578,1.2955c0.14394,9.50031 2.73494,18.42484 6.18959,27.20542c6.33354,15.6899 16.40962,28.35697 30.80402,37.2815c2.01522,1.2955 4.17438,2.3031 6.33354,3.16677c2.59099,0.86366 5.03804,0.57578 7.34115,-0.86366c2.44705,-1.58338 4.31832,-3.74254 5.75776,-6.18959c1.87127,-3.45466 2.87888,-7.1972 3.74254,-10.93975c2.01522,-8.92453 2.01522,-17.84906 -1.87127,-26.34176c-0.57578,-1.2955 -1.00761,-2.73494 -1.58338,-4.17438c2.01522,-0.28789 3.74254,-0.43183 5.61382,-0.71972c11.22763,-1.72733 17.84906,-14.53835 17.993,-22.45527c0.14394,-5.90171 -1.2955,-11.37158 -4.03043,-16.40962c-0.57578,-1.00761 -0.43183,-1.72733 0.28789,-2.44705c1.15155,-1.15155 2.3031,-2.3031 3.31071,-3.45466c4.8941,-6.47748 9.06847,-13.24285 11.08369,-21.30372c2.73494,-11.08369 7.34115,-21.5916 12.0913,-31.95557c2.01522,-4.03043 0.71972,-8.06087 -3.16677,-10.50791z"></path></g></svg>