<svg version="1.1" xmlns="http://www.w3.org/2000/svg" xmlns:xlink="http://www.w3.org/1999/xlink" width="216" height="178.6873" viewBox="20.16,20.16,216,178.6873"><g fill="none" fill-rule="nonzero" stroke="#ff0000" stroke-width="1px" stroke-linecap="butt" stroke-linejoin="miter" stroke-miterlimit="10" stroke-dasharray="" stroke-dashoffset="0" font-family="none" font-weight="none" font-size="none" text-anchor="none" style="mix-blend-mode: normal"><path d="M45.635,56.179l-3.46,-1.086l-6.03248,-9.74646l0.07048,-0.00554l6.122,0.249l5.26622,0.68653z"></path><path d="M51.83489,47.13416l2.80711,0.62584l5.973,1.89l1.3792,0.56495l-2.7003,6.67429l-1.1309,-0.46324l-5.407,-1.711l-2.32383,-0.51787z"></path><path d="M72.646,61.879l-2.09945,0.11868l-1.26855,-0.66068l-5.649,-2.672l-0.33721,-0.13813l2.70023,-6.67433l0.54798,0.22446l5.914,2.797l3.09714,1.61303z"></path><path d="M76.669,63.521l2.68982,-4.99271l4.64918,2.68071l4.42591,2.84085l-4.10732,5.92006l-2.29724,-1.47424z"></path><path d="M91.98115,66.51544l2.79585,2.00656l5.049,4.07l0.51787,0.47071l-4.8757,5.29861l-0.33917,-0.30832l-4.71,-3.796l-2.54284,-1.82471z"></path><path d="M103.54085,75.96856l0.97415,0.88544l4.157,4.536l1.86387,2.55449l-5.9547,4.05398l-1.48616,-2.03647l-3.667,-4.001l-0.76305,-0.69365z"></path><path d="M112.9531,87.52524l2.5119,4.40776l1.006,1.363l1.296,1.091l0.65838,0.32876l-4.31876,5.86884l-1.87562,-1.3846l-1.666,-1.725l-1.356,-1.978l-2.22677,-3.90702z"></path><path d="M132.17625,96.14932l-0.29025,-0.04632l-1.564,-0.651l-1.369,-0.998l-1.098,-1.29l-0.321,-0.633l-0.482,0.677l-0.64839,0.56417l5.78839,2.61083z"></path><path d="M147.696,91.072l0.59989,2.07728l-2.15589,3.53072l-1.867,2.431l-1.793,1.592l-2.032,1.273l-2.12804,0.8806l-1.60196,-3.5576l-0.23321,-3.46075l0.37421,-0.12125l1.445,-0.884l1.199,-1.198l0.492,-0.707l3.09213,-5.06431z"></path><path d="M152.49626,76.29661l-1.75326,1.66039l-4.017,4.64l-1.18543,1.71188l3.47743,2.42112l5.624,-8.097z"></path><path d="M162.96297,67.7832l-2.69597,1.9318l-4.60191,3.64425l2.50891,2.73175z"></path><path d="M167.761,64.599l-0.07196,-0.10434l3.46396,-2.31766l5.50772,-3.37589l3.51038,6.29216l-4.97657,3.05106z"></path><path d="M186.688,60.939l-0.33617,0.78439l-0.58383,0.28061l-1.81642,0.99863l-3.50799,-6.28765l2.02541,-1.11398l2.84782,-1.36893z"></path><path d="M204.18243,47.42351l-3.89143,0.96349l-4.15644,1.37035l0.88444,1.80565l8.425,2.071z"></path><path d="M218.244,51.05l-3.17796,1.90314l-1.70904,0.10586l-3.50836,0.55647l-1.43445,-7.06217l4.16181,-0.66029l6.159,-0.381l0.11624,0.00486z"></path><path d="M226.70601,52.46943l0.97699,-2.18243l0.6,-2.671l-0.616,-0.835l-3.361,-1.036l-1.12866,-0.0472l-0.57334,5.2242z"></path><path d="M220.488,54.742l4.45923,1.68178l-2.52223,5.98322l-0.093,0.231l-1.358,3.56011l-6.77057,-2.4512l1.40157,-3.67492l0.185,-0.462l1.15877,-2.74883z"></path><path d="M219.48249,70.25275l-1.86649,5.68725l-0.106,0.351l-1.1218,4.11653l-6.82755,-2.32852l1.00335,-3.681l0.211,-0.703l1.93357,-5.89437z"></path><path d="M215.06149,84.51868l-1.41949,3.73532l-2.882,5.314l-0.32971,0.48583l-5.93224,-4.08118l0.10696,-0.15765l2.475,-4.563l1.16284,-3.05894z"></path><path d="M208.00392,97.62909l-0.63992,0.94291l-4.267,4.755l-0.975,1.385l-0.5543,1.39907l-7.20515,-0.7614l0.07644,-0.51367l0.742,-2.28l1.11,-2.126l1.447,-1.912l3.943,-4.393l0.3912,-0.57663z"></path><path d="M204.50851,120.43748l-1.06751,-4.03748l-1.80254,-5.9376l-7.05446,-0.7454l3.866,11.266z"></path><path d="M202.36132,134.77291l1.57868,-2.85291l1.223,-4.732l-0.09709,-2.46365l-6.75091,0.60765l-0.19,0.357l1.269,6.685z"></path><path d="M190.52359,142.32762l3.73241,-0.57462l3.988,-2.04l1.46719,-1.52742l-2.38919,-1.93158l-7.308,5.075z"></path><path d="M185.651,142.285l0.60617,1.18775l-0.76617,0.42525l-1.248,1.145l-0.946,1.405l-0.592,1.588l-0.204,1.681l0.198,1.702l0.3391,1.41302l-7.09663,1.28152l-0.24347,-1.01453l-0.349,-2.175l0.003,-2.397l0.4,-2.365l0.787,-2.265l1.152,-2.103l1.485,-1.883l0.41215,-0.37363z"></path><path d="M180.394,167.357l-1.42589,-0.80348l-0.16511,-1.74752l-1.545,-5.28l-0.182,-0.685l-0.12497,-0.52073l7.09668,-1.28132l0.02929,0.12204l0.091,0.343l1.739,5.94l0.36555,3.87581z"></path><path d="M184.409,181.97789l0.417,-1.2727l1.195,-5.87819l0.22614,-3.18679l-3.91814,0.02479l1.463,10.046z"></path><path d="M174.97377,190.08364l1.03523,0.57836l2.627,0.403l2.085,-1.377l2.30677,-3.60221l-1.35177,-0.58479l-4.289,1.206z"></path><path d="M162.81578,181.34853l2.87519,2.49886l-2.03597,-3.35039z"></path><path d="M162.368,175.65l-2.62147,2.65965l-2.21453,-2.32265l-3.857,-4.888l-0.65202,-0.99986l6.03559,-3.92437l0.46443,0.71223l3.449,4.371l1.33609,1.40141z"></path><path d="M150.66317,166.48039l-0.40717,-0.62439l-2.972,-5.542l-1.43853,-3.29406l6.6715,-2.71665l1.25103,2.86571l2.687,5.013l0.24371,0.37375z"></path><path d="M144.21738,153.01874l-1.61738,-4.54074l-1.56493,-5.58535l7.08628,-1.39598l1.34465,4.80034l1.42659,4.00357z"></path><path d="M139.954,127.561l-0.90806,0.72485l0.30306,1.61215l0.44,6.464l0.42047,2.28984l5.80653,-1.14384z"></path><path d="M139.151,120.944l-12.632,1.791l0.15978,0.5242l0.31422,0.0488l1.567,0.643l0.204,0.148l0.705,-0.387l1.634,-0.446l1.693,-0.051l1.659,0.346l1.531,0.724l0.57133,0.45932l2.04867,-1.63532z"></path><path d="M121.787,122.029l0.48876,1.60324l-0.25476,0.08376l-1.441,0.891l-1.193,1.203l-0.879,1.448l-0.438,1.256l-0.94247,3.81144l-7.03969,-1.52401l0.99315,-4.01643l0.473,-1.538l1.017,-2.172l1.362,-1.973l1.672,-1.72l1.933,-1.418l0.45124,-0.22709z"></path><path d="M110.352,145.789l-2.74484,-2.40185l0.92884,-3.92915l0.71373,-4.41728l7.04608,1.52499l-0.69581,4.30429l-1.4389,6.09334z"></path><path d="M108.78231,160.88293l1.04269,-2.01793l2.398,-5.813l0.62957,-1.97134l-1.97457,-0.60866l-2.278,10.313z"></path><path d="M105.577,164.065l1.19626,0.64254l-3.16526,4.98846l-2.86958,3.74349l-5.4804,-4.68507l2.43798,-3.17941l1.04249,-1.64379z"></path><path d="M90.27923,184.07912l0.73177,-0.54512l4.539,-4.228l2.37248,-2.59136l-5.43748,-4.64864l-5.698,7.37z"></path><path d="M77.036,190.42025l1.196,0.53875l3.1,-0.866l4.747,-2.885l0.73557,-0.54795l-3.74257,-4.97605l-0.308,0.03z"></path><path d="M73.721,177.257l-2.91519,0.44997l0.97419,4.08003l1.981,5.03l0.25246,0.33738l4.50354,-6.84538z"></path><path d="M70.52588,162.87279l-0.46888,1.74021l-0.213,5.577l0.31489,3.2461l2.15811,-0.3331l1.538,-9.383z"></path><path d="M76.132,159.842l-4.44028,-1.13016l2.17328,-5.68884l0.414,-1.643l0.019,-1.694l-0.25381,-1.1122l6.26365,-3.83356l0.58016,1.43077l0.52,2.341l0.124,2.394l-0.275,2.383l-0.666,2.303l-1.07278,2.80828z"></path><path d="M71.70709,144.93932l-0.98609,-0.73232l-1.69,-0.701l-5.404,-1.472l-1.6455,-0.67728l3.71043,-6.25825l0.26107,0.10753l4.97,1.353l2.288,0.837l2.083,1.189l1.856,1.517l0.85803,0.98084z"></path><path d="M54.64,130.285l-2.48599,0.56858l0.65499,1.93342l2.588,4.255l2.70583,2.38433l3.64217,-6.14333l-0.059,-0.039z"></path><path d="M52.71801,116.45646l-0.72201,1.60554l-1.116,5.005l0.21251,3.59799l1.79249,-0.40999l1.207,-9.462z"></path><path d="M60.545,111.285l-0.837,0.48l-3.33,1.141l-1.85926,-0.45552l0.50726,-1.61048l0.116,-1.69l-0.281,-1.67l-0.999,-2.088l-1.89212,-2.72043l5.96694,-4.02965l1.83518,2.63807l1.38,2.471l0.772,2.27l0.384,2.367l-0.00718,1.22914z"></path><path d="M49.48691,99.13465l-3.27191,-4.52165l-2.51626,-4.35188l6.56018,-3.03875l2.00707,3.47164l3.1909,4.40905z"></path><path d="M41.87163,86.34635l-1.05763,-2.44635l-1.655,-6.148l-0.094,-0.318l-0.38608,-1.20929l6.02208,-1.92171l2.1858,4.45722l0.7432,2.76178l0.77688,1.79711z"></path><path d="M44.054,69.975l-6.68887,2.13463l-0.39513,-1.23763l-0.107,-0.312l-2.394,-6.459l-0.089,-0.229l-0.70775,-1.72643l6.66432,-2.72533l0.70542,1.72077l0.178,0.458l2.394,6.459l0.215,0.623l0.31293,0.98018z"></path><path d="M31.29766,45.72714l-0.30366,0.02386l-2.639,1.157l-0.448,0.96l1.163,3.442l2.634,6.04l0.063,0.148l0.26679,0.6508l5.54821,-2.2688z"></path><path d="M142.839,123.993l0.6192,-2.46142l0.8448,1.10742l1.118,2.122l0.75,2.278l0.361,2.37l0.04937,0.72515z"></path><path d="M132.956,101.467l0.93803,2.08169l-0.39303,0.02331l-2.384,-0.258l-2.308,-0.649l-1.922,-0.908l-1.176,0.448l-2.352,0.47l-2.396,0.074l-2.376,-0.325l-0.38199,-0.11932l4.13899,-5.62468z"></path><path d="M196.305,55.836l2.51318,0.61783l-2.08818,0.68817l-2.34599,0.95456z"></path><path d="M192.06471,51.26718l-2.71935,1.10602l0.82064,4.0158l2.796,-3.29z"></path><path d="M124.563,118.649l-2.22842,-2.51864l2.01342,-0.26936l2.397,0.081l2.224,0.453l0.84,-0.213l2.39,-0.194l2.389,0.205l2.322,0.599l0.18131,0.08077z"></path><path d="M179.418,181.649l-2.478,0.697l-0.15759,-0.21841l1.07359,-3.27559l0.67256,-3.31051z"></path><path d="M57.187,126.669l1.264,-9.907l0.324,-0.111l0.36727,3.07628l-0.27827,0.61872l-0.736,3.304l0.171,2.903l0.2303,0.67976z"></path><path d="M106.89,148.5l-2.478,11.221l-3.10225,-0.06059l1.97425,-3.81841l2.169,-5.259l0.83369,-2.61096z"></path><path d="M76.557,173.941l0.55551,-3.38929l0.38803,3.98957z"></path><path d="M167.184,69.111l3.82629,1.82466l-1.28729,0.86134l-5.113,3.663l-1.99893,1.58317z"></path><path d="M187.008,138.157l-3.26258,-1.47856l1.43258,-0.61044l2.331,-0.561l4.25892,-0.65609z"></path><path d="M167.169,176.187l-0.557,0.857l5.685,9.356l1.115,-1.56z"></path><path d="M232.05187,40.59883c-2.01522,-1.2955 -4.31832,-1.87127 -6.62143,-2.01522c-9.06847,-0.86366 -17.993,0.28789 -26.62965,2.73494c-15.6899,4.46226 -29.50853,12.81102 -42.60743,22.45527c-9.35636,6.76537 -17.12934,15.11412 -22.16738,25.76598c-0.28789,-0.57578 -0.57578,-1.2955 -1.00761,-1.72733c-0.71972,-1.2955 -0.71972,-2.01522 0.43183,-3.16677c2.59099,-2.44705 3.02282,-6.33354 1.15155,-9.35636c-0.71972,-1.00761 -0.71972,-1.87127 -0.28789,-3.02282c2.01522,-5.90171 4.46226,-11.65947 7.1972,-17.41723c4.75015,-9.64425 10.65186,-18.42484 19.00061,-25.47809c4.75015,-4.03043 9.78819,-6.90931 16.12173,-7.48509c5.03804,-0.43183 8.63664,2.3031 10.07608,7.34115c1.2955,4.75015 0.43183,7.1972 -4.46226,9.93214c-2.15916,1.15155 -4.31832,0.28789 -6.33354,-0.71972c-1.43944,-0.86366 -1.43944,-2.44705 -1.43944,-4.03043c0.57578,0.28789 1.00761,0.43183 1.43944,0.57578c1.87127,0.71972 3.88649,0 4.75015,-1.72733c0.86366,-1.72733 0.43183,-3.74254 -1.00761,-5.03804c-1.58338,-1.15155 -3.5986,-1.00761 -5.03804,0.28789c-2.3031,2.15916 -3.02282,6.18959 -1.72733,9.21242c1.00761,2.44705 3.5986,3.5986 7.05326,3.45466c0.71972,0 1.58338,-0.14394 2.3031,-0.28789c3.88649,-0.86366 7.77298,-5.61382 7.1972,-9.50031c-0.43183,-3.31071 -1.87127,-6.33354 -4.03043,-8.78059c-1.15155,-1.2955 -2.44705,-2.15916 -4.17438,-2.3031c-4.31832,-0.28789 -8.63664,-0.28789 -12.66707,1.43944c-5.61382,2.44705 -10.50791,5.90171 -14.3944,10.65186c-9.64425,11.65947 -18.13695,23.89471 -22.02344,38.86489c-0.28789,0.86366 -0.43183,1.15155 -1.43944,0.71972c-1.87127,-0.71972 -3.74254,-0.71972 -5.61382,0c-1.15155,0.43183 -1.2955,0 -1.43944,-0.86366c-0.57578,-2.15916 -1.15155,-4.17438 -2.01522,-6.33354c-3.16677,-8.92453 -8.34875,-16.84145 -13.81863,-24.47049c-3.88649,-5.61382 -8.4927,-11.08369 -14.53835,-15.25807c-5.46987,-3.5986 -11.22763,-5.18199 -17.70512,-4.60621c-1.00761,0.14394 -2.01522,0.43183 -2.87888,0.86366c-4.60621,2.59099 -6.90931,10.36397 -4.60621,14.97018c2.15916,4.46226 7.91692,6.47748 12.52313,4.46226c1.00761,-0.43183 2.01522,-1.15155 2.44705,-2.3031c1.43944,-3.16677 1.43944,-6.90931 -1.43944,-9.78819c-1.43944,-1.43944 -3.45466,-1.58338 -5.03804,-0.43183c-1.58338,1.15155 -2.01522,3.31071 -1.15155,4.8941c0.86366,1.72733 2.87888,2.44705 4.75015,1.72733c0.43183,-0.14394 0.86366,-0.71972 1.43944,-0.43183c0,2.3031 -0.28789,3.16677 -1.2955,3.88649c-3.88649,2.73494 -10.50791,0 -11.37158,-4.60621c-1.15155,-6.47748 4.46226,-12.52313 10.93975,-11.80341c4.31832,0.57578 8.4927,1.87127 12.0913,4.46226c4.03043,3.02282 7.77298,6.33354 11.08369,10.07608c9.06847,10.93975 14.53835,23.75077 19.14456,36.84967c0.14394,0.57578 0,1.15155 -0.28789,1.58338c-2.44705,3.88649 -1.87127,7.34115 1.43944,10.36397c0.57578,0.43183 0.71972,0.86366 0.28789,1.43944c-0.57578,0.86366 -1.00761,1.72733 -1.43944,2.73494c-3.16677,-6.62143 -7.1972,-12.23524 -12.23524,-17.27328c-11.94735,-11.65947 -26.05387,-20.15216 -41.16799,-26.91753c-10.93975,-4.8941 -22.31132,-7.34115 -34.40262,-7.05326c-3.31071,0.14394 -6.62143,0.43183 -9.64425,2.01522c-4.17438,2.3031 -5.75776,6.47748 -3.74254,10.7958c4.46226,9.93214 8.78059,19.86428 11.65947,30.37219c0.86366,3.31071 1.58338,6.76537 3.31071,9.93214c3.16677,5.75776 6.18959,11.37158 11.08369,15.83384c1.15155,1.00761 1.2955,1.87127 0.43183,3.31071c-3.45466,6.47748 -5.18199,13.38679 -3.02282,20.72794c2.44705,8.06087 6.90931,14.82624 15.6899,17.41723c2.3031,0.71972 4.60621,0.86366 7.05326,1.00761c0.14394,0.71972 -0.28789,1.15155 -0.43183,1.72733c-1.58338,4.31832 -3.5986,8.63664 -4.03043,13.24285c-0.71972,9.21242 0.86366,18.28089 5.03804,26.62965c0.71972,1.43944 1.72733,2.73494 2.87888,3.88649c3.74254,3.74254 7.05326,4.46226 11.94735,2.44705c1.43944,-0.57578 2.87888,-1.43944 4.31832,-2.3031c3.74254,-2.3031 7.34115,-4.75015 10.50791,-7.77298c15.97779,-14.3944 24.47049,-33.10713 26.62965,-54.84268c0.14394,-1.00761 -0.14394,-2.01522 0.43183,-3.02282c0.71972,0.43183 0.57578,1.15155 0.57578,1.58338c0.86366,6.76537 1.87127,13.38679 2.3031,20.15216c0,0.57578 -0.14394,1.43944 0.71972,1.43944c0.86366,0 0.71972,-0.86366 0.71972,-1.43944c0.43183,-5.03804 1.00761,-10.07608 1.72733,-15.11412c0.28789,-2.3031 0.43183,-4.60621 1.00761,-6.76537c0.71972,0.28789 0.57578,0.86366 0.57578,1.2955c0.14394,9.50031 2.73494,18.42484 6.18959,27.20542c6.33354,15.6899 16.40962,28.35697 30.80402,37.2815c2.01522,1.2955 4.17438,2.3031 6.33354,3.16677c2.59099,0.86366 5.03804,0.57578 7.34115,-0.86366c2.44705,-1.58338 4.31832,-3.74254 5.75776,-6.18959c1.87127,-3.45466 2.87888,-7.1972 3.74254,-10.93975c2.01522,-8.92453 2.01522,-17.84906 -1.87127,-26.34176c-0.57578,-1.2955 -1.00761,-2.73494 -1.58338,-4.17438c2.01522,-0.28789 3.74254,-0.43183 5.61382,-0.71972c11.22763,-1.72733 17.84906,-14.53835 17.993,-22.45527c0.14394,-5.90171 -1.2955,-11.37158 -4.03043,-16.40962c-0.57578,-1.00761 -0.43183,-1.72733 0.28789,-2.44705c1.15155,-1.15155 2.3031,-2.3031 3.31071,-3.45466c4.8941,-6.47748 9.06847,-13.24285 11.08369,-21.30372c2.73494,-11.08369 7.34115,-21.5916 12.0913,-31.95557c2.01522,-4.03043 0.71972,-8.06087 -3.16677,-10.50791z"></path></g></svg>