<svg version="1.1" xmlns="http://www.w3.org/2000/svg" xmlns:xlink="http://www.w3.org/1999/xlink" width="216" height="178.6873" viewBox="20.16,20.16,216,178.6873"><g fill="none" fill-rule="nonzero" stroke="#ff0000" stroke-width="1px" stroke-linecap="butt" stroke-linejoin="miter" stroke-miterlimit="10" stroke-dasharray="" stroke-dashoffset="0" font-family="none" font-weight="none" font-size="none" text-anchor="none" style="mix-blend-mode: normal"><path d="M45.635,56.179l-3.46,-1.086l-6.03248,-9.74646l0.07048,-0.00554l6.122,0.249l5.26622,0.68653z"></path><path d="M51.83489,47.13416l2.80711,0.62584l5.973,1.89l1.37918,0.56494l-2.70031,6.67429l-1.13087,-0.46323l-5.407,-1.711l-2.32383,-0.51787z"></path><path d="M65.9919,51.85249l0.5481,0.22451l5.914,2.797l3.09765,1.6133l-3.41501,6.33852l-2.85865,-1.48881l-5.649,-2.672l-0.33736,-0.13819z"></path><path d="M84.346,69.943l-0.04256,0.01205l-4.06244,-2.60705l-4.29856,-2.47911l3.41613,-6.34075l4.64943,2.68086l4.42636,2.84114z"></path><path d="M100.3444,73.06319l-0.5184,-0.47119l-5.049,-4.07l-2.79619,-2.0068l-3.14481,4.5328l8.957,4.788z"></path><path d="M100.507,79.266l3.03405,-3.29726l0.97395,0.88526l4.157,4.536l1.86408,2.55479l-5.95459,4.05413l-1.48649,-2.03692l-2.09265,-2.28325z"></path><path d="M118.84,100.994l-4.71494,-0.39579l-1.89406,-1.39821l-1.666,-1.725l-1.356,-1.978l-2.22635,-3.90627l5.97056,-4.06528l2.51178,4.40756l1.006,1.363l1.296,1.091l1.516,0.757l0.08278,0.01916z"></path><path d="M123.062,102.27l0.63362,-7.02451l0.57538,-0.14349l1.503,-0.782l1.278,-1.112l0.482,-0.677l0.321,0.633l1.098,1.29l1.369,0.998l1.564,0.651l0.2898,0.04625l0.49403,7.3328l-1.55284,-0.16805l-2.308,-0.649l-1.922,-0.908l-1.176,0.448l-2.13056,0.42575z"></path><path d="M136.48514,95.83814l0.37386,-0.12114l1.445,-0.884l1.199,-1.198l0.492,-0.707l3.09194,-5.064l5.92009,4.12063l-2.86703,4.69537l-1.867,2.431l-1.793,1.592l-2.032,1.273l-2.216,0.917l-1.25183,0.28765z"></path><path d="M151.246,88.28l-5.70505,-3.97166l1.18505,-1.71134l4.017,-4.64l1.7539,-1.661l4.87094,5.30366l-1.41384,1.33833l-3.526,4.073l-0.48674,0.70292z"></path><path d="M155.66459,73.35964l4.60241,-3.64464l0.01755,-0.01257l3.11296,6.71788l-2.84941,2.25675z"></path><path d="M169.88617,63.02461l1.26683,-0.84761l5.50744,-3.37572l3.51033,6.29219l-5.12577,3.14253l-0.49391,0.33048z"></path><path d="M180.44406,56.71472l2.02494,-1.11372l5.827,-2.801l1.71541,-0.6977l2.65491,6.69317l-1.45132,0.59053l-5.447,2.618l-1.81586,0.99832z"></path><path d="M194.01361,50.47452l0.23239,-0.09452l6.045,-1.993l3.89146,-0.9635l1.43463,7.06235l-3.33109,0.82514l-5.556,1.831l-0.06174,0.02512z"></path><path d="M218.244,51.05l-3.1782,1.90316l-1.7088,0.10584l-3.5078,0.55638l-1.43457,-7.06215l4.16138,-0.66023l6.159,-0.381l0.11624,0.00486z"></path><path d="M226.70601,52.46943l0.97699,-2.18243l0.6,-2.671l-0.616,-0.835l-3.361,-1.036l-1.12866,-0.0472l-0.57334,5.2242z"></path><path d="M220.488,54.742l4.45923,1.68178l-2.52223,5.98322l-0.093,0.231l-1.35814,3.56048l-6.77065,-2.451l1.40179,-3.67548l0.185,-0.462l1.15849,-2.74816z"></path><path d="M219.4826,70.25244l-1.8666,5.68756l-0.106,0.351l-1.12181,4.11656l-6.82755,-2.32851l1.00336,-3.68105l0.211,-0.703l1.93372,-5.89483z"></path><path d="M215.06119,84.51947l-1.41919,3.73453l-2.62517,4.84045l-4.20202,-7.35353l0.26519,-0.48892l1.16243,-3.05787z"></path><path d="M205.98106,100.1131l-2.88406,3.2139l-0.975,1.385l-0.55415,1.39869l-7.20522,-0.76153l0.07637,-0.51316l0.742,-2.28l0.0021,-0.00402z"></path><path d="M202.418,120.626l-6.23803,-3.35719l-1.50297,-4.95081l-0.53183,-2.64742l7.49328,0.79178l1.80255,5.93764l1.06758,4.03774z"></path><path d="M202.36117,134.77319l1.57883,-2.85319l1.223,-4.732l-0.09709,-2.46357l-1.38391,0.12457l-2.323,9.114z"></path><path d="M196.35,136.747l-1.69135,4.80003l3.58535,-1.83403l1.46745,-1.5277l-1.61945,-1.3093z"></path><path d="M183.03312,147.15585l-0.32812,0.88015l-0.204,1.681l0.198,1.702l0.33905,1.41277l-7.09669,1.28128l-0.24336,-1.01405l-0.349,-2.175l0.003,-2.397l0.4,-2.365l0.19491,-0.56095z"></path><path d="M184.04781,157.03936l0.02919,0.12164l0.091,0.343l1.739,5.94l0.36563,3.8766l-7.2277,0.04591l-0.24193,-2.56051l-1.545,-5.28l-0.182,-0.685l-0.1248,-0.52002z"></path><path d="M177.85,179.139l-0.04957,-0.11747l0.05557,-0.16953l1.016,-5.001l0.15362,-2.16433l7.22147,-0.0458l-0.22609,3.18612l-1.195,5.87819l-0.41658,1.27142z"></path><path d="M174.66875,189.91323l1.34025,0.74877l2.627,0.403l2.085,-1.377l2.30656,-3.60187l-5.69156,-2.46213z"></path><path d="M170.90724,187.71808l-4.40324,-3.16408l-3.68804,-3.20532l5.06359,-5.13774l3.09145,2.68706l2.81782,2.02463z"></path><path d="M159.74587,178.30896l-2.21387,-2.32196l-3.857,-4.888l-0.40719,-0.62443l10.19688,1.3002l1.33797,1.40338z"></path><path d="M145.84572,157.02051l1.43828,3.29349l2.93726,5.47721l1.60374,-11.20521z"></path><path d="M144.21753,153.01914l-1.61753,-4.54114l-1.56501,-5.58565l7.08622,-1.39619l1.34479,4.80084l1.42681,4.00418z"></path><path d="M140.20947,138.65184l-0.42047,-2.28984l-0.44,-6.464l-0.30314,-1.61253l5.79482,-4.62593l0.58032,1.10146l0.75,2.278l0.361,2.37l0.412,6.051l0.3306,1.80006z"></path><path d="M136.55714,124.74416l-0.57114,-0.45916l-1.531,-0.724l-1.659,-0.346l-1.693,0.051l-1.634,0.446l-0.705,0.387l-0.204,-0.148l-1.567,-0.643l-0.31499,-0.04892l-1.51201,-4.95908l1.30388,-2.3673l0.27512,0.0093l2.224,0.453l0.84,-0.213l2.39,-0.194l2.389,0.205l2.322,0.599l2.191,0.976l1.998,1.326l1.16696,1.09294z"></path><path d="M121.421,120.83l0.85442,2.80235l-0.25442,0.08365l-1.441,0.891l-1.193,1.203l-0.879,1.448l-0.438,1.256l-0.9425,3.81157l-7.03971,-1.5239l0.99321,-4.01666l0.473,-1.538l0.5637,-1.20389z"></path><path d="M116.29587,136.56533l-0.69587,4.30467l-1.43879,6.09287l-6.89663,-2.12653l1.27142,-5.37834l0.71384,-4.41795z"></path><path d="M112.8528,151.07995l-0.6298,1.97205l-2.398,5.813l-0.15208,0.29432l-5.81225,-4.71553l1.59233,-3.86079l0.51873,-1.62458z"></path><path d="M103.34461,170.03961l0.26339,-0.34361l0.45459,-0.71644l-2.10459,-0.11256z"></path><path d="M90.27911,184.07921l0.73189,-0.54521l4.539,-4.228l0.22151,-0.24194l-1.96451,-1.69306l-4.211,5.8z"></path><path d="M81.511,183.619l-4.47487,6.80131l1.19587,0.53869l3.1,-0.866l4.747,-2.885l0.73567,-0.54803l-1.23267,-1.63897z"></path><path d="M76.164,176.88l-5.35817,0.82705l0.97417,4.07995l1.981,5.03l0.25257,0.33753l4.12943,-6.27653z"></path><path d="M70.52592,162.87264l-0.46892,1.74036l-0.213,5.577l0.31483,3.24551l5.71717,-0.88251l0.086,-0.204l-2.566,-8.746z"></path><path d="M74.548,159.439l-2.85632,-0.72704l2.17332,-5.68896l0.414,-1.643l0.019,-1.694l-0.2537,-1.11172l6.26381,-3.83338l0.57989,1.4301l0.52,2.341l0.124,2.394l-0.275,2.383l-0.08485,0.2934z"></path><path d="M71.70692,144.93919l-0.98592,-0.73219l-1.69,-0.701l-5.404,-1.472l-1.64606,-0.67751l2.15406,-3.63349l7.49724,-0.90455l1.57876,0.57755l2.083,1.189l1.856,1.517l0.85785,0.98063z"></path><path d="M56.861,131.282l-4.09666,1.37318l0.04466,0.13182l2.588,4.255l2.70625,2.3847l2.12775,-3.5887z"></path><path d="M52.71789,116.45671l-0.72189,1.60529l-0.68812,3.08606l5.88612,0.35394l1.616,-3.553z"></path><path d="M54.51884,112.45015l0.50716,-1.61015l0.116,-1.69l-0.24335,-1.44625l7.2723,-0.16054l0.13705,0.84479l-0.014,2.398l-0.412,2.362l-0.35908,1.01783z"></path><path d="M48.13255,97.26297l-1.91755,-2.64997l-2.51633,-4.35201l6.56016,-3.03879l2.00717,3.4718l0.79524,1.09882z"></path><path d="M41.87157,86.34622l-1.05757,-2.44622l-1.655,-6.148l-0.094,-0.318l-0.38596,-1.2089l6.8597,-2.18882l0.38526,1.20671l0.188,0.638l1.518,5.641l0.7768,1.79694z"></path><path d="M37.36509,72.1095l-0.39509,-1.2375l-0.107,-0.312l-2.394,-6.459l-0.089,-0.229l-0.70775,-1.72643l6.66432,-2.72533l0.70542,1.72077l0.178,0.458l2.394,6.459l0.215,0.623l0.39567,1.23932z"></path><path d="M31.29766,45.72714l-0.30366,0.02386l-2.639,1.157l-0.448,0.96l1.163,3.442l2.634,6.04l0.063,0.148l0.26679,0.6508l5.54821,-2.2688z"></path><path d="M77.582,162.523l0.64951,-0.5742l-0.39155,1.45389z"></path><path d="M163.85889,67.14123l1.76711,-1.26623l0.64837,-0.43381l4.66522,5.54178l-1.21659,0.81403l-2.7829,1.99369z"></path><path d="M59.791,103.275l0.92873,-0.29802l0.15312,0.27417z"></path><path d="M207.345,95.376l-8.51303,1.92318l2.84903,-3.17418l2.68658,-3.96004z"></path><path d="M91.203,173.606l-5.102,7.024l-2.21832,-0.76352l2.51532,-1.87348l4.038,-3.763l0.74649,-0.81536z"></path><path d="M199.455,123.937l-2.178,8.546l-1.8,-0.133l-0.0947,-0.05068l0.2827,-0.29432l1.532,-2.769l0.73,-2.825l-0.125,-3.17l-0.05967,-0.22576z"></path><path d="M154.515,166.279l0.87183,-6.08983l1.06817,1.99283l3.068,4.705l0.02698,0.03419z"></path><path d="M107.64721,163.07968l-0.69721,1.34932l-0.23266,0.36667l-8.24736,-0.44109l2.23401,-3.52258l1.23324,-2.38522z"></path><path d="M51.16003,101.50719l-0.45155,-0.64922l4.94305,-5.48599l0.22147,0.30602l0.155,0.22l2.30175,3.30877z"></path><path d="M51.02122,125.45795l0.14678,2.48505l0.21029,0.62074l4.38171,-1.46874l0.237,-1.338z"></path><path d="M185.925,143.367l-8.07712,-1.77192l1.32812,-1.68408l1.776,-1.61l1.83236,-1.17289z"></path><path d="M95.495,173.122l-0.43906,-4.10404l0.15398,-0.20081l5.5039,4.65443l-0.91482,1.19342l-1.10861,1.21088z"></path><path d="M192.209,135.501l-2.227,6.318l-3.10136,-6.16077l0.62836,-0.15123l3.65832,-0.56357z"></path><path d="M95.904,35c0,-1.67563 0.34072,-3.27169 0.95665,-4.72267c-1.56547,-1.36628 -3.19103,-2.67249 -4.86632,-3.92896c-3.5986,-2.59099 -7.77298,-3.88649 -12.0913,-4.46226c-6.47748,-0.71972 -12.0913,5.32593 -10.93975,11.80341c0.86366,4.60621 7.48509,7.34115 11.37158,4.60621c1.00761,-0.71972 1.2955,-1.58338 1.2955,-3.88649c-0.57578,-0.28789 -1.00761,0.28789 -1.43944,0.43183c-1.87127,0.71972 -3.88649,0 -4.75015,-1.72733c-0.86366,-1.58338 -0.43183,-3.74254 1.15155,-4.8941c1.58338,-1.15155 3.5986,-1.00761 5.03804,0.43183c2.87888,2.87888 2.87888,6.62143 1.43944,9.78819c-0.43183,1.15155 -1.43944,1.87127 -2.44705,2.3031c-4.60621,2.01522 -10.36397,0 -12.52313,-4.46226c-2.3031,-4.60621 0,-12.37919 4.60621,-14.97018c0.86366,-0.43183 1.87127,-0.71972 2.87888,-0.86366c6.47748,-0.57578 12.23524,1.00761 17.70512,4.60621c1.58111,1.09172 3.06377,2.27204 4.46084,3.52038c2.13996,-3.40561 5.93029,-5.66926 10.24933,-5.66926c6.68044,0 12.096,5.41556 12.096,12.096c0,5.25947 -3.35674,9.73492 -8.04472,11.40088c3.83223,5.77156 7.26131,11.80233 9.59552,18.38055c0.86366,2.15916 1.43944,4.17438 2.01522,6.33354c0.14394,0.86366 0.28789,1.2955 1.43944,0.86366c1.87127,-0.71972 3.74254,-0.71972 5.61382,0c1.00761,0.43183 1.15155,0.14394 1.43944,-0.71972c3.88649,-14.97018 12.37919,-27.20542 22.02344,-38.86489c3.88649,-4.75015 8.78059,-8.20481 14.3944,-10.65186c4.03043,-1.72733 8.34875,-1.72733 12.66707,-1.43944c1.72733,0.14394 3.02282,1.00761 4.17438,2.3031c2.15916,2.44705 3.5986,5.46987 4.03043,8.78059c0.57578,3.88649 -3.31071,8.63664 -7.1972,9.50031c-0.71972,0.14394 -1.58338,0.28789 -2.3031,0.28789c-3.45466,0.14394 -6.04565,-1.00761 -7.05326,-3.45466c-1.2955,-3.02282 -0.57578,-7.05326 1.72733,-9.21242c1.43944,-1.2955 3.45466,-1.43944 5.03804,-0.28789c1.43944,1.2955 1.87127,3.31071 1.00761,5.03804c-0.86366,1.72733 -2.87888,2.44705 -4.75015,1.72733c-0.43183,-0.14394 -0.86366,-0.28789 -1.43944,-0.57578c0,1.58338 0,3.16677 1.43944,4.03043c2.01522,1.00761 4.17438,1.87127 6.33354,0.71972c4.8941,-2.73494 5.75776,-5.18199 4.46226,-9.93214c-1.43944,-5.03804 -5.03804,-7.77298 -10.07608,-7.34115c-6.33354,0.57578 -11.37158,3.45466 -16.12173,7.48509c-8.34875,7.05326 -14.25046,15.83384 -19.00061,25.47809c-2.73494,5.75776 -5.18199,11.51552 -7.1972,17.41723c-0.43183,1.15155 -0.43183,2.01522 0.28789,3.02282c1.87127,3.02282 1.43944,6.90931 -1.15155,9.35636c-1.15155,1.15155 -1.15155,1.87127 -0.43183,3.16677c0.43183,0.43183 0.71972,1.15155 1.00761,1.72733c5.03804,-10.65186 12.81102,-19.00061 22.16738,-25.76598c13.09891,-9.64425 26.91753,-17.993 42.60743,-22.45527c8.63664,-2.44705 17.56117,-3.5986 26.62965,-2.73494c2.3031,0.14394 4.60621,0.71972 6.62143,2.01522c3.88649,2.44705 5.18199,6.47748 3.16677,10.50791c-4.75015,10.36397 -9.35636,20.87188 -12.0913,31.95557c-2.01522,8.06087 -6.18959,14.82624 -11.08369,21.30372c-1.00761,1.15155 -2.15916,2.3031 -3.31071,3.45466c-0.71972,0.71972 -0.86366,1.43944 -0.28789,2.44705c2.73494,5.03804 4.17438,10.50791 4.03043,16.40962c-0.14394,7.91692 -6.76537,20.72794 -17.993,22.45527c-1.87127,0.28789 -3.5986,0.43183 -5.61382,0.71972c0.57578,1.43944 1.00761,2.87888 1.58338,4.17438c3.88649,8.4927 3.88649,17.41723 1.87127,26.34176c-0.86366,3.74254 -1.87127,7.48509 -3.74254,10.93975c-1.43944,2.44705 -3.31071,4.60621 -5.75776,6.18959c-2.3031,1.43944 -4.75015,1.72733 -7.34115,0.86366c-2.15916,-0.86366 -4.31832,-1.87127 -6.33354,-3.16677c-14.3944,-8.92453 -24.47049,-21.5916 -30.80402,-37.2815c-3.45466,-8.78059 -6.04565,-17.70512 -6.18959,-27.20542c0,-0.43183 0.14394,-1.00761 -0.57578,-1.2955c-0.57578,2.15916 -0.71972,4.46226 -1.00761,6.76537c-0.71972,5.03804 -1.2955,10.07608 -1.72733,15.11412c0,0.57578 0.14394,1.43944 -0.71972,1.43944c-0.86366,0 -0.71972,-0.86366 -0.71972,-1.43944c-0.43183,-6.76537 -1.43944,-13.38679 -2.3031,-20.15216c0,-0.43183 0.14394,-1.15155 -0.57578,-1.58338c-0.57578,1.00761 -0.28789,2.01522 -0.43183,3.02282c-2.15916,21.73555 -10.65186,40.44827 -26.62965,54.84268c-3.16677,3.02282 -6.76537,5.46987 -10.50791,7.77298c-1.43944,0.86366 -2.87888,1.72733 -4.31832,2.3031c-4.8941,2.01522 -8.20481,1.2955 -11.94735,-2.44705c-1.15155,-1.15155 -2.15916,-2.44705 -2.87888,-3.88649c-4.17438,-8.34875 -5.75776,-17.41723 -5.03804,-26.62965c0.43183,-4.60621 2.44705,-8.92453 4.03043,-13.24285c0.14394,-0.57578 0.57578,-1.00761 0.43183,-1.72733c-2.44705,-0.14394 -4.75015,-0.28789 -7.05326,-1.00761c-8.78059,-2.59099 -13.24285,-9.35636 -15.6899,-17.41723c-2.15916,-7.34115 -0.43183,-14.25046 3.02282,-20.72794c0.86366,-1.43944 0.71972,-2.3031 -0.43183,-3.31071c-4.8941,-4.46226 -7.91692,-10.07608 -11.08369,-15.83384c-1.72733,-3.16677 -2.44705,-6.62143 -3.31071,-9.93214c-2.87888,-10.50791 -7.1972,-20.44005 -11.65947,-30.37219c-2.01522,-4.31832 -0.43183,-8.4927 3.74254,-10.7958c3.02282,-1.58338 6.33354,-1.87127 9.64425,-2.01522c12.0913,-0.28789 23.46288,2.15916 34.40262,7.05326c15.11412,6.76537 29.22064,15.25807 41.16799,26.91753c5.03804,5.03804 9.06847,10.65186 12.23524,17.27328c0.43183,-1.00761 0.86366,-1.87127 1.43944,-2.73494c0.43183,-0.57578 0.28789,-1.00761 -0.28789,-1.43944c-3.31071,-3.02282 -3.88649,-6.47748 -1.43944,-10.36397c0.28789,-0.43183 0.43183,-1.00761 0.28789,-1.58338c-3.20862,-9.12451 -6.83631,-18.10932 -11.80751,-26.41925c-0.78039,0.15813 -1.58804,0.24113 -2.41507,0.24113c-6.68044,0 -12.096,-5.41556 -12.096,-12.096z"></path><path d="M100.8,35c0,-3.97645 3.22355,-7.2 7.2,-7.2c3.97645,0 7.2,3.22355 7.2,7.2c0,3.97645 -3.22355,7.2 -7.2,7.2c-3.97645,0 -7.2,-3.22355 -7.2,-7.2z"></path></g></svg>