<svg version="1.1" xmlns="http://www.w3.org/2000/svg" xmlns:xlink="http://www.w3.org/1999/xlink" width="216" height="178.6873" viewBox="20.16,20.16,216,178.6873"><g fill="none" fill-rule="nonzero" stroke="#000000" stroke-width="1px" stroke-linecap="butt" stroke-linejoin="miter" stroke-miterlimit="10" stroke-dasharray="" stroke-dashoffset="0" font-family="none" font-weight="none" font-size="none" text-anchor="none" style="mix-blend-mode: normal"><path d="M38.464,49.098l-2.32185,-3.75143l0.07085,-0.00557l6.122,0.249l0.80139,0.10447z"></path><path d="M58.77,58.183l-4.277,-0.75l-1.29841,-9.9957l1.44741,0.3227l5.973,1.89l1.37889,0.56482z"></path><path d="M69.619,67.498l-6.978,-7.364l3.35063,-8.28162l0.54837,0.22462l5.914,2.797l3.09741,1.61317z"></path><path d="M78.193,78.811l-3.841,-1.374l-1.913,-6.064l6.92016,-12.84451l4.64884,2.68051l4.42609,2.84096z"></path><path d="M88.102,86.367l-6.194,-5.332l10.07325,-14.51948l2.79575,2.00648l5.049,4.07l0.51807,0.47089z"></path><path d="M93.952,95.236l-3.036,-5.546l12.62536,-13.72097l0.97364,0.88497l4.157,4.536l1.86409,2.55481z"></path><path d="M99.469,108.969l-2.174,0.182l-1.726,-9.789l17.3842,-11.83659l2.5118,4.40759l0.66599,0.90234z"></path><path d="M132.819,105.696l-2.147,0.257l-4.74242,-11.76837l1.12242,-0.97663l0.482,-0.677l0.321,0.633l1.098,1.29l1.369,0.998l1.564,0.651l0.2898,0.04625z"></path><path d="M152.055,94.107l-10.533,13.075l-4.356,-1.245l-0.68086,-10.09886l0.37386,-0.12114l1.445,-0.884l1.199,-1.198l0.492,-0.707l3.09177,-5.06372z"></path><path d="M161.211,89.012l-5.729,2.217l-9.94106,-6.92065l1.18506,-1.71135l4.017,-4.64l1.4266,-1.35103z"></path><path d="M177.266,65.365l-0.5,0.506l-3.22572,-5.15725l3.09249,-1.8955z"></path><path d="M190.946,54.458l-8.08956,0.95676l5.43956,-2.61476l1.71556,-0.69776z"></path><path d="M206.516,58.911l-1.534,2.939l-2.031,1.439l-7.09,-8.156l-1.8477,-4.65836l0.2327,-0.09464l6.045,-1.993l3.89146,-0.9635z"></path><path d="M218.244,51.05l-7.949,4.76l-1.88038,-9.25677l4.16138,-0.66023l6.159,-0.381l0.11624,0.00486z"></path><path d="M222.604,50.922l0.57334,-5.2242l1.12866,0.0472l3.361,1.036l0.616,0.835l-0.6,2.671l-0.97699,2.18243z"></path><path d="M209.713,62.122l0.705,-1.349l10.07,-6.031l4.45923,1.68178l-2.52223,5.98322l-0.093,0.231l-1.35814,3.56048z"></path><path d="M203.494,76.01l-0.203,-3.967l0.137,-2.545l0.887,-1.882l2.667,-1.889l12.5006,4.52544l-1.8666,5.68756l-0.106,0.351l-1.1218,4.11654z"></path><path d="M199.745,86.703l2.842,-6.438l12.47429,4.2542l-1.41929,3.7348l-2.882,5.314l-0.3298,0.48596z"></path><path d="M189.815,100.548l-2.548,-2.507l9.874,-7.886l10.86318,7.4737l-0.64018,0.9433l-4.267,4.755l-0.84134,1.19514z"></path><path d="M202.686,119.468l-2.262,-1.986l2.80639,-1.77574l0.21061,0.69374l0.83432,3.15553z"></path><path d="M201.36,133.964l2.73743,-2.65312l-0.15743,0.60912l-1.5789,2.85332z"></path><path d="M194.34,134.556l2.57,1.365l2.80114,2.26463l-1.46714,1.52737l-3.988,2.04l-3.73229,0.5746l-4.06571,-7.9676z"></path><path d="M181.657,134.457l4.60055,9.01554l-0.76655,0.42546l-1.248,1.145l-0.946,1.405l-0.592,1.588l-0.204,1.681l0.15338,1.31846l-7.16238,-3.42246l5.698,-13.241z"></path><path d="M181.155,167.352l-1.633,-0.157l5.17613,-7.88021l1.20887,4.12921l0.36554,3.87565z"></path><path d="M184.49,171.651l1.75716,-0.0111l-0.2259,3.18337z"></path><path d="M176.924,184.594l5.81874,1.93689l-2.02174,3.15711l-2.085,1.377l-2.627,-0.403l-1.34054,-0.74893z"></path><path d="M173.371,181.907l-2.46395,5.81095l-4.40305,-3.16395l-3.68781,-3.20512l7.25781,-7.36388z"></path><path d="M166.681,168.638l1.142,1.475l-8.07732,8.19575l-2.21368,-2.32175l-3.857,-4.888l-0.6521,-0.99999l3.2251,-2.09701z"></path><path d="M152.894,165.03l-2.23074,1.45053l-0.40726,-0.62453l-2.972,-5.542l-1.43859,-3.2942l2.65659,-1.0818z"></path><path d="M152.365,144.739l-4.254,6.694l-3.89368,1.58557l-1.61732,-4.54057l-1.56496,-5.58548l10.12896,-1.99552z"></path><path d="M153.558,126.515l-2.654,10.03l-10.69454,2.1068l-0.42046,-2.2898l-0.44,-6.464l-0.3031,-1.61234l8.3151,-6.63766z"></path><path d="M140.843,111.481l3.743,6.854l-8.02883,6.40918l-0.57117,-0.45918l-1.531,-0.724l-1.659,-0.346l-1.693,0.051l-1.634,0.446l-0.705,0.387l-0.204,-0.148l-1.567,-0.643l-0.31481,-0.04889l-3.08719,-10.12611l6.266,-2.733l5.081,-0.607z"></path><path d="M119.344,114.016l2.93168,9.61627l-0.25468,0.08373l-1.441,0.891l-1.193,1.203l-0.879,1.448l-0.438,1.256l-0.9425,3.81158l-16.8595,-3.64958l-8.841,-5.441l5.411,-9.711l3.629,-0.303z"></path><path d="M113.734,146.831l-9.239,-12.82l11.80085,2.55443l-0.69585,4.30457l-1.43876,6.09274z"></path><path d="M104.588,158.63l8.21706,-7.40056l-0.58206,1.82256l-2.398,5.813l-1.04274,2.01801z"></path><path d="M100.268,161.214l6.50507,3.49385l-3.16507,4.98815l-2.8695,3.74338l-10.9025,-9.32038l1.7,-3.346z"></path><path d="M84.887,176.911l-0.287,-2.765l3.131,-6.143l10.19101,8.71216l-2.37201,2.59084l-4.539,4.228l-0.73213,0.54538z"></path><path d="M82.918,181.479l3.89665,5.18099l-0.73565,0.54801l-4.747,2.885l-3.1,0.866l-1.19619,-0.53884z"></path><path d="M80.572,177.186l-6.55844,9.96852l-0.25256,-0.33752l-1.981,-5.03l-0.97418,-4.07999l9.66618,-1.49201z"></path><path d="M83.778,166.245l-2.815,5.524l-10.80407,1.66751l-0.31493,-3.24651l0.213,-5.577l0.46892,-1.74033z"></path><path d="M88.011,158.173l-2.111,4.154l-14.2081,-3.61561l2.1731,-5.68839l0.414,-1.643l0.019,-1.694l-0.25378,-1.11207l11.60078,-7.09993z"></path><path d="M87.293,125.063l-1.938,11.524l-13.64757,8.35257l-0.98643,-0.73257l-1.69,-0.701l-5.404,-1.472l-1.64606,-0.67751l8.99006,-15.16449l2.871,-2.092z"></path><path d="M64.916,127.934l-6.81326,11.49225l-2.70574,-2.38425l-2.588,-4.255l-0.65515,-1.93391z"></path><path d="M68.046,120.212l1.715,1.516l-1.333,0.972l-17.33548,3.96504l-0.21252,-3.59804l1.116,-5.005l0.72177,-1.60502z"></path><path d="M65.241,115.077l-10.72219,-2.62675l0.50719,-1.61025l0.116,-1.69l-0.281,-1.67l-0.999,-2.088l-1.89199,-2.72024l5.76299,-3.89176z"></path><path d="M58.233,87.504l-1.522,6.753l-7.22371,4.87818l-3.27229,-4.52218l-2.51627,-4.3519l9.17527,-4.2501z"></path><path d="M49.27,82.919l-7.39845,3.42717l-1.05755,-2.44617l-1.655,-6.148l-0.094,-0.318l-0.38589,-1.20869l4.13489,-1.31931z"></path><path d="M43.476,62.737l-1.752,7.982l-4.35878,1.39093l-0.39522,-1.23793l-0.107,-0.312l-2.394,-6.459l-0.089,-0.229l-0.70768,-1.72628l5.15668,-2.10872z"></path><path d="M35.818,53.031l0.693,3.287l-4.4772,1.83082l-0.2668,-0.65082l-0.063,-0.148l-2.634,-6.04l-1.163,-3.442l0.448,-0.96l2.639,-1.157l0.30332,-0.02383z"></path><path d="M199.002,121.983l-5.262,8.238l-5.404,-0.135l7.529,-10.858z"></path><path d="M199.227,77.18l-3.943,8.931l-12.098,9.661l-3.173,0.254l-8.331,-6.803l1.067,-5.29l2.082,-4.633l24.266,-4.663z"></path><path d="M179.642,171.547l4.87599,10.09826l-0.27267,0.83219l-6.91632,-2.30245l-3.489,-8.384l2.11,-0.599z"></path><path d="M97.952,132.323l11.569,16.051l-9.443,8.504l-7.944,-0.4l-2.626,-18.536l1.648,-9.801z"></path><path d="M77.92,83.301l8.65,7.446l4.564,8.34l2.117,11.999l-5.398,9.686l-13.764,-0.985l-3.242,-2.865l-9.948,-21.593l1.793,-7.96l10.138,-5.889z"></path><path d="M59.042,62.617l9.152,9.659l1.84,5.832l-9.54,5.541l-6.56,-1.827l-8.035,-9.972l1.879,-8.558l4.968,-1.778z"></path><path d="M182.022,155.521l-7.634,11.624l-2.787,0.791l-1.656,-2.138l-0.062,-12.536l3.009,-2.104z"></path><path d="M165.563,153.424l0.054,10.821l-8.555,-0.521l-5.03,-10.407l3.433,-5.403z"></path><path d="M196.756,114.692l-4.047,-8.685l8.65957,2.76675l0.19843,1.45325l0.36173,1.19156z"></path><path d="M200.048,66.535l-0.038,0.083l-18.513,-2.376l-0.412,-4.267l12.024,-1.423z"></path><path d="M168.397,83.655l-0.854,4.235l-1.821,-0.023l-10.307,-14.143l6.683,-0.779z"></path><path d="M50.19,57.84l-4.049,1.45l-5.23,-3.04l-0.656,-3.112l8.518,-6.205z"></path><path d="M168.525,92.223l8.238,6.727l-7.983,21.834l-12.229,2.589l-7.516,-5.904l-4.142,-7.586l11.618,-14.42l8.492,-3.286z"></path><path d="M170.576,64.122l-1.04009,-0.86304l0.35271,-0.23599z"></path><path d="M198.625,130.598l4.337,-6.789l2.07233,0.11413l0.01756,0.44563z"></path><path d="M186.874,103.714l5.826,12.5l-9.768,14.083l-2.009,-0.363l-8.017,-7.852l7.966,-21.791l2.333,-0.186z"></path><path d="M197.17,70.608l-20.847,4.007l0.779,-2.836l0.85,-0.964l2.345,-2.371z"></path><path d="M172.699,71.498l-1.417,5.16l-0.861,1.916l-5.158,-8.768l-0.78966,-3.10506l1.15266,-0.82594l0.16495,-0.11037z"></path><path d="M126.498,107.152l-5.942,2.591l-15.023,-0.632l14.29411,-13.84103l1.10589,0.25603l0.87661,-0.00724z"></path><path d="M177.315,132.448l-6.369,14.8l-3.369,2.354l-11.05,-6.03l-1.632,-5.219l2.862,-10.82l11.956,-2.531z"></path><path d="M232.05187,40.59883c-2.01522,-1.2955 -4.31832,-1.87127 -6.62143,-2.01522c-9.06847,-0.86366 -17.993,0.28789 -26.62965,2.73494c-15.6899,4.46226 -29.50853,12.81102 -42.60743,22.45527c-9.35636,6.76537 -17.12934,15.11412 -22.16738,25.76598c-0.28789,-0.57578 -0.57578,-1.2955 -1.00761,-1.72733c-0.71972,-1.2955 -0.71972,-2.01522 0.43183,-3.16677c2.59099,-2.44705 3.02282,-6.33354 1.15155,-9.35636c-0.71972,-1.00761 -0.71972,-1.87127 -0.28789,-3.02282c2.01522,-5.90171 4.46226,-11.65947 7.1972,-17.41723c4.75015,-9.64425 10.65186,-18.42484 19.00061,-25.47809c4.75015,-4.03043 9.78819,-6.90931 16.12173,-7.48509c5.03804,-0.43183 8.63664,2.3031 10.07608,7.34115c1.2955,4.75015 0.43183,7.1972 -4.46226,9.93214c-2.15916,1.15155 -4.31832,0.28789 -6.33354,-0.71972c-1.43944,-0.86366 -1.43944,-2.44705 -1.43944,-4.03043c0.57578,0.28789 1.00761,0.43183 1.43944,0.57578c1.87127,0.71972 3.88649,0 4.75015,-1.72733c0.86366,-1.72733 0.43183,-3.74254 -1.00761,-5.03804c-1.58338,-1.15155 -3.5986,-1.00761 -5.03804,0.28789c-2.3031,2.15916 -3.02282,6.18959 -1.72733,9.21242c1.00761,2.44705 3.5986,3.5986 7.05326,3.45466c0.71972,0 1.58338,-0.14394 2.3031,-0.28789c3.88649,-0.86366 7.77298,-5.61382 7.1972,-9.50031c-0.43183,-3.31071 -1.87127,-6.33354 -4.03043,-8.78059c-1.15155,-1.2955 -2.44705,-2.15916 -4.17438,-2.3031c-4.31832,-0.28789 -8.63664,-0.28789 -12.66707,1.43944c-5.61382,2.44705 -10.50791,5.90171 -14.3944,10.65186c-9.64425,11.65947 -18.13695,23.89471 -22.02344,38.86489c-0.28789,0.86366 -0.43183,1.15155 -1.43944,0.71972c-1.87127,-0.71972 -3.74254,-0.71972 -5.61382,0c-1.15155,0.43183 -1.2955,0 -1.43944,-0.86366c-0.57578,-2.15916 -1.15155,-4.17438 -2.01522,-6.33354c-3.16677,-8.92453 -8.34875,-16.84145 -13.81863,-24.47049c-3.88649,-5.61382 -8.4927,-11.08369 -14.53835,-15.25807c-5.46987,-3.5986 -11.22763,-5.18199 -17.70512,-4.60621c-1.00761,0.14394 -2.01522,0.43183 -2.87888,0.86366c-4.60621,2.59099 -6.90931,10.36397 -4.60621,14.97018c2.15916,4.46226 7.91692,6.47748 12.52313,4.46226c1.00761,-0.43183 2.01522,-1.15155 2.44705,-2.3031c1.43944,-3.16677 1.43944,-6.90931 -1.43944,-9.78819c-1.43944,-1.43944 -3.45466,-1.58338 -5.03804,-0.43183c-1.58338,1.15155 -2.01522,3.31071 -1.15155,4.8941c0.86366,1.72733 2.87888,2.44705 4.75015,1.72733c0.43183,-0.14394 0.86366,-0.71972 1.43944,-0.43183c0,2.3031 -0.28789,3.16677 -1.2955,3.88649c-3.88649,2.73494 -10.50791,0 -11.37158,-4.60621c-1.15155,-6.47748 4.46226,-12.52313 10.93975,-11.80341c4.31832,0.57578 8.4927,1.87127 12.0913,4.46226c4.03043,3.02282 7.77298,6.33354 11.08369,10.07608c9.06847,10.93975 14.53835,23.75077 19.14456,36.84967c0.14394,0.57578 0,1.15155 -0.28789,1.58338c-2.44705,3.88649 -1.87127,7.34115 1.43944,10.36397c0.57578,0.43183 0.71972,0.86366 0.28789,1.43944c-0.57578,0.86366 -1.00761,1.72733 -1.43944,2.73494c-3.16677,-6.62143 -7.1972,-12.23524 -12.23524,-17.27328c-11.94735,-11.65947 -26.05387,-20.15216 -41.16799,-26.91753c-10.93975,-4.8941 -22.31132,-7.34115 -34.40262,-7.05326c-3.31071,0.14394 -6.62143,0.43183 -9.64425,2.01522c-4.17438,2.3031 -5.75776,6.47748 -3.74254,10.7958c4.46226,9.93214 8.78059,19.86428 11.65947,30.37219c0.86366,3.31071 1.58338,6.76537 3.31071,9.93214c3.16677,5.75776 6.18959,11.37158 11.08369,15.83384c1.15155,1.00761 1.2955,1.87127 0.43183,3.31071c-3.45466,6.47748 -5.18199,13.38679 -3.02282,20.72794c2.44705,8.06087 6.90931,14.82624 15.6899,17.41723c2.3031,0.71972 4.60621,0.86366 7.05326,1.00761c0.14394,0.71972 -0.28789,1.15155 -0.43183,1.72733c-1.58338,4.31832 -3.5986,8.63664 -4.03043,13.24285c-0.71972,9.21242 0.86366,18.28089 5.03804,26.62965c0.71972,1.43944 1.72733,2.73494 2.87888,3.88649c3.74254,3.74254 7.05326,4.46226 11.94735,2.44705c1.43944,-0.57578 2.87888,-1.43944 4.31832,-2.3031c3.74254,-2.3031 7.34115,-4.75015 10.50791,-7.77298c15.97779,-14.3944 24.47049,-33.10713 26.62965,-54.84268c0.14394,-1.00761 -0.14394,-2.01522 0.43183,-3.02282c0.71972,0.43183 0.57578,1.15155 0.57578,1.58338c0.86366,6.76537 1.87127,13.38679 2.3031,20.15216c0,0.57578 -0.14394,1.43944 0.71972,1.43944c0.86366,0 0.71972,-0.86366 0.71972,-1.43944c0.43183,-5.03804 1.00761,-10.07608 1.72733,-15.11412c0.28789,-2.3031 0.43183,-4.60621 1.00761,-6.76537c0.71972,0.28789 0.57578,0.86366 0.57578,1.2955c0.14394,9.50031 2.73494,18.42484 6.18959,27.20542c6.33354,15.6899 16.40962,28.35697 30.80402,37.2815c2.01522,1.2955 4.17438,2.3031 6.33354,3.16677c2.59099,0.86366 5.03804,0.57578 7.34115,-0.86366c2.44705,-1.58338 4.31832,-3.74254 5.75776,-6.18959c1.87127,-3.45466 2.87888,-7.1972 3.74254,-10.93975c2.01522,-8.92453 2.01522,-17.84906 -1.87127,-26.34176c-0.57578,-1.2955 -1.00761,-2.73494 -1.58338,-4.17438c2.01522,-0.28789 3.74254,-0.43183 5.61382,-0.71972c11.22763,-1.72733 17.84906,-14.53835 17.993,-22.45527c0.14394,-5.90171 -1.2955,-11.37158 -4.03043,-16.40962c-0.57578,-1.00761 -0.43183,-1.72733 0.28789,-2.44705c1.15155,-1.15155 2.3031,-2.3031 3.31071,-3.45466c4.8941,-6.47748 9.06847,-13.24285 11.08369,-21.30372c2.73494,-11.08369 7.34115,-21.5916 12.0913,-31.95557c2.01522,-4.03043 0.71972,-8.06087 -3.16677,-10.50791z"></path></g></svg>