<svg version="1.1" xmlns="http://www.w3.org/2000/svg" xmlns:xlink="http://www.w3.org/1999/xlink" width="216" height="178.6873" viewBox="20.16,20.16,216,178.6873"><g fill="none" fill-rule="nonzero" stroke="#ff0000" stroke-width="1px" stroke-linecap="butt" stroke-linejoin="miter" stroke-miterlimit="10" stroke-dasharray="" stroke-dashoffset="0" font-family="none" font-weight="none" font-size="none" text-anchor="none" style="mix-blend-mode: normal"><path d="M45.635,56.179l-3.46,-1.086l-6.03248,-9.74646l0.07048,-0.00554l6.122,0.249l5.26622,0.68653z"></path><path d="M60.076,54.957l-10.418,3.441l-0.049,-0.056l2.22589,-11.20784l2.80711,0.62584l5.973,1.89l1.37946,0.56505z"></path><path d="M72.832,61.535l-8.468,-5.661l1.62722,-4.02179l0.54878,0.22479l5.914,2.797l3.09759,1.61326z"></path><path d="M87.75,65.035l-11.258,-1.185l2.86708,-5.32156l4.64892,2.68056l4.42563,2.84067z"></path><path d="M91.614,70.494l-0.524,-2.693l0.89163,-1.28521l2.79537,2.00621l2.78305,2.24342z"></path><path d="M103.089,80.213l1.19662,-3.5675l0.22938,0.2085l4.157,4.536l0.1795,0.24601z"></path><path d="M118.659,102.989l-3.3321,-11.29833l0.1381,0.24233l1.006,1.363l1.296,1.091l1.516,0.757l0.0821,0.01901z"></path><path d="M132.528,101.359l-5.864,5.073l-3.09,0.369l-0.869,-0.567l0.99097,-10.98859l0.57503,-0.14341l1.503,-0.782l1.278,-1.112l0.482,-0.677l0.321,0.633l1.098,1.29l1.369,0.998l1.564,0.651l0.29073,0.0464z"></path><path d="M145.589,89.606l-3.726,9.548l-5.108,0.686l-0.26982,-4.00187l0.37382,-0.12113l1.445,-0.884l1.199,-1.198l0.492,-0.707l3.09179,-5.06375z"></path><path d="M160.159,84.64l-11.425,1.891l-3.19297,-2.22278l1.18497,-1.71122l4.017,-4.64l1.75333,-1.66046z"></path><path d="M175.674,83.681l-1.654,3.122l-8.376,-2.577l-9.9795,-10.86628l4.6025,-3.64472l3.86482,-2.76934z"></path><path d="M185.184,74.079l-6.629,6.17l-10.86571,-15.7545l3.46371,-2.3175l5.50761,-3.37582z"></path><path d="M196.53,68.536l-0.221,0.343l-7.447,2.927l-8.41902,-15.09069l2.02602,-1.11431l5.827,-2.801l1.71542,-0.6977z"></path><path d="M204.745,50.189l-2.875,13.866l-1.928,1.365l-5.92828,-14.94553l0.23228,-0.09447l6.045,-1.993l3.89212,-0.96366z"></path><path d="M217.142,46.238l-8.494,1.469l-0.2343,-1.15363l4.1623,-0.66037l4.9735,-0.30766z"></path><path d="M227.667,46.781l0.616,0.835l-0.3539,1.57546l-2.25431,-3.02454z"></path><path d="M214.12,63.717l5.792,-5.138l4.1645,-0.08968l-1.6515,3.91768l-0.093,0.231l-1.35806,3.56028z"></path><path d="M206.077,76.89l-5.634,-6.452l0.095,-0.148l4.086,-2.893l5.105,-0.676l9.75368,3.53119l-1.86668,5.68781l-0.106,0.351l-1.12166,4.116z"></path><path d="M208.372,89.199l-0.95,-7.285l7.63927,2.60525l-1.41927,3.73475l-2.44052,4.49997z"></path><path d="M189.253,104.81l6.138,-2.866l9.62769,-0.75847l-1.92169,2.14147l-0.975,1.385l-0.55437,1.39924z"></path><path d="M186.162,122.089l-7.645,-2.293l-3.098,-1.948l3.3,-9.156l2.618,-0.375l20.30141,2.14524l1.80259,5.93776l1.06744,4.03721z"></path><path d="M191.448,125.951l13.61793,-1.22604l0.09707,2.46304l-1.223,4.732l-1.57893,2.85337z"></path><path d="M184.917,126.225l14.79417,11.9606l-1.46717,1.5274l-3.988,2.04l-3.73241,0.57462l-8.68859,-17.02662z"></path><path d="M175.959,123.291l10.29853,20.18155l-0.76653,0.42545l-1.248,1.145l-0.946,1.405l-0.25296,0.67856l-7.84504,-24.31356z"></path><path d="M178.602,167.369l-0.439,-7.626l5.803,-2.69l0.08155,-0.01472l0.02945,0.12272l0.091,0.343l1.739,5.94l0.3656,3.87634z"></path><path d="M177.85,179.139l-2.059,-4.881l1.874,-2.563l8.58211,-0.05438l-0.22611,3.18638l-1.195,5.87819l-0.41658,1.27142z"></path><path d="M177.336,183.624l5.69156,2.46213l-2.30656,3.60187l-2.085,1.377l-2.627,-0.403l-1.34025,-0.74877z"></path><path d="M173.851,180.776l-2.94376,6.94208l-4.40324,-3.16408l-3.68822,-3.20547l5.13522,-5.21053l3.942,-0.005z"></path><path d="M163.962,174.031l-4.21617,4.27791l-2.21383,-2.32191l-3.857,-4.888l-0.65231,-1.00031l4.02731,-2.61869z"></path><path d="M155.222,163.516l-4.55882,2.9644l-0.40718,-0.6244l-2.972,-5.542l-1.43844,-3.29385l10.12844,-4.12415z"></path><path d="M158.796,144.819l-1.885,3.031l-12.69359,5.1688l-1.61741,-4.5408l-1.56494,-5.58539l17.86594,-3.51961z"></path><path d="M160.652,131.924l-1.127,2.922l-19.31558,3.80558l-0.42042,-2.28958l-0.44,-6.464l-0.21442,-1.14059z"></path><path d="M132.361,115.529l2.52031,8.2336l-0.42631,-0.2016l-1.659,-0.346l-1.693,0.051l-1.634,0.446l-0.705,0.387l-0.204,-0.148l-1.567,-0.643l-0.31456,-0.04886l-2.44244,-8.01214l0.688,-4.257l1.958,-0.234z"></path><path d="M110.685,130.931l10.374,-11.29l1.21676,3.99124l-0.25476,0.08376l-1.441,0.891l-1.193,1.203l-0.879,1.448l-0.438,1.256l-0.9425,3.8116z"></path><path d="M109.871,145.64l-4.051,-11.024l0.729,-0.16l9.74682,2.10961l-0.69582,4.30439l-1.43879,6.09286z"></path><path d="M105.813,154.595l3.268,-4.678l3.77181,1.16291l-0.62981,1.97209l-2.398,5.813l-0.28866,0.55865z"></path><path d="M96.791,170.065l0.843,-0.736l7.20672,-1.57577l-1.23272,1.94277l-2.86961,3.74353z"></path><path d="M92.621,172.183l5.30118,4.53197l-2.37218,2.59103l-4.539,4.228l-0.73213,0.54538l-5.39187,-7.16838l-0.287,-2.765l1.257,-2.467z"></path><path d="M82.918,181.479l3.89665,5.18099l-0.73565,0.54801l-4.747,2.885l-3.1,0.866l-1.19619,-0.53884z"></path><path d="M80.572,177.186l-6.55844,9.96852l-0.25256,-0.33752l-1.981,-5.03l-0.97418,-4.07999l9.66618,-1.49201z"></path><path d="M81.08,165.559l1.176,3.67l-1.294,2.54l-10.80309,1.66738l-0.31491,-3.24638l0.213,-5.577l0.46883,-1.74002z"></path><path d="M84.116,150.696l-2.866,10.448l-9.55816,-2.43246l2.17316,-5.68854l0.414,-1.643l0.019,-1.694l-0.25384,-1.1123l8.36984,-5.1227z"></path><path d="M81.846,138.734l-10.13883,6.20538l-0.98617,-0.73238l-1.69,-0.701l-5.404,-1.472l-1.6456,-0.67732l1.9326,-3.25968l19.323,-8.634z"></path><path d="M59.636,136.842l-1.5326,2.58484l-2.7064,-2.38484l-2.588,-4.255l-0.65492,-1.93323l0.54992,-0.12577z"></path><path d="M58.709,117.925l-6.639,8.517l-0.97745,0.22355l-0.21255,-3.59855l1.116,-5.005l0.72168,-1.60481z"></path><path d="M79.497,101.164l2.392,5.923l-0.485,2.138l-18.968,5.165l-7.91722,-1.93965l0.50722,-1.61035l0.116,-1.69l-0.281,-1.67l-0.999,-2.088l-1.89222,-2.72057l6.48022,-4.37643l16.956,-0.42z"></path><path d="M54.146,95.989l-4.65885,3.14599l-3.27215,-4.52199l-2.51618,-4.35175l2.18318,-1.01125z"></path><path d="M44.387,85.181l-2.51543,1.16521l-1.05757,-2.44621l-1.655,-6.148l-0.094,-0.318l-0.38612,-1.2094l9.01112,-2.8756z"></path><path d="M46.055,60.838l0.786,0.903l0.268,7.26l-9.74371,3.10915l-0.39529,-1.23815l-0.107,-0.312l-2.394,-6.459l-0.089,-0.229l-0.70775,-1.72643l7.18575,-2.93857z"></path><path d="M37.582,55.88l-5.54821,2.2688l-0.26679,-0.6508l-0.063,-0.148l-2.634,-6.04l-1.163,-3.442l0.448,-0.96l2.639,-1.157l0.30366,-0.02386z"></path><path d="M101.24,134.677l4.556,12.399l-3.953,5.66l-0.103,0.023l-13.586,-3.762l-2.123,-9.035l1.628,-10.848z"></path><path d="M100.21,75.21l-1.781,5.311l-11.524,10.337l4.527,-16.049z"></path><path d="M208.71,96.561l-7.389,0.582l4.685,-3.979z"></path><path d="M71.557,65.879l-3.624,11.673l-16.179,-7.257l-0.29,-0.431l-0.274,-7.423l10.19,-3.365z"></path><path d="M67.642,82.157l5.19,11.461l-14.323,0.354l-9.849,-8.031l3.051,-10.931z"></path><path d="M173.111,91.044l1.812,15.44l-3.692,10.247l-25.169,-16.454l3.723,-9.542l14.517,-2.402z"></path><path d="M114.624,104.576l-19.607,-0.469l15.596,-13.13z"></path><path d="M173.818,159.436l0.544,9.457l-2.135,2.919l-4.321,0.006l-8.379,-7.943l0.963,-13.6l0.954,-1.534z"></path><path d="M168.136,120.64l-5.448,7.217l-23.075,-3.396l-2.327,-7.606z"></path><path d="M86.981,69.299l0.619,3.182l-6.789,24.068l-0.054,0.086l-2.858,-2.299l-6.32,-13.957l3.818,-12.299z"></path><path d="M221.075,54.233l-0.406,-5.487l0.702,-1.124l4.68894,6.29063l-0.09616,0.21482z"></path><path d="M216.839,55.529l-7.81,6.928l-2.484,0.328l2.222,-10.715l7.718,-1.334z"></path><path d="M180.665,153.822l-4.386,2.032l-13.155,-11.371l0.14,-7.327l2.284,-5.918l5.485,-7.266z"></path><path d="M202.774,79.676l1.24,9.513l-10.361,8.799l-12.979,6.06l-1.659,0.238l-1.699,-14.475l2.619,-4.946l9.132,-8.499l8.055,-3.165z"></path><path d="M98.767,156.419l-3.942,9.628l-2.077,1.814l-6.55,-0.489l-1.173,-3.659l2.83,-10.317z"></path><path d="M106.77,162.909l-6.582,1.439l2.667,-6.515z"></path><path d="M83.435,124.643l-20.642,9.224l-6.538,-5.767l7.471,-9.584l17.78,-4.841z"></path><path d="M161.392,115.46l-26.227,-3.218l-4.293,-3.739l4.809,-4.16l7.223,-0.97z"></path><path d="M117.311,108.961l2.311,0.421l1.073,0.699l-0.701,4.334l-14.578,15.866l-2.282,0.504l-15.337,-6.283l-2.371,-13.478l0.499,-2.204l3.471,-0.527z"></path><path d="M109.519,86.251l-21.184,17.834l-2.827,0.429l-1.802,-4.461l0.764,-1.208l16.417,-14.726z"></path><path d="M232.05187,40.59883c-2.01522,-1.2955 -4.31832,-1.87127 -6.62143,-2.01522c-9.06847,-0.86366 -17.993,0.28789 -26.62965,2.73494c-15.6899,4.46226 -29.50853,12.81102 -42.60743,22.45527c-9.35636,6.76537 -17.12934,15.11412 -22.16738,25.76598c-0.28789,-0.57578 -0.57578,-1.2955 -1.00761,-1.72733c-0.71972,-1.2955 -0.71972,-2.01522 0.43183,-3.16677c2.59099,-2.44705 3.02282,-6.33354 1.15155,-9.35636c-0.71972,-1.00761 -0.71972,-1.87127 -0.28789,-3.02282c2.01522,-5.90171 4.46226,-11.65947 7.1972,-17.41723c4.75015,-9.64425 10.65186,-18.42484 19.00061,-25.47809c4.75015,-4.03043 9.78819,-6.90931 16.12173,-7.48509c5.03804,-0.43183 8.63664,2.3031 10.07608,7.34115c1.2955,4.75015 0.43183,7.1972 -4.46226,9.93214c-2.15916,1.15155 -4.31832,0.28789 -6.33354,-0.71972c-1.43944,-0.86366 -1.43944,-2.44705 -1.43944,-4.03043c0.57578,0.28789 1.00761,0.43183 1.43944,0.57578c1.87127,0.71972 3.88649,0 4.75015,-1.72733c0.86366,-1.72733 0.43183,-3.74254 -1.00761,-5.03804c-1.58338,-1.15155 -3.5986,-1.00761 -5.03804,0.28789c-2.3031,2.15916 -3.02282,6.18959 -1.72733,9.21242c1.00761,2.44705 3.5986,3.5986 7.05326,3.45466c0.71972,0 1.58338,-0.14394 2.3031,-0.28789c3.88649,-0.86366 7.77298,-5.61382 7.1972,-9.50031c-0.43183,-3.31071 -1.87127,-6.33354 -4.03043,-8.78059c-1.15155,-1.2955 -2.44705,-2.15916 -4.17438,-2.3031c-4.31832,-0.28789 -8.63664,-0.28789 -12.66707,1.43944c-5.61382,2.44705 -10.50791,5.90171 -14.3944,10.65186c-9.64425,11.65947 -18.13695,23.89471 -22.02344,38.86489c-0.28789,0.86366 -0.43183,1.15155 -1.43944,0.71972c-1.87127,-0.71972 -3.74254,-0.71972 -5.61382,0c-1.15155,0.43183 -1.2955,0 -1.43944,-0.86366c-0.57578,-2.15916 -1.15155,-4.17438 -2.01522,-6.33354c-3.16677,-8.92453 -8.34875,-16.84145 -13.81863,-24.47049c-3.88649,-5.61382 -8.4927,-11.08369 -14.53835,-15.25807c-5.46987,-3.5986 -11.22763,-5.18199 -17.70512,-4.60621c-1.00761,0.14394 -2.01522,0.43183 -2.87888,0.86366c-4.60621,2.59099 -6.90931,10.36397 -4.60621,14.97018c2.15916,4.46226 7.91692,6.47748 12.52313,4.46226c1.00761,-0.43183 2.01522,-1.15155 2.44705,-2.3031c1.43944,-3.16677 1.43944,-6.90931 -1.43944,-9.78819c-1.43944,-1.43944 -3.45466,-1.58338 -5.03804,-0.43183c-1.58338,1.15155 -2.01522,3.31071 -1.15155,4.8941c0.86366,1.72733 2.87888,2.44705 4.75015,1.72733c0.43183,-0.14394 0.86366,-0.71972 1.43944,-0.43183c0,2.3031 -0.28789,3.16677 -1.2955,3.88649c-3.88649,2.73494 -10.50791,0 -11.37158,-4.60621c-1.15155,-6.47748 4.46226,-12.52313 10.93975,-11.80341c4.31832,0.57578 8.4927,1.87127 12.0913,4.46226c4.03043,3.02282 7.77298,6.33354 11.08369,10.07608c9.06847,10.93975 14.53835,23.75077 19.14456,36.84967c0.14394,0.57578 0,1.15155 -0.28789,1.58338c-2.44705,3.88649 -1.87127,7.34115 1.43944,10.36397c0.57578,0.43183 0.71972,0.86366 0.28789,1.43944c-0.57578,0.86366 -1.00761,1.72733 -1.43944,2.73494c-3.16677,-6.62143 -7.1972,-12.23524 -12.23524,-17.27328c-11.94735,-11.65947 -26.05387,-20.15216 -41.16799,-26.91753c-10.93975,-4.8941 -22.31132,-7.34115 -34.40262,-7.05326c-3.31071,0.14394 -6.62143,0.43183 -9.64425,2.01522c-4.17438,2.3031 -5.75776,6.47748 -3.74254,10.7958c4.46226,9.93214 8.78059,19.86428 11.65947,30.37219c0.86366,3.31071 1.58338,6.76537 3.31071,9.93214c3.16677,5.75776 6.18959,11.37158 11.08369,15.83384c1.15155,1.00761 1.2955,1.87127 0.43183,3.31071c-3.45466,6.47748 -5.18199,13.38679 -3.02282,20.72794c2.44705,8.06087 6.90931,14.82624 15.6899,17.41723c2.3031,0.71972 4.60621,0.86366 7.05326,1.00761c0.14394,0.71972 -0.28789,1.15155 -0.43183,1.72733c-1.58338,4.31832 -3.5986,8.63664 -4.03043,13.24285c-0.71972,9.21242 0.86366,18.28089 5.03804,26.62965c0.71972,1.43944 1.72733,2.73494 2.87888,3.88649c3.74254,3.74254 7.05326,4.46226 11.94735,2.44705c1.43944,-0.57578 2.87888,-1.43944 4.31832,-2.3031c3.74254,-2.3031 7.34115,-4.75015 10.50791,-7.77298c15.97779,-14.3944 24.47049,-33.10713 26.62965,-54.84268c0.14394,-1.00761 -0.14394,-2.01522 0.43183,-3.02282c0.71972,0.43183 0.57578,1.15155 0.57578,1.58338c0.86366,6.76537 1.87127,13.38679 2.3031,20.15216c0,0.57578 -0.14394,1.43944 0.71972,1.43944c0.86366,0 0.71972,-0.86366 0.71972,-1.43944c0.43183,-5.03804 1.00761,-10.07608 1.72733,-15.11412c0.28789,-2.3031 0.43183,-4.60621 1.00761,-6.76537c0.71972,0.28789 0.57578,0.86366 0.57578,1.2955c0.14394,9.50031 2.73494,18.42484 6.18959,27.20542c6.33354,15.6899 16.40962,28.35697 30.80402,37.2815c2.01522,1.2955 4.17438,2.3031 6.33354,3.16677c2.59099,0.86366 5.03804,0.57578 7.34115,-0.86366c2.44705,-1.58338 4.31832,-3.74254 5.75776,-6.18959c1.87127,-3.45466 2.87888,-7.1972 3.74254,-10.93975c2.01522,-8.92453 2.01522,-17.84906 -1.87127,-26.34176c-0.57578,-1.2955 -1.00761,-2.73494 -1.58338,-4.17438c2.01522,-0.28789 3.74254,-0.43183 5.61382,-0.71972c11.22763,-1.72733 17.84906,-14.53835 17.993,-22.45527c0.14394,-5.90171 -1.2955,-11.37158 -4.03043,-16.40962c-0.57578,-1.00761 -0.43183,-1.72733 0.28789,-2.44705c1.15155,-1.15155 2.3031,-2.3031 3.31071,-3.45466c4.8941,-6.47748 9.06847,-13.24285 11.08369,-21.30372c2.73494,-11.08369 7.34115,-21.5916 12.0913,-31.95557c2.01522,-4.03043 0.71972,-8.06087 -3.16677,-10.50791z"></path></g></svg>