<svg version="1.1" xmlns="http://www.w3.org/2000/svg" xmlns:xlink="http://www.w3.org/1999/xlink" width="216" height="178.6873" viewBox="20.16,20.16,216,178.6873"><g fill="none" fill-rule="nonzero" stroke="#000000" stroke-width="1px" stroke-linecap="butt" stroke-linejoin="miter" stroke-miterlimit="10" stroke-dasharray="" stroke-dashoffset="0" font-family="none" font-weight="none" font-size="none" text-anchor="none" style="mix-blend-mode: normal"><path d="M59.918,55.347l-5.05316,0.03533l-2.10884,-0.66733l-2.32318,-0.51773l1.40257,-7.06301l2.80661,0.62573l5.973,1.89l1.3793,0.56499z"></path><path d="M63.889,57.049l2.10252,-5.19667l0.54848,0.22467l5.914,2.797l3.09776,1.61335l-3.41499,6.33853l-2.85877,-1.48888l-2.6153,-1.23705z"></path><path d="M79.35882,58.52829l4.64918,2.68071l4.4261,2.84097l-4.1073,5.92008l-4.08581,-2.62205l-4.2984,-2.47902z"></path><path d="M91.98188,66.51597l2.79512,2.00603l5.049,4.07l0.51778,0.47063l-4.87572,5.29859l-0.33906,-0.30822l-4.71,-3.796l-2.542,-1.82411z"></path><path d="M103.54111,75.9688l0.97389,0.8852l4.157,4.536l1.86401,2.55469l-5.95462,4.05408l-1.48638,-2.03677l-3.667,-4.001l-0.76273,-0.69335z"></path><path d="M118.36404,94.68512l-0.59704,-0.29812l-1.296,-1.091l-1.006,-1.363l-2.51183,-4.40764l-5.59817,3.81164l4.969,3.694z"></path><path d="M123.622,96.054l0.07295,-0.80834l0.57605,-0.14366l1.503,-0.782l1.278,-1.112l0.482,-0.677l0.321,0.633l1.098,1.29l1.369,0.998l1.564,0.651l0.2898,0.04625l0.49403,7.3328l-1.55284,-0.16805l-2.308,-0.649l-0.50866,-0.2403z"></path><path d="M136.48514,95.83814l0.37386,-0.12114l1.445,-0.884l1.199,-1.198l0.492,-0.707l3.09189,-5.06391l5.92005,4.12069l-2.86694,4.69522l-1.867,2.431l-1.793,1.592l-2.032,1.273l-2.216,0.917l-1.25183,0.28765z"></path><path d="M145.54091,84.3084l1.18509,-1.7114l4.017,-4.64l1.75384,-1.66094l4.87103,5.30357l-1.41387,1.33837l-3.526,4.073l-0.97743,1.41155z"></path><path d="M155.6649,73.3594l4.6021,-3.6444l2.55417,-1.83019l3.47687,6.36587l-1.68804,1.20933l-4.06153,3.21677z"></path><path d="M172.483,61.3618l4.17751,-2.56056l3.51034,6.29218l-1.32573,0.81279z"></path><path d="M180.4433,56.71513l2.0257,-1.11413l5.827,-2.801l1.71519,-0.69761l2.65485,6.69319l-1.45104,0.59041l-5.447,2.618l-1.81675,0.99881z"></path><path d="M204.1823,47.42354l-3.8913,0.96346l-6.045,1.993l-0.2328,0.09469l2.1138,5.32931l8.069,-8.313z"></path><path d="M218.85124,45.51686l-0.11624,-0.00486l-6.159,0.381l-4.16141,0.66023l0.08141,0.40077l4.054,3.097l4.767,1.554l0.927,-0.555z"></path><path d="M226.70601,52.46943l0.97699,-2.18243l0.6,-2.671l-0.616,-0.835l-3.361,-1.036l-1.12866,-0.0472l-0.57334,5.2242z"></path><path d="M220.97397,66.1982l1.35803,-3.5602l0.093,-0.231l2.52247,-5.9838l-4.45947,-1.6822l-1.003,0.601l-2.166,9.533z"></path><path d="M214.908,68.597l4.57445,1.65588l-1.86645,5.68712l-0.106,0.351l-1.12178,4.11644l-6.82754,-2.32856l1.00332,-3.68088l0.211,-0.703l1.21216,-3.69519z"></path><path d="M215.06129,84.51919l-1.41929,3.73481l-0.41838,0.77144l-5.5425,-5.35474l0.56145,-1.47695z"></path><path d="M207.00502,98.97204l-3.90802,4.35496l-0.975,1.385l-0.55446,1.39948l-7.20505,-0.76136l0.07651,-0.51412l0.742,-2.28l1.11,-2.126l1.447,-1.912l3.0409,-3.38795z"></path><path d="M203.836,120.498l-9.02422,-7.73603l-0.13478,-0.44397l-0.53186,-2.6476l7.49332,0.79198l1.80254,5.93762l1.0675,4.03745z"></path><path d="M202.36112,134.77327l1.57888,-2.85327l1.223,-4.732l-0.09708,-2.46341l-0.75992,0.06841l-5.217,7.335z"></path><path d="M190.52343,142.32765l3.73257,-0.57465l3.988,-2.04l1.46686,-1.52708l-3.43486,-2.77692l-7.292,3.902z"></path><path d="M181.331,139.11l1.52229,8.52822l0.44371,-1.19022l0.946,-1.405l1.248,-1.145l0.76661,-0.42549l-1.68061,-3.29351z"></path><path d="M182.704,157.282l1.3438,-0.24268l0.0292,0.12168l0.091,0.343l1.739,5.94l0.36558,3.8761l-7.22771,0.0458l-0.24187,-2.5599l-1.41373,-4.83138z"></path><path d="M177.85,179.139l-0.04957,-0.11747l0.05557,-0.16953l1.016,-5.001l0.15362,-2.16433l7.22147,-0.0458l-0.22609,3.18612l-1.195,5.87819l-0.41658,1.27142z"></path><path d="M174.66875,189.91323l1.34025,0.74877l2.627,0.403l2.085,-1.377l2.30656,-3.60187l-5.69156,-2.46213z"></path><path d="M170.90724,187.71808l-4.40324,-3.16408l-3.68804,-3.20532l5.06359,-5.13774l3.09145,2.68706l2.81782,2.02463z"></path><path d="M159.74615,178.30924l-2.21415,-2.32224l-3.857,-4.888l-0.65203,-0.99988l6.03559,-3.92438l0.46445,0.71226l3.449,4.371l1.831,1.92052z"></path><path d="M147.0243,159.71932l0.2597,0.59468l2.972,5.542l0.40731,0.62461l5.02369,-3.26661z"></path><path d="M143.7285,151.64621l-1.1285,-3.16821l-1.56491,-5.5853l7.08629,-1.39594l1.0079,3.59815z"></path><path d="M140.2094,138.65149l-0.4204,-2.28949l-0.44,-6.464l-0.30307,-1.6122l5.79498,-4.62583l0.58009,1.10103l0.75,2.278l0.361,2.37l0.412,6.051l0.33049,1.79944z"></path><path d="M136.55749,124.74444l-0.57149,-0.45944l-1.531,-0.724l-1.659,-0.346l-1.693,0.051l-1.634,0.446l-0.705,0.387l-0.204,-0.148l-1.567,-0.643l-0.31497,-0.04892l-2.25486,-7.39554l2.32183,0.07846l2.224,0.453l0.84,-0.213l2.39,-0.194l2.389,0.205l2.322,0.599l2.191,0.976l1.998,1.326l1.16753,1.09348z"></path><path d="M116.057,132.094l-4.53551,-6.74129l0.03251,-0.10571l1.017,-2.172l1.362,-1.973l1.672,-1.72l1.933,-1.418l2.142,-1.078l0.49278,-0.15207l2.103,6.89831l-0.25477,0.08376l-1.441,0.891l-1.193,1.203l-0.879,1.448l-0.438,1.256l-0.94253,3.81171z"></path><path d="M114.16119,146.96297l1.43881,-6.09297l0.69585,-4.30456l-0.70885,-0.15344l-7.163,8.782z"></path><path d="M105.774,159.267l-1.40843,-6.04739l1.08743,-2.63661l0.51879,-1.62474l6.88104,2.12158l-0.62983,1.97216l-2.398,5.813l-1.04271,2.01796z"></path><path d="M100.7387,173.43912l2.8693,-3.74312l3.16539,-4.98867l-2.57539,-1.38333l-7.502,6.659z"></path><path d="M92.555,172.127l5.367,4.58817l-2.372,2.59083l-4.539,4.228l-0.73213,0.54538l-4.32769,-5.75358l0.44682,-0.3328l4.038,-3.763l1.93534,-2.1139z"></path><path d="M77.03581,190.42016l1.19619,0.53884l3.1,-0.866l4.747,-2.885l0.73565,-0.54801l-3.89665,-5.18099z"></path><path d="M74.01356,187.15452l-0.25256,-0.33752l-1.981,-5.03l-0.97423,-4.08022l7.13998,-1.10212l0.72026,3.01834l0.11336,0.28773z"></path><path d="M70.52608,162.87207l-0.46908,1.74093l-0.213,5.577l0.31492,3.24642l6.08008,-0.93842l-4.935,-9.428z"></path><path d="M73.37348,154.30963l-1.68192,4.40266l0.63545,0.16171l3.896,-2.8z"></path><path d="M70.77568,144.24761l-0.05468,-0.04061l-1.69,-0.701l-5.404,-1.472l-1.64606,-0.67751l3.71018,-6.25835l0.26188,0.10786l4.97,1.353l2.288,0.837l2.083,1.189l0.56718,0.46358z"></path><path d="M58.10274,139.42625l-2.70574,-2.38425l-2.588,-4.255l-0.65515,-1.93391l7.05527,-1.61375l0.16488,0.48666l1.605,2.639l0.86057,0.75816z"></path><path d="M51.09252,126.66504l-0.21252,-3.59804l1.116,-5.005l0.72172,-1.6049l7.11175,1.74225l-0.96547,2.14665l-0.736,3.304l0.08171,1.38717z"></path><path d="M54.51883,112.45018l0.50717,-1.61018l0.116,-1.69l-0.281,-1.67l-0.999,-2.088l-1.89226,-2.72063l5.96685,-4.02977l1.83541,2.6384l1.38,2.471l0.772,2.27l0.384,2.367l-0.014,2.398l-0.412,2.362l-0.35914,1.01801z"></path><path d="M49.48697,99.13473l-3.27197,-4.52173l-2.51621,-4.35181l6.56019,-3.03873l2.00702,3.47153l3.19099,4.40917z"></path><path d="M41.87148,86.34601l-1.05748,-2.44601l-1.655,-6.148l-0.094,-0.318l-0.38596,-1.2089l6.8597,-2.18882l0.38526,1.20672l0.188,0.638l1.518,5.641l0.77668,1.79665z"></path><path d="M37.36502,72.1093l-0.39502,-1.2373l-0.107,-0.312l-2.394,-6.459l-0.089,-0.229l-0.70783,-1.72665l6.66427,-2.72546l0.70556,1.72111l0.178,0.458l2.394,6.459l0.215,0.623l0.39558,1.23903z"></path><path d="M29.25766,51.74033l2.44634,5.60967l0.063,0.148l0.26679,0.6508l5.54821,-2.2688l-1.867,-3.015z"></path><path d="M208.536,52.421l-1.2035,1.63993l-4.59794,1.13896l4.01944,-4.14089z"></path><path d="M113.982,99.263l6.369,-0.365l2.77879,3.78408l-2.16679,0.06692l-2.376,-0.325l-2.289,-0.715l-2.138,-1.085l-0.08065,-0.05953z"></path><path d="M101.496,159.946l-0.61706,0.54765l0.51338,-0.99293z"></path><path d="M80.31,153.524l-6.01328,-3.72401l0.00128,-0.11399l-0.377,-1.652l-0.27132,-0.5466l5.22599,-5.34232l1.11133,1.80392l0.901,2.222l0.52,2.341l0.124,2.394l-0.25625,2.22054z"></path><path d="M34.548,45.4718l-3.554,0.2792l-2.639,1.157l-0.12506,0.268l6.49006,1.13z"></path><path d="M75.554,161.875l3.63506,-2.61304l-0.79306,2.07604l-1.06097,3.93958z"></path><path d="M185.894,136.064l-0.29528,-0.09725l0.86708,-0.20868z"></path><path d="M200.218,123.087l-2.29479,3.22779l-0.12121,-3.07379l-0.7603,-2.87672z"></path><path d="M112.063,133.896l-3.2776,4.01849l0.7666,-4.74449l0.237,-1.16l0.27014,-1.09247z"></path><path d="M211.086,92.96689l-0.326,0.60111l-1.26496,1.86392l-6.1331,-3.78464l1.24306,-1.83229l1.10663,-2.04023z"></path><path d="M146.64,154.905l4.11476,-4.99125l0.68424,1.92025l2.329,5.335l0.41828,0.78037z"></path><path d="M179.602,154.011l-3.28569,1.66445l-0.61831,-2.57645l-0.349,-2.175l0.003,-2.397l0.4,-2.365l0.787,-2.265l0.94895,-1.73233z"></path><path d="M166.37299,65.37521l2.21884,-1.48458l6.26214,4.47319l-5.01571,3.35606z"></path><path d="M232.05187,40.59883c-2.01522,-1.2955 -4.31832,-1.87127 -6.62143,-2.01522c-9.06847,-0.86366 -17.993,0.28789 -26.62965,2.73494c-15.6899,4.46226 -29.50853,12.81102 -42.60743,22.45527c-9.35636,6.76537 -17.12934,15.11412 -22.16738,25.76598c-0.28789,-0.57578 -0.57578,-1.2955 -1.00761,-1.72733c-0.71972,-1.2955 -0.71972,-2.01522 0.43183,-3.16677c2.59099,-2.44705 3.02282,-6.33354 1.15155,-9.35636c-0.71972,-1.00761 -0.71972,-1.87127 -0.28789,-3.02282c2.01522,-5.90171 4.46226,-11.65947 7.1972,-17.41723c4.75015,-9.64425 10.65186,-18.42484 19.00061,-25.47809c4.75015,-4.03043 9.78819,-6.90931 16.12173,-7.48509c5.03804,-0.43183 8.63664,2.3031 10.07608,7.34115c1.2955,4.75015 0.43183,7.1972 -4.46226,9.93214c-2.15916,1.15155 -4.31832,0.28789 -6.33354,-0.71972c-1.43944,-0.86366 -1.43944,-2.44705 -1.43944,-4.03043c0.57578,0.28789 1.00761,0.43183 1.43944,0.57578c1.87127,0.71972 3.88649,0 4.75015,-1.72733c0.86366,-1.72733 0.43183,-3.74254 -1.00761,-5.03804c-1.58338,-1.15155 -3.5986,-1.00761 -5.03804,0.28789c-2.3031,2.15916 -3.02282,6.18959 -1.72733,9.21242c1.00761,2.44705 3.5986,3.5986 7.05326,3.45466c0.71972,0 1.58338,-0.14394 2.3031,-0.28789c3.88649,-0.86366 7.77298,-5.61382 7.1972,-9.50031c-0.43183,-3.31071 -1.87127,-6.33354 -4.03043,-8.78059c-1.15155,-1.2955 -2.44705,-2.15916 -4.17438,-2.3031c-4.31832,-0.28789 -8.63664,-0.28789 -12.66707,1.43944c-5.61382,2.44705 -10.50791,5.90171 -14.3944,10.65186c-9.64425,11.65947 -18.13695,23.89471 -22.02344,38.86489c-0.28789,0.86366 -0.43183,1.15155 -1.43944,0.71972c-1.87127,-0.71972 -3.74254,-0.71972 -5.61382,0c-1.15155,0.43183 -1.2955,0 -1.43944,-0.86366c-0.57578,-2.15916 -1.15155,-4.17438 -2.01522,-6.33354c-3.16677,-8.92453 -8.34875,-16.84145 -13.81863,-24.47049c-3.88649,-5.61382 -8.4927,-11.08369 -14.53835,-15.25807c-5.46987,-3.5986 -11.22763,-5.18199 -17.70512,-4.60621c-1.00761,0.14394 -2.01522,0.43183 -2.87888,0.86366c-4.60621,2.59099 -6.90931,10.36397 -4.60621,14.97018c2.15916,4.46226 7.91692,6.47748 12.52313,4.46226c1.00761,-0.43183 2.01522,-1.15155 2.44705,-2.3031c1.43944,-3.16677 1.43944,-6.90931 -1.43944,-9.78819c-1.43944,-1.43944 -3.45466,-1.58338 -5.03804,-0.43183c-1.58338,1.15155 -2.01522,3.31071 -1.15155,4.8941c0.86366,1.72733 2.87888,2.44705 4.75015,1.72733c0.43183,-0.14394 0.86366,-0.71972 1.43944,-0.43183c0,2.3031 -0.28789,3.16677 -1.2955,3.88649c-3.88649,2.73494 -10.50791,0 -11.37158,-4.60621c-1.15155,-6.47748 4.46226,-12.52313 10.93975,-11.80341c4.31832,0.57578 8.4927,1.87127 12.0913,4.46226c4.03043,3.02282 7.77298,6.33354 11.08369,10.07608c9.06847,10.93975 14.53835,23.75077 19.14456,36.84967c0.14394,0.57578 0,1.15155 -0.28789,1.58338c-2.44705,3.88649 -1.87127,7.34115 1.43944,10.36397c0.57578,0.43183 0.71972,0.86366 0.28789,1.43944c-0.57578,0.86366 -1.00761,1.72733 -1.43944,2.73494c-3.16677,-6.62143 -7.1972,-12.23524 -12.23524,-17.27328c-11.94735,-11.65947 -26.05387,-20.15216 -41.16799,-26.91753c-10.93975,-4.8941 -22.31132,-7.34115 -34.40262,-7.05326c-3.31071,0.14394 -6.62143,0.43183 -9.64425,2.01522c-4.17438,2.3031 -5.75776,6.47748 -3.74254,10.7958c4.46226,9.93214 8.78059,19.86428 11.65947,30.37219c0.86366,3.31071 1.58338,6.76537 3.31071,9.93214c3.16677,5.75776 6.18959,11.37158 11.08369,15.83384c1.15155,1.00761 1.2955,1.87127 0.43183,3.31071c-3.45466,6.47748 -5.18199,13.38679 -3.02282,20.72794c2.44705,8.06087 6.90931,14.82624 15.6899,17.41723c2.3031,0.71972 4.60621,0.86366 7.05326,1.00761c0.14394,0.71972 -0.28789,1.15155 -0.43183,1.72733c-1.58338,4.31832 -3.5986,8.63664 -4.03043,13.24285c-0.71972,9.21242 0.86366,18.28089 5.03804,26.62965c0.71972,1.43944 1.72733,2.73494 2.87888,3.88649c3.74254,3.74254 7.05326,4.46226 11.94735,2.44705c1.43944,-0.57578 2.87888,-1.43944 4.31832,-2.3031c3.74254,-2.3031 7.34115,-4.75015 10.50791,-7.77298c15.97779,-14.3944 24.47049,-33.10713 26.62965,-54.84268c0.14394,-1.00761 -0.14394,-2.01522 0.43183,-3.02282c0.71972,0.43183 0.57578,1.15155 0.57578,1.58338c0.86366,6.76537 1.87127,13.38679 2.3031,20.15216c0,0.57578 -0.14394,1.43944 0.71972,1.43944c0.86366,0 0.71972,-0.86366 0.71972,-1.43944c0.43183,-5.03804 1.00761,-10.07608 1.72733,-15.11412c0.28789,-2.3031 0.43183,-4.60621 1.00761,-6.76537c0.71972,0.28789 0.57578,0.86366 0.57578,1.2955c0.14394,9.50031 2.73494,18.42484 6.18959,27.20542c6.33354,15.6899 16.40962,28.35697 30.80402,37.2815c2.01522,1.2955 4.17438,2.3031 6.33354,3.16677c2.59099,0.86366 5.03804,0.57578 7.34115,-0.86366c2.44705,-1.58338 4.31832,-3.74254 5.75776,-6.18959c1.87127,-3.45466 2.87888,-7.1972 3.74254,-10.93975c2.01522,-8.92453 2.01522,-17.84906 -1.87127,-26.34176c-0.57578,-1.2955 -1.00761,-2.73494 -1.58338,-4.17438c2.01522,-0.28789 3.74254,-0.43183 5.61382,-0.71972c11.22763,-1.72733 17.84906,-14.53835 17.993,-22.45527c0.14394,-5.90171 -1.2955,-11.37158 -4.03043,-16.40962c-0.57578,-1.00761 -0.43183,-1.72733 0.28789,-2.44705c1.15155,-1.15155 2.3031,-2.3031 3.31071,-3.45466c4.8941,-6.47748 9.06847,-13.24285 11.08369,-21.30372c2.73494,-11.08369 7.34115,-21.5916 12.0913,-31.95557c2.01522,-4.03043 0.71972,-8.06087 -3.16677,-10.50791z"></path></g></svg>