<svg version="1.1" xmlns="http://www.w3.org/2000/svg" xmlns:xlink="http://www.w3.org/1999/xlink" width="216" height="178.6873" viewBox="20.16,20.16,216,178.6873"><g fill="none" fill-rule="nonzero" stroke="#ff0000" stroke-width="1px" stroke-linecap="butt" stroke-linejoin="miter" stroke-miterlimit="10" stroke-dasharray="" stroke-dashoffset="0" font-family="none" font-weight="none" font-size="none" text-anchor="none" style="mix-blend-mode: normal"><path d="M45.635,56.179l-3.46,-1.086l-6.03248,-9.74646l0.07048,-0.00554l6.122,0.249l5.26622,0.68653z"></path><path d="M55.819,65.478l-6.21,-7.136l2.22589,-11.20784l2.80711,0.62584l5.973,1.89l1.37918,0.56494z"></path><path d="M65.292,75.53l-6.1,-6.87l6.7999,-16.80751l0.5481,0.22451l5.914,2.797l3.09765,1.6133z"></path><path d="M74.128,84.672l-0.216,-0.138l-5.347,-5.971l10.79402,-20.03459l4.64898,2.68059l4.4267,2.84135z"></path><path d="M82.254,92.723l-4.783,-5.293l14.51011,-20.91458l2.79589,2.00658l5.049,4.07l0.51826,0.47107z"></path><path d="M86.841,100.076l-1.985,-3.802l18.68485,-20.30544l0.97415,0.88544l4.157,4.536l1.86386,2.55449z"></path><path d="M118.262,107.397l-28.366,2.373l-1.387,-5.602l24.4441,-16.64276l2.5119,4.40776l1.006,1.363l1.296,1.091l1.516,0.757l0.08246,0.01909z"></path><path d="M132.819,105.696l-10.175,1.216l1.05205,-11.66661l0.57495,-0.14339l1.503,-0.782l1.278,-1.112l0.482,-0.677l0.321,0.633l1.098,1.29l1.369,0.998l1.564,0.651l0.2898,0.04625z"></path><path d="M168.749,105.728l-2.004,5.479l-11.875,-0.212l-17.704,-5.058l-0.68086,-10.09886l0.37386,-0.12114l1.445,-0.884l1.199,-1.198l0.492,-0.707l3.09173,-5.06366z"></path><path d="M171.885,97.408l-1.595,4.129l-24.74894,-17.22882l1.18494,-1.71118l4.017,-4.64l1.75328,-1.66041z"></path><path d="M178.356,87.571l-4.192,5.931l-18.49917,-20.14255l4.60217,-3.64445l3.86441,-2.76905z"></path><path d="M187.769,78.712l-0.927,1.361l-5.398,4.367l-13.7554,-19.94504l3.4644,-2.31796l5.50774,-3.3759z"></path><path d="M196.53,68.535l-3.41,5.303l-2.166,1.716l-10.51052,-18.83896l2.02552,-1.11404l5.827,-2.801l1.71564,-0.69779z"></path><path d="M206.516,58.911l-1.534,2.939l-5.04,3.57l-5.92828,-14.94553l0.23228,-0.09447l6.045,-1.993l3.89146,-0.9635z"></path><path d="M218.244,51.05l-7.949,4.76l-1.88038,-9.25677l4.16138,-0.66023l6.159,-0.381l0.11624,0.00486z"></path><path d="M222.604,50.922l0.57334,-5.2242l1.12866,0.0472l3.361,1.036l0.616,0.835l-0.6,2.671l-0.97699,2.18243z"></path><path d="M209.713,62.122l0.705,-1.349l10.07,-6.031l4.45923,1.68178l-2.52223,5.98322l-0.093,0.231l-1.35814,3.56048z"></path><path d="M198.053,74.154l2.485,-3.864l6.443,-4.563l12.50154,4.52561l-1.86654,5.68739l-0.106,0.351l-1.12176,4.11637z"></path><path d="M191.443,80.991l0.461,-0.678l3.256,-2.581l19.90131,6.78715l-1.41931,3.73485l-2.882,5.314l-0.32965,0.48574z"></path><path d="M174.268,103.226l2.033,-5.261l6.279,-8.887l5.972,-4.832l19.45216,13.38272l-0.64016,0.94328l-4.267,4.755l-0.975,1.385l-0.55426,1.39898z"></path><path d="M186.162,122.089l-7.645,-2.293l-7.56,-4.754l-0.443,-1.564l2.22,-6.07l28.90443,3.05428l1.80257,5.93772l1.06744,4.03721z"></path><path d="M191.448,125.951l13.61793,-1.22604l0.09707,2.46304l-1.223,4.732l-1.57893,2.85337z"></path><path d="M184.917,126.225l14.79417,11.9606l-1.46717,1.5274l-3.988,2.04l-3.73241,0.57462l-8.68859,-17.02662z"></path><path d="M175.959,123.291l10.29853,20.18155l-0.76653,0.42545l-1.248,1.145l-0.946,1.405l-0.592,1.588l-0.204,1.681l0.198,1.702l0.3391,1.41302l-14.8741,2.68598l-3.333,-8.122l-0.117,-10.611l5.582,-17.055z"></path><path d="M172.874,167.405l-3.249,-7.762l14.42271,-2.60404l0.02929,0.12204l0.091,0.343l1.739,5.94l0.36558,3.8761z"></path><path d="M177.85,179.139l-3.133,-7.425l11.53009,-0.07312l-0.22609,3.18612l-1.195,5.87819l-0.41658,1.27142z"></path><path d="M177.336,183.624l5.69156,2.46213l-2.30656,3.60187l-2.085,1.377l-2.627,-0.403l-1.34025,-0.74877z"></path><path d="M173.851,180.776l-2.94376,6.94208l-4.40324,-3.16408l-3.68804,-3.20532l7.89704,-8.01268z"></path><path d="M168.877,169.045l-9.13085,9.26424l-2.21415,-2.32224l-3.857,-4.888l-0.65202,-0.99986l12.81002,-8.32914z"></path><path d="M164.343,157.585l-13.67983,8.89539l-0.40717,-0.62439l-2.972,-5.542l-1.43853,-3.29406l15.65053,-6.37294z"></path><path d="M160.501,146.388l-16.28362,6.63074l-1.61738,-4.54074l-1.56502,-5.58569l19.38402,-3.81931z"></path><path d="M166.603,115.525l0.244,0.858l-5.956,18.195l-20.68152,4.07392l-0.42048,-2.28992l-0.44,-6.464l-0.30312,-1.61245l16.23812,-12.96255z"></path><path d="M149.924,114.075l-13.36657,10.66939l-0.57143,-0.45939l-1.531,-0.724l-1.659,-0.346l-1.693,0.051l-1.634,0.446l-0.705,0.387l-0.204,-0.148l-1.567,-0.643l-0.31459,-0.04886l-3.67041,-12.04014l11.93,-1.426z"></path><path d="M92.543,127.004l-3.312,-10.86l0.638,-2.037l28.769,-2.407l3.63771,11.93226l-0.25471,0.08374l-1.441,0.891l-1.193,1.203l-0.879,1.448l-0.438,1.256l-0.94251,3.81164z"></path><path d="M94.782,140.988l-1.622,-5.661l-0.089,-3.789l23.22486,5.02739l-0.69586,4.30461l-1.43883,6.09307z"></path><path d="M94.549,153.238l0.467,-7.658l17.83687,5.49971l-0.62987,1.97229l-2.398,5.813l-1.04287,2.01826z"></path><path d="M89.836,164.119l3.397,-6.684l13.54021,7.27262l-3.16521,4.98838l-2.8695,3.74338z"></path><path d="M84.887,176.911l-0.287,-2.765l3.131,-6.143l10.19101,8.71216l-2.37201,2.59084l-4.539,4.228l-0.73213,0.54538z"></path><path d="M82.918,181.479l3.89665,5.18099l-0.73565,0.54801l-4.747,2.885l-3.1,0.866l-1.19619,-0.53884z"></path><path d="M80.572,177.186l-6.55844,9.96852l-0.25256,-0.33752l-1.981,-5.03l-0.97418,-4.07999l9.66618,-1.49201z"></path><path d="M83.778,166.245l-2.815,5.524l-10.80407,1.66751l-0.31493,-3.24651l0.213,-5.577l0.46892,-1.74033z"></path><path d="M90.849,142.944l-0.669,10.963l-4.28,8.42l-14.2081,-3.61561l2.1731,-5.68839l0.414,-1.643l0.019,-1.694l-0.25385,-1.11234l15.66985,-9.59066z"></path><path d="M88.694,129.192l0.125,5.274l-17.11191,10.47331l-0.98609,-0.73231l-1.69,-0.701l-5.404,-1.472l-1.64606,-0.67751l8.99006,-15.16449l5.952,-4.338l8.633,-2.952z"></path><path d="M64.916,127.934l-6.81326,11.49225l-2.70574,-2.38425l-2.588,-4.255l-0.65515,-1.93391z"></path><path d="M70.886,120.908l-2.458,1.792l-17.33548,3.96504l-0.21252,-3.59804l1.116,-5.005l0.72172,-1.6049z"></path><path d="M73.314,89.273l7.139,7.901l3.562,6.824l1.985,8.009l-0.764,2.438l-9.422,3.222l-21.29517,-5.21682l0.50717,-1.61018l0.116,-1.69l-0.281,-1.67l-0.999,-2.088l-1.89206,-2.72034l20.56906,-13.89066z"></path><path d="M69.241,85.795l-19.7538,13.34005l-3.2722,-4.52205l-2.51629,-4.35194l20.88029,-9.67206z"></path><path d="M61.178,77.403l-19.30643,8.94322l-1.05757,-2.44622l-1.655,-6.148l-0.094,-0.318l-0.38596,-1.2089l16.71696,-5.3341z"></path><path d="M46.055,60.838l5.788,6.651l-14.47791,4.6205l-0.39509,-1.2375l-0.107,-0.312l-2.394,-6.459l-0.089,-0.229l-0.70775,-1.72643l7.18575,-2.93857z"></path><path d="M37.582,55.88l-5.54821,2.2688l-0.26679,-0.6508l-0.063,-0.148l-2.634,-6.04l-1.163,-3.442l0.448,-0.96l2.639,-1.157l0.30366,-0.02386z"></path><path d="M232.05187,40.59883c-2.01522,-1.2955 -4.31832,-1.87127 -6.62143,-2.01522c-9.06847,-0.86366 -17.993,0.28789 -26.62965,2.73494c-15.6899,4.46226 -29.50853,12.81102 -42.60743,22.45527c-9.35636,6.76537 -17.12934,15.11412 -22.16738,25.76598c-0.28789,-0.57578 -0.57578,-1.2955 -1.00761,-1.72733c-0.71972,-1.2955 -0.71972,-2.01522 0.43183,-3.16677c2.59099,-2.44705 3.02282,-6.33354 1.15155,-9.35636c-0.71972,-1.00761 -0.71972,-1.87127 -0.28789,-3.02282c2.01522,-5.90171 4.46226,-11.65947 7.1972,-17.41723c4.75015,-9.64425 10.65186,-18.42484 19.00061,-25.47809c4.75015,-4.03043 9.78819,-6.90931 16.12173,-7.48509c5.03804,-0.43183 8.63664,2.3031 10.07608,7.34115c1.2955,4.75015 0.43183,7.1972 -4.46226,9.93214c-2.15916,1.15155 -4.31832,0.28789 -6.33354,-0.71972c-1.43944,-0.86366 -1.43944,-2.44705 -1.43944,-4.03043c0.57578,0.28789 1.00761,0.43183 1.43944,0.57578c1.87127,0.71972 3.88649,0 4.75015,-1.72733c0.86366,-1.72733 0.43183,-3.74254 -1.00761,-5.03804c-1.58338,-1.15155 -3.5986,-1.00761 -5.03804,0.28789c-2.3031,2.15916 -3.02282,6.18959 -1.72733,9.21242c1.00761,2.44705 3.5986,3.5986 7.05326,3.45466c0.71972,0 1.58338,-0.14394 2.3031,-0.28789c3.88649,-0.86366 7.77298,-5.61382 7.1972,-9.50031c-0.43183,-3.31071 -1.87127,-6.33354 -4.03043,-8.78059c-1.15155,-1.2955 -2.44705,-2.15916 -4.17438,-2.3031c-4.31832,-0.28789 -8.63664,-0.28789 -12.66707,1.43944c-5.61382,2.44705 -10.50791,5.90171 -14.3944,10.65186c-9.64425,11.65947 -18.13695,23.89471 -22.02344,38.86489c-0.28789,0.86366 -0.43183,1.15155 -1.43944,0.71972c-1.87127,-0.71972 -3.74254,-0.71972 -5.61382,0c-1.15155,0.43183 -1.2955,0 -1.43944,-0.86366c-0.57578,-2.15916 -1.15155,-4.17438 -2.01522,-6.33354c-3.16677,-8.92453 -8.34875,-16.84145 -13.81863,-24.47049c-3.88649,-5.61382 -8.4927,-11.08369 -14.53835,-15.25807c-5.46987,-3.5986 -11.22763,-5.18199 -17.70512,-4.60621c-1.00761,0.14394 -2.01522,0.43183 -2.87888,0.86366c-4.60621,2.59099 -6.90931,10.36397 -4.60621,14.97018c2.15916,4.46226 7.91692,6.47748 12.52313,4.46226c1.00761,-0.43183 2.01522,-1.15155 2.44705,-2.3031c1.43944,-3.16677 1.43944,-6.90931 -1.43944,-9.78819c-1.43944,-1.43944 -3.45466,-1.58338 -5.03804,-0.43183c-1.58338,1.15155 -2.01522,3.31071 -1.15155,4.8941c0.86366,1.72733 2.87888,2.44705 4.75015,1.72733c0.43183,-0.14394 0.86366,-0.71972 1.43944,-0.43183c0,2.3031 -0.28789,3.16677 -1.2955,3.88649c-3.88649,2.73494 -10.50791,0 -11.37158,-4.60621c-1.15155,-6.47748 4.46226,-12.52313 10.93975,-11.80341c4.31832,0.57578 8.4927,1.87127 12.0913,4.46226c4.03043,3.02282 7.77298,6.33354 11.08369,10.07608c9.06847,10.93975 14.53835,23.75077 19.14456,36.84967c0.14394,0.57578 0,1.15155 -0.28789,1.58338c-2.44705,3.88649 -1.87127,7.34115 1.43944,10.36397c0.57578,0.43183 0.71972,0.86366 0.28789,1.43944c-0.57578,0.86366 -1.00761,1.72733 -1.43944,2.73494c-3.16677,-6.62143 -7.1972,-12.23524 -12.23524,-17.27328c-11.94735,-11.65947 -26.05387,-20.15216 -41.16799,-26.91753c-10.93975,-4.8941 -22.31132,-7.34115 -34.40262,-7.05326c-3.31071,0.14394 -6.62143,0.43183 -9.64425,2.01522c-4.17438,2.3031 -5.75776,6.47748 -3.74254,10.7958c4.46226,9.93214 8.78059,19.86428 11.65947,30.37219c0.86366,3.31071 1.58338,6.76537 3.31071,9.93214c3.16677,5.75776 6.18959,11.37158 11.08369,15.83384c1.15155,1.00761 1.2955,1.87127 0.43183,3.31071c-3.45466,6.47748 -5.18199,13.38679 -3.02282,20.72794c2.44705,8.06087 6.90931,14.82624 15.6899,17.41723c2.3031,0.71972 4.60621,0.86366 7.05326,1.00761c0.14394,0.71972 -0.28789,1.15155 -0.43183,1.72733c-1.58338,4.31832 -3.5986,8.63664 -4.03043,13.24285c-0.71972,9.21242 0.86366,18.28089 5.03804,26.62965c0.71972,1.43944 1.72733,2.73494 2.87888,3.88649c3.74254,3.74254 7.05326,4.46226 11.94735,2.44705c1.43944,-0.57578 2.87888,-1.43944 4.31832,-2.3031c3.74254,-2.3031 7.34115,-4.75015 10.50791,-7.77298c15.97779,-14.3944 24.47049,-33.10713 26.62965,-54.84268c0.14394,-1.00761 -0.14394,-2.01522 0.43183,-3.02282c0.71972,0.43183 0.57578,1.15155 0.57578,1.58338c0.86366,6.76537 1.87127,13.38679 2.3031,20.15216c0,0.57578 -0.14394,1.43944 0.71972,1.43944c0.86366,0 0.71972,-0.86366 0.71972,-1.43944c0.43183,-5.03804 1.00761,-10.07608 1.72733,-15.11412c0.28789,-2.3031 0.43183,-4.60621 1.00761,-6.76537c0.71972,0.28789 0.57578,0.86366 0.57578,1.2955c0.14394,9.50031 2.73494,18.42484 6.18959,27.20542c6.33354,15.6899 16.40962,28.35697 30.80402,37.2815c2.01522,1.2955 4.17438,2.3031 6.33354,3.16677c2.59099,0.86366 5.03804,0.57578 7.34115,-0.86366c2.44705,-1.58338 4.31832,-3.74254 5.75776,-6.18959c1.87127,-3.45466 2.87888,-7.1972 3.74254,-10.93975c2.01522,-8.92453 2.01522,-17.84906 -1.87127,-26.34176c-0.57578,-1.2955 -1.00761,-2.73494 -1.58338,-4.17438c2.01522,-0.28789 3.74254,-0.43183 5.61382,-0.71972c11.22763,-1.72733 17.84906,-14.53835 17.993,-22.45527c0.14394,-5.90171 -1.2955,-11.37158 -4.03043,-16.40962c-0.57578,-1.00761 -0.43183,-1.72733 0.28789,-2.44705c1.15155,-1.15155 2.3031,-2.3031 3.31071,-3.45466c4.8941,-6.47748 9.06847,-13.24285 11.08369,-21.30372c2.73494,-11.08369 7.34115,-21.5916 12.0913,-31.95557c2.01522,-4.03043 0.71972,-8.06087 -3.16677,-10.50791z"></path></g></svg>