<svg version="1.1" xmlns="http://www.w3.org/2000/svg" xmlns:xlink="http://www.w3.org/1999/xlink" width="216" height="178.6873" viewBox="20.16,20.16,216,178.6873"><g fill="none" fill-rule="nonzero" stroke="#000000" stroke-width="1px" stroke-linecap="butt" stroke-linejoin="miter" stroke-miterlimit="10" stroke-dasharray="" stroke-dashoffset="0" font-family="none" font-weight="none" font-size="none" text-anchor="none" style="mix-blend-mode: normal"><path d="M46.02451,54.2173c-0.18416,0.92749 -1.22144,1.58721 -2.14046,1.40305c-0.94973,-0.38114 -2.27073,-1.43482 -2.76164,-2.22795l-4.97991,-8.04585l0.07048,-0.00554l6.122,0.249l5.26622,0.68653zM43.72679,55.58006c0,0 0,0 0,0zM43.72679,55.58006c0.05191,0.01629 0.10439,0.02968 0.15727,0.04028c0.06846,0.02748 0.135,0.05146 0.19916,0.07159z"></path><path d="M61.16725,51.41412l-6.1705,10.21975c-0.51687,0.85606 -1.69016,0.95772 -2.34657,0.20331l-1.72836,-1.98638c-0.65641,-0.7544 -1.11802,-2.48965 -0.92323,-3.4705l1.83629,-9.24616l2.80711,0.62584l5.973,1.89l1.24239,0.50891c-0.2514,0.48583 -0.49697,0.93527 -0.69014,1.25521z"></path><path d="M75.26804,83.02874c-0.38173,0.55022 -1.14136,0.85899 -1.85465,0.84126c-0.33095,-0.30192 -0.62543,-0.59055 -0.836,-0.82557l-0.31078,-0.34686c-0.66731,-0.74478 -0.99951,-2.43175 -0.6644,-3.37393l6.02759,-16.94727c0.3351,-0.94218 1.14452,-2.76472 1.61883,-3.64508l0.10957,-0.20336l4.64981,2.68108l4.4267,2.84135zM72.44261,83.59522c0,0 0,0 0,0zM72.44261,83.59522c0.27837,0.17785 0.61894,0.26604 0.97079,0.27478c0.71783,0.65487 1.60722,1.37228 2.184,1.74077z"></path><path d="M83.74725,91.09927c-0.41485,0.45083 -1.17875,0.76367 -1.92215,0.85383c-0.48505,-0.35573 -0.92436,-0.72762 -1.20302,-1.03599l-1.81018,-2.0032c-0.67046,-0.74195 -0.77088,-2.30552 -0.20086,-3.12715l13.37006,-19.27133l2.79589,2.00658l5.049,4.07l0.51799,0.47082zM81.82511,91.95309c0.68198,0.50016 1.45437,0.96837 1.99782,1.18322l-3.28984,-1.30064c0.36021,0.14241 0.82202,0.17441 1.29203,0.11741z"></path><path d="M91.83621,96.67643c-0.8266,0.56279 -2.45508,0.52808 -3.25696,-0.06941l-0.7865,-0.58603c-0.80188,-0.59749 -0.92662,-1.93085 -0.2495,-2.66672l15.99777,-17.38555l0.97398,0.88528l4.157,4.536l1.86407,2.55478z"></path><path d="M118.44166,105.40509c-0.08983,0.99596 -1.17618,2.07527 -2.1727,2.15862l-11.28092,0.94359c-0.99652,0.08335 -2.88318,-0.28898 -3.77332,-0.74466l-2.85444,-1.46126c-0.89014,-0.45569 -2.38448,-1.70821 -2.98867,-2.50505l-0.94223,-1.24265c-0.60419,-0.79684 -0.38179,-2.15647 0.44481,-2.71926l18.07893,-12.30914l2.51188,4.40773l1.006,1.363l1.296,1.091l1.516,0.757l0.08246,0.01909z"></path><path d="M132.68456,103.70052c0.06722,0.99774 -0.85849,2.11414 -1.85143,2.2328l-6.20326,0.74134c-0.99293,0.11866 -1.89606,-0.75863 -1.80624,-1.75459l0.87243,-9.6747l0.57495,-0.14339l1.503,-0.782l1.278,-1.112l0.482,-0.677l0.321,0.633l1.098,1.29l1.369,0.998l1.564,0.651l0.2898,0.04625z"></path><path d="M160.19054,99.77037c0.82073,0.57131 0.74546,1.58669 -0.15054,2.03074l-11.866,5.88078c-0.896,0.44406 -2.75353,0.6134 -3.71505,0.3387l-5.36989,-1.53417c-0.96153,-0.27471 -1.99032,-1.54715 -2.05759,-2.54488l-0.54633,-8.10339l0.37386,-0.12114l1.445,-0.884l1.199,-1.198l0.492,-0.707l3.09174,-5.06366z"></path><path d="M164.39515,89.25098c0.67642,0.73651 1.84629,2.3428 2.33973,3.21258l1.88625,3.32488c0.34784,0.61313 0.33001,1.56274 0.03145,2.30696c-0.34691,0.18909 -0.71549,0.36523 -1.06918,0.51016c-0.94501,-0.07223 -2.06711,-0.39241 -2.66584,-0.80921l-19.37638,-13.48833l1.18483,-1.71102l4.017,-4.64l1.754,-1.66109zM168.13629,98.88228c0,0 0,0 0,0zM168.45655,98.58757c0.02349,-0.00358 0.04657,-0.00746 0.06922,-0.01164l-0.07077,0.01306l-0.31871,0.29328c0.08852,-0.08146 0.1699,-0.1755 0.24371,-0.27943l-1.89178,0.34922c0.30991,-0.05721 0.6929,-0.18167 1.09516,-0.3465c0.29026,0.02219 0.56381,0.02098 0.80035,-0.008c0.10563,-0.14974 0.19566,-0.31978 0.26883,-0.50216c0.51051,-0.27826 0.97408,-0.58456 1.27414,-0.86068z"></path><path d="M164.01153,80.79655c0.14974,0.98873 -0.37695,1.24094 -1.05337,0.50442l-7.29344,-7.94142l4.60228,-3.64455l1.86402,-1.33566z"></path><path d="M172.90467,62.45495c0.50516,0.86302 0.09094,1.3327 -0.82845,0.93935l-1.67288,-0.71572l0.74966,-0.50158l1.16941,-0.71678z"></path><path d="M190.67552,53.77393c0.36874,0.92953 0.21972,2.7146 -0.29803,3.57013l-0.75399,1.24588c-0.47887,0.79128 -1.81277,1.5564 -2.80125,1.64268c-0.98312,-0.14598 -2.28009,-0.98384 -2.72268,-1.79556l-1.56383,-2.86814l5.76025,-2.76891l1.71626,-0.69804zM186.82226,60.23262c0.08024,0.01191 0.15838,0.01922 0.23381,0.02153l-0.46713,-0.01429c0.07507,0.0023 0.15306,-0.00023 0.23332,-0.00724z"></path><path d="M204.91988,51.05503c0.09943,0.4895 0.06831,1.19163 -0.05295,1.87803c-0.61755,0.38371 -1.33503,0.65204 -1.89084,0.65709l-5.69916,0.05171c-0.99996,0.00907 -2.36865,-0.91139 -2.73738,-1.84093l-0.52613,-1.32633l0.23259,-0.0946l6.045,-1.993l3.89122,-0.96344zM204.27151,54.71937c0.26188,-0.42652 0.4739,-1.09852 0.59541,-1.78631c0.49348,-0.30662 0.92316,-0.68692 1.15556,-1.06543z"></path><path d="M218.61421,47.67294c-0.10911,0.99403 -1.2077,2.13265 -2.1972,2.27725l-5.12304,0.74863c-0.98949,0.14459 -2.17804,-0.6908 -2.37709,-1.67079l-0.50266,-2.47474l4.16177,-0.66029l6.159,-0.381l0.11587,0.00485z"></path><path d="M224.6413,51.69086c-0.39836,-0.15026 -0.91964,-0.43376 -1.4393,-0.76652c-0.27293,-0.72384 -0.43095,-1.52895 -0.36878,-2.0954l0.3437,-3.13116l1.12908,0.04722l3.361,1.036l0.616,0.835l-0.6,2.671l-0.97709,2.18264zM221.4138,49.51506c0.38939,0.42205 1.08731,0.96048 1.7882,1.40929c0.20602,0.54638 0.47751,1.04645 0.7692,1.3626z"></path><path d="M220.34668,63.84508l1.96364,-6.28216c0.29834,-0.95446 1.53234,-1.55601 2.468,-1.20311l0.169,0.06374l-2.52232,5.98344l-0.093,0.231l-1.30385,3.41817c-0.58665,-0.54859 -0.91005,-1.47978 -0.68147,-2.21109z"></path><path d="M207.76995,77.46857c-0.94647,-0.32278 -1.33531,-1.47565 -0.77767,-2.30573l2.22944,-3.31867c0.55764,-0.83008 2.10606,-1.79565 3.09684,-1.93114l2.53788,-0.34705c0.99078,-0.13549 2.92184,0.06943 3.86212,0.40983l0.76405,0.2766l-1.86661,5.6876l-0.106,0.351l-1.12185,4.1167z"></path><path d="M199.43773,86.49157c-0.82387,-0.56679 -1.09021,-1.96373 -0.53268,-2.79389l0.3629,-0.54036c0.43113,-0.64195 1.39293,-1.55949 2.21725,-2.15563c0.95785,-0.27596 2.32277,-0.31975 3.09576,-0.05615l10.48022,3.57396l-1.41918,3.73451l-2.882,5.314l-0.32979,0.48594zM202.15794,80.57526c-0.2012,0.10449 -0.43106,0.25164 -0.67274,0.42642c-0.21498,0.06194 -0.40946,0.13557 -0.57214,0.22005z"></path><path d="M192.61092,105.1642c-0.7511,-0.07938 -1.98563,-0.46158 -2.91001,-0.8726c-0.56276,-0.39574 -1.10559,-0.79062 -1.46893,-1.07307l-5.88795,-4.57706c-0.78951,-0.61374 -0.73512,-1.76396 0.10879,-2.30046l10.61938,-6.75103c0.8439,-0.53649 2.51167,-0.50619 3.33552,0.06061l11.59644,7.97813l-0.64016,0.94327l-4.267,4.755l-0.975,1.385l-0.5542,1.39882zM189.70091,104.2916c0.66008,0.46418 1.34757,0.92955 1.80503,1.21609l-2.57888,-1.61538c0.20739,0.12991 0.47434,0.26611 0.77385,0.39929z"></path><path d="M201.67942,119.58785l-0.43583,-0.23371c-0.88129,-0.47257 -2.28944,-1.7951 -2.8163,-2.64505l-3.31456,-5.34719c-0.52686,-0.84995 -0.05925,-1.59484 0.93521,-1.48977l5.59065,0.59066l1.80242,5.93721l1.03946,3.93141c-0.97633,-0.09954 -2.15571,-0.39751 -2.80105,-0.74356z"></path><path d="M201.67825,131.75965l2.0725,-5.1293c0.21058,-0.52118 0.73587,-1.0707 1.33242,-1.46794l0.07983,2.02559l-1.223,4.732l-1.57454,2.84543c-0.69883,-0.68368 -1.04225,-2.12708 -0.68721,-3.00578z"></path><path d="M195.47552,136.15467c0.99424,0.10717 2.76613,0.84303 3.54378,1.47173l0.69179,0.55929l-1.46709,1.52731l-3.988,2.04l-3.73297,0.57471l-2.27687,-4.4613c-0.33272,-0.65193 -0.16746,-1.50137 0.30953,-2.05451c0.84833,-0.14383 1.77593,-0.21168 2.37079,-0.14757zM189.19611,135.34763c-0.24919,0.09884 -0.46571,0.26168 -0.64041,0.46427c-0.56957,0.09656 -1.1034,0.22737 -1.4768,0.37547z"></path><path d="M183.26757,136.93354c-0.33294,-0.07054 -0.72671,-0.04252 -1.12205,0.05869c-0.42144,-0.27269 -0.85509,-0.47759 -1.22408,-0.55576zM183.78713,138.63243l2.47015,4.84026l-0.76628,0.42531l-1.248,1.145l-0.946,1.405l-0.592,1.588l-0.204,1.681l0.198,1.702l0.33911,1.41302l-8.95194,1.61656c-0.83103,0.15007 -1.74565,-0.40808 -2.08063,-1.1834c0.06038,-1.00845 0.40603,-2.32815 0.82695,-3.01008l7.42802,-12.03419c0.34649,-0.56135 1.11869,-1.0325 1.885,-1.22868c0.69591,0.45029 1.3585,1.08545 1.64161,1.6402zM171.88359,152.81778c0.01823,0.15445 0.06026,0.30461 0.12195,0.44739c-0.01497,0.24995 -0.01241,0.48078 0.01087,0.67804z"></path><path d="M174.87396,167.39233c-0.99998,0.00634 -2.38601,-0.9098 -2.77207,-1.83228l-0.62779,-1.50009c-0.33379,-0.7976 -0.40249,-2.29419 -0.18576,-3.28914c0.5038,-0.84537 1.6428,-1.72403 2.50782,-1.88024l10.25162,-1.85131l0.02921,0.12173l0.091,0.343l1.739,5.94l0.36558,3.8761zM171.41121,160.34497c0,0 0,0 0,0zM171.41121,160.34497c-0.04801,0.12658 -0.08894,0.27006 -0.12287,0.42584c-0.06934,0.11636 -0.12665,0.23209 -0.16956,0.34522z"></path><path d="M179.6856,179.93308c-0.9178,-0.39704 -2.22436,-1.71542 -2.61312,-2.63676l-1.57795,-3.73965c-0.38876,-0.92134 0.22246,-1.84902 1.22244,-1.85536l9.53013,-0.06044l-0.22609,3.18612l-1.195,5.87819l-0.41658,1.27142z"></path><path d="M176.55512,185.46526c0.39044,-0.92063 1.69868,-1.44422 2.61648,-1.04719l3.85595,1.66806l-2.30656,3.60187l-2.085,1.377l-2.627,-0.403l-1.34025,-0.74877z"></path><path d="M173.07376,178.93321c0.38862,0.9214 0.38685,2.76344 -0.00355,3.68409l-2.16297,5.10079l-4.40324,-3.16408l-3.68804,-3.20532l6.49315,-6.58823c0.70195,-0.71223 1.79252,-0.50306 2.18114,0.41834z"></path><path d="M168.10469,167.20013c0.38615,0.92243 0.07035,2.55708 -0.63161,3.2693l-7.72693,7.83981l-2.21415,-2.32224l-3.857,-4.888l-0.65221,-1.00016l6.81549,-4.4316c0.83836,-0.54512 2.67644,-1.11377 3.67616,-1.1373l1.43911,-0.03387c0.99972,-0.02353 2.3856,0.87537 2.77175,1.79781z"></path><path d="M155.30753,161.25742c0.82524,0.56479 0.81213,1.67472 -0.02622,2.21986l-4.61819,3.00303l-0.40712,-0.62432l-2.972,-5.542l-1.43852,-3.29403l0.1982,-0.08071c0.92616,-0.37713 2.67755,-0.18948 3.50279,0.37531z"></path><path d="M146.51811,143.20199c-0.04409,-0.02738 -0.09083,-0.05423 -0.13995,-0.08052c-0.03666,-0.02698 -0.07377,-0.05218 -0.11128,-0.07547zM147.55691,146.05871l-0.86982,4.16257c-0.20454,0.97886 -1.33523,2.33488 -2.26138,2.71205l-0.2085,0.08491l-1.61721,-4.54025l-1.56497,-5.5855l1.82169,-0.3589c0.93022,-0.18327 2.6241,0.10763 3.52145,0.58788c0.79358,0.58402 1.37426,2.0016 1.17874,2.93724z"></path><path d="M143.20007,136.07712c-0.03353,0.99944 -1.04821,2.19215 -2.02936,2.38542l-0.96123,0.18935l-0.42048,-2.2899l-0.44,-6.464l-0.30308,-1.61225l2.97402,-2.37402c0.78153,-0.62386 1.52953,-0.24829 1.496,0.75115z"></path><path d="M142.25698,111.88448c0.96151,0.27476 1.77805,1.53896 1.63307,2.52839l-0.45309,3.09226c-0.14498,0.98944 -1.07149,2.60273 -1.85302,3.22659l-5.02667,4.01254l-0.57126,-0.45926l-1.531,-0.724l-1.659,-0.346l-1.693,0.051l-1.634,0.446l-0.705,0.387l-0.204,-0.148l-1.567,-0.643l-0.31459,-0.04886l-3.08721,-10.12706c-0.2916,-0.95654 0.40973,-2.03177 1.40267,-2.15045l7.95827,-0.95126c0.99293,-0.11869 2.94738,0.03739 3.90889,0.31215z"></path><path d="M113.23874,131.48409c-0.97737,-0.21155 -2.52926,-1.24158 -3.10378,-2.06007l-0.68091,-0.97005c-0.57452,-0.81849 -1.36534,-2.6133 -1.58164,-3.58963l-2.23482,-10.08769c-0.2163,-0.97633 0.56393,-2.03604 1.56044,-2.11942l9.44693,-0.79047c0.99652,-0.08338 2.28465,0.78977 2.57626,1.74631l3.05448,10.01919l-0.25471,0.08374l-1.441,0.891l-1.193,1.203l-0.879,1.448l-0.438,1.256l-0.94255,3.81178z"></path><path d="M111.60519,146.17436c-0.9556,-0.29468 -1.71577,-1.57008 -1.52035,-2.5508l1.21432,-6.09412c0.19542,-0.98072 1.3682,-1.74985 2.34556,-1.53826l2.65118,0.57396l-0.6959,4.30485l-1.43872,6.09258z"></path><path d="M101.48091,156.9614c-0.88095,-0.4732 -1.14319,-1.73202 -0.52447,-2.51763l0.81713,-1.03755c0.61872,-0.78561 2.11412,-2.0523 2.9908,-2.53337l0.91428,-0.50171c0.87668,-0.48107 2.70898,-0.66754 3.6646,-0.37293l3.50949,1.08195l-0.62973,1.97183l-2.398,5.813l-1.04285,2.01824z"></path><path d="M91.99422,165.96459c-0.48344,-0.41328 -1.04115,-1.22419 -1.43034,-2.01266c0.05011,-0.60485 0.16754,-1.24739 0.32987,-1.77186c0.61201,-0.80013 1.67503,-1.68529 2.43655,-1.97744l1.0824,-0.41525c0.93365,-0.35819 2.74826,-0.24318 3.62922,0.23001l8.73147,4.68996l-3.16538,4.98865l-2.86969,3.74363zM90.56388,163.95193c-0.04248,0.51275 -0.03658,0.99841 0.03135,1.36207l-0.48845,-2.61499c0.06683,0.3578 0.23437,0.80169 0.4571,1.25293zM90.89375,162.18007c-0.13834,0.18086 -0.25363,0.35738 -0.33719,0.52173l0.57789,-1.13659c-0.08777,0.17263 -0.16865,0.38212 -0.24069,0.61486z"></path><path d="M88.67522,181.94733c-0.60111,-0.79917 -1.18737,-2.59822 -1.17252,-3.59811l0.00561,-0.37744c0.01485,-0.99989 0.33173,-2.95308 0.63376,-3.90638l0.81988,-2.58781c0.30203,-0.9533 1.36415,-1.25679 2.12425,-0.60697l6.83609,5.84424l-2.37228,2.59114l-4.539,4.228l-0.73211,0.54537z"></path><path d="M77.62566,189.52476c0.54967,-0.83538 1.94038,-2.21174 2.78142,-2.75271l2.69285,-1.7321c0.84104,-0.54098 2.28317,-0.28277 2.88427,0.51641l0.83022,1.10381l-0.73541,0.54783l-4.747,2.885l-3.1,0.866l-1.19566,-0.5386z"></path><path d="M71.76859,181.55758l1.80882,2.97283c0.36287,0.59638 0.45785,1.59987 0.29511,2.43562l-0.11153,-0.14904l-1.981,-5.03l-0.08044,-0.33691c0.02454,0.03638 0.04758,0.07224 0.06903,0.10749z"></path><path d="M75.33978,164.09776c0.96911,0.24662 1.17376,1.13791 0.4093,1.78257l-5.84499,4.92905l-0.06008,-0.61938l0.213,-5.577l0.4689,-1.74027z"></path><path d="M86.47605,157.51491c0.33963,0.5994 0.46424,1.62192 0.36077,2.49158c-0.64315,0.5888 -1.55002,1.07385 -2.23981,1.13172l-0.54301,0.04556c-0.9965,0.08361 -2.9621,-0.07944 -3.9312,-0.32609l-8.43106,-2.14588l2.17326,-5.68881l0.414,-1.643l0.019,-1.694l-0.25391,-1.11263l3.76308,-2.30328c0.85292,-0.52205 2.19881,-0.17405 2.69179,0.69599zM86.83681,160.0065c0.28597,-0.2618 0.5198,-0.54411 0.65923,-0.81849l-0.94009,1.85c0.14092,-0.27732 0.23414,-0.63883 0.28086,-1.0315z"></path><path d="M78.10607,140.97758c-0.00657,-0.3199 -0.10891,-0.60361 -0.2757,-0.82996c0.15348,-0.39517 0.24245,-0.78902 0.23557,-1.12419zM76.40112,142.06702l-4.69364,2.87258l-0.98648,-0.73261l-1.69,-0.701l-1.71378,-0.46682l8.87689,-3.35424c0.63613,-0.24037 1.28176,-0.01839 1.63625,0.46268c-0.30433,0.78358 -0.86225,1.5724 -1.42924,1.91941zM78.10607,140.97758c0,0 0,0 0,0z"></path><path d="M58.69635,129.35693c0.97483,-0.22296 1.62845,0.50108 1.30725,1.44809l-2.68865,7.92704l-1.91795,-1.69006l-2.588,-4.255l-0.65507,-1.93368z"></path><path d="M59.33044,118.07711c0.97128,0.23795 1.88665,1.47433 1.83075,2.47277l-0.10438,1.86426c-0.0559,0.99844 -1.08663,2.21985 -2.06145,2.44283l-7.90286,1.80768l-0.21249,-3.59764l1.116,-5.005l0.72172,-1.6049z"></path><path d="M74.22749,89.85292c-0.23625,-0.14998 -0.53739,-0.25613 -0.86677,-0.31898c-0.61394,-0.52679 -1.27443,-1.04033 -1.73521,-1.33285zM74.65487,90.75694l1.90126,2.10412c0.67043,0.74197 0.73691,2.28095 0.13295,3.07797l-12.81617,16.91293c-0.60396,0.79702 -2.17919,1.35608 -3.15047,1.11813l-6.20365,-1.51981l0.5072,-1.61029l0.116,-1.69l-0.281,-1.67l-0.999,-2.088l-1.89206,-2.72034l18.91161,-12.77135c0.59682,-0.40304 1.6315,-0.52812 2.47917,-0.36637c0.51093,0.43841 0.98963,0.88599 1.29415,1.223z"></path><path d="M65.35856,82.36016c0.72972,0.43257 1.93943,1.40128 2.69683,2.14006c0.48734,0.76017 0.28843,1.90066 -0.47185,2.41409l-18.09635,12.22074l-3.2722,-4.52205l-2.51638,-4.3521l17.82563,-8.25726c0.90738,-0.42032 2.67497,-0.33072 3.53519,0.17921zM68.05539,84.50021c-0.04387,-0.06844 -0.09331,-0.13379 -0.1484,-0.19532l0.50601,0.56522c-0.10118,-0.11303 -0.22217,-0.23779 -0.35761,-0.3699z"></path><path d="M58.64447,76.45747c0.65427,0.75626 0.40116,1.93286 -0.50621,2.35318l-16.26677,7.53537l-1.05749,-2.44603l-1.655,-6.148l-0.094,-0.318l-0.38613,-1.20944l13.58279,-4.33453c0.95267,-0.30401 2.5596,0.14823 3.21387,0.9045z"></path><path d="M44.14677,60.23913c0.95412,0.29944 2.56465,1.35327 3.22106,2.10767l3.16234,3.6344c0.65641,0.7544 0.36016,1.8128 -0.59251,2.11681l-12.57242,4.01195l-0.39523,-1.23796l-0.107,-0.312l-2.394,-6.459l-0.089,-0.229l-0.70775,-1.72643l5.33456,-2.18153c0.92559,-0.37852 2.80531,-0.4576 3.75942,-0.15816z"></path><path d="M36.52938,54.17941c0.52631,0.85029 0.12702,2.07909 -0.79859,2.45759l-3.69701,1.5118l-0.26679,-0.6508l-0.063,-0.148l-2.634,-6.04l-1.163,-3.442l0.448,-0.96l2.639,-1.157l0.30366,-0.02386z"></path><path d="M176.52449,132.543c0.57875,0.8155 0.63221,2.48192 0.10692,3.33284l-6.52782,10.57432c-0.5253,0.85092 -1.80197,1.04197 -2.55336,0.38211l-5.81247,-5.10453c-0.75138,-0.65987 -1.25597,-2.2888 -1.00917,-3.25787l0.08881,-0.34873c0.2468,-0.96907 1.24001,-2.60361 1.98643,-3.26909l7.91433,-7.05609c0.74642,-0.66548 2.07159,-0.51545 2.65034,0.30005z"></path><path d="M172.91315,68.45047c0.91942,0.39327 1.72781,1.78035 1.61678,2.77417l-2.22586,19.92273c-0.11103,0.99382 -0.71555,1.11788 -1.20903,0.24812l-0.52708,-0.92897c-0.49348,-0.86976 -1.13661,-2.72825 -1.28626,-3.71699l-2.9134,-19.24904c-0.14965,-0.98874 0.62013,-1.58421 1.53955,-1.19094z"></path><path d="M83.28726,97.57551c-0.282,-0.11222 -0.61963,-0.15103 -0.97003,-0.12836c-0.78392,-0.46118 -1.67646,-0.92484 -2.25649,-1.15566zM83.52283,98.22588l3.46334,2.58024c0.80191,0.59744 2.20791,1.9918 2.81199,2.78872l1.62467,2.14331c0.60408,0.79692 0.76763,2.49158 0.3271,3.38932l-11.26487,22.95605c-0.44053,0.89774 -1.74543,1.29261 -2.6098,0.78975l-10.93653,-6.36255c-0.86437,-0.50286 -1.67285,-2.00416 -1.61697,-3.0026l0.21548,-3.85025c0.05588,-0.99844 0.7157,-2.7939 1.31964,-3.59093l13.36423,-17.63689c0.42064,-0.55512 1.29201,-0.93088 2.09612,-0.9829c0.47182,0.27757 0.90429,0.55425 1.2056,0.77872zM83.28726,97.57551c0,0 0,0 0,0z"></path><path d="M107.15338,132.69574c-0.0885,-0.12603 -0.19371,-0.23522 -0.31094,-0.32718c-0.08875,-0.20099 -0.1861,-0.38062 -0.28981,-0.52831zM107.31116,135.43844l-1.64732,8.26712c-0.16158,0.81087 -0.92249,1.95059 -1.67674,2.59293c-0.81835,0.17964 -1.77637,-0.25715 -2.10307,-1.04034l-2.18007,-5.2263c-0.38498,-0.92292 -0.0657,-2.55579 0.63856,-3.26573l4.25295,-4.28724c0.59581,-0.60061 1.60293,-0.6155 2.24696,-0.11032c0.40305,0.91276 0.62888,2.26614 0.46873,3.06988zM103.9871,146.29849c0.14601,-0.03205 0.28757,-0.08372 0.4203,-0.15655l-0.88781,0.48713c0.15183,-0.08331 0.30952,-0.19603 0.46751,-0.33057z"></path><path d="M194.26026,118.18611c0.52687,0.84995 0.43163,2.48282 -0.19048,3.26575l-0.77256,0.97228c-0.62211,0.78293 -1.31786,0.56858 -1.3915,-0.42871l-0.49044,-6.64186c-0.07364,-0.99728 0.37959,-1.14462 0.90646,-0.29468z"></path><path d="M216.01663,63.21906c-0.29831,0.95447 -1.58742,2.0443 -2.57822,2.17967l-0.71382,0.09753c-0.9908,0.13537 -2.208,-0.70329 -2.43441,-1.67733l-1.34235,-5.77487c-0.12274,-0.52801 -0.0916,-1.30638 0.04606,-2.04423c0.61945,-0.44426 1.34346,-0.79627 1.90115,-0.87766l6.03893,-0.88134c0.98952,-0.14441 1.68072,0.66564 1.38241,1.62011zM208.99388,55.99983c-0.47965,0.34399 -0.8966,0.74329 -1.1251,1.11508l1.67345,-2.72283c-0.23977,0.39012 -0.43206,0.98447 -0.54834,1.60774z"></path><path d="M83.15339,180.23277c0.00566,-0.36969 -0.12305,-0.71425 -0.33723,-0.99244c0.22401,-0.4786 0.36728,-0.97042 0.37346,-1.37409zM81.47679,180.94774l-1.92758,1.23952c-0.84111,0.54087 -2.20199,0.22744 -2.72178,-0.62686l-0.12887,-0.21181c-0.51978,-0.8543 -0.0566,-1.89239 0.92637,-2.07618l3.59314,-0.67183c0.61953,-0.11584 1.23299,0.16552 1.59809,0.63974c-0.33085,0.70688 -0.83783,1.3849 -1.33937,1.70741zM83.15339,180.23277c0,0 0,0 0,0z"></path><path d="M155.49999,134.36887c0.7079,0.65306 1.18678,2.20503 1.00055,3.18434c-0.30507,0.94936 -1.46683,2.08788 -2.3996,2.32759l-1.41789,0.36439c-0.95125,0.24446 -2.72191,-0.02006 -3.5896,-0.52948c-0.83434,-0.55068 -1.62343,-2.04444 -1.5905,-3.0276l0.2481,-7.40724c0.03348,-0.99944 0.80195,-1.32082 1.53696,-0.64275zM156.47621,137.66308c0,0 0,0 0,0zM156.47621,137.66308c0.0091,-0.03573 0.01721,-0.07238 0.02434,-0.10987c0.0117,-0.0364 0.02213,-0.07252 0.03125,-0.1083zM149.04707,139.68771c0.01516,0.00941 0.03062,0.01875 0.04639,0.02801c0.01381,0.00912 0.02764,0.01798 0.04148,0.02657z"></path><path d="M206.316,65.80098c0.2265,0.97401 -0.10475,2.77804 -0.66249,3.60805l-3.51102,5.22495c-0.30358,0.45178 -0.87009,1.0401 -1.46648,1.55679c-0.72494,-0.02925 -1.47413,-0.42137 -1.79676,-1.035l-5.68551,-10.81354c-0.46537,-0.88511 -0.41315,-2.62586 0.10444,-3.48149l0.70564,-1.16649c0.51759,-0.85563 2.03514,-1.72037 3.0351,-1.72948l5.43917,-0.04956c0.99996,-0.00911 2.22642,0.95579 2.45291,1.9298zM200.67601,76.19077c0.32073,0.01294 0.63672,-0.04515 0.90892,-0.18651l-2.33287,1.21148c0.40442,-0.21002 0.92465,-0.59239 1.42395,-1.02497z"></path><path d="M200.28243,123.74142c-0.29624,-0.15891 -0.66279,-0.22935 -1.04254,-0.22309c-0.19195,-0.31302 -0.4447,-0.57471 -0.73933,-0.73276zM199.51382,125.58538l-1.82863,4.52624c-0.37459,0.92719 -1.74345,1.74744 -2.73771,1.6405l-1.08994,-0.11723c-0.70337,-0.07565 -1.19603,-0.60524 -1.27505,-1.22977c0.2944,-0.45553 0.58426,-0.87254 0.81581,-1.16392l3.87744,-4.87938c0.41299,-0.51971 1.21431,-0.83112 1.96418,-0.84348c0.38215,0.6232 0.52327,1.44985 0.27392,2.06705zM192.71105,129.6069c-0.12318,0.26538 -0.16125,0.53991 -0.12857,0.79821c-0.49664,0.76845 -1.00619,1.64652 -1.27053,2.21599z"></path><path d="M72.13346,59.22154c0.80577,0.59223 1.27648,2.12666 0.94142,3.06886l-5.09278,14.32121c-0.29316,0.82439 -1.24481,1.25828 -2.05435,1.0122c-0.83597,-0.60942 -1.86168,-1.50339 -2.36946,-2.0902l-5.46462,-6.31521c-0.29029,-0.33548 -0.64206,-0.85793 -0.97089,-1.41838c0.03321,-0.82694 0.23319,-1.71619 0.55196,-2.24413l6.05948,-10.03577c0.51688,-0.85606 1.83953,-1.11989 2.64529,-0.52766zM65.59176,77.47582c0.10754,0.06378 0.22032,0.11283 0.33601,0.14799c0.24131,0.17591 0.46681,0.32812 0.65947,0.44238zM57.1228,67.80001c-0.02064,0.51395 0.02313,1.00383 0.14284,1.36794l-1.10528,-3.36191c0.17376,0.52853 0.55007,1.29112 0.96244,1.99397z"></path><path d="M186.45894,64.55773c0.99953,0.03064 2.46445,0.94638 2.92983,1.83149l6.06746,11.53957c0.46539,0.88511 0.37335,2.60045 -0.18406,3.43068l-0.89033,1.32607c-0.55742,0.83023 -1.95869,2.19703 -2.80255,2.7336l-13.56557,8.62572c-0.26344,0.16751 -0.62411,0.34155 -1.02599,0.50377c-0.38549,-0.3517 -0.61892,-0.87111 -0.55869,-1.41027l2.51095,-22.47872c0.06711,-0.6008 0.34412,-1.50076 0.67961,-2.29948c0.51258,-0.52885 1.05203,-1.02976 1.44953,-1.32834l1.77678,-1.33463c0.79956,-0.60059 2.59864,-1.17055 3.59817,-1.13991zM174.3305,95.25215c0,0 0,0 0,0zM174.3305,95.25215c0.68627,-0.04614 1.77176,-0.34612 2.65722,-0.70352c0.32509,0.29659 0.75831,0.47391 1.21478,0.44322zM180.31068,67.03476c0,0 0,0 0,0zM180.31068,67.03476c-0.22713,0.32374 -0.47163,0.8029 -0.69109,1.3254c-0.51847,0.53492 -1.00945,1.09843 -1.29826,1.51008z"></path><path d="M92.88742,139.40264c0.99129,0.13168 2.36753,1.1863 2.75247,2.10924l2.69322,6.45724c0.38494,0.92294 0.15121,2.63152 -0.46747,3.41716l-1.52727,1.93943c-0.61868,0.78564 -2.17108,1.9293 -3.10479,2.28732l-0.49014,0.18793c-0.93372,0.35802 -2.36039,-0.15402 -2.85336,-1.02407l-6.46414,-11.4088c-0.45753,-0.80752 -0.93266,-2.47628 -1.01492,-3.51133c0.07185,-0.9357 0.99549,-1.71356 1.93757,-1.58841zM82.39916,139.62842c0,0 0,0 0,0zM82.39916,139.62842c0.00147,0.07186 0.00548,0.14821 0.01185,0.22836c-0.00375,0.04887 -0.00518,0.09818 -0.00417,0.14781z"></path><path d="M98.89169,111.42669c0.89016,0.45566 1.9966,1.88764 2.21289,2.86397l2.38784,10.77868c0.21629,0.97633 -0.27177,2.66251 -0.97612,3.37236l-5.5016,5.54459c-0.70435,0.70985 -2.39999,1.28801 -3.39128,1.15632l-7.24284,-0.96222c-0.99129,-0.13169 -1.54206,-1.16113 -1.10155,-2.05888l9.96793,-20.31402c0.44052,-0.89774 1.77119,-1.33983 2.66134,-0.88418z"></path><path d="M72.56234,134.78014c0.86433,0.50293 0.7932,1.35931 -0.14225,1.71275l-9.35118,3.53321c-0.93545,0.35345 -1.54965,-0.2401 -1.22839,-1.18709l2.27496,-6.70603c0.32126,-0.94699 1.50685,-1.39105 2.37117,-0.88812z"></path><path d="M184.9119,106.10963c0.78955,0.61369 1.65275,2.22466 1.7264,3.22194l1.3244,17.93386c0.05651,0.76522 -0.13528,2.06427 -0.41812,3.03701c-0.49701,0.67996 -1.30102,1.41542 -1.98966,1.80773c-0.75999,0.19952 -1.81968,0.30146 -2.65382,0.26153c-0.92679,-0.38792 -2.04327,-1.18792 -2.51365,-1.85068l-4.58693,-6.46303c-0.57877,-0.81549 -1.2939,-2.62164 -1.43027,-3.6123l-2.34553,-17.03937c-0.10989,-0.79833 0.25824,-2.03625 0.79053,-2.84105c0.38774,-0.26727 0.82957,-0.5397 1.25891,-0.77731c0.31764,-0.06726 0.64023,-0.12889 0.94739,-0.18072c0.99403,0.12639 2.26549,0.57589 2.89752,1.06715zM187.26652,131.07344c0.09814,-0.21099 0.19229,-0.47599 0.27806,-0.77099c0.14253,-0.19499 0.25981,-0.38542 0.34189,-0.56188zM185.55493,132.11017c0.16537,-0.04341 0.31656,-0.09145 0.44814,-0.14365l-0.81914,0.32494c0.11781,-0.04673 0.24239,-0.10803 0.371,-0.1813zM182.18764,132.28849c0,0 0,0 0,0zM182.18764,132.28849c0.20336,0.04319 0.4469,0.07045 0.71347,0.08321c0.21357,0.08939 0.41706,0.1569 0.60025,0.19581zM172.81527,100.56527c-0.32379,0.22319 -0.60986,0.44279 -0.81944,0.63551l1.22834,-1.12956c-0.1429,0.13141 -0.28067,0.30016 -0.4089,0.49404zM174.48807,99.56791l1.71868,-0.11221c-0.31955,0.02086 -0.73586,0.07571 -1.18517,0.15153c-0.19342,-0.02459 -0.37633,-0.03695 -0.54198,-0.035c-0.13242,0.06749 -0.26828,0.13983 -0.40541,0.21573c-0.66864,0.14159 -1.31535,0.30816 -1.75015,0.4609l3.03093,-1.0647c-0.24821,0.08719 -0.54737,0.22123 -0.86689,0.38376z"></path><path d="M180.0056,59.95304c0.40087,0.73524 0.24106,1.89169 -0.29103,2.60101c-0.77836,0.27436 -1.76269,-0.0271 -2.1859,-0.7501l-1.52276,-2.60149l0.74309,-0.45547l1.99945,-1.0997zM179.36395,62.91027c0,0 0,0 0,0zM179.36395,62.91027c0.12999,-0.09765 0.24732,-0.21851 0.35062,-0.35621c0.15074,-0.05313 0.29376,-0.12787 0.42348,-0.22532z"></path><path d="M170.00537,120.41967c0.13632,0.99067 -0.47379,2.64681 -1.22021,3.31228l-7.88632,7.0311c-0.74642,0.66548 -2.22788,0.65293 -2.96293,-0.02509l-8.78983,-8.10792c-0.43301,-0.39942 -0.98177,-1.12601 -1.42781,-1.84842c-0.10753,-0.84203 -0.13793,-1.75179 -0.05264,-2.33454l0.60873,-4.15917c0.14482,-0.98946 1.18565,-2.42294 2.08167,-2.86695l14.60393,-7.23693c0.38353,-0.19006 0.94726,-0.41327 1.54379,-0.62063c0.6956,0.22615 1.29821,0.84309 1.39588,1.55292zM147.71827,120.78162c0.07505,0.58767 0.18767,1.14236 0.32476,1.52987l-1.03407,-2.92298c0.13704,0.38737 0.39819,0.88922 0.70931,1.39311zM166.50375,103.56341c-0.27519,-0.08947 -0.56494,-0.11778 -0.84373,-0.06648l3.05896,-0.56285c-0.56251,0.1035 -1.41815,0.35226 -2.21523,0.62933z"></path><path d="M165.99824,151.21926c0.75138,0.65987 1.61969,2.31288 1.73662,3.30602l0.06528,0.55444c0.10151,0.86217 -0.06402,2.42907 -0.34126,3.43915c-0.4788,0.84523 -1.67799,1.63692 -2.58532,1.65835l-1.37812,0.03255c-0.99972,0.02361 -2.82473,-0.51749 -3.65002,-1.0822l-7.62885,-5.22015c-0.82529,-0.56471 -1.44597,-2.10827 -1.24137,-3.08712l0.84459,-4.04062c0.2046,-0.97885 1.37775,-2.20653 2.34629,-2.45538l1.14283,-0.29362c0.96854,-0.24884 2.68847,0.16218 3.43985,0.82205zM167.45888,158.51887c0.04876,-0.08607 0.09004,-0.17269 0.12279,-0.25911l-0.25633,0.67648c0.04673,-0.12332 0.09142,-0.26392 0.13354,-0.41737z"></path><path d="M86.56792,167.3058c-0.07466,-0.40461 -0.31801,-0.79511 -0.64801,-1.10881c0.09308,-0.88673 0.0976,-1.87403 -0.01583,-2.48878zM85.66328,167.5817l-1.34555,4.24959c-0.30186,0.95335 -1.58667,2.09057 -2.56962,2.27444l-7.3962,1.38352c-0.51101,0.09559 -1.27475,0.09539 -2.02172,0.02338c-0.22905,-0.44032 -0.12189,-0.99575 0.36575,-1.40697l8.52414,-7.18834c0.69066,-0.58243 2.19473,-1.23288 3.21357,-1.41449c0.52389,0.02888 1.07302,0.3013 1.48627,0.69414c-0.05582,0.53175 -0.14347,1.02733 -0.25663,1.38472zM72.33018,175.51264c0.13003,0.24996 0.36839,0.46283 0.70701,0.59116l-2.52138,-0.9556c0.44896,0.17016 1.12451,0.29793 1.81437,0.36444zM84.43364,165.50284c-0.07456,-0.00411 -0.14861,-0.00329 -0.22169,0.00282l0.53009,-0.04433c-0.0962,0.00804 -0.19953,0.0221 -0.3084,0.0415z"></path><path d="M232.05187,40.59883c-2.01522,-1.2955 -4.31832,-1.87127 -6.62143,-2.01522c-9.06847,-0.86366 -17.993,0.28789 -26.62965,2.73494c-15.6899,4.46226 -29.50853,12.81102 -42.60743,22.45527c-9.35636,6.76537 -17.12934,15.11412 -22.16738,25.76598c-0.28789,-0.57578 -0.57578,-1.2955 -1.00761,-1.72733c-0.71972,-1.2955 -0.71972,-2.01522 0.43183,-3.16677c2.59099,-2.44705 3.02282,-6.33354 1.15155,-9.35636c-0.71972,-1.00761 -0.71972,-1.87127 -0.28789,-3.02282c2.01522,-5.90171 4.46226,-11.65947 7.1972,-17.41723c4.75015,-9.64425 10.65186,-18.42484 19.00061,-25.47809c4.75015,-4.03043 9.78819,-6.90931 16.12173,-7.48509c5.03804,-0.43183 8.63664,2.3031 10.07608,7.34115c1.2955,4.75015 0.43183,7.1972 -4.46226,9.93214c-2.15916,1.15155 -4.31832,0.28789 -6.33354,-0.71972c-1.43944,-0.86366 -1.43944,-2.44705 -1.43944,-4.03043c0.57578,0.28789 1.00761,0.43183 1.43944,0.57578c1.87127,0.71972 3.88649,0 4.75015,-1.72733c0.86366,-1.72733 0.43183,-3.74254 -1.00761,-5.03804c-1.58338,-1.15155 -3.5986,-1.00761 -5.03804,0.28789c-2.3031,2.15916 -3.02282,6.18959 -1.72733,9.21242c1.00761,2.44705 3.5986,3.5986 7.05326,3.45466c0.71972,0 1.58338,-0.14394 2.3031,-0.28789c3.88649,-0.86366 7.77298,-5.61382 7.1972,-9.50031c-0.43183,-3.31071 -1.87127,-6.33354 -4.03043,-8.78059c-1.15155,-1.2955 -2.44705,-2.15916 -4.17438,-2.3031c-4.31832,-0.28789 -8.63664,-0.28789 -12.66707,1.43944c-5.61382,2.44705 -10.50791,5.90171 -14.3944,10.65186c-9.64425,11.65947 -18.13695,23.89471 -22.02344,38.86489c-0.28789,0.86366 -0.43183,1.15155 -1.43944,0.71972c-1.87127,-0.71972 -3.74254,-0.71972 -5.61382,0c-1.15155,0.43183 -1.2955,0 -1.43944,-0.86366c-0.57578,-2.15916 -1.15155,-4.17438 -2.01522,-6.33354c-3.16677,-8.92453 -8.34875,-16.84145 -13.81863,-24.47049c-3.88649,-5.61382 -8.4927,-11.08369 -14.53835,-15.25807c-5.46987,-3.5986 -11.22763,-5.18199 -17.70512,-4.60621c-1.00761,0.14394 -2.01522,0.43183 -2.87888,0.86366c-4.60621,2.59099 -6.90931,10.36397 -4.60621,14.97018c2.15916,4.46226 7.91692,6.47748 12.52313,4.46226c1.00761,-0.43183 2.01522,-1.15155 2.44705,-2.3031c1.43944,-3.16677 1.43944,-6.90931 -1.43944,-9.78819c-1.43944,-1.43944 -3.45466,-1.58338 -5.03804,-0.43183c-1.58338,1.15155 -2.01522,3.31071 -1.15155,4.8941c0.86366,1.72733 2.87888,2.44705 4.75015,1.72733c0.43183,-0.14394 0.86366,-0.71972 1.43944,-0.43183c0,2.3031 -0.28789,3.16677 -1.2955,3.88649c-3.88649,2.73494 -10.50791,0 -11.37158,-4.60621c-1.15155,-6.47748 4.46226,-12.52313 10.93975,-11.80341c4.31832,0.57578 8.4927,1.87127 12.0913,4.46226c4.03043,3.02282 7.77298,6.33354 11.08369,10.07608c9.06847,10.93975 14.53835,23.75077 19.14456,36.84967c0.14394,0.57578 0,1.15155 -0.28789,1.58338c-2.44705,3.88649 -1.87127,7.34115 1.43944,10.36397c0.57578,0.43183 0.71972,0.86366 0.28789,1.43944c-0.57578,0.86366 -1.00761,1.72733 -1.43944,2.73494c-3.16677,-6.62143 -7.1972,-12.23524 -12.23524,-17.27328c-11.94735,-11.65947 -26.05387,-20.15216 -41.16799,-26.91753c-10.93975,-4.8941 -22.31132,-7.34115 -34.40262,-7.05326c-3.31071,0.14394 -6.62143,0.43183 -9.64425,2.01522c-4.17438,2.3031 -5.75776,6.47748 -3.74254,10.7958c4.46226,9.93214 8.78059,19.86428 11.65947,30.37219c0.86366,3.31071 1.58338,6.76537 3.31071,9.93214c3.16677,5.75776 6.18959,11.37158 11.08369,15.83384c1.15155,1.00761 1.2955,1.87127 0.43183,3.31071c-3.45466,6.47748 -5.18199,13.38679 -3.02282,20.72794c2.44705,8.06087 6.90931,14.82624 15.6899,17.41723c2.3031,0.71972 4.60621,0.86366 7.05326,1.00761c0.14394,0.71972 -0.28789,1.15155 -0.43183,1.72733c-1.58338,4.31832 -3.5986,8.63664 -4.03043,13.24285c-0.71972,9.21242 0.86366,18.28089 5.03804,26.62965c0.71972,1.43944 1.72733,2.73494 2.87888,3.88649c3.74254,3.74254 7.05326,4.46226 11.94735,2.44705c1.43944,-0.57578 2.87888,-1.43944 4.31832,-2.3031c3.74254,-2.3031 7.34115,-4.75015 10.50791,-7.77298c15.97779,-14.3944 24.47049,-33.10713 26.62965,-54.84268c0.14394,-1.00761 -0.14394,-2.01522 0.43183,-3.02282c0.71972,0.43183 0.57578,1.15155 0.57578,1.58338c0.86366,6.76537 1.87127,13.38679 2.3031,20.15216c0,0.57578 -0.14394,1.43944 0.71972,1.43944c0.86366,0 0.71972,-0.86366 0.71972,-1.43944c0.43183,-5.03804 1.00761,-10.07608 1.72733,-15.11412c0.28789,-2.3031 0.43183,-4.60621 1.00761,-6.76537c0.71972,0.28789 0.57578,0.86366 0.57578,1.2955c0.14394,9.50031 2.73494,18.42484 6.18959,27.20542c6.33354,15.6899 16.40962,28.35697 30.80402,37.2815c2.01522,1.2955 4.17438,2.3031 6.33354,3.16677c2.59099,0.86366 5.03804,0.57578 7.34115,-0.86366c2.44705,-1.58338 4.31832,-3.74254 5.75776,-6.18959c1.87127,-3.45466 2.87888,-7.1972 3.74254,-10.93975c2.01522,-8.92453 2.01522,-17.84906 -1.87127,-26.34176c-0.57578,-1.2955 -1.00761,-2.73494 -1.58338,-4.17438c2.01522,-0.28789 3.74254,-0.43183 5.61382,-0.71972c11.22763,-1.72733 17.84906,-14.53835 17.993,-22.45527c0.14394,-5.90171 -1.2955,-11.37158 -4.03043,-16.40962c-0.57578,-1.00761 -0.43183,-1.72733 0.28789,-2.44705c1.15155,-1.15155 2.3031,-2.3031 3.31071,-3.45466c4.8941,-6.47748 9.06847,-13.24285 11.08369,-21.30372c2.73494,-11.08369 7.34115,-21.5916 12.0913,-31.95557c2.01522,-4.03043 0.71972,-8.06087 -3.16677,-10.50791z"></path></g></svg>