<svg version="1.1" xmlns="http://www.w3.org/2000/svg" xmlns:xlink="http://www.w3.org/1999/xlink" width="216" height="178.6873" viewBox="20.16,20.16,216,178.6873"><g fill="none" fill-rule="nonzero" stroke="#000000" stroke-width="1px" stroke-linecap="butt" stroke-linejoin="miter" stroke-miterlimit="10" stroke-dasharray="" stroke-dashoffset="0" font-family="none" font-weight="none" font-size="none" text-anchor="none" style="mix-blend-mode: normal"><path d="M45.635,56.179l-3.46,-1.086l-6.03248,-9.74646l0.07048,-0.00554l6.122,0.249l5.26622,0.68653z"></path><path d="M51.83489,47.13416l2.80711,0.62584l5.973,1.89l1.37918,0.56494l-2.70031,6.67429l-1.13087,-0.46323l-5.407,-1.711l-2.32383,-0.51787z"></path><path d="M65.9919,51.85249l0.5481,0.22451l5.914,2.797l3.09765,1.6133l-3.41501,6.33852l-2.85865,-1.48881l-5.649,-2.672l-0.33736,-0.13819z"></path><path d="M79.35902,58.52841l4.64898,2.68059l4.42635,2.84113l-4.10726,5.9201l-4.08609,-2.62223l-4.29816,-2.47888z"></path><path d="M91.98108,66.51539l2.79592,2.00661l5.049,4.07l0.51821,0.47102l-4.87564,5.29867l-0.33958,-0.30869l-4.71,-3.796l-2.54291,-1.82476z"></path><path d="M103.54103,75.96872l0.97397,0.88528l4.157,4.536l1.86378,2.55437l-5.95475,4.05391l-1.48603,-2.03628l-3.667,-4.001l-0.76283,-0.69345z"></path><path d="M112.95297,87.52501l2.51203,4.40799l1.006,1.363l1.296,1.091l1.516,0.757l0.08284,0.01918l-0.6562,7.2776l-0.12264,-0.01678l-2.289,-0.715l-2.138,-1.085l-1.929,-1.424l-1.666,-1.725l-1.356,-1.978l-2.22679,-3.90705z"></path><path d="M123.69547,95.24553l0.57553,-0.14353l1.503,-0.782l1.278,-1.112l0.482,-0.677l0.321,0.633l1.098,1.29l1.369,0.998l1.564,0.651l0.29011,0.0463l0.49416,7.3328l-1.55328,-0.1681l-2.308,-0.649l-1.922,-0.908l-1.176,0.448l-2.352,0.47l-0.33468,0.01034z"></path><path d="M136.48514,95.83814l0.37386,-0.12114l1.445,-0.884l1.199,-1.198l0.492,-0.707l3.09194,-5.064l5.9201,4.12062l-2.86704,4.69538l-1.867,2.431l-1.793,1.592l-2.032,1.273l-2.216,0.917l-1.25183,0.28765z"></path><path d="M145.541,84.30826l1.185,-1.71126l4.017,-4.64l1.75407,-1.66116l4.87097,5.30363l-1.41404,1.33853l-3.526,4.073l-0.97729,1.41134z"></path><path d="M155.66456,73.35967l4.60244,-3.64467l3.86453,-2.76913l4.08839,5.92796l-3.60992,2.58618l-4.06195,3.2171z"></path><path d="M167.68878,64.49484l3.46422,-2.31784l5.50786,-3.37597l3.5104,6.29214l-5.12626,3.14283l-3.26798,2.18664z"></path><path d="M180.44375,56.71489l2.02525,-1.11389l5.827,-2.801l1.71574,-0.69783l2.65498,6.69314l-1.45172,0.59069l-5.447,2.618l-1.81622,0.99852z"></path><path d="M194.0134,50.4746l0.2326,-0.0946l6.045,-1.993l3.89209,-0.96365l1.43481,7.06231l-3.3319,0.82534l-5.556,1.831l-0.062,0.02523z"></path><path d="M218.244,51.05l-3.17807,1.90315l-1.70893,0.10585l-3.50836,0.55647l-1.43445,-7.06217l4.16181,-0.66029l6.159,-0.381l0.11624,0.00486z"></path><path d="M226.70601,52.46943l0.97699,-2.18243l0.6,-2.671l-0.616,-0.835l-3.361,-1.036l-1.12866,-0.0472l-0.57334,5.2242z"></path><path d="M220.488,54.742l4.45923,1.68178l-2.52223,5.98322l-0.093,0.231l-0.42447,1.1128l-5.36525,-5.92534l0.4065,-0.9643z"></path><path d="M213.582,79.45l-3.60022,-2.916l0.4234,-1.55335l8.10007,-1.75024l-0.88926,2.70959l-0.106,0.351l-1.1217,4.11615z"></path><path d="M211.56396,92.08561l2.07804,-3.83161l1.41924,-3.73467l-1.11524,-0.38033z"></path><path d="M207.48,97.268l0.52421,0.36065l-0.64021,0.94335l-4.267,4.755l-0.975,1.385l-0.55441,1.39935l-7.20509,-0.7613l0.0765,-0.51405l0.742,-2.28l1.11,-2.126l1.447,-1.912l2.56781,-2.86086z"></path><path d="M201.721,120.688l-6.20452,-5.60474l-0.83948,-2.76526l-0.53178,-2.64719l7.49329,0.79174l1.80249,5.93745l1.0674,4.03706z"></path><path d="M202.36142,134.77275l1.57858,-2.85275l1.223,-4.732l-0.09708,-2.46335l-2.55892,0.23035l-2.916,7.578z"></path><path d="M190.52302,142.32771l3.73298,-0.57471l3.988,-2.04l1.46738,-1.52763l-3.35738,-2.71437l-8.826,0.988z"></path><path d="M186.25758,143.47253l-0.76658,0.42547l-1.248,1.145l-0.946,1.405l-0.592,1.588l-0.10942,0.90162l-3.99358,-0.59562l-1.25813,-5.9143l0.34713,-0.6337l1.485,-1.883l1.776,-1.61l2.00987,-1.28651z"></path><path d="M179.221,167.365l-0.2468,-0.7471l-0.1712,-1.8119l-0.42259,-1.44418l6.55678,-3.23046l0.96981,3.31264l0.3656,3.87628z"></path><path d="M177.85,179.139l-0.04957,-0.11745l0.05557,-0.16955l1.016,-5.001l0.15017,-2.1158l0.02283,-0.0492l7.20212,-0.04559l-0.22612,3.18659l-1.195,5.87819l-0.41658,1.27142z"></path><path d="M174.66875,189.91323l1.34025,0.74877l2.627,0.403l2.085,-1.377l2.30656,-3.60187l-5.69156,-2.46213z"></path><path d="M170.90724,187.71808l-4.40324,-3.16408l-3.68846,-3.20568l2.64446,-2.68332l5.26956,0.02314l0.24144,0.20986l2.81782,2.02463z"></path><path d="M156.952,167.544l-3.9292,2.55486l0.6522,1.00014l3.857,4.888l2.21401,2.3221l2.12699,-2.1581z"></path><path d="M155.887,163.083l-5.22404,3.39708l-0.40696,-0.62408l-2.972,-5.542l-1.43848,-3.29395l6.67152,-2.7166l1.25096,2.86555l2.52657,4.7137z"></path><path d="M144.21732,153.01857l-1.61732,-4.54057l-1.56492,-5.58531l7.08629,-1.39595l1.34463,4.80026l1.4265,4.00332z"></path><path d="M140.20942,138.6516l-0.42042,-2.2896l-0.44,-6.464l-0.30307,-1.61219l1.96907,-1.57181l5.86673,7.83146l0.06227,0.91454l0.33052,1.79963z"></path><path d="M139.319,122.54l-2.7616,2.20437l-0.5714,-0.45937l-1.531,-0.724l-1.659,-0.346l-1.693,0.051l-1.634,0.446l-0.705,0.387l-0.204,-0.148l-0.75547,-0.31l4.04238,-7.62442l0.3521,-0.02858l2.389,0.205l2.322,0.599l2.191,0.976l0.52534,0.34865z"></path><path d="M117.1275,132.32559l0.9425,-3.81159l0.438,-1.256l0.879,-1.448l0.78135,-0.7879l-6.15535,-2.5641l0.243,9.246z"></path><path d="M112.607,135.767l3.68885,0.79848l-0.69585,4.30452l-1.43888,6.09328l-6.89669,-2.12629l1.27157,-5.37899l0.15375,-0.95158z"></path><path d="M106.782,159.809l-3.30008,-4.44688l1.97108,-4.77912l0.51863,-1.62425l6.8811,2.1214l-0.62973,1.97184l-2.398,5.813l-1.0429,2.01833z"></path><path d="M101.0827,172.99036l2.5253,-3.29436l3.16494,-4.98796l-0.78394,-0.42104l-5.594,7.833z"></path><path d="M90.27944,184.07896l0.73156,-0.54496l2.21718,-2.06527l-4.00918,1.20027z"></path><path d="M81.03054,190.17721l0.30146,-0.08421l4.747,-2.885l0.73544,-0.54785l-1.70144,-2.26215z"></path><path d="M70.80585,177.70712l0.97415,4.07988l0.90654,2.30182l4.55346,-7.37482z"></path><path d="M70.15891,173.43629l-0.31491,-3.24629l0.213,-5.577l0.46892,-1.74036l6.97853,1.77585l-0.28345,1.05251l-0.164,4.28l0.22908,2.35525z"></path><path d="M71.69179,158.71167l2.17321,-5.68867l0.414,-1.643l0.019,-1.694l-0.25386,-1.11241l6.26358,-3.83364l0.58028,1.43106l0.52,2.341l0.124,2.394l-0.275,2.383l-0.666,2.303l-1.87467,4.90745z"></path><path d="M71.70758,144.93968l-0.98658,-0.73268l-1.69,-0.701l-5.404,-1.472l-1.64571,-0.67737l1.28571,-2.16863l8.66895,-2.25844l1.27505,0.46644l2.083,1.189l1.856,1.517l0.85856,0.98144z"></path><path d="M54.924,130.22l-2.77,0.63354l0.655,1.93346l2.588,4.255l2.70607,2.38454l1.23293,-2.07954z"></path><path d="M51.9102,118.4468l-1.0302,4.6202l0.21255,3.5986l3.55745,-0.8136l2.288,-3.299l-0.441,-0.944z"></path><path d="M56.687,107.607l-1.70215,0.60907l-0.12385,-0.73607l-0.999,-2.088l-1.89226,-2.72063l5.96685,-4.02977l1.83541,2.63841l0.50965,0.91256z"></path><path d="M49.48673,99.1344l-3.27173,-4.5214l-2.51629,-4.35194l6.56017,-3.03877l2.00712,3.47171l3.19064,4.4087z"></path><path d="M41.87157,86.34622l-1.05757,-2.44622l-1.655,-6.148l-0.094,-0.318l-0.38596,-1.2089l6.8597,-2.18882l0.38526,1.20671l0.188,0.638l1.518,5.641l0.7768,1.79694z"></path><path d="M37.36509,72.1095l-0.39509,-1.2375l-0.107,-0.312l-2.394,-6.459l-0.089,-0.229l-0.70775,-1.72643l6.66432,-2.72533l0.70542,1.72077l0.178,0.458l2.394,6.459l0.215,0.623l0.39567,1.23932z"></path><path d="M31.29766,45.72714l-0.30366,0.02386l-2.639,1.157l-0.448,0.96l1.163,3.442l2.634,6.04l0.063,0.148l0.26679,0.6508l5.54821,-2.2688z"></path><path d="M143.619,122.984l0.0789,-1.1382l0.6051,0.7932l1.118,2.122l0.36909,1.12104z"></path><path d="M62.859,134.83l-1.10123,-1.77891l0.91023,0.80191l1.52691,0.62889zM58.53,127.837l0.13708,-0.19757l0.31357,0.92554z"></path><path d="M96.343,173.961l1.32,1.67l-11.269,3.374l-0.39642,-0.71375l0.40042,-0.29825l4.038,-3.763l1.82227,-1.99039z"></path><path d="M76.00057,189.80993l-0.96934,-1.29542l4.3575,-7.05708l0.44227,1.12256l2.217,-1.347l0.02285,-0.01702z"></path><path d="M61.24,111.868l-0.757,-2.168l1.63765,-2.46686l0.18735,1.15486l-0.014,2.398l-0.09653,0.5534z"></path><path d="M102.665,161.508l-5.726,8.016l-1.71644,-0.72334l2.47344,-3.22566l3.008,-4.743l0.59915,-1.15882z"></path><path d="M178.215,152.652l4.95738,0.73953l0.59972,2.49898l-6.61419,3.25876l-0.08191,-0.30827l-0.45693,-1.90397z"></path><path d="M210.036,82.137l-3.167,10.566l-3.66501,-0.8229l1.40101,-2.0651l2.475,-4.563l1.60127,-4.21227z"></path><path d="M220.18003,68.27958l-0.07079,0.18557l-8.1997,1.77125l1.01245,-3.0864l0.228,-0.641l1.60825,-4.21683z"></path><path d="M56.768,112.166l-2.52709,0.90396l-0.59595,1.32523l3.46905,2.39181l0.64,-1.798z"></path><path d="M123.851,121.876l-7.42775,-3.09425l1.11475,-0.81775l2.142,-1.078l2.291,-0.707l2.377,-0.318l2.397,0.081l0.22737,0.04631z"></path><path d="M198.425,123.533l-0.55466,1.44117l-0.06834,-1.73317l-0.09406,-0.35587z"></path><path d="M165.818,174.346l-0.14697,-0.25701l0.24545,0.25745z"></path><path d="M109.952,132.352l-0.2717,0.19002l0.1087,-0.53202l0.13914,-0.5627z"></path><path d="M95.904,35c0,-1.67563 0.34072,-3.27169 0.95665,-4.72267c-1.56547,-1.36628 -3.19103,-2.67249 -4.86632,-3.92896c-3.5986,-2.59099 -7.77298,-3.88649 -12.0913,-4.46226c-6.47748,-0.71972 -12.0913,5.32593 -10.93975,11.80341c0.86366,4.60621 7.48509,7.34115 11.37158,4.60621c1.00761,-0.71972 1.2955,-1.58338 1.2955,-3.88649c-0.57578,-0.28789 -1.00761,0.28789 -1.43944,0.43183c-1.87127,0.71972 -3.88649,0 -4.75015,-1.72733c-0.86366,-1.58338 -0.43183,-3.74254 1.15155,-4.8941c1.58338,-1.15155 3.5986,-1.00761 5.03804,0.43183c2.87888,2.87888 2.87888,6.62143 1.43944,9.78819c-0.43183,1.15155 -1.43944,1.87127 -2.44705,2.3031c-4.60621,2.01522 -10.36397,0 -12.52313,-4.46226c-2.3031,-4.60621 0,-12.37919 4.60621,-14.97018c0.86366,-0.43183 1.87127,-0.71972 2.87888,-0.86366c6.47748,-0.57578 12.23524,1.00761 17.70512,4.60621c1.58111,1.09172 3.06377,2.27204 4.46084,3.52038c2.13996,-3.40561 5.93029,-5.66926 10.24933,-5.66926c6.68044,0 12.096,5.41556 12.096,12.096c0,5.25947 -3.35674,9.73492 -8.04472,11.40088c3.83223,5.77156 7.26131,11.80233 9.59552,18.38055c0.86366,2.15916 1.43944,4.17438 2.01522,6.33354c0.14394,0.86366 0.28789,1.2955 1.43944,0.86366c1.87127,-0.71972 3.74254,-0.71972 5.61382,0c1.00761,0.43183 1.15155,0.14394 1.43944,-0.71972c3.88649,-14.97018 12.37919,-27.20542 22.02344,-38.86489c3.88649,-4.75015 8.78059,-8.20481 14.3944,-10.65186c4.03043,-1.72733 8.34875,-1.72733 12.66707,-1.43944c1.72733,0.14394 3.02282,1.00761 4.17438,2.3031c2.15916,2.44705 3.5986,5.46987 4.03043,8.78059c0.57578,3.88649 -3.31071,8.63664 -7.1972,9.50031c-0.71972,0.14394 -1.58338,0.28789 -2.3031,0.28789c-3.45466,0.14394 -6.04565,-1.00761 -7.05326,-3.45466c-1.2955,-3.02282 -0.57578,-7.05326 1.72733,-9.21242c1.43944,-1.2955 3.45466,-1.43944 5.03804,-0.28789c1.43944,1.2955 1.87127,3.31071 1.00761,5.03804c-0.86366,1.72733 -2.87888,2.44705 -4.75015,1.72733c-0.43183,-0.14394 -0.86366,-0.28789 -1.43944,-0.57578c0,1.58338 0,3.16677 1.43944,4.03043c2.01522,1.00761 4.17438,1.87127 6.33354,0.71972c4.8941,-2.73494 5.75776,-5.18199 4.46226,-9.93214c-1.43944,-5.03804 -5.03804,-7.77298 -10.07608,-7.34115c-6.33354,0.57578 -11.37158,3.45466 -16.12173,7.48509c-8.34875,7.05326 -14.25046,15.83384 -19.00061,25.47809c-2.73494,5.75776 -5.18199,11.51552 -7.1972,17.41723c-0.43183,1.15155 -0.43183,2.01522 0.28789,3.02282c1.87127,3.02282 1.43944,6.90931 -1.15155,9.35636c-1.15155,1.15155 -1.15155,1.87127 -0.43183,3.16677c0.43183,0.43183 0.71972,1.15155 1.00761,1.72733c5.03804,-10.65186 12.81102,-19.00061 22.16738,-25.76598c13.09891,-9.64425 26.91753,-17.993 42.60743,-22.45527c8.63664,-2.44705 17.56117,-3.5986 26.62965,-2.73494c2.3031,0.14394 4.60621,0.71972 6.62143,2.01522c3.88649,2.44705 5.18199,6.47748 3.16677,10.50791c-4.75015,10.36397 -9.35636,20.87188 -12.0913,31.95557c-2.01522,8.06087 -6.18959,14.82624 -11.08369,21.30372c-1.00761,1.15155 -2.15916,2.3031 -3.31071,3.45466c-0.71972,0.71972 -0.86366,1.43944 -0.28789,2.44705c2.73494,5.03804 4.17438,10.50791 4.03043,16.40962c-0.14394,7.91692 -6.76537,20.72794 -17.993,22.45527c-1.87127,0.28789 -3.5986,0.43183 -5.61382,0.71972c0.57578,1.43944 1.00761,2.87888 1.58338,4.17438c3.88649,8.4927 3.88649,17.41723 1.87127,26.34176c-0.86366,3.74254 -1.87127,7.48509 -3.74254,10.93975c-1.43944,2.44705 -3.31071,4.60621 -5.75776,6.18959c-2.3031,1.43944 -4.75015,1.72733 -7.34115,0.86366c-2.15916,-0.86366 -4.31832,-1.87127 -6.33354,-3.16677c-14.3944,-8.92453 -24.47049,-21.5916 -30.80402,-37.2815c-3.45466,-8.78059 -6.04565,-17.70512 -6.18959,-27.20542c0,-0.43183 0.14394,-1.00761 -0.57578,-1.2955c-0.57578,2.15916 -0.71972,4.46226 -1.00761,6.76537c-0.71972,5.03804 -1.2955,10.07608 -1.72733,15.11412c0,0.57578 0.14394,1.43944 -0.71972,1.43944c-0.86366,0 -0.71972,-0.86366 -0.71972,-1.43944c-0.43183,-6.76537 -1.43944,-13.38679 -2.3031,-20.15216c0,-0.43183 0.14394,-1.15155 -0.57578,-1.58338c-0.57578,1.00761 -0.28789,2.01522 -0.43183,3.02282c-2.15916,21.73555 -10.65186,40.44827 -26.62965,54.84268c-3.16677,3.02282 -6.76537,5.46987 -10.50791,7.77298c-1.43944,0.86366 -2.87888,1.72733 -4.31832,2.3031c-4.8941,2.01522 -8.20481,1.2955 -11.94735,-2.44705c-1.15155,-1.15155 -2.15916,-2.44705 -2.87888,-3.88649c-4.17438,-8.34875 -5.75776,-17.41723 -5.03804,-26.62965c0.43183,-4.60621 2.44705,-8.92453 4.03043,-13.24285c0.14394,-0.57578 0.57578,-1.00761 0.43183,-1.72733c-2.44705,-0.14394 -4.75015,-0.28789 -7.05326,-1.00761c-8.78059,-2.59099 -13.24285,-9.35636 -15.6899,-17.41723c-2.15916,-7.34115 -0.43183,-14.25046 3.02282,-20.72794c0.86366,-1.43944 0.71972,-2.3031 -0.43183,-3.31071c-4.8941,-4.46226 -7.91692,-10.07608 -11.08369,-15.83384c-1.72733,-3.16677 -2.44705,-6.62143 -3.31071,-9.93214c-2.87888,-10.50791 -7.1972,-20.44005 -11.65947,-30.37219c-2.01522,-4.31832 -0.43183,-8.4927 3.74254,-10.7958c3.02282,-1.58338 6.33354,-1.87127 9.64425,-2.01522c12.0913,-0.28789 23.46288,2.15916 34.40262,7.05326c15.11412,6.76537 29.22064,15.25807 41.16799,26.91753c5.03804,5.03804 9.06847,10.65186 12.23524,17.27328c0.43183,-1.00761 0.86366,-1.87127 1.43944,-2.73494c0.43183,-0.57578 0.28789,-1.00761 -0.28789,-1.43944c-3.31071,-3.02282 -3.88649,-6.47748 -1.43944,-10.36397c0.28789,-0.43183 0.43183,-1.00761 0.28789,-1.58338c-3.20862,-9.12451 -6.83631,-18.10932 -11.80751,-26.41925c-0.78039,0.15813 -1.58804,0.24113 -2.41507,0.24113c-6.68044,0 -12.096,-5.41556 -12.096,-12.096z"></path><path d="M100.8,35c0,-3.97645 3.22355,-7.2 7.2,-7.2c3.97645,0 7.2,3.22355 7.2,7.2c0,3.97645 -3.22355,7.2 -7.2,7.2c-3.97645,0 -7.2,-3.22355 -7.2,-7.2z"></path></g></svg>