<svg version="1.1" xmlns="http://www.w3.org/2000/svg" xmlns:xlink="http://www.w3.org/1999/xlink" width="216" height="178.6873" viewBox="20.16,20.16,216,178.6873"><g fill="none" fill-rule="nonzero" stroke="#000000" stroke-width="1px" stroke-linecap="butt" stroke-linejoin="miter" stroke-miterlimit="10" stroke-dasharray="" stroke-dashoffset="0" font-family="none" font-weight="none" font-size="none" text-anchor="none" style="mix-blend-mode: normal"><path d="M47.60107,46.27651l-5.26607,-0.68651l-6.122,-0.249l-0.07086,0.00557l0.60186,0.97243l5.415,2.512l4.802,0.669z"></path><path d="M51.047,51.103l0.78816,-3.96878l2.80684,0.62578l5.973,1.89l1.37904,0.56488l-2.70034,6.67428l-1.1307,-0.46316l-2.13581,-0.67586z"></path><path d="M65.99205,51.85255l0.54795,0.22445l5.914,2.797l3.09765,1.6133l-3.41501,6.33852l-2.85865,-1.48881l-5.649,-2.672l-0.33718,-0.13812z"></path><path d="M79.35902,58.52841l4.64898,2.68059l4.426,2.8409l-4.10731,5.92007l-4.08569,-2.62197l-4.29816,-2.47888z"></path><path d="M91.98114,66.51543l2.79586,2.00657l5.049,4.07l0.14353,0.13046l-10.8279,0.61791l-1.26547,-0.90809z"></path><path d="M110.53592,83.94457l-1.86392,-2.55457l-4.157,-4.536l-0.55747,-0.50671l0.71847,11.26171l0.194,0.193z"></path><path d="M112.95298,87.52504l2.51202,4.40796l1.006,1.363l1.296,1.091l1.516,0.757l0.08246,0.01909l-0.65642,7.2776l-0.12204,-0.01669l-2.289,-0.715l-2.138,-1.085l-1.929,-1.424l-1.666,-1.725l-1.356,-1.978l-2.22676,-3.90701z"></path><path d="M132.386,99.263l-1.3626,4.02468l-2.2144,-0.62268l-1.922,-0.908l-1.176,0.448l-2.352,0.47l-0.33385,0.01031l0.67091,-7.43992l0.57495,-0.14339l1.503,-0.782l1.278,-1.112l0.482,-0.677l0.321,0.633l1.098,1.29l1.369,0.998l1.564,0.651l0.29016,0.04631z"></path><path d="M143.08674,87.86433l-3.09174,5.06367l-0.492,0.707l-1.199,1.198l-1.445,0.884l-0.37419,0.12125l0.01319,0.19575l8.033,-4.388l0.43,-2.477z"></path><path d="M147.749,85.846l-2.20824,-1.53739l1.18524,-1.71161l4.017,-4.64l1.75389,-1.66099l4.87093,5.30366l-1.41383,1.33832l-0.91273,1.05433z"></path><path d="M166.281,70.062l-1.79113,5.49315l-3.94142,3.12164l-4.88356,-5.31737l4.60212,-3.64441l3.86474,-2.76929z"></path><path d="M176.66089,58.80101l-5.50789,3.37599l-3.46442,2.31797l1.90142,2.75703l10.319,-2.629z"></path><path d="M180.44353,56.71501l2.02547,-1.11401l5.827,-2.801l1.71565,-0.69779l2.65496,6.69315l-1.45161,0.59064l-5.447,2.618l-1.81649,0.99867z"></path><path d="M194.0134,50.4746l0.2326,-0.0946l6.045,-1.993l3.89146,-0.9635l1.43463,7.06235l-3.33109,0.82514l-5.556,1.831l-0.062,0.02523z"></path><path d="M218.244,51.05l-3.1782,1.90316l-1.7088,0.10584l-3.5078,0.55638l-1.43457,-7.06215l4.16138,-0.66023l6.159,-0.381l0.11624,0.00486z"></path><path d="M226.70601,52.46943l0.97699,-2.18243l0.6,-2.671l-0.616,-0.835l-3.361,-1.036l-1.12866,-0.0472l-0.57334,5.2242z"></path><path d="M220.488,54.742l4.45923,1.68178l-2.52223,5.98322l-0.093,0.231l-1.03878,2.72325l-6.69165,-2.65825l1.00343,-2.631l0.185,-0.462l1.15868,-2.74863z"></path><path d="M217.45166,76.50507l-1.06348,3.90253l-6.82756,-2.32849l0.67702,-2.48381z"></path><path d="M215.06123,84.51935l-1.41923,3.73465l-2.882,5.314l-0.32965,0.48574l-5.93223,-4.0812l0.10688,-0.15754l2.475,-4.563l1.16249,-3.05803z"></path><path d="M208.00426,97.62857l-0.64026,0.94343l-4.267,4.755l-0.975,1.385l-0.55451,1.3996l-7.20504,-0.76121l0.07655,-0.51439l0.742,-2.28l1.11,-2.126l1.447,-1.912l3.943,-4.393l0.39168,-0.57733z"></path><path d="M201.293,120.727l-6.59986,-8.35584l-0.01614,-0.05316l-0.53175,-2.64706l7.49329,0.79171l1.80246,5.93735l1.06751,4.03747z"></path><path d="M202.36136,134.77285l1.57864,-2.85285l1.223,-4.732l-0.09711,-2.46403l-3.34489,0.30103l-3.262,6.593z"></path><path d="M190.52355,142.32763l3.73245,-0.57463l3.988,-2.04l1.46698,-1.5272l-4.54298,-3.6728l-7.901,1.433z"></path><path d="M186.25741,143.47262l-0.76641,0.42538l-1.248,1.145l-0.946,1.405l-0.592,1.588l-0.204,1.681l0.198,1.702l0.33903,1.41272l-7.0967,1.28123l-0.24333,-1.01395l-0.349,-2.175l0.003,-2.397l0.04448,-0.26301l3.68907,-8.23831l0.09044,-0.11468l1.776,-1.61l2.00976,-1.28644z"></path><path d="M184.04784,157.03947l0.02916,0.12153l0.091,0.343l1.739,5.94l0.15134,1.60458l-7.74607,-1.91963l-1.05427,-3.60295l-0.182,-0.685l-0.12475,-0.51981z"></path><path d="M184.40934,181.97686l0.41666,-1.27167l0.96176,-4.73088l-0.30676,0.1427l-5.193,4.077z"></path><path d="M174.66875,189.91323l1.34025,0.74877l2.627,0.403l2.085,-1.377l2.30656,-3.60187l-5.69156,-2.46213z"></path><path d="M173.712,181.103l-2.80491,6.61497l-4.40309,-3.16397l-3.68806,-3.20533l4.68506,-4.75367l0.64415,-0.1532l2.82585,2.4562l2.28128,1.63912z"></path><path d="M154.389,169.211l-1.36599,0.88817l0.65199,0.99983l3.857,4.888l2.21395,2.32203l3.27905,-3.32703z"></path><path d="M152.516,165.276l-1.85265,1.20466l-0.40735,-0.62466l-2.972,-5.542l-1.43843,-3.29382l6.67155,-2.71654l1.25088,2.86536l0.52624,0.98178z"></path><path d="M144.21736,153.01868l-1.61736,-4.54068l-1.56504,-5.58575l7.0862,-1.39627l1.34484,4.80102l1.42656,4.00349z"></path><path d="M140.20946,138.6518l-0.42046,-2.2898l-0.44,-6.464l-0.30304,-1.61204l5.79506,-4.62578l0.57998,1.10083l0.75,2.278l0.361,2.37l0.412,6.051l0.33059,1.79999z"></path><path d="M136.55731,124.7443l-0.57131,-0.4593l-1.531,-0.724l-1.659,-0.346l-1.693,0.051l-1.634,0.446l-0.705,0.387l-0.204,-0.148l-1.567,-0.643l-0.31459,-0.04886l-2.25452,-7.39557l2.32112,0.07844l2.224,0.453l0.84,-0.213l2.39,-0.194l2.389,0.205l2.322,0.599l2.191,0.976l1.998,1.326l1.16724,1.0932z"></path><path d="M122.27571,123.63226l-0.25471,0.08374l-1.441,0.891l-1.193,1.203l-0.879,1.448l-0.438,1.256l-0.94256,3.81184l-7.03977,-1.52367l0.99333,-4.01716l0.473,-1.538l1.017,-2.172l1.362,-1.973l1.672,-1.72l1.933,-1.418l2.142,-1.078l0.49267,-0.15204z"></path><path d="M116.29586,136.56538l-0.69586,4.30462l-1.43881,6.09297l-6.89664,-2.12648l1.27145,-5.37849l0.71383,-4.41786z"></path><path d="M112.85278,151.08l-0.62978,1.972l-1.86814,4.52857l-4.52537,-8.17666l0.14222,-0.44541z"></path><path d="M105.58185,166.58521l-1.97385,3.11079l-2.86962,3.74354l-5.48041,-4.68506l2.30247,-3.0027z"></path><path d="M97.92201,176.71516l-2.37201,2.59084l-4.539,4.228l-0.73213,0.54538l-4.32769,-5.75358l0.44682,-0.3328l4.038,-3.763l2.0104,-2.19587z"></path><path d="M77.03581,190.42016l1.19619,0.53884l3.1,-0.866l4.747,-2.885l0.73565,-0.54801l-3.89665,-5.18099z"></path><path d="M74.01356,187.15452l-0.25256,-0.33752l-1.981,-5.03l-0.97418,-4.07999l7.13998,-1.10209l0.72019,3.01807l0.11336,0.28773z"></path><path d="M70.15893,173.43651l-0.31493,-3.24651l0.213,-5.577l0.46892,-1.74033l6.97852,1.77586l-0.28344,1.05247l-0.164,4.28l0.2291,2.3555z"></path><path d="M71.6919,158.71139l2.1731,-5.68839l0.414,-1.643l0.019,-1.694l-0.25379,-1.11209l4.01279,-2.45591l3.47101,4.82261l-0.27101,2.34839l-0.666,2.303l-1.87449,4.90698z"></path><path d="M76.418,142.056l-4.71092,2.88331l-0.98608,-0.73231l-1.69,-0.701l-5.404,-1.472l-1.64568,-0.67735l3.71035,-6.25828l0.26134,0.10764l4.97,1.353l2.288,0.837l2.083,1.189l0.9915,0.8104z"></path><path d="M58.10313,139.42659l-2.70613,-2.38459l-2.588,-4.255l-0.6551,-1.93376l7.05528,-1.61372l0.16482,0.48648l1.605,2.639l0.86111,0.75863z"></path><path d="M51.09253,126.66521l-0.21253,-3.59821l1.116,-5.005l0.72171,-1.60488l7.11175,1.74226l-0.96546,2.14662l-0.736,3.304l0.08172,1.38738z"></path><path d="M54.5187,112.4506l0.5073,-1.6106l0.116,-1.69l-0.281,-1.67l-0.999,-2.088l-1.89218,-2.72052l5.9669,-4.02971l1.83529,2.63822l1.38,2.471l0.772,2.27l0.384,2.367l-0.014,2.398l-0.412,2.362l-0.35936,1.01865z"></path><path d="M49.48701,99.13478l-3.27201,-4.52178l-2.51629,-4.35194l6.56017,-3.03877l2.00712,3.47171l3.19104,4.40925z"></path><path d="M41.87168,86.34648l-1.05768,-2.44648l-1.655,-6.148l-0.094,-0.318l-0.38609,-1.20932l6.85964,-2.18899l0.38545,1.20732l0.188,0.638l1.518,5.641l0.77695,1.79728z"></path><path d="M33.88747,62.67056l0.49253,1.20144l0.089,0.229l2.394,6.459l0.107,0.312l0.39517,1.23775l5.19783,-1.65875l-4.072,-6.225l-2.239,-1.088z"></path><path d="M31.29733,45.72717l-0.30333,0.02383l-2.639,1.157l-0.448,0.96l1.163,3.442l2.20105,5.04721l1.68495,-7.95021z"></path><path d="M99.674,77.065l0.35378,5.55041l-0.59978,-0.65441l-4.299,-3.908l-0.84373,-0.68z"></path><path d="M181.33,173.883l-2.93216,2.30193l0.47416,-2.33393l0.206,-2.90237z"></path><path d="M219.76196,69.40121l-0.95829,2.91994l-7.277,-0.91758l1.39533,-4.25357l0.14522,-0.40828z"></path><path d="M136.346,101.039l9.141,-4.992l0.42751,0.9266l-1.64151,2.1374l-1.793,1.592l-2.032,1.273l-2.216,0.917l-2.337,0.537l-0.36585,0.0217z"></path><path d="M149.213,89.931l1.44791,-0.36808l-1.48191,2.14008l-0.38305,0.62733z"></path><path d="M156.869,165.673l0.51565,-2.06531l2.13835,3.27931l0.93355,1.18311z"></path><path d="M38.691,51.985l-3.005,6.638l-0.46,-0.091l1.574,-7.425z"></path><path d="M108.03986,162.3198l-0.08698,0.16834l-7.78599,-0.80921l0.53712,-0.84693l2.58,-4.99l0.50016,-1.2127z"></path><path d="M186.29438,170.9745l0.09878,-1.39208l-3.60316,-0.89242l2.214,2.885z"></path><path d="M232.05187,40.59883c-2.01522,-1.2955 -4.31832,-1.87127 -6.62143,-2.01522c-9.06847,-0.86366 -17.993,0.28789 -26.62965,2.73494c-15.6899,4.46226 -29.50853,12.81102 -42.60743,22.45527c-9.35636,6.76537 -17.12934,15.11412 -22.16738,25.76598c-0.28789,-0.57578 -0.57578,-1.2955 -1.00761,-1.72733c-0.71972,-1.2955 -0.71972,-2.01522 0.43183,-3.16677c2.59099,-2.44705 3.02282,-6.33354 1.15155,-9.35636c-0.71972,-1.00761 -0.71972,-1.87127 -0.28789,-3.02282c2.01522,-5.90171 4.46226,-11.65947 7.1972,-17.41723c4.75015,-9.64425 10.65186,-18.42484 19.00061,-25.47809c4.75015,-4.03043 9.78819,-6.90931 16.12173,-7.48509c5.03804,-0.43183 8.63664,2.3031 10.07608,7.34115c1.2955,4.75015 0.43183,7.1972 -4.46226,9.93214c-2.15916,1.15155 -4.31832,0.28789 -6.33354,-0.71972c-1.43944,-0.86366 -1.43944,-2.44705 -1.43944,-4.03043c0.57578,0.28789 1.00761,0.43183 1.43944,0.57578c1.87127,0.71972 3.88649,0 4.75015,-1.72733c0.86366,-1.72733 0.43183,-3.74254 -1.00761,-5.03804c-1.58338,-1.15155 -3.5986,-1.00761 -5.03804,0.28789c-2.3031,2.15916 -3.02282,6.18959 -1.72733,9.21242c1.00761,2.44705 3.5986,3.5986 7.05326,3.45466c0.71972,0 1.58338,-0.14394 2.3031,-0.28789c3.88649,-0.86366 7.77298,-5.61382 7.1972,-9.50031c-0.43183,-3.31071 -1.87127,-6.33354 -4.03043,-8.78059c-1.15155,-1.2955 -2.44705,-2.15916 -4.17438,-2.3031c-4.31832,-0.28789 -8.63664,-0.28789 -12.66707,1.43944c-5.61382,2.44705 -10.50791,5.90171 -14.3944,10.65186c-9.64425,11.65947 -18.13695,23.89471 -22.02344,38.86489c-0.28789,0.86366 -0.43183,1.15155 -1.43944,0.71972c-1.87127,-0.71972 -3.74254,-0.71972 -5.61382,0c-1.15155,0.43183 -1.2955,0 -1.43944,-0.86366c-0.57578,-2.15916 -1.15155,-4.17438 -2.01522,-6.33354c-3.16677,-8.92453 -8.34875,-16.84145 -13.81863,-24.47049c-3.88649,-5.61382 -8.4927,-11.08369 -14.53835,-15.25807c-5.46987,-3.5986 -11.22763,-5.18199 -17.70512,-4.60621c-1.00761,0.14394 -2.01522,0.43183 -2.87888,0.86366c-4.60621,2.59099 -6.90931,10.36397 -4.60621,14.97018c2.15916,4.46226 7.91692,6.47748 12.52313,4.46226c1.00761,-0.43183 2.01522,-1.15155 2.44705,-2.3031c1.43944,-3.16677 1.43944,-6.90931 -1.43944,-9.78819c-1.43944,-1.43944 -3.45466,-1.58338 -5.03804,-0.43183c-1.58338,1.15155 -2.01522,3.31071 -1.15155,4.8941c0.86366,1.72733 2.87888,2.44705 4.75015,1.72733c0.43183,-0.14394 0.86366,-0.71972 1.43944,-0.43183c0,2.3031 -0.28789,3.16677 -1.2955,3.88649c-3.88649,2.73494 -10.50791,0 -11.37158,-4.60621c-1.15155,-6.47748 4.46226,-12.52313 10.93975,-11.80341c4.31832,0.57578 8.4927,1.87127 12.0913,4.46226c4.03043,3.02282 7.77298,6.33354 11.08369,10.07608c9.06847,10.93975 14.53835,23.75077 19.14456,36.84967c0.14394,0.57578 0,1.15155 -0.28789,1.58338c-2.44705,3.88649 -1.87127,7.34115 1.43944,10.36397c0.57578,0.43183 0.71972,0.86366 0.28789,1.43944c-0.57578,0.86366 -1.00761,1.72733 -1.43944,2.73494c-3.16677,-6.62143 -7.1972,-12.23524 -12.23524,-17.27328c-11.94735,-11.65947 -26.05387,-20.15216 -41.16799,-26.91753c-10.93975,-4.8941 -22.31132,-7.34115 -34.40262,-7.05326c-3.31071,0.14394 -6.62143,0.43183 -9.64425,2.01522c-4.17438,2.3031 -5.75776,6.47748 -3.74254,10.7958c4.46226,9.93214 8.78059,19.86428 11.65947,30.37219c0.86366,3.31071 1.58338,6.76537 3.31071,9.93214c3.16677,5.75776 6.18959,11.37158 11.08369,15.83384c1.15155,1.00761 1.2955,1.87127 0.43183,3.31071c-3.45466,6.47748 -5.18199,13.38679 -3.02282,20.72794c2.44705,8.06087 6.90931,14.82624 15.6899,17.41723c2.3031,0.71972 4.60621,0.86366 7.05326,1.00761c0.14394,0.71972 -0.28789,1.15155 -0.43183,1.72733c-1.58338,4.31832 -3.5986,8.63664 -4.03043,13.24285c-0.71972,9.21242 0.86366,18.28089 5.03804,26.62965c0.71972,1.43944 1.72733,2.73494 2.87888,3.88649c3.74254,3.74254 7.05326,4.46226 11.94735,2.44705c1.43944,-0.57578 2.87888,-1.43944 4.31832,-2.3031c3.74254,-2.3031 7.34115,-4.75015 10.50791,-7.77298c15.97779,-14.3944 24.47049,-33.10713 26.62965,-54.84268c0.14394,-1.00761 -0.14394,-2.01522 0.43183,-3.02282c0.71972,0.43183 0.57578,1.15155 0.57578,1.58338c0.86366,6.76537 1.87127,13.38679 2.3031,20.15216c0,0.57578 -0.14394,1.43944 0.71972,1.43944c0.86366,0 0.71972,-0.86366 0.71972,-1.43944c0.43183,-5.03804 1.00761,-10.07608 1.72733,-15.11412c0.28789,-2.3031 0.43183,-4.60621 1.00761,-6.76537c0.71972,0.28789 0.57578,0.86366 0.57578,1.2955c0.14394,9.50031 2.73494,18.42484 6.18959,27.20542c6.33354,15.6899 16.40962,28.35697 30.80402,37.2815c2.01522,1.2955 4.17438,2.3031 6.33354,3.16677c2.59099,0.86366 5.03804,0.57578 7.34115,-0.86366c2.44705,-1.58338 4.31832,-3.74254 5.75776,-6.18959c1.87127,-3.45466 2.87888,-7.1972 3.74254,-10.93975c2.01522,-8.92453 2.01522,-17.84906 -1.87127,-26.34176c-0.57578,-1.2955 -1.00761,-2.73494 -1.58338,-4.17438c2.01522,-0.28789 3.74254,-0.43183 5.61382,-0.71972c11.22763,-1.72733 17.84906,-14.53835 17.993,-22.45527c0.14394,-5.90171 -1.2955,-11.37158 -4.03043,-16.40962c-0.57578,-1.00761 -0.43183,-1.72733 0.28789,-2.44705c1.15155,-1.15155 2.3031,-2.3031 3.31071,-3.45466c4.8941,-6.47748 9.06847,-13.24285 11.08369,-21.30372c2.73494,-11.08369 7.34115,-21.5916 12.0913,-31.95557c2.01522,-4.03043 0.71972,-8.06087 -3.16677,-10.50791z"></path></g></svg>